<?xml version="1.0" encoding="utf-8" standalone="no"?>
<!DOCTYPE svg PUBLIC "-//W3C//DTD SVG 1.1//EN"
  "http://www.w3.org/Graphics/SVG/1.1/DTD/svg11.dtd">
<svg xmlns:xlink="http://www.w3.org/1999/xlink" width="576pt" height="576pt" viewBox="0 0 576 576" xmlns="http://www.w3.org/2000/svg" version="1.1">
 <metadata>
  <rdf:RDF xmlns:dc="http://purl.org/dc/elements/1.1/" xmlns:cc="http://creativecommons.org/ns#" xmlns:rdf="http://www.w3.org/1999/02/22-rdf-syntax-ns#">
   <cc:Work>
    <dc:type rdf:resource="http://purl.org/dc/dcmitype/StillImage"/>
    <dc:date>2025-01-26T02:09:40.232548</dc:date>
    <dc:format>image/svg+xml</dc:format>
    <dc:creator>
     <cc:Agent>
      <dc:title>Matplotlib v3.9.2, https://matplotlib.org/</dc:title>
     </cc:Agent>
    </dc:creator>
   </cc:Work>
  </rdf:RDF>
 </metadata>
 <defs>
  <style type="text/css">*{stroke-linejoin: round; stroke-linecap: butt}</style>
 </defs>
 <g id="figure_1">
  <g id="patch_1">
   <path d="M 0 576 
L 576 576 
L 576 0 
L 0 0 
z
" style="fill: #ffffff"/>
  </g>
  <g id="axes_1">
   <g id="patch_2">
    <path d="M 496.125 282.168 
C 496.125 254.633403 490.701285 227.366545 480.164251 201.927895 
C 469.627217 176.489244 454.181782 153.373518 434.711882 133.903618 
C 415.241982 114.433718 392.126256 98.988283 366.687605 88.451249 
C 341.248955 77.914215 313.982097 72.4905 286.4475 72.4905 
C 258.912903 72.4905 231.646045 77.914215 206.207395 88.451249 
C 180.768744 98.988283 157.653018 114.433718 138.183118 133.903618 
C 118.713218 153.373518 103.267783 176.489244 92.730749 201.927895 
C 82.193715 227.366545 76.77 254.633403 76.77 282.168 
C 76.77 309.702597 82.193715 336.969455 92.730749 362.408105 
C 103.267783 387.846756 118.713218 410.962482 138.183118 430.432382 
C 157.653018 449.902282 180.768744 465.347717 206.207395 475.884751 
C 231.646045 486.421785 258.912903 491.8455 286.4475 491.8455 
C 313.982097 491.8455 341.248955 486.421785 366.687605 475.884751 
C 392.126256 465.347717 415.241982 449.902282 434.711882 430.432382 
C 454.181782 410.962482 469.627217 387.846756 480.164251 362.408105 
C 490.701285 336.969455 496.125 309.702597 496.125 282.168 
M 286.4475 282.168 
C 286.4475 282.168 286.4475 282.168 286.4475 282.168 
C 286.4475 282.168 286.4475 282.168 286.4475 282.168 
C 286.4475 282.168 286.4475 282.168 286.4475 282.168 
C 286.4475 282.168 286.4475 282.168 286.4475 282.168 
C 286.4475 282.168 286.4475 282.168 286.4475 282.168 
C 286.4475 282.168 286.4475 282.168 286.4475 282.168 
C 286.4475 282.168 286.4475 282.168 286.4475 282.168 
C 286.4475 282.168 286.4475 282.168 286.4475 282.168 
C 286.4475 282.168 286.4475 282.168 286.4475 282.168 
C 286.4475 282.168 286.4475 282.168 286.4475 282.168 
C 286.4475 282.168 286.4475 282.168 286.4475 282.168 
C 286.4475 282.168 286.4475 282.168 286.4475 282.168 
C 286.4475 282.168 286.4475 282.168 286.4475 282.168 
C 286.4475 282.168 286.4475 282.168 286.4475 282.168 
C 286.4475 282.168 286.4475 282.168 286.4475 282.168 
C 286.4475 282.168 286.4475 282.168 286.4475 282.168 
z
" style="fill: #ffffff"/>
   </g>
   <g id="patch_3">
    <path d="M 286.4475 282.168 
C 286.4475 282.168 286.4475 282.168 286.4475 282.168 
C 286.4475 282.168 286.4475 282.168 286.4475 282.168 
L 485.862653 217.374089 
C 492.661776 238.29964 496.125 260.165574 496.125 282.168 
C 496.125 304.170426 492.661776 326.03636 485.862653 346.961911 
z
" clip-path="url(#p803c497f1c)" style="fill: #82c3ff; opacity: 0.259917"/>
   </g>
   <g id="patch_4">
    <path d="M 286.4475 282.168 
C 286.4475 282.168 286.4475 282.168 286.4475 282.168 
C 286.4475 282.168 286.4475 282.168 286.4475 282.168 
L 368.611061 169.079559 
C 380.477952 177.70136 390.91414 188.137548 399.535941 200.004439 
C 408.157741 211.871329 414.858186 225.021692 419.390935 238.972059 
z
" clip-path="url(#p803c497f1c)" style="fill: #82c3ff; opacity: 0.259917"/>
   </g>
   <g id="patch_5">
    <path d="M 286.4475 282.168 
C 286.4475 282.168 286.4475 282.168 286.4475 282.168 
C 286.4475 282.168 286.4475 282.168 286.4475 282.168 
L 286.4475 142.383 
C 301.115784 142.383 315.693074 144.691816 329.643441 149.224565 
C 343.593808 153.757314 356.744171 160.457759 368.611061 169.079559 
z
" clip-path="url(#p803c497f1c)" style="fill: #82c3ff; opacity: 0.259917"/>
   </g>
   <g id="patch_6">
    <path d="M 286.4475 282.168 
C 286.4475 282.168 286.4475 282.168 286.4475 282.168 
C 286.4475 282.168 286.4475 282.168 286.4475 282.168 
L 286.4475 282.168 
C 286.4475 282.168 286.4475 282.168 286.4475 282.168 
C 286.4475 282.168 286.4475 282.168 286.4475 282.168 
z
" clip-path="url(#p803c497f1c)" style="fill: #82c3ff; opacity: 0.259917"/>
   </g>
   <g id="patch_7">
    <path d="M 286.4475 282.168 
C 286.4475 282.168 286.4475 282.168 286.4475 282.168 
C 286.4475 282.168 286.4475 282.168 286.4475 282.168 
L 219.975782 260.57003 
C 222.242157 253.594846 225.592379 247.019665 229.90328 241.086219 
C 234.21418 235.152774 239.432274 229.93468 245.365719 225.62378 
z
" clip-path="url(#p803c497f1c)" style="fill: #82c3ff; opacity: 0.259917"/>
   </g>
   <g id="patch_8">
    <path d="M 286.4475 282.168 
C 286.4475 282.168 286.4475 282.168 286.4475 282.168 
C 286.4475 282.168 286.4475 282.168 286.4475 282.168 
L 286.4475 282.168 
C 286.4475 282.168 286.4475 282.168 286.4475 282.168 
C 286.4475 282.168 286.4475 282.168 286.4475 282.168 
z
" clip-path="url(#p803c497f1c)" style="fill: #82c3ff; opacity: 0.259917"/>
   </g>
   <g id="patch_9">
    <path d="M 286.4475 282.168 
C 286.4475 282.168 286.4475 282.168 286.4475 282.168 
C 286.4475 282.168 286.4475 282.168 286.4475 282.168 
L 204.283939 395.256441 
C 192.417048 386.63464 181.98086 376.198452 173.359059 364.331561 
C 164.737259 352.464671 158.036814 339.314308 153.504065 325.363941 
z
" clip-path="url(#p803c497f1c)" style="fill: #82c3ff; opacity: 0.259917"/>
   </g>
   <g id="patch_10">
    <path d="M 286.4475 282.168 
C 286.4475 282.168 286.4475 282.168 286.4475 282.168 
C 286.4475 282.168 286.4475 282.168 286.4475 282.168 
L 286.4475 352.0605 
C 279.113358 352.0605 271.824713 350.906092 264.84953 348.639718 
C 257.874346 346.373343 251.299165 343.023121 245.365719 338.71222 
z
" clip-path="url(#p803c497f1c)" style="fill: #82c3ff; opacity: 0.259917"/>
   </g>
   <g id="patch_11">
    <path d="M 286.4475 282.168 
C 286.4475 282.168 286.4475 282.168 286.4475 282.168 
C 286.4475 282.168 286.4475 282.168 286.4475 282.168 
L 286.4475 282.168 
C 286.4475 282.168 286.4475 282.168 286.4475 282.168 
C 286.4475 282.168 286.4475 282.168 286.4475 282.168 
z
" clip-path="url(#p803c497f1c)" style="fill: #82c3ff; opacity: 0.259917"/>
   </g>
   <g id="patch_12">
    <path d="M 286.4475 282.168 
C 286.4475 282.168 286.4475 282.168 286.4475 282.168 
C 286.4475 282.168 286.4475 282.168 286.4475 282.168 
L 286.4475 282.168 
C 286.4475 282.168 286.4475 282.168 286.4475 282.168 
C 286.4475 282.168 286.4475 282.168 286.4475 282.168 
z
" clip-path="url(#p803c497f1c)" style="fill: #82c3ff; opacity: 0.259917"/>
   </g>
   <g id="patch_13">
    <path d="M 286.4475 282.168 
C 286.4475 282.168 286.4475 282.168 286.4475 282.168 
C 286.4475 282.168 286.4475 282.168 286.4475 282.168 
L 485.862653 217.374089 
C 492.661776 238.29964 496.125 260.165574 496.125 282.168 
C 496.125 304.170426 492.661776 326.03636 485.862653 346.961911 
z
" clip-path="url(#p803c497f1c)" style="fill: #82c3ff; opacity: 0.259917"/>
   </g>
   <g id="patch_14">
    <path d="M 286.4475 282.168 
C 286.4475 282.168 286.4475 282.168 286.4475 282.168 
C 286.4475 282.168 286.4475 282.168 286.4475 282.168 
L 409.692842 112.535339 
C 427.493179 125.468041 443.147459 141.122321 456.080161 158.922658 
C 469.012862 176.722994 479.063529 196.448539 485.862653 217.374089 
z
" clip-path="url(#p803c497f1c)" style="fill: #82c3ff; opacity: 0.259917"/>
   </g>
   <g id="patch_15">
    <path d="M 286.4475 282.168 
C 286.4475 282.168 286.4475 282.168 286.4475 282.168 
C 286.4475 282.168 286.4475 282.168 286.4475 282.168 
L 286.4475 282.168 
C 286.4475 282.168 286.4475 282.168 286.4475 282.168 
C 286.4475 282.168 286.4475 282.168 286.4475 282.168 
z
" clip-path="url(#p803c497f1c)" style="fill: #82c3ff; opacity: 0.259917"/>
   </g>
   <g id="patch_16">
    <path d="M 286.4475 282.168 
C 286.4475 282.168 286.4475 282.168 286.4475 282.168 
C 286.4475 282.168 286.4475 282.168 286.4475 282.168 
L 286.4475 282.168 
C 286.4475 282.168 286.4475 282.168 286.4475 282.168 
C 286.4475 282.168 286.4475 282.168 286.4475 282.168 
z
" clip-path="url(#p803c497f1c)" style="fill: #82c3ff; opacity: 0.259917"/>
   </g>
   <g id="patch_17">
    <path d="M 286.4475 282.168 
C 286.4475 282.168 286.4475 282.168 286.4475 282.168 
C 286.4475 282.168 286.4475 282.168 286.4475 282.168 
L 219.975782 260.57003 
C 222.242157 253.594846 225.592379 247.019665 229.90328 241.086219 
C 234.21418 235.152774 239.432274 229.93468 245.365719 225.62378 
z
" clip-path="url(#p803c497f1c)" style="fill: #82c3ff; opacity: 0.259917"/>
   </g>
   <g id="patch_18">
    <path d="M 286.4475 282.168 
C 286.4475 282.168 286.4475 282.168 286.4475 282.168 
C 286.4475 282.168 286.4475 282.168 286.4475 282.168 
L 286.4475 282.168 
C 286.4475 282.168 286.4475 282.168 286.4475 282.168 
C 286.4475 282.168 286.4475 282.168 286.4475 282.168 
z
" clip-path="url(#p803c497f1c)" style="fill: #82c3ff; opacity: 0.259917"/>
   </g>
   <g id="patch_19">
    <path d="M 286.4475 282.168 
C 286.4475 282.168 286.4475 282.168 286.4475 282.168 
C 286.4475 282.168 286.4475 282.168 286.4475 282.168 
L 245.365719 338.71222 
C 239.432274 334.40132 234.21418 329.183226 229.90328 323.249781 
C 225.592379 317.316335 222.242157 310.741154 219.975782 303.76597 
z
" clip-path="url(#p803c497f1c)" style="fill: #82c3ff; opacity: 0.259917"/>
   </g>
   <g id="patch_20">
    <path d="M 286.4475 282.168 
C 286.4475 282.168 286.4475 282.168 286.4475 282.168 
C 286.4475 282.168 286.4475 282.168 286.4475 282.168 
L 286.4475 282.168 
C 286.4475 282.168 286.4475 282.168 286.4475 282.168 
C 286.4475 282.168 286.4475 282.168 286.4475 282.168 
z
" clip-path="url(#p803c497f1c)" style="fill: #82c3ff; opacity: 0.259917"/>
   </g>
   <g id="patch_21">
    <path d="M 286.4475 282.168 
C 286.4475 282.168 286.4475 282.168 286.4475 282.168 
C 286.4475 282.168 286.4475 282.168 286.4475 282.168 
L 286.4475 282.168 
C 286.4475 282.168 286.4475 282.168 286.4475 282.168 
C 286.4475 282.168 286.4475 282.168 286.4475 282.168 
z
" clip-path="url(#p803c497f1c)" style="fill: #82c3ff; opacity: 0.259917"/>
   </g>
   <g id="patch_22">
    <path d="M 286.4475 282.168 
C 286.4475 282.168 286.4475 282.168 286.4475 282.168 
C 286.4475 282.168 286.4475 282.168 286.4475 282.168 
L 286.4475 282.168 
C 286.4475 282.168 286.4475 282.168 286.4475 282.168 
C 286.4475 282.168 286.4475 282.168 286.4475 282.168 
z
" clip-path="url(#p803c497f1c)" style="fill: #82c3ff; opacity: 0.259917"/>
   </g>
   <g id="patch_23">
    <path d="M 286.4475 282.168 
C 286.4475 282.168 286.4475 282.168 286.4475 282.168 
C 286.4475 282.168 286.4475 282.168 286.4475 282.168 
L 485.862653 217.374089 
C 492.661776 238.29964 496.125 260.165574 496.125 282.168 
C 496.125 304.170426 492.661776 326.03636 485.862653 346.961911 
z
" clip-path="url(#p803c497f1c)" style="fill: #82c3ff; opacity: 0.259917"/>
   </g>
   <g id="patch_24">
    <path d="M 286.4475 282.168 
C 286.4475 282.168 286.4475 282.168 286.4475 282.168 
C 286.4475 282.168 286.4475 282.168 286.4475 282.168 
L 409.692842 112.535339 
C 427.493179 125.468041 443.147459 141.122321 456.080161 158.922658 
C 469.012862 176.722994 479.063529 196.448539 485.862653 217.374089 
z
" clip-path="url(#p803c497f1c)" style="fill: #82c3ff; opacity: 0.259917"/>
   </g>
   <g id="patch_25">
    <path d="M 286.4475 282.168 
C 286.4475 282.168 286.4475 282.168 286.4475 282.168 
C 286.4475 282.168 286.4475 282.168 286.4475 282.168 
L 286.4475 72.4905 
C 308.449926 72.4905 330.31586 75.953724 351.241411 82.752847 
C 372.166961 89.551971 391.892506 99.602638 409.692842 112.535339 
z
" clip-path="url(#p803c497f1c)" style="fill: #82c3ff; opacity: 0.259917"/>
   </g>
   <g id="patch_26">
    <path d="M 286.4475 282.168 
C 286.4475 282.168 286.4475 282.168 286.4475 282.168 
C 286.4475 282.168 286.4475 282.168 286.4475 282.168 
L 286.4475 282.168 
C 286.4475 282.168 286.4475 282.168 286.4475 282.168 
C 286.4475 282.168 286.4475 282.168 286.4475 282.168 
z
" clip-path="url(#p803c497f1c)" style="fill: #82c3ff; opacity: 0.259917"/>
   </g>
   <g id="patch_27">
    <path d="M 286.4475 282.168 
C 286.4475 282.168 286.4475 282.168 286.4475 282.168 
C 286.4475 282.168 286.4475 282.168 286.4475 282.168 
L 87.032347 217.374089 
C 93.831471 196.448539 103.882138 176.722994 116.814839 158.922658 
C 129.747541 141.122321 145.401821 125.468041 163.202158 112.535339 
z
" clip-path="url(#p803c497f1c)" style="fill: #82c3ff; opacity: 0.259917"/>
   </g>
   <g id="patch_28">
    <path d="M 286.4475 282.168 
C 286.4475 282.168 286.4475 282.168 286.4475 282.168 
C 286.4475 282.168 286.4475 282.168 286.4475 282.168 
L 219.975782 303.76597 
C 217.709408 296.790787 216.555 289.502142 216.555 282.168 
C 216.555 274.833858 217.709408 267.545213 219.975782 260.57003 
z
" clip-path="url(#p803c497f1c)" style="fill: #82c3ff; opacity: 0.259917"/>
   </g>
   <g id="patch_29">
    <path d="M 286.4475 282.168 
C 286.4475 282.168 286.4475 282.168 286.4475 282.168 
C 286.4475 282.168 286.4475 282.168 286.4475 282.168 
L 204.283939 395.256441 
C 192.417048 386.63464 181.98086 376.198452 173.359059 364.331561 
C 164.737259 352.464671 158.036814 339.314308 153.504065 325.363941 
z
" clip-path="url(#p803c497f1c)" style="fill: #82c3ff; opacity: 0.259917"/>
   </g>
   <g id="patch_30">
    <path d="M 286.4475 282.168 
C 286.4475 282.168 286.4475 282.168 286.4475 282.168 
C 286.4475 282.168 286.4475 282.168 286.4475 282.168 
L 286.4475 421.953 
C 271.779216 421.953 257.201926 419.644184 243.251559 415.111435 
C 229.301192 410.578686 216.150829 403.878241 204.283939 395.256441 
z
" clip-path="url(#p803c497f1c)" style="fill: #82c3ff; opacity: 0.259917"/>
   </g>
   <g id="patch_31">
    <path d="M 286.4475 282.168 
C 286.4475 282.168 286.4475 282.168 286.4475 282.168 
C 286.4475 282.168 286.4475 282.168 286.4475 282.168 
L 286.4475 282.168 
C 286.4475 282.168 286.4475 282.168 286.4475 282.168 
C 286.4475 282.168 286.4475 282.168 286.4475 282.168 
z
" clip-path="url(#p803c497f1c)" style="fill: #82c3ff; opacity: 0.259917"/>
   </g>
   <g id="patch_32">
    <path d="M 286.4475 282.168 
C 286.4475 282.168 286.4475 282.168 286.4475 282.168 
C 286.4475 282.168 286.4475 282.168 286.4475 282.168 
L 286.4475 282.168 
C 286.4475 282.168 286.4475 282.168 286.4475 282.168 
C 286.4475 282.168 286.4475 282.168 286.4475 282.168 
z
" clip-path="url(#p803c497f1c)" style="fill: #82c3ff; opacity: 0.259917"/>
   </g>
   <g id="patch_33">
    <path d="M 286.4475 282.168 
C 286.4475 282.168 286.4475 282.168 286.4475 282.168 
C 286.4475 282.168 286.4475 282.168 286.4475 282.168 
L 485.862653 217.374089 
C 492.661776 238.29964 496.125 260.165574 496.125 282.168 
C 496.125 304.170426 492.661776 326.03636 485.862653 346.961911 
z
" clip-path="url(#p803c497f1c)" style="fill: #82c3ff; opacity: 0.259917"/>
   </g>
   <g id="patch_34">
    <path d="M 286.4475 282.168 
C 286.4475 282.168 286.4475 282.168 286.4475 282.168 
C 286.4475 282.168 286.4475 282.168 286.4475 282.168 
L 327.529281 225.62378 
C 333.462726 229.93468 338.68082 235.152774 342.99172 241.086219 
C 347.302621 247.019665 350.652843 253.594846 352.919218 260.57003 
z
" clip-path="url(#p803c497f1c)" style="fill: #82c3ff; opacity: 0.259917"/>
   </g>
   <g id="patch_35">
    <path d="M 286.4475 282.168 
C 286.4475 282.168 286.4475 282.168 286.4475 282.168 
C 286.4475 282.168 286.4475 282.168 286.4475 282.168 
L 286.4475 72.4905 
C 308.449926 72.4905 330.31586 75.953724 351.241411 82.752847 
C 372.166961 89.551971 391.892506 99.602638 409.692842 112.535339 
z
" clip-path="url(#p803c497f1c)" style="fill: #82c3ff; opacity: 0.259917"/>
   </g>
   <g id="patch_36">
    <path d="M 286.4475 282.168 
C 286.4475 282.168 286.4475 282.168 286.4475 282.168 
C 286.4475 282.168 286.4475 282.168 286.4475 282.168 
L 286.4475 282.168 
C 286.4475 282.168 286.4475 282.168 286.4475 282.168 
C 286.4475 282.168 286.4475 282.168 286.4475 282.168 
z
" clip-path="url(#p803c497f1c)" style="fill: #82c3ff; opacity: 0.259917"/>
   </g>
   <g id="patch_37">
    <path d="M 286.4475 282.168 
C 286.4475 282.168 286.4475 282.168 286.4475 282.168 
C 286.4475 282.168 286.4475 282.168 286.4475 282.168 
L 87.032347 217.374089 
C 93.831471 196.448539 103.882138 176.722994 116.814839 158.922658 
C 129.747541 141.122321 145.401821 125.468041 163.202158 112.535339 
z
" clip-path="url(#p803c497f1c)" style="fill: #82c3ff; opacity: 0.259917"/>
   </g>
   <g id="patch_38">
    <path d="M 286.4475 282.168 
C 286.4475 282.168 286.4475 282.168 286.4475 282.168 
C 286.4475 282.168 286.4475 282.168 286.4475 282.168 
L 286.4475 282.168 
C 286.4475 282.168 286.4475 282.168 286.4475 282.168 
C 286.4475 282.168 286.4475 282.168 286.4475 282.168 
z
" clip-path="url(#p803c497f1c)" style="fill: #82c3ff; opacity: 0.259917"/>
   </g>
   <g id="patch_39">
    <path d="M 286.4475 282.168 
C 286.4475 282.168 286.4475 282.168 286.4475 282.168 
C 286.4475 282.168 286.4475 282.168 286.4475 282.168 
L 204.283939 395.256441 
C 192.417048 386.63464 181.98086 376.198452 173.359059 364.331561 
C 164.737259 352.464671 158.036814 339.314308 153.504065 325.363941 
z
" clip-path="url(#p803c497f1c)" style="fill: #82c3ff; opacity: 0.259917"/>
   </g>
   <g id="patch_40">
    <path d="M 286.4475 282.168 
C 286.4475 282.168 286.4475 282.168 286.4475 282.168 
C 286.4475 282.168 286.4475 282.168 286.4475 282.168 
L 286.4475 421.953 
C 271.779216 421.953 257.201926 419.644184 243.251559 415.111435 
C 229.301192 410.578686 216.150829 403.878241 204.283939 395.256441 
z
" clip-path="url(#p803c497f1c)" style="fill: #82c3ff; opacity: 0.259917"/>
   </g>
   <g id="patch_41">
    <path d="M 286.4475 282.168 
C 286.4475 282.168 286.4475 282.168 286.4475 282.168 
C 286.4475 282.168 286.4475 282.168 286.4475 282.168 
L 286.4475 282.168 
C 286.4475 282.168 286.4475 282.168 286.4475 282.168 
C 286.4475 282.168 286.4475 282.168 286.4475 282.168 
z
" clip-path="url(#p803c497f1c)" style="fill: #82c3ff; opacity: 0.259917"/>
   </g>
   <g id="patch_42">
    <path d="M 286.4475 282.168 
C 286.4475 282.168 286.4475 282.168 286.4475 282.168 
C 286.4475 282.168 286.4475 282.168 286.4475 282.168 
L 286.4475 282.168 
C 286.4475 282.168 286.4475 282.168 286.4475 282.168 
C 286.4475 282.168 286.4475 282.168 286.4475 282.168 
z
" clip-path="url(#p803c497f1c)" style="fill: #82c3ff; opacity: 0.259917"/>
   </g>
   <g id="matplotlib.axis_1">
    <g id="xtick_1">
     <g id="text_1">
      <!-- Connectivity -->
      <g style="fill: #262626" transform="translate(506.668906 279.088344) scale(0.11 -0.11)">
       <defs>
        <path id="LiberationSans-43" d="M 2475 3981 
Q 1744 3981 1337 3511 
Q 931 3041 931 2222 
Q 931 1413 1354 920 
Q 1778 428 2500 428 
Q 3425 428 3891 1344 
L 4378 1100 
Q 4106 531 3614 234 
Q 3122 -63 2472 -63 
Q 1806 -63 1320 214 
Q 834 491 579 1005 
Q 325 1519 325 2222 
Q 325 3275 894 3872 
Q 1463 4469 2469 4469 
Q 3172 4469 3644 4194 
Q 4116 3919 4338 3378 
L 3772 3191 
Q 3619 3575 3280 3778 
Q 2941 3981 2475 3981 
z
" transform="scale(0.015625)"/>
        <path id="LiberationSans-6f" d="M 3291 1694 
Q 3291 806 2900 371 
Q 2509 -63 1766 -63 
Q 1025 -63 647 389 
Q 269 841 269 1694 
Q 269 3444 1784 3444 
Q 2559 3444 2925 3017 
Q 3291 2591 3291 1694 
z
M 2700 1694 
Q 2700 2394 2492 2711 
Q 2284 3028 1794 3028 
Q 1300 3028 1079 2704 
Q 859 2381 859 1694 
Q 859 1025 1076 689 
Q 1294 353 1759 353 
Q 2266 353 2483 678 
Q 2700 1003 2700 1694 
z
" transform="scale(0.015625)"/>
        <path id="LiberationSans-6e" d="M 2578 0 
L 2578 2144 
Q 2578 2478 2512 2662 
Q 2447 2847 2303 2928 
Q 2159 3009 1881 3009 
Q 1475 3009 1240 2731 
Q 1006 2453 1006 1959 
L 1006 0 
L 444 0 
L 444 2659 
Q 444 3250 425 3381 
L 956 3381 
Q 959 3366 962 3297 
Q 966 3228 970 3139 
Q 975 3050 981 2803 
L 991 2803 
Q 1184 3153 1439 3298 
Q 1694 3444 2072 3444 
Q 2628 3444 2886 3167 
Q 3144 2891 3144 2253 
L 3144 0 
L 2578 0 
z
" transform="scale(0.015625)"/>
        <path id="LiberationSans-65" d="M 863 1572 
Q 863 991 1103 675 
Q 1344 359 1806 359 
Q 2172 359 2392 506 
Q 2613 653 2691 878 
L 3184 738 
Q 2881 -63 1806 -63 
Q 1056 -63 664 384 
Q 272 831 272 1713 
Q 272 2550 664 2997 
Q 1056 3444 1784 3444 
Q 3275 3444 3275 1647 
L 3275 1572 
L 863 1572 
z
M 2694 2003 
Q 2647 2538 2422 2783 
Q 2197 3028 1775 3028 
Q 1366 3028 1127 2754 
Q 888 2481 869 2003 
L 2694 2003 
z
" transform="scale(0.015625)"/>
        <path id="LiberationSans-63" d="M 859 1706 
Q 859 1031 1071 706 
Q 1284 381 1713 381 
Q 2013 381 2214 543 
Q 2416 706 2463 1044 
L 3031 1006 
Q 2966 519 2616 228 
Q 2266 -63 1728 -63 
Q 1019 -63 645 385 
Q 272 834 272 1694 
Q 272 2547 647 2995 
Q 1022 3444 1722 3444 
Q 2241 3444 2583 3175 
Q 2925 2906 3013 2434 
L 2434 2391 
Q 2391 2672 2212 2837 
Q 2034 3003 1706 3003 
Q 1259 3003 1059 2706 
Q 859 2409 859 1706 
z
" transform="scale(0.015625)"/>
        <path id="LiberationSans-74" d="M 1731 25 
Q 1453 -50 1163 -50 
Q 488 -50 488 716 
L 488 2972 
L 97 2972 
L 97 3381 
L 509 3381 
L 675 4138 
L 1050 4138 
L 1050 3381 
L 1675 3381 
L 1675 2972 
L 1050 2972 
L 1050 838 
Q 1050 594 1129 495 
Q 1209 397 1406 397 
Q 1519 397 1731 441 
L 1731 25 
z
" transform="scale(0.015625)"/>
        <path id="LiberationSans-69" d="M 428 4100 
L 428 4638 
L 991 4638 
L 991 4100 
L 428 4100 
z
M 428 0 
L 428 3381 
L 991 3381 
L 991 0 
L 428 0 
z
" transform="scale(0.015625)"/>
        <path id="LiberationSans-76" d="M 1916 0 
L 1250 0 
L 22 3381 
L 622 3381 
L 1366 1181 
Q 1406 1056 1581 441 
L 1691 806 
L 1813 1175 
L 2581 3381 
L 3178 3381 
L 1916 0 
z
" transform="scale(0.015625)"/>
        <path id="LiberationSans-79" d="M 597 -1328 
Q 366 -1328 209 -1294 
L 209 -872 
Q 328 -891 472 -891 
Q 997 -891 1303 -119 
L 1356 16 
L 16 3381 
L 616 3381 
L 1328 1513 
Q 1344 1469 1366 1408 
Q 1388 1347 1506 1000 
Q 1625 653 1634 613 
L 1853 1228 
L 2594 3381 
L 3188 3381 
L 1888 0 
Q 1678 -541 1497 -805 
Q 1316 -1069 1095 -1198 
Q 875 -1328 597 -1328 
z
" transform="scale(0.015625)"/>
       </defs>
       <use xlink:href="#LiberationSans-43"/>
       <use xlink:href="#LiberationSans-6f" x="72.216797"/>
       <use xlink:href="#LiberationSans-6e" x="127.832031"/>
       <use xlink:href="#LiberationSans-6e" x="183.447266"/>
       <use xlink:href="#LiberationSans-65" x="239.0625"/>
       <use xlink:href="#LiberationSans-63" x="294.677734"/>
       <use xlink:href="#LiberationSans-74" x="344.677734"/>
       <use xlink:href="#LiberationSans-69" x="372.460938"/>
       <use xlink:href="#LiberationSans-76" x="394.677734"/>
       <use xlink:href="#LiberationSans-69" x="444.677734"/>
       <use xlink:href="#LiberationSans-74" x="466.894531"/>
       <use xlink:href="#LiberationSans-79" x="494.677734"/>
      </g>
      <!-- accuracy -->
      <g style="fill: #262626" transform="translate(514.618125 290.936719) scale(0.11 -0.11)">
       <defs>
        <path id="LiberationSans-61" d="M 1294 -63 
Q 784 -63 528 206 
Q 272 475 272 944 
Q 272 1469 617 1750 
Q 963 2031 1731 2050 
L 2491 2063 
L 2491 2247 
Q 2491 2659 2316 2837 
Q 2141 3016 1766 3016 
Q 1388 3016 1216 2887 
Q 1044 2759 1009 2478 
L 422 2531 
Q 566 3444 1778 3444 
Q 2416 3444 2737 3151 
Q 3059 2859 3059 2306 
L 3059 850 
Q 3059 600 3125 473 
Q 3191 347 3375 347 
Q 3456 347 3559 369 
L 3559 19 
Q 3347 -31 3125 -31 
Q 2813 -31 2670 133 
Q 2528 297 2509 647 
L 2491 647 
Q 2275 259 1989 98 
Q 1703 -63 1294 -63 
z
M 1422 359 
Q 1731 359 1972 500 
Q 2213 641 2352 886 
Q 2491 1131 2491 1391 
L 2491 1669 
L 1875 1656 
Q 1478 1650 1273 1575 
Q 1069 1500 959 1344 
Q 850 1188 850 934 
Q 850 659 998 509 
Q 1147 359 1422 359 
z
" transform="scale(0.015625)"/>
        <path id="LiberationSans-75" d="M 981 3381 
L 981 1238 
Q 981 903 1047 718 
Q 1113 534 1256 453 
Q 1400 372 1678 372 
Q 2084 372 2318 650 
Q 2553 928 2553 1422 
L 2553 3381 
L 3116 3381 
L 3116 722 
Q 3116 131 3134 0 
L 2603 0 
Q 2600 16 2597 84 
Q 2594 153 2589 242 
Q 2584 331 2578 578 
L 2569 578 
Q 2375 228 2120 82 
Q 1866 -63 1488 -63 
Q 931 -63 673 214 
Q 416 491 416 1128 
L 416 3381 
L 981 3381 
z
" transform="scale(0.015625)"/>
        <path id="LiberationSans-72" d="M 444 0 
L 444 2594 
Q 444 2950 425 3381 
L 956 3381 
Q 981 2806 981 2691 
L 994 2691 
Q 1128 3125 1303 3284 
Q 1478 3444 1797 3444 
Q 1909 3444 2025 3413 
L 2025 2897 
Q 1913 2928 1725 2928 
Q 1375 2928 1190 2626 
Q 1006 2325 1006 1763 
L 1006 0 
L 444 0 
z
" transform="scale(0.015625)"/>
       </defs>
       <use xlink:href="#LiberationSans-61"/>
       <use xlink:href="#LiberationSans-63" x="55.615234"/>
       <use xlink:href="#LiberationSans-63" x="105.615234"/>
       <use xlink:href="#LiberationSans-75" x="155.615234"/>
       <use xlink:href="#LiberationSans-72" x="211.230469"/>
       <use xlink:href="#LiberationSans-61" x="244.53125"/>
       <use xlink:href="#LiberationSans-63" x="300.146484"/>
       <use xlink:href="#LiberationSans-79" x="350.146484"/>
      </g>
     </g>
    </g>
    <g id="xtick_2">
     <g id="text_2">
      <!-- Percentage of -->
      <g style="fill: #262626" transform="translate(454.601833 132.037699) scale(0.11 -0.11)">
       <defs>
        <path id="LiberationSans-50" d="M 3931 3078 
Q 3931 2453 3523 2084 
Q 3116 1716 2416 1716 
L 1122 1716 
L 1122 0 
L 525 0 
L 525 4403 
L 2378 4403 
Q 3119 4403 3525 4056 
Q 3931 3709 3931 3078 
z
M 3331 3072 
Q 3331 3925 2306 3925 
L 1122 3925 
L 1122 2188 
L 2331 2188 
Q 3331 2188 3331 3072 
z
" transform="scale(0.015625)"/>
        <path id="LiberationSans-67" d="M 1713 -1328 
Q 1159 -1328 831 -1111 
Q 503 -894 409 -494 
L 975 -413 
Q 1031 -647 1223 -773 
Q 1416 -900 1728 -900 
Q 2569 -900 2569 84 
L 2569 628 
L 2563 628 
Q 2403 303 2125 139 
Q 1847 -25 1475 -25 
Q 853 -25 561 387 
Q 269 800 269 1684 
Q 269 2581 583 3007 
Q 897 3434 1538 3434 
Q 1897 3434 2161 3270 
Q 2425 3106 2569 2803 
L 2575 2803 
Q 2575 2897 2587 3128 
Q 2600 3359 2613 3381 
L 3147 3381 
Q 3128 3213 3128 2681 
L 3128 97 
Q 3128 -1328 1713 -1328 
z
M 2569 1691 
Q 2569 2103 2456 2401 
Q 2344 2700 2139 2858 
Q 1934 3016 1675 3016 
Q 1244 3016 1047 2703 
Q 850 2391 850 1691 
Q 850 997 1034 694 
Q 1219 391 1666 391 
Q 1931 391 2137 547 
Q 2344 703 2456 995 
Q 2569 1288 2569 1691 
z
" transform="scale(0.015625)"/>
        <path id="LiberationSans-20" transform="scale(0.015625)"/>
        <path id="LiberationSans-66" d="M 1128 2972 
L 1128 0 
L 566 0 
L 566 2972 
L 91 2972 
L 91 3381 
L 566 3381 
L 566 3763 
Q 566 4225 769 4428 
Q 972 4631 1391 4631 
Q 1625 4631 1788 4594 
L 1788 4166 
Q 1647 4191 1538 4191 
Q 1322 4191 1225 4081 
Q 1128 3972 1128 3684 
L 1128 3381 
L 1788 3381 
L 1788 2972 
L 1128 2972 
z
" transform="scale(0.015625)"/>
       </defs>
       <use xlink:href="#LiberationSans-50"/>
       <use xlink:href="#LiberationSans-65" x="66.699219"/>
       <use xlink:href="#LiberationSans-72" x="122.314453"/>
       <use xlink:href="#LiberationSans-63" x="155.615234"/>
       <use xlink:href="#LiberationSans-65" x="205.615234"/>
       <use xlink:href="#LiberationSans-6e" x="261.230469"/>
       <use xlink:href="#LiberationSans-74" x="316.845703"/>
       <use xlink:href="#LiberationSans-61" x="344.628906"/>
       <use xlink:href="#LiberationSans-67" x="400.244141"/>
       <use xlink:href="#LiberationSans-65" x="455.859375"/>
       <use xlink:href="#LiberationSans-20" x="511.474609"/>
       <use xlink:href="#LiberationSans-6f" x="539.257812"/>
       <use xlink:href="#LiberationSans-66" x="594.873047"/>
      </g>
      <!-- neurons -->
      <g style="fill: #262626" transform="translate(468.971443 143.886074) scale(0.11 -0.11)">
       <defs>
        <path id="LiberationSans-73" d="M 2969 934 
Q 2969 456 2608 196 
Q 2247 -63 1597 -63 
Q 966 -63 623 145 
Q 281 353 178 794 
L 675 891 
Q 747 619 972 492 
Q 1197 366 1597 366 
Q 2025 366 2223 497 
Q 2422 628 2422 891 
Q 2422 1091 2284 1216 
Q 2147 1341 1841 1422 
L 1438 1528 
Q 953 1653 748 1773 
Q 544 1894 428 2066 
Q 313 2238 313 2488 
Q 313 2950 642 3192 
Q 972 3434 1603 3434 
Q 2163 3434 2492 3237 
Q 2822 3041 2909 2606 
L 2403 2544 
Q 2356 2769 2151 2889 
Q 1947 3009 1603 3009 
Q 1222 3009 1040 2893 
Q 859 2778 859 2544 
Q 859 2400 934 2306 
Q 1009 2213 1156 2147 
Q 1303 2081 1775 1966 
Q 2222 1853 2419 1758 
Q 2616 1663 2730 1547 
Q 2844 1431 2906 1279 
Q 2969 1128 2969 934 
z
" transform="scale(0.015625)"/>
       </defs>
       <use xlink:href="#LiberationSans-6e"/>
       <use xlink:href="#LiberationSans-65" x="55.615234"/>
       <use xlink:href="#LiberationSans-75" x="111.230469"/>
       <use xlink:href="#LiberationSans-72" x="166.845703"/>
       <use xlink:href="#LiberationSans-6f" x="200.146484"/>
       <use xlink:href="#LiberationSans-6e" x="255.761719"/>
       <use xlink:href="#LiberationSans-73" x="311.376953"/>
      </g>
     </g>
    </g>
    <g id="xtick_3">
     <g id="text_3">
      <!-- Neurontypes -->
      <g style="fill: #262626" transform="translate(332.574177 47.07959) scale(0.11 -0.11)">
       <defs>
        <path id="LiberationSans-4e" d="M 3381 0 
L 1025 3750 
L 1041 3447 
L 1056 2925 
L 1056 0 
L 525 0 
L 525 4403 
L 1219 4403 
L 3600 628 
Q 3563 1241 3563 1516 
L 3563 4403 
L 4100 4403 
L 4100 0 
L 3381 0 
z
" transform="scale(0.015625)"/>
        <path id="LiberationSans-70" d="M 3291 1706 
Q 3291 -63 2047 -63 
Q 1266 -63 997 525 
L 981 525 
Q 994 500 994 -6 
L 994 -1328 
L 431 -1328 
L 431 2691 
Q 431 3213 413 3381 
L 956 3381 
Q 959 3369 965 3292 
Q 972 3216 980 3056 
Q 988 2897 988 2838 
L 1000 2838 
Q 1150 3150 1397 3295 
Q 1644 3441 2047 3441 
Q 2672 3441 2981 3022 
Q 3291 2603 3291 1706 
z
M 2700 1694 
Q 2700 2400 2509 2703 
Q 2319 3006 1903 3006 
Q 1569 3006 1380 2865 
Q 1191 2725 1092 2426 
Q 994 2128 994 1650 
Q 994 984 1206 668 
Q 1419 353 1897 353 
Q 2316 353 2508 661 
Q 2700 969 2700 1694 
z
" transform="scale(0.015625)"/>
       </defs>
       <use xlink:href="#LiberationSans-4e"/>
       <use xlink:href="#LiberationSans-65" x="72.216797"/>
       <use xlink:href="#LiberationSans-75" x="127.832031"/>
       <use xlink:href="#LiberationSans-72" x="183.447266"/>
       <use xlink:href="#LiberationSans-6f" x="216.748047"/>
       <use xlink:href="#LiberationSans-6e" x="272.363281"/>
       <use xlink:href="#LiberationSans-74" x="327.978516"/>
       <use xlink:href="#LiberationSans-79" x="355.761719"/>
       <use xlink:href="#LiberationSans-70" x="405.761719"/>
       <use xlink:href="#LiberationSans-65" x="461.376953"/>
       <use xlink:href="#LiberationSans-73" x="516.992188"/>
      </g>
     </g>
    </g>
    <g id="xtick_4">
     <g id="text_4">
      <!-- Plasticity -->
      <g style="fill: #262626" transform="translate(187.439182 47.07959) scale(0.11 -0.11)">
       <defs>
        <path id="LiberationSans-6c" d="M 431 0 
L 431 4638 
L 994 4638 
L 994 0 
L 431 0 
z
" transform="scale(0.015625)"/>
       </defs>
       <use xlink:href="#LiberationSans-50"/>
       <use xlink:href="#LiberationSans-6c" x="66.699219"/>
       <use xlink:href="#LiberationSans-61" x="88.916016"/>
       <use xlink:href="#LiberationSans-73" x="144.53125"/>
       <use xlink:href="#LiberationSans-74" x="194.53125"/>
       <use xlink:href="#LiberationSans-69" x="222.314453"/>
       <use xlink:href="#LiberationSans-63" x="244.53125"/>
       <use xlink:href="#LiberationSans-69" x="294.53125"/>
       <use xlink:href="#LiberationSans-74" x="316.748047"/>
       <use xlink:href="#LiberationSans-79" x="344.53125"/>
      </g>
     </g>
    </g>
    <g id="xtick_5">
     <g id="text_5">
      <!-- Functional -->
      <g style="fill: #262626" transform="translate(58.675745 132.037699) scale(0.11 -0.11)">
       <defs>
        <path id="LiberationSans-46" d="M 1122 3916 
L 1122 2278 
L 3578 2278 
L 3578 1784 
L 1122 1784 
L 1122 0 
L 525 0 
L 525 4403 
L 3653 4403 
L 3653 3916 
L 1122 3916 
z
" transform="scale(0.015625)"/>
       </defs>
       <use xlink:href="#LiberationSans-46"/>
       <use xlink:href="#LiberationSans-75" x="61.083984"/>
       <use xlink:href="#LiberationSans-6e" x="116.699219"/>
       <use xlink:href="#LiberationSans-63" x="172.314453"/>
       <use xlink:href="#LiberationSans-74" x="222.314453"/>
       <use xlink:href="#LiberationSans-69" x="250.097656"/>
       <use xlink:href="#LiberationSans-6f" x="272.314453"/>
       <use xlink:href="#LiberationSans-6e" x="327.929688"/>
       <use xlink:href="#LiberationSans-61" x="383.544922"/>
       <use xlink:href="#LiberationSans-6c" x="439.160156"/>
      </g>
      <!-- Accuracy -->
      <g style="fill: #262626" transform="translate(61.43262 143.886074) scale(0.11 -0.11)">
       <defs>
        <path id="LiberationSans-41" d="M 3647 0 
L 3144 1288 
L 1138 1288 
L 631 0 
L 13 0 
L 1809 4403 
L 2488 4403 
L 4256 0 
L 3647 0 
z
M 2141 3953 
L 2113 3866 
Q 2034 3606 1881 3200 
L 1319 1753 
L 2966 1753 
L 2400 3206 
Q 2313 3422 2225 3694 
L 2141 3953 
z
" transform="scale(0.015625)"/>
       </defs>
       <use xlink:href="#LiberationSans-41"/>
       <use xlink:href="#LiberationSans-63" x="66.699219"/>
       <use xlink:href="#LiberationSans-63" x="116.699219"/>
       <use xlink:href="#LiberationSans-75" x="166.699219"/>
       <use xlink:href="#LiberationSans-72" x="222.314453"/>
       <use xlink:href="#LiberationSans-61" x="255.615234"/>
       <use xlink:href="#LiberationSans-63" x="311.230469"/>
       <use xlink:href="#LiberationSans-79" x="361.230469"/>
      </g>
     </g>
    </g>
    <g id="xtick_6">
     <g id="text_6">
      <!-- Neuro- -->
      <g style="fill: #262626" transform="translate(19.459766 279.088344) scale(0.11 -0.11)">
       <defs>
        <path id="LiberationSans-2d" d="M 284 1450 
L 284 1950 
L 1847 1950 
L 1847 1450 
L 284 1450 
z
" transform="scale(0.015625)"/>
       </defs>
       <use xlink:href="#LiberationSans-4e"/>
       <use xlink:href="#LiberationSans-65" x="72.216797"/>
       <use xlink:href="#LiberationSans-75" x="127.832031"/>
       <use xlink:href="#LiberationSans-72" x="183.447266"/>
       <use xlink:href="#LiberationSans-6f" x="216.748047"/>
       <use xlink:href="#LiberationSans-2d" x="272.363281"/>
      </g>
      <!-- modulation -->
      <g style="fill: #262626" transform="translate(9.365547 290.936719) scale(0.11 -0.11)">
       <defs>
        <path id="LiberationSans-6d" d="M 2400 0 
L 2400 2144 
Q 2400 2634 2265 2821 
Q 2131 3009 1781 3009 
Q 1422 3009 1212 2734 
Q 1003 2459 1003 1959 
L 1003 0 
L 444 0 
L 444 2659 
Q 444 3250 425 3381 
L 956 3381 
Q 959 3366 962 3297 
Q 966 3228 970 3139 
Q 975 3050 981 2803 
L 991 2803 
Q 1172 3163 1406 3303 
Q 1641 3444 1978 3444 
Q 2363 3444 2586 3291 
Q 2809 3138 2897 2803 
L 2906 2803 
Q 3081 3144 3329 3294 
Q 3578 3444 3931 3444 
Q 4444 3444 4676 3166 
Q 4909 2888 4909 2253 
L 4909 0 
L 4353 0 
L 4353 2144 
Q 4353 2634 4218 2821 
Q 4084 3009 3734 3009 
Q 3366 3009 3161 2736 
Q 2956 2463 2956 1959 
L 2956 0 
L 2400 0 
z
" transform="scale(0.015625)"/>
        <path id="LiberationSans-64" d="M 2566 544 
Q 2409 219 2151 78 
Q 1894 -63 1513 -63 
Q 872 -63 570 368 
Q 269 800 269 1675 
Q 269 3444 1513 3444 
Q 1897 3444 2153 3303 
Q 2409 3163 2566 2856 
L 2572 2856 
L 2566 3234 
L 2566 4638 
L 3128 4638 
L 3128 697 
Q 3128 169 3147 0 
L 2609 0 
Q 2600 50 2589 231 
Q 2578 413 2578 544 
L 2566 544 
z
M 859 1694 
Q 859 984 1046 678 
Q 1234 372 1656 372 
Q 2134 372 2350 703 
Q 2566 1034 2566 1731 
Q 2566 2403 2350 2715 
Q 2134 3028 1663 3028 
Q 1238 3028 1048 2714 
Q 859 2400 859 1694 
z
" transform="scale(0.015625)"/>
       </defs>
       <use xlink:href="#LiberationSans-6d"/>
       <use xlink:href="#LiberationSans-6f" x="83.300781"/>
       <use xlink:href="#LiberationSans-64" x="138.916016"/>
       <use xlink:href="#LiberationSans-75" x="194.53125"/>
       <use xlink:href="#LiberationSans-6c" x="250.146484"/>
       <use xlink:href="#LiberationSans-61" x="272.363281"/>
       <use xlink:href="#LiberationSans-74" x="327.978516"/>
       <use xlink:href="#LiberationSans-69" x="355.761719"/>
       <use xlink:href="#LiberationSans-6f" x="377.978516"/>
       <use xlink:href="#LiberationSans-6e" x="433.59375"/>
      </g>
     </g>
    </g>
    <g id="xtick_7">
     <g id="text_7">
      <!-- Temporal -->
      <g style="fill: #262626" transform="translate(61.433479 426.138989) scale(0.11 -0.11)">
       <defs>
        <path id="LiberationSans-54" d="M 2250 3916 
L 2250 0 
L 1656 0 
L 1656 3916 
L 144 3916 
L 144 4403 
L 3763 4403 
L 3763 3916 
L 2250 3916 
z
" transform="scale(0.015625)"/>
       </defs>
       <use xlink:href="#LiberationSans-54"/>
       <use xlink:href="#LiberationSans-65" x="49.958984"/>
       <use xlink:href="#LiberationSans-6d" x="105.574219"/>
       <use xlink:href="#LiberationSans-70" x="188.875"/>
       <use xlink:href="#LiberationSans-6f" x="244.490234"/>
       <use xlink:href="#LiberationSans-72" x="300.105469"/>
       <use xlink:href="#LiberationSans-61" x="333.40625"/>
       <use xlink:href="#LiberationSans-6c" x="389.021484"/>
      </g>
      <!-- resolution -->
      <g style="fill: #262626" transform="translate(60.203713 437.987364) scale(0.11 -0.11)">
       <use xlink:href="#LiberationSans-72"/>
       <use xlink:href="#LiberationSans-65" x="33.300781"/>
       <use xlink:href="#LiberationSans-73" x="88.916016"/>
       <use xlink:href="#LiberationSans-6f" x="138.916016"/>
       <use xlink:href="#LiberationSans-6c" x="194.53125"/>
       <use xlink:href="#LiberationSans-75" x="216.748047"/>
       <use xlink:href="#LiberationSans-74" x="272.363281"/>
       <use xlink:href="#LiberationSans-69" x="300.146484"/>
       <use xlink:href="#LiberationSans-6f" x="322.363281"/>
       <use xlink:href="#LiberationSans-6e" x="377.978516"/>
      </g>
     </g>
    </g>
    <g id="xtick_8">
     <g id="text_8">
      <!-- Behavior -->
      <g style="fill: #262626" transform="translate(187.432307 522.945473) scale(0.11 -0.11)">
       <defs>
        <path id="LiberationSans-42" d="M 3931 1241 
Q 3931 653 3503 326 
Q 3075 0 2313 0 
L 525 0 
L 525 4403 
L 2125 4403 
Q 3675 4403 3675 3334 
Q 3675 2944 3456 2678 
Q 3238 2413 2838 2322 
Q 3363 2259 3647 1970 
Q 3931 1681 3931 1241 
z
M 3075 3263 
Q 3075 3619 2831 3772 
Q 2588 3925 2125 3925 
L 1122 3925 
L 1122 2531 
L 2125 2531 
Q 2603 2531 2839 2711 
Q 3075 2891 3075 3263 
z
M 3328 1288 
Q 3328 2066 2234 2066 
L 1122 2066 
L 1122 478 
L 2281 478 
Q 2828 478 3078 681 
Q 3328 884 3328 1288 
z
" transform="scale(0.015625)"/>
        <path id="LiberationSans-68" d="M 991 2803 
Q 1172 3134 1426 3289 
Q 1681 3444 2072 3444 
Q 2622 3444 2883 3170 
Q 3144 2897 3144 2253 
L 3144 0 
L 2578 0 
L 2578 2144 
Q 2578 2500 2512 2673 
Q 2447 2847 2297 2928 
Q 2147 3009 1881 3009 
Q 1484 3009 1245 2734 
Q 1006 2459 1006 1994 
L 1006 0 
L 444 0 
L 444 4638 
L 1006 4638 
L 1006 3431 
Q 1006 3241 995 3037 
Q 984 2834 981 2803 
L 991 2803 
z
" transform="scale(0.015625)"/>
       </defs>
       <use xlink:href="#LiberationSans-42"/>
       <use xlink:href="#LiberationSans-65" x="66.699219"/>
       <use xlink:href="#LiberationSans-68" x="122.314453"/>
       <use xlink:href="#LiberationSans-61" x="177.929688"/>
       <use xlink:href="#LiberationSans-76" x="233.544922"/>
       <use xlink:href="#LiberationSans-69" x="283.544922"/>
       <use xlink:href="#LiberationSans-6f" x="305.761719"/>
       <use xlink:href="#LiberationSans-72" x="361.376953"/>
      </g>
     </g>
    </g>
    <g id="xtick_9">
     <g id="text_9">
      <!-- Personality- -->
      <g style="fill: #262626" transform="translate(334.719177 511.097098) scale(0.11 -0.11)">
       <use xlink:href="#LiberationSans-50"/>
       <use xlink:href="#LiberationSans-65" x="66.699219"/>
       <use xlink:href="#LiberationSans-72" x="122.314453"/>
       <use xlink:href="#LiberationSans-73" x="155.615234"/>
       <use xlink:href="#LiberationSans-6f" x="205.615234"/>
       <use xlink:href="#LiberationSans-6e" x="261.230469"/>
       <use xlink:href="#LiberationSans-61" x="316.845703"/>
       <use xlink:href="#LiberationSans-6c" x="372.460938"/>
       <use xlink:href="#LiberationSans-69" x="394.677734"/>
       <use xlink:href="#LiberationSans-74" x="416.894531"/>
       <use xlink:href="#LiberationSans-79" x="444.677734"/>
       <use xlink:href="#LiberationSans-2d" x="494.677734"/>
      </g>
      <!-- defining -->
      <g style="fill: #262626" transform="translate(344.49199 522.945473) scale(0.11 -0.11)">
       <use xlink:href="#LiberationSans-64"/>
       <use xlink:href="#LiberationSans-65" x="55.615234"/>
       <use xlink:href="#LiberationSans-66" x="111.230469"/>
       <use xlink:href="#LiberationSans-69" x="139.013672"/>
       <use xlink:href="#LiberationSans-6e" x="161.230469"/>
       <use xlink:href="#LiberationSans-69" x="216.845703"/>
       <use xlink:href="#LiberationSans-6e" x="239.0625"/>
       <use xlink:href="#LiberationSans-67" x="294.677734"/>
      </g>
      <!-- Characteristics -->
      <g style="fill: #262626" transform="translate(327.387849 534.793848) scale(0.11 -0.11)">
       <use xlink:href="#LiberationSans-43"/>
       <use xlink:href="#LiberationSans-68" x="72.216797"/>
       <use xlink:href="#LiberationSans-61" x="127.832031"/>
       <use xlink:href="#LiberationSans-72" x="183.447266"/>
       <use xlink:href="#LiberationSans-61" x="216.748047"/>
       <use xlink:href="#LiberationSans-63" x="272.363281"/>
       <use xlink:href="#LiberationSans-74" x="322.363281"/>
       <use xlink:href="#LiberationSans-65" x="350.146484"/>
       <use xlink:href="#LiberationSans-72" x="405.761719"/>
       <use xlink:href="#LiberationSans-69" x="439.0625"/>
       <use xlink:href="#LiberationSans-73" x="461.279297"/>
       <use xlink:href="#LiberationSans-74" x="511.279297"/>
       <use xlink:href="#LiberationSans-69" x="539.0625"/>
       <use xlink:href="#LiberationSans-63" x="561.279297"/>
       <use xlink:href="#LiberationSans-73" x="611.279297"/>
      </g>
     </g>
    </g>
    <g id="xtick_10">
     <g id="text_10">
      <!-- Learning -->
      <g style="fill: #262626" transform="translate(467.440896 432.063176) scale(0.11 -0.11)">
       <defs>
        <path id="LiberationSans-4c" d="M 525 0 
L 525 4403 
L 1122 4403 
L 1122 488 
L 3347 488 
L 3347 0 
L 525 0 
z
" transform="scale(0.015625)"/>
       </defs>
       <use xlink:href="#LiberationSans-4c"/>
       <use xlink:href="#LiberationSans-65" x="55.615234"/>
       <use xlink:href="#LiberationSans-61" x="111.230469"/>
       <use xlink:href="#LiberationSans-72" x="166.845703"/>
       <use xlink:href="#LiberationSans-6e" x="200.146484"/>
       <use xlink:href="#LiberationSans-69" x="255.761719"/>
       <use xlink:href="#LiberationSans-6e" x="277.978516"/>
       <use xlink:href="#LiberationSans-67" x="333.59375"/>
      </g>
     </g>
    </g>
   </g>
   <g id="matplotlib.axis_2"/>
   <g id="line2d_1">
    <path d="M 496.125 282.168 
L 495.702851 268.869431 
L 494.438105 255.624411 
L 492.335854 242.486272 
L 489.404564 229.507918 
L 485.656037 216.741607 
L 481.105367 204.238745 
L 475.770879 192.049677 
L 469.674053 180.223484 
L 462.839438 168.807785 
L 455.294554 157.848548 
L 447.069784 147.389901 
L 438.198244 137.473958 
L 428.715657 128.140647 
L 418.660207 119.42755 
L 408.072383 111.369751 
L 396.994818 103.999696 
L 385.472118 97.347062 
L 373.550681 91.438637 
L 361.278511 86.298212 
L 348.705022 81.946485 
L 335.880844 78.40098 
L 322.857616 75.675972 
L 309.687777 73.782435 
L 296.424357 72.727993 
L 283.120764 72.516893 
L 269.830567 73.149983 
L 256.60728 74.624715 
L 243.50415 76.93515 
L 230.573937 80.071986 
L 217.868707 84.022591 
L 205.43962 88.771057 
L 193.336723 94.298265 
L 181.60875 100.581958 
L 170.302926 107.596834 
L 159.464775 115.314647 
L 149.137938 123.704319 
L 139.363999 132.732068 
L 130.182313 142.361543 
L 121.629852 152.553969 
L 113.741054 163.268305 
L 106.547683 174.461409 
L 100.078705 186.088208 
L 94.360169 198.101888 
L 89.415101 210.454071 
L 85.263412 223.095022 
L 81.921821 235.973838 
L 79.403782 249.038662 
L 77.719436 262.236886 
L 76.875564 275.515366 
L 76.875564 288.820634 
L 77.719436 302.099114 
L 79.403782 315.297338 
L 81.921821 328.362162 
L 85.263412 341.240978 
L 89.415101 353.881929 
L 94.360169 366.234112 
L 100.078705 378.247792 
L 106.547683 389.874591 
L 113.741054 401.067695 
L 121.629852 411.782031 
L 130.182313 421.974457 
L 139.363999 431.603932 
L 149.137938 440.631681 
L 159.464775 449.021353 
L 170.302926 456.739166 
L 181.60875 463.754042 
L 193.336723 470.037735 
L 205.43962 475.564943 
L 217.868707 480.313409 
L 230.573937 484.264014 
L 243.50415 487.40085 
L 256.60728 489.711285 
L 269.830567 491.186017 
L 283.120764 491.819107 
L 296.424357 491.608007 
L 309.687777 490.553565 
L 322.857616 488.660028 
L 335.880844 485.93502 
L 348.705022 482.389515 
L 361.278511 478.037788 
L 373.550681 472.897363 
L 385.472118 466.988938 
L 396.994818 460.336304 
L 408.072383 452.966249 
L 418.660207 444.90845 
L 428.715657 436.195353 
L 438.198244 426.862042 
L 447.069784 416.946099 
L 455.294554 406.487452 
L 462.839438 395.528215 
L 469.674053 384.112516 
L 475.770879 372.286323 
L 481.105367 360.097255 
L 485.656037 347.594393 
L 489.404564 334.828082 
L 492.335854 321.849728 
L 494.438105 308.711589 
L 495.702851 295.466569 
L 496.125 282.168 
" clip-path="url(#p803c497f1c)" style="fill: none; stroke: #262626; stroke-opacity: 0.301961; stroke-width: 2; stroke-linecap: square"/>
   </g>
   <g id="line2d_2">
    <path d="M 286.4475 282.168 
L 485.862653 346.961911 
" clip-path="url(#p803c497f1c)" style="fill: none; stroke: #262626; stroke-opacity: 0.301961; stroke-linecap: square"/>
   </g>
   <g id="line2d_3">
    <path d="M 286.4475 282.168 
L 485.862653 217.374089 
" clip-path="url(#p803c497f1c)" style="fill: none; stroke: #262626; stroke-opacity: 0.301961; stroke-linecap: square"/>
   </g>
   <g id="line2d_4">
    <path d="M 286.4475 282.168 
L 409.692842 112.535339 
" clip-path="url(#p803c497f1c)" style="fill: none; stroke: #262626; stroke-opacity: 0.301961; stroke-linecap: square"/>
   </g>
   <g id="line2d_5">
    <path d="M 286.4475 282.168 
L 286.4475 72.4905 
" clip-path="url(#p803c497f1c)" style="fill: none; stroke: #262626; stroke-opacity: 0.301961; stroke-linecap: square"/>
   </g>
   <g id="line2d_6">
    <path d="M 286.4475 282.168 
L 163.202158 112.535339 
" clip-path="url(#p803c497f1c)" style="fill: none; stroke: #262626; stroke-opacity: 0.301961; stroke-linecap: square"/>
   </g>
   <g id="line2d_7">
    <path d="M 286.4475 282.168 
L 87.032347 217.374089 
" clip-path="url(#p803c497f1c)" style="fill: none; stroke: #262626; stroke-opacity: 0.301961; stroke-linecap: square"/>
   </g>
   <g id="line2d_8">
    <path d="M 286.4475 282.168 
L 87.032347 346.961911 
" clip-path="url(#p803c497f1c)" style="fill: none; stroke: #262626; stroke-opacity: 0.301961; stroke-linecap: square"/>
   </g>
   <g id="line2d_9">
    <path d="M 286.4475 282.168 
L 163.202158 451.800661 
" clip-path="url(#p803c497f1c)" style="fill: none; stroke: #262626; stroke-opacity: 0.301961; stroke-linecap: square"/>
   </g>
   <g id="line2d_10">
    <path d="M 286.4475 282.168 
L 286.4475 491.8455 
" clip-path="url(#p803c497f1c)" style="fill: none; stroke: #262626; stroke-opacity: 0.301961; stroke-linecap: square"/>
   </g>
   <g id="line2d_11">
    <path d="M 286.4475 282.168 
L 409.692842 451.800661 
" clip-path="url(#p803c497f1c)" style="fill: none; stroke: #262626; stroke-opacity: 0.301961; stroke-linecap: square"/>
   </g>
  </g>
 </g>
 <defs>
  <clipPath id="p803c497f1c">
   <path d="M 496.125 282.168 
C 496.125 254.633403 490.701285 227.366545 480.164251 201.927895 
C 469.627217 176.489244 454.181782 153.373518 434.711882 133.903618 
C 415.241982 114.433718 392.126256 98.988283 366.687605 88.451249 
C 341.248955 77.914215 313.982097 72.4905 286.4475 72.4905 
C 258.912903 72.4905 231.646045 77.914215 206.207395 88.451249 
C 180.768744 98.988283 157.653018 114.433718 138.183118 133.903618 
C 118.713218 153.373518 103.267783 176.489244 92.730749 201.927895 
C 82.193715 227.366545 76.77 254.633403 76.77 282.168 
C 76.77 309.702597 82.193715 336.969455 92.730749 362.408105 
C 103.267783 387.846756 118.713218 410.962482 138.183118 430.432382 
C 157.653018 449.902282 180.768744 465.347717 206.207395 475.884751 
C 231.646045 486.421785 258.912903 491.8455 286.4475 491.8455 
C 313.982097 491.8455 341.248955 486.421785 366.687605 475.884751 
C 392.126256 465.347717 415.241982 449.902282 434.711882 430.432382 
C 454.181782 410.962482 469.627217 387.846756 480.164251 362.408105 
C 490.701285 336.969455 496.125 309.702597 496.125 282.168 
M 286.4475 282.168 
C 286.4475 282.168 286.4475 282.168 286.4475 282.168 
C 286.4475 282.168 286.4475 282.168 286.4475 282.168 
C 286.4475 282.168 286.4475 282.168 286.4475 282.168 
C 286.4475 282.168 286.4475 282.168 286.4475 282.168 
C 286.4475 282.168 286.4475 282.168 286.4475 282.168 
C 286.4475 282.168 286.4475 282.168 286.4475 282.168 
C 286.4475 282.168 286.4475 282.168 286.4475 282.168 
C 286.4475 282.168 286.4475 282.168 286.4475 282.168 
C 286.4475 282.168 286.4475 282.168 286.4475 282.168 
C 286.4475 282.168 286.4475 282.168 286.4475 282.168 
C 286.4475 282.168 286.4475 282.168 286.4475 282.168 
C 286.4475 282.168 286.4475 282.168 286.4475 282.168 
C 286.4475 282.168 286.4475 282.168 286.4475 282.168 
C 286.4475 282.168 286.4475 282.168 286.4475 282.168 
C 286.4475 282.168 286.4475 282.168 286.4475 282.168 
C 286.4475 282.168 286.4475 282.168 286.4475 282.168 
z
"/>
  </clipPath>
 </defs>
</svg>
