<?xml version="1.0" encoding="UTF-8" standalone="no"?><!DOCTYPE svg PUBLIC "-//W3C//DTD SVG 1.1//EN" "http://www.w3.org/Graphics/SVG/1.1/DTD/svg11.dtd"><svg width="100%" height="100%" viewBox="0 0 504 311" version="1.1" xmlns="http://www.w3.org/2000/svg" xmlns:xlink="http://www.w3.org/1999/xlink" xml:space="preserve" xmlns:serif="http://www.serif.com/" style="fill-rule:evenodd;clip-rule:evenodd;stroke-miterlimit:10;"><rect x="239.214" y="215.767" width="21.546" height="21.546" style="fill:#ed7569;"/><rect x="38.923" y="215.767" width="21.546" height="21.546" style="fill:#81c2ff;"/><g transform="matrix(1,0,0,1,-857.471,-787.104)"><text x="1129.97px" y="1024.38px" style="font-family:'ArialMT', 'Arial', sans-serif;font-size:33.333px;">T<tspan x="1149.09px 1156.5px " y="1024.38px 1024.38px ">is</tspan>sue</text><g transform="matrix(33.3333,0,0,33.3333,1331.91,1057.72)"></g><text x="1129.97px" y="1057.72px" style="font-family:'ArialMT', 'Arial', sans-serif;font-size:33.333px;">reconstructed</text></g><g transform="matrix(1,0,0,1,-1010.48,-787.104)"><text x="1081.65px" y="1024.38px" style="font-family:'ArialMT', 'Arial', sans-serif;font-size:33.333px;">Ti<tspan x="1109.42px " y="1024.38px ">s</tspan>sue</text><g transform="matrix(33.3333,0,0,33.3333,1207.65,1054.38)"></g><text x="1081.65px" y="1054.38px" style="font-family:'ArialMT', 'Arial', sans-serif;font-size:33.333px;">scanned</text></g><path d="M208.142,50.475c-4.404,0 -8.537,0.834 -12.125,1.917c-12.95,4 -24.35,18.75 -29.87,26.458c-5.6,7.834 -14.438,15.542 -18.734,17.875c-4.662,2.542 -14.725,5.084 -20.237,8.292c-6.696,3.917 -1.279,3.375 5.829,3.792c1.542,0.083 3.15,0.166 4.867,0.166c6.212,0 13.841,-1.125 24.745,-7.041c10.784,-5.834 15.855,-12.667 19.371,-17c4.996,-6.167 13.946,-15.75 23.246,-15.75l0.396,-0c14.583,0.458 18.854,10.541 25.092,18.875c9.658,12.875 17.204,23.458 38.262,23.458l0.183,0c8.771,-0.042 18.58,-3.958 24.384,-7.458c5.804,-3.542 29.308,-25.875 31.5,-27.292c1.141,-0.75 2.183,-1 3.116,-1c2.046,0 3.559,1.333 4.375,2.292c0.634,0.708 1.959,2.5 1.717,3.416c-0.204,0.792 -1.142,2.334 -1.142,2.334l0.005,-0c0.158,-0 3.233,-0.042 2.283,-3.709c-0.975,-3.791 -3.167,-7 -9.671,-7.291c-0.167,-0.042 -0.337,-0.042 -0.512,-0.042c-9.48,0 -24.217,11.208 -29.696,14.25c-5.079,2.833 -15.979,7.042 -26.117,7.042c-2.579,-0 -5.117,-0.25 -7.492,-0.917c-11.691,-3.167 -16.358,-17.75 -28.979,-31.292c-8.104,-8.708 -16.891,-11.375 -24.796,-11.375m0,0.584c9.242,-0 17.442,3.75 24.371,11.208c4.6,4.917 8.192,10.083 11.363,14.625c5.516,7.917 10.283,14.75 17.891,16.833c2.3,0.584 4.871,0.917 7.642,0.917c10.767,0 21.975,-4.667 26.4,-7.125c1.213,-0.667 2.871,-1.75 4.792,-2.958c6.921,-4.459 17.383,-11.209 24.621,-11.209c0.162,0 0.325,0 0.487,0.042c2.888,0.125 5.029,0.833 6.55,2.167c1.221,1.083 2.042,2.583 2.583,4.666c0.267,1.042 0.209,1.834 -0.175,2.334c-0.108,0.125 -0.237,0.25 -0.375,0.333c0.221,-0.458 0.434,-0.917 0.525,-1.25c0.355,-1.375 -1.47,-3.542 -1.837,-3.958c-0.996,-1.167 -2.638,-2.5 -4.813,-2.5c-1.133,-0 -2.287,0.375 -3.433,1.083c-0.8,0.542 -3.817,3.25 -9.087,8.042c-7.917,7.208 -18.759,17.041 -22.396,19.25c-5.604,3.375 -15.275,7.333 -24.084,7.375l-0.183,-0c-20.392,-0 -27.846,-9.959 -37.283,-22.542l-0.517,-0.667c-0.983,-1.333 -1.933,-2.708 -2.854,-4.041c-4.975,-7.209 -10.121,-14.709 -22.683,-15.084l-0.413,0c-7.129,0 -15.1,5.375 -23.696,15.959c-0.233,0.291 -0.466,0.583 -0.712,0.916c-3.392,4.209 -8.509,10.542 -18.484,15.959c-11.341,6.166 -19.037,6.958 -24.47,6.958c-1.713,0 -3.325,-0.083 -4.834,-0.167c-1.112,-0.083 -2.204,-0.125 -3.166,-0.166c-2.063,-0.084 -4.609,-0.167 -5.138,-0.5c0.104,-0.209 0.579,-0.792 2.733,-2.042c2.967,-1.75 7.246,-3.25 11.388,-4.75c3.437,-1.208 6.679,-2.375 8.837,-3.542c5.825,-3.166 14.646,-12.041 18.925,-18.041c10.417,-14.584 20.367,-23.417 29.571,-26.209c4.129,-1.291 8.154,-1.916 11.954,-1.916" style="fill:#81c2ff;fill-rule:nonzero;"/><path d="M137.776,106.184c-1.021,-0.959 0.579,-1.625 1.496,-1.917c1.033,-0.375 2.137,-0.417 3.225,-0.5c2.912,-0.208 5.72,0.833 8.637,0.625c8.592,-0.583 15.621,-6.75 21.571,-12.833c5.608,-5.75 10.408,-12.292 16.587,-17.417c6.184,-5.125 14.28,-8.792 22.155,-7.208c7.3,1.458 13.062,7.041 17.479,13.041c4.416,6 8,12.667 13.304,17.917c6.671,6.583 15.921,10.458 25.283,10.583c9.363,0.167 18.729,-3.416 25.6,-9.791c1.788,0.583 3.875,0.416 5.479,-0.584c1.18,-0.75 2.084,-1.791 2.971,-2.875c1.434,-1.708 2.867,-3.458 4.3,-5.166c1.338,-1.625 2.754,-3.292 4.692,-4.084c1.1,-0.416 2.05,-1.375 1.779,-2.5c-0.154,-0.666 -0.75,-1.125 -1.4,-1.291c-0.65,-0.167 -1.333,-0.042 -1.958,0.208c-2.554,0.958 -4.159,3.458 -5.429,5.875c-1.33,2.5 -2.505,5.125 -3.513,7.792" style="fill:none;fill-rule:nonzero;stroke:#ed7569;stroke-width:2.08px;"/><path d="M146.913,102.184c-0.787,0.333 -1.796,-0.625 -1.646,-1.167c0.15,-0.583 -1.358,0.25 -1.691,0.5c-0.338,0.25 -4.717,2.125 -5.534,2.708c-0.816,0.584 -3.525,1.709 -4.487,1.792c-0.967,0.125 0.629,-0.958 1.392,-1.5c1.025,-0.708 11.762,-5.583 11.904,-5.208c0.137,0.416 -0.538,1.375 0.196,1.583c0.737,0.167 0.654,0.958 -0.134,1.292m26.854,-16.375c-1.095,0.75 -12.487,3 -18.025,8.333c-0.545,0.5 -2.95,4.083 -4.175,4.125c-1.225,0.042 -2.112,0.958 -2.791,0.292c-0.679,-0.709 -3.013,0.083 -4.084,0.666c-1.075,0.542 -13.97,6.667 -14.066,7.292c-0.092,0.625 -0.771,1.583 0.8,1.958c-0,0 5.408,-1.833 7.008,-2.25c1.6,-0.375 8.138,-1.666 9.804,-2.5c1.663,-0.791 2.213,-1.875 4.588,-1.75c2.375,0.125 2.216,1.75 3.5,1.209c1.283,-0.542 0.258,-1.625 0.258,-1.625c0,-0 2.117,-0.334 1.892,-1.125c-0.229,-0.792 0.854,0.375 0.75,-0.75c-0.104,-1.125 -1.046,-1.834 -0.446,-2c0.6,-0.167 1.675,-0.167 1.708,0.208c0.034,0.333 -1.466,1.833 -0.525,2.042c0.942,0.208 2.459,0.541 2.463,-0.5c0.008,-1 -1.346,-1.25 -1.379,-1.584c-0.034,-0.375 0.02,-1.458 0.02,-1.458c0,0 1.296,-0.375 1.725,-0.167c0.43,0.209 1.142,1.792 1.092,2.375c-0.05,0.542 0.338,0.875 0.496,0.375c0.154,-0.541 -0.346,-2.625 -0.733,-2.916c-0.388,-0.334 -2.342,-0.417 -2.321,-0.709c0.025,-0.291 1.279,-1.208 2.441,-1.333c1.163,-0.167 5.15,0.292 7.25,-0.792c2.1,-1.041 11.421,-11.916 14.038,-15.166c0.612,-0.792 -3.058,2.125 -11.288,7.75" style="fill:#ed7569;fill-rule:nonzero;stroke:#000;stroke-width:2.08px;stroke-linejoin:round;"/><path d="M175.322,68.058c5.3,1.834 9.05,7.417 8.762,13" style="fill:none;fill-rule:nonzero;stroke:#ed7569;stroke-width:2.08px;"/><path d="M153.509,95.892c1.725,-1.5 3.446,-3 5.171,-4.5c4.367,-3.792 8.783,-7.625 12.071,-12.375c1.471,-2.125 2.725,-4.417 4.621,-6.208c1.9,-1.75 4.683,-2.834 7.095,-1.917" style="fill:none;fill-rule:nonzero;stroke:#ed7569;stroke-width:2.08px;"/><path d="M183.817,69.809c-0.437,0.041 -0.875,0.25 -1.129,0.625c-0.254,0.333 -0.271,0.875 0.034,1.208c0.266,0.292 0.741,0.333 1.075,0.125c0.337,-0.208 0.525,-0.583 0.483,-1c-0.038,-0.375 -0.283,-0.75 -0.617,-0.958" style="fill:#f3cf6f;fill-rule:nonzero;"/><path d="M248.722,83.475c-1.192,-3.291 -4.896,-5.416 -8.342,-4.875c-2.225,0.375 -4.183,1.75 -5.696,3.417c-1.508,1.667 -2.621,3.667 -3.725,5.625" style="fill:none;fill-rule:nonzero;stroke:#ed7569;stroke-width:2.08px;"/><path d="M262.901,110.017c-1.146,-1.583 -1.529,-3.708 -1.013,-5.625c0.513,-1.875 0.984,-3.667 1.371,-5.417c0.088,-0.416 0.258,-0.791 0.142,-1.166c-0.134,-0.459 -0.504,-0.917 -0.729,-1.334c-0.488,-0.875 -0.988,-1.833 -0.909,-2.833" style="fill:none;fill-rule:nonzero;stroke:#ed7569;stroke-width:2.08px;"/><path d="M263.442,98.184c0.292,-0.834 0.867,-1.584 1.609,-2.084c0.362,-0.208 0.771,-0.416 1.062,-0.708c0.296,-0.333 0.438,-0.875 0.175,-1.208" style="fill:none;fill-rule:nonzero;stroke:#f3cf6f;stroke-width:4.8px;"/><path d="M216.959,61.6c0,0.459 -0.496,0.792 -1.108,0.792c-0.613,0 -1.109,-0.333 -1.109,-0.792c0,-0.416 0.496,-0.75 1.109,-0.75c0.612,0 1.108,0.334 1.108,0.75" style="fill:#f3cf6f;fill-rule:nonzero;"/><path d="M297.501,92.017c-9.117,2.833 -18.625,4.125 -28.084,5.416c-3.441,0.459 -6.983,0.917 -10.358,0.084c-6.412,-1.542 -10.812,-7.25 -14.675,-12.625c-3.346,-4.625 -6.687,-9.25 -10.029,-13.875c-3.296,-4.584 -6.654,-9.209 -11.088,-12.667c0,-0 -11.275,-8.25 -25.833,-2.083c-14.558,6.166 -27.621,32 -27.621,32c6.271,-3.625 11.721,-8.625 15.829,-14.584c2.296,-3.333 4.221,-7 7.213,-9.708c5.058,-4.583 12.983,-5.708 19.1,-2.667c0.379,0.209 2.367,0.209 2.787,0.292" style="fill:none;fill-rule:nonzero;stroke:#ed7569;stroke-width:0.83px;"/><path d="M218.622,71.642c-0.063,-0.167 -0.38,-0.125 -0.455,0.042c-0.079,0.208 0.009,0.416 0.117,0.583c0.108,0.167 0.25,0.333 0.438,0.375c0.187,0.083 0.425,0.042 0.533,-0.125c0.121,-0.208 0.042,-0.458 -0.117,-0.583c-0.154,-0.167 -0.371,-0.25 -0.579,-0.292" style="fill:none;fill-rule:nonzero;stroke:#ed7569;stroke-width:0.83px;"/><path d="M223.576,76.059c-0.146,-0.125 -0.296,-0.25 -0.484,-0.292c-0.187,-0.083 -0.416,0 -0.483,0.167c-0.067,0.208 0.046,0.375 0.175,0.541c0.267,0.292 0.608,0.542 0.983,0.667c0.067,-0.5 -0.183,-1.042 -0.608,-1.292" style="fill:none;fill-rule:nonzero;stroke:#ed7569;stroke-width:0.83px;"/><path d="M228.405,82.225l-0.854,-0.25c-0.029,0.334 0.029,0.625 0.162,0.917c0.067,0.125 0.154,0.292 0.288,0.333c0.129,0.084 0.308,0.125 0.433,0.042c0.158,-0.125 0.175,-0.375 0.096,-0.542c-0.083,-0.166 -0.238,-0.291 -0.383,-0.416" style="fill:none;fill-rule:nonzero;stroke:#ed7569;stroke-width:0.83px;"/><path d="M236.342,93.267c-0.25,-0.25 -0.608,-0.375 -0.95,-0.333c-0.129,0.666 0.421,1.375 1.1,1.416c0.13,-0.416 -0.012,-0.916 -0.345,-1.25" style="fill:none;fill-rule:nonzero;stroke:#ed7569;stroke-width:0.83px;"/><path d="M228.684,54.434c-4.404,-0 -8.537,0.833 -12.125,1.916c-12.95,4 -24.35,18.75 -29.871,26.459c-5.6,7.833 -14.437,15.541 -18.729,17.875c-4.667,2.541 -14.729,5.083 -20.242,8.291c-6.695,3.917 -1.279,3.375 5.83,3.75c1.541,0.084 3.15,0.167 4.866,0.167c6.213,0 13.842,-1.083 24.746,-7c10.783,-5.833 15.854,-12.667 19.371,-17c4.996,-6.167 13.946,-15.75 23.246,-15.75l0.396,0c14.583,0.458 18.854,10.542 25.091,18.875c9.659,12.875 17.204,23.458 38.263,23.458l0.183,0c8.771,-0.041 18.579,-3.958 24.383,-7.5c5.805,-3.5 29.309,-25.833 31.5,-27.25c1.142,-0.75 2.184,-1.041 3.117,-1.041c2.05,-0 3.558,1.375 4.375,2.333c0.629,0.708 1.958,2.5 1.717,3.417c-0.204,0.791 -1.142,2.333 -1.142,2.333l0.004,0c0.159,0 3.234,-0.042 2.284,-3.708c-0.975,-3.792 -3.167,-7 -9.667,-7.334l-0.517,0c-9.479,0 -24.216,11.209 -29.696,14.25c-5.079,2.834 -15.979,7.042 -26.116,7.042c-2.579,0 -5.117,-0.292 -7.492,-0.917c-11.692,-3.166 -16.358,-17.75 -28.979,-31.291c-8.104,-8.709 -16.892,-11.375 -24.796,-11.375m0,0.541c9.242,0 17.442,3.792 24.371,11.25c4.6,4.917 8.192,10.084 11.362,14.625c5.517,7.917 10.284,14.75 17.892,16.792c2.3,0.625 4.871,0.958 7.642,0.958c10.766,0 21.975,-4.666 26.4,-7.125c1.212,-0.666 2.871,-1.75 4.791,-2.958c6.921,-4.458 17.384,-11.208 24.621,-11.208l0.488,-0c2.887,0.125 5.029,0.875 6.55,2.208c1.221,1.083 2.041,2.583 2.583,4.667c0.271,1.041 0.208,1.791 -0.175,2.291c-0.108,0.167 -0.237,0.25 -0.371,0.375c0.217,-0.458 0.429,-0.916 0.521,-1.291c0.358,-1.334 -1.471,-3.5 -1.837,-3.959c-0.996,-1.125 -2.638,-2.458 -4.813,-2.458c-1.133,0 -2.287,0.333 -3.429,1.083c-0.8,0.5 -3.821,3.25 -9.092,8.042c-7.916,7.167 -18.758,17.042 -22.396,19.25c-5.604,3.375 -15.275,7.333 -24.083,7.375l-0.183,0c-20.392,0 -27.846,-9.958 -37.279,-22.542l-0.521,-0.666c-0.984,-1.334 -1.934,-2.709 -2.854,-4.042c-4.975,-7.208 -10.121,-14.708 -22.684,-15.083l-0.412,-0c-7.129,-0 -15.1,5.375 -23.696,15.958c-0.229,0.292 -0.467,0.583 -0.713,0.917c-3.391,4.208 -8.508,10.541 -18.483,15.958c-11.342,6.167 -19.037,6.958 -24.471,6.958c-1.712,0 -3.325,-0.083 -4.833,-0.208c-1.113,-0.042 -2.204,-0.083 -3.167,-0.125c-2.062,-0.083 -4.608,-0.167 -5.137,-0.542c0.104,-0.166 0.579,-0.75 2.733,-2c2.967,-1.75 7.246,-3.25 11.388,-4.75c3.437,-1.208 6.683,-2.375 8.837,-3.541c5.825,-3.167 14.65,-12.042 18.925,-18.042c10.421,-14.583 20.367,-23.417 29.571,-26.25c4.129,-1.25 8.154,-1.917 11.954,-1.917" style="fill:#81c2ff;fill-rule:nonzero;"/><path d="M158.317,110.142c-1.02,-0.958 0.58,-1.625 1.496,-1.917c1.034,-0.375 2.138,-0.458 3.221,-0.5c2.917,-0.208 5.725,0.834 8.642,0.625c8.591,-0.583 15.621,-6.75 21.571,-12.833c5.608,-5.75 10.408,-12.292 16.587,-17.417c6.179,-5.125 14.279,-8.791 22.154,-7.208c7.3,1.458 13.063,7.042 17.479,13.042c4.417,6 8,12.666 13.305,17.916c6.666,6.542 15.92,10.417 25.283,10.584c9.362,0.125 18.729,-3.459 25.6,-9.792c1.787,0.583 3.875,0.417 5.479,-0.583c1.179,-0.75 2.083,-1.834 2.967,-2.875c1.437,-1.75 2.871,-3.459 4.304,-5.167c1.337,-1.625 2.754,-3.292 4.692,-4.083c1.1,-0.417 2.05,-1.375 1.779,-2.542c-0.154,-0.625 -0.75,-1.125 -1.4,-1.25c-0.65,-0.167 -1.334,-0.042 -1.959,0.208c-2.554,0.959 -4.158,3.459 -5.429,5.834c-1.329,2.541 -2.504,5.125 -3.512,7.791" style="fill:none;fill-rule:nonzero;stroke:#ed7569;stroke-width:2.08px;"/><path d="M167.455,106.142c-0.788,0.333 -1.796,-0.625 -1.646,-1.208c0.15,-0.542 -1.358,0.291 -1.692,0.541c-0.337,0.209 -4.716,2.125 -5.533,2.709c-0.817,0.583 -3.525,1.708 -4.492,1.791c-0.962,0.084 0.634,-0.958 1.396,-1.5c1.025,-0.75 11.763,-5.625 11.904,-5.208c0.138,0.375 -0.537,1.375 0.196,1.583c0.738,0.167 0.654,0.959 -0.133,1.292m26.854,-16.375c-1.096,0.75 -12.487,3 -18.025,8.333c-0.546,0.5 -2.95,4.084 -4.175,4.125c-1.225,0.042 -2.112,0.959 -2.792,0.292c-0.679,-0.708 -3.012,0.083 -4.083,0.625c-1.075,0.583 -13.971,6.708 -14.067,7.333c-0.091,0.625 -0.77,1.584 0.8,1.959c0,-0 5.409,-1.834 7.009,-2.25c1.6,-0.375 8.137,-1.667 9.804,-2.5c1.662,-0.792 2.212,-1.875 4.587,-1.75c2.375,0.125 2.217,1.75 3.5,1.208c1.284,-0.542 0.259,-1.625 0.259,-1.625c-0,0 2.116,-0.333 1.891,-1.125c-0.229,-0.792 0.855,0.375 0.75,-0.75c-0.104,-1.125 -1.045,-1.833 -0.445,-2c0.6,-0.167 1.675,-0.167 1.708,0.208c0.033,0.334 -1.467,1.834 -0.525,2.042c0.942,0.208 2.458,0.542 2.462,-0.5c0.009,-1 -1.345,-1.25 -1.379,-1.625c-0.033,-0.333 0.021,-1.417 0.021,-1.417c0,0 1.296,-0.375 1.725,-0.166c0.429,0.208 1.142,1.791 1.092,2.375c-0.05,0.541 0.337,0.875 0.496,0.333c0.154,-0.5 -0.346,-2.583 -0.734,-2.917c-0.387,-0.291 -2.341,-0.375 -2.321,-0.666c0.025,-0.334 1.28,-1.209 2.442,-1.334c1.163,-0.166 5.146,0.292 7.25,-0.791c2.1,-1.042 11.421,-11.917 14.038,-15.209c0.612,-0.75 -3.059,2.167 -11.288,7.792" style="fill:#ed7569;fill-rule:nonzero;stroke:#000;stroke-width:2.08px;stroke-linejoin:round;"/><path d="M195.863,71.975c5.3,1.875 9.05,7.459 8.763,13.042" style="fill:none;fill-rule:nonzero;stroke:#ed7569;stroke-width:2.08px;"/><path d="M174.051,99.85c1.725,-1.5 3.45,-3 5.171,-4.5c4.366,-3.792 8.783,-7.625 12.07,-12.375c1.471,-2.125 2.725,-4.458 4.621,-6.208c1.9,-1.75 4.684,-2.834 7.096,-1.917" style="fill:none;fill-rule:nonzero;stroke:#ed7569;stroke-width:2.08px;"/><path d="M204.359,73.767c-0.437,0.042 -0.875,0.25 -1.129,0.625c-0.254,0.334 -0.271,0.875 0.033,1.209c0.267,0.291 0.742,0.333 1.075,0.125c0.338,-0.209 0.525,-0.625 0.484,-1c-0.038,-0.375 -0.284,-0.75 -0.617,-0.959" style="fill:#f3cf6f;fill-rule:nonzero;"/><path d="M269.263,87.434c-1.191,-3.292 -4.896,-5.459 -8.346,-4.875c-2.22,0.375 -4.179,1.75 -5.691,3.416c-1.509,1.667 -2.621,3.667 -3.725,5.625" style="fill:none;fill-rule:nonzero;stroke:#ed7569;stroke-width:2.08px;"/><path d="M283.442,113.975c-1.145,-1.625 -1.529,-3.708 -1.012,-5.625c0.512,-1.875 0.983,-3.666 1.371,-5.416c0.087,-0.417 0.258,-0.792 0.141,-1.167c-0.129,-0.458 -0.504,-0.917 -0.729,-1.333c-0.487,-0.917 -0.987,-1.834 -0.908,-2.834" style="fill:none;fill-rule:nonzero;stroke:#ed7569;stroke-width:2.08px;"/><path d="M283.984,102.142c0.292,-0.833 0.867,-1.583 1.608,-2.083c0.363,-0.209 0.771,-0.417 1.063,-0.75c0.296,-0.292 0.437,-0.834 0.175,-1.167" style="fill:none;fill-rule:nonzero;stroke:#f3cf6f;stroke-width:4.8px;"/><path d="M237.505,65.559c-0,0.458 -0.496,0.791 -1.108,0.791c-0.613,0 -1.109,-0.333 -1.109,-0.791c0,-0.417 0.496,-0.792 1.109,-0.792c0.612,0 1.108,0.375 1.108,0.792" style="fill:#f3cf6f;fill-rule:nonzero;"/><path d="M318.042,95.975c-9.116,2.834 -18.625,4.125 -28.083,5.417c-3.442,0.458 -6.983,0.917 -10.358,0.083c-6.413,-1.541 -10.813,-7.25 -14.675,-12.625c-3.342,-4.625 -6.688,-9.25 -10.029,-13.875c-3.296,-4.583 -6.655,-9.208 -11.088,-12.666c0,-0 -11.275,-8.25 -25.833,-2.084c-14.559,6.167 -27.621,32 -27.621,32c6.271,-3.625 11.721,-8.625 15.829,-14.583c2.296,-3.333 4.221,-7 7.217,-9.708c5.054,-4.584 12.979,-5.709 19.096,-2.667c0.379,0.208 2.366,0.208 2.787,0.292" style="fill:none;fill-rule:nonzero;stroke:#ed7569;stroke-width:0.83px;"/><path d="M239.167,75.6c-0.062,-0.166 -0.379,-0.125 -0.454,0.042c-0.079,0.208 0.009,0.417 0.117,0.583c0.108,0.167 0.25,0.292 0.437,0.375c0.188,0.084 0.425,0.042 0.534,-0.125c0.121,-0.208 0.041,-0.458 -0.117,-0.625c-0.158,-0.125 -0.371,-0.208 -0.579,-0.25" style="fill:none;fill-rule:nonzero;stroke:#ed7569;stroke-width:0.83px;"/><path d="M244.117,80.017c-0.141,-0.125 -0.295,-0.291 -0.483,-0.333c-0.187,-0.042 -0.417,0.042 -0.483,0.208c-0.067,0.209 0.046,0.375 0.175,0.542c0.266,0.292 0.608,0.5 0.983,0.667c0.067,-0.5 -0.183,-1.042 -0.608,-1.292" style="fill:none;fill-rule:nonzero;stroke:#ed7569;stroke-width:0.83px;"/><path d="M248.947,86.184l-0.859,-0.25c-0.025,0.333 0.034,0.625 0.167,0.916c0.067,0.125 0.154,0.25 0.287,0.334c0.13,0.083 0.309,0.125 0.434,-0c0.154,-0.084 0.175,-0.334 0.096,-0.5c-0.084,-0.167 -0.238,-0.292 -0.384,-0.417" style="fill:none;fill-rule:nonzero;stroke:#ed7569;stroke-width:0.83px;"/><path d="M256.884,97.184c-0.25,-0.208 -0.608,-0.333 -0.95,-0.292c-0.129,0.667 0.421,1.375 1.1,1.417c0.129,-0.417 -0.012,-0.917 -0.346,-1.25" style="fill:none;fill-rule:nonzero;stroke:#ed7569;stroke-width:0.83px;"/><path d="M228.684,75.517c-4.404,0 -8.537,0.833 -12.125,1.958c-12.95,4 -24.35,18.75 -29.871,26.459c-5.6,7.833 -14.437,15.541 -18.729,17.875c-4.667,2.5 -14.729,5.041 -20.242,8.291c-6.695,3.917 -1.279,3.334 5.83,3.75c1.541,0.084 3.15,0.167 4.866,0.167c6.213,0 13.842,-1.083 24.746,-7c10.783,-5.833 15.854,-12.667 19.371,-17c4.996,-6.167 13.946,-15.75 23.246,-15.75l0.396,0c14.583,0.417 18.854,10.542 25.091,18.875c9.659,12.875 17.204,23.458 38.263,23.458l0.183,0c8.771,-0.041 18.579,-3.958 24.383,-7.5c5.805,-3.5 29.309,-25.875 31.5,-27.25c1.142,-0.75 2.184,-1.041 3.117,-1.041c2.05,-0 3.558,1.375 4.375,2.291c0.629,0.75 1.958,2.542 1.717,3.459c-0.204,0.791 -1.142,2.291 -1.142,2.291l0.004,0c0.159,0 3.234,-0.041 2.284,-3.708c-0.975,-3.75 -3.167,-7 -9.667,-7.292l-0.517,0c-9.479,0 -24.216,11.209 -29.696,14.25c-5.079,2.834 -15.979,7.042 -26.116,7.042c-2.579,0 -5.117,-0.292 -7.492,-0.917c-11.692,-3.166 -16.358,-17.75 -28.979,-31.291c-8.104,-8.709 -16.892,-11.417 -24.796,-11.417m0,0.583c9.242,0 17.442,3.792 24.371,11.209c4.6,4.958 8.192,10.125 11.362,14.666c5.517,7.917 10.284,14.75 17.892,16.792c2.3,0.625 4.871,0.958 7.642,0.958c10.766,0 21.975,-4.666 26.4,-7.125c1.212,-0.666 2.871,-1.75 4.791,-3c6.921,-4.458 17.384,-11.166 24.621,-11.166l0.488,-0c2.887,0.125 5.029,0.875 6.55,2.208c1.221,1.083 2.041,2.583 2.583,4.667c0.271,1.041 0.208,1.791 -0.175,2.291c-0.108,0.167 -0.237,0.25 -0.371,0.334c0.217,-0.417 0.429,-0.875 0.521,-1.25c0.358,-1.334 -1.471,-3.542 -1.837,-3.959c-0.996,-1.125 -2.638,-2.5 -4.813,-2.5c-1.133,0 -2.287,0.375 -3.429,1.125c-0.8,0.5 -3.821,3.25 -9.092,8.042c-7.916,7.167 -18.758,17 -22.396,19.208c-5.604,3.417 -15.275,7.375 -24.083,7.417l-0.183,0c-20.392,0 -27.846,-9.958 -37.279,-22.542l-0.521,-0.708c-0.984,-1.292 -1.934,-2.667 -2.854,-4c-4.975,-7.25 -10.121,-14.708 -22.684,-15.083l-0.412,-0c-7.129,-0 -15.1,5.375 -23.696,15.958c-0.229,0.292 -0.467,0.583 -0.713,0.875c-3.391,4.208 -8.508,10.583 -18.483,16c-11.342,6.167 -19.037,6.917 -24.471,6.917c-1.712,-0 -3.325,-0.084 -4.833,-0.167c-1.113,-0.042 -2.204,-0.083 -3.167,-0.125c-2.062,-0.083 -4.608,-0.167 -5.137,-0.542c0.104,-0.166 0.579,-0.75 2.733,-2c2.967,-1.75 7.246,-3.25 11.388,-4.75c3.437,-1.208 6.683,-2.375 8.837,-3.541c5.825,-3.167 14.65,-12.042 18.925,-18.042c10.421,-14.583 20.367,-23.417 29.571,-26.25c4.129,-1.25 8.154,-1.917 11.954,-1.917" style="fill:#81c2ff;fill-rule:nonzero;"/><path d="M158.317,131.225c-1.02,-0.916 0.58,-1.583 1.496,-1.916c1.034,-0.334 2.138,-0.417 3.221,-0.5c2.917,-0.167 5.725,0.875 8.642,0.666c8.591,-0.583 15.621,-6.75 21.571,-12.833c5.608,-5.75 10.408,-12.292 16.587,-17.458c6.179,-5.125 14.279,-8.75 22.154,-7.167c7.3,1.458 13.063,7.042 17.479,13.042c4.417,6 8,12.666 13.305,17.916c6.666,6.542 15.92,10.417 25.283,10.584c9.362,0.125 18.729,-3.459 25.6,-9.792c1.787,0.583 3.875,0.417 5.479,-0.583c1.179,-0.75 2.083,-1.834 2.967,-2.875c1.437,-1.75 2.871,-3.459 4.304,-5.167c1.337,-1.625 2.754,-3.292 4.692,-4.083c1.1,-0.459 2.05,-1.375 1.779,-2.542c-0.154,-0.625 -0.75,-1.125 -1.4,-1.25c-0.65,-0.167 -1.334,-0.042 -1.959,0.208c-2.554,0.959 -4.158,3.417 -5.429,5.834c-1.329,2.541 -2.504,5.125 -3.512,7.791" style="fill:none;fill-rule:nonzero;stroke:#ed7569;stroke-width:2.08px;"/><path d="M167.455,127.225c-0.788,0.334 -1.796,-0.583 -1.646,-1.166c0.15,-0.584 -1.358,0.291 -1.692,0.541c-0.337,0.209 -4.716,2.125 -5.533,2.709c-0.817,0.583 -3.525,1.708 -4.492,1.791c-0.962,0.084 0.634,-0.958 1.396,-1.5c1.025,-0.75 11.763,-5.625 11.904,-5.208c0.138,0.375 -0.537,1.375 0.196,1.542c0.738,0.208 0.654,1 -0.133,1.291m26.854,-16.333c-1.096,0.75 -12.487,3 -18.025,8.292c-0.546,0.541 -2.95,4.125 -4.175,4.166c-1.225,0.042 -2.112,0.959 -2.792,0.25c-0.679,-0.666 -3.012,0.125 -4.083,0.667c-1.075,0.583 -13.971,6.708 -14.067,7.333c-0.091,0.625 -0.77,1.584 0.8,1.959c0,-0 5.409,-1.834 7.009,-2.25c1.6,-0.417 8.137,-1.667 9.804,-2.5c1.662,-0.834 2.212,-1.875 4.587,-1.75c2.375,0.125 2.217,1.75 3.5,1.208c1.284,-0.542 0.259,-1.625 0.259,-1.625c-0,0 2.116,-0.333 1.891,-1.125c-0.229,-0.833 0.855,0.375 0.75,-0.75c-0.104,-1.125 -1.045,-1.833 -0.445,-2c0.6,-0.167 1.675,-0.167 1.708,0.208c0.033,0.334 -1.467,1.792 -0.525,2.042c0.942,0.208 2.458,0.542 2.462,-0.5c0.009,-1.042 -1.345,-1.25 -1.379,-1.625c-0.033,-0.333 0.021,-1.417 0.021,-1.417c0,0 1.296,-0.375 1.725,-0.166c0.429,0.208 1.142,1.791 1.092,2.333c-0.05,0.583 0.337,0.917 0.496,0.375c0.154,-0.5 -0.346,-2.583 -0.734,-2.917c-0.387,-0.291 -2.341,-0.375 -2.321,-0.666c0.025,-0.334 1.28,-1.209 2.442,-1.375c1.163,-0.125 5.146,0.333 7.25,-0.75c2.1,-1.084 11.421,-11.959 14.038,-15.209c0.612,-0.75 -3.059,2.167 -11.288,7.792" style="fill:#ed7569;fill-rule:nonzero;stroke:#000;stroke-width:2.08px;stroke-linejoin:round;"/><path d="M195.863,93.1c5.3,1.875 9.05,7.417 8.763,13.042" style="fill:none;fill-rule:nonzero;stroke:#ed7569;stroke-width:2.08px;"/><path d="M174.051,120.975c1.725,-1.5 3.45,-3 5.171,-4.5c4.366,-3.791 8.783,-7.625 12.07,-12.375c1.471,-2.125 2.725,-4.458 4.621,-6.208c1.9,-1.75 4.684,-2.833 7.096,-1.917" style="fill:none;fill-rule:nonzero;stroke:#ed7569;stroke-width:2.08px;"/><path d="M204.359,94.892c-0.437,0.042 -0.875,0.25 -1.129,0.583c-0.254,0.375 -0.271,0.917 0.033,1.25c0.267,0.292 0.742,0.334 1.075,0.125c0.338,-0.208 0.525,-0.625 0.484,-1c-0.038,-0.375 -0.284,-0.75 -0.617,-0.958" style="fill:#f3cf6f;fill-rule:nonzero;"/><path d="M269.263,108.559c-1.191,-3.292 -4.896,-5.459 -8.346,-4.875c-2.22,0.375 -4.179,1.75 -5.691,3.416c-1.509,1.667 -2.621,3.625 -3.725,5.625" style="fill:none;fill-rule:nonzero;stroke:#ed7569;stroke-width:2.08px;"/><path d="M283.442,135.059c-1.145,-1.584 -1.529,-3.709 -1.012,-5.584c0.512,-1.875 0.983,-3.666 1.371,-5.416c0.087,-0.417 0.258,-0.792 0.141,-1.167c-0.129,-0.458 -0.504,-0.958 -0.729,-1.333c-0.487,-0.917 -0.987,-1.875 -0.908,-2.875" style="fill:none;fill-rule:nonzero;stroke:#ed7569;stroke-width:2.08px;"/><path d="M283.984,123.267c0.292,-0.875 0.867,-1.584 1.608,-2.084c0.363,-0.25 0.771,-0.416 1.063,-0.75c0.296,-0.291 0.437,-0.833 0.175,-1.166" style="fill:none;fill-rule:nonzero;stroke:#f3cf6f;stroke-width:4.8px;"/><path d="M237.505,86.684c-0,0.416 -0.496,0.791 -1.108,0.791c-0.613,0 -1.109,-0.375 -1.109,-0.791c0,-0.417 0.496,-0.792 1.109,-0.792c0.612,0 1.108,0.375 1.108,0.792" style="fill:#f3cf6f;fill-rule:nonzero;"/><path d="M318.042,117.1c-9.116,2.834 -18.625,4.125 -28.083,5.375c-3.442,0.5 -6.983,0.959 -10.358,0.125c-6.413,-1.541 -10.813,-7.291 -14.675,-12.625c-3.342,-4.625 -6.688,-9.25 -10.029,-13.875c-3.296,-4.583 -6.655,-9.208 -11.088,-12.666c0,-0 -11.275,-8.25 -25.833,-2.084c-14.559,6.167 -27.621,32 -27.621,32c6.271,-3.625 11.721,-8.625 15.829,-14.583c2.296,-3.333 4.221,-7 7.217,-9.708c5.054,-4.584 12.979,-5.709 19.096,-2.667c0.379,0.167 2.366,0.208 2.787,0.25" style="fill:none;fill-rule:nonzero;stroke:#ed7569;stroke-width:0.83px;"/><path d="M239.167,96.725c-0.062,-0.167 -0.379,-0.125 -0.454,0.042c-0.079,0.166 0.009,0.375 0.117,0.541c0.108,0.167 0.25,0.334 0.437,0.417c0.188,0.083 0.425,-0 0.534,-0.167c0.121,-0.166 0.041,-0.416 -0.117,-0.583c-0.158,-0.125 -0.371,-0.208 -0.579,-0.25" style="fill:none;fill-rule:nonzero;stroke:#ed7569;stroke-width:0.83px;"/><path d="M244.117,101.1c-0.141,-0.125 -0.295,-0.25 -0.483,-0.291c-0.187,-0.042 -0.417,0.041 -0.483,0.208c-0.067,0.167 0.046,0.375 0.175,0.542c0.266,0.291 0.608,0.5 0.983,0.666c0.067,-0.5 -0.183,-1.041 -0.608,-1.291" style="fill:none;fill-rule:nonzero;stroke:#ed7569;stroke-width:0.83px;"/><path d="M248.947,107.267l-0.859,-0.208c-0.025,0.291 0.034,0.625 0.167,0.916c0.067,0.125 0.154,0.25 0.287,0.334c0.13,0.083 0.309,0.083 0.434,-0c0.154,-0.084 0.175,-0.334 0.096,-0.5c-0.084,-0.167 -0.238,-0.292 -0.384,-0.417" style="fill:none;fill-rule:nonzero;stroke:#ed7569;stroke-width:0.83px;"/><path d="M256.884,118.309c-0.25,-0.25 -0.608,-0.334 -0.95,-0.292c-0.129,0.667 0.421,1.375 1.1,1.417c0.129,-0.417 -0.012,-0.959 -0.346,-1.25" style="fill:none;fill-rule:nonzero;stroke:#ed7569;stroke-width:0.83px;"/><path d="M230.259,86.725c-4.404,0 -8.537,0.834 -12.125,1.959c-12.95,3.958 -24.35,18.708 -29.871,26.458c-5.596,7.833 -14.437,15.5 -18.729,17.833c-4.667,2.542 -14.729,5.084 -20.242,8.334c-6.695,3.916 -1.279,3.333 5.83,3.75c1.541,0.083 3.15,0.166 4.866,0.166c6.213,0 13.842,-1.083 24.746,-7c10.783,-5.833 15.854,-12.666 19.371,-17c4.996,-6.166 13.946,-15.75 23.246,-15.75l0.396,0c14.583,0.417 18.854,10.542 25.091,18.875c9.659,12.875 17.204,23.459 38.263,23.459l0.183,-0c8.771,-0.042 18.579,-4 24.383,-7.5c5.805,-3.5 29.309,-25.875 31.5,-27.292c1.142,-0.708 2.188,-1 3.117,-1c2.05,0 3.558,1.375 4.375,2.292c0.633,0.75 1.958,2.5 1.717,3.458c-0.204,0.792 -1.142,2.292 -1.142,2.292l0.004,-0c0.159,-0 3.234,-0.042 2.284,-3.709c-0.975,-3.75 -3.163,-7 -9.667,-7.291l-0.517,-0c-9.479,-0 -24.216,11.166 -29.696,14.25c-5.079,2.791 -15.979,7.041 -26.112,7.041c-2.583,0 -5.121,-0.291 -7.496,-0.916c-11.692,-3.167 -16.358,-17.75 -28.979,-31.292c-8.104,-8.708 -16.892,-11.417 -24.796,-11.417m0,0.584c9.242,-0 17.442,3.791 24.371,11.208c4.6,4.958 8.192,10.083 11.362,14.667c5.517,7.916 10.284,14.75 17.892,16.791c2.3,0.625 4.871,0.959 7.646,0.959c10.762,-0 21.971,-4.667 26.396,-7.125c1.212,-0.667 2.871,-1.75 4.791,-3c6.921,-4.459 17.384,-11.167 24.621,-11.167l0.488,0c2.887,0.125 5.029,0.833 6.55,2.208c1.221,1.084 2.041,2.542 2.583,4.667c0.271,1.042 0.208,1.792 -0.175,2.292c-0.108,0.125 -0.237,0.25 -0.371,0.333c0.221,-0.417 0.429,-0.875 0.521,-1.25c0.358,-1.333 -1.471,-3.542 -1.837,-3.958c-0.996,-1.125 -2.638,-2.5 -4.813,-2.5c-1.133,-0 -2.287,0.375 -3.429,1.125c-0.8,0.5 -3.821,3.25 -9.092,8.041c-7.916,7.167 -18.758,17 -22.396,19.209c-5.604,3.416 -15.275,7.375 -24.083,7.416l-0.183,0c-20.392,0 -27.846,-9.958 -37.279,-22.541l-0.521,-0.709c-0.984,-1.291 -1.934,-2.666 -2.854,-4.041c-4.975,-7.209 -10.121,-14.667 -22.684,-15.042l-0.412,0c-7.129,0 -15.1,5.375 -23.696,15.958c-0.229,0.292 -0.467,0.584 -0.713,0.875c-3.387,4.209 -8.508,10.584 -18.483,16c-11.342,6.125 -19.033,6.917 -24.471,6.917c-1.712,0 -3.325,-0.083 -4.829,-0.167c-1.117,-0.041 -2.208,-0.083 -3.171,-0.125c-2.062,-0.083 -4.608,-0.166 -5.137,-0.541c0.104,-0.167 0.583,-0.75 2.733,-2c2.967,-1.75 7.25,-3.292 11.392,-4.75c3.433,-1.209 6.679,-2.375 8.833,-3.542c5.825,-3.167 14.65,-12.042 18.925,-18.042c10.421,-14.583 20.367,-23.416 29.571,-26.25c4.133,-1.25 8.154,-1.916 11.954,-1.916" style="fill:#81c2ff;fill-rule:nonzero;"/><path d="M159.892,142.434c-1.02,-0.917 0.58,-1.584 1.496,-1.917c1.034,-0.333 2.138,-0.417 3.225,-0.5c2.917,-0.167 5.721,0.833 8.642,0.667c8.587,-0.584 15.617,-6.75 21.567,-12.834c5.608,-5.75 10.408,-12.333 16.591,-17.458c6.179,-5.125 14.275,-8.75 22.15,-7.167c7.3,1.417 13.063,7.042 17.479,13.042c4.417,6 8,12.667 13.305,17.875c6.67,6.583 15.92,10.458 25.283,10.625c9.362,0.125 18.729,-3.458 25.6,-9.833c1.787,0.625 3.875,0.416 5.479,-0.584c1.179,-0.708 2.083,-1.791 2.971,-2.833c1.433,-1.75 2.867,-3.458 4.3,-5.208c1.337,-1.584 2.754,-3.25 4.692,-4.042c1.1,-0.458 2.05,-1.375 1.779,-2.542c-0.154,-0.625 -0.75,-1.125 -1.4,-1.291c-0.65,-0.125 -1.334,-0 -1.959,0.208c-2.554,0.958 -4.158,3.458 -5.429,5.875c-1.329,2.542 -2.504,5.125 -3.512,7.792" style="fill:none;fill-rule:nonzero;stroke:#ed7569;stroke-width:2.08px;"/><path d="M169.03,138.434c-0.788,0.333 -1.796,-0.584 -1.646,-1.167c0.15,-0.583 -1.358,0.292 -1.692,0.5c-0.337,0.25 -4.716,2.167 -5.533,2.75c-0.812,0.583 -3.525,1.708 -4.487,1.792c-0.967,0.083 0.629,-0.959 1.391,-1.5c1.029,-0.75 11.767,-5.625 11.904,-5.209c0.138,0.375 -0.537,1.375 0.2,1.542c0.734,0.208 0.65,0.958 -0.137,1.292m26.854,-16.375c-1.096,0.75 -12.487,3.041 -18.025,8.333c-0.542,0.542 -2.95,4.125 -4.175,4.167c-1.225,0.041 -2.112,0.916 -2.792,0.25c-0.679,-0.667 -3.012,0.125 -4.083,0.666c-1.075,0.584 -13.971,6.667 -14.067,7.292c-0.091,0.625 -0.77,1.625 0.8,2c0,0 5.409,-1.833 7.013,-2.25c1.6,-0.417 8.133,-1.667 9.8,-2.5c1.662,-0.833 2.212,-1.917 4.587,-1.75c2.375,0.125 2.221,1.708 3.5,1.208c1.284,-0.541 0.259,-1.666 0.259,-1.666c-0,-0 2.121,-0.292 1.891,-1.125c-0.229,-0.792 0.855,0.416 0.75,-0.709c-0.104,-1.125 -1.041,-1.875 -0.445,-2c0.6,-0.166 1.675,-0.166 1.708,0.167c0.033,0.375 -1.467,1.833 -0.525,2.042c0.942,0.25 2.458,0.541 2.462,-0.459c0.009,-1.041 -1.345,-1.25 -1.379,-1.625c-0.033,-0.333 0.021,-1.416 0.021,-1.416c0,-0 1.296,-0.375 1.725,-0.167c0.429,0.208 1.142,1.792 1.092,2.333c-0.05,0.584 0.337,0.917 0.496,0.375c0.154,-0.541 -0.346,-2.583 -0.734,-2.916c-0.387,-0.292 -2.341,-0.375 -2.316,-0.667c0.02,-0.333 1.275,-1.208 2.441,-1.375c1.163,-0.167 5.146,0.292 7.246,-0.75c2.1,-1.083 11.421,-11.958 14.038,-15.208c0.612,-0.75 -3.059,2.166 -11.288,7.75" style="fill:#ed7569;fill-rule:nonzero;stroke:#000;stroke-width:2.08px;stroke-linejoin:round;"/><path d="M197.438,104.309c5.3,1.833 9.05,7.416 8.767,13.041" style="fill:none;fill-rule:nonzero;stroke:#ed7569;stroke-width:2.08px;"/><path d="M175.626,132.142c1.725,-1.459 3.45,-2.959 5.171,-4.459c4.366,-3.791 8.783,-7.625 12.07,-12.375c1.471,-2.125 2.725,-4.458 4.621,-6.208c1.9,-1.75 4.684,-2.833 7.096,-1.917" style="fill:none;fill-rule:nonzero;stroke:#ed7569;stroke-width:2.08px;"/><path d="M205.934,106.059c-0.437,0.083 -0.875,0.292 -1.129,0.625c-0.254,0.375 -0.271,0.917 0.033,1.25c0.267,0.25 0.742,0.292 1.075,0.125c0.338,-0.208 0.521,-0.625 0.484,-1c-0.038,-0.417 -0.284,-0.75 -0.617,-0.958" style="fill:#f3cf6f;fill-rule:nonzero;"/><path d="M270.834,119.767c-1.192,-3.292 -4.896,-5.458 -8.346,-4.875c-2.221,0.375 -4.179,1.708 -5.691,3.417c-1.509,1.666 -2.621,3.625 -3.725,5.583" style="fill:none;fill-rule:nonzero;stroke:#ed7569;stroke-width:2.08px;"/><path d="M285.017,146.267c-1.145,-1.583 -1.529,-3.708 -1.012,-5.583c0.512,-1.875 0.983,-3.667 1.367,-5.417c0.091,-0.417 0.262,-0.792 0.145,-1.208c-0.133,-0.417 -0.504,-0.917 -0.729,-1.334c-0.487,-0.875 -0.987,-1.833 -0.908,-2.833" style="fill:none;fill-rule:nonzero;stroke:#ed7569;stroke-width:2.08px;"/><path d="M285.559,134.434c0.292,-0.834 0.867,-1.584 1.608,-2.042c0.363,-0.25 0.771,-0.417 1.063,-0.75c0.296,-0.333 0.437,-0.833 0.175,-1.167" style="fill:none;fill-rule:nonzero;stroke:#f3cf6f;stroke-width:4.8px;"/><path d="M239.076,97.892c-0,0.417 -0.496,0.792 -1.109,0.792c-0.612,-0 -1.108,-0.375 -1.108,-0.792c0,-0.458 0.496,-0.792 1.108,-0.792c0.613,0 1.109,0.334 1.109,0.792" style="fill:#f3cf6f;fill-rule:nonzero;"/><path d="M319.617,128.309c-9.116,2.791 -18.625,4.125 -28.083,5.375c-3.442,0.5 -6.979,0.958 -10.358,0.125c-6.413,-1.542 -10.813,-7.292 -14.675,-12.625c-3.342,-4.625 -6.688,-9.25 -10.029,-13.875c-3.296,-4.584 -6.655,-9.209 -11.088,-12.667c0,0 -11.275,-8.25 -25.833,-2.083c-14.559,6.125 -27.621,32 -27.621,32c6.271,-3.625 11.721,-8.667 15.829,-14.625c2.296,-3.292 4.221,-6.959 7.217,-9.709c5.054,-4.583 12.979,-5.666 19.096,-2.625c0.379,0.167 2.366,0.209 2.787,0.25" style="fill:none;fill-rule:nonzero;stroke:#ed7569;stroke-width:0.83px;"/><path d="M240.738,107.934c-0.062,-0.209 -0.379,-0.125 -0.454,0.041c-0.079,0.167 0.008,0.375 0.117,0.542c0.108,0.167 0.25,0.333 0.437,0.417c0.188,0.041 0.425,-0 0.534,-0.167c0.12,-0.167 0.041,-0.417 -0.117,-0.583c-0.154,-0.125 -0.371,-0.209 -0.579,-0.292" style="fill:none;fill-rule:nonzero;stroke:#ed7569;stroke-width:0.83px;"/><path d="M245.688,112.309c-0.146,-0.125 -0.296,-0.25 -0.483,-0.292c-0.188,-0.041 -0.417,0.042 -0.483,0.209c-0.067,0.166 0.045,0.375 0.175,0.5c0.266,0.333 0.608,0.541 0.983,0.666c0.067,-0.5 -0.183,-1 -0.608,-1.25" style="fill:none;fill-rule:nonzero;stroke:#ed7569;stroke-width:0.83px;"/><path d="M250.522,118.475l-0.859,-0.208c-0.025,0.292 0.034,0.625 0.167,0.875c0.067,0.167 0.154,0.292 0.287,0.375c0.13,0.083 0.309,0.083 0.434,0c0.154,-0.125 0.175,-0.333 0.091,-0.5c-0.079,-0.208 -0.233,-0.333 -0.379,-0.417" style="fill:none;fill-rule:nonzero;stroke:#ed7569;stroke-width:0.83px;"/><path d="M258.459,129.517c-0.25,-0.25 -0.608,-0.375 -0.95,-0.334c-0.129,0.667 0.421,1.417 1.1,1.459c0.129,-0.459 -0.008,-0.959 -0.346,-1.25" style="fill:none;fill-rule:nonzero;stroke:#ed7569;stroke-width:0.83px;"/></svg>