<?xml version="1.0" encoding="UTF-8" standalone="no"?><!DOCTYPE svg PUBLIC "-//W3C//DTD SVG 1.1//EN" "http://www.w3.org/Graphics/SVG/1.1/DTD/svg11.dtd"><svg width="100%" height="100%" viewBox="0 0 526 360" version="1.1" xmlns="http://www.w3.org/2000/svg" xmlns:xlink="http://www.w3.org/1999/xlink" xml:space="preserve" xmlns:serif="http://www.serif.com/" style="fill-rule:evenodd;clip-rule:evenodd;stroke-linejoin:round;stroke-miterlimit:10;"><rect x="243.917" y="273.268" width="21.546" height="21.546" style="fill:#ed7569;"/><rect x="43.626" y="273.268" width="21.546" height="21.546" style="fill:#81c2ff;"/><path d="M231.147,76.872c-0,-0 -1.504,-1.621 -0.867,-2.546c0.692,-0.925 1.042,-0.809 1.042,-0.809c-0,0 -0.292,-0.808 0.925,-1.329c1.154,-0.521 2.658,-1.212 4.279,-0.808c0,-0 0.517,-0.175 0.692,-0.058c0.175,0.116 0.233,0.229 0.233,0.229c0,-0 0.404,-0.171 1.038,-0.113c0.695,0 1.679,0.521 1.791,0.867c0.117,0.404 0.192,15.871 -0.287,15.9c-0.754,0.042 -1.734,0.404 -2.488,-0.233c-0.691,-0.692 -1.154,-1.096 -1.271,-1.792c-0.116,-0.638 -0.116,-1.271 -0.345,-1.388c-0.175,-0.116 -1.271,-0.233 -1.505,-1.1c0,0 -0.058,-0.17 -0.229,-0.116c-0.175,0.116 0.113,1.041 -0.812,1.854c-0.925,0.808 -1.446,1.387 -1.909,1.733c-0.404,0.346 -1.154,1.504 -2.658,1.617c-1.504,0.117 -4.508,-1.213 -5.375,-4.046c-0.925,-2.833 -0.292,-4.046 0.521,-5.608c0.808,-1.559 1.733,-1.617 2.079,-2.079c0.404,-0.409 1.446,-1.334 2.196,-1.217c0.754,0.117 1.217,1.217 1.387,1.679c0,0 0.867,-0.117 1.1,0.058c0.288,0.171 0.463,-0.695 0.463,-0.695" style="fill:#ed7569;fill-rule:nonzero;"/><path d="M249.442,76.872c0,-0 1.481,-1.621 0.853,-2.546c-0.68,-0.925 -1.025,-0.809 -1.025,-0.809c0,0 0.287,-0.808 -0.91,-1.329c-1.136,-0.521 -2.617,-1.212 -4.212,-0.808c0,-0 -0.508,-0.175 -0.68,-0.058c-0.173,0.116 -0.23,0.229 -0.23,0.229c-0,-0 -0.398,-0.171 -1.021,-0.113c-0.685,0 -1.653,0.521 -1.764,0.867c-0.114,0.404 -0.188,15.871 0.283,15.9c0.743,0.042 1.706,0.404 2.449,-0.233c0.68,-0.692 1.135,-1.096 1.25,-1.792c0.115,-0.638 0.115,-1.271 0.341,-1.388c0.172,-0.116 1.25,-0.233 1.48,-1.1c0,0 0.058,-0.17 0.226,-0.116c0.172,0.116 -0.111,1.041 0.799,1.854c0.911,0.808 1.423,1.387 1.879,1.733c0.397,0.346 1.135,1.504 2.616,1.617c1.48,0.117 4.437,-1.213 5.29,-4.046c0.91,-2.833 0.287,-4.046 -0.513,-5.608c-0.795,-1.559 -1.706,-1.617 -2.046,-2.079c-0.398,-0.409 -1.423,-1.334 -2.161,-1.217c-0.742,0.117 -1.198,1.217 -1.366,1.679c0,0 -0.853,-0.117 -1.082,0.058c-0.283,0.171 -0.456,-0.695 -0.456,-0.695" style="fill:#ed7569;fill-rule:nonzero;"/><path d="M233.944,58.979c-0.462,-0 -0.925,0.116 -1.27,0.462c-0.521,0.404 -0.638,1.159 -0.463,1.792c0.171,0.637 0.521,1.158 0.925,1.679c1.213,1.558 2.6,3.004 4.104,4.217c0.75,-0.229 1.388,-0.517 2.079,-0.75c0.175,-0.117 0.409,-0.175 0.463,-0.346c0.117,-0.175 -0,-0.35 -0.171,-0.35c0,-0 -0.058,0.058 -0.117,0.058c0.234,-1.5 -0.175,-3.062 -1.1,-4.333c-0.866,-1.217 -2.254,-2.083 -3.754,-2.371c-0.233,0 -0.462,-0.058 -0.696,-0.058m0,0.808c0.175,0 0.346,0.058 0.521,0.058c1.329,0.234 2.488,0.984 3.296,2.084c0.75,1.037 1.096,2.425 0.983,3.7l-0.058,0.112c-0.233,0.059 -0.462,0.175 -0.696,0.292c-0.171,0.058 -0.404,0.112 -0.575,0.171c-1.333,-1.096 -2.604,-2.371 -3.646,-3.759c-0.287,-0.404 -0.633,-0.92 -0.75,-1.387c-0.116,-0.404 -0.058,-0.867 0.175,-1.038c0.171,-0.116 0.405,-0.233 0.75,-0.233" style="fill:#81c2ff;fill-rule:nonzero;"/><path d="M245.392,58.747c-1.213,-0 -2.892,1.158 -3.525,1.966c-0.984,1.213 -1.388,2.834 -1.159,4.338c0.117,0.808 0.521,1.675 1.271,1.962c0.175,0.059 0.35,0.059 0.521,0.059c0.808,-0 1.562,-0.521 2.142,-1.155c1.095,-1.216 1.85,-2.833 2.137,-4.454c0.117,-0.521 0.175,-1.041 0.058,-1.5c-0.233,-0.929 -0.75,-1.216 -1.445,-1.216m-0,0.808c0.287,-0 0.52,-0 0.637,0.579c0.058,0.288 0.058,0.696 0,1.158c-0.292,1.5 -0.983,2.946 -2.025,4.105c-0.462,0.575 -1.042,0.925 -1.504,0.925c-0.058,-0 -0.171,-0.059 -0.229,-0.059c-0.404,-0.175 -0.696,-0.808 -0.754,-1.329c-0.23,-1.271 0.116,-2.717 0.983,-3.7c0.521,-0.696 1.967,-1.679 2.892,-1.679" style="fill:#81c2ff;fill-rule:nonzero;"/><path d="M240.593,65.107c-5.783,0 -18.791,7.746 -19.425,11.446c-0.637,3.7 -3.758,10.004 3.759,15.783c4.22,3.238 10.404,4.975 16.416,4.975c7.054,0 13.821,-2.371 16.654,-7.516c1.792,-3.238 3.121,-13.763 -2.316,-17.575c-5.259,-3.7 -10.404,-7.055 -14.971,-7.113l-0.117,0m0,0.75l0.117,0c4.333,0.117 9.537,3.529 14.508,6.996c4.859,3.412 3.817,13.412 2.084,16.537c-2.43,4.45 -8.442,7.109 -15.959,7.109c-6.071,-0 -12.025,-1.792 -15.896,-4.796c-6.012,-4.625 -4.858,-9.367 -3.933,-13.125c0.175,-0.696 0.346,-1.329 0.404,-1.908c0.234,-1.159 2.604,-3.7 7.459,-6.534c4.337,-2.6 8.729,-4.279 11.216,-4.279" style="fill:#81c2ff;fill-rule:nonzero;"/><path d="M225.677,133.212c-2.717,3.413 -5.146,6.996 -7.342,10.754c-0.808,1.504 -1.621,3.004 -1.908,4.625c-0.346,2.429 0.404,4.913 -0.288,7.225c-0.754,2.604 -3.125,4.338 -5.379,5.784c-2.254,1.504 -4.625,3.004 -5.721,5.491c-0.929,2.084 -0.754,4.45 -0.462,6.709c0.75,6.07 2.137,12.137 4.104,17.979c-5.204,11.041 -11.159,22.316 -20.642,30.121c-0.808,0.637 -1.675,1.329 -2.079,2.254c-0.408,0.983 -0.175,2.312 0.808,2.716c0.171,0.059 0.404,0.117 0.579,0.117c0.867,0 1.734,-0.692 2.371,-1.329c6.125,-6.246 10.521,-13.933 14.859,-21.508c1.733,-3.063 3.525,-6.13 5.258,-9.192c0.696,-1.213 1.446,-2.488 1.562,-3.933c0.171,-1.442 -0.291,-2.83 -0.754,-4.163c-0.75,-2.196 -1.5,-4.392 -2.254,-6.587c-0.75,-2.084 -1.446,-4.28 -1.329,-6.475c0.175,-2.259 1.387,-4.567 3.529,-5.263c4.217,-1.387 7.167,-5.204 10.233,-8.383c1.5,-1.563 2.946,-3.179 3.988,-5.088c1.675,-3.121 2.137,-6.766 2.6,-10.35c0.462,-3.987 -0.171,-7.746 -1.733,-11.504m-0.23,1.621c1.155,3.296 1.559,6.529 1.155,9.825c-0.405,3.412 -0.867,6.996 -2.488,10.004c-1.037,1.908 -2.483,3.467 -3.871,4.913c-0.462,0.52 -0.983,1.041 -1.446,1.62c-2.545,2.659 -5.145,5.492 -8.5,6.592c-2.6,0.867 -3.87,3.583 -4.045,5.954c-0.175,2.371 0.633,4.742 1.329,6.821l2.083,6.013l0.171,0.579c0.462,1.154 0.925,2.541 0.754,3.816c-0.117,1.271 -0.812,2.484 -1.446,3.584l-5.262,9.191c-4.279,7.459 -8.671,15.092 -14.742,21.334c-0.925,0.983 -1.504,1.1 -1.792,1.1c-0.058,-0 -0.175,-0 -0.291,-0.059c-0.171,-0.058 -0.288,-0.233 -0.346,-0.404c-0.175,-0.404 -0.175,-0.866 -0,-1.216c0.287,-0.75 0.983,-1.271 1.733,-1.905l0.117,-0.116c9.887,-8.096 15.9,-19.946 20.812,-30.354l0.117,-0.288l-0.058,-0.346c-1.967,-5.783 -3.296,-11.737 -4.104,-17.808c-0.234,-2.142 -0.463,-4.396 0.404,-6.304c0.983,-2.138 3.179,-3.584 5.321,-4.971l0.17,-0.117c2.313,-1.5 4.8,-3.35 5.667,-6.241c0.404,-1.388 0.346,-2.834 0.288,-4.28c-0.055,-1.041 -0.113,-2.079 0.058,-3.004c0.233,-1.562 1.042,-3.008 1.792,-4.396c1.908,-3.295 4.05,-6.533 6.42,-9.537" style="fill:#81c2ff;fill-rule:nonzero;"/><path d="M257.359,144.544c-0.75,0 -1.62,0.171 -2.429,0.638c-2.833,1.387 -3.929,5.141 -3.062,8.208c0.866,3.004 3.179,5.433 5.779,7.283c2.546,1.85 5.437,3.296 7.921,5.204c2.546,1.909 4.741,4.45 5.379,7.575c1.037,5.2 -2.717,10.175 -3.008,15.492c-0.288,4.683 2.195,9.138 4.683,13.125c4.508,7.342 9.367,14.454 14.512,21.333c1.042,1.33 2.138,2.717 3.759,3.121c0.229,0.059 0.404,0.059 0.575,0.059c1.504,-0 3.066,-1.213 2.721,-2.659c-2.95,-0.233 -5.146,-2.775 -6.884,-5.204c-3.871,-5.146 -7.512,-10.408 -11.041,-15.783c-2.255,-3.584 -4.567,-7.342 -4.796,-11.563c-0.234,-4.279 1.616,-8.325 3.004,-12.429c1.329,-4.046 2.083,-8.729 -0.117,-12.433c-1.212,-1.963 -3.121,-3.35 -4.971,-4.679c-1.908,-1.388 -4.045,-2.834 -5.204,-4.975c-1.096,-2.021 -0.808,-3.93 -0.925,-6.071c-0.229,-3.238 -2.775,-6.242 -5.896,-6.242m0,0.808c2.542,0 4.855,2.488 5.088,5.492c-0,0.521 -0,0.983 0.058,1.504c0,1.563 0.059,3.238 0.984,4.913c1.212,2.2 3.354,3.758 5.258,5.091l0.175,0.171c1.675,1.217 3.583,2.546 4.742,4.454c1.733,2.775 1.733,6.646 -0,11.734c-0.234,0.754 -0.521,1.562 -0.809,2.312c-1.158,3.354 -2.371,6.767 -2.2,10.409c0.292,4.337 2.604,8.266 4.975,11.908c3.467,5.379 7.167,10.754 11.042,15.9c1.85,2.487 3.929,4.8 6.704,5.375c0,0.175 -0.112,0.292 -0.171,0.404c-0.404,0.467 -1.041,0.754 -1.737,0.754l-0.346,0c-1.329,-0.346 -2.371,-1.562 -3.354,-2.833c-5.146,-6.821 -10,-13.992 -14.45,-21.275c-2.429,-3.992 -4.8,-8.208 -4.571,-12.721c0.117,-2.137 0.871,-4.279 1.562,-6.358c0.984,-3.009 2.025,-6.071 1.388,-9.309c-0.521,-2.891 -2.488,-5.666 -5.667,-8.037c-1.329,-1.096 -2.833,-1.963 -4.275,-2.888c-1.216,-0.695 -2.487,-1.504 -3.646,-2.312c-2.945,-2.142 -4.795,-4.454 -5.433,-6.883c-0.75,-2.542 0.058,-6.013 2.6,-7.284c0.696,-0.346 1.388,-0.521 2.083,-0.521" style="fill:#81c2ff;fill-rule:nonzero;"/><path d="M167.961,80.023c-0.7,-0 -1.417,0.287 -1.759,0.925c-0.379,0.637 -0.166,1.562 0.313,2.196c0.479,0.579 1.187,0.983 1.867,1.387c5.758,3.296 11.504,6.65 17.287,9.946c4.913,2.833 10.175,6.013 12.317,11.217c2.254,5.491 0.633,11.966 2.887,17.4c1.679,4.221 5.496,7.283 9.713,9.079c1.966,0.867 4.05,1.446 6.129,1.908c1.446,0.288 3.7,1.096 5.321,1.096c0.287,0 0.521,0 0.75,-0.058c3.296,-0.692 0.866,-5.896 -0.75,-7.284c-2.084,-1.791 -4.859,-2.487 -7.342,-3.641c-4.742,-2.138 -8.675,-6.071 -10.929,-10.754c-2.313,-4.859 -2.95,-10.521 -6.188,-14.742c-2.195,-2.833 -5.316,-4.742 -8.383,-6.533c-6.242,-3.759 -12.487,-7.459 -18.692,-11.159c-0.691,-0.404 -1.404,-0.866 -2.2,-0.925c-0.112,-0.058 -0.225,-0.058 -0.341,-0.058m-0,0.808l0.229,0c0.65,0.117 1.287,0.463 1.904,0.867l9.329,5.55l9.367,5.55c2.95,1.796 6.012,3.646 8.154,6.362c1.908,2.484 2.833,5.492 3.871,8.671c0.637,1.967 1.275,3.988 2.2,5.954c2.312,4.859 6.475,8.905 11.387,11.159c0.696,0.346 1.446,0.637 2.196,0.925c1.796,0.696 3.529,1.387 4.917,2.546c1.042,0.866 2.429,3.641 2.079,5.087c-0.171,0.463 -0.462,0.75 -0.983,0.808c-0.171,0.059 -0.346,0.059 -0.575,0.059c-1.042,-0 -2.488,-0.404 -3.7,-0.696c-0.521,-0.171 -0.984,-0.288 -1.446,-0.404c-2.313,-0.521 -4.279,-1.096 -6.013,-1.85c-4.508,-1.909 -7.804,-4.971 -9.25,-8.613c-1.1,-2.604 -1.216,-5.433 -1.387,-8.383c-0.175,-3.008 -0.292,-6.129 -1.504,-9.021c-2.371,-5.721 -8.325,-9.133 -12.663,-11.621l-10.404,-5.954l-6.887,-3.987c-0.609,-0.346 -1.238,-0.696 -1.63,-1.217c-0.283,-0.346 -0.462,-0.925 -0.245,-1.329c0.162,-0.288 0.575,-0.463 1.054,-0.463" style="fill:#81c2ff;fill-rule:nonzero;"/><path d="M244.119,109.104c-3.295,-0 -6.591,0.287 -9.829,0.866c-3.179,0.521 -8.671,1.042 -11.329,3.063c-1.621,1.158 -0.408,1.967 0.404,3.587c0.809,1.559 1.388,3.18 1.792,4.855c0.867,3.354 0.983,6.825 0.346,10.175c-1.096,5.841 -4.338,11.1 -6.359,16.65c-5.55,14.862 -2.545,31.625 3.988,46.079c1.562,3.529 3.412,6.996 6.187,9.712c2.488,2.488 5.896,4.279 9.367,4.279c0.346,0 0.692,-0.058 1.042,-0.058c4.45,-0.462 8.091,-3.758 10.925,-7.225c5.087,-6.304 8.612,-13.762 11.041,-21.45c2.025,-6.475 3.238,-13.125 3.7,-19.829c0.292,-4.8 0.117,-9.888 -2.254,-14.108c-1.733,-3.063 -4.566,-5.434 -6.533,-8.384c-2.775,-4.162 -3.7,-9.537 -2.429,-14.454c0.754,-3.062 2.371,-6.242 1.158,-9.192c-1.387,-3.466 -5.783,-4.391 -9.542,-4.508c-0.516,0 -1.095,-0.058 -1.675,-0.058m0,0.808c0.58,0 1.1,0.058 1.675,0.058c3.296,0.059 7.575,0.867 8.846,3.992c0.813,2.021 0.117,4.275 -0.633,6.646c-0.233,0.696 -0.463,1.387 -0.638,2.083c-1.329,5.088 -0.345,10.696 2.546,15.088c0.925,1.387 2.021,2.6 3.063,3.816c1.329,1.505 2.546,2.892 3.471,4.509c2.425,4.221 2.37,9.483 2.137,13.646c-0.462,6.645 -1.675,13.237 -3.642,19.6c-2.604,8.383 -6.304,15.491 -10.929,21.216c-3.466,4.338 -6.879,6.592 -10.404,6.938c-0.292,0.058 -0.579,0.058 -0.925,0.058c-3.008,0 -6.246,-1.446 -8.846,-4.046c-2.716,-2.662 -4.566,-6.304 -6.012,-9.483c-7.342,-16.363 -8.788,-32.492 -3.934,-45.442c0.696,-1.966 1.563,-3.875 2.43,-5.783c1.616,-3.467 3.237,-7.108 3.987,-10.983c0.638,-3.413 0.521,-7.055 -0.346,-10.521c-0.462,-1.738 -1.096,-3.471 -1.85,-5.029c-0.229,-0.409 -0.462,-0.755 -0.633,-1.1c-0.696,-1.042 -0.696,-1.042 -0.058,-1.505c2.137,-1.558 6.358,-2.195 9.42,-2.658c0.58,-0.117 1.1,-0.175 1.563,-0.292c3.237,-0.516 6.475,-0.808 9.712,-0.808" style="fill:#81c2ff;fill-rule:nonzero;"/><path d="M219.548,110.665c-4.683,-0 -11.041,2.95 -14.05,4.104c-12.891,4.858 -25.496,10.579 -37.687,17.112c-6.746,3.588 -13.367,7.459 -19.829,11.504c-4.684,3.009 -9.33,6.071 -13.142,10.121c-3.817,3.988 -6.788,9.017 -7.488,14.509c-1.07,8.383 3.475,16.883 10.321,21.795c4.088,3.009 11.859,3.705 19.246,3.705c4.975,-0 9.783,-0.35 13.175,-0.521c8.408,-0.463 13.146,-1.796 16.213,-2.834c11.1,-3.991 22.37,-9.308 29.6,-18.675c6.82,-8.904 9.133,-20.466 9.425,-31.683c0.112,-2.892 0.054,-5.779 -0.175,-8.612c-0.405,-5.725 2.658,-14.225 -1.1,-18.792c-1.038,-1.271 -2.659,-1.733 -4.509,-1.733m0,0.808c1.85,-0 3.063,0.462 3.875,1.387c2.313,2.834 1.792,7.4 1.329,11.855c-0.287,2.312 -0.52,4.508 -0.404,6.533c0.229,2.658 0.288,5.492 0.229,8.554c-0.404,13.125 -3.525,23.588 -9.308,31.163c-7.571,9.829 -19.596,14.975 -29.254,18.441c-2.775,0.984 -7.4,2.313 -15.967,2.775l-1.487,0.117c-3.284,0.175 -7.375,0.404 -11.642,0.404c-9.229,0 -15.542,-1.154 -18.779,-3.525c-7.054,-5.087 -10.975,-13.354 -9.992,-21.104c0.784,-6.125 4.384,-10.983 7.267,-14.046c3.858,-4.05 8.537,-7.112 12.992,-9.946c6.412,-4.046 13.066,-7.921 19.779,-11.504c12.108,-6.475 24.766,-12.2 37.604,-17.054c0.521,-0.233 1.154,-0.467 1.85,-0.754c3.296,-1.329 8.208,-3.296 11.908,-3.296" style="fill:#81c2ff;fill-rule:nonzero;"/><path d="M257.302,110.837c-1.563,4.046 -2.025,8.096 -3.413,12.2c-1.154,3.355 -0.058,5.55 0.404,8.959c1.1,8.383 0.813,16.941 3.471,25.091c3.642,11.105 12.546,19.95 22.779,25.73c10.234,5.725 21.796,8.616 33.3,10.983c4.509,0.925 9.021,1.796 13.646,1.796l0.579,-0c4.796,-0.059 9.654,-1.159 13.584,-3.875c7.17,-4.917 10.116,-14.513 8.5,-23.013c-1.563,-8.554 -7.055,-15.896 -13.705,-21.446c-6.704,-5.55 -14.508,-9.425 -22.258,-13.3c-9.133,-4.508 -18.267,-9.016 -27.404,-13.583c-8.958,-4.454 -19.483,-8.962 -29.483,-9.542m0.579,0.809c9.941,0.754 20.466,5.437 28.558,9.483l2.546,1.271l24.8,12.317c7.633,3.758 15.496,7.687 22.146,13.179c5.146,4.279 11.675,11.391 13.471,20.929c1.616,8.675 -1.738,17.808 -8.155,22.2c-3.466,2.371 -8.037,3.7 -13.179,3.758l-0.579,0c-4.567,0 -9.137,-0.866 -13.471,-1.733c-11.1,-2.313 -22.779,-5.204 -33.071,-10.983c-11.158,-6.246 -19.137,-15.209 -22.433,-25.267c-1.792,-5.375 -2.196,-11.1 -2.6,-16.65c-0.233,-2.717 -0.462,-5.492 -0.808,-8.208c-0.117,-0.984 -0.292,-1.792 -0.463,-2.605c-0.404,-2.137 -0.754,-3.816 0,-6.012c0.634,-1.908 1.096,-3.817 1.5,-5.608c0.521,-2.08 0.984,-4.046 1.738,-6.071" style="fill:#81c2ff;fill-rule:nonzero;"/><path d="M281.179,48.919c-1.792,0.75 -3.354,2.429 -4.508,4.858c-0.463,0.867 -0.809,1.792 -1.1,2.658c-0.463,1.155 -0.867,2.255 -1.446,3.238c-0.633,1.212 -1.446,2.254 -2.254,3.354c-0.809,0.983 -1.563,2.021 -2.254,3.179c-2.255,3.871 -2.717,8.384 -2.892,12.313c-0.058,0.983 -0.058,1.908 -0.117,2.891c-0.058,3.121 -0.171,6.3 -0.866,9.367c-0.984,4.392 -3.296,7.863 -6.3,9.483c-0.638,0.346 -1.217,0.517 -1.68,0.517c-0.225,0 -0.366,-0.083 -0.529,-0.15c-0.162,-0.737 -0.383,-1.458 -0.641,-2.171c0.37,-0.783 1.062,-1.6 1.75,-2.246c2.254,-2.02 4.104,-4.566 5.32,-7.4c0.692,-1.616 1.155,-3.295 1.388,-4.97c0.171,-1.388 0.229,-2.775 0.287,-4.105c0.059,-1.158 0.059,-2.37 0.234,-3.529c0.633,-5.433 3.408,-10.579 5.896,-15.146l4.279,-7.804l2.425,-4.512c0.35,-0.692 0.696,-1.213 1.158,-1.5c0.175,-0.117 0.404,-0.175 0.638,-0.175c0.345,-0 0.75,0.175 0.979,0.404c0.35,0.404 0.462,0.983 0.233,1.446m-24.396,53.596c0.459,3.641 -0.058,7.4 -0.696,10.866c-0.579,3.121 -1.158,5.667 -2.312,8.038c-0.867,1.908 -2.488,4.45 -5.263,5.896c-1.791,0.925 -3.929,1.329 -6.995,1.329c-1.096,-0 -2.138,-0.059 -3.238,-0.059c-4.104,-0.229 -7.975,-0.633 -10.404,-3.179c-1.621,-1.675 -2.371,-4.162 -3.008,-6.358c-1.33,-4.338 -2.659,-8.846 -2.717,-13.471c-0.025,-1.033 0.067,-2.021 0.183,-3c0.45,0.196 0.925,0.342 1.379,0.342c0.463,-0 0.867,-0.117 1.213,-0.404c1.821,-1.55 0.137,-3.092 -1.571,-4.221c0.729,-1.921 1.746,-3.613 3.075,-4.917c2.254,-2.254 5.492,-3.525 8.904,-3.525c0.867,0 1.792,0 2.659,-0.058c0.808,-0 1.675,-0.059 2.487,-0.059c1.963,0 3.467,0.175 4.854,0.405c2.834,0.579 5.146,1.562 6.879,3.066c1.53,1.309 2.709,3.134 3.525,5.259c-0.329,0.941 -0.254,1.92 0.755,2.72c0.008,0.005 0.016,0 0.025,0.005c0.087,0.445 0.208,0.862 0.266,1.325m-33.704,-3.442c0.896,0.604 1.775,1.321 1.846,1.937c-0,0.117 0.058,0.405 -0.521,0.867c-0.171,0.175 -0.404,0.229 -0.692,0.229c-0.345,0 -0.825,-0.175 -1.279,-0.391c0.15,-0.921 0.375,-1.796 0.646,-2.642m-8.154,-9.396c-0.408,-2.254 -0.579,-4.625 -0.754,-6.879c-0.229,-2.717 -0.463,-5.492 -1.096,-8.208c-0.579,-2.663 -1.504,-5.205 -2.604,-7.634c1.621,3.296 2.95,6.709 3.641,10.292c0.292,1.733 0.405,3.529 0.58,5.262c0.175,2.138 0.345,4.28 0.808,6.417c0.462,2.254 1.85,6.417 5.262,8.729c0.234,0.175 0.521,0.346 0.867,0.521c0.204,0.113 0.467,0.267 0.729,0.425c-0.291,0.858 -0.466,1.758 -0.629,2.658c-4.496,-2.791 -6.196,-8.358 -6.804,-11.583m-14.225,-37.925l-0.633,-0.808c-0.521,-0.696 -0.925,-1.329 -0.984,-1.909c-0.058,-0.291 0.059,-0.637 0.229,-0.866c0.117,-0.117 0.234,-0.175 0.35,-0.175l0.055,-0c0.35,-0 0.754,0.404 1.216,1.271l2.6,4.8l4.046,7.458c0.408,0.808 0.871,1.562 1.275,2.312c-2.371,-4.22 -5.321,-8.15 -8.154,-12.083m80.825,-4.8c-0.404,-0.462 -0.983,-0.633 -1.558,-0.633c-0.35,-0 -0.755,0.058 -1.042,0.229c-0.696,0.404 -1.1,1.1 -1.446,1.792c-2.254,4.104 -4.508,8.266 -6.708,12.375c-2.659,4.854 -5.375,9.883 -6.013,15.433c-0.287,2.487 -0.171,5.033 -0.521,7.575c-0.229,1.621 -0.691,3.237 -1.329,4.8c-1.154,2.717 -2.887,5.146 -5.087,7.108c-0.517,0.454 -1.138,1.1 -1.6,1.825c-0.817,-1.862 -1.95,-3.571 -3.488,-4.887c-2.021,-1.675 -4.625,-2.717 -7.225,-3.179c-1.737,-0.346 -3.354,-0.405 -5.029,-0.405c-1.679,0 -3.412,0.059 -5.146,0.059c-3.529,-0 -6.937,1.271 -9.425,3.754c-1.462,1.412 -2.475,3.175 -3.212,5.067c-0.6,-0.371 -1.15,-0.68 -1.471,-0.9c-2.717,-1.796 -4.279,-5.088 -4.971,-8.213c-0.808,-3.817 -0.696,-7.804 -1.387,-11.621c-0.984,-5.721 -3.817,-10.866 -6.534,-15.954c-2.254,-4.104 -4.454,-8.212 -6.708,-12.317c-0.404,-0.808 -1.038,-1.675 -1.908,-1.675l-0.113,0c-0.867,0.059 -1.446,1.038 -1.329,1.909c0.054,0.866 0.633,1.616 1.154,2.312c5.321,7.225 10.929,14.567 12.892,23.354c1.1,4.917 0.925,10.063 1.85,15.034c0.904,4.912 3.112,9.846 7.362,12.337c-0.158,1.163 -0.221,2.342 -0.191,3.504c0.058,4.625 1.387,9.192 2.716,13.646c0.75,2.367 1.504,4.913 3.238,6.704c2.716,2.834 7.054,3.18 10.929,3.355c1.096,0.058 2.196,0.116 3.292,0.116c2.604,0 5.145,-0.291 7.4,-1.446c2.487,-1.333 4.395,-3.7 5.608,-6.245c1.217,-2.6 1.85,-5.434 2.371,-8.209c0.637,-3.7 1.158,-7.458 0.696,-11.158c-0.042,-0.313 -0.134,-0.613 -0.188,-0.925c0.129,0.021 0.229,0.117 0.358,0.117c0.696,-0 1.446,-0.292 2.025,-0.58c3.642,-2.025 5.838,-6.012 6.763,-10.058c0.929,-4.05 0.754,-8.212 0.983,-12.375c0.175,-4.162 0.696,-8.383 2.775,-11.967c1.329,-2.312 3.238,-4.22 4.513,-6.533c1.041,-1.908 1.616,-3.987 2.541,-5.954c0.925,-1.967 2.371,-3.817 4.396,-4.567c0.521,-0.754 0.404,-1.908 -0.233,-2.604" style="fill:#81c2ff;fill-rule:nonzero;"/><path d="M257.302,80.312c-0.638,-2.487 -2.546,-3.529 -2.775,-3.7c-0.234,-0.175 -1.563,-0.983 -1.967,-1.041c-0.463,-0.059 -0.925,0.233 -1.096,0.579c-0.175,0.346 -0.292,1.212 -0.292,1.212c0,0 -0.345,-0.112 -0.52,-0.112c-0.171,-0.058 -0.575,0.112 -0.75,0.112c-0.117,0 -0.346,-0.404 -0.346,-0.404c-0,0 1.154,-0.637 1.154,-1.562c-0.058,-0.921 -0.346,-1.096 -0.579,-1.5c-0.288,-0.463 -0.809,-0.579 -0.809,-0.579c-0.229,-0.809 -2.541,-2.025 -3.179,-2.255c-0.579,-0.175 -1.271,0.059 -1.271,0.059c0,-0 -0.291,-0.234 -0.52,-0.292c-0.234,0 -0.463,0.175 -0.463,0.233c0,0.113 -0.233,0.171 -0.233,0.171c-1.096,-0.229 -2.196,-0.058 -2.888,0.463c-0.696,0.521 -0.35,1.908 -0.408,2.025c-0,0.175 -0.113,0.058 -0.229,-0c-0.117,-0.059 -0.059,-1.271 -0.175,-1.675c-0.113,-0.35 -1.096,-0.871 -1.792,-0.871c-0.633,-0.054 -1.096,0.117 -1.096,0.117c0,-0 0,-0.117 -0.175,-0.23c-0.175,-0.116 -0.696,0.059 -0.696,0.059c-1.616,-0.404 -3.12,0.287 -4.333,0.808c-1.158,0.521 -0.867,1.329 -0.867,1.329c0,0 -0.35,-0.116 -1.041,0.809c-0.638,0.925 0.866,2.545 0.866,2.545c0,0 -0.175,0.867 -0.462,0.692c-0.288,-0.171 -1.1,-0.054 -1.1,-0.054c-0.171,-0.467 -0.633,-1.563 -1.388,-1.679c-0.808,-0.117 -1.85,0.808 -2.195,1.212c-0.346,0.467 -1.271,0.521 -2.08,2.084c-0.812,1.562 -1.445,2.775 -0.579,5.608c0.867,2.833 3.875,4.162 5.375,4.046c1.504,-0.117 2.313,-1.271 2.717,-1.617c0.408,-0.35 0.983,-0.925 1.908,-1.737c0.925,-0.809 0.638,-1.734 0.813,-1.85c0.171,-0.059 0.229,0.116 0.229,0.116c0.175,0.867 1.329,0.984 1.504,1.1c0.171,0.117 0.229,0.75 0.346,1.388c0.117,0.691 0.521,1.096 1.271,1.791c0.387,0.325 0.829,0.392 1.275,0.371l-0,17.484c-1.779,0.375 -3.759,0.933 -3.759,0.933c0,-0 0.692,0.579 1.038,0.812c0.292,0.23 0.292,3.871 -0.113,5.205c-0.462,1.27 0.23,3.929 0.405,5.316c0.17,1.329 0.866,2.025 0.866,2.775c0,0.754 -1.271,2.254 -1.387,3.817c-0.059,0.692 0.229,1.212 0.637,1.908c0.229,0.404 0.113,1.734 0.75,2.138c0.175,0.116 0.692,-1.1 0.867,-0.925c0.346,0.291 0.346,0.346 0.521,0.637c0.691,1.154 1.966,1.154 3.004,1.154c0.983,0.059 1.392,-1.329 1.621,-1.329c0.175,0.059 0.637,1.734 0.866,1.329c0.175,-0.404 0.984,-1.675 1.621,-3.062c0.575,-1.446 -1.329,-5.204 -0.871,-5.667c0.409,-0.521 0.292,-1.966 0.292,-1.966c1.213,-2.484 1.042,-4.684 0.983,-5.317c-0.058,-0.638 0.171,-4.625 0.171,-5.088c0,-0.462 0.925,-1.1 0.638,-1.216c-0.192,-0.038 -2.059,-0.834 -3.771,-1.35l-0,-17.867c1.283,-0.367 1.946,-1.192 2.037,-2c0.117,-1.1 -0.925,-1.042 0,-1.154c0.867,-0.117 1.559,-1.392 1.734,-1.333c0.175,-0 0.175,0.812 0.346,1.333c0.116,0.517 1.275,1.037 1.791,1.329c0.521,0.346 -0.171,2.138 3.125,2.196c3.296,0.058 4.913,-3.238 4.913,-3.238c-0,0 1.216,-2.137 0.521,-4.625Z" style="fill:none;fill-rule:nonzero;stroke:#000;stroke-width:1.16px;"/><path d="M245.106,106.448c2.137,-0.637 3.933,-2.312 4.683,-4.45c0.75,-2.083 0.404,-4.512 -0.925,-6.362" style="fill:none;fill-rule:nonzero;stroke:#000;stroke-width:1.16px;"/><path d="M246.204,108.299c2.546,-0.117 4.971,-1.388 6.533,-3.413c1.505,-2.021 2.138,-4.741 1.563,-7.225" style="fill:none;fill-rule:nonzero;stroke:#000;stroke-width:1.16px;"/><path d="M236.037,107.205c-0.75,0.117 -1.504,-0.175 -2.083,-0.695c-0.517,-0.463 -0.925,-1.155 -1.271,-1.792c-1.041,-2.254 -1.329,-4.913 -0.691,-7.4" style="fill:none;fill-rule:nonzero;stroke:#000;stroke-width:1.16px;"/><path d="M235.611,112.334c-3.296,0.808 -6.704,-1.1 -9.075,-3.584c-2.2,-2.37 -3.817,-5.204 -5.379,-8.037" style="fill:none;fill-rule:nonzero;stroke:#000;stroke-width:1.16px;"/><path d="M245.337,112.635c5.262,-0.638 10.058,-4.338 11.967,-9.309" style="fill:none;fill-rule:nonzero;stroke:#000;stroke-width:1.16px;"/><path d="M236.095,109.922c-2.025,0 -4.046,-0.925 -5.433,-2.429c-1.388,-1.504 -2.083,-3.583 -1.908,-5.666" style="fill:none;fill-rule:nonzero;stroke:#000;stroke-width:1.16px;"/><path d="M238.655,128.504c0.229,7.4 0.404,14.8 0.579,22.258c0.059,2.255 0.117,4.567 -0.404,6.821c-0.462,1.909 -1.333,3.7 -1.621,5.667c-0.287,1.967 0.175,4.279 1.85,5.321" style="fill:none;fill-rule:nonzero;stroke:#000;stroke-width:1.16px;"/><path d="M241.283,129.094c-0.925,6.65 1.271,13.354 1.621,20.062c0.287,6.475 -1.217,13.121 0.516,19.367" style="fill:none;fill-rule:nonzero;stroke:#000;stroke-width:1.16px;"/><path d="M245.106,126.966c0.925,3.525 2.025,7.341 4.971,9.483c1.158,0.867 2.604,1.442 3.412,2.6c0.579,0.925 0.692,2.079 1.1,3.063c0.404,1.041 1.271,2.025 2.367,1.966" style="fill:none;fill-rule:nonzero;stroke:#000;stroke-width:1.16px;"/><path d="M250.729,137.117c-0.234,0.925 -0.059,1.967 0.287,2.892c0.292,0.925 0.754,1.792 1.042,2.717c0.346,1.158 0.521,2.371 0.462,3.583" style="fill:none;fill-rule:nonzero;stroke:#000;stroke-width:1.16px;"/><path d="M244.191,121.312c1.733,-0.234 3.354,0.866 4.338,2.254c1.037,1.329 1.733,4.512 3.179,5.379c0.633,0.346 1.558,0.112 2.254,0.287c1.042,0.175 2.025,0.692 2.775,1.446c0.462,0.463 0.808,0.925 1.271,1.329c0.404,0.405 1.041,0.692 1.621,0.634" style="fill:none;fill-rule:nonzero;stroke:#000;stroke-width:1.16px;"/><path d="M255.278,133.212c0.116,-0.696 0.233,-1.446 0.058,-2.137c-0.117,-0.755 -0.579,-1.446 -1.271,-1.68" style="fill:none;fill-rule:nonzero;stroke:#000;stroke-width:1.16px;"/><path d="M236.384,120.792c-1.85,0.229 -3.583,1.154 -4.858,2.487c-1.271,1.388 -2.021,3.238 -2.079,5.088c-0.059,1.85 0.462,3.641 0.52,5.491c0.117,3.296 -1.562,6.592 -4.337,8.442" style="fill:none;fill-rule:nonzero;stroke:#000;stroke-width:1.16px;"/><path d="M229.389,144.495c-0.175,-0.462 -0.059,-1.041 0.175,-1.504c0.17,-0.462 0.462,-0.925 0.633,-1.387c0.35,-1.271 -0.288,-2.542 -0.867,-3.7" style="fill:none;fill-rule:nonzero;stroke:#000;stroke-width:1.16px;"/><path d="M235.886,116.744c-1.621,-0.229 -3.296,0.404 -4.567,1.446c-1.271,1.042 -2.2,2.429 -3.121,3.758c-1.041,1.446 -2.025,2.946 -3.066,4.392" style="fill:none;fill-rule:nonzero;stroke:#000;stroke-width:1.16px;"/><path d="M245.829,116.623c1.213,0.346 2.429,0.696 3.7,1.1c2.025,0.575 4.163,1.154 6.3,1.096" style="fill:none;fill-rule:nonzero;stroke:#000;stroke-width:1.16px;"/><path d="M246.162,115.178c2.43,-0 4.855,-0 6.996,-1.042c2.659,-1.271 4.392,-3.812 6.013,-6.241" style="fill:none;fill-rule:nonzero;stroke:#000;stroke-width:1.16px;"/><path d="M235.886,114.143c-5.088,1.446 -10.871,-0.175 -14.454,-4.046" style="fill:none;fill-rule:nonzero;stroke:#000;stroke-width:1.16px;"/><path d="M236.731,125.995c-2.196,2.717 -3.179,6.359 -2.6,9.83c0.575,3.583 2.658,7.054 1.904,10.579c-0.575,2.546 -2.6,4.508 -4.796,6.012c-2.195,1.446 -4.625,2.488 -6.65,4.104c-2.079,1.621 -3.816,3.875 -3.875,6.534" style="fill:none;fill-rule:nonzero;stroke:#000;stroke-width:1.16px;"/><path d="M226.024,162.004c-0.346,-0.808 -0.175,-1.792 0.287,-2.6c0.463,-0.812 1.1,-1.446 1.679,-2.142c0.579,-0.75 0.925,-2.254 0.867,-3.12" style="fill:none;fill-rule:nonzero;stroke:#000;stroke-width:1.16px;"/><path d="M241.694,128.504c1.62,2.025 2.716,4.396 3.295,6.879c0.634,2.546 0.75,5.088 0.984,7.634c0.287,2.6 0.633,5.145 1.675,7.516c1.1,2.313 2.891,4.392 5.321,5.259c0.808,0.291 1.675,0.404 2.425,0.866c0.983,0.579 1.62,1.679 1.908,2.775c0.35,1.1 0.35,2.254 0.35,3.413" style="fill:none;fill-rule:nonzero;stroke:#000;stroke-width:1.16px;"/><path d="M252.789,162.727c-0.404,-0.75 -0.117,-1.621 0.233,-2.43c0.346,-0.75 0.75,-1.562 0.517,-2.37c-0.171,-0.634 -0.692,-1.096 -1.154,-1.505c-0.521,-0.462 -0.983,-1.037 -0.925,-1.675" style="fill:none;fill-rule:nonzero;stroke:#000;stroke-width:1.16px;"/><path d="M311.478,74.125c-0.116,0 -0.229,0 -0.346,0.059c-0.808,0.116 -1.504,0.521 -2.195,0.925c-6.246,3.7 -12.434,7.4 -18.675,11.158c-3.067,1.792 -6.246,3.7 -8.384,6.533c-3.296,4.221 -3.875,9.888 -6.187,14.742c-2.254,4.683 -6.184,8.617 -10.984,10.754c-2.487,1.159 -5.204,1.85 -7.287,3.642c-1.675,1.387 -4.046,6.592 -0.75,7.283c0.233,0.059 0.462,0.059 0.696,0.059c1.675,-0 3.929,-0.809 5.316,-1.096c2.138,-0.463 4.221,-1.042 6.188,-1.909c4.162,-1.791 7.979,-4.858 9.712,-9.079c2.255,-5.433 0.58,-11.908 2.834,-17.4c2.196,-5.204 7.458,-8.383 12.371,-11.216c5.783,-3.296 11.504,-6.592 17.287,-9.946c0.692,-0.346 1.388,-0.809 1.85,-1.388c0.463,-0.633 0.692,-1.558 0.288,-2.196c-0.288,-0.637 -1.038,-0.925 -1.734,-0.925m0,0.809c0.463,-0 0.925,0.175 1.042,0.462c0.229,0.404 0.058,0.984 -0.233,1.334c-0.405,0.516 -1.038,0.866 -1.617,1.212l-6.938,3.988l-10.35,5.954c-4.337,2.487 -10.291,5.9 -12.662,11.621c-1.213,2.891 -1.388,6.016 -1.5,9.02c-0.175,3.009 -0.35,5.784 -1.388,8.384c-1.445,3.641 -4.741,6.708 -9.254,8.612c-1.733,0.754 -3.7,1.388 -6.066,1.854c-0.409,0.113 -0.871,0.23 -1.388,0.405c-1.217,0.287 -2.662,0.691 -3.758,0.691l-0.521,0c-0.579,-0.116 -0.867,-0.404 -0.983,-0.866c-0.346,-1.446 1.041,-4.163 2.079,-5.088c1.387,-1.158 3.125,-1.85 4.916,-2.546c0.75,-0.287 1.505,-0.575 2.196,-0.925c4.913,-2.254 9.075,-6.3 11.392,-11.158c0.925,-1.904 1.558,-3.988 2.196,-5.954c0.983,-3.179 1.966,-6.188 3.871,-8.671c2.083,-2.717 5.204,-4.567 8.154,-6.3l9.366,-5.613l9.309,-5.55c0.633,-0.404 1.271,-0.75 1.908,-0.866l0.229,-0Z" style="fill:#81c2ff;fill-rule:nonzero;"/><g transform="matrix(1,0,0,1,-852.768,-729.603)"><text x="1129.97px" y="1024.38px" style="font-family:'ArialMT', 'Arial', sans-serif;font-size:33.333px;">T<tspan x="1149.09px 1156.5px " y="1024.38px 1024.38px ">is</tspan>sue</text><g transform="matrix(33.3333,0,0,33.3333,1331.91,1057.72)"></g><text x="1129.97px" y="1057.72px" style="font-family:'ArialMT', 'Arial', sans-serif;font-size:33.333px;">reconstructed</text></g><g transform="matrix(1,0,0,1,-1005.78,-729.603)"><text x="1081.65px" y="1024.38px" style="font-family:'ArialMT', 'Arial', sans-serif;font-size:33.333px;">Ti<tspan x="1109.42px " y="1024.38px ">s</tspan>sue</text><g transform="matrix(33.3333,0,0,33.3333,1207.65,1054.38)"></g><text x="1081.65px" y="1054.38px" style="font-family:'ArialMT', 'Arial', sans-serif;font-size:33.333px;">scanned</text></g></svg>