<?xml version="1.0" encoding="UTF-8" standalone="no"?><!DOCTYPE svg PUBLIC "-//W3C//DTD SVG 1.1//EN" "http://www.w3.org/Graphics/SVG/1.1/DTD/svg11.dtd"><svg width="100%" height="100%" viewBox="0 0 4086 1996" version="1.1" xmlns="http://www.w3.org/2000/svg" xmlns:xlink="http://www.w3.org/1999/xlink" xml:space="preserve" xmlns:serif="http://www.serif.com/" style="fill-rule:evenodd;clip-rule:evenodd;stroke-miterlimit:10;"><g id="Layer-1" serif:id="Layer 1"></g><g id="Layer-11" serif:id="Layer 1"><path d="M119.768,1324.11l3722.97,-654.791l0,650.833l-3722.97,3.958Z" style="fill:#ffedc6;"/><path d="M3842.74,577.97c0,258.917 -209.833,468.75 -468.666,468.75c-258.875,0 -468.667,-209.833 -468.667,-468.75c-0,-258.791 209.792,-468.666 468.667,-468.666c258.833,-0 468.666,209.875 468.666,468.666" style="fill:#f3cf6f;fill-rule:nonzero;"/><path d="M2735.44,1962.33c8.75,-80.5 58.542,-165.042 55.917,-249.167c8.791,1.708 7.083,9.25 8.666,15.292c18.459,70.25 43.959,156.791 48.042,233.875l699.042,-0c-0.375,-16.959 0.666,-34.75 3.666,-53.959c9,-57.708 31.917,-115.083 40.042,-173.458l6.542,-4.292c9.291,62.5 37.041,121.959 50.208,183c3.542,16.25 6.333,32.5 8.833,48.709l235.917,-0c-13.708,-25.375 -28.375,-49.792 -41.542,-82c-23.291,-56.959 -25.708,-147.292 -36.75,-211.625c-6.583,-38.417 -21.791,-75.709 -20.458,-114.584c4.083,-118.583 29.083,-228.416 -42.667,-336.541c-58.916,-88.875 -144.208,-86.209 -230.458,-131.209c-49.125,-25.625 -133.708,-73.791 -175.333,-107.916c-42.084,-34.459 -2,-38.875 10.5,-67.125c13.458,-30.5 44.833,-128.667 48.958,-160.209c2.875,-22.125 -5.042,-38.625 -3.167,-55.125c1.417,-12.041 12.542,-22.458 15.292,-32.958c4.917,-18.708 -3.333,-75.875 -7.75,-97.083c-31,-147.917 -210.458,-194.75 -328.875,-113.25c-85.25,58.666 -97.125,154.75 -83.875,251.541c6.292,46.209 35.208,64.084 39.292,117.542c11.666,152.083 -58.917,193.792 -180.25,260.208c-99,54.209 -190.709,49.917 -247.75,161.875c-30.334,59.584 -40.584,130.584 -38.584,197.125c1.209,40.584 14.292,91.167 13.417,130.292c-0.667,28 -13.708,67 -17.042,96.667c-6.833,60.916 -6.833,130.958 -19.166,190c-7.667,36.708 -29.667,69.833 -47.209,104.375l236.542,-0Z" style="fill:#dadada;fill-rule:nonzero;"/><g transform="matrix(37.5,0,0,37.5,3823.2,1920.15)"></g><text x="2864.57px" y="1920.15px" style="font-family:'Arial-BoldMT', 'Arial', sans-serif;font-weight:700;font-size:37.5px;fill:#8d8d8d;">Guide to Brain Emulation Models | Maximilian Schons</text><path d="M808.857,1634.07l-0,40.73l-62.662,-62.662l62.662,-62.662l-0,40.73l703.259,0l0,-40.73l62.662,62.662l-62.662,62.662l0,-40.73l-703.259,-0Z" style="fill:#e5e5e5;"/><g transform="matrix(78.9279,0,0,78.9279,1237.29,1731.34)"></g><text x="1066.14px" y="1731.34px" style="font-family:'ArialMT', 'Arial', sans-serif;font-size:78.928px;">500x</text><g transform="matrix(78.9279,0,0,78.9279,2066.88,1731.34)"></g><text x="1895.73px" y="1731.34px" style="font-family:'ArialMT', 'Arial', sans-serif;font-size:78.928px;">500x</text><g transform="matrix(78.9279,0,0,78.9279,3016.61,1731.34)"></g><text x="2779.63px" y="1731.34px" style="font-family:'ArialMT', 'Arial', sans-serif;font-size:78.928px;">1,200x</text><path d="M1644.21,1634.07l-0,40.73l-62.662,-62.662l62.662,-62.662l-0,40.73l691.716,0l-0,-40.73l62.662,62.662l-62.662,62.662l-0,-40.73l-691.716,-0Z" style="fill:#e5e5e5;"/><path d="M2461.25,1634.07l0,40.73l-62.662,-62.662l62.662,-62.662l0,40.73l825.448,0l-0,-40.73l62.662,62.662l-62.662,62.662l-0,-40.73l-825.448,-0Z" style="fill:#e5e5e5;"/><g opacity="0.7"><g><clipPath id="_clip1"><rect x="122.313" y="1007.4" width="3626.8" height="390.417" clip-rule="nonzero"/></clipPath><g clip-path="url(#_clip1)"><path d="M122.64,1291l3411.88,-0" style="fill:none;fill-rule:nonzero;stroke:#000;stroke-width:5.26px;"/><path d="M339.044,1187.19l-0,210.613" style="fill:none;fill-rule:nonzero;stroke:#000;stroke-width:5.26px;"/><path d="M311.125,1226.94l-0,131.116" style="fill:none;fill-rule:nonzero;stroke:#757575;stroke-width:3.95px;"/><path d="M370.357,1226.94l0,131.116" style="fill:none;fill-rule:nonzero;stroke:#757575;stroke-width:3.95px;"/><path d="M401.159,1226.94l-0,131.116" style="fill:none;fill-rule:nonzero;stroke:#757575;stroke-width:3.95px;"/><path d="M431.96,1226.94l-0,131.116" style="fill:none;fill-rule:nonzero;stroke:#757575;stroke-width:3.95px;"/><path d="M462.937,1226.94l0,131.116" style="fill:none;fill-rule:nonzero;stroke:#757575;stroke-width:3.95px;"/><path d="M492.805,1226.94l-0,131.116" style="fill:none;fill-rule:nonzero;stroke:#757575;stroke-width:3.95px;"/><path d="M523.862,1226.94l0,131.116" style="fill:none;fill-rule:nonzero;stroke:#757575;stroke-width:3.95px;"/><path d="M554.751,1226.94l0,131.116" style="fill:none;fill-rule:nonzero;stroke:#757575;stroke-width:3.95px;"/><path d="M585.214,1226.94l0,131.116" style="fill:none;fill-rule:nonzero;stroke:#757575;stroke-width:3.95px;"/><path d="M615.89,1226.94l-0,131.116" style="fill:none;fill-rule:nonzero;stroke:#757575;stroke-width:3.95px;"/><path d="M677.561,1226.94l-0,131.116" style="fill:none;fill-rule:nonzero;stroke:#757575;stroke-width:3.95px;"/><path d="M708.362,1226.94l0,131.116" style="fill:none;fill-rule:nonzero;stroke:#757575;stroke-width:3.95px;"/><path d="M739.163,1226.94l0,131.116" style="fill:none;fill-rule:nonzero;stroke:#757575;stroke-width:3.95px;"/><path d="M770.139,1226.94l0,131.116" style="fill:none;fill-rule:nonzero;stroke:#757575;stroke-width:3.95px;"/><path d="M739.163,1133.67l0,224.387" style="fill:none;fill-rule:nonzero;stroke:#b03030;stroke-width:4.17px;"/><path d="M800.008,1226.94l0,131.116" style="fill:none;fill-rule:nonzero;stroke:#757575;stroke-width:3.95px;"/><path d="M831.066,1226.94l-0,131.116" style="fill:none;fill-rule:nonzero;stroke:#757575;stroke-width:3.95px;"/><path d="M861.955,1226.94l-0,131.116" style="fill:none;fill-rule:nonzero;stroke:#757575;stroke-width:3.95px;"/><path d="M892.417,1226.94l0,131.116" style="fill:none;fill-rule:nonzero;stroke:#757575;stroke-width:3.95px;"/><path d="M923.093,1226.94l0,131.116" style="fill:none;fill-rule:nonzero;stroke:#757575;stroke-width:3.95px;"/><path d="M985.083,1226.94l-0,131.116" style="fill:none;fill-rule:nonzero;stroke:#757575;stroke-width:3.95px;"/><path d="M1015.88,1226.94l0,131.116" style="fill:none;fill-rule:nonzero;stroke:#757575;stroke-width:3.95px;"/><path d="M1046.68,1226.94l0,131.116" style="fill:none;fill-rule:nonzero;stroke:#757575;stroke-width:3.95px;"/><path d="M1077.66,1226.94l0,131.116" style="fill:none;fill-rule:nonzero;stroke:#757575;stroke-width:3.95px;"/><path d="M1107.53,1226.94l0,131.116" style="fill:none;fill-rule:nonzero;stroke:#757575;stroke-width:3.95px;"/><path d="M1138.59,1226.94l-0,131.116" style="fill:none;fill-rule:nonzero;stroke:#757575;stroke-width:3.95px;"/><path d="M1169.48,1226.94l0,131.116" style="fill:none;fill-rule:nonzero;stroke:#757575;stroke-width:3.95px;"/><path d="M1199.94,1226.94l-0,131.116" style="fill:none;fill-rule:nonzero;stroke:#757575;stroke-width:3.95px;"/><path d="M1230.62,1226.94l-0,131.116" style="fill:none;fill-rule:nonzero;stroke:#757575;stroke-width:3.95px;"/><path d="M1292.61,1226.94l0,131.116" style="fill:none;fill-rule:nonzero;stroke:#757575;stroke-width:3.95px;"/><path d="M1323.41,1226.94l-0,131.116" style="fill:none;fill-rule:nonzero;stroke:#757575;stroke-width:3.95px;"/><path d="M1354.21,1226.94l-0,131.116" style="fill:none;fill-rule:nonzero;stroke:#757575;stroke-width:3.95px;"/><path d="M1385.18,1226.94l-0,131.116" style="fill:none;fill-rule:nonzero;stroke:#757575;stroke-width:3.95px;"/><path d="M1415.05,1226.94l0,131.116" style="fill:none;fill-rule:nonzero;stroke:#757575;stroke-width:3.95px;"/><path d="M1446.11,1226.94l-0,131.116" style="fill:none;fill-rule:nonzero;stroke:#757575;stroke-width:3.95px;"/><path d="M1477,1226.94l0,131.116" style="fill:none;fill-rule:nonzero;stroke:#757575;stroke-width:3.95px;"/><path d="M1507.46,1226.94l0,131.116" style="fill:none;fill-rule:nonzero;stroke:#757575;stroke-width:3.95px;"/><path d="M1538.14,1226.94l-0,131.116" style="fill:none;fill-rule:nonzero;stroke:#757575;stroke-width:3.95px;"/><path d="M1600.13,1226.94l0,131.116" style="fill:none;fill-rule:nonzero;stroke:#757575;stroke-width:3.95px;"/><path d="M1630.93,1226.94l-0,131.116" style="fill:none;fill-rule:nonzero;stroke:#757575;stroke-width:3.95px;"/><path d="M1661.73,1226.94l-0,131.116" style="fill:none;fill-rule:nonzero;stroke:#757575;stroke-width:3.95px;"/><path d="M1692.71,1226.94l0,131.116" style="fill:none;fill-rule:nonzero;stroke:#757575;stroke-width:3.95px;"/><path d="M1722.58,1226.94l-0,131.116" style="fill:none;fill-rule:nonzero;stroke:#757575;stroke-width:3.95px;"/><path d="M1753.63,1226.94l0,131.116" style="fill:none;fill-rule:nonzero;stroke:#757575;stroke-width:3.95px;"/><path d="M1784.52,1226.94l-0,131.116" style="fill:none;fill-rule:nonzero;stroke:#757575;stroke-width:3.95px;"/><path d="M1784.52,1226.94l-0,131.116" style="fill:none;fill-rule:nonzero;stroke:#757575;stroke-width:3.95px;"/><path d="M1814.98,1226.94l0,131.116" style="fill:none;fill-rule:nonzero;stroke:#757575;stroke-width:3.95px;"/><path d="M1845.66,1226.94l-0,131.116" style="fill:none;fill-rule:nonzero;stroke:#757575;stroke-width:3.95px;"/><path d="M1907.65,1226.94l-0,131.116" style="fill:none;fill-rule:nonzero;stroke:#757575;stroke-width:3.95px;"/><path d="M1938.45,1226.94l-0,131.116" style="fill:none;fill-rule:nonzero;stroke:#757575;stroke-width:3.95px;"/><path d="M1969.25,1226.94l0,131.116" style="fill:none;fill-rule:nonzero;stroke:#757575;stroke-width:3.95px;"/><path d="M2000.23,1226.94l-0,131.116" style="fill:none;fill-rule:nonzero;stroke:#757575;stroke-width:3.95px;"/><path d="M2030.1,1226.94l0,131.116" style="fill:none;fill-rule:nonzero;stroke:#757575;stroke-width:3.95px;"/><path d="M2061.16,1226.94l-0,131.116" style="fill:none;fill-rule:nonzero;stroke:#757575;stroke-width:3.95px;"/><path d="M2092.04,1226.94l-0,131.116" style="fill:none;fill-rule:nonzero;stroke:#757575;stroke-width:3.95px;"/><path d="M2122.51,1226.94l0,131.116" style="fill:none;fill-rule:nonzero;stroke:#757575;stroke-width:3.95px;"/><path d="M2153.18,1226.94l0,131.116" style="fill:none;fill-rule:nonzero;stroke:#757575;stroke-width:3.95px;"/><path d="M2213.88,1226.94l-0,131.116" style="fill:none;fill-rule:nonzero;stroke:#757575;stroke-width:3.95px;"/><path d="M2244.68,1226.94l-0,131.116" style="fill:none;fill-rule:nonzero;stroke:#757575;stroke-width:3.95px;"/><path d="M2275.48,1226.94l0,131.116" style="fill:none;fill-rule:nonzero;stroke:#757575;stroke-width:3.95px;"/><path d="M2306.46,1226.94l0,131.116" style="fill:none;fill-rule:nonzero;stroke:#757575;stroke-width:3.95px;"/><path d="M2336.33,1226.94l0,131.116" style="fill:none;fill-rule:nonzero;stroke:#757575;stroke-width:3.95px;"/><path d="M2367.39,1226.94l-0,131.116" style="fill:none;fill-rule:nonzero;stroke:#757575;stroke-width:3.95px;"/><path d="M2398.27,1226.94l-0,131.116" style="fill:none;fill-rule:nonzero;stroke:#757575;stroke-width:3.95px;"/><path d="M2428.74,1226.94l0,131.116" style="fill:none;fill-rule:nonzero;stroke:#757575;stroke-width:3.95px;"/><path d="M2428.74,1226.94l-0,131.116" style="fill:none;fill-rule:nonzero;stroke:#757575;stroke-width:3.95px;"/><path d="M2459.41,1226.94l-0,131.116" style="fill:none;fill-rule:nonzero;stroke:#757575;stroke-width:3.95px;"/><path d="M2520.76,1226.94l0,131.116" style="fill:none;fill-rule:nonzero;stroke:#757575;stroke-width:3.95px;"/><path d="M2551.56,1226.94l0,131.116" style="fill:none;fill-rule:nonzero;stroke:#757575;stroke-width:3.95px;"/><path d="M2582.36,1226.94l0,131.116" style="fill:none;fill-rule:nonzero;stroke:#757575;stroke-width:3.95px;"/><path d="M2613.34,1226.94l-0,131.116" style="fill:none;fill-rule:nonzero;stroke:#757575;stroke-width:3.95px;"/><path d="M2643.2,1226.94l0,131.116" style="fill:none;fill-rule:nonzero;stroke:#757575;stroke-width:3.95px;"/><path d="M2674.26,1226.94l0,131.116" style="fill:none;fill-rule:nonzero;stroke:#757575;stroke-width:3.95px;"/><path d="M2705.15,1226.94l-0,131.116" style="fill:none;fill-rule:nonzero;stroke:#757575;stroke-width:3.95px;"/><path d="M2735.61,1226.94l0,131.116" style="fill:none;fill-rule:nonzero;stroke:#757575;stroke-width:3.95px;"/><path d="M2766.29,1226.94l-0,131.116" style="fill:none;fill-rule:nonzero;stroke:#757575;stroke-width:3.95px;"/><path d="M2828.28,1226.94l0,131.116" style="fill:none;fill-rule:nonzero;stroke:#757575;stroke-width:3.95px;"/><path d="M2859.08,1226.94l-0,131.116" style="fill:none;fill-rule:nonzero;stroke:#757575;stroke-width:3.95px;"/><path d="M2889.88,1226.94l0,131.116" style="fill:none;fill-rule:nonzero;stroke:#757575;stroke-width:3.95px;"/><path d="M2920.86,1226.94l-0,131.116" style="fill:none;fill-rule:nonzero;stroke:#757575;stroke-width:3.95px;"/><path d="M2950.73,1226.94l-0,131.116" style="fill:none;fill-rule:nonzero;stroke:#757575;stroke-width:3.95px;"/><path d="M2981.78,1226.94l0,131.116" style="fill:none;fill-rule:nonzero;stroke:#757575;stroke-width:3.95px;"/><path d="M3012.67,1226.94l0,131.116" style="fill:none;fill-rule:nonzero;stroke:#757575;stroke-width:3.95px;"/><path d="M3043.14,1226.94l-0,131.116" style="fill:none;fill-rule:nonzero;stroke:#757575;stroke-width:3.95px;"/><path d="M3073.81,1226.94l-0,131.116" style="fill:none;fill-rule:nonzero;stroke:#757575;stroke-width:3.95px;"/><path d="M3134.51,1226.94l0,131.116" style="fill:none;fill-rule:nonzero;stroke:#757575;stroke-width:3.95px;"/><path d="M3165.31,1226.94l-0,131.116" style="fill:none;fill-rule:nonzero;stroke:#757575;stroke-width:3.95px;"/><path d="M3196.11,1226.94l-0,131.116" style="fill:none;fill-rule:nonzero;stroke:#757575;stroke-width:3.95px;"/><path d="M3227.09,1226.94l-0,131.116" style="fill:none;fill-rule:nonzero;stroke:#757575;stroke-width:3.95px;"/><path d="M3256.96,1226.94l0,131.116" style="fill:none;fill-rule:nonzero;stroke:#757575;stroke-width:3.95px;"/><path d="M3288.01,1226.94l0,131.116" style="fill:none;fill-rule:nonzero;stroke:#757575;stroke-width:3.95px;"/><path d="M3318.9,1226.94l0,131.116" style="fill:none;fill-rule:nonzero;stroke:#757575;stroke-width:3.95px;"/><path d="M3349.37,1226.94l0,131.116" style="fill:none;fill-rule:nonzero;stroke:#757575;stroke-width:3.95px;"/><path d="M3380.04,1226.94l0,131.116" style="fill:none;fill-rule:nonzero;stroke:#757575;stroke-width:3.95px;"/><path d="M279.308,1226.94l-0,131.116" style="fill:none;fill-rule:nonzero;stroke:#757575;stroke-width:3.95px;"/><path d="M248.845,1226.94l0,131.116" style="fill:none;fill-rule:nonzero;stroke:#757575;stroke-width:3.95px;"/><path d="M217.029,1226.94l-0,131.116" style="fill:none;fill-rule:nonzero;stroke:#757575;stroke-width:3.95px;"/><path d="M186.566,1226.94l-0,131.116" style="fill:none;fill-rule:nonzero;stroke:#757575;stroke-width:3.95px;"/><path d="M156.103,1226.94l0,131.116" style="fill:none;fill-rule:nonzero;stroke:#757575;stroke-width:3.95px;"/><path d="M124.287,1226.94l-0,131.116" style="fill:none;fill-rule:nonzero;stroke:#757575;stroke-width:3.95px;"/><path d="M646.566,1187.19l0,210.613" style="fill:none;fill-rule:nonzero;stroke:#000;stroke-width:5.26px;"/><path d="M954.088,1187.19l0,210.613" style="fill:none;fill-rule:nonzero;stroke:#000;stroke-width:5.26px;"/><path d="M1261.61,1187.19l0,210.613" style="fill:none;fill-rule:nonzero;stroke:#000;stroke-width:5.26px;"/><path d="M1569.13,1187.19l-0,210.613" style="fill:none;fill-rule:nonzero;stroke:#000;stroke-width:5.26px;"/><path d="M1876.65,1187.19l-0,210.613" style="fill:none;fill-rule:nonzero;stroke:#000;stroke-width:5.26px;"/><path d="M2184.18,1187.19l0,210.613" style="fill:none;fill-rule:nonzero;stroke:#000;stroke-width:5.26px;"/><path d="M2489.12,1187.19l-0,210.613" style="fill:none;fill-rule:nonzero;stroke:#000;stroke-width:5.26px;"/><path d="M2797.93,1187.19l-0,210.613" style="fill:none;fill-rule:nonzero;stroke:#000;stroke-width:5.26px;"/><path d="M3104.16,1187.19l-0,210.613" style="fill:none;fill-rule:nonzero;stroke:#000;stroke-width:5.26px;"/><path d="M3410.39,1187.19l-0,210.613" style="fill:none;fill-rule:nonzero;stroke:#000;stroke-width:5.26px;"/><g transform="matrix(1,0,0,1,-366.167,932.423)"><text x="655.781px" y="254.768px" style="font-family:'ArialMT', 'Arial', sans-serif;font-size:78.928px;">10</text><g transform="matrix(46.015,0,0,46.015,769.164,228.484)"></g><text x="743.572px" y="228.484px" style="font-family:'ArialMT', 'Arial', sans-serif;font-size:46.015px;">1</text></g><g transform="matrix(1,0,0,1,-132.61,932.423)"><text x="729.536px" y="254.768px" style="font-family:'ArialMT', 'Arial', sans-serif;font-size:78.928px;">10</text><g transform="matrix(46.015,0,0,46.015,842.919,228.484)"></g><text x="817.327px" y="228.484px" style="font-family:'ArialMT', 'Arial', sans-serif;font-size:46.015px;">2</text></g><g transform="matrix(1,0,0,1,101.861,932.423)"><text x="803.58px" y="254.768px" style="font-family:'ArialMT', 'Arial', sans-serif;font-size:78.928px;">10</text><g transform="matrix(46.015,0,0,46.015,916.964,228.484)"></g><text x="891.373px" y="228.484px" style="font-family:'ArialMT', 'Arial', sans-serif;font-size:46.015px;">3</text></g><g transform="matrix(1,0,0,1,335.421,932.423)"><text x="877.335px" y="254.768px" style="font-family:'ArialMT', 'Arial', sans-serif;font-size:78.928px;">10</text><g transform="matrix(46.015,0,0,46.015,990.72,228.484)"></g><text x="965.129px" y="228.484px" style="font-family:'ArialMT', 'Arial', sans-serif;font-size:46.015px;">4</text></g><g transform="matrix(1,0,0,1,570.809,932.423)"><text x="951.669px" y="254.768px" style="font-family:'ArialMT', 'Arial', sans-serif;font-size:78.928px;">10</text><g transform="matrix(46.015,0,0,46.015,1065.05,228.484)"></g><text x="1039.46px" y="228.484px" style="font-family:'ArialMT', 'Arial', sans-serif;font-size:46.015px;">5</text></g><g transform="matrix(1,0,0,1,801.614,932.423)"><text x="1024.55px" y="254.768px" style="font-family:'ArialMT', 'Arial', sans-serif;font-size:78.928px;">10</text><g transform="matrix(46.015,0,0,46.015,1137.94,228.484)"></g><text x="1112.35px" y="228.484px" style="font-family:'ArialMT', 'Arial', sans-serif;font-size:46.015px;">6</text></g><g transform="matrix(1,0,0,1,1037,932.423)"><text x="1098.89px" y="254.768px" style="font-family:'ArialMT', 'Arial', sans-serif;font-size:78.928px;">10</text><g transform="matrix(46.015,0,0,46.015,1212.27,228.484)"></g><text x="1186.68px" y="228.484px" style="font-family:'ArialMT', 'Arial', sans-serif;font-size:46.015px;">7</text></g><g transform="matrix(1,0,0,1,1267.82,932.423)"><text x="1171.78px" y="254.768px" style="font-family:'ArialMT', 'Arial', sans-serif;font-size:78.928px;">10</text><g transform="matrix(46.015,0,0,46.015,1285.16,228.484)"></g><text x="1259.57px" y="228.484px" style="font-family:'ArialMT', 'Arial', sans-serif;font-size:46.015px;">8</text></g><g transform="matrix(1,0,0,1,1499.54,932.423)"><text x="1244.95px" y="254.768px" style="font-family:'ArialMT', 'Arial', sans-serif;font-size:78.928px;">10</text><g transform="matrix(46.015,0,0,46.015,1358.34,228.484)"></g><text x="1332.75px" y="228.484px" style="font-family:'ArialMT', 'Arial', sans-serif;font-size:46.015px;">9</text></g><g transform="matrix(1,0,0,1,1733.1,932.423)"><text x="1318.71px" y="254.768px" style="font-family:'ArialMT', 'Arial', sans-serif;font-size:78.928px;">10</text><g transform="matrix(46.015,0,0,46.015,1457.68,228.484)"></g><text x="1406.49px" y="228.484px" style="font-family:'ArialMT', 'Arial', sans-serif;font-size:46.015px;">10</text></g><g transform="matrix(1,0,0,1,1969.4,932.423)"><text x="1393.33px" y="254.768px" style="font-family:'ArialMT', 'Arial', sans-serif;font-size:78.928px;">10</text><g transform="matrix(46.015,0,0,46.015,1528.89,228.484)"></g><text x="1481.12px" y="228.484px" style="font-family:'ArialMT', 'Arial', sans-serif;font-size:46.015px;">1<tspan x="1503.3px " y="228.484px ">1</tspan></text></g><g transform="matrix(1,0,0,1,2121.18,989.843)"><text x="1441.26px" y="255.164px" style="font-family:'ArialMT', 'Arial', sans-serif;font-size:54.167px;">Approx.</text><text x="1441.26px" y="320.164px" style="font-family:'ArialMT', 'Arial', sans-serif;font-size:54.167px;">neuron</text><g transform="matrix(54.1667,0,0,54.1667,1573.74,385.164)"></g><text x="1441.26px" y="385.164px" style="font-family:'ArialMT', 'Arial', sans-serif;font-size:54.167px;">count</text></g><path d="M750.707,1123.94c0,6.375 -5.167,11.541 -11.542,11.541c-6.375,0 -11.545,-5.166 -11.545,-11.541c-0,-6.375 5.17,-11.542 11.545,-11.542c6.375,0 11.542,5.167 11.542,11.542" style="fill:#b03030;fill-rule:nonzero;"/><path d="M1596.46,1102.11c-0,6.375 -5.167,11.541 -11.542,11.541c-6.375,0 -11.546,-5.166 -11.546,-11.541c0,-6.375 5.171,-11.542 11.546,-11.542c6.375,-0 11.542,5.167 11.542,11.542" style="fill:#b03030;fill-rule:nonzero;"/><path d="M2410.14,1102.11c-0,6.375 -5.167,11.541 -11.542,11.541c-6.375,0 -11.546,-5.166 -11.546,-11.541c0,-6.375 5.171,-11.542 11.546,-11.542c6.375,-0 11.542,5.167 11.542,11.542" style="fill:#b03030;fill-rule:nonzero;"/><path d="M3360.91,1018.95c-0,6.375 -5.167,11.542 -11.542,11.542c-6.375,-0 -11.546,-5.167 -11.546,-11.542c0,-6.375 5.171,-11.542 11.546,-11.542c6.375,0 11.542,5.167 11.542,11.542" style="fill:#b03030;fill-rule:nonzero;"/><path d="M1584.92,1109.36l-0,248.696" style="fill:none;fill-rule:nonzero;stroke:#b03030;stroke-width:4.17px;"/><path d="M2398.59,1109.36l-0,248.696" style="fill:none;fill-rule:nonzero;stroke:#b03030;stroke-width:4.17px;"/><path d="M3349.36,1030.49l-0,327.562" style="fill:none;fill-rule:nonzero;stroke:#b03030;stroke-width:4.17px;"/></g></g></g><g><g opacity="0.42"><path d="M1846.78,952.334c-18.083,31.334 -76.417,31.417 -130.333,0.292c-53.917,-31.125 -82.959,-81.667 -64.917,-113c18.083,-31.25 76.417,-31.375 130.333,-0.25c53.917,31.167 82.959,81.708 64.917,112.958" style="fill:#fff;fill-rule:nonzero;"/></g><path d="M1785.53,991.209c-0,34.542 -28,62.542 -62.542,62.542c-34.541,-0 -62.541,-28 -62.541,-62.542c-0,-34.542 28,-62.542 62.541,-62.542c34.542,0 62.542,28 62.542,62.542" style="fill:#f3cf6f;fill-rule:nonzero;"/><path d="M1720.03,873.251c0.209,-1.666 -0.25,-3.333 -1.208,-4.666c-0.958,-1.334 -2.458,-2.292 -4.083,-2.542c-0.75,-0.167 -1.584,-0.167 -2.125,0.375c-0.542,0.458 -0.667,1.25 -0.5,1.917c0.166,0.666 0.583,1.291 1,1.875c1.291,1.666 2.791,3.208 4.458,4.541c0.75,-0.291 1.458,-0.625 2.25,-0.875c0.208,-0.083 0.417,-0.166 0.5,-0.375c0.083,-0.208 -0.125,-0.375 -0.292,-0.25" style="fill:#858888;fill-rule:nonzero;"/><path d="M1720.03,873.251c0.209,-1.666 -0.25,-3.333 -1.208,-4.666c-0.958,-1.334 -2.458,-2.292 -4.083,-2.542c-0.75,-0.167 -1.584,-0.167 -2.125,0.375c-0.542,0.458 -0.667,1.25 -0.5,1.917c0.166,0.666 0.583,1.291 1,1.875c1.291,1.666 2.791,3.208 4.458,4.541c0.75,-0.291 1.458,-0.625 2.25,-0.875c0.208,-0.083 0.417,-0.166 0.5,-0.375c0.083,-0.208 -0.125,-0.375 -0.292,-0.25Z" style="fill:none;fill-rule:nonzero;stroke:#acacac;stroke-width:4.08px;"/><path d="M1722.57,867.793c-1.084,1.25 -1.542,3.083 -1.25,4.708c0.125,0.875 0.541,1.792 1.375,2.042c1,0.458 2.125,-0.334 2.833,-1.125c1.208,-1.334 2.042,-3.042 2.375,-4.834c0.083,-0.541 0.125,-1.083 -0,-1.625c-0.667,-2.791 -4.292,-0.5 -5.333,0.834" style="fill:#858888;fill-rule:nonzero;"/><path d="M1722.57,867.793c-1.084,1.25 -1.542,3.083 -1.25,4.708c0.125,0.875 0.541,1.792 1.375,2.042c1,0.458 2.125,-0.334 2.833,-1.125c1.208,-1.334 2.042,-3.042 2.375,-4.834c0.083,-0.541 0.125,-1.083 -0,-1.625c-0.667,-2.791 -4.292,-0.5 -5.333,0.834Z" style="fill:none;fill-rule:nonzero;stroke:#acacac;stroke-width:4.08px;"/><path d="M1721.32,872.501c-6.125,-0.125 -20.459,8.416 -21.167,12.416c-0.667,4 -4.042,10.75 4.125,17.042c9.792,7.542 30.042,7.5 35.708,-2.75c1.917,-3.5 3.375,-14.875 -2.541,-19c-5.625,-4 -11.209,-7.583 -16.125,-7.708" style="fill:#858888;fill-rule:nonzero;"/><path d="M1721.32,872.501c-6.125,-0.125 -20.459,8.416 -21.167,12.416c-0.667,4 -4.042,10.75 4.125,17.042c9.792,7.542 30.042,7.5 35.708,-2.75c1.917,-3.5 3.375,-14.875 -2.541,-19c-5.625,-4 -11.209,-7.583 -16.125,-7.708Z" style="fill:none;fill-rule:nonzero;stroke:#acacac;stroke-width:4.08px;"/><path d="M1705.03,946.126c-2.917,3.708 -5.542,7.625 -7.875,11.667c-0.917,1.583 -1.792,3.208 -2.083,5c-0.417,2.541 0.375,5.291 -0.334,7.791c-0.833,2.792 -3.375,4.667 -5.791,6.25c-2.417,1.625 -5.042,3.25 -6.209,5.917c-1,2.25 -0.833,4.792 -0.5,7.25c0.834,6.625 2.292,13.125 4.417,19.417c-5.625,12 -12.042,24.208 -22.25,32.583c-0.875,0.708 -1.833,1.417 -2.25,2.458c-0.458,1.042 -0.208,2.5 0.833,2.917c1.125,0.458 2.375,-0.417 3.209,-1.333c6.583,-6.75 11.375,-15.042 16.041,-23.209c1.917,-3.291 3.792,-6.625 5.709,-9.916c0.75,-1.375 1.541,-2.75 1.708,-4.292c0.125,-1.542 -0.375,-3.042 -0.875,-4.458c-0.792,-2.375 -1.625,-4.75 -2.417,-7.125c-0.791,-2.292 -1.583,-4.667 -1.416,-7.084c0.125,-2.375 1.5,-4.875 3.791,-5.625c4.542,-1.541 7.75,-5.625 11.084,-9.083c1.625,-1.625 3.166,-3.458 4.291,-5.5c1.834,-3.417 2.334,-7.333 2.792,-11.125c0.542,-4.375 -0.167,-8.458 -1.875,-12.5" style="fill-rule:nonzero;"/><path d="M1752.32,977.126c2,1.417 4.083,2.917 5.333,5c2.417,4 1.584,9.083 0.125,13.5c-1.458,4.333 -3.5,8.75 -3.208,13.375c0.25,4.542 2.708,8.667 5.167,12.458c3.791,5.834 7.75,11.584 11.916,17.125c1.917,2.584 4.25,5.375 7.459,5.667c0.458,1.75 -1.792,3.167 -3.542,2.792c-1.75,-0.417 -3,-1.959 -4.083,-3.417c-5.584,-7.417 -10.834,-15.083 -15.667,-23c-2.708,-4.375 -5.375,-9.167 -5.083,-14.25c0.333,-5.75 4.333,-11.125 3.25,-16.75c-0.667,-3.375 -3.084,-6.125 -5.792,-8.208c-2.75,-2.042 -5.833,-3.584 -8.583,-5.584c-2.792,-2 -5.334,-4.583 -6.25,-7.916c-0.917,-3.292 0.25,-7.292 3.291,-8.875c4.5,-2.292 8.709,1.708 9,6.125c0.167,2.333 -0.166,4.375 1,6.541c1.292,2.334 3.584,3.875 5.667,5.417" style="fill-rule:nonzero;"/><path d="M1748.9,950.084c3.5,-0.625 6.917,-2.291 8.917,-5.208c1.791,-2.708 2.166,-6.125 2.458,-9.417l1.458,-16.5c0.209,-2.416 0.459,-4.916 1.75,-6.958c1.167,-1.875 3.084,-3.083 4.959,-4.292c8.958,-5.75 17.958,-11.416 26.916,-17.166c-0.583,-1.834 1,-4 2.917,-4.042c1.917,-0.042 3.542,2.083 3,3.958l-24.708,14.959c-4,2.458 -8.167,5.041 -10.375,9.166c-2.334,4.334 -2.084,9.542 -1.125,14.334c0.958,4.791 2.583,9.5 2.75,14.333c0.208,4.875 -1.334,10.208 -5.375,13c-3.959,2.708 -9.292,2.333 -14.042,1.375c-1.958,-0.417 -17.292,-3.083 -14.125,-7.042c1,-1.208 4.208,-0.625 5.542,-0.5c3.041,0.167 6.041,0.459 9.083,0" style="fill-rule:nonzero;"/><path d="M1688.7,945.001c-4.5,-1.917 -8.625,-5.208 -10.459,-9.792c-2.416,-5.916 -0.666,-12.875 -3.083,-18.75c-2.375,-5.708 -8.042,-9.125 -13.375,-12.208c-6.208,-3.542 -12.417,-7.125 -18.667,-10.708c-0.75,-0.459 -1.5,-0.875 -2,-1.542c-0.541,-0.667 -0.75,-1.667 -0.333,-2.375c0.417,-0.75 1.417,-1.083 2.25,-0.917c0.875,0.084 1.625,0.542 2.375,1c6.75,4 13.458,8.042 20.208,12.042c3.334,1.958 6.709,4 9.084,7.083c3.5,4.584 4.166,10.709 6.666,15.917c2.417,5.125 6.709,9.333 11.834,11.667c2.708,1.208 5.666,2 7.916,3.875c1.792,1.541 4.375,7.166 0.792,7.916c-1.75,0.334 -4.75,-0.75 -6.5,-1.125c-2.292,-0.5 -4.542,-1.125 -6.708,-2.083" style="fill-rule:nonzero;"/><path d="M1694.9,898.084c-0.917,-4.125 -0.75,-8.375 -1.5,-12.583c-1.125,-6.167 -4.125,-11.75 -7.125,-17.25c-2.417,-4.417 -4.833,-8.875 -7.208,-13.292c-0.5,-0.875 -1.209,-1.875 -2.209,-1.833c-0.916,0.083 -1.541,1.125 -1.416,2.083c0.083,0.959 0.666,1.75 1.208,2.5c5.75,7.792 11.875,15.75 13.958,25.25c1.167,5.292 1,10.917 2,16.25c0.959,5.417 3.459,10.959 8.292,13.584c1.042,0.583 2.458,0.958 3.375,0.125c2.917,-2.5 -2.583,-4.959 -4.042,-5.917c-2.958,-2 -4.583,-5.542 -5.333,-8.917" style="fill-rule:nonzero;"/><path d="M1746.74,892.626c0.375,-2.708 0.25,-5.458 0.542,-8.208c0.75,-5.917 3.667,-11.375 6.5,-16.625c2.417,-4.459 4.833,-8.917 7.25,-13.334c0.417,-0.791 0.833,-1.541 1.583,-1.958c0.875,-0.542 2.125,-0.333 2.834,0.375c0.708,0.75 0.791,2 0.25,2.833c-2.209,0.834 -3.75,2.834 -4.75,4.959c-1,2.083 -1.625,4.375 -2.75,6.458c-1.375,2.5 -3.417,4.542 -4.875,7c-2.25,3.917 -2.834,8.5 -3.042,12.958c-0.208,4.5 -0.083,9 -1.042,13.375c-1,4.375 -3.375,8.667 -7.291,10.875c-1.125,0.625 -2.584,1 -3.625,0.167c-2.334,-1.833 -0,-4.625 1.458,-5.958c2.375,-2.125 4.292,-4.792 5.5,-7.75c0.708,-1.667 1.208,-3.375 1.458,-5.167" style="fill-rule:nonzero;"/><path d="M1704.9,944.459c-1.208,6.333 -4.708,11.958 -6.958,18c-5.917,16.042 -2.667,34.208 4.333,49.792c1.709,3.791 3.709,7.583 6.667,10.541c3,2.959 7.125,4.917 11.292,4.5c4.833,-0.458 8.75,-4.041 11.791,-7.791c5.542,-6.792 9.375,-14.834 11.959,-23.167c2.166,-7 3.5,-14.208 3.958,-21.458c0.375,-5.209 0.208,-10.667 -2.375,-15.209c-1.917,-3.333 -4.958,-5.833 -7.083,-9.083c-3,-4.5 -4,-10.333 -2.625,-15.583c0.833,-3.334 2.541,-6.792 1.291,-9.959c-1.541,-3.75 -6.291,-4.791 -10.333,-4.916c-4.167,-0.125 -8.333,0.208 -12.458,0.875c-3.459,0.583 -9.334,1.166 -12.25,3.333c-1.75,1.25 -0.417,2.125 0.458,3.875c0.833,1.708 1.5,3.458 1.958,5.25c0.875,3.625 1.042,7.375 0.375,11" style="fill:#acacac;fill-rule:nonzero;"/><path d="M1723.61,933.584c2.917,-0.333 5.917,-0.666 8.75,1.417c2.792,2.083 5.375,7.125 6,13.917c0.334,3.708 -0.041,8.125 -1.375,10.25c-0.666,1.125 -1.541,1.5 -2.375,1.5c-2.708,0.083 -5.291,-3.334 -8.041,-2.792c-1.5,0.25 -2.875,1.75 -4.334,2.917c-5.083,4.291 -10.708,4.75 -15.916,1.375c-1.5,-0.959 -3,-2.334 -3.917,-5.25c-0.917,-3.042 -0.958,-7.25 -0.5,-10.875c0.417,-3.167 1.167,-6.584 2.083,-9.209c0.75,-2.166 2.834,-1.375 4,-1.5l10.084,-1.166c1.875,-0.167 3.708,-0.417 5.541,-0.584" style="fill:#6b6b6b;fill-rule:nonzero;"/><path d="M1723.61,933.584c2.917,-0.333 5.917,-0.666 8.75,1.417c2.792,2.083 5.375,7.125 6,13.917c0.334,3.708 -0.041,8.125 -1.375,10.25c-0.666,1.125 -1.541,1.5 -2.375,1.5c-2.708,0.083 -5.291,-3.334 -8.041,-2.792c-1.5,0.25 -2.875,1.75 -4.334,2.917c-5.083,4.291 -10.708,4.75 -15.916,1.375c-1.5,-0.959 -3,-2.334 -3.917,-5.25c-0.917,-3.042 -0.958,-7.25 -0.5,-10.875c0.417,-3.167 1.167,-6.584 2.083,-9.209c0.75,-2.166 2.834,-1.375 4,-1.5l10.084,-1.166c1.875,-0.167 3.708,-0.417 5.541,-0.584Z" style="fill:none;fill-rule:nonzero;stroke:#acacac;stroke-width:5.22px;"/><path d="M1621.07,957.209c-5.042,3.167 -10.083,6.542 -14.208,10.834c-4.125,4.375 -7.334,9.791 -8.084,15.708c-1.166,9.083 3.75,18.25 11.167,23.625c7.375,5.333 25.917,3.875 35.042,3.417c9.125,-0.542 14.166,-1.959 17.5,-3.084c12.041,-4.333 24.166,-10.041 32,-20.208c7.375,-9.583 9.875,-22.125 10.208,-34.208c0.083,-3.125 0.042,-6.25 -0.208,-9.334c-0.459,-6.166 2.875,-15.375 -1.209,-20.333c-3.875,-4.75 -15.5,0.875 -20.041,2.583c-13.959,5.292 -27.584,11.459 -40.75,18.5c-7.292,3.875 -14.417,8.084 -21.417,12.5" style="fill:#f8eab1;fill-rule:nonzero;"/><path d="M1739.74,971.959c3.917,12.042 13.584,21.584 24.625,27.792c11.084,6.167 23.542,9.333 35.959,11.917c5.083,1.041 10.208,1.958 15.416,1.916c5.167,-0.083 10.417,-1.291 14.709,-4.208c7.708,-5.25 10.916,-15.708 9.166,-24.917c-1.708,-9.208 -7.625,-17.166 -14.833,-23.125c-7.208,-6 -15.708,-10.208 -24.083,-14.333c-9.834,-4.958 -19.709,-9.833 -29.584,-14.708c-9.666,-4.792 -21.083,-9.709 -31.833,-10.334c-1.708,4.334 -2.25,8.709 -3.75,13.167c-1.208,3.667 -0,6.042 0.458,9.75c1.209,9.042 0.875,18.292 3.75,27.083" style="fill:#f8eab1;fill-rule:nonzero;"/><path d="M1714.95,879.792c0.625,0.584 1.125,1.459 1.541,2.584c1.334,3.541 0.917,7.666 -1.125,10.833c-2,3.167 -5.625,5.083 -9.333,5.542c-5.667,0.75 -7.083,-3.334 -7.292,-4.5c-0.541,-3.584 0.334,-8.292 2.584,-11.209c1.958,-2.5 5.875,-3.875 9.083,-4.416c2.042,-0.334 3.458,0.041 4.542,1.166" style="fill:#9a0e0e;fill-rule:nonzero;"/><path d="M1737.45,880.209c2.833,1.667 3.791,3.042 4.958,8.042c0.458,2.208 0.167,7.208 -0.875,9.208c-1.042,2 -3.583,2.917 -5.833,2.584c-2.25,-0.334 -4.25,-1.667 -6,-3.125c-1.667,-1.375 -3.209,-2.959 -4.209,-4.875c-1.75,-3.292 -1.958,-8.917 0.75,-11.834c2.625,-2.916 8.459,-1.666 11.209,0" style="fill:#9a0e0e;fill-rule:nonzero;"/><path d="M1705.28,902.46c-3.583,3.541 -5,8.791 -4.917,13.833c0.084,5.042 1.542,9.958 2.959,14.792c0.791,2.583 1.625,5.291 3.5,7.208c2.916,3.042 7.583,3.5 11.833,3.667c3.917,0.25 8.042,0.375 11.5,-1.459c2.75,-1.416 4.792,-3.958 6.083,-6.75c1.334,-2.791 2,-5.833 2.542,-8.875c0.708,-3.958 1.292,-8.041 0.75,-12.041c-0.5,-4 -2.167,-7.959 -5.25,-10.584c-2.167,-1.875 -4.958,-2.916 -7.792,-3.5c-3.75,-0.708 -7.291,-0.333 -11,-0.333c-3.791,0 -7.5,1.333 -10.208,4.042" style="fill:#464747;fill-rule:nonzero;"/><path d="M1705.28,902.46c-3.583,3.541 -5,8.791 -4.917,13.833c0.084,5.042 1.542,9.958 2.959,14.792c0.791,2.583 1.625,5.291 3.5,7.208c2.916,3.042 7.583,3.5 11.833,3.667c3.917,0.25 8.042,0.375 11.5,-1.459c2.75,-1.416 4.792,-3.958 6.083,-6.75c1.334,-2.791 2,-5.833 2.542,-8.875c0.708,-3.958 1.292,-8.041 0.75,-12.041c-0.5,-4 -2.167,-7.959 -5.25,-10.584c-2.167,-1.875 -4.958,-2.916 -7.792,-3.5c-3.75,-0.708 -7.291,-0.333 -11,-0.333c-3.791,0 -7.5,1.333 -10.208,4.042Z" style="fill:none;fill-rule:nonzero;stroke:#acacac;stroke-width:4.08px;"/><path d="M1710.07,935.96c-7.584,5.666 -1.334,11.416 2.958,12.458c3.333,0.75 10.208,0.833 13.542,0c4,-1.042 11.916,-7.458 2.458,-13.125c-4.167,-2.5 -14.25,-2.917 -18.958,0.667" style="fill:#585959;fill-rule:nonzero;"/><path d="M1710.07,935.96c-7.584,5.666 -1.334,11.416 2.958,12.458c3.333,0.75 10.208,0.833 13.542,0c4,-1.042 11.916,-7.458 2.458,-13.125c-4.167,-2.5 -14.25,-2.917 -18.958,0.667Z" style="fill:none;fill-rule:nonzero;stroke:#acacac;stroke-width:4.58px;"/><path d="M1617.03,1010.67c4.667,-8.417 10.583,-16.042 17,-23.167c11.958,-13.292 25.625,-24.792 39.25,-36.333c8.75,-7.417 15.917,-18.542 28.125,-26.917c-12.917,15.917 -38.708,28.375 -55.875,39.583c-16,10.417 -29.875,24.084 -40.5,40" style="fill:none;fill-rule:nonzero;stroke:#a2a2a2;stroke-width:3.06px;"/><path d="M1665.99,1006.38c1.292,-11.417 6.584,-22.708 11.459,-32.875c2.166,-4.5 4.333,-8.958 6.583,-13.375c5.083,-10.042 11.583,-26.208 17.375,-35.875c-0.708,7.125 -2.75,14.708 -3.875,17.875c-1.5,4.125 -9.25,45.25 -11.583,53.708" style="fill:none;fill-rule:nonzero;stroke:#a2a2a2;stroke-width:3.06px;"/><path d="M1598.78,983.751c5.583,-10 11.667,-26.333 36.917,-22.75" style="fill:none;fill-rule:nonzero;stroke:#a2a2a2;stroke-width:3.06px;"/><path d="M1632.45,952.751c5.416,-0 7.625,2.916 13.041,2.958" style="fill:none;fill-rule:nonzero;stroke:#a2a2a2;stroke-width:3.06px;"/><path d="M1649.65,942.21c1.792,1.791 5.667,5.333 7.458,7.166" style="fill:none;fill-rule:nonzero;stroke:#a2a2a2;stroke-width:3.06px;"/><path d="M1661.15,935.418c1.209,0.916 6.5,6.75 7.667,7.625" style="fill:none;fill-rule:nonzero;stroke:#a2a2a2;stroke-width:3.06px;"/><path d="M1674.24,930.001c0.959,1.5 7.75,5.541 7.667,5.416" style="fill:none;fill-rule:nonzero;stroke:#a2a2a2;stroke-width:3.06px;"/><path d="M1637.36,1011.33c-2.416,-2.708 3.834,-19.083 17.5,-36.542c2.209,-2.875 39.292,-44.166 46.542,-50.541" style="fill:none;fill-rule:nonzero;stroke:#a2a2a2;stroke-width:3.06px;"/><path d="M1617.03,1010.67c3.333,2.625 13.125,-7.125 16.417,-9.834c6.708,-5.541 9.5,-14.791 13.75,-15.25" style="fill:none;fill-rule:nonzero;stroke:#a2a2a2;stroke-width:3.06px;"/><path d="M1612.24,994.001c2.625,1.208 5.416,10 8.041,11.25" style="fill:none;fill-rule:nonzero;stroke:#a2a2a2;stroke-width:3.06px;"/><path d="M1629.49,978.876c2.625,1.166 5.25,2.416 7.875,3.583" style="fill:none;fill-rule:nonzero;stroke:#a2a2a2;stroke-width:3.06px;"/><path d="M1601.78,986.751c2.625,1.167 5.25,2.375 7.875,3.542" style="fill:none;fill-rule:nonzero;stroke:#a2a2a2;stroke-width:3.06px;"/><path d="M1621.32,971.959c2.625,1.167 5.25,2.417 7.875,3.584" style="fill:none;fill-rule:nonzero;stroke:#a2a2a2;stroke-width:3.06px;"/><path d="M1598.78,983.751c8.125,-4.541 22.458,-13.666 30.542,-18.208c8.125,-4.542 63.958,-36.708 72.083,-41.292c-0,0 -47.083,62.459 -51.75,86.125" style="fill:none;fill-rule:nonzero;stroke:#a2a2a2;stroke-width:3.06px;"/><path d="M1765.7,929.626c-1.167,2.125 -7.625,4.292 -13.917,3.584c-5.083,-0.625 -10.042,-2.459 -13.708,-4.75" style="fill:none;fill-rule:nonzero;stroke:#a2a2a2;stroke-width:3.06px;"/><path d="M1777.07,935.835c-2.209,2.666 -4.917,5.625 -8.417,5.625c-1.917,-0 -3.75,-0.917 -5.167,-2.209c-1.458,-1.291 -24.333,-9.25 -25.416,-10.791" style="fill:none;fill-rule:nonzero;stroke:#a2a2a2;stroke-width:3.06px;"/><path d="M1777.07,935.835c2.75,5.416 6.125,8 10.083,9.75c0.917,0.416 2.083,0.166 2.792,0.875c6.25,6.291 19.708,19.458 41.458,21.458" style="fill:none;fill-rule:nonzero;stroke:#a2a2a2;stroke-width:3.06px;"/><path d="M1771.11,941.793c7.667,4.791 15.292,9.625 22.959,14.416c16.583,10.375 30.875,18.625 45.125,32.084" style="fill:none;fill-rule:nonzero;stroke:#a2a2a2;stroke-width:3.06px;"/><path d="M1762.2,942.918c10.875,7.125 21.75,14.291 32.625,21.375c8.042,5.291 16.125,10.583 23.083,17.25c3.334,3.166 17,17.041 18.459,21.5" style="fill:none;fill-rule:nonzero;stroke:#a2a2a2;stroke-width:3.06px;"/><path d="M1738.07,928.917c5.875,2.834 66,72.917 70.625,77.5c9.5,9.375 19.666,0.292 15.458,-10.583c-0.583,-1.458 -85.292,-64.542 -84.417,-65.833" style="fill:none;fill-rule:nonzero;stroke:#a2a2a2;stroke-width:3.06px;"/><path d="M1738.07,928.46c4.583,7.916 13.916,17.833 21.041,23.541c17.792,14.334 30.167,34.792 35.292,57.125" style="fill:none;fill-rule:nonzero;stroke:#a2a2a2;stroke-width:3.06px;"/><path d="M1746.74,942.501c12.084,19.625 22.625,41.166 29.667,63.083" style="fill:none;fill-rule:nonzero;stroke:#a2a2a2;stroke-width:3.06px;"/><path d="M1737.61,930.001c13.834,19.375 14.667,36.125 14,50.666" style="fill:none;fill-rule:nonzero;stroke:#a2a2a2;stroke-width:3.06px;"/><path d="M1737.2,931.376c4.958,7.333 9.5,20.5 8.25,29.25" style="fill:none;fill-rule:nonzero;stroke:#a2a2a2;stroke-width:3.06px;"/><path d="M1699.74,1005.38c4.625,10.5 23.041,2.083 33.333,4.042c9.583,1 10.667,-15.167 6.375,-14.667c-8.125,-0.5 -49.458,-11.417 -39.708,10.625" style="fill:#585959;fill-rule:nonzero;"/><path d="M1699.74,1005.38c4.625,10.5 23.041,2.083 33.333,4.042c9.583,1 10.667,-15.167 6.375,-14.667c-8.125,-0.5 -49.458,-11.417 -39.708,10.625Z" style="fill:none;fill-rule:nonzero;stroke:#acacac;stroke-width:4.08px;"/><path d="M1706.9,1015.21c0.792,1.542 2,3 3.583,3.708c1.5,0.667 3.167,0.709 4.834,0.709c3.166,0.041 6.333,0.041 9.541,0.083c1.625,-0 3.375,-0 4.875,-0.667c2.625,-1.083 4.084,-3.791 5.375,-6.291c0.334,-0.709 0.709,-1.5 0.5,-2.25c-0.25,-0.792 -1.041,-1.292 -1.833,-1.542c-2.083,-0.875 -4.333,-1.042 -6.542,-1.208c-4.916,-0.334 -9.833,-0.375 -14.75,-0.125c-1.416,0.083 -2.833,0.166 -4.166,0.625c-1.125,0.333 -2.917,1.083 -2.959,2.458c0,1.375 0.917,3.292 1.542,4.5" style="fill:#585959;fill-rule:nonzero;"/><path d="M1706.9,1015.21c0.792,1.542 2,3 3.583,3.708c1.5,0.667 3.167,0.709 4.834,0.709c3.166,0.041 6.333,0.041 9.541,0.083c1.625,-0 3.375,-0 4.875,-0.667c2.625,-1.083 4.084,-3.791 5.375,-6.291c0.334,-0.709 0.709,-1.5 0.5,-2.25c-0.25,-0.792 -1.041,-1.292 -1.833,-1.542c-2.083,-0.875 -4.333,-1.042 -6.542,-1.208c-4.916,-0.334 -9.833,-0.375 -14.75,-0.125c-1.416,0.083 -2.833,0.166 -4.166,0.625c-1.125,0.333 -2.917,1.083 -2.959,2.458c0,1.375 0.917,3.292 1.542,4.5Z" style="fill:none;fill-rule:nonzero;stroke:#acacac;stroke-width:4.08px;"/><path d="M1717.07,1025.5c2.875,0.959 6.208,0.292 8.583,-1.625c1.125,-0.958 2.125,-2.5 1.583,-3.875c-0.416,-1.083 -1.625,-1.666 -2.708,-2.041c-3,-0.959 -6.292,-1.042 -9.375,-0.25c-0.792,0.208 -3.792,0.875 -4.083,1.708c-0.334,0.917 1.458,3 2,3.583c1.125,1.167 2.5,2.042 4,2.5" style="fill:#585959;fill-rule:nonzero;"/><path d="M1717.07,1025.5c2.875,0.959 6.208,0.292 8.583,-1.625c1.125,-0.958 2.125,-2.5 1.583,-3.875c-0.416,-1.083 -1.625,-1.666 -2.708,-2.041c-3,-0.959 -6.292,-1.042 -9.375,-0.25c-0.792,0.208 -3.792,0.875 -4.083,1.708c-0.334,0.917 1.458,3 2,3.583c1.125,1.167 2.5,2.042 4,2.5Z" style="fill:none;fill-rule:nonzero;stroke:#acacac;stroke-width:4.08px;"/><path d="M1695.57,991.959c0.417,4.542 5.625,5.792 6.958,5.834c10.625,0.583 21.375,1.208 31.917,-0.417c2.875,-0.417 10.25,-1.667 10.875,-6.542c1.042,-8.166 -4.292,-6.833 -6.458,-7.166c-6.667,-1.125 -13.417,-1.584 -20.167,-1.375c-6.833,0.166 -13.625,1.041 -20.292,2.541c-1.291,0.292 -3.375,1.875 -2.833,7.125" style="fill:#585959;fill-rule:nonzero;"/><path d="M1695.57,991.959c0.417,4.542 5.625,5.792 6.958,5.834c10.625,0.583 21.375,1.208 31.917,-0.417c2.875,-0.417 10.25,-1.667 10.875,-6.542c1.042,-8.166 -4.292,-6.833 -6.458,-7.166c-6.667,-1.125 -13.417,-1.584 -20.167,-1.375c-6.833,0.166 -13.625,1.041 -20.292,2.541c-1.291,0.292 -3.375,1.875 -2.833,7.125Z" style="fill:none;fill-rule:nonzero;stroke:#acacac;stroke-width:4.08px;"/><path d="M1737.24,956.668c3.666,1.333 7.208,3.958 8.041,7.792c0.459,2.083 -0.041,4.541 -1.833,5.75c-4.958,3.25 -21.625,7.041 -40.917,1.625c-8.5,-2.375 -6.5,-7 -5.875,-9c2.042,-6.875 17.334,-8.167 21.834,-8.334c2.458,-0.166 13.541,0.209 18.75,2.167" style="fill:#585959;fill-rule:nonzero;"/><path d="M1737.24,956.668c3.666,1.333 7.208,3.958 8.041,7.792c0.459,2.083 -0.041,4.541 -1.833,5.75c-4.958,3.25 -21.625,7.041 -40.917,1.625c-8.5,-2.375 -6.5,-7 -5.875,-9c2.042,-6.875 17.334,-8.167 21.834,-8.334c2.458,-0.166 13.541,0.209 18.75,2.167Z" style="fill:none;fill-rule:nonzero;stroke:#acacac;stroke-width:4.08px;"/><path d="M1742.61,970.001c2.459,1.75 3.792,3.75 3.792,7.958c-0,5.417 -3.458,6.542 -4.958,6.5l-10.125,0c-10.75,0 -21.542,-0.708 -32.25,-0.125c-3.084,0.125 -3.917,-3.333 -4.209,-4.75c-1.541,-8 2.209,-10.166 4.042,-10.833c1.042,-0.417 6.667,-2.625 22.875,-2.625c9.917,-0 18.833,2.458 20.833,3.875" style="fill:#585959;fill-rule:nonzero;"/><path d="M1742.61,970.001c2.459,1.75 3.792,3.75 3.792,7.958c-0,5.417 -3.458,6.542 -4.958,6.5l-10.125,0c-10.75,0 -21.542,-0.708 -32.25,-0.125c-3.084,0.125 -3.917,-3.333 -4.209,-4.75c-1.541,-8 2.209,-10.166 4.042,-10.833c1.042,-0.417 6.667,-2.625 22.875,-2.625c9.917,-0 18.833,2.458 20.833,3.875Z" style="fill:none;fill-rule:nonzero;stroke:#acacac;stroke-width:4.08px;"/><path d="M1702.7,972.792c-1.167,3.167 -1.584,6.709 -1.084,10.125c-0.666,-3.375 -0.5,-7 0.584,-10.291l0.5,0.166Z" style="fill:#a2a2a2;fill-rule:nonzero;"/><path d="M1714.65,974.043l-0,6.833l-0.542,-6.833l0.542,-0Z" style="fill:#a2a2a2;fill-rule:nonzero;"/><path d="M1732.24,971.584c1.584,4.208 2.625,8.708 2.959,13.208c-0.542,-4.5 -1.709,-8.916 -3.5,-13.041l0.541,-0.167Z" style="fill:#a2a2a2;fill-rule:nonzero;"/><path d="M1726.78,979.168l-0.625,11.416l0.042,-11.416l0.583,-0Z" style="fill:#a2a2a2;fill-rule:nonzero;"/><path d="M1705.95,991.334c-0.875,3.792 -0.208,8.042 1.917,11.375c-2.292,-3.25 -3.209,-7.458 -2.459,-11.5l0.542,0.125Z" style="fill:#a2a2a2;fill-rule:nonzero;"/><path d="M1719.03,993.793l-0.417,9.083l-0.166,-9.083l0.583,-0Z" style="fill:#a2a2a2;fill-rule:nonzero;"/><path d="M1733.2,992.626l-0,12.625l-0.584,-12.625l0.584,-0Z" style="fill:#a2a2a2;fill-rule:nonzero;"/><path d="M1743.28,990.251c4.625,1.333 3.875,7.291 2.917,10.958c0.708,-3.5 1.375,-9.25 -3.042,-10.417l0.125,-0.541Z" style="fill:#a2a2a2;fill-rule:nonzero;"/><path d="M1698.65,990.459c-3.291,2.208 -2.916,6.542 -3.291,10.042c-0.125,1.291 -0.334,2.5 -0.625,3.75c0.25,-1.25 0.416,-2.5 0.458,-3.75c0.292,-3.709 -0.25,-8.167 3.25,-10.584l0.208,0.542Z" style="fill:#a2a2a2;fill-rule:nonzero;"/><path d="M1730.03,1012.71c0.917,3.459 1.125,7.084 0.625,10.625c0.292,-3.583 -0.083,-7.125 -1.167,-10.5l0.542,-0.125Z" style="fill:#a2a2a2;fill-rule:nonzero;"/><path d="M1721.49,1011.75c-0.708,4.875 -0.5,9.875 0.625,14.667c-1.291,-4.75 -1.708,-9.792 -1.208,-14.709l0.583,0.042Z" style="fill:#a2a2a2;fill-rule:nonzero;"/><path d="M1711.86,1011.75c-1.375,4.75 -1.958,9.667 -1.75,14.667c-0.375,-4.959 0,-10 1.209,-14.834l0.541,0.167Z" style="fill:#a2a2a2;fill-rule:nonzero;"/><path d="M1716.24,1030.46c-0.958,-3.083 -1.291,-6.333 -1,-9.583l0.542,0.083c-0.458,3.167 -0.292,6.375 0.458,9.5c0,0 -0.75,-3.125 0,0" style="fill:#a2a2a2;fill-rule:nonzero;"/><path d="M1709.32,959.959c-0.5,3.417 -0.375,6.958 0.416,10.375c-0.958,-3.375 -1.291,-6.958 -0.958,-10.5l0.542,0.125Z" style="fill:#a2a2a2;fill-rule:nonzero;"/><path d="M1732.4,958.251c2.708,4.625 4.333,9.917 4.708,15.25c-0.583,-5.292 -2.375,-10.458 -5.208,-15l0.5,-0.25Z" style="fill:#a2a2a2;fill-rule:nonzero;"/><path d="M1722.11,959.584c-0.5,4.334 -0.292,8.792 0.583,13.125c-1.083,-4.291 -1.458,-8.791 -1.167,-13.208l0.584,0.083Z" style="fill:#a2a2a2;fill-rule:nonzero;"/><path d="M1701.24,961.459c-3.042,3.459 -4.209,8.584 -2.875,13.084c-1.5,-4.459 -0.584,-9.709 2.416,-13.459l0.459,0.375Z" style="fill:#a2a2a2;fill-rule:nonzero;"/><path d="M1711.03,904.71c-2.208,3.541 -2.667,8.166 -1.125,12.166c-1.792,-3.875 -1.625,-8.625 0.5,-12.541l0.625,0.375Z" style="fill:#a2a2a2;fill-rule:nonzero;"/><path d="M1716.95,909.71c-1.792,5.625 -0.709,12.125 2.916,17c-3.75,-4.709 -5.083,-11.25 -3.416,-17.125l0.5,0.125Z" style="fill:#a2a2a2;fill-rule:nonzero;"/><path d="M1721.95,905.001c4.208,4.958 6.083,11.666 5.041,18.041c0.875,-6.375 -1.208,-13 -5.458,-17.666l0.417,-0.375Z" style="fill:#a2a2a2;fill-rule:nonzero;"/><path d="M1728.4,905.376c3.708,2.25 6.208,6.292 6.583,10.542c-0.583,-4.209 -3.208,-8.042 -6.833,-10.042l0.25,-0.5Z" style="fill:#a2a2a2;fill-rule:nonzero;"/><path d="M1710.65,924.834c-1.291,6 -0.625,12.375 2,17.917c-2.791,-5.417 -3.708,-11.875 -2.541,-18l0.541,0.083Z" style="fill:#a2a2a2;fill-rule:nonzero;"/><path d="M1725.53,927.46c1.625,4.833 2.292,9.958 1.958,15.041c0.167,-5.083 -0.708,-10.166 -2.5,-14.875l0.542,-0.166Z" style="fill:#a2a2a2;fill-rule:nonzero;"/><path d="M1731.03,926.418c4.667,2.875 7.833,8 8.375,13.375c-0.708,-5.375 -4.042,-10.25 -8.625,-12.917l0.25,-0.458Z" style="fill:#a2a2a2;fill-rule:nonzero;"/><path d="M1704.07,917.876c-2.459,4.458 -3.625,9.625 -3.292,14.75c-0.5,-5.125 0.458,-10.417 2.792,-15l0.5,0.25Z" style="fill:#a2a2a2;fill-rule:nonzero;"/><path d="M1726.32,946.001c1.875,2.458 3.125,5.417 3.583,8.417c-0.625,-2.959 -2.042,-5.75 -4.042,-8.042l0.459,-0.375Z" style="fill:#a2a2a2;fill-rule:nonzero;"/><path d="M1713.24,944.709c-0.375,3.25 -0.334,6.5 0.041,9.75c-0.583,-3.208 -0.791,-6.5 -0.625,-9.791l0.584,0.041Z" style="fill:#a2a2a2;fill-rule:nonzero;"/><path d="M1848.36,950.751c0,-68.042 -55.166,-123.209 -123.208,-123.209c-53.417,0 -98.833,33.959 -115.958,81.459c18.541,-44.584 62.5,-75.917 113.791,-75.917c68.042,-0 123.209,55.125 123.209,123.208c-0,14.667 -2.542,28.709 -7.25,41.75c6.041,-14.583 9.416,-30.541 9.416,-47.291" style="fill:#ceced0;fill-rule:nonzero;"/></g><g><path d="M1771.16,1471.36l-59.462,-295.611c-2.341,-11.733 5.421,-22.88 17.213,-24.723l-25.185,3.942c-11.874,1.887 -19.612,13 -17.213,24.723l59.404,295.621c2.399,11.722 13.991,19.793 25.817,17.975l25.209,-3.976c-11.816,1.877 -23.442,-6.218 -25.783,-17.951" style="fill:#919192;fill-rule:nonzero;"/><path d="M1719.74,1090.28l13.601,67.095l43.4,-9.029l-15.065,-80.452l-41.936,22.386Z" style="fill:#919192;fill-rule:nonzero;"/><path d="M1854.84,1479.83l-63.462,9.988c-11.817,1.876 -23.443,-6.218 -25.783,-17.951l-59.462,-295.611c-2.341,-11.733 5.42,-22.881 17.213,-24.723l63.462,-9.988c11.85,-1.852 23.442,6.219 25.817,17.975l59.428,295.587c2.351,11.791 -5.363,22.87 -17.213,24.723" style="fill:#ababac;fill-rule:nonzero;"/><path d="M1874.21,1454.78l-59.428,-295.586c-2.375,-11.757 -13.967,-19.828 -25.817,-17.975l-8.012,1.225c11.827,-1.819 23.419,6.252 25.817,17.975l59.404,295.621c2.399,11.723 -5.363,22.87 -17.213,24.723l8.036,-1.26c11.85,-1.852 19.587,-12.966 17.213,-24.723" style="fill:#dfdfe1;fill-rule:nonzero;"/><path d="M1654.05,1047.54c-55.84,-38.879 -69.592,-115.674 -30.714,-171.515c38.902,-55.874 115.674,-69.592 171.515,-30.714c55.84,38.878 69.616,115.64 30.714,171.515c-38.879,55.84 -115.674,69.592 -171.515,30.714m155.181,-222.883c-67.228,-46.806 -159.708,-30.215 -206.514,37.012c-46.807,67.227 -30.25,159.684 36.977,206.49c67.227,46.807 159.718,30.274 206.525,-36.953c46.806,-67.228 30.239,-159.742 -36.988,-206.549" style="fill:#ababac;fill-rule:nonzero;"/><path d="M1644.64,1064.85c-67.261,-46.83 -83.818,-139.287 -37.012,-206.514c10.166,-14.601 22.526,-26.812 36.234,-36.51c-15.693,10.144 -29.764,23.499 -41.144,39.844c-46.807,67.227 -30.25,159.684 36.977,206.49c52.626,36.64 120.716,34.444 170.257,-0.468c-49.061,31.743 -114.43,32.584 -165.312,-2.842" style="fill:#ceced0;fill-rule:nonzero;"/><path d="M1654.05,1047.54c-55.84,-38.879 -69.592,-115.674 -30.714,-171.515c38.902,-55.874 115.674,-69.592 171.515,-30.714c55.84,38.878 69.616,115.64 30.714,171.515c-38.879,55.84 -115.674,69.592 -171.515,30.714Zm155.181,-222.883c-67.228,-46.806 -159.708,-30.215 -206.514,37.012c-46.807,67.227 -30.25,159.684 36.977,206.49c67.227,46.807 159.718,30.274 206.525,-36.953c46.806,-67.228 30.239,-159.742 -36.988,-206.549Z" style="fill:none;fill-rule:nonzero;stroke:#f3cf6f;stroke-width:8.33px;"/></g><path d="M2597.64,867.532c-0,73.167 -59.375,132.583 -132.584,132.583c-73.208,0 -132.541,-59.416 -132.541,-132.583c-0,-73.25 59.333,-132.583 132.541,-132.583c73.209,-0 132.584,59.333 132.584,132.583" style="fill:#f3cf6f;fill-rule:nonzero;"/><path d="M2559.22,970.493c-0,0 11.916,20.625 9.583,49.417c-2.333,28.75 -8.125,50.833 -7.875,54.916c0.292,4.042 -5.792,20.917 -1.708,25.292c4.041,4.333 14.208,6.958 13.333,10.458c-0.833,3.459 -15.083,-7.583 -17.708,-7c-2.625,0.584 -6.375,3.792 -7.834,2.917c-1.458,-0.875 6.667,-9.875 3.459,-19.458c-3.167,-9.584 -5.125,-37.5 -24.625,-33.167c-19.459,4.375 -13.417,50 -12.542,50.292c0.875,0.291 10.167,7.875 9.875,10.75c-0.292,2.916 -8.417,-4.042 -11.042,-5.792c-2.625,-1.75 8.417,8.125 6.667,9.292c-1.75,1.166 -9.875,-6.084 -10.75,-7.542c-0.875,-1.458 6.708,11.042 3.5,10.458c-3.208,-0.583 -9.583,-12.208 -9.292,-17.458c0.292,-5.208 -19.5,-38.917 -25,-38.042c-5.541,0.875 -5.5,5.125 -21.75,6.5c-14.666,1.292 -29.125,-10.583 -31.166,-11.166c-2,-0.584 -5.792,2.041 -2.292,6.083c3.458,4.083 10.75,9.333 8.417,13.958c-0.5,1 -7.542,-7.291 -9.167,-6.291c-1.625,0.958 2.208,11.166 0.083,11.875c-0.75,0.208 -4.5,-8.292 -5.291,-8.125c-1.709,0.375 -0.459,9.333 -2.042,9.291c-1.292,0 -1.042,-9.916 -2.083,-10.333c-1.417,-0.542 -3.959,8.25 -4.459,6.792c-2.625,-7.542 4.917,-25.292 2.334,-27.042c-2.625,-1.75 -11.625,-8.708 -12.5,-13.625c-0.875,-4.958 1.458,-72.667 90.083,-75c88.625,-2.333 71.792,1.75 71.792,1.75" style="fill:#ababac;fill-rule:nonzero;"/><path d="M2563.68,954.868c-0,12.292 -5.5,20.125 -18.583,32.333c-7.292,6.792 -17.834,12.542 -25.5,12.542c-9.542,0 -20.125,-5.375 -31.209,-14.083c-11.041,-8.667 -14.625,-12.917 -14.625,-30c0,-26.625 16.834,-40.875 43.459,-40.875c26.625,-0 46.458,13.5 46.458,40.083" style="fill:#bbb;fill-rule:nonzero;"/><path d="M2488.39,926.869c0,10.708 -8.666,19.375 -19.333,19.375c-10.708,-0 -23.708,-4.959 -23.708,-15.667c-0,-10.667 15.5,-27.583 26.208,-27.583c10.667,-0 16.833,13.208 16.833,23.875" style="fill:#bbb;fill-rule:nonzero;"/><path d="M2565.8,940.868c-10.583,1.458 -20.375,-5.917 -21.833,-16.5c-1.5,-10.584 1.625,-24.125 12.208,-25.625c10.584,-1.459 29.459,11.583 30.917,22.166c1.5,10.584 -10.708,18.5 -21.292,19.959" style="fill:#bbb;fill-rule:nonzero;"/><path d="M2565.68,933.493c-6.875,0.958 -13.208,-3.834 -14.167,-10.709c-0.958,-6.875 1.042,-15.666 7.917,-16.625c6.875,-0.958 19.083,7.5 20.042,14.375c0.958,6.834 -6.959,12 -13.792,12.959" style="fill:#ed7569;fill-rule:nonzero;"/><path d="M2565.51,928.66c-4.5,0.625 -8.666,-2.5 -9.291,-7c-0.667,-4.542 0.666,-10.292 5.166,-10.917c4.542,-0.625 12.584,4.917 13.209,9.417c0.625,4.5 -4.584,7.875 -9.084,8.5" style="fill:#f3a5a1;fill-rule:nonzero;"/><path d="M2480.8,925.827c-0,6.917 -5.583,12.542 -12.542,12.542c-6.916,-0 -15.333,-3.209 -15.333,-10.167c-0,-6.917 10.042,-17.875 16.958,-17.875c6.959,-0 10.917,8.542 10.917,15.5" style="fill:#ed7569;fill-rule:nonzero;"/><path d="M2476.26,925.618c-0,4.667 -3.75,8.458 -8.459,8.458c-4.666,0 -10.333,-2.166 -10.333,-6.833c0,-4.667 6.75,-12.083 11.458,-12.083c4.667,-0 7.334,5.75 7.334,10.458" style="fill:#f3a5a1;fill-rule:nonzero;"/><path d="M2499.64,944.701c-1.791,3.416 -5.083,5.25 -7.291,4.041c-2.25,-1.166 -2.625,-4.875 -0.834,-8.291c1.792,-3.417 5.084,-5.209 7.334,-4.042c2.25,1.167 2.583,4.917 0.791,8.292" style="fill-rule:nonzero;"/><path d="M2544.6,939.076c1.666,3.459 1.166,7.167 -1.125,8.25c-2.292,1.125 -5.459,-0.833 -7.125,-4.291c-1.667,-3.459 -1.167,-7.167 1.125,-8.25c2.25,-1.125 5.458,0.791 7.125,4.291" style="fill-rule:nonzero;"/><path d="M2519.6,981.576l-0,9.083" style="fill:none;fill-rule:nonzero;stroke:#000;stroke-width:1.04px;"/><path d="M2524.18,969.701l49.584,-11.084" style="fill:none;fill-rule:nonzero;stroke:#707070;stroke-width:1.04px;"/><path d="M2524.97,972.451l49.083,-7.75" style="fill:none;fill-rule:nonzero;stroke:#707070;stroke-width:1.04px;"/><path d="M2514.01,974.993l-49.208,3.375" style="fill:none;fill-rule:nonzero;stroke:#707070;stroke-width:1.04px;"/><path d="M2513.22,972.201l-48.292,-1.208" style="fill:none;fill-rule:nonzero;stroke:#707070;stroke-width:1.04px;"/><path d="M2514.01,968.868l-45.041,-8.292" style="fill:none;fill-rule:nonzero;stroke:#707070;stroke-width:1.04px;"/><path d="M2410.55,1032.91c-5.917,10.083 2.417,11.375 -41.667,32.291c-38.958,18.459 -54.541,24.584 -58.541,30.917c-5.417,8.625 6.291,17 14.5,18.792c15.041,3.291 35.583,-1.042 34.875,-0.792c-35.459,11.542 -52.834,4.708 -58.959,-10.667c-6,-15.041 19.167,-28.291 44.5,-39.166c55.375,-23.75 63.5,-64 68.125,-61.042c2.334,1.5 4.25,17.583 -2.833,29.667" style="fill:#ababac;fill-rule:nonzero;"/><path d="M2416.18,999.118l-1.583,-7l3.083,4.916l-0.5,-6.875l3.708,2.875l-1.166,-3.291l3.5,1.083l-2.667,-5.25l4.667,4.167l-0,-5.084l3.541,3.084l0,-9.542l4.167,6.208l1.25,-5.791l1.875,3.916l1.375,-6.708l3.5,4.125l-0,-4.125l3.167,3.167l-0,-5.5l4.5,4.291l-0,-6.083l2.166,4.917l1.584,-4.917l1.375,3.958l2.75,-5.416l4.291,3.041l-7.458,20.625l-37.125,5.209Z" style="fill:#ababac;fill-rule:nonzero;"/><path d="M2388.68,1040.53l-4.458,-5.583l4.916,3.083l-3.458,-6l4.625,1l-2.458,-2.5l3.583,-0.542l-4.625,-3.541l5.958,1.708l-2.166,-4.542l4.541,1.209l-4.125,-8.584l6.417,3.792l-1.375,-5.75l3.375,2.708l-1.667,-6.625l5,2.209l-1.791,-3.75l4.166,1.5l-2.375,-4.959l5.959,1.917l-2.625,-5.458l4.041,3.458l-0.708,-5.083l2.958,2.958l0.125,-6.083l5.209,0.875l2.208,21.833l-31.25,20.75Z" style="fill:#ababac;fill-rule:nonzero;"/><path d="M2563.51,993.201l6.917,1.792l-5.75,0.458l6.333,2.75l-4.291,1.959l3.5,0.5l-2.584,2.625l5.875,0.041l-5.833,2.209l4.5,2.333l-4.375,1.75l8.5,4.375l-7.458,0.833l4.583,3.792l-4.292,-0.167l5.292,4.292l-5.292,1.25l3.667,1.917l-4.25,1.333l4.875,2.542l-5.917,2l5.417,2.791l-5.333,-0.333l3.625,3.667l-4.125,-0.584l3.541,4.917l-4.708,2.458l-14.875,-16.125l12.458,-35.375Z" style="fill:#ababac;fill-rule:nonzero;"/><path d="M2559.14,970.243l6.917,1.792l-5.75,0.5l6.333,2.708l-4.291,2l3.5,0.5l-2.584,2.583l5.875,0.042l-5.833,2.208l4.5,2.334l-4.375,1.75l8.5,4.416l-7.458,0.792l4.583,3.792l-4.292,-0.125l5.292,4.291l-5.292,1.209l3.667,1.916l-4.25,1.334l4.875,2.541l-5.875,2.042l5.375,2.792l-5.333,-0.334l3.625,3.625l-4.125,-0.583l3.541,4.917l-4.666,2.458l-14.917,-16.125l12.458,-35.375Z" style="fill:#ababac;fill-rule:nonzero;"/><path d="M2477.55,1064.37l-1.667,6.916l-0.583,-5.75l-2.583,6.417l-2.084,-4.25l-0.416,3.5l-2.667,-2.5l0.083,5.875l-2.333,-5.792l-2.208,4.542l-1.875,-4.333l-4.209,8.583l-0.958,-7.417l-3.708,4.667l0.083,-4.333l-4.208,5.416l-1.334,-5.291l-1.833,3.708l-1.417,-4.208l-2.416,4.958l-2.167,-5.875l-2.667,5.458l0.209,-5.333l-3.584,3.708l0.5,-4.125l-4.416,1.459l2,-10.334l9.291,3.084l13.75,2.833l23.417,-1.583Z" style="fill:#bebebe;fill-rule:nonzero;"/><path d="M2496.39,926.034c-0.25,4.792 -0.666,11.459 -0.791,16.209c-0,5.291 -0.5,10.875 1.416,15.916c-4.333,-7.25 -2.291,-23.875 -0.625,-32.125" style="fill-rule:nonzero;"/><path d="M2536.72,958.119c0.792,-4.75 2,-11.334 2.667,-16c0.625,-5.292 1.791,-10.75 0.458,-16c3.458,7.708 -0.5,24 -3.125,32" style="fill-rule:nonzero;"/><path d="M2524.18,975.827l45.75,-3.292" style="fill:none;fill-rule:nonzero;stroke:#707070;stroke-width:1.04px;"/><path d="M2413.76,1046.29c-6,-4.375 15.958,22.791 24.208,23.833c8.292,1.083 26.208,6.083 43.25,-4.833c17.042,-10.959 -4.583,-4.292 -13.292,-2.084c-9.208,2.292 -21.666,6.792 -54.166,-16.916" style="fill:#bebebe;fill-rule:nonzero;"/><path d="M2512.72,968.034l13.75,0c2,0 3.25,2.167 2.25,3.917l-3.167,5.5c-0.166,0.292 -0.416,0.542 -0.666,0.75l-3.709,2.833c-0.916,0.709 -2.208,0.709 -3.166,0l-3.709,-2.833c-0.25,-0.208 -0.5,-0.458 -0.666,-0.75l-3.167,-5.5c-1,-1.75 0.25,-3.917 2.25,-3.917" style="fill-rule:nonzero;"/><g><g opacity="0.42"><path d="M1585.21,949.561c-18.059,31.333 -76.4,31.417 -130.317,0.292c-53.908,-31.125 -82.971,-81.667 -64.912,-113c18.058,-31.25 76.404,-31.375 130.312,-0.25c53.913,31.166 82.975,81.708 64.917,112.958" style="fill:#fff;fill-rule:nonzero;"/></g><path d="M1537.11,918.727c-5.879,10.208 -22.975,11.292 -38.196,2.542c-15.217,-8.792 -22.792,-24.167 -16.917,-34.334c5.875,-10.166 22.975,-11.291 38.192,-2.541c15.217,8.791 22.792,24.208 16.921,34.333" style="fill:#fff;fill-rule:nonzero;"/><path d="M1586.79,947.977c-0,-68.042 -55.163,-123.208 -123.204,-123.208c-53.388,-0 -98.842,33.958 -115.946,81.458c18.542,-44.583 62.508,-75.917 113.796,-75.917c68.046,0 123.204,55.125 123.204,123.209c-0,14.666 -2.558,28.708 -7.258,41.75c6.058,-14.584 9.408,-30.542 9.408,-47.292" style="fill:#ceced0;fill-rule:nonzero;"/><path d="M1511.12,956.853c0,40.041 -32.454,72.5 -72.492,72.5c-40.037,-0 -72.491,-32.459 -72.491,-72.5c-0,-40.042 32.454,-72.5 72.491,-72.5c40.038,-0 72.492,32.458 72.492,72.5" style="fill:#f3cf6f;fill-rule:nonzero;"/><path d="M1379.11,957.352c4.066,0.083 59.062,-0.875 65.937,-0.875c6.871,0 53.046,-4.5 58.846,-4.083c5.8,0.458 8.808,1.375 13.963,2.5c5.154,1.166 15.245,3.083 16.75,2.541c1.504,-0.5 6.875,1.417 8.808,1.834c1.929,0.458 5.796,-1.917 8.587,-0c2.792,1.958 9.025,4.75 9.134,6.25c0.108,1.5 0.321,3.875 -0,4.208c-0.325,0.333 0.971,0.333 0.646,2.292c-0.325,1.916 -5.188,10.458 -8.321,10.583c-3.138,0.125 -15.35,4.125 -25.621,0c-0,0 -2.375,-0.875 -4.429,-0.75c-2.054,0.083 -1.625,3.25 -7.138,3.458c-5.512,0.209 -10.158,2.25 -19.562,-2.291c-9.404,-4.542 -13.513,-9.917 -17.838,-9.917c-4.321,0 -52.533,-3.042 -57.287,-3.042c-4.759,0 -38.159,-4.541 -40.754,-3.875c-2.592,0.625 -7.571,1.5 -8.805,1.542c-38.566,1.458 -9.304,-9.542 -8.225,-9.542c1.08,0 13.117,-0.875 15.309,-0.833" style="fill:#cdcdcd;fill-rule:nonzero;"/><path d="M1379.11,957.352c4.066,0.083 59.062,-0.875 65.937,-0.875c6.871,0 53.046,-4.5 58.846,-4.083c5.8,0.458 8.808,1.375 13.963,2.5c5.154,1.166 15.245,3.083 16.75,2.541c1.504,-0.5 6.875,1.417 8.808,1.834c1.929,0.458 5.796,-1.917 8.587,-0c2.792,1.958 9.025,4.75 9.134,6.25c0.108,1.5 0.321,3.875 -0,4.208c-0.325,0.333 0.971,0.333 0.646,2.292c-0.325,1.916 -5.188,10.458 -8.321,10.583c-3.138,0.125 -15.35,4.125 -25.621,0c-0,0 -2.375,-0.875 -4.429,-0.75c-2.054,0.083 -1.625,3.25 -7.138,3.458c-5.512,0.209 -10.158,2.25 -19.562,-2.291c-9.404,-4.542 -13.513,-9.917 -17.838,-9.917c-4.321,0 -52.533,-3.042 -57.287,-3.042c-4.759,0 -38.159,-4.541 -40.754,-3.875c-2.592,0.625 -7.571,1.5 -8.805,1.542c-38.566,1.458 -9.304,-9.542 -8.225,-9.542c1.08,0 13.117,-0.875 15.309,-0.833Z" style="fill:none;fill-rule:nonzero;stroke:#b5b5b6;stroke-width:3.13px;"/><path d="M1555.21,970.478c-0,3.875 -3.129,7 -6.988,7c-3.858,-0 -6.987,-3.125 -6.987,-7c-0,-3.834 3.129,-7 6.987,-7c3.859,-0 6.988,3.166 6.988,7" style="fill:#7a7a7a;fill-rule:nonzero;"/><path d="M1537.15,971.81c0,0 -7.583,0.709 -10.966,-1.875c-3.384,-2.583 -7.596,-4.666 -10.384,-5c-18.729,-2.375 -41.366,1.125 -53.5,2.375c-12.133,1.292 -19.766,2.167 -19.766,2.167" style="fill:none;fill-rule:nonzero;stroke:#8d8d8e;stroke-width:0.89px;"/><path d="M1494.98,968.228c2.496,1.666 6.434,4.291 11.396,3.833c4.967,-0.458 12.867,-0.458 13.204,3.625c0.338,4.042 -3.183,8.792 -8.462,8.583c-5.279,-0.208 -19.863,-9.833 -21.892,-10.833c-2.033,-1.042 -14.333,-1.708 -15.575,-2.792c-1.241,-1.041 4.171,-4.791 11.392,-4.541c7.221,0.291 7.829,0.708 9.937,2.125" style="fill:#7a7a7a;fill-rule:nonzero;"/><path d="M1366.79,962.56c-0,0 17.55,-1.583 34.583,-1.583c18.825,0.042 53.504,2.5 70.45,2.5c11.767,0 26.5,-4.375 32.534,-4.042c6.029,0.375 20.145,4.042 24.716,6.209" style="fill:none;fill-rule:nonzero;stroke:#8d8d8e;stroke-width:0.89px;"/></g><g><path d="M1459.92,1089.45l-16.912,66.323l-42.903,-11.178l19.047,-79.594l40.768,24.449Z" style="fill:#919192;fill-rule:nonzero;"/><path d="M1305.56,1471.79l62.892,13.135c11.722,2.455 23.72,-5.039 26.657,-16.65l74.108,-292.267c2.937,-11.611 -4.259,-23.132 -15.959,-25.551l-62.889,-13.137c-11.722,-2.454 -23.716,5.038 -26.656,16.65l-74.112,292.27c-2.901,11.637 4.251,23.087 15.959,25.55" style="fill:#ababac;fill-rule:nonzero;"/><path d="M1372.23,1463.5l74.104,-292.265c2.941,-11.613 -4.255,-23.134 -15.959,-25.551l24.982,5.177c11.744,2.49 18.918,13.975 15.959,25.55l-74.086,292.303c-2.959,11.575 -14.956,19.069 -26.656,16.65l-25.011,-5.208c11.743,2.442 23.726,-5.043 26.667,-16.656" style="fill:#919192;fill-rule:nonzero;"/><path d="M1287.46,1445.8l74.115,-292.272c2.937,-11.611 14.935,-19.105 26.657,-16.65l7.94,1.623c-11.703,-2.417 -23.701,5.077 -26.66,16.652l-74.089,292.305c-2.945,11.567 4.251,23.087 15.959,25.55l-7.963,-1.658c-11.708,-2.463 -18.882,-13.949 -15.959,-25.55" style="fill:#dfdfe1;fill-rule:nonzero;"/><path d="M1527.66,1050.04c57.709,-36.046 75.269,-112.058 39.223,-169.768c-36.068,-57.744 -112.057,-75.275 -169.766,-39.229c-57.713,36.049 -75.292,112.023 -39.224,169.768c36.047,57.709 112.054,75.277 169.767,39.229m-143.876,-230.342c69.488,-43.403 161.03,-22.224 204.427,47.253c43.396,69.477 22.247,160.996 -47.241,204.399c-69.488,43.403 -161.007,22.26 -204.404,-47.218c-43.396,-69.477 -22.269,-161.03 47.218,-204.434" style="fill:#ababac;fill-rule:nonzero;"/><path d="M1536.21,1067.79c69.488,-43.403 90.637,-134.921 47.241,-204.398c-9.426,-15.09 -21.14,-27.915 -34.376,-38.267c15.186,10.902 28.584,24.936 39.135,41.828c43.397,69.477 22.247,160.995 -47.24,204.399c-54.395,33.975 -122.287,28.385 -170.029,-8.951c47.442,34.134 112.656,38.253 165.269,5.389" style="fill:#ceced0;fill-rule:nonzero;"/><path d="M1527.66,1050.04c57.709,-36.046 75.269,-112.058 39.223,-169.768c-36.068,-57.744 -112.057,-75.275 -169.766,-39.229c-57.713,36.049 -75.292,112.023 -39.224,169.768c36.047,57.709 112.054,75.277 169.767,39.229Zm-143.876,-230.342c69.488,-43.403 161.03,-22.224 204.427,47.253c43.396,69.477 22.247,160.996 -47.241,204.399c-69.488,43.403 -161.007,22.26 -204.404,-47.218c-43.396,-69.477 -22.269,-161.03 47.218,-204.434Z" style="fill:none;fill-rule:nonzero;stroke:#f3cf6f;stroke-width:8.33px;"/></g><path d="M207.821,1201.48l0,20.083" style="fill:none;fill-rule:nonzero;stroke:#acacac;stroke-width:4.17px;"/><path d="M756.925,1059.5c-0,12.975 -10.533,23.512 -23.525,23.512c-12.992,0 -23.525,-10.537 -23.525,-23.512c-0,-13.008 10.533,-23.513 23.525,-23.513c12.992,0 23.525,10.505 23.525,23.513" style="fill:#f3cf6f;fill-rule:nonzero;"/><path d="M739.708,1055.4l40.325,-146.154" style="fill:none;fill-rule:nonzero;stroke:#f6974b;stroke-width:1.88px;"/><path d="M793.246,931.427l-13.65,27.05l9.204,5.571l14.73,-27.417l-10.284,-5.204Z" style="fill:#e1e1e1;fill-rule:nonzero;"/><path d="M765.857,1082.08l18.983,-0l1.15,11.742l-23.763,-0l3.63,-11.742Z" style="fill:#f3cf6f;fill-rule:nonzero;"/><path d="M722.885,1061.6c0.579,-0.334 1.646,-0.6 2.137,-0.9c0.455,-0.234 1.384,-1.067 1.98,-1.871c0.583,-0.834 1.783,-2.367 3.15,-2.8c1.062,-0.3 2.566,-0.434 3.9,1c1.329,1.4 1.825,2.937 3.058,3.304c1.233,0.333 2.875,-0.267 3.55,-0.667c0.587,-0.333 2.192,-1.5 3.187,-1.471c0.688,0.034 0.917,0.367 1.021,0.738c0.104,0.4 -0.241,0.4 -0.241,0.4c-0,-0 0.1,-0.133 0.12,-0.233c0.025,-0.105 -0.112,-0.271 -0.179,-0.367c-0.129,-0.138 -0.408,-0.4 -0.791,-0.138c-0.234,0.138 -2.717,2.505 -3.325,2.871c-0.613,0.4 -1.65,0.8 -2.575,0.8c-2.238,0 -3.038,-1.133 -4.059,-2.466c-0.662,-0.9 -1.112,-1.938 -2.654,-2.005c-0.992,-0.033 -1.954,1.034 -2.492,1.671c-0.37,0.434 -0.908,1.2 -2.045,1.8c-1.471,0.767 -2.375,0.767 -3.125,0.7c-0.755,-0.033 -1.325,0.034 -0.617,-0.366" style="fill:#ababac;fill-rule:nonzero;"/><path d="M724.239,1061.04c0.129,0.1 0.258,0.3 0.266,0.467c0.017,0.2 -0.025,0.3 -0.075,0.466" style="fill:none;fill-rule:nonzero;stroke:#414141;stroke-width:0.31px;stroke-linecap:round;"/><path d="M724.425,1060.97c0.246,0.233 0.321,0.666 0.18,1" style="fill:none;fill-rule:nonzero;stroke:#414141;stroke-width:0.31px;stroke-linecap:round;"/><path d="M724.602,1060.87c0.255,0.267 0.342,0.7 0.213,1.034" style="fill:none;fill-rule:nonzero;stroke:#414141;stroke-width:0.31px;stroke-linecap:round;"/><path d="M724.762,1060.84c0.067,0.034 0.113,0.067 0.146,0.167c0.138,0.267 0.2,0.6 0.129,0.9" style="fill:none;fill-rule:nonzero;stroke:#414141;stroke-width:0.31px;stroke-linecap:round;"/><path d="M724.953,1060.77c0.333,0.467 0.346,0.7 0.258,1.1" style="fill:none;fill-rule:nonzero;stroke:#414141;stroke-width:0.31px;stroke-linecap:round;"/><path d="M725.129,1060.67c0.267,0.3 0.375,0.7 0.283,1.1" style="fill:none;fill-rule:nonzero;stroke:#414141;stroke-width:0.31px;stroke-linecap:round;"/><path d="M725.306,1060.5c0.279,0.333 0.429,0.833 0.292,1.2" style="fill:none;fill-rule:nonzero;stroke:#414141;stroke-width:0.31px;stroke-linecap:round;"/><path d="M725.423,1060.4c0.283,0.334 0.417,0.834 0.358,1.267" style="fill:none;fill-rule:nonzero;stroke:#414141;stroke-width:0.31px;stroke-linecap:round;"/><path d="M725.59,1060.27c0.433,0.533 0.483,0.933 0.454,1.3" style="fill:none;fill-rule:nonzero;stroke:#414141;stroke-width:0.31px;stroke-linecap:round;"/><path d="M725.777,1060.14c0.366,0.333 0.562,0.866 0.504,1.266" style="fill:none;fill-rule:nonzero;stroke:#414141;stroke-width:0.31px;stroke-linecap:round;"/><path d="M725.963,1059.97c0.325,0.3 0.65,0.867 0.542,1.367" style="fill:none;fill-rule:nonzero;stroke:#414141;stroke-width:0.31px;stroke-linecap:round;"/><path d="M726.123,1059.8c0.392,0.367 0.621,0.733 0.596,1.4" style="fill:none;fill-rule:nonzero;stroke:#414141;stroke-width:0.31px;stroke-linecap:round;"/><path d="M726.254,1059.67c0.429,0.366 0.679,0.866 0.641,1.433" style="fill:none;fill-rule:nonzero;stroke:#414141;stroke-width:0.31px;stroke-linecap:round;"/><path d="M726.417,1059.54c0.454,0.3 0.725,0.866 0.704,1.433" style="fill:none;fill-rule:nonzero;stroke:#414141;stroke-width:0.31px;stroke-linecap:round;"/><path d="M726.584,1059.34c0.491,0.3 0.775,0.934 0.708,1.5" style="fill:none;fill-rule:nonzero;stroke:#414141;stroke-width:0.31px;stroke-linecap:round;"/><path d="M726.7,1059.2c0.509,0.3 0.834,0.867 0.809,1.467" style="fill:none;fill-rule:nonzero;stroke:#414141;stroke-width:0.31px;stroke-linecap:round;"/><path d="M726.8,1059.1c0.559,0.2 0.946,0.767 0.93,1.4" style="fill:none;fill-rule:nonzero;stroke:#414141;stroke-width:0.31px;stroke-linecap:round;"/><path d="M733.217,1058.93c0.342,0 0.692,-0.133 0.93,-0.366c0.237,-0.267 0.366,-0.6 0.341,-0.934" style="fill:none;fill-rule:nonzero;stroke:#414141;stroke-width:0.31px;stroke-linecap:round;"/><path d="M733.401,1059.2c0.358,0.033 0.729,-0.067 0.987,-0.333c0.259,-0.267 0.4,-0.634 0.375,-0.967" style="fill:none;fill-rule:nonzero;stroke:#414141;stroke-width:0.31px;stroke-linecap:round;"/><path d="M733.594,1059.5c0.325,-0 0.65,-0.1 0.9,-0.333c0.246,-0.2 0.413,-0.5 0.458,-0.834c0.013,-0.066 0.005,-0.133 -0.016,-0.233" style="fill:none;fill-rule:nonzero;stroke:#414141;stroke-width:0.31px;stroke-linecap:round;"/><path d="M733.758,1059.77c0.325,0.033 0.662,-0.034 0.925,-0.234c0.262,-0.2 0.454,-0.5 0.521,-0.8c0.016,-0.1 0.016,-0.166 -0,-0.233" style="fill:none;fill-rule:nonzero;stroke:#414141;stroke-width:0.31px;stroke-linecap:round;"/><path d="M734.002,1060.14c0.325,0.033 0.658,-0.067 0.925,-0.267c0.262,-0.2 0.454,-0.467 0.52,-0.767c0.017,-0.1 0.017,-0.166 0,-0.266" style="fill:none;fill-rule:nonzero;stroke:#414141;stroke-width:0.31px;stroke-linecap:round;"/><path d="M734.275,1060.44c0.325,0.033 0.658,-0.034 0.925,-0.234c0.262,-0.166 0.454,-0.466 0.521,-0.8c0.016,-0.1 0.016,-0.166 -0,-0.233" style="fill:none;fill-rule:nonzero;stroke:#414141;stroke-width:0.31px;stroke-linecap:round;"/><path d="M734.585,1060.84c0.325,0.034 0.662,-0.066 0.925,-0.266c0.262,-0.167 0.454,-0.467 0.521,-0.767c0.016,-0.067 0.016,-0.167 -0,-0.267" style="fill:none;fill-rule:nonzero;stroke:#414141;stroke-width:0.31px;stroke-linecap:round;"/><path d="M734.868,1061.14c0.325,0.033 0.659,-0.034 0.925,-0.2c0.263,-0.2 0.454,-0.5 0.521,-0.834c0.017,-0.066 0.017,-0.166 0,-0.233" style="fill:none;fill-rule:nonzero;stroke:#414141;stroke-width:0.31px;stroke-linecap:round;"/><path d="M777.285,955.487l-36.363,70.196l14.72,7.625l36.363,-70.196l-14.72,-7.625Z" style="fill:#ababac;"/><path d="M774.999,987.76c-0,0 46.896,15.642 52.162,47.029c4.892,29.084 -21.112,45.392 -48.987,49.092c-35.496,4.671 -62.163,-10.171 -54.529,-13.971c7.637,-3.837 18.325,1.334 18.325,1.334c-0,-0 8.47,4.366 31.375,-0.1c22.908,-4.471 26.845,-16.513 26.404,-31.488c-0.5,-17.108 -5.35,-25.512 -33.284,-39.287c-15.495,-7.605 8.534,-12.609 8.534,-12.609" style="fill:#ababac;fill-rule:nonzero;"/><path d="M753.976,1073.18l-38.908,-0c-1.421,-0 -2.588,-1.133 -2.588,-2.567l0,-5.037c0,-1.434 1.167,-2.6 2.588,-2.6l38.908,-0c1.421,-0 2.584,1.166 2.584,2.6l-0,5.037c-0,1.434 -1.163,2.567 -2.584,2.567" style="fill:#e1e1e1;fill-rule:nonzero;"/><path d="M745.541,1011.81l18.896,8.837c1.017,0.5 1.496,1.638 1.096,2.705c-1.596,4.166 -5.683,14.008 -9.2,15.241c-7.225,2.534 -17.604,-1.5 -19.725,-8.604c-1.896,-6.337 3.871,-14.475 6.362,-17.579c0.617,-0.733 1.68,-1 2.571,-0.6" style="fill:#e1e1e1;fill-rule:nonzero;"/><path d="M766.03,964.58l25.146,13.241l-6.496,13.875l-26.096,-12.841l7.446,-14.275Z" style="fill:#e1e1e1;fill-rule:nonzero;"/><path d="M807.547,939.032l-18.195,-9.471c-1.584,-0.804 -2.205,-2.771 -1.384,-4.337c0.817,-1.567 2.784,-2.2 4.363,-1.4l18.2,9.437c1.579,0.833 2.2,2.8 1.379,4.371c-0.817,1.567 -2.783,2.2 -4.363,1.4" style="fill:#ababac;fill-rule:nonzero;"/><path d="M792.305,948.804l-2.2,-1.1c-1.583,-0.834 -2.204,-2.805 -1.383,-4.405c0.817,-1.566 2.783,-2.2 4.363,-1.366l2.204,1.166c1.579,0.8 2.2,2.771 1.379,4.338c-0.817,1.6 -2.783,2.2 -4.363,1.367" style="fill:#ababac;fill-rule:nonzero;"/><path d="M720.797,1096.22c-0,2.633 2.15,4.804 4.808,4.804l95.483,-0c2.65,-0 4.804,-2.171 4.804,-4.804c0,-2.671 -2.154,-4.805 -4.804,-4.805l-95.483,0c-2.658,0 -4.808,2.134 -4.808,4.805" style="fill:#ababac;fill-rule:nonzero;"/><path d="M782.303,990.094c-0,7.07 -5.729,12.841 -12.8,12.841c-7.071,0 -12.8,-5.771 -12.8,-12.841c-0,-7.071 5.729,-12.771 12.8,-12.771c7.071,-0 12.8,5.7 12.8,12.771" style="fill:#e1e1e1;fill-rule:nonzero;"/><path d="M774.812,990.094c0,2.97 -2.379,5.304 -5.312,5.304c-2.934,-0 -5.309,-2.334 -5.309,-5.304c0,-2.9 2.375,-5.3 5.309,-5.3c2.933,-0 5.312,2.4 5.312,5.3" style="fill:#f3cf6f;fill-rule:nonzero;"/><path d="M691.643,1110c-0,1.3 3.033,2.4 6.771,2.4l134.525,0c3.737,0 6.766,-1.1 6.766,-2.4c0,-1.333 -3.029,-2.433 -6.766,-2.433l-134.525,-0c-3.738,-0 -6.771,1.1 -6.771,2.433" style="fill:#e1e1e1;fill-rule:nonzero;"/><rect x="711.013" y="1055.36" width="47.017" height="7.346" style="fill:none;stroke:#f6974b;stroke-width:1.87px;"/><path d="M730.152,1056.03l-83.612,-158.625" style="fill:none;fill-rule:nonzero;stroke:#f6974b;stroke-width:1.87px;"/><path d="M599.092,903.611c6.517,-3.837 18.413,-6.804 23.929,-9.808c5.079,-2.767 15.529,-11.838 22.146,-21.109c6.529,-9.141 20.013,-26.55 35.321,-31.287c11.85,-3.667 28.729,-4.867 43.65,11.175c14.921,16.008 20.437,33.25 34.267,36.987c13.825,3.734 32.2,-3.066 39.733,-7.237c6.596,-3.671 24.55,-17.308 35.721,-16.842c7.687,0.363 10.275,4.2 11.429,8.638c1.154,4.466 -2.708,4.366 -2.708,4.366c-0,0 1.112,-1.766 1.354,-2.7c0.287,-1.1 -1.284,-3.237 -2.029,-4.104c-1.409,-1.6 -4.546,-4.233 -8.859,-1.466c-2.587,1.633 -30.383,28.083 -37.241,32.22c-6.863,4.134 -18.459,8.838 -28.83,8.871c-25.058,0.067 -34,-12.508 -45.454,-27.75c-7.379,-9.837 -12.429,-21.812 -29.666,-22.279c-11.163,-0.367 -21.963,11.204 -27.959,18.579c-4.154,5.1 -10.15,13.204 -22.9,20.109c-16.454,8.941 -26.6,8.575 -35.008,8.07c-8.408,-0.466 -14.808,0.205 -6.896,-4.433" style="fill:#ababac;fill-rule:nonzero;"/><path d="M614.258,897.408c1.471,1.266 2.862,3.4 3.004,5.337c0.167,2.2 -0.271,3.467 -0.887,5.334" style="fill:none;fill-rule:nonzero;stroke:#414141;stroke-width:0.83px;stroke-linecap:round;"/><path d="M616.376,896.44c2.766,3.1 3.583,7.771 2.012,11.604" style="fill:none;fill-rule:nonzero;stroke:#414141;stroke-width:0.83px;stroke-linecap:round;"/><path d="M618.337,895.706c2.846,3 3.813,7.638 2.4,11.508" style="fill:none;fill-rule:nonzero;stroke:#414141;stroke-width:0.83px;stroke-linecap:round;"/><path d="M620.138,895.138c0.742,0.5 1.25,1.067 1.629,1.8c1.558,3.171 2.242,6.738 1.471,10.175" style="fill:none;fill-rule:nonzero;stroke:#414141;stroke-width:0.83px;stroke-linecap:round;"/><path d="M622.262,894.238c3.73,5.171 3.871,7.971 2.888,12.275" style="fill:none;fill-rule:nonzero;stroke:#414141;stroke-width:0.83px;stroke-linecap:round;"/><path d="M624.23,893.105c2.984,3.504 4.171,8.071 3.167,12.675" style="fill:none;fill-rule:nonzero;stroke:#414141;stroke-width:0.83px;stroke-linecap:round;"/><path d="M626.228,891.637c3.15,3.637 4.771,8.904 3.279,13.475" style="fill:none;fill-rule:nonzero;stroke:#414141;stroke-width:0.83px;stroke-linecap:round;"/><path d="M627.542,890.436c3.18,3.834 4.675,8.971 4.025,13.909" style="fill:none;fill-rule:nonzero;stroke:#414141;stroke-width:0.83px;stroke-linecap:round;"/><path d="M629.387,888.935c4.845,5.904 5.408,10.638 5.066,14.509" style="fill:none;fill-rule:nonzero;stroke:#414141;stroke-width:0.83px;stroke-linecap:round;"/><path d="M631.498,887.501c4.104,3.77 6.292,9.47 5.633,14.308" style="fill:none;fill-rule:nonzero;stroke:#414141;stroke-width:0.83px;stroke-linecap:round;"/><path d="M633.592,885.601c3.609,3.266 7.296,9.57 6.042,15.108" style="fill:none;fill-rule:nonzero;stroke:#414141;stroke-width:0.83px;stroke-linecap:round;"/><path d="M635.39,883.732c4.38,4.104 6.938,8.137 6.68,15.842" style="fill:none;fill-rule:nonzero;stroke:#414141;stroke-width:0.83px;stroke-linecap:round;"/><path d="M636.821,882.198c4.817,3.7 7.613,9.937 7.204,15.975" style="fill:none;fill-rule:nonzero;stroke:#414141;stroke-width:0.83px;stroke-linecap:round;"/><path d="M638.659,880.464c5.067,3.57 8.129,9.837 7.863,16.041" style="fill:none;fill-rule:nonzero;stroke:#414141;stroke-width:0.83px;stroke-linecap:round;"/><path d="M640.54,878.462c5.487,3.567 8.683,10.375 7.937,16.875" style="fill:none;fill-rule:nonzero;stroke:#414141;stroke-width:0.83px;stroke-linecap:round;"/><path d="M641.844,876.761c5.725,3.267 9.354,9.905 9.054,16.475" style="fill:none;fill-rule:nonzero;stroke:#414141;stroke-width:0.83px;stroke-linecap:round;"/><path d="M642.965,875.461c6.245,2.533 10.579,9.17 10.387,15.908" style="fill:none;fill-rule:nonzero;stroke:#414141;stroke-width:0.83px;stroke-linecap:round;"/><path d="M714.807,873.926c3.854,0.1 7.729,-1.466 10.4,-4.27c2.67,-2.767 4.095,-6.705 3.816,-10.538" style="fill:none;fill-rule:nonzero;stroke:#414141;stroke-width:0.83px;stroke-linecap:round;"/><path d="M716.875,877.062c4.02,0.367 8.179,-1.1 11.066,-3.938c2.888,-2.8 4.454,-6.937 4.167,-10.937" style="fill:none;fill-rule:nonzero;stroke:#414141;stroke-width:0.83px;stroke-linecap:round;"/><path d="M719.042,880.197c3.642,0.1 7.305,-1.2 10.08,-3.571c2.775,-2.333 4.637,-5.767 5.137,-9.371c0.121,-0.9 0.038,-1.8 -0.221,-2.6" style="fill:none;fill-rule:nonzero;stroke:#414141;stroke-width:0.83px;stroke-linecap:round;"/><path d="M720.89,883.332c3.625,0.367 7.38,-0.6 10.338,-2.733c2.954,-2.138 5.087,-5.371 5.875,-8.942c0.192,-0.867 0.183,-1.733 -0.008,-2.6" style="fill:none;fill-rule:nonzero;stroke:#414141;stroke-width:0.83px;stroke-linecap:round;"/><path d="M723.612,887.201c3.625,0.366 7.379,-0.6 10.337,-2.734c2.954,-2.133 5.088,-5.404 5.875,-8.941c0.192,-0.867 0.183,-1.767 -0.008,-2.667" style="fill:none;fill-rule:nonzero;stroke:#414141;stroke-width:0.83px;stroke-linecap:round;"/><path d="M726.68,890.836c3.625,0.4 7.38,-0.566 10.338,-2.7c2.954,-2.137 5.087,-5.404 5.871,-8.941c0.196,-0.867 0.187,-1.8 -0,-2.667" style="fill:none;fill-rule:nonzero;stroke:#414141;stroke-width:0.83px;stroke-linecap:round;"/><path d="M730.125,895.138c3.625,0.4 7.38,-0.6 10.334,-2.7c2.958,-2.137 5.091,-5.404 5.875,-8.937c0.196,-0.871 0.187,-1.771 -0.004,-2.638" style="fill:none;fill-rule:nonzero;stroke:#414141;stroke-width:0.83px;stroke-linecap:round;"/><path d="M733.311,898.741c3.625,0.367 7.379,-0.633 10.337,-2.77c2.954,-2.134 5.088,-5.334 5.875,-8.905c0.192,-0.9 0.184,-1.8 -0.008,-2.633" style="fill:none;fill-rule:nonzero;stroke:#414141;stroke-width:0.83px;stroke-linecap:round;"/><path d="M781.762,909.014c0,1 -0.775,1.733 -1.729,1.733c-0.954,-0 -1.725,-0.733 -1.725,-1.733c0,-0.934 0.771,-1.7 1.725,-1.7c0.954,-0 1.729,0.766 1.729,1.7" style="fill:#e49057;fill-rule:nonzero;"/><path d="M648.111,897.408c0,0.933 -0.775,1.7 -1.729,1.7c-0.954,-0 -1.725,-0.767 -1.725,-1.7c0,-0.967 0.771,-1.734 1.725,-1.734c0.954,0 1.729,0.767 1.729,1.734" style="fill:#e49057;fill-rule:nonzero;"/><path d="M716.478,1102.13l-0,16.075" style="fill:none;fill-rule:nonzero;stroke:#acacac;stroke-width:3.33px;"/></g></svg>