<?xml version="1.0" encoding="UTF-8" standalone="no"?><!DOCTYPE svg PUBLIC "-//W3C//DTD SVG 1.1//EN" "http://www.w3.org/Graphics/SVG/1.1/DTD/svg11.dtd"><svg width="100%" height="100%" viewBox="0 0 532 263" version="1.1" xmlns="http://www.w3.org/2000/svg" xmlns:xlink="http://www.w3.org/1999/xlink" xml:space="preserve" xmlns:serif="http://www.serif.com/" style="fill-rule:evenodd;clip-rule:evenodd;stroke-miterlimit:10;"><rect x="244.345" y="161.123" width="21.546" height="21.546" style="fill:#ed7569;"/><rect x="44.054" y="161.123" width="21.546" height="21.546" style="fill:#81c2ff;"/><path d="M371.074,95.85c0,4.954 -3.983,8.937 -8.895,8.937c-4.917,0 -8.9,-3.983 -8.9,-8.937c-0,-4.904 3.983,-8.883 8.9,-8.883c4.912,-0 8.895,3.979 8.895,8.883" style="fill:#c8c8c8;fill-rule:nonzero;"/><path d="M304.414,72.82c-11.313,-0 -65.263,5.258 -73.617,5.258c-8.362,0 -72.704,1.075 -82.896,1.075l-1.308,0c-3.35,0 -17.904,1.021 -19.242,1.021c-1.291,0 -34.187,12.358 2.355,12.358c2.395,0 5.095,-0.05 8.116,-0.154c1.571,-0.104 7.913,-1.175 11.217,-1.991c0.221,-0.05 0.612,-0.105 1.158,-0.105c7.654,0 45.075,5.059 50.729,5.059c6.055,-0 67.442,3.829 72.946,3.829c5.504,-0 10.734,6.892 22.709,12.662c6.129,2.963 10.666,3.73 14.583,3.73c3.733,-0 6.9,-0.663 10.333,-0.817c7.017,-0.254 6.467,-4.292 9.084,-4.392c0.154,0 0.304,-0.05 0.462,-0.05c2.492,0 5.179,1.021 5.179,1.021c4.417,1.733 9.117,2.35 13.554,2.35c8.705,0 16.421,-2.3 19.067,-2.35c3.988,-0.154 10.183,-11.029 10.596,-13.533c0.412,-2.45 -1.242,-2.45 -0.829,-2.859c0.416,-0.408 0.141,-3.475 -0,-5.362c-0.138,-1.942 -8.067,-5.517 -11.621,-7.967c-1.063,-0.716 -2.246,-0.971 -3.446,-0.971c-2.483,0 -5.046,1.075 -6.804,1.075c-0.25,0 -0.479,-0.054 -0.688,-0.104c-2.175,-0.458 -7.766,-2.45 -10.362,-2.45c-0.342,0 -0.625,0.05 -0.85,0.1c-0.225,0.104 -0.592,0.104 -1.083,0.104c-3.734,0 -14.446,-1.991 -20.25,-3.32c-6.567,-1.48 -10.392,-2.605 -17.775,-3.167c-0.338,-0.05 -0.78,-0.05 -1.317,-0.05" style="fill:none;fill-rule:nonzero;stroke:#81c2ff;stroke-width:1.28px;"/><path d="M334.114,95.187c-4.305,-3.267 -9.671,-5.975 -13.221,-6.384c-23.842,-3.062 -52.667,1.429 -68.121,3.063c-15.446,1.633 -25.171,2.708 -25.171,2.708" style="fill:none;fill-rule:nonzero;stroke:#000;stroke-width:1.28px;"/><path d="M305.251,97.803c1.159,0.158 2.375,0.204 3.642,0.087c6.321,-0.558 16.379,-0.558 16.808,4.6c0.438,5.154 -4.054,11.184 -10.77,10.925c-2.25,-0.083 -5.821,-1.512 -9.68,-3.421" style="fill:none;fill-rule:nonzero;stroke:#81c2ff;stroke-width:1.28px;"/><path d="M305.252,109.995c-7.679,-3.8 -16.479,-9.516 -18.2,-10.366c-2.588,-1.33 -18.25,-2.146 -19.829,-3.525c-1.584,-1.38 5.308,-6.125 14.504,-5.771c9.196,0.308 9.967,0.871 12.654,2.658c2.538,1.713 6.254,4.179 10.871,4.813" style="fill:none;fill-rule:nonzero;stroke:#000;stroke-width:1.28px;"/><path d="M305.251,81.781c0.38,-0.004 0.738,0.004 1.071,0.025c7.684,0.462 25.659,5.108 31.475,7.916" style="fill:none;fill-rule:nonzero;stroke:#81c2ff;stroke-width:1.28px;"/><path d="M131.16,85.739c0,-0 22.346,-1.992 44.038,-1.992c23.966,0.05 68.129,3.217 89.696,3.217c14.333,-0 32.112,-5.134 40.358,-5.184" style="fill:none;fill-rule:nonzero;stroke:#000;stroke-width:1.28px;"/><path d="M328.282,99.476c0.771,0.104 2.308,-0.204 2.983,-0.563c0.609,-0.358 1.521,-1.225 1.021,-1.937c1.867,0.1 3.85,-0.667 5.338,-1.738c0.533,-0.408 1.933,-1.837 2.537,-1.787c0.275,-0 0.796,1.533 0.875,1.837c0.392,1.329 0.533,2.809 0.763,4.188c0.262,0.204 2.891,-0.154 3.254,-0.409c0.141,-0.104 0.204,-0.154 0.2,-0.358c-0.009,-0.204 -0.504,-1.479 -0.35,-1.583c0.471,0.204 1.616,1.429 2.058,1.329c0.746,-0.154 1.488,-1.942 1.292,-2.654l-4.1,-3.067c-0.113,-0.15 1.383,-0.204 1.529,-0.204c1.525,0.054 3.071,0.254 4.608,0.104c0.725,-0.05 1.471,-0.204 2.05,-0.667l0.125,0.055c0.167,1.837 2.754,2.704 4.292,2.245c0.7,-0.204 1.342,-0.816 2.117,-0.766c0.395,-0 0.995,0.358 1.016,-0.254c0.009,-0.309 -0.487,-0.309 -0.758,-0.513c-0.563,-0.304 -1.163,-1.633 -1.888,-2.142c-0.966,-0.716 -2.55,-1.379 -3.745,-0.97c-0.2,-0.921 -0.813,-1.688 -1.455,-2.3c-1.387,-1.43 -5.091,-3.675 -7.058,-3.73c-0.854,0 -1.033,0.105 -1.487,0.821c-0.33,0.509 -0.525,1.121 -0.771,1.684c-0.2,-0.459 -0.175,-1.021 -0.346,-1.48c-0.771,-2.045 -2.508,-3.27 -4.488,-4.037c-2.941,-1.175 -6.729,-1.888 -9.87,-1.479c-0.309,0.05 -0.746,0.254 -1.017,0.254c-0.354,-0.05 -1.017,-0.458 -1.45,-0.613c-2.779,-0.816 -5.996,-0.05 -8.25,1.688c-0.458,0.354 -0.971,0.762 -0.996,1.375c-1.037,-0 -2.829,-0.15 -3.137,1.125c-1.396,-0.613 -2.863,-0.508 -4.23,0.104c-0.479,0.204 -0.908,0.558 -1.358,0.763c-0.342,0.154 -0.737,0.154 -1.033,0.308c-0.629,0.308 -0.325,0.662 -1.288,0.512c-2.366,-0.308 -4.783,-0.766 -7.154,-1.125c-1.167,-0.204 -2.346,-0.508 -3.517,-0.662c-0.362,-0.054 -0.437,0.458 -0.662,0.662l-0.292,1.38l0.254,1.683l17.317,4.187c0,0.259 -0.242,0.359 -0.3,0.563c-0.112,0.358 0.092,0.971 0.475,1.075c0.192,0.05 1.021,0.15 1.258,0.204c0.963,0.05 1.763,-0.258 2.396,-1.025c2.188,0.463 4.346,1.025 6.525,1.429c0.159,0.054 0.271,0 0.421,0c-0.187,0.971 1.038,1.942 1.771,2.454c1.621,1.021 3.342,1.38 5.183,1.838l-1.721,0.458c-0.775,0.667 -0.112,1.329 0.613,1.634c0.15,0.054 0.3,0.104 0.45,0.104" style="fill:#fff;fill-rule:nonzero;"/><path d="M334.92,79.917c2.792,0.717 5.425,1.48 6.884,4.138c0.908,1.683 0.895,3.112 -0.509,4.442c-2.15,2.095 -9.033,4.645 -12.037,4.341c-2.821,-0.308 -5.529,-4.087 -5.913,-6.741c-0.246,-1.634 0.996,-4.392 2.175,-5.617c1.971,-1.992 6.95,-1.125 9.4,-0.563" style="fill:#fff;fill-rule:nonzero;"/><path d="M317.579,80.581c2.529,-1.942 6.067,-2.554 8.992,-1.125l-1.142,0.767c-0.825,0.971 -1.588,2.096 -1.896,3.321c-0.958,-0.309 -1.95,0.612 -2.871,0.662c-1.225,0.054 -2.225,-0.508 -3.15,-1.275c-1.275,-1.021 -1.183,-1.379 0.067,-2.35" style="fill:#fff;fill-rule:nonzero;"/><path d="M345.956,84.003c1.945,0.458 6.787,3.266 7.216,5.362c0.134,0.663 -0.658,1.584 -1.316,1.738c-2.455,0.558 -3.95,-1.842 -5.905,-1.842c-0.729,0 -1.587,0.463 -2.325,0.358c-1.4,-0.154 -1.454,-0.97 -1.158,-2.145c0.179,-0.663 1.088,-3.013 1.579,-3.421c0.417,-0.304 1.4,-0.204 1.909,-0.05" style="fill:#fff;fill-rule:nonzero;"/><path d="M353.431,89.773c1.313,-0.204 3.071,0.359 4.013,1.275c0.5,0.513 1.062,1.634 1.562,1.942c0.192,0.104 0.534,0.05 0.405,0.308c-1.205,-0.308 -2.059,0.713 -3.134,0.817c-1.308,0.15 -2.921,-0.408 -3.475,-1.688c-0.554,-1.275 0.117,-1.583 0.629,-2.654" style="fill:#fff;fill-rule:nonzero;"/><path d="M293.977,86.403c-0.083,-0.921 -0.217,-1.787 0.121,-2.708c0.287,-0.763 0.55,-0.663 1.262,-0.558c2.925,0.458 5.871,0.966 8.788,1.429c0.6,0.1 1.179,0.304 1.783,0.358c0.279,-0.154 0.383,-0.408 0.704,-0.562c0.329,-0.155 0.809,-0.205 1.15,-0.359c0.342,-0.154 0.65,-0.458 0.992,-0.662c1.346,-0.613 3,-0.871 4.371,-0.154c0.187,-0 0.35,-0.513 0.546,-0.717c0.545,-0.508 1.991,-0.408 2.704,-0.458c0.512,0.97 1.608,1.737 2.6,2.091c0.066,0.767 0.208,1.584 0.658,2.25l-0.417,-0.254c-0.245,0.2 0.525,0.813 0.68,0.917c2.054,1.633 5.158,3.421 6.82,5.258c0.255,0.258 0.542,0.513 0.759,0.817c-0.459,0.204 -0.8,-0.15 -1.171,-0.409c-0.9,-0.712 -1.721,-1.683 -2.638,-2.4c-1.458,-1.07 -2.741,-1.787 -4.15,-3.112c-0.208,-0.154 -0.291,-0.513 -0.637,-0.563c-0.163,0.155 0.246,0.513 0.35,0.613c1.396,1.483 3.392,3.267 5.217,4.137l1.195,1.071c-0.712,-0.204 -1.608,-0.458 -2.275,-0.766c-0.641,-0.355 -1.162,-1.071 -1.812,-1.38l-0.246,0.105l-0.021,0.458c-0.541,-0.05 -0.35,-0.358 -0.5,-0.767c-0.346,-0.966 -0.616,-1.021 -1.158,-1.733c-0.463,-0.613 -0.767,-1.329 -1.504,-1.738c-0.179,0.1 -0.013,0.205 0.05,0.305c0.2,0.258 0.541,0.462 0.746,0.766c0.5,0.613 0.866,1.434 0.983,2.25c-0.863,0.304 -0.275,-0.766 -1.046,-0.358l0.021,0.304l-0.521,-0.1c-0.012,-0.358 -0.596,-2.196 -0.971,-2.146c-0.091,0.05 -0.246,0.154 -0.304,0.254c-0.383,0.513 -0.733,1.38 -1.104,1.992c-1.046,1.633 -2.025,2.963 -4.229,2.25c0.308,-0.512 -0.225,-0.971 -0.263,-1.175c-0.016,-0.154 0.667,-1.837 0.767,-2.046c0.333,-0.712 1.104,-1.683 1.825,-1.991c0.333,-0.1 0.729,-0.1 1.079,-0.205c0.129,-0.05 0.221,0.055 0.221,-0.2c-2.279,-0.258 -3.408,2.196 -3.95,4.034l-17.475,-4.138Z" style="fill:#fff;fill-rule:nonzero;"/><path d="M323.921,88.344l-2.196,-0.459c-0.2,-0.054 -0.925,-0.512 -1.112,-0.716c-0.763,-0.613 -1.442,-1.888 -1.259,-2.909c1.305,0.509 2.3,-0.154 3.521,-0.462c-0.158,0.358 -0.6,0.716 -0.558,1.125l0.05,0.154c0.308,0.358 0.521,-0.463 0.779,-0.563c-0.308,1.38 0.183,2.605 0.775,3.83" style="fill:#fff;fill-rule:nonzero;"/><path d="M341.35,88.803l0.708,-0.716c-0.008,0.258 0.017,0.666 0.104,0.92c0.45,1.275 1.121,2.555 1.55,3.83c0.609,1.837 0.696,3.883 1.263,5.72c-1.075,-0.104 -2.084,-0.104 -3.079,0.359c-0.088,-1.025 -0.28,-2.196 -0.538,-3.217c-0.554,-2.25 -1.025,-3.067 -3.367,-3.729c-0.204,-0.05 -0.408,0.05 -0.562,-0c-0.446,-0.104 -0.858,-0.308 -1.383,-0.308l2.754,-1.275c1.241,3.012 4.808,0.612 2.55,-1.584" style="fill:#fff;fill-rule:nonzero;"/><path d="M342.779,89.569c0.909,0.612 1.83,0.104 2.759,-0c1.971,-0.155 3.371,1.687 5.596,1.837c0.454,0.05 0.866,-0.15 1.308,-0.15c0.033,0.713 -1.133,1.021 -1.713,1.121c-2.295,0.308 -4.658,-0.304 -6.937,0.104l-1.013,-2.912Z" style="fill:#fff;fill-rule:nonzero;"/><path d="M340.614,89.314l0.638,-0.358c1.825,2.146 -1.183,3.779 -2.2,1.329l1.562,-0.971Z" style="fill:#fff;fill-rule:nonzero;"/><path d="M322.966,88.394l1.025,0.155l0.4,0.612c-0.308,-0.104 -0.637,-0.254 -0.933,-0.408c-0.133,-0.05 -0.471,-0.204 -0.492,-0.359" style="fill:#fff;fill-rule:nonzero;"/><path d="M344.026,92.939l4.033,2.909c0.129,0.716 -0.392,2.046 -1.071,2.3c-0.162,0.05 -0.162,0.05 -0.304,-0.05c-0.696,-0.359 -1.233,-1.075 -1.95,-1.379l-0.708,-3.78Z" style="fill:#fff;fill-rule:nonzero;"/><path d="M321.889,88.19l2.241,1.175c0.45,0.408 0.992,0.612 1.179,1.225l-3.42,-2.4Z" style="fill:#fff;fill-rule:nonzero;"/><path d="M333.69,94.369c1.629,0.358 3.367,-0.458 3.954,-2.092l0.121,-0.054c0.809,0.204 1.588,0.513 2.267,0.971l-1.063,0.563c-0.891,0.816 -1.82,1.633 -2.937,2.145c-0,0 -0.238,0.15 -0.829,0.355c-0.675,0.308 -1.463,0.462 -2.192,0.412c0.608,-0.667 0.754,-1.433 0.679,-2.3" style="fill:#fff;fill-rule:nonzero;"/><path d="M332.434,92.786c1.725,-0.254 3.2,-1.329 5.004,-0.613c-0.463,1.379 -1.896,2.092 -3.292,1.992c-0.779,-0.05 -0.604,-0.358 -0.996,-0.817l-0.716,-0.562Z" style="fill:#fff;fill-rule:nonzero;"/><path d="M315.306,91.357l2.084,-3.371c0.2,-0 0.45,0.716 0.512,0.866c0.167,0.463 0.196,1.28 0.621,1.484c0.254,0.1 0.542,-0.05 0.629,-0.309l0.088,0c-0.034,0.409 0.591,0.563 0.875,0.359c0.316,-0.254 -0.184,-0.921 -0.067,-1.275c0.433,0.612 0.692,1.325 0.646,2.091c0.779,0.255 0.996,0.155 0.879,-0.662l1.525,1.175c-0.142,0.154 -0.5,0.204 -0.675,0.358c-0.254,0.204 -0.287,0.663 -0.621,0.663l-6.496,-1.379Z" style="fill:#fff;fill-rule:nonzero;"/><path d="M328.369,92.939c0.642,0.105 1.333,0.155 1.975,0.155c0.896,-0.05 1.467,-0.459 2.258,0.154c0.659,0.508 1.425,1.937 0.221,2.091c-1.075,0.155 -2.171,-0.458 -3.025,-1.07c-0.479,-0.309 -1.104,-0.871 -1.429,-1.33" style="fill:#fff;fill-rule:nonzero;"/><path d="M327.511,92.582c0.154,-0.104 1.033,0.971 1.221,1.175c1.162,1.071 2.987,2.246 4.617,1.734c-0.255,1.075 -1.488,1.533 -2.48,1.637c-1.983,0.1 -5.7,-0.921 -7.304,-2.146c-0.762,-0.562 -1.608,-1.329 -1.216,-2.35c0.462,-1.225 2.204,-0.254 3.033,0.05c0.25,0.055 0.562,0.055 0.8,0.155c0.375,0.154 0.733,0.87 1.117,0.92c0.279,0 0.504,-0.154 0.57,-0.408c0.055,-0.258 -0.537,-0.667 -0.358,-0.767" style="fill:#fff;fill-rule:nonzero;"/><path d="M311.481,92.122c-0.2,0.154 -0.575,-0.817 -0.12,-0.971c0.25,0.308 0.233,0.613 0.12,0.971" style="fill:#fff;fill-rule:nonzero;"/><path d="M342.019,99.22c0.795,-0.662 1.941,-0.458 2.9,-0.408c-0.842,0.458 -1.959,0.458 -2.9,0.408" style="fill:#fff;fill-rule:nonzero;"/><path d="M334.92,79.917c-2.45,-0.562 -7.429,-1.429 -9.4,0.563c-1.179,1.225 -2.421,3.929 -2.175,5.617c0.384,2.654 3.092,6.433 5.913,6.741c3.004,0.304 9.887,-2.246 12.037,-4.341c1.404,-1.33 1.417,-2.809 0.509,-4.442c-1.459,-2.658 -4.092,-3.421 -6.884,-4.138" style="fill:#81c2ff;fill-rule:nonzero;"/><path d="M293.977,86.403l17.475,4.138c0.542,-1.838 1.675,-4.292 3.958,-4.034c-0.008,0.255 -0.1,0.15 -0.229,0.2c-0.35,0.055 -0.742,0.105 -1.079,0.205c-0.721,0.308 -1.492,1.279 -1.817,1.991c-0.104,0.209 -0.787,1.892 -0.775,2.046c0.038,0.204 0.571,0.663 0.263,1.175c2.204,0.713 3.183,-0.617 4.229,-2.25c0.375,-0.612 0.721,-1.479 1.108,-1.992c0.059,-0.1 0.213,-0.254 0.304,-0.254c0.371,-0.05 0.963,1.788 0.971,2.146l0.517,0.1l-0.021,-0.304c0.775,-0.408 0.183,0.662 1.046,0.358c-0.113,-0.816 -0.479,-1.637 -0.979,-2.25c-0.209,-0.304 -0.55,-0.508 -0.75,-0.766c-0.063,-0.1 -0.225,-0.205 -0.046,-0.305c0.737,0.409 1.042,1.125 1.5,1.738c0.546,0.712 0.812,0.767 1.158,1.733c0.154,0.409 -0.041,0.667 0.509,0.767l0.02,-0.458l0.242,-0.105c0.646,0.309 1.171,1.025 1.813,1.38c0.662,0.308 1.558,0.562 2.27,0.766l-1.195,-1.071c-1.825,-0.87 -3.821,-2.654 -5.209,-4.137c-0.108,-0.1 -0.521,-0.458 -0.358,-0.613c0.35,0.05 0.433,0.409 0.637,0.563c1.409,1.325 2.692,2.042 4.15,3.112c0.917,0.667 1.738,1.688 2.642,2.4c0.375,0.259 0.708,0.613 1.167,0.409c-0.217,-0.304 -0.504,-0.559 -0.754,-0.867c-1.667,-1.787 -4.767,-3.575 -6.825,-5.208c-0.155,-0.104 -0.925,-0.717 -0.675,-0.917l0.42,0.254c-0.45,-0.666 -0.6,-1.483 -0.662,-2.25c-0.996,-0.408 -2.092,-1.121 -2.596,-2.091c-0.721,0.05 -2.162,-0.05 -2.712,0.458c-0.188,0.204 -0.359,0.717 -0.546,0.717c-1.371,-0.717 -3.021,-0.513 -4.367,0.154c-0.346,0.204 -0.654,0.458 -0.992,0.662c-0.341,0.154 -0.825,0.204 -1.154,0.359c-0.316,0.154 -0.425,0.408 -0.7,0.562c-0.6,-0.054 -1.187,-0.258 -1.787,-0.358c-2.917,-0.463 -5.854,-0.971 -8.788,-1.429c-0.708,-0.105 -0.975,-0.205 -1.262,0.558c-0.338,0.921 -0.204,1.787 -0.121,2.708" style="fill:#81c2ff;fill-rule:nonzero;"/><path d="M345.956,84.003c-0.505,-0.154 -1.488,-0.254 -1.905,0.05c-0.495,0.408 -1.404,2.758 -1.579,3.421c-0.3,1.125 -0.246,1.991 1.154,2.145c0.738,0.105 1.6,-0.358 2.33,-0.358c1.95,0 3.454,2.4 5.9,1.842c0.658,-0.154 1.454,-1.075 1.316,-1.738c-0.429,-2.096 -5.271,-4.904 -7.216,-5.362" style="fill:#81c2ff;fill-rule:nonzero;"/><path d="M317.579,80.581c-1.25,0.921 -1.342,1.329 -0.067,2.35c0.925,0.767 1.925,1.329 3.15,1.275c0.921,-0.05 1.913,-0.971 2.871,-0.662c0.308,-1.225 1.071,-2.35 1.896,-3.321l1.142,-0.767c-2.925,-1.429 -6.463,-0.817 -8.992,1.125" style="fill:#81c2ff;fill-rule:nonzero;"/><path d="M341.35,88.803c2.258,2.196 -1.313,4.596 -2.55,1.584l-2.754,1.275c0.52,-0 0.937,0.204 1.379,0.308c0.158,0.05 0.354,-0.05 0.566,-0c2.342,0.662 2.813,1.479 3.367,3.729c0.258,1.021 0.45,2.192 0.538,3.217c0.995,-0.463 2.004,-0.463 3.079,-0.359c-0.571,-1.837 -0.659,-3.883 -1.263,-5.72c-0.429,-1.275 -1.1,-2.555 -1.55,-3.83c-0.087,-0.254 -0.112,-0.662 -0.104,-0.92l-0.708,0.716Z" style="fill:#81c2ff;fill-rule:nonzero;"/><path d="M327.511,92.582c-0.175,0.1 0.413,0.509 0.363,0.767c-0.071,0.254 -0.3,0.408 -0.575,0.408c-0.38,-0.05 -0.742,-0.766 -1.117,-0.92c-0.238,-0.1 -0.55,-0.1 -0.8,-0.155c-0.821,-0.304 -2.563,-1.275 -3.029,-0.05c-0.404,1.021 0.446,1.788 1.212,2.35c1.609,1.225 5.321,2.246 7.304,2.092c0.992,-0.05 2.225,-0.508 2.484,-1.583c-1.634,0.512 -3.459,-0.663 -4.617,-1.734c-0.192,-0.204 -1.071,-1.279 -1.225,-1.175" style="fill:#81c2ff;fill-rule:nonzero;"/><path d="M353.431,89.773c-0.512,1.071 -1.183,1.379 -0.629,2.654c0.554,1.28 2.171,1.838 3.475,1.688c1.075,-0.104 1.929,-1.125 3.134,-0.817c0.129,-0.258 -0.213,-0.204 -0.405,-0.308c-0.5,-0.308 -1.062,-1.429 -1.562,-1.942c-0.942,-0.916 -2.696,-1.479 -4.013,-1.275" style="fill:#81c2ff;fill-rule:nonzero;"/><path d="M342.779,89.569l1.013,2.912c2.279,-0.408 4.642,0.204 6.937,-0.104c0.58,-0.1 1.746,-0.408 1.717,-1.121c-0.437,0 -0.854,0.2 -1.312,0.15c-2.225,-0.15 -3.625,-1.992 -5.596,-1.837c-0.929,0.104 -1.85,0.612 -2.759,-0" style="fill:#81c2ff;fill-rule:nonzero;"/><path d="M315.306,91.357l6.496,1.379c0.338,-0 0.367,-0.459 0.629,-0.663c0.171,-0.154 0.53,-0.204 0.671,-0.358l-1.529,-1.175c0.117,0.817 -0.092,0.917 -0.875,0.662c0.042,-0.766 -0.217,-1.479 -0.642,-2.091c-0.125,0.354 0.375,1.021 0.059,1.275c-0.284,0.204 -0.909,0.05 -0.875,-0.359l-0.088,0c-0.087,0.259 -0.375,0.409 -0.625,0.309c-0.429,-0.204 -0.454,-1.021 -0.621,-1.484c-0.066,-0.15 -0.312,-0.866 -0.512,-0.866l-2.088,3.371Z" style="fill:#81c2ff;fill-rule:nonzero;"/><path d="M323.921,88.344c-0.587,-1.225 -1.083,-2.45 -0.775,-3.83c-0.25,0.1 -0.471,0.921 -0.779,0.563l-0.05,-0.154c-0.042,-0.409 0.404,-0.767 0.558,-1.125c-1.221,0.308 -2.216,0.971 -3.521,0.462c-0.183,1.021 0.496,2.296 1.259,2.909c0.187,0.204 0.912,0.662 1.112,0.716l2.196,0.459Z" style="fill:#81c2ff;fill-rule:nonzero;"/><path d="M344.031,92.939l0.708,3.78c0.712,0.304 1.254,1.02 1.954,1.379c0.129,0.1 0.129,0.1 0.296,0.05c0.683,-0.254 1.204,-1.584 1.075,-2.3l-4.033,-2.909Z" style="fill:#81c2ff;fill-rule:nonzero;"/><path d="M333.69,94.369c0.075,0.867 -0.071,1.633 -0.679,2.3c0.733,0.05 1.517,-0.104 2.192,-0.412c0.596,-0.205 0.829,-0.355 0.829,-0.355c1.117,-0.562 2.05,-1.329 2.937,-2.145l1.063,-0.563c-0.679,-0.458 -1.458,-0.817 -2.267,-0.971l-0.121,0.054c-0.587,1.634 -2.325,2.45 -3.954,2.092" style="fill:#81c2ff;fill-rule:nonzero;"/><path d="M328.369,92.939c0.325,0.459 0.95,1.021 1.429,1.33c0.854,0.612 1.946,1.17 3.025,1.07c1.204,-0.154 0.438,-1.583 -0.221,-2.091c-0.791,-0.613 -1.362,-0.204 -2.258,-0.154c-0.642,-0 -1.338,-0.05 -1.975,-0.155" style="fill:#81c2ff;fill-rule:nonzero;"/><path d="M332.434,92.786l0.716,0.562c0.392,0.459 0.217,0.767 0.996,0.817c1.392,0.1 2.829,-0.613 3.292,-1.992c-1.809,-0.716 -3.279,0.359 -5.004,0.613" style="fill:#81c2ff;fill-rule:nonzero;"/><path d="M327.097,98.556c0.067,0.204 0.875,0.563 1.109,0.613c0.5,0.104 1.616,-0.05 1.795,-0.05c0.359,-0.05 1.217,-0.459 1.505,-0.667c0.316,-0.254 1.087,-1.071 0.433,-1.275c-1.221,0.308 -2.458,0.204 -3.683,0.512c-0.342,0.1 -1.338,0.305 -1.159,0.867" style="fill:#81c2ff;fill-rule:nonzero;"/><path d="M340.619,89.314l-1.562,0.971c1.017,2.45 4.025,0.817 2.2,-1.329l-0.638,0.358Z" style="fill:#81c2ff;fill-rule:nonzero;"/><path d="M321.894,88.19l3.417,2.4c-0.184,-0.613 -0.73,-0.817 -1.175,-1.225l-2.242,-1.175Z" style="fill:#81c2ff;fill-rule:nonzero;"/><path d="M342.019,99.22c0.941,0.05 2.058,0.05 2.9,-0.408c-0.959,-0.05 -2.105,-0.254 -2.9,0.408" style="fill:#81c2ff;fill-rule:nonzero;"/><path d="M322.966,88.394c0.021,0.155 0.359,0.309 0.492,0.359c0.296,0.154 0.625,0.304 0.933,0.408l-0.4,-0.612l-1.025,-0.155Z" style="fill:#81c2ff;fill-rule:nonzero;"/><g transform="matrix(1,0,0,1,-852.34,-841.747)"><text x="1129.97px" y="1024.38px" style="font-family:'ArialMT', 'Arial', sans-serif;font-size:33.333px;">T<tspan x="1149.09px 1156.5px " y="1024.38px 1024.38px ">is</tspan>sue</text><g transform="matrix(33.3333,0,0,33.3333,1331.91,1057.72)"></g><text x="1129.97px" y="1057.72px" style="font-family:'ArialMT', 'Arial', sans-serif;font-size:33.333px;">reconstructed</text></g><g transform="matrix(1,0,0,1,-1005.35,-841.747)"><text x="1081.65px" y="1024.38px" style="font-family:'ArialMT', 'Arial', sans-serif;font-size:33.333px;">Ti<tspan x="1109.42px " y="1024.38px ">s</tspan>sue</text><g transform="matrix(33.3333,0,0,33.3333,1207.65,1054.38)"></g><text x="1081.65px" y="1054.38px" style="font-family:'ArialMT', 'Arial', sans-serif;font-size:33.333px;">scanned</text></g></svg>