<?xml version="1.0" encoding="UTF-8" standalone="no"?><!DOCTYPE svg PUBLIC "-//W3C//DTD SVG 1.1//EN" "http://www.w3.org/Graphics/SVG/1.1/DTD/svg11.dtd"><svg width="100%" height="100%" viewBox="0 0 546 410" version="1.1" xmlns="http://www.w3.org/2000/svg" xmlns:xlink="http://www.w3.org/1999/xlink" xml:space="preserve" xmlns:serif="http://www.serif.com/" style="fill-rule:evenodd;clip-rule:evenodd;stroke-linejoin:round;stroke-miterlimit:10;"><rect x="263.452" y="308.123" width="21.546" height="21.546" style="fill:#ed7569;"/><rect x="63.16" y="308.123" width="21.546" height="21.546" style="fill:#81c2ff;"/><path d="M258.349,96.22c-0.462,0 -0.925,0.117 -1.271,0.463c-0.462,0.404 -0.579,1.158 -0.462,1.792c0.171,0.637 0.521,1.158 0.925,1.679c1.212,1.558 2.6,3.004 4.162,4.216c0.692,-0.229 1.329,-0.516 2.025,-0.75c0.171,-0.116 0.404,-0.175 0.517,-0.345c0.058,-0.175 -0.058,-0.35 -0.171,-0.35c-0.058,-0 -0.117,0.058 -0.117,0.058c0.175,-1.5 -0.229,-3.063 -1.158,-4.333c-0.867,-1.217 -2.254,-2.084 -3.754,-2.371c-0.233,-0 -0.463,-0.059 -0.696,-0.059m0,0.809c0.175,-0 0.346,0.058 0.521,0.058c1.329,0.233 2.542,0.983 3.296,2.083c0.808,1.038 1.154,2.425 0.983,3.7l0,0.113c-0.292,0.058 -0.521,0.175 -0.754,0.292c-0.171,0.058 -0.346,0.112 -0.575,0.17c-1.333,-1.095 -2.546,-2.37 -3.646,-3.758c-0.287,-0.404 -0.633,-0.921 -0.75,-1.387c-0.117,-0.405 0,-0.867 0.175,-1.038c0.171,-0.117 0.404,-0.233 0.75,-0.233" style="fill:#81c2ff;fill-rule:nonzero;"/><path d="M269.797,95.988c-1.213,0 -2.892,1.159 -3.525,1.967c-0.984,1.212 -1.388,2.833 -1.159,4.337c0.175,0.809 0.521,1.675 1.271,1.963c0.175,0.058 0.404,0.058 0.579,0.058c0.75,0 1.504,-0.521 2.084,-1.154c1.095,-1.217 1.908,-2.833 2.195,-4.454c0.059,-0.521 0.117,-1.042 0,-1.5c-0.229,-0.929 -0.75,-1.217 -1.445,-1.217m-0,0.809c0.287,-0 0.52,-0 0.637,0.579c0.113,0.287 0.058,0.696 0,1.158c-0.292,1.5 -0.983,2.946 -1.967,4.104c-0.52,0.575 -1.1,0.925 -1.504,0.925c-0.116,0 -0.175,-0.058 -0.287,-0.058c-0.404,-0.175 -0.696,-0.808 -0.754,-1.329c-0.23,-1.271 0.175,-2.717 0.983,-3.7c0.521,-0.696 1.967,-1.679 2.892,-1.679" style="fill:#81c2ff;fill-rule:nonzero;"/><path d="M264.998,102.349c-5.783,-0 -18.792,7.746 -19.425,11.446c-0.638,3.7 -3.758,10.004 3.817,15.783c4.162,3.237 10.345,4.975 16.358,4.975c7.054,-0 13.821,-2.371 16.654,-7.517c1.792,-3.237 3.121,-13.762 -2.317,-17.575c-5.258,-3.7 -10.404,-7.054 -14.97,-7.112l-0.117,-0m-0,0.75l0.117,-0c4.391,0.116 9.537,3.529 14.508,6.996c4.858,3.412 3.817,13.412 2.083,16.537c-2.429,4.45 -8.383,7.108 -15.958,7.108c-6.071,0 -12.025,-1.791 -15.896,-4.795c-6.012,-4.625 -4.858,-9.367 -3.933,-13.125c0.175,-0.696 0.346,-1.33 0.462,-1.909c0.175,-1.158 2.6,-3.7 7.4,-6.533c4.338,-2.6 8.729,-4.279 11.217,-4.279" style="fill:#81c2ff;fill-rule:nonzero;"/><path d="M250.082,170.454c-2.717,3.412 -5.146,6.996 -7.283,10.754c-0.867,1.504 -1.679,3.004 -1.909,4.625c-0.404,2.429 0.346,4.912 -0.345,7.225c-0.755,2.604 -3.125,4.337 -5.38,5.783c-2.195,1.504 -4.625,3.004 -5.725,5.492c-0.925,2.083 -0.75,4.45 -0.462,6.708c0.754,6.071 2.142,12.138 4.108,17.979c-5.204,11.042 -11.158,22.317 -20.641,30.121c-0.75,0.638 -1.621,1.329 -2.025,2.254c-0.463,0.984 -0.171,2.313 0.754,2.717c0.229,0.058 0.404,0.117 0.633,0.117c0.867,-0 1.679,-0.692 2.371,-1.329c6.071,-6.246 10.467,-13.934 14.8,-21.509c1.792,-3.062 3.529,-6.129 5.262,-9.191c0.75,-1.213 1.446,-2.488 1.621,-3.934c0.113,-1.441 -0.35,-2.829 -0.812,-4.162c-0.75,-2.196 -1.504,-4.392 -2.254,-6.588c-0.75,-2.083 -1.446,-4.279 -1.33,-6.475c0.175,-2.258 1.388,-4.566 3.525,-5.262c4.221,-1.388 7.171,-5.204 10.234,-8.384c1.504,-1.562 2.95,-3.179 3.991,-5.087c1.675,-3.121 2.138,-6.767 2.6,-10.35c0.463,-3.988 -0.17,-7.746 -1.733,-11.504m-0.233,1.621c1.158,3.295 1.562,6.529 1.158,9.825c-0.404,3.412 -0.867,6.995 -2.487,10.004c-1.042,1.908 -2.425,3.466 -3.871,4.912c-0.463,0.521 -0.984,1.042 -1.446,1.621c-2.546,2.658 -5.146,5.492 -8.5,6.592c-2.546,0.866 -3.875,3.583 -4.046,5.954c-0.117,2.371 0.633,4.742 1.388,6.821l2.079,6.012l0.175,0.579c0.404,1.155 0.866,2.542 0.75,3.817c-0.113,1.271 -0.867,2.483 -1.504,3.583l-5.259,9.192c-4.221,7.458 -8.671,15.092 -14.683,21.333c-0.983,0.984 -1.563,1.1 -1.796,1.1c-0.112,0 -0.229,0 -0.287,-0.058c-0.175,-0.058 -0.346,-0.233 -0.405,-0.404c-0.175,-0.404 -0.116,-0.867 0,-1.217c0.346,-0.75 1.042,-1.271 1.734,-1.904l0.116,-0.117c9.888,-8.095 15.959,-19.945 20.813,-30.354l0.175,-0.287l-0.117,-0.346c-1.908,-5.783 -3.296,-11.738 -4.046,-17.808c-0.291,-2.142 -0.462,-4.396 0.346,-6.305c0.984,-2.137 3.179,-3.583 5.321,-4.97l0.171,-0.117c2.312,-1.5 4.858,-3.35 5.667,-6.242c0.404,-1.387 0.345,-2.833 0.287,-4.279c-0.058,-1.042 -0.117,-2.079 0.058,-3.004c0.292,-1.563 1.042,-3.008 1.85,-4.396c1.909,-3.296 4.046,-6.533 6.359,-9.537" style="fill:#81c2ff;fill-rule:nonzero;"/><path d="M281.765,181.786c-0.75,-0 -1.621,0.171 -2.43,0.637c-2.833,1.388 -3.875,5.142 -3.062,8.209c0.867,3.004 3.237,5.433 5.779,7.283c2.546,1.85 5.438,3.296 7.921,5.204c2.546,1.908 4.742,4.45 5.379,7.575c1.038,5.2 -2.717,10.175 -3.008,15.492c-0.229,4.683 2.196,9.137 4.683,13.125c4.508,7.341 9.367,14.454 14.513,21.333c1.041,1.329 2.195,2.717 3.816,3.121c0.171,0.058 0.346,0.058 0.575,0.058c1.446,0 3.009,-1.212 2.663,-2.658c-2.95,-0.233 -5.088,-2.775 -6.884,-5.204c-3.87,-5.146 -7.512,-10.409 -11.041,-15.784c-2.254,-3.583 -4.509,-7.341 -4.8,-11.562c-0.229,-4.279 1.621,-8.325 3.008,-12.429c1.329,-4.046 2.138,-8.729 -0.117,-12.434c-1.154,-1.962 -3.062,-3.35 -4.97,-4.679c-1.909,-1.387 -4.046,-2.833 -5.205,-4.975c-1.095,-2.021 -0.808,-3.929 -0.925,-6.071c-0.229,-3.237 -2.775,-6.241 -5.895,-6.241m-0,0.808c2.541,0 4.858,2.488 5.087,5.492c0,0.521 0.058,0.983 0.058,1.504c0,1.562 0.059,3.237 0.984,4.912c1.212,2.2 3.354,3.759 5.258,5.092l0.175,0.171c1.675,1.217 3.642,2.546 4.742,4.454c1.733,2.775 1.733,6.646 0.058,11.733c-0.292,0.755 -0.579,1.563 -0.812,2.313c-1.213,3.354 -2.425,6.767 -2.196,10.408c0.233,4.338 2.546,8.267 4.916,11.909c3.467,5.379 7.167,10.754 11.042,15.9c1.85,2.487 3.929,4.8 6.763,5.375c-0.059,0.175 -0.117,0.291 -0.23,0.404c-0.345,0.466 -1.041,0.754 -1.679,0.754l-0.404,-0c-1.329,-0.346 -2.312,-1.563 -3.354,-2.833c-5.083,-6.821 -10,-13.992 -14.45,-21.275c-2.429,-3.992 -4.8,-8.209 -4.571,-12.721c0.117,-2.138 0.871,-4.279 1.563,-6.359c0.983,-3.008 2.083,-6.07 1.445,-9.308c-0.579,-2.892 -2.545,-5.667 -5.666,-8.037c-1.388,-1.096 -2.892,-1.963 -4.334,-2.888c-1.216,-0.696 -2.487,-1.504 -3.645,-2.312c-2.946,-2.142 -4.796,-4.455 -5.434,-6.884c-0.75,-2.541 0.059,-6.012 2.6,-7.283c0.696,-0.346 1.388,-0.521 2.084,-0.521" style="fill:#81c2ff;fill-rule:nonzero;"/><path d="M336.341,115.299c-1.791,-0 -3.237,2.025 -2.716,3.7c-8.267,5.321 -16.592,10.579 -24.921,15.9c-1.675,1.096 -3.467,2.254 -4.567,3.929c-1.212,1.908 -1.442,4.221 -1.617,6.475l-1.329,15.267c-0.291,3.004 -0.579,6.183 -2.312,8.729c-1.796,2.716 -5.029,4.221 -8.213,4.796c-1.154,0.175 -2.312,0.233 -3.466,0.233c-1.68,-0 -3.296,-0.117 -4.971,-0.233c-0.638,-0.059 -1.679,-0.23 -2.721,-0.23c-0.979,0 -1.908,0.113 -2.367,0.692c-2.95,3.646 11.271,6.129 13.063,6.475c1.908,0.408 3.875,0.696 5.841,0.696c2.542,-0 5.03,-0.521 7.167,-1.967c3.7,-2.541 5.146,-7.458 4.975,-11.966c-0.175,-4.509 -1.679,-8.846 -2.546,-13.3c-0.925,-4.45 -1.154,-9.25 0.984,-13.238c2.079,-3.817 5.954,-6.246 9.654,-8.5l22.837,-13.875c0.463,-1.675 -0.983,-3.583 -2.775,-3.583m0,-0l0,0.75c0.579,-0 1.213,0.35 1.621,0.866c0.346,0.467 0.463,0.984 0.463,1.505l-11.159,6.708l-11.391,6.937c-3.471,2.08 -7.746,4.684 -9.946,8.846c-1.904,3.467 -2.254,7.979 -1.096,13.759c0.287,1.387 0.637,2.775 0.983,4.162c0.692,2.95 1.446,5.954 1.559,8.963c0.175,4.97 -1.559,9.191 -4.625,11.329c-1.792,1.216 -3.988,1.796 -6.705,1.796c-1.679,-0 -3.529,-0.234 -5.666,-0.638c-0.117,-0.058 -0.288,-0.058 -0.521,-0.117c-10.35,-2.02 -12.025,-3.758 -12.313,-4.45c0,-0.058 -0.058,-0.291 0.23,-0.637c0.058,-0.117 0.462,-0.404 1.733,-0.404c0.637,-0 1.387,0.058 1.908,0.116c0.292,0.059 0.579,0.059 0.754,0.059l0.692,0.058c1.446,0.113 2.892,0.229 4.338,0.229c1.329,0 2.487,-0.116 3.583,-0.287c3.817,-0.638 6.996,-2.488 8.787,-5.146c1.85,-2.717 2.142,-6.246 2.371,-9.079l1.388,-15.263c0.175,-2.021 0.346,-4.333 1.504,-6.071c1.042,-1.616 2.775,-2.716 4.337,-3.7l12.255,-7.862l12.662,-8.033l0.521,-0.35l-0.175,-0.575c-0.175,-0.58 -0.058,-1.217 0.346,-1.796c0.408,-0.575 0.983,-0.867 1.562,-0.925l0,-0.75Z" style="fill:#81c2ff;fill-rule:nonzero;"/><path d="M192.383,117.265c-0.696,-0 -1.446,0.287 -1.792,0.925c-0.346,0.637 -0.116,1.562 0.346,2.195c0.463,0.58 1.158,0.984 1.85,1.388c5.783,3.296 11.504,6.65 17.288,9.946c4.912,2.833 10.175,6.012 12.312,11.216c2.313,5.492 0.638,11.967 2.892,17.4c1.733,4.221 5.55,7.284 9.712,9.08c1.967,0.866 4.05,1.445 6.188,1.908c1.387,0.287 3.641,1.096 5.262,1.096c0.288,-0 0.521,-0 0.75,-0.059c3.296,-0.691 0.867,-5.895 -0.75,-7.283c-2.083,-1.792 -4.858,-2.487 -7.287,-3.642c-4.796,-2.137 -8.729,-6.07 -10.984,-10.754c-2.312,-4.858 -2.891,-10.521 -6.187,-14.741c-2.138,-2.834 -5.317,-4.742 -8.383,-6.534c-6.242,-3.758 -12.43,-7.458 -18.671,-11.158c-0.696,-0.404 -1.388,-0.867 -2.2,-0.925c-0.113,-0.058 -0.229,-0.058 -0.346,-0.058m-0,0.808l0.233,-0c0.634,0.117 1.271,0.462 1.904,0.867l9.309,5.55l9.366,5.55c2.95,1.795 6.071,3.645 8.155,6.362c1.908,2.483 2.887,5.492 3.87,8.671c0.638,1.967 1.275,3.987 2.2,5.954c2.313,4.858 6.475,8.904 11.388,11.158c0.692,0.346 1.446,0.638 2.196,0.925c1.791,0.696 3.529,1.388 4.916,2.546c1.042,0.867 2.43,3.642 2.08,5.088c-0.113,0.462 -0.405,0.75 -0.984,0.808c-0.171,0.058 -0.346,0.058 -0.575,0.058c-1.041,0 -2.487,-0.404 -3.7,-0.695c-0.521,-0.171 -0.983,-0.288 -1.387,-0.405c-2.371,-0.52 -4.338,-1.095 -6.071,-1.85c-4.513,-1.908 -7.808,-4.97 -9.25,-8.612c-1.042,-2.604 -1.217,-5.433 -1.388,-8.383c-0.116,-3.009 -0.291,-6.13 -1.504,-9.021c-2.371,-5.721 -8.325,-9.134 -12.662,-11.621l-10.409,-5.954l-6.879,-3.988c-0.575,-0.346 -1.212,-0.696 -1.616,-1.216c-0.292,-0.346 -0.463,-0.925 -0.234,-1.33c0.117,-0.287 0.579,-0.462 1.042,-0.462" style="fill:#81c2ff;fill-rule:nonzero;"/><path d="M224.123,84.426l-0.117,-0c-0.866,0.058 -1.387,1.041 -1.329,1.908c0.117,0.867 0.638,1.621 1.158,2.313c5.317,7.225 10.925,14.57 12.892,23.358c1.096,4.912 0.925,10.058 1.85,15.029c0.925,5.029 3.179,10.117 7.633,12.546c0.575,0.35 1.271,0.579 1.963,0.579c0.408,0 0.867,-0.117 1.158,-0.404c2.717,-2.313 -2.312,-4.625 -3.7,-5.55c-2.716,-1.792 -4.279,-5.088 -4.916,-8.208c-0.867,-3.817 -0.75,-7.809 -1.388,-11.625c-1.037,-5.721 -3.871,-10.867 -6.587,-15.955c-2.259,-4.104 -4.455,-8.208 -6.709,-12.316c-0.404,-0.809 -1.041,-1.675 -1.908,-1.675m10.754,19.771c1.617,3.295 3.004,6.708 3.642,10.291c0.287,1.734 0.462,3.529 0.579,5.263c0.171,2.137 0.346,4.279 0.808,6.416c0.521,2.255 1.85,6.417 5.263,8.73c0.229,0.175 0.521,0.35 0.866,0.52c1.042,0.58 3.238,1.85 3.296,2.834c0,0.116 0.059,0.404 -0.521,0.866c-0.175,0.175 -0.345,0.234 -0.637,0.234c-0.463,-0 -0.983,-0.175 -1.558,-0.463c-4.917,-2.662 -6.65,-8.616 -7.23,-11.966c-0.462,-2.259 -0.637,-4.625 -0.808,-6.884c-0.233,-2.716 -0.462,-5.491 -1.042,-8.208c-0.633,-2.658 -1.504,-5.204 -2.658,-7.633m-10.754,-18.963c0.346,0 0.75,0.408 1.217,1.275l2.6,4.796l4.104,7.458c0.404,0.809 0.808,1.563 1.216,2.313c-2.37,-4.221 -5.32,-8.15 -8.154,-12.084l-0.637,-0.808c-0.521,-0.696 -0.925,-1.329 -0.984,-1.908c-0.058,-0.288 0.059,-0.634 0.234,-0.867c0.116,-0.117 0.229,-0.175 0.346,-0.175l0.058,0Z" style="fill:#81c2ff;fill-rule:nonzero;"/><path d="M304.369,83.559c-0.346,0 -0.75,0.058 -1.042,0.229c-0.691,0.409 -1.095,1.1 -1.445,1.796c-2.255,4.104 -4.45,8.267 -6.705,12.371c-2.658,4.854 -5.32,9.887 -6.012,15.437c-0.292,2.484 -0.175,5.03 -0.521,7.571c-0.233,1.621 -0.696,3.238 -1.329,4.8c-1.158,2.717 -2.892,5.146 -5.088,7.113c-1.387,1.212 -3.529,3.812 -1.329,5.55c0.346,0.287 0.809,0.404 1.271,0.404c0.692,-0 1.446,-0.288 2.079,-0.579c3.588,-2.021 5.784,-6.013 6.709,-10.059c0.925,-4.05 0.808,-8.212 0.983,-12.375c0.171,-4.162 0.692,-8.379 2.775,-11.966c1.387,-2.313 3.296,-4.221 4.567,-6.534c0.983,-1.908 1.562,-3.987 2.487,-5.954c0.983,-1.966 2.371,-3.816 4.392,-4.566c0.521,-0.75 0.462,-1.909 -0.229,-2.6c-0.405,-0.463 -0.984,-0.638 -1.563,-0.638m0,0.75c0.404,0 0.75,0.175 0.983,0.404c0.346,0.409 0.463,0.984 0.234,1.446c-1.796,0.754 -3.354,2.429 -4.513,4.858c-0.404,0.867 -0.75,1.792 -1.1,2.659c-0.458,1.158 -0.866,2.254 -1.441,3.237c-0.638,1.213 -1.446,2.254 -2.255,3.354c-0.754,0.984 -1.562,2.025 -2.258,3.18c-2.254,3.875 -2.717,8.383 -2.887,12.316c-0.059,0.979 -0.059,1.904 -0.117,2.888c-0.058,3.125 -0.175,6.304 -0.867,9.366c-0.983,4.396 -3.296,7.863 -6.304,9.484c-0.575,0.346 -1.212,0.521 -1.675,0.521c-0.346,-0 -0.579,-0.059 -0.808,-0.234c-0.404,-0.346 -0.579,-0.691 -0.579,-1.1c-0.059,-1.037 0.983,-2.312 1.966,-3.237c2.313,-2.021 4.104,-4.567 5.317,-7.4c0.696,-1.617 1.158,-3.296 1.387,-4.971c0.175,-1.388 0.234,-2.775 0.292,-4.104c0.058,-1.159 0.113,-2.371 0.229,-3.529c0.638,-5.434 3.471,-10.58 5.896,-15.146l4.279,-7.804l2.429,-4.509c0.346,-0.696 0.692,-1.216 1.155,-1.504c0.175,-0.117 0.408,-0.175 0.637,-0.175" style="fill:#81c2ff;fill-rule:nonzero;"/><path d="M268.525,146.345c-3.296,0 -6.592,0.288 -9.829,0.867c-3.179,0.521 -8.671,1.042 -11.329,3.063c-1.621,1.158 -0.409,1.966 0.404,3.587c0.808,1.558 1.387,3.179 1.791,4.854c0.867,3.354 0.984,6.825 0.346,10.175c-1.041,5.842 -4.279,11.1 -6.358,16.65c-5.492,14.863 -2.488,31.625 3.987,46.079c1.563,3.53 3.413,6.996 6.188,9.713c2.483,2.487 5.896,4.279 9.367,4.279c0.345,0 0.691,-0.058 1.037,-0.058c4.454,-0.463 8.096,-3.759 10.929,-7.225c5.088,-6.304 8.671,-13.763 11.042,-21.45c2.025,-6.475 3.237,-13.125 3.7,-19.829c0.292,-4.8 0.175,-9.888 -2.254,-14.109c-1.734,-3.062 -4.567,-5.433 -6.534,-8.383c-2.775,-4.163 -3.7,-9.538 -2.429,-14.454c0.754,-3.063 2.371,-6.242 1.217,-9.192c-1.446,-3.467 -5.842,-4.392 -9.542,-4.508c-0.579,-0 -1.154,-0.059 -1.733,-0.059m-0,0.809c0.579,-0 1.154,0.058 1.675,0.058c3.354,0.058 7.575,0.867 8.846,3.992c0.808,2.021 0.116,4.275 -0.634,6.646c-0.233,0.695 -0.462,1.387 -0.637,2.083c-1.271,5.087 -0.346,10.696 2.6,15.087c0.867,1.388 1.967,2.6 3.008,3.817c1.329,1.504 2.546,2.892 3.471,4.508c2.425,4.221 2.425,9.484 2.138,13.646c-0.463,6.646 -1.675,13.238 -3.642,19.6c-2.604,8.384 -6.246,15.492 -10.929,21.217c-3.467,4.337 -6.879,6.592 -10.346,6.937c-0.35,0.059 -0.638,0.059 -0.983,0.059c-3.009,-0 -6.246,-1.446 -8.846,-4.046c-2.717,-2.663 -4.567,-6.304 -5.954,-9.483c-7.405,-16.363 -8.792,-32.492 -3.992,-45.442c0.696,-1.967 1.621,-3.875 2.429,-5.783c1.617,-3.467 3.296,-7.109 3.988,-10.984c0.637,-3.412 0.52,-7.054 -0.346,-10.521c-0.463,-1.737 -1.096,-3.47 -1.85,-5.029c-0.229,-0.408 -0.463,-0.754 -0.634,-1.1c-0.637,-1.041 -0.637,-1.041 -0.058,-1.504c2.138,-1.558 6.358,-2.196 9.421,-2.658c0.579,-0.117 1.1,-0.175 1.621,-0.292c3.179,-0.517 6.416,-0.808 9.654,-0.808" style="fill:#81c2ff;fill-rule:nonzero;"/><path d="M243.954,147.906c-4.684,0 -11.042,2.95 -14.05,4.104c-12.892,4.859 -25.496,10.58 -37.692,17.113c-6.708,3.587 -13.358,7.458 -19.833,11.504c-4.684,3.008 -9.309,6.071 -13.125,10.121c-3.813,3.987 -6.763,9.017 -7.513,14.508c-1.041,8.384 3.525,16.884 10.346,21.796c4.108,3.008 11.854,3.704 19.254,3.704c4.971,0 9.771,-0.35 13.179,-0.521c8.442,-0.462 13.125,-1.795 16.192,-2.833c11.158,-3.992 22.371,-9.308 29.6,-18.675c6.821,-8.904 9.133,-20.467 9.479,-31.683c0.059,-2.892 0,-5.779 -0.229,-8.613c-0.404,-5.725 2.658,-14.225 -1.1,-18.791c-1.037,-1.271 -2.6,-1.734 -4.508,-1.734m-0,0.809c1.85,-0 3.121,0.462 3.875,1.387c2.312,2.833 1.791,7.4 1.329,11.854c-0.292,2.313 -0.521,4.509 -0.346,6.534c0.171,2.658 0.229,5.491 0.171,8.554c-0.346,13.125 -3.525,23.587 -9.308,31.162c-7.575,9.829 -19.6,14.975 -29.255,18.442c-2.716,0.983 -7.4,2.312 -15.954,2.775l-1.504,0.117c-3.296,0.175 -7.342,0.404 -11.621,0.404c-9.25,-0 -15.554,-1.154 -18.791,-3.525c-7.05,-5.088 -10.984,-13.354 -10,-21.104c0.808,-6.125 4.391,-10.984 7.283,-14.046c3.875,-4.05 8.558,-7.113 13.008,-9.946c6.417,-4.046 13.067,-7.921 19.775,-11.504c12.079,-6.475 24.742,-12.2 37.579,-17.054c0.521,-0.234 1.155,-0.467 1.85,-0.755c3.292,-1.329 8.209,-3.295 11.909,-3.295" style="fill:#81c2ff;fill-rule:nonzero;"/><path d="M281.765,148.079c-1.621,4.046 -2.084,8.096 -3.471,12.2c-1.154,3.354 -0,5.55 0.408,8.958c1.154,8.384 0.808,16.942 3.467,25.092c3.641,11.104 12.546,19.95 22.779,25.729c10.292,5.725 21.796,8.617 33.3,10.984c4.512,0.925 9.079,1.795 13.646,1.795l0.579,0c4.796,-0.058 9.654,-1.158 13.642,-3.875c7.112,-4.916 10.062,-14.512 8.5,-23.012c-1.621,-8.554 -7.113,-15.896 -13.759,-21.446c-6.708,-5.55 -14.512,-9.425 -22.258,-13.3c-9.138,-4.508 -18.271,-9.017 -27.35,-13.583c-8.958,-4.454 -19.538,-8.963 -29.483,-9.542m0.52,0.808c9.942,0.755 20.467,5.438 28.559,9.484l2.604,1.271l24.8,12.316c7.575,3.759 15.437,7.688 22.087,13.179c5.146,4.28 11.68,11.392 13.471,20.93c1.617,8.675 -1.737,17.808 -8.154,22.2c-3.467,2.37 -8.033,3.7 -13.179,3.758l-0.579,-0c-4.567,-0 -9.134,-0.867 -13.471,-1.733c-11.1,-2.313 -22.779,-5.205 -33.071,-10.984c-11.158,-6.246 -19.137,-15.208 -22.433,-25.266c-1.734,-5.375 -2.196,-11.1 -2.6,-16.65c-0.229,-2.717 -0.463,-5.492 -0.809,-8.209c-0.116,-0.983 -0.291,-1.791 -0.462,-2.604c-0.404,-2.137 -0.754,-3.817 -0,-6.012c0.633,-1.909 1.096,-3.817 1.5,-5.609c0.521,-2.079 0.983,-4.046 1.737,-6.071" style="fill:#81c2ff;fill-rule:nonzero;"/><path d="M264.94,126.226c-1.733,0 -3.467,0.059 -5.204,0.059c-3.525,-0 -6.938,1.27 -9.421,3.758c-3.354,3.237 -4.625,8.15 -4.571,12.833c0.117,4.625 1.446,9.192 2.775,13.646c0.696,2.367 1.446,4.913 3.183,6.704c2.717,2.834 7.055,3.179 10.984,3.354c1.041,0.059 2.137,0.117 3.237,0.117c2.6,0 5.146,-0.292 7.4,-1.446c2.546,-1.329 4.396,-3.7 5.609,-6.246c1.212,-2.6 1.85,-5.433 2.37,-8.208c0.634,-3.7 1.155,-7.458 0.692,-11.158c-0.462,-3.7 -2.021,-7.4 -4.854,-9.829c-2.025,-1.675 -4.625,-2.717 -7.229,-3.18c-1.675,-0.345 -3.35,-0.404 -4.971,-0.404m-0,0.75c1.908,0 3.412,0.175 4.8,0.404c2.833,0.58 5.146,1.563 6.879,3.067c2.483,2.079 4.104,5.375 4.567,9.308c0.462,3.642 -0.059,7.4 -0.696,10.867c-0.575,3.125 -1.154,5.667 -2.25,8.038c-0.929,1.908 -2.546,4.454 -5.321,5.895c-1.792,0.925 -3.933,1.334 -6.996,1.334c-1.041,-0 -2.137,-0.059 -3.237,-0.059c-4.046,-0.233 -7.921,-0.637 -10.409,-3.183c-1.616,-1.675 -2.37,-4.162 -3.004,-6.358c-1.275,-4.334 -2.662,-8.846 -2.716,-13.471c-0.117,-4.971 1.5,-9.421 4.275,-12.2c2.258,-2.254 5.495,-3.525 8.904,-3.525c0.866,-0 1.791,-0 2.658,-0.058c0.813,-0 1.679,-0.059 2.546,-0.059" style="fill:#81c2ff;fill-rule:nonzero;"/><rect x="262.915" y="133.729" width="4.383" height="20.421" style="fill:#ed7569;"/><path d="M281.765,117.554c-0.696,-2.487 -2.605,-3.529 -2.834,-3.7c-0.175,-0.175 -1.504,-0.983 -1.966,-1.042c-0.463,-0.058 -0.925,0.234 -1.096,0.58c-0.175,0.345 -0.292,1.212 -0.292,1.212c0,0 -0.346,-0.112 -0.521,-0.112c-0.171,-0.059 -0.575,0.112 -0.691,0.112c-0.175,0 -0.405,-0.404 -0.405,-0.404c0,-0 1.213,-0.638 1.155,-1.563c-0,-0.92 -0.346,-1.095 -0.575,-1.5c-0.292,-0.462 -0.813,-0.579 -0.813,-0.579c-0.171,-0.808 -2.542,-2.025 -3.179,-2.254c-0.579,-0.175 -1.271,0.058 -1.271,0.058c0,0 -0.292,-0.233 -0.521,-0.291c-0.175,-0 -0.462,0.175 -0.462,0.233c-0,0.113 -0.229,0.171 -0.229,0.171c-1.042,-0.229 -2.142,-0.058 -2.892,0.462c-0.696,0.521 -0.35,1.909 -0.404,2.025c-0,0.175 -0.117,0.059 -0.234,0c-0.116,-0.058 -0.058,-1.27 -0.175,-1.675c-0.112,-0.35 -1.095,-0.87 -1.791,-0.87c-0.634,-0.055 -1.038,0.116 -1.038,0.116c0,0 -0.058,-0.116 -0.233,-0.229c-0.175,-0.117 -0.692,0.058 -0.692,0.058c-1.621,-0.404 -3.125,0.288 -4.279,0.809c-1.217,0.521 -0.925,1.329 -0.925,1.329c0,-0 -0.346,-0.117 -1.042,0.808c-0.637,0.925 0.867,2.546 0.867,2.546c0,0 -0.171,0.867 -0.462,0.692c-0.23,-0.171 -1.096,-0.054 -1.096,-0.054c-0.175,-0.467 -0.638,-1.563 -1.392,-1.68c-0.75,-0.116 -1.792,0.809 -2.196,1.213c-0.346,0.467 -1.271,0.521 -2.079,2.083c-0.808,1.563 -1.446,2.775 -0.521,5.609c0.867,2.833 3.875,4.162 5.375,4.045c1.504,-0.116 2.254,-1.27 2.659,-1.616c0.462,-0.35 0.983,-0.925 1.908,-1.738c0.925,-0.808 0.637,-1.733 0.812,-1.85c0.171,-0.058 0.23,0.117 0.23,0.117c0.233,0.867 1.329,0.983 1.562,1.1c0.171,0.117 0.171,0.75 0.288,1.387c0.116,0.692 0.579,1.096 1.27,1.792c0.405,0.338 0.867,0.392 1.334,0.367l-0,28.829l4.379,-0l-0,-29.117c1.25,-0.371 1.892,-1.191 1.979,-1.987c0.117,-1.1 -0.867,-1.042 0,-1.154c0.867,-0.117 1.563,-1.392 1.733,-1.334c0.175,0 0.175,0.813 0.346,1.334c0.175,0.516 1.275,1.037 1.796,1.329c0.517,0.346 -0.175,2.137 3.121,2.196c3.296,0.058 4.912,-3.238 4.912,-3.238c0,0 1.217,-2.137 0.58,-4.625Z" style="fill:none;fill-rule:nonzero;stroke:#000;stroke-width:1.16px;"/><path d="M259.101,143.743c0,0 4.338,-1.212 5.954,-1.271c1.621,-0.058 5.725,1.734 5.955,1.792c0.291,0.117 -0.634,0.75 -0.634,1.213c0,0.462 -0.233,4.454 -0.175,5.087c0.059,0.638 0.229,2.833 -0.983,5.321c-0,-0 0.117,1.446 -0.288,1.967c-0.462,0.462 1.446,4.22 0.867,5.662c-0.637,1.388 -1.446,2.663 -1.621,3.067c-0.229,0.404 -0.633,-1.271 -0.866,-1.329c-0.23,-0 -0.58,1.387 -1.617,1.329c-1.042,-0 -2.254,-0 -2.95,-1.159c-0.229,-0.287 -0.229,-0.345 -0.579,-0.633c-0.171,-0.175 -0.692,1.042 -0.867,0.925c-0.633,-0.404 -0.521,-1.737 -0.75,-2.142c-0.346,-0.691 -0.696,-1.212 -0.637,-1.904c0.116,-1.562 1.387,-3.066 1.387,-3.816c0,-0.755 -0.692,-1.446 -0.867,-2.775c-0.175,-1.388 -0.866,-4.05 -0.404,-5.321c0.404,-1.329 0.404,-4.971 0.117,-5.204c-0.346,-0.23 -1.042,-0.809 -1.042,-0.809" style="fill:#ed7569;fill-rule:nonzero;stroke:#000;stroke-width:1.16px;"/><path d="M267.542,143.859c2.137,-0.637 3.933,-2.312 4.683,-4.45c0.75,-2.083 0.404,-4.512 -0.867,-6.362" style="fill:none;fill-rule:nonzero;stroke:#ed7569;stroke-width:1.16px;stroke-linejoin:miter;"/><path d="M268.64,145.71c2.542,-0.117 5.03,-1.388 6.534,-3.413c1.562,-2.021 2.137,-4.742 1.562,-7.225" style="fill:none;fill-rule:nonzero;stroke:#ed7569;stroke-width:1.16px;stroke-linejoin:miter;"/><path d="M261.182,144.322c-0.75,0.117 -1.504,-0.175 -2.025,-0.696c-0.575,-0.462 -0.983,-1.154 -1.27,-1.791c-1.1,-2.255 -1.388,-4.913 -0.75,-7.4" style="fill:none;fill-rule:nonzero;stroke:#ed7569;stroke-width:1.16px;stroke-linejoin:miter;"/><path d="M261.414,149.178c-3.296,0.809 -6.709,-1.1 -9.079,-3.583c-2.196,-2.371 -3.755,-5.204 -5.317,-8.038" style="fill:none;fill-rule:nonzero;stroke:#ed7569;stroke-width:1.16px;stroke-linejoin:miter;"/><path d="M267.773,150.046c5.263,-0.638 10.059,-4.338 11.967,-9.309" style="fill:none;fill-rule:nonzero;stroke:#ed7569;stroke-width:1.16px;stroke-linejoin:miter;"/><path d="M261.298,147.039c-2.083,0 -4.104,-0.925 -5.492,-2.429c-1.329,-1.504 -2.083,-3.583 -1.908,-5.667" style="fill:none;fill-rule:nonzero;stroke:#ed7569;stroke-width:1.16px;stroke-linejoin:miter;"/><path d="M263.321,163.227c0.175,7.4 0.346,14.8 0.521,22.258c0.058,2.254 0.117,4.567 -0.404,6.821c-0.463,1.908 -1.329,3.7 -1.621,5.666c-0.287,1.967 0.175,4.28 1.908,5.321" style="fill:none;fill-rule:nonzero;stroke:#ed7569;stroke-width:1.16px;stroke-linejoin:miter;"/><path d="M265.75,163.401c-0.925,6.65 1.329,13.354 1.621,20.062c0.287,6.475 -1.217,13.121 0.516,19.367" style="fill:none;fill-rule:nonzero;stroke:#ed7569;stroke-width:1.16px;stroke-linejoin:miter;"/><path d="M268.235,163.632c0.925,3.525 2.084,7.342 5.03,9.483c1.158,0.867 2.545,1.442 3.354,2.6c0.579,0.925 0.75,2.08 1.1,3.063c0.404,1.042 1.271,2.025 2.366,1.967" style="fill:none;fill-rule:nonzero;stroke:#ed7569;stroke-width:1.16px;stroke-linejoin:miter;"/><path d="M275.752,174.848c-0.234,0.925 -0.059,1.967 0.287,2.892c0.35,0.925 0.754,1.791 1.042,2.716c0.404,1.154 0.521,2.371 0.462,3.584" style="fill:none;fill-rule:nonzero;stroke:#ed7569;stroke-width:1.16px;stroke-linejoin:miter;"/><path d="M268.467,158.428c1.733,-0.233 3.354,0.867 4.396,2.254c1.037,1.33 1.675,4.513 3.179,5.38c0.575,0.345 1.504,0.112 2.196,0.287c1.042,0.175 2.079,0.696 2.833,1.446c0.404,0.462 0.75,0.925 1.213,1.329c0.462,0.404 1.041,0.692 1.621,0.638" style="fill:none;fill-rule:nonzero;stroke:#ed7569;stroke-width:1.16px;stroke-linejoin:miter;"/><path d="M279.683,170.454c0.117,-0.696 0.229,-1.446 0.117,-2.138c-0.175,-0.754 -0.638,-1.446 -1.275,-1.679" style="fill:none;fill-rule:nonzero;stroke:#ed7569;stroke-width:1.16px;stroke-linejoin:miter;"/><path d="M261.529,157.909c-1.85,0.229 -3.583,1.154 -4.858,2.487c-1.271,1.388 -2.021,3.238 -2.079,5.088c-0.059,1.85 0.52,3.641 0.579,5.491c0.058,3.296 -1.621,6.592 -4.396,8.442" style="fill:none;fill-rule:nonzero;stroke:#ed7569;stroke-width:1.16px;stroke-linejoin:miter;"/><path d="M254.534,181.612c-0.175,-0.462 -0.059,-1.042 0.175,-1.504c0.229,-0.463 0.462,-0.925 0.633,-1.388c0.35,-1.27 -0.287,-2.541 -0.867,-3.7" style="fill:none;fill-rule:nonzero;stroke:#ed7569;stroke-width:1.16px;stroke-linejoin:miter;"/><path d="M260.489,153.861c-1.621,-0.229 -3.296,0.404 -4.509,1.446c-1.275,1.041 -2.258,2.429 -3.179,3.758c-1.041,1.446 -2.025,2.95 -3.066,4.392" style="fill:none;fill-rule:nonzero;stroke:#ed7569;stroke-width:1.16px;stroke-linejoin:miter;"/><path d="M269.161,154.034c1.212,0.346 2.487,0.696 3.7,1.1c2.083,0.575 4.162,1.154 6.3,1.096" style="fill:none;fill-rule:nonzero;stroke:#ed7569;stroke-width:1.16px;stroke-linejoin:miter;"/><path d="M269.161,152.473c2.371,0 4.8,0 6.996,-1.041c2.6,-1.271 4.333,-3.817 5.954,-6.242" style="fill:none;fill-rule:nonzero;stroke:#ed7569;stroke-width:1.16px;stroke-linejoin:miter;"/><path d="M261.298,151.26c-5.029,1.446 -10.871,-0.175 -14.454,-4.046" style="fill:none;fill-rule:nonzero;stroke:#ed7569;stroke-width:1.16px;stroke-linejoin:miter;"/><path d="M261.876,163.112c-2.196,2.716 -3.121,6.358 -2.6,9.829c0.575,3.583 2.717,7.054 1.904,10.579c-0.575,2.546 -2.6,4.508 -4.795,6.012c-2.142,1.446 -4.567,2.488 -6.65,4.105c-2.08,1.62 -3.817,3.875 -3.875,6.533" style="fill:none;fill-rule:nonzero;stroke:#ed7569;stroke-width:1.16px;stroke-linejoin:miter;"/><path d="M250.487,199.246c-0.405,-0.809 -0.175,-1.792 0.233,-2.6c0.462,-0.813 1.154,-1.446 1.675,-2.142c0.579,-0.75 0.925,-2.254 0.867,-3.121" style="fill:none;fill-rule:nonzero;stroke:#ed7569;stroke-width:1.16px;stroke-linejoin:miter;"/><path d="M266.732,163.401c1.621,2.025 2.717,4.391 3.354,6.879c0.579,2.546 0.692,5.087 0.984,7.633c0.229,2.6 0.579,5.146 1.675,7.517c1.041,2.308 2.891,4.392 5.32,5.258c0.75,0.292 1.617,0.404 2.371,0.867c0.979,0.579 1.617,1.679 1.904,2.775c0.35,1.1 0.35,2.254 0.409,3.412" style="fill:none;fill-rule:nonzero;stroke:#ed7569;stroke-width:1.16px;stroke-linejoin:miter;"/><path d="M277.197,197.742c-0.404,-0.75 -0.117,-1.62 0.233,-2.429c0.346,-0.75 0.809,-1.562 0.517,-2.371c-0.171,-0.633 -0.692,-1.095 -1.154,-1.504c-0.521,-0.462 -0.983,-1.037 -0.925,-1.675" style="fill:none;fill-rule:nonzero;stroke:#ed7569;stroke-width:1.16px;stroke-linejoin:miter;"/><g transform="matrix(1,0,0,1,-833.234,-694.747)"><text x="1129.97px" y="1024.38px" style="font-family:'ArialMT', 'Arial', sans-serif;font-size:33.333px;">T<tspan x="1149.09px 1156.5px " y="1024.38px 1024.38px ">is</tspan>sue</text><g transform="matrix(33.3333,0,0,33.3333,1331.91,1057.72)"></g><text x="1129.97px" y="1057.72px" style="font-family:'ArialMT', 'Arial', sans-serif;font-size:33.333px;">reconstructed</text></g><g transform="matrix(1,0,0,1,-986.247,-694.747)"><text x="1081.65px" y="1024.38px" style="font-family:'ArialMT', 'Arial', sans-serif;font-size:33.333px;">Ti<tspan x="1109.42px " y="1024.38px ">s</tspan>sue</text><g transform="matrix(33.3333,0,0,33.3333,1207.65,1054.38)"></g><text x="1081.65px" y="1054.38px" style="font-family:'ArialMT', 'Arial', sans-serif;font-size:33.333px;">scanned</text></g></svg>