<?xml version="1.0" encoding="UTF-8" standalone="no"?><!DOCTYPE svg PUBLIC "-//W3C//DTD SVG 1.1//EN" "http://www.w3.org/Graphics/SVG/1.1/DTD/svg11.dtd"><svg width="100%" height="100%" viewBox="0 0 546 360" version="1.1" xmlns="http://www.w3.org/2000/svg" xmlns:xlink="http://www.w3.org/1999/xlink" xml:space="preserve" xmlns:serif="http://www.serif.com/" style="fill-rule:evenodd;clip-rule:evenodd;stroke-linejoin:round;stroke-miterlimit:10;"><rect x="263.452" y="273.268" width="21.546" height="21.546" style="fill:#ed7569;"/><rect x="63.16" y="273.268" width="21.546" height="21.546" style="fill:#81c2ff;"/><path d="M250.681,76.872c0,-0 -1.504,-1.621 -0.866,-2.546c0.691,-0.925 1.041,-0.809 1.041,-0.809c0,0 -0.291,-0.808 0.925,-1.329c1.154,-0.521 2.659,-1.212 4.279,-0.808c0,-0 0.517,-0.175 0.692,-0.058c0.175,0.116 0.233,0.229 0.233,0.229c0,-0 0.405,-0.171 1.038,-0.113c0.696,0 1.679,0.521 1.792,0.867c0.116,0.404 0.191,15.871 -0.288,15.9c-0.754,0.042 -1.733,0.404 -2.487,-0.233c-0.692,-0.692 -1.155,-1.096 -1.271,-1.792c-0.117,-0.638 -0.117,-1.271 -0.346,-1.388c-0.175,-0.116 -1.271,-0.233 -1.504,-1.1c-0,0 -0.059,-0.17 -0.229,-0.116c-0.175,0.116 0.112,1.041 -0.813,1.854c-0.925,0.808 -1.446,1.387 -1.908,1.733c-0.404,0.346 -1.154,1.504 -2.659,1.617c-1.504,0.117 -4.508,-1.213 -5.375,-4.046c-0.925,-2.833 -0.291,-4.046 0.521,-5.608c0.809,-1.559 1.734,-1.617 2.079,-2.079c0.405,-0.409 1.446,-1.334 2.196,-1.217c0.754,0.117 1.217,1.217 1.388,1.679c-0,0 0.866,-0.117 1.1,0.058c0.287,0.171 0.462,-0.695 0.462,-0.695" style="fill:#ed7569;fill-rule:nonzero;"/><path d="M253.479,58.979c-0.463,-0 -0.925,0.116 -1.271,0.462c-0.521,0.404 -0.638,1.159 -0.463,1.792c0.171,0.637 0.521,1.158 0.925,1.679c1.213,1.558 2.6,3.004 4.105,4.217c0.75,-0.229 1.387,-0.517 2.079,-0.75c0.175,-0.117 0.408,-0.175 0.462,-0.346c0.117,-0.175 0,-0.35 -0.171,-0.35c0,-0 -0.058,0.058 -0.116,0.058c0.233,-1.5 -0.175,-3.062 -1.1,-4.333c-0.867,-1.217 -2.254,-2.083 -3.754,-2.371c-0.234,0 -0.463,-0.058 -0.696,-0.058m-0,0.808c0.175,0 0.346,0.058 0.521,0.058c1.329,0.234 2.487,0.984 3.295,2.084c0.75,1.037 1.096,2.425 0.984,3.7l-0.059,0.112c-0.233,0.059 -0.462,0.175 -0.695,0.292c-0.171,0.058 -0.405,0.112 -0.575,0.171c-1.334,-1.096 -2.605,-2.371 -3.646,-3.759c-0.288,-0.404 -0.634,-0.92 -0.75,-1.387c-0.117,-0.404 -0.059,-0.867 0.175,-1.038c0.171,-0.116 0.404,-0.233 0.75,-0.233" style="fill:#81c2ff;fill-rule:nonzero;"/><path d="M264.926,58.747c-1.213,-0 -2.892,1.158 -3.525,1.966c-0.983,1.213 -1.388,2.834 -1.158,4.338c0.116,0.808 0.52,1.675 1.27,1.962c0.175,0.059 0.35,0.059 0.521,0.059c0.809,-0 1.563,-0.521 2.142,-1.155c1.096,-1.216 1.85,-2.833 2.137,-4.454c0.117,-0.521 0.175,-1.041 0.059,-1.5c-0.234,-0.929 -0.75,-1.216 -1.446,-1.216m-0,0.808c0.287,-0 0.521,-0 0.637,0.579c0.059,0.288 0.059,0.696 0,1.158c-0.291,1.5 -0.983,2.946 -2.025,4.105c-0.462,0.575 -1.041,0.925 -1.504,0.925c-0.058,-0 -0.171,-0.059 -0.229,-0.059c-0.404,-0.175 -0.696,-0.808 -0.754,-1.329c-0.229,-1.271 0.117,-2.717 0.983,-3.7c0.521,-0.696 1.967,-1.679 2.892,-1.679" style="fill:#81c2ff;fill-rule:nonzero;"/><path d="M260.128,65.107c-5.784,0 -18.792,7.746 -19.425,11.446c-0.638,3.7 -3.759,10.004 3.758,15.783c4.221,3.238 10.404,4.975 16.417,4.975c7.054,0 13.82,-2.371 16.654,-7.516c1.791,-3.238 3.121,-13.763 -2.317,-17.575c-5.258,-3.7 -10.404,-7.055 -14.971,-7.113l-0.116,0m-0,0.75l0.116,0c4.334,0.117 9.538,3.529 14.509,6.996c4.858,3.412 3.816,13.412 2.083,16.537c-2.429,4.45 -8.442,7.109 -15.958,7.109c-6.071,-0 -12.025,-1.792 -15.896,-4.796c-6.013,-4.625 -4.859,-9.367 -3.934,-13.125c0.175,-0.696 0.346,-1.329 0.405,-1.908c0.233,-1.159 2.604,-3.7 7.458,-6.534c4.337,-2.6 8.729,-4.279 11.217,-4.279" style="fill:#81c2ff;fill-rule:nonzero;"/><path d="M245.211,133.212c-2.717,3.413 -5.146,6.996 -7.342,10.754c-0.808,1.504 -1.621,3.004 -1.908,4.625c-0.346,2.429 0.404,4.913 -0.288,7.225c-0.754,2.604 -3.125,4.338 -5.379,5.784c-2.254,1.504 -4.625,3.004 -5.721,5.491c-0.929,2.084 -0.754,4.45 -0.462,6.709c0.75,6.07 2.137,12.137 4.104,17.979c-5.204,11.041 -11.158,22.316 -20.642,30.121c-0.808,0.637 -1.675,1.329 -2.079,2.254c-0.408,0.983 -0.175,2.312 0.809,2.716c0.17,0.059 0.404,0.117 0.579,0.117c0.866,0 1.733,-0.692 2.371,-1.329c6.125,-6.246 10.52,-13.933 14.858,-21.508c1.733,-3.063 3.525,-6.13 5.258,-9.192c0.696,-1.213 1.446,-2.488 1.563,-3.933c0.171,-1.442 -0.292,-2.83 -0.754,-4.163c-0.75,-2.196 -1.5,-4.392 -2.255,-6.587c-0.75,-2.084 -1.445,-4.28 -1.329,-6.475c0.175,-2.259 1.388,-4.567 3.529,-5.263c4.217,-1.387 7.167,-5.204 10.234,-8.383c1.5,-1.563 2.946,-3.179 3.987,-5.088c1.675,-3.121 2.138,-6.766 2.6,-10.35c0.463,-3.987 -0.171,-7.746 -1.733,-11.504m-0.229,1.621c1.154,3.296 1.558,6.529 1.154,9.825c-0.404,3.412 -0.867,6.996 -2.488,10.004c-1.037,1.908 -2.483,3.467 -3.87,4.913c-0.463,0.52 -0.984,1.041 -1.446,1.62c-2.546,2.659 -5.146,5.492 -8.5,6.592c-2.6,0.867 -3.871,3.583 -4.046,5.954c-0.175,2.371 0.633,4.742 1.329,6.821l2.083,6.013l0.171,0.579c0.463,1.154 0.925,2.541 0.754,3.816c-0.116,1.271 -0.812,2.484 -1.445,3.584l-5.263,9.191c-4.279,7.459 -8.671,15.092 -14.742,21.334c-0.925,0.983 -1.504,1.1 -1.791,1.1c-0.059,-0 -0.175,-0 -0.292,-0.059c-0.171,-0.058 -0.287,-0.233 -0.346,-0.404c-0.175,-0.404 -0.175,-0.866 0,-1.216c0.288,-0.75 0.984,-1.271 1.734,-1.905l0.116,-0.116c9.888,-8.096 15.9,-19.946 20.813,-30.354l0.116,-0.288l-0.058,-0.346c-1.967,-5.783 -3.296,-11.737 -4.104,-17.808c-0.233,-2.142 -0.463,-4.396 0.404,-6.304c0.983,-2.138 3.179,-3.584 5.321,-4.971l0.171,-0.117c2.312,-1.5 4.8,-3.35 5.666,-6.241c0.405,-1.388 0.346,-2.834 0.288,-4.28c-0.054,-1.041 -0.113,-2.079 0.058,-3.004c0.234,-1.562 1.042,-3.008 1.792,-4.396c1.908,-3.295 4.05,-6.533 6.421,-9.537" style="fill:#81c2ff;fill-rule:nonzero;"/><path d="M276.894,144.544c-0.75,0 -1.621,0.171 -2.429,0.638c-2.834,1.387 -3.93,5.141 -3.063,8.208c0.867,3.004 3.179,5.433 5.779,7.283c2.546,1.85 5.438,3.296 7.921,5.204c2.546,1.909 4.742,4.45 5.379,7.575c1.038,5.2 -2.716,10.175 -3.008,15.492c-0.288,4.683 2.196,9.138 4.683,13.125c4.509,7.342 9.367,14.454 14.513,21.333c1.041,1.33 2.137,2.717 3.758,3.121c0.229,0.059 0.404,0.059 0.575,0.059c1.504,-0 3.067,-1.213 2.721,-2.659c-2.95,-0.233 -5.146,-2.775 -6.883,-5.204c-3.871,-5.146 -7.513,-10.408 -11.042,-15.783c-2.254,-3.584 -4.567,-7.342 -4.796,-11.563c-0.233,-4.279 1.617,-8.325 3.004,-12.429c1.329,-4.046 2.084,-8.729 -0.116,-12.433c-1.213,-1.963 -3.121,-3.35 -4.971,-4.679c-1.909,-1.388 -4.046,-2.834 -5.204,-4.975c-1.096,-2.021 -0.809,-3.93 -0.925,-6.071c-0.23,-3.238 -2.775,-6.242 -5.896,-6.242m-0,0.808c2.541,0 4.854,2.488 5.087,5.492c0,0.521 0,0.983 0.059,1.504c-0,1.563 0.058,3.238 0.983,4.913c1.212,2.2 3.354,3.758 5.258,5.091l0.175,0.171c1.675,1.217 3.584,2.546 4.742,4.454c1.733,2.775 1.733,6.646 -0,11.734c-0.233,0.754 -0.521,1.562 -0.808,2.312c-1.159,3.354 -2.371,6.767 -2.2,10.409c0.291,4.337 2.604,8.266 4.975,11.908c3.466,5.379 7.166,10.754 11.041,15.9c1.85,2.487 3.929,4.8 6.704,5.375c0,0.175 -0.112,0.292 -0.17,0.404c-0.405,0.467 -1.042,0.754 -1.738,0.754l-0.346,0c-1.329,-0.346 -2.371,-1.562 -3.354,-2.833c-5.146,-6.821 -10,-13.992 -14.45,-21.275c-2.429,-3.992 -4.8,-8.208 -4.571,-12.721c0.117,-2.137 0.871,-4.279 1.563,-6.358c0.983,-3.009 2.025,-6.071 1.387,-9.309c-0.521,-2.891 -2.487,-5.666 -5.666,-8.037c-1.33,-1.096 -2.834,-1.963 -4.275,-2.888c-1.217,-0.695 -2.488,-1.504 -3.646,-2.312c-2.946,-2.142 -4.796,-4.454 -5.434,-6.883c-0.75,-2.542 0.059,-6.013 2.6,-7.284c0.696,-0.346 1.388,-0.521 2.084,-0.521" style="fill:#81c2ff;fill-rule:nonzero;"/><path d="M187.495,80.023c-0.7,-0 -1.417,0.287 -1.758,0.925c-0.379,0.637 -0.167,1.562 0.312,2.196c0.479,0.579 1.188,0.983 1.867,1.387c5.758,3.296 11.504,6.65 17.287,9.946c4.913,2.833 10.175,6.013 12.317,11.217c2.254,5.491 0.633,11.966 2.888,17.4c1.679,4.221 5.495,7.283 9.712,9.079c1.967,0.867 4.05,1.446 6.129,1.908c1.446,0.288 3.7,1.096 5.321,1.096c0.288,0 0.521,0 0.75,-0.058c3.296,-0.692 0.867,-5.896 -0.75,-7.284c-2.083,-1.791 -4.858,-2.487 -7.342,-3.641c-4.741,-2.138 -8.675,-6.071 -10.929,-10.754c-2.312,-4.859 -2.95,-10.521 -6.187,-14.742c-2.196,-2.833 -5.317,-4.742 -8.384,-6.533c-6.241,-3.759 -12.487,-7.459 -18.691,-11.159c-0.692,-0.404 -1.404,-0.866 -2.2,-0.925c-0.113,-0.058 -0.225,-0.058 -0.342,-0.058m0,0.808l0.229,0c0.65,0.117 1.288,0.463 1.904,0.867l9.33,5.55l9.366,5.55c2.95,1.796 6.013,3.646 8.154,6.362c1.909,2.484 2.834,5.492 3.871,8.671c0.638,1.967 1.275,3.988 2.2,5.954c2.313,4.859 6.475,8.905 11.388,11.159c0.696,0.346 1.446,0.637 2.196,0.925c1.795,0.696 3.529,1.387 4.916,2.546c1.042,0.866 2.429,3.641 2.079,5.087c-0.17,0.463 -0.462,0.75 -0.983,0.808c-0.171,0.059 -0.346,0.059 -0.575,0.059c-1.042,-0 -2.487,-0.404 -3.7,-0.696c-0.521,-0.171 -0.983,-0.288 -1.446,-0.404c-2.312,-0.521 -4.279,-1.096 -6.012,-1.85c-4.509,-1.909 -7.804,-4.971 -9.25,-8.613c-1.1,-2.604 -1.217,-5.433 -1.388,-8.383c-0.175,-3.008 -0.291,-6.129 -1.504,-9.021c-2.371,-5.721 -8.325,-9.133 -12.662,-11.621l-10.405,-5.954l-6.887,-3.987c-0.608,-0.346 -1.238,-0.696 -1.629,-1.217c-0.284,-0.346 -0.463,-0.925 -0.246,-1.329c0.162,-0.288 0.575,-0.463 1.054,-0.463" style="fill:#81c2ff;fill-rule:nonzero;"/><path d="M263.654,109.104c-3.296,-0 -6.592,0.287 -9.829,0.866c-3.18,0.521 -8.671,1.042 -11.33,3.063c-1.62,1.158 -0.408,1.967 0.405,3.587c0.808,1.559 1.387,3.18 1.791,4.855c0.867,3.354 0.984,6.825 0.346,10.175c-1.096,5.841 -4.337,11.1 -6.358,16.65c-5.55,14.862 -2.546,31.625 3.987,46.079c1.563,3.529 3.413,6.996 6.188,9.712c2.487,2.488 5.896,4.279 9.366,4.279c0.346,0 0.692,-0.058 1.042,-0.058c4.45,-0.462 8.092,-3.758 10.925,-7.225c5.088,-6.304 8.613,-13.762 11.042,-21.45c2.025,-6.475 3.237,-13.125 3.7,-19.829c0.291,-4.8 0.116,-9.888 -2.254,-14.108c-1.734,-3.063 -4.567,-5.434 -6.534,-8.384c-2.775,-4.162 -3.7,-9.537 -2.429,-14.454c0.754,-3.062 2.371,-6.242 1.158,-9.192c-1.387,-3.466 -5.783,-4.391 -9.541,-4.508c-0.517,0 -1.096,-0.058 -1.675,-0.058m-0,0.808c0.579,0 1.1,0.058 1.675,0.058c3.296,0.059 7.575,0.867 8.846,3.992c0.812,2.021 0.116,4.275 -0.634,6.646c-0.233,0.696 -0.462,1.387 -0.637,2.083c-1.329,5.088 -0.346,10.696 2.546,15.088c0.925,1.387 2.02,2.6 3.062,3.816c1.329,1.505 2.546,2.892 3.471,4.509c2.425,4.221 2.371,9.483 2.137,13.646c-0.462,6.645 -1.675,13.237 -3.641,19.6c-2.604,8.383 -6.304,15.491 -10.929,21.216c-3.467,4.338 -6.88,6.592 -10.405,6.938c-0.291,0.058 -0.579,0.058 -0.925,0.058c-3.008,0 -6.245,-1.446 -8.845,-4.046c-2.717,-2.662 -4.567,-6.304 -6.013,-9.483c-7.342,-16.363 -8.787,-32.492 -3.933,-45.442c0.696,-1.966 1.562,-3.875 2.429,-5.783c1.617,-3.467 3.237,-7.108 3.987,-10.983c0.638,-3.413 0.521,-7.055 -0.345,-10.521c-0.463,-1.738 -1.096,-3.471 -1.85,-5.029c-0.23,-0.409 -0.463,-0.755 -0.634,-1.1c-0.696,-1.042 -0.696,-1.042 -0.058,-1.505c2.137,-1.558 6.358,-2.195 9.421,-2.658c0.579,-0.117 1.1,-0.175 1.562,-0.292c3.238,-0.516 6.475,-0.808 9.713,-0.808" style="fill:#81c2ff;fill-rule:nonzero;"/><path d="M239.083,110.665c-4.684,-0 -11.042,2.95 -14.05,4.104c-12.892,4.858 -25.496,10.579 -37.688,17.112c-6.746,3.588 -13.367,7.459 -19.829,11.504c-4.683,3.009 -9.329,6.071 -13.142,10.121c-3.816,3.988 -6.787,9.017 -7.487,14.509c-1.071,8.383 3.475,16.883 10.321,21.795c4.087,3.009 11.858,3.705 19.245,3.705c4.975,-0 9.784,-0.35 13.175,-0.521c8.409,-0.463 13.146,-1.796 16.213,-2.834c11.1,-3.991 22.371,-9.308 29.6,-18.675c6.821,-8.904 9.133,-20.466 9.425,-31.683c0.112,-2.892 0.054,-5.779 -0.175,-8.612c-0.404,-5.725 2.658,-14.225 -1.1,-18.792c-1.038,-1.271 -2.658,-1.733 -4.508,-1.733m-0,0.808c1.85,-0 3.062,0.462 3.875,1.387c2.312,2.834 1.791,7.4 1.329,11.855c-0.288,2.312 -0.521,4.508 -0.404,6.533c0.229,2.658 0.287,5.492 0.229,8.554c-0.404,13.125 -3.525,23.588 -9.309,31.163c-7.57,9.829 -19.595,14.975 -29.254,18.441c-2.775,0.984 -7.4,2.313 -15.966,2.775l-1.488,0.117c-3.283,0.175 -7.375,0.404 -11.642,0.404c-9.229,0 -15.541,-1.154 -18.779,-3.525c-7.054,-5.087 -10.975,-13.354 -9.991,-21.104c0.783,-6.125 4.383,-10.983 7.266,-14.046c3.859,-4.05 8.538,-7.112 12.992,-9.946c6.412,-4.046 13.067,-7.921 19.779,-11.504c12.108,-6.475 24.767,-12.2 37.604,-17.054c0.521,-0.233 1.154,-0.467 1.85,-0.754c3.296,-1.329 8.209,-3.296 11.909,-3.296" style="fill:#81c2ff;fill-rule:nonzero;"/><path d="M276.836,110.837c-1.563,4.046 -2.025,8.096 -3.413,12.2c-1.154,3.355 -0.058,5.55 0.405,8.959c1.1,8.383 0.812,16.941 3.47,25.091c3.642,11.105 12.546,19.95 22.78,25.73c10.233,5.725 21.795,8.616 33.3,10.983c4.508,0.925 9.02,1.796 13.645,1.796l0.58,-0c4.795,-0.059 9.654,-1.159 13.583,-3.875c7.171,-4.917 10.117,-14.513 8.5,-23.013c-1.563,-8.554 -7.054,-15.896 -13.704,-21.446c-6.704,-5.55 -14.509,-9.425 -22.259,-13.3c-9.133,-4.508 -18.266,-9.016 -27.404,-13.583c-8.958,-4.454 -19.483,-8.962 -29.483,-9.542m0.579,0.809c9.942,0.754 20.467,5.437 28.558,9.483l2.546,1.271l24.8,12.317c7.634,3.758 15.496,7.687 22.146,13.179c5.146,4.279 11.675,11.391 13.471,20.929c1.617,8.675 -1.738,17.808 -8.154,22.2c-3.467,2.371 -8.038,3.7 -13.179,3.758l-0.58,0c-4.566,0 -9.137,-0.866 -13.47,-1.733c-11.1,-2.313 -22.78,-5.204 -33.071,-10.983c-11.159,-6.246 -19.138,-15.209 -22.434,-25.267c-1.791,-5.375 -2.195,-11.1 -2.6,-16.65c-0.233,-2.717 -0.462,-5.492 -0.808,-8.208c-0.117,-0.984 -0.292,-1.792 -0.462,-2.605c-0.405,-2.137 -0.755,-3.816 -0,-6.012c0.633,-1.908 1.095,-3.817 1.5,-5.608c0.52,-2.08 0.983,-4.046 1.737,-6.071" style="fill:#81c2ff;fill-rule:nonzero;"/><path d="M300.713,48.919c-1.791,0.75 -3.354,2.429 -4.508,4.858c-0.462,0.867 -0.808,1.792 -1.1,2.658c-0.462,1.155 -0.867,2.255 -1.446,3.238c-0.633,1.212 -1.446,2.254 -2.254,3.354c-0.808,0.983 -1.562,2.021 -2.254,3.179c-2.254,3.871 -2.717,8.384 -2.892,12.313c-0.058,0.983 -0.058,1.908 -0.116,2.891c-0.059,3.121 -0.171,6.3 -0.867,9.367c-0.983,4.392 -3.296,7.863 -6.3,9.483c-0.638,0.346 -1.217,0.517 -1.679,0.517c-0.225,0 -0.367,-0.083 -0.529,-0.15c-0.163,-0.737 -0.384,-1.458 -0.642,-2.171c0.371,-0.783 1.062,-1.6 1.75,-2.246c2.254,-2.02 4.104,-4.566 5.321,-7.4c0.691,-1.616 1.154,-3.295 1.387,-4.97c0.171,-1.388 0.229,-2.775 0.288,-4.105c0.058,-1.158 0.058,-2.37 0.233,-3.529c0.633,-5.433 3.408,-10.579 5.896,-15.146l4.279,-7.804l2.425,-4.512c0.35,-0.692 0.696,-1.213 1.158,-1.5c0.175,-0.117 0.405,-0.175 0.638,-0.175c0.346,-0 0.75,0.175 0.979,0.404c0.35,0.404 0.463,0.983 0.233,1.446m-24.395,53.596c0.458,3.641 -0.059,7.4 -0.696,10.866c-0.579,3.121 -1.159,5.667 -2.313,8.038c-0.866,1.908 -2.487,4.45 -5.262,5.896c-1.792,0.925 -3.929,1.329 -6.996,1.329c-1.096,-0 -2.138,-0.059 -3.238,-0.059c-4.104,-0.229 -7.975,-0.633 -10.404,-3.179c-1.621,-1.675 -2.371,-4.162 -3.008,-6.358c-1.329,-4.338 -2.658,-8.846 -2.717,-13.471c-0.025,-1.033 0.067,-2.021 0.184,-3c0.45,0.196 0.925,0.342 1.379,0.342c0.462,-0 0.866,-0.117 1.212,-0.404c1.821,-1.55 0.138,-3.092 -1.571,-4.221c0.73,-1.921 1.746,-3.613 3.075,-4.917c2.255,-2.254 5.492,-3.525 8.905,-3.525c0.866,0 1.791,0 2.658,-0.058c0.808,-0 1.675,-0.059 2.487,-0.059c1.963,0 3.467,0.175 4.855,0.405c2.833,0.579 5.145,1.562 6.879,3.066c1.529,1.309 2.708,3.134 3.525,5.259c-0.329,0.941 -0.254,1.92 0.754,2.72c0.008,0.005 0.017,0 0.025,0.005c0.087,0.445 0.208,0.862 0.267,1.325m-33.705,-3.442c0.896,0.604 1.775,1.321 1.846,1.937c0,0.117 0.059,0.405 -0.521,0.867c-0.17,0.175 -0.404,0.229 -0.691,0.229c-0.346,0 -0.825,-0.175 -1.279,-0.391c0.15,-0.921 0.375,-1.796 0.645,-2.642m-8.154,-9.396c-0.408,-2.254 -0.579,-4.625 -0.754,-6.879c-0.229,-2.717 -0.462,-5.492 -1.096,-8.208c-0.579,-2.663 -1.504,-5.205 -2.604,-7.634c1.621,3.296 2.95,6.709 3.642,10.292c0.291,1.733 0.404,3.529 0.579,5.262c0.175,2.138 0.346,4.28 0.808,6.417c0.463,2.254 1.85,6.417 5.263,8.729c0.233,0.175 0.521,0.346 0.866,0.521c0.205,0.113 0.467,0.267 0.73,0.425c-0.292,0.858 -0.467,1.758 -0.63,2.658c-4.495,-2.791 -6.195,-8.358 -6.804,-11.583m-14.225,-37.925l-0.633,-0.808c-0.521,-0.696 -0.925,-1.329 -0.983,-1.909c-0.059,-0.291 0.058,-0.637 0.229,-0.866c0.116,-0.117 0.233,-0.175 0.35,-0.175l0.054,-0c0.35,-0 0.754,0.404 1.217,1.271l2.6,4.8l4.045,7.458c0.409,0.808 0.871,1.562 1.275,2.312c-2.37,-4.22 -5.32,-8.15 -8.154,-12.083m80.825,-4.8c-0.404,-0.462 -0.983,-0.633 -1.558,-0.633c-0.35,-0 -0.754,0.058 -1.042,0.229c-0.696,0.404 -1.1,1.1 -1.446,1.792c-2.254,4.104 -4.508,8.266 -6.708,12.375c-2.658,4.854 -5.375,9.883 -6.012,15.433c-0.288,2.487 -0.171,5.033 -0.521,7.575c-0.229,1.621 -0.692,3.237 -1.329,4.8c-1.155,2.717 -2.888,5.146 -5.088,7.108c-0.517,0.454 -1.137,1.1 -1.6,1.825c-0.817,-1.862 -1.95,-3.571 -3.487,-4.887c-2.021,-1.675 -4.625,-2.717 -7.225,-3.179c-1.738,-0.346 -3.355,-0.405 -5.03,-0.405c-1.679,0 -3.412,0.059 -5.145,0.059c-3.53,-0 -6.938,1.271 -9.425,3.754c-1.463,1.412 -2.475,3.175 -3.213,5.067c-0.6,-0.371 -1.15,-0.68 -1.471,-0.9c-2.716,-1.796 -4.279,-5.088 -4.971,-8.213c-0.808,-3.817 -0.695,-7.804 -1.387,-11.621c-0.983,-5.721 -3.817,-10.866 -6.533,-15.954c-2.255,-4.104 -4.455,-8.212 -6.709,-12.317c-0.404,-0.808 -1.037,-1.675 -1.908,-1.675l-0.113,0c-0.866,0.059 -1.445,1.038 -1.329,1.909c0.054,0.866 0.634,1.616 1.154,2.312c5.321,7.225 10.93,14.567 12.892,23.354c1.1,4.917 0.925,10.063 1.85,15.034c0.904,4.912 3.113,9.846 7.363,12.337c-0.159,1.163 -0.221,2.342 -0.192,3.504c0.058,4.625 1.387,9.192 2.717,13.646c0.75,2.367 1.504,4.913 3.237,6.704c2.717,2.834 7.054,3.18 10.929,3.355c1.096,0.058 2.196,0.116 3.292,0.116c2.604,0 5.146,-0.291 7.4,-1.446c2.487,-1.333 4.396,-3.7 5.608,-6.245c1.217,-2.6 1.85,-5.434 2.371,-8.209c0.638,-3.7 1.158,-7.458 0.696,-11.158c-0.042,-0.313 -0.133,-0.613 -0.188,-0.925c0.13,0.021 0.23,0.117 0.359,0.117c0.696,-0 1.446,-0.292 2.025,-0.58c3.641,-2.025 5.837,-6.012 6.762,-10.058c0.929,-4.05 0.754,-8.212 0.984,-12.375c0.175,-4.162 0.695,-8.383 2.775,-11.967c1.329,-2.312 3.237,-4.22 4.512,-6.533c1.042,-1.908 1.617,-3.987 2.542,-5.954c0.925,-1.967 2.371,-3.817 4.396,-4.567c0.52,-0.754 0.404,-1.908 -0.234,-2.604" style="fill:#81c2ff;fill-rule:nonzero;"/><path d="M276.836,80.312c-0.638,-2.487 -2.546,-3.529 -2.775,-3.7c-0.233,-0.175 -1.563,-0.983 -1.967,-1.041c-0.462,-0.059 -0.925,0.233 -1.096,0.579c-0.175,0.346 -0.291,1.212 -0.291,1.212c-0,0 -0.346,-0.112 -0.521,-0.112c-0.171,-0.058 -0.575,0.112 -0.75,0.112c-0.117,0 -0.346,-0.404 -0.346,-0.404c0,0 1.154,-0.637 1.154,-1.562c-0.058,-0.921 -0.346,-1.096 -0.579,-1.5c-0.287,-0.463 -0.808,-0.579 -0.808,-0.579c-0.229,-0.809 -2.542,-2.025 -3.179,-2.255c-0.58,-0.175 -1.271,0.059 -1.271,0.059c-0,-0 -0.292,-0.234 -0.521,-0.292c-0.233,0 -0.463,0.175 -0.463,0.233c0,0.113 -0.233,0.171 -0.233,0.171c-1.096,-0.229 -2.196,-0.058 -2.887,0.463c-0.696,0.521 -0.35,1.908 -0.409,2.025c0,0.175 -0.112,0.058 -0.229,-0c-0.117,-0.059 -0.058,-1.271 -0.175,-1.675c-0.112,-0.35 -1.096,-0.871 -1.792,-0.871c-0.633,-0.054 -1.095,0.117 -1.095,0.117c-0,-0 -0,-0.117 -0.175,-0.23c-0.175,-0.116 -0.696,0.059 -0.696,0.059c-1.617,-0.404 -3.121,0.287 -4.334,0.808c-1.158,0.521 -0.866,1.329 -0.866,1.329c-0,0 -0.35,-0.116 -1.042,0.809c-0.637,0.925 0.867,2.545 0.867,2.545c-0,0 -0.175,0.867 -0.463,0.692c-0.287,-0.171 -1.1,-0.054 -1.1,-0.054c-0.171,-0.467 -0.633,-1.563 -1.387,-1.679c-0.809,-0.117 -1.85,0.808 -2.196,1.212c-0.346,0.467 -1.271,0.521 -2.079,2.084c-0.813,1.562 -1.446,2.775 -0.579,5.608c0.866,2.833 3.875,4.162 5.375,4.046c1.504,-0.117 2.312,-1.271 2.716,-1.617c0.409,-0.35 0.984,-0.925 1.909,-1.737c0.925,-0.809 0.637,-1.734 0.812,-1.85c0.171,-0.059 0.229,0.116 0.229,0.116c0.175,0.867 1.329,0.984 1.504,1.1c0.171,0.117 0.23,0.75 0.346,1.388c0.117,0.691 0.521,1.096 1.271,1.791c0.388,0.325 0.829,0.392 1.275,0.371l0,17.484c-1.779,0.375 -3.758,0.933 -3.758,0.933c-0,-0 0.691,0.579 1.037,0.812c0.292,0.23 0.292,3.871 -0.112,5.205c-0.463,1.27 0.229,3.929 0.404,5.316c0.171,1.329 0.867,2.025 0.867,2.775c-0,0.754 -1.271,2.254 -1.388,3.817c-0.058,0.692 0.229,1.212 0.638,1.908c0.229,0.404 0.112,1.734 0.75,2.138c0.175,0.116 0.691,-1.1 0.866,-0.925c0.346,0.291 0.346,0.346 0.521,0.637c0.692,1.154 1.967,1.154 3.004,1.154c0.984,0.059 1.392,-1.329 1.621,-1.329c0.175,0.059 0.638,1.734 0.867,1.329c0.175,-0.404 0.983,-1.675 1.621,-3.062c0.575,-1.446 -1.33,-5.204 -0.871,-5.667c0.408,-0.521 0.291,-1.966 0.291,-1.966c1.213,-2.484 1.042,-4.684 0.984,-5.317c-0.059,-0.638 0.171,-4.625 0.171,-5.088c-0,-0.462 0.925,-1.1 0.637,-1.216c-0.192,-0.038 -2.058,-0.834 -3.771,-1.35l0,-17.867c1.284,-0.367 1.946,-1.192 2.038,-2c0.116,-1.1 -0.925,-1.042 -0,-1.154c0.866,-0.117 1.558,-1.392 1.733,-1.333c0.175,-0 0.175,0.812 0.346,1.333c0.117,0.517 1.275,1.037 1.792,1.329c0.52,0.346 -0.171,2.138 3.125,2.196c3.295,0.058 4.912,-3.238 4.912,-3.238c0,0 1.217,-2.137 0.521,-4.625Z" style="fill:none;fill-rule:nonzero;stroke:#000;stroke-width:1.16px;"/><path d="M264.64,106.448c2.138,-0.637 3.933,-2.312 4.683,-4.45c0.75,-2.083 0.405,-4.512 -0.925,-6.362" style="fill:none;fill-rule:nonzero;stroke:#000;stroke-width:1.16px;"/><path d="M265.738,108.299c2.546,-0.117 4.971,-1.388 6.534,-3.413c1.504,-2.021 2.137,-4.741 1.562,-7.225" style="fill:none;fill-rule:nonzero;stroke:#000;stroke-width:1.16px;"/><path d="M255.572,107.205c-0.75,0.117 -1.504,-0.175 -2.084,-0.695c-0.516,-0.463 -0.925,-1.155 -1.27,-1.792c-1.042,-2.254 -1.33,-4.913 -0.692,-7.4" style="fill:none;fill-rule:nonzero;stroke:#000;stroke-width:1.16px;"/><path d="M255.145,112.334c-3.295,0.808 -6.704,-1.1 -9.075,-3.584c-2.2,-2.37 -3.816,-5.204 -5.379,-8.037" style="fill:none;fill-rule:nonzero;stroke:#000;stroke-width:1.16px;"/><path d="M264.871,112.635c5.263,-0.638 10.059,-4.338 11.967,-9.309" style="fill:none;fill-rule:nonzero;stroke:#000;stroke-width:1.16px;"/><path d="M255.63,109.922c-2.025,0 -4.046,-0.925 -5.434,-2.429c-1.387,-1.504 -2.083,-3.583 -1.908,-5.666" style="fill:none;fill-rule:nonzero;stroke:#000;stroke-width:1.16px;"/><path d="M258.19,128.504c0.229,7.4 0.404,14.8 0.579,22.258c0.058,2.255 0.116,4.567 -0.404,6.821c-0.463,1.909 -1.334,3.7 -1.621,5.667c-0.288,1.967 0.175,4.279 1.85,5.321" style="fill:none;fill-rule:nonzero;stroke:#000;stroke-width:1.16px;"/><path d="M260.817,129.094c-0.925,6.65 1.271,13.354 1.621,20.062c0.287,6.475 -1.217,13.121 0.517,19.367" style="fill:none;fill-rule:nonzero;stroke:#000;stroke-width:1.16px;"/><path d="M264.64,126.966c0.925,3.525 2.025,7.341 4.971,9.483c1.158,0.867 2.604,1.442 3.412,2.6c0.58,0.925 0.692,2.079 1.1,3.063c0.405,1.041 1.271,2.025 2.367,1.966" style="fill:none;fill-rule:nonzero;stroke:#000;stroke-width:1.16px;"/><path d="M270.263,137.117c-0.233,0.925 -0.058,1.967 0.287,2.892c0.292,0.925 0.755,1.792 1.042,2.717c0.346,1.158 0.521,2.371 0.463,3.583" style="fill:none;fill-rule:nonzero;stroke:#000;stroke-width:1.16px;"/><path d="M263.725,121.312c1.734,-0.234 3.355,0.866 4.338,2.254c1.037,1.329 1.733,4.512 3.179,5.379c0.633,0.346 1.558,0.112 2.254,0.287c1.042,0.175 2.025,0.692 2.775,1.446c0.463,0.463 0.809,0.925 1.271,1.329c0.404,0.405 1.042,0.692 1.621,0.634" style="fill:none;fill-rule:nonzero;stroke:#000;stroke-width:1.16px;"/><path d="M274.812,133.212c0.117,-0.696 0.233,-1.446 0.058,-2.137c-0.116,-0.755 -0.579,-1.446 -1.27,-1.68" style="fill:none;fill-rule:nonzero;stroke:#000;stroke-width:1.16px;"/><path d="M255.918,120.792c-1.85,0.229 -3.583,1.154 -4.858,2.487c-1.271,1.388 -2.021,3.238 -2.079,5.088c-0.058,1.85 0.462,3.641 0.521,5.491c0.116,3.296 -1.563,6.592 -4.338,8.442" style="fill:none;fill-rule:nonzero;stroke:#000;stroke-width:1.16px;"/><path d="M248.923,144.495c-0.175,-0.462 -0.058,-1.041 0.175,-1.504c0.171,-0.462 0.462,-0.925 0.633,-1.387c0.35,-1.271 -0.287,-2.542 -0.866,-3.7" style="fill:none;fill-rule:nonzero;stroke:#000;stroke-width:1.16px;"/><path d="M255.42,116.744c-1.621,-0.229 -3.296,0.404 -4.567,1.446c-1.27,1.042 -2.2,2.429 -3.12,3.758c-1.042,1.446 -2.025,2.946 -3.067,4.392" style="fill:none;fill-rule:nonzero;stroke:#000;stroke-width:1.16px;"/><path d="M265.363,116.623c1.213,0.346 2.43,0.696 3.7,1.1c2.025,0.575 4.163,1.154 6.3,1.096" style="fill:none;fill-rule:nonzero;stroke:#000;stroke-width:1.16px;"/><path d="M265.697,115.178c2.429,-0 4.854,-0 6.996,-1.042c2.658,-1.271 4.391,-3.812 6.012,-6.241" style="fill:none;fill-rule:nonzero;stroke:#000;stroke-width:1.16px;"/><path d="M255.42,114.143c-5.087,1.446 -10.871,-0.175 -14.454,-4.046" style="fill:none;fill-rule:nonzero;stroke:#000;stroke-width:1.16px;"/><path d="M256.265,125.995c-2.195,2.717 -3.179,6.359 -2.6,9.83c0.575,3.583 2.659,7.054 1.905,10.579c-0.575,2.546 -2.6,4.508 -4.796,6.012c-2.196,1.446 -4.625,2.488 -6.65,4.104c-2.079,1.621 -3.817,3.875 -3.875,6.534" style="fill:none;fill-rule:nonzero;stroke:#000;stroke-width:1.16px;"/><path d="M245.558,162.004c-0.346,-0.808 -0.175,-1.792 0.287,-2.6c0.463,-0.812 1.1,-1.446 1.68,-2.142c0.579,-0.75 0.925,-2.254 0.866,-3.12" style="fill:none;fill-rule:nonzero;stroke:#000;stroke-width:1.16px;"/><path d="M261.228,128.504c1.621,2.025 2.717,4.396 3.296,6.879c0.633,2.546 0.75,5.088 0.983,7.634c0.288,2.6 0.633,5.145 1.675,7.516c1.1,2.313 2.892,4.392 5.321,5.259c0.808,0.291 1.675,0.404 2.425,0.866c0.983,0.579 1.621,1.679 1.908,2.775c0.35,1.1 0.35,2.254 0.35,3.413" style="fill:none;fill-rule:nonzero;stroke:#000;stroke-width:1.16px;"/><path d="M272.323,162.727c-0.404,-0.75 -0.116,-1.621 0.234,-2.43c0.346,-0.75 0.75,-1.562 0.516,-2.37c-0.17,-0.634 -0.691,-1.096 -1.154,-1.505c-0.521,-0.462 -0.983,-1.037 -0.925,-1.675" style="fill:none;fill-rule:nonzero;stroke:#000;stroke-width:1.16px;"/><path d="M331.013,74.125c-0.117,0 -0.23,0 -0.346,0.059c-0.809,0.116 -1.504,0.521 -2.196,0.925c-6.246,3.7 -12.433,7.4 -18.675,11.158c-3.067,1.792 -6.246,3.7 -8.383,6.533c-3.296,4.221 -3.875,9.888 -6.188,14.742c-2.254,4.683 -6.183,8.617 -10.983,10.754c-2.488,1.159 -5.204,1.85 -7.288,3.642c-1.675,1.387 -4.046,6.592 -0.75,7.283c0.234,0.059 0.463,0.059 0.696,0.059c1.675,-0 3.929,-0.809 5.317,-1.096c2.137,-0.463 4.221,-1.042 6.187,-1.909c4.163,-1.791 7.979,-4.858 9.713,-9.079c2.254,-5.433 0.579,-11.908 2.833,-17.4c2.196,-5.204 7.458,-8.383 12.371,-11.216c5.783,-3.296 11.504,-6.592 17.287,-9.946c0.692,-0.346 1.388,-0.809 1.85,-1.388c0.463,-0.633 0.692,-1.558 0.288,-2.196c-0.288,-0.637 -1.038,-0.925 -1.733,-0.925m-0,0.809c0.462,-0 0.925,0.175 1.041,0.462c0.229,0.404 0.059,0.984 -0.233,1.334c-0.404,0.516 -1.038,0.866 -1.617,1.212l-6.937,3.988l-10.35,5.954c-4.338,2.487 -10.292,5.9 -12.663,11.621c-1.212,2.891 -1.387,6.016 -1.5,9.02c-0.175,3.009 -0.35,5.784 -1.387,8.384c-1.446,3.641 -4.742,6.708 -9.254,8.612c-1.734,0.754 -3.7,1.388 -6.067,1.854c-0.408,0.113 -0.871,0.23 -1.388,0.405c-1.216,0.287 -2.662,0.691 -3.758,0.691l-0.521,0c-0.579,-0.116 -0.866,-0.404 -0.983,-0.866c-0.346,-1.446 1.042,-4.163 2.079,-5.088c1.388,-1.158 3.125,-1.85 4.917,-2.546c0.75,-0.287 1.504,-0.575 2.196,-0.925c4.912,-2.254 9.075,-6.3 11.391,-11.158c0.925,-1.904 1.559,-3.988 2.196,-5.954c0.983,-3.179 1.967,-6.188 3.871,-8.671c2.083,-2.717 5.204,-4.567 8.154,-6.3l9.367,-5.613l9.308,-5.55c0.633,-0.404 1.271,-0.75 1.908,-0.866l0.23,-0Z" style="fill:#81c2ff;fill-rule:nonzero;"/><g transform="matrix(1,0,0,1,-833.234,-729.603)"><text x="1129.97px" y="1024.38px" style="font-family:'ArialMT', 'Arial', sans-serif;font-size:33.333px;">T<tspan x="1149.09px 1156.5px " y="1024.38px 1024.38px ">is</tspan>sue</text><g transform="matrix(33.3333,0,0,33.3333,1331.91,1057.72)"></g><text x="1129.97px" y="1057.72px" style="font-family:'ArialMT', 'Arial', sans-serif;font-size:33.333px;">reconstructed</text></g><g transform="matrix(1,0,0,1,-986.247,-729.603)"><text x="1081.65px" y="1024.38px" style="font-family:'ArialMT', 'Arial', sans-serif;font-size:33.333px;">Ti<tspan x="1109.42px " y="1024.38px ">s</tspan>sue</text><g transform="matrix(33.3333,0,0,33.3333,1207.65,1054.38)"></g><text x="1081.65px" y="1054.38px" style="font-family:'ArialMT', 'Arial', sans-serif;font-size:33.333px;">scanned</text></g></svg>