<?xml version="1.0" encoding="UTF-8" standalone="no"?><!DOCTYPE svg PUBLIC "-//W3C//DTD SVG 1.1//EN" "http://www.w3.org/Graphics/SVG/1.1/DTD/svg11.dtd"><svg width="100%" height="100%" viewBox="0 0 713 1056" version="1.1" xmlns="http://www.w3.org/2000/svg" xmlns:xlink="http://www.w3.org/1999/xlink" xml:space="preserve" xmlns:serif="http://www.serif.com/" style="fill-rule:evenodd;clip-rule:evenodd;stroke-miterlimit:10;"><path d="M593.225,26.274c-106.092,9.255 -211.646,44.796 -303.909,108.271c-237.583,163.5 -270.625,431.292 -233.791,701.084c8.662,63.441 280.446,81.104 554.575,77.2" style="fill:none;fill-rule:nonzero;stroke:#81c2ff;stroke-width:4.17px;"/><path d="M585.856,86.461c-20.833,3.333 -30.791,15.791 -30.791,15.791c-0,0 -24.125,-8.291 -33.292,-5c-9.167,3.334 -20.792,16.667 -20.792,16.667c0,-0 -20.791,-14.167 -31.625,-8.333c-10.833,5.833 -18.291,27.458 -18.291,27.458c-0,-0 -33.292,-4.167 -43.292,5.833c-9.958,9.959 -29.083,41.584 -29.083,41.584c-0,-0 -20.834,-1.667 -29.125,5.833c-8.334,7.5 -8.334,25.792 -8.334,25.792c0,-0 -25.791,0.833 -34.958,10c-9.167,9.125 -10.792,22.458 -10.792,22.458c0,-0 -20.833,2.5 -29.958,9.125c-9.167,6.667 -12.5,32.458 -12.5,32.458c0,0 -21.625,4.167 -29.958,20.792c-8.292,16.667 -5.792,48.292 -5.792,48.292c0,-0 -26.625,12.458 -28.292,29.083c-1.666,16.667 -14.166,111.5 29.959,141.458c-0,0 -15.834,45.75 -0.834,68.209c14.959,22.5 32.417,25.791 32.417,25.791c0,0 -16.625,61.584 60.75,97.375c77.375,35.75 139.792,10.792 181.375,-34.125c0,0 -13.292,54.084 -13.292,73.209c0,19.125 -4.166,35.791 -5.833,50.75c-1.667,15 35.75,56.583 75.708,34.958c0,-0 -5.833,-11.667 12.459,-29.125c18.333,-17.458 47.433,-15.717 47.433,-39.333" style="fill:none;fill-rule:nonzero;stroke:#000;stroke-width:2.08px;"/><path d="M585.856,86.461c-20.833,3.333 -30.791,15.791 -30.791,15.791c-0,0 -24.125,-8.291 -33.292,-5c-9.167,3.334 -20.792,16.667 -20.792,16.667c0,-0 -20.791,-14.167 -31.625,-8.333c-10.833,5.833 -18.291,27.458 -18.291,27.458c-0,-0 -33.292,-4.167 -43.292,5.833c-9.958,9.959 -29.083,41.584 -29.083,41.584c-0,-0 -20.834,-1.667 -29.125,5.833c-8.334,7.5 -8.334,25.792 -8.334,25.792c0,-0 -25.791,0.833 -34.958,10c-9.167,9.125 -10.792,22.458 -10.792,22.458c0,-0 -20.833,2.5 -29.958,9.125c-9.167,6.667 -12.5,32.458 -12.5,32.458c0,0 -21.625,4.167 -29.958,20.792c-8.292,16.667 -5.792,48.292 -5.792,48.292c0,-0 -26.625,12.458 -28.292,29.083c-1.666,16.667 -14.166,111.5 29.959,141.458c-0,0 -15.834,45.75 -0.834,68.209c14.959,22.5 32.417,25.791 32.417,25.791c0,0 -16.625,61.584 60.75,97.375c77.375,35.75 139.792,10.792 181.375,-34.125c0,0 -13.292,54.084 -13.292,73.209c0,19.125 -4.166,35.791 -5.833,50.75c-1.667,15 35.75,56.583 75.708,34.958c0,-0 -5.833,-11.667 12.459,-29.125c18.333,-17.458 48.333,-11.096 48.416,-50.221" style="fill:none;fill-rule:nonzero;stroke:#eeedec;stroke-width:0.35px;"/><path d="M610.106,337.665c-11.666,0.459 -12.333,-9.787 -19.625,-18.871c-7.291,-9.083 -17.458,-18.75 -28.833,-16.208c-13.208,2.958 -17.292,19.5 -26.583,29.333c-16.542,17.584 -49.459,12.917 -63.125,32.834c-10.375,15.125 -3.584,35.583 3.458,52.5c-47.333,18.166 -97.208,29.583 -147.667,33.791" style="fill:none;fill-rule:nonzero;stroke:#eeedec;stroke-width:3.13px;"/><path d="M398.565,304.544c-12.417,-17.292 -17.75,-40.333 -11,-60.542c6.708,-20.166 26.75,-36.083 48,-35.083c15.291,0.708 29,9.333 41.166,18.625c12.125,9.292 23.917,19.667 38.25,25c14.334,5.292 32.417,4.167 42.542,-7.292" style="fill:none;fill-rule:nonzero;stroke:#eeedec;stroke-width:3.13px;"/><path d="M523.648,132.127c19.917,-1.875 39.75,14.542 41.625,34.459c1.542,16.208 -7.208,31.5 -9.292,47.625c-2.541,19.791 5.792,40.625 21.292,53.166" style="fill:none;fill-rule:nonzero;stroke:#eeedec;stroke-width:3.13px;"/><path d="M338.648,221.419c-1.333,23.625 6.417,47.625 21.25,66.083" style="fill:none;fill-rule:nonzero;stroke:#eeedec;stroke-width:3.13px;"/><path d="M286.731,259.377c-10.125,17.292 -10.041,40.042 0.209,57.25c5.708,9.667 14.208,17.375 20.75,26.5c16.833,23.5 19.25,56.542 5.958,82.25" style="fill:none;fill-rule:nonzero;stroke:#eeedec;stroke-width:3.13px;"/><path d="M438.856,323.336c-8.666,-3.292 -18.333,-4.959 -27.166,-2.25c-11.834,3.625 -20.417,14.75 -23.25,26.791c-2.875,12.042 -0.75,24.792 3.5,36.417" style="fill:none;fill-rule:nonzero;stroke:#eeedec;stroke-width:3.13px;"/><path d="M573.814,452.086c13.459,-3.917 29.25,4.291 33.792,17.541c3.292,9.625 0.958,20.584 -4.417,29.25c-5.375,8.667 -13.5,15.334 -22,20.917c-11.916,7.792 -25.208,13.875 -39.333,15.75c-14.083,1.833 -29.125,-0.833 -40.667,-9.125" style="fill:none;fill-rule:nonzero;stroke:#eeedec;stroke-width:3.13px;"/><path d="M564.648,408.169c-4.5,-7.792 -15.125,-10.417 -23.75,-7.875c-8.625,2.542 -15.458,9.167 -20.833,16.375c-5.375,7.208 -9.667,15.208 -15.375,22.167c-18.375,22.5 -51.667,31.291 -78.75,20.875" style="fill:none;fill-rule:nonzero;stroke:#eeedec;stroke-width:3.13px;"/><path d="M405.44,527.127c12.083,-4.166 25.25,1.709 35.708,9c10.458,7.334 20.25,16.375 32.542,19.75c10.333,2.792 21.333,1.209 31.875,2.834c10.583,1.666 21.875,8.416 22.791,19.083" style="fill:none;fill-rule:nonzero;stroke:#eeedec;stroke-width:3.13px;"/><path d="M591.356,628.586c-24.916,-12.75 -54.25,-16.667 -81.625,-11c-9,1.875 -18.041,4.75 -27.208,3.833c-19.792,-2 -33.167,-20.542 -43.875,-37.333c-13.125,6.25 -29.042,6.5 -42.375,0.625c-13.333,-5.875 -23.875,-17.709 -28.167,-31.625" style="fill:none;fill-rule:nonzero;stroke:#eeedec;stroke-width:3.13px;"/><path d="M292.315,483.669c-11.5,-9.125 -27.167,-12.792 -41.542,-9.75c-14.375,3 -27.167,12.667 -34.042,25.667" style="fill:none;fill-rule:nonzero;stroke:#eeedec;stroke-width:3.13px;"/><path d="M228.231,351.044c8.75,-2.625 18.584,1.917 24,9.25c5.459,7.333 7.125,16.917 6.709,26.042c-0.375,9.125 -2.625,18.041 -4.334,27.041c-1.708,9 -2.833,18.292 -0.875,27.209" style="fill:none;fill-rule:nonzero;stroke:#eeedec;stroke-width:3.13px;"/><path d="M252.148,289.419c-2.083,11.208 -1.083,22.958 2.875,33.667c7.125,19.208 23.292,34.166 29.708,53.625" style="fill:none;fill-rule:nonzero;stroke:#eeedec;stroke-width:3.13px;"/><path d="M366.106,329.419c-6.083,15.958 -16.75,30.208 -30.333,40.542" style="fill:none;fill-rule:nonzero;stroke:#eeedec;stroke-width:3.13px;"/><path d="M330.148,646.127c0,4.375 -3.583,7.959 -7.958,7.959c-4.417,-0 -7.959,-3.584 -7.959,-7.959c0,-4.375 3.542,-7.958 7.959,-7.958c4.375,-0 7.958,3.583 7.958,7.958" style="fill:#81c2ff;fill-rule:nonzero;"/><rect x="414.836" y="961.455" width="21.546" height="21.546" style="fill:#ed7569;"/><rect x="214.544" y="961.455" width="21.546" height="21.546" style="fill:#81c2ff;"/><g transform="matrix(1,0,0,1,-681.849,-41.4158)"><text x="1129.97px" y="1024.38px" style="font-family:'ArialMT', 'Arial', sans-serif;font-size:33.333px;">T<tspan x="1149.09px 1156.5px " y="1024.38px 1024.38px ">is</tspan>sue</text><g transform="matrix(33.3333,0,0,33.3333,1331.91,1057.72)"></g><text x="1129.97px" y="1057.72px" style="font-family:'ArialMT', 'Arial', sans-serif;font-size:33.333px;">reconstructed</text></g><g transform="matrix(1,0,0,1,-834.863,-41.4158)"><text x="1081.65px" y="1024.38px" style="font-family:'ArialMT', 'Arial', sans-serif;font-size:33.333px;">Ti<tspan x="1109.42px " y="1024.38px ">s</tspan>sue</text><g transform="matrix(33.3333,0,0,33.3333,1207.65,1054.38)"></g><text x="1081.65px" y="1054.38px" style="font-family:'ArialMT', 'Arial', sans-serif;font-size:33.333px;">scanned</text></g></svg>