<?xml version="1.0" encoding="UTF-8" standalone="no"?><!DOCTYPE svg PUBLIC "-//W3C//DTD SVG 1.1//EN" "http://www.w3.org/Graphics/SVG/1.1/DTD/svg11.dtd"><svg width="100%" height="100%" viewBox="0 0 504 263" version="1.1" xmlns="http://www.w3.org/2000/svg" xmlns:xlink="http://www.w3.org/1999/xlink" xml:space="preserve" xmlns:serif="http://www.serif.com/" style="fill-rule:evenodd;clip-rule:evenodd;stroke-miterlimit:10;"><rect x="232.476" y="161.123" width="21.546" height="21.546" style="fill:#ed7569;"/><rect x="32.184" y="161.123" width="21.546" height="21.546" style="fill:#81c2ff;"/><path d="M354.788,79.03c0,4.954 -3.983,8.938 -8.896,8.938c-4.916,-0 -8.9,-3.984 -8.9,-8.938c0,-4.904 3.984,-8.883 8.9,-8.883c4.913,-0 8.896,3.979 8.896,8.883" style="fill:#c8c8c8;fill-rule:nonzero;"/><path d="M288.128,55.999c-11.313,0 -65.263,5.259 -73.617,5.259c-8.362,-0 -72.704,1.075 -82.896,1.075l-1.308,-0c-3.35,-0 -17.904,1.021 -19.242,1.021c-1.291,-0 -34.187,12.358 2.354,12.358c2.396,-0 5.096,-0.054 8.117,-0.154c1.571,-0.05 7.913,-1.175 11.217,-1.992c0.221,-0.05 0.612,-0.1 1.158,-0.1c7.654,0 45.075,5.054 50.729,5.054c6.054,0 67.442,3.829 72.946,3.829c5.504,0 10.733,6.896 22.708,12.663c6.13,2.962 10.667,3.729 14.584,3.729c3.733,0 6.9,-0.662 10.333,-0.817c7.017,-0.254 6.467,-4.291 9.083,-4.391l0.463,-0c2.492,-0 5.179,0.971 5.179,0.971c4.417,1.733 9.117,2.35 13.554,2.35c8.704,-0 16.421,-2.3 19.067,-2.35c3.987,-0.155 10.183,-11.03 10.596,-13.534c0.412,-2.45 -1.242,-2.45 -0.829,-2.858c0.416,-0.408 0.141,-3.421 -0,-5.363c-0.138,-1.941 -8.067,-5.466 -11.621,-7.966c-1.063,-0.717 -2.246,-0.971 -3.446,-0.971c-2.483,-0 -5.046,1.071 -6.804,1.071c-0.25,-0 -0.479,-0.05 -0.688,-0.1c-2.175,-0.459 -7.766,-2.45 -10.362,-2.45c-0.342,-0 -0.625,0.05 -0.85,0.1c-0.225,0.104 -0.592,0.154 -1.084,0.154c-3.733,-0 -14.445,-2.042 -20.25,-3.371c-6.566,-1.429 -10.391,-2.604 -17.775,-3.167c-0.337,-0.05 -0.779,-0.05 -1.316,-0.05" style="fill:none;fill-rule:nonzero;stroke:#81c2ff;stroke-width:1.28px;"/><path d="M255.957,72.82c-7.542,0.8 -14.267,1.675 -19.471,2.229c-15.446,1.633 -25.171,2.704 -25.171,2.704" style="fill:none;fill-rule:nonzero;stroke:#81c2ff;stroke-width:1.28px;"/><path d="M284.495,77.037c-10.079,-3.525 -13.696,-5.792 -28.538,-4.217" style="fill:none;fill-rule:nonzero;stroke:#000;stroke-width:1.28px;"/><path d="M278.094,76.17c3.175,2.146 8.191,5.463 14.512,4.904c6.321,-0.562 16.383,-0.562 16.813,4.596c0.433,5.154 -4.059,11.184 -10.775,10.925c-6.725,-0.254 -25.296,-12.508 -27.88,-13.787c-2.587,-1.325 -18.25,-2.146 -19.829,-3.521c-1.579,-1.379 5.309,-6.129 14.504,-5.771c9.196,0.304 9.967,0.867 12.655,2.654Z" style="fill:none;fill-rule:nonzero;stroke:#000;stroke-width:1.28px;"/><path d="M255.957,69.769c12.646,-3.963 28.9,-8.3 35.362,-7.913" style="fill:none;fill-rule:nonzero;stroke:#000;stroke-width:1.28px;"/><path d="M114.874,68.919c-0,0 22.346,-1.992 44.037,-1.992c23.967,0.05 68.13,3.217 89.696,3.217c2.375,0 4.846,-0.142 7.35,-0.375" style="fill:none;fill-rule:nonzero;stroke:#81c2ff;stroke-width:1.28px;"/><path d="M298.066,70.653c0.384,2.654 3.096,6.434 5.913,6.742c3.004,0.308 9.887,-2.246 12.037,-4.342c1.405,-1.325 1.421,-2.808 0.509,-4.441c-1.459,-2.655 -4.088,-3.421 -6.884,-4.138c-2.45,-0.562 -7.429,-1.429 -9.4,0.563c-1.179,1.225 -2.42,3.933 -2.175,5.616Z" style="fill:none;fill-rule:nonzero;stroke:#000;stroke-width:1.28px;"/><path d="M291.831,72.441c0.063,-0.104 0.213,-0.204 0.309,-0.254c0.366,-0.054 0.958,1.787 0.966,2.142l0.517,0.104l-0.021,-0.304c0.779,-0.413 0.184,0.662 1.05,0.354c-0.112,-0.817 -0.483,-1.634 -0.983,-2.246c-0.208,-0.308 -0.55,-0.508 -0.75,-0.767c-0.063,-0.1 -0.225,-0.204 -0.046,-0.304c0.742,0.408 1.042,1.121 1.5,1.733c0.546,0.717 0.813,0.767 1.158,1.738c0.155,0.408 -0.037,0.662 0.509,0.767l0.021,-0.459l0.245,-0.104c0.642,0.308 1.167,1.021 1.813,1.379c0.658,0.309 1.554,0.563 2.267,0.767l-1.196,-1.075c-1.825,-0.867 -3.821,-2.654 -5.209,-4.133c-0.108,-0.105 -0.52,-0.463 -0.358,-0.613c0.354,0.05 0.433,0.408 0.638,0.563c1.412,1.325 2.691,2.041 4.154,3.112c0.912,0.663 1.733,1.688 2.637,2.4c0.375,0.254 0.713,0.613 1.167,0.408c-0.217,-0.304 -0.5,-0.562 -0.75,-0.866c-1.671,-1.788 -4.771,-3.575 -6.829,-5.209c-0.154,-0.104 -0.925,-0.716 -0.675,-0.92l0.421,0.254c-0.45,-0.663 -0.6,-1.479 -0.659,-2.246c-0.996,-0.408 -2.096,-1.125 -2.6,-2.092c-0.721,0.05 -2.158,-0.054 -2.712,0.459c-0.188,0.204 -0.359,0.716 -0.546,0.716c-1.367,-0.716 -3.017,-0.512 -4.367,0.15c-0.346,0.204 -0.654,0.463 -0.991,0.667c-0.342,0.15 -0.825,0.204 -1.155,0.354c-0.316,0.154 -0.42,0.408 -0.7,0.563c-0.6,-0.05 -1.187,-0.255 -1.787,-0.359c-2.913,-0.458 -5.854,-0.971 -8.788,-1.429c-0.708,-0.1 -0.975,-0.204 -1.258,0.563c-0.337,0.92 -0.204,1.787 -0.125,2.708l17.475,4.133c0.542,-1.837 1.675,-4.287 3.958,-4.033c-0.004,0.254 -0.095,0.154 -0.229,0.204c-0.35,0.05 -0.741,0.104 -1.079,0.204c-0.721,0.309 -1.492,1.279 -1.817,1.992c-0.104,0.204 -0.787,1.892 -0.77,2.042c0.033,0.204 0.566,0.666 0.258,1.175c2.208,0.716 3.183,-0.613 4.229,-2.246c0.379,-0.613 0.721,-1.479 1.108,-1.992Z" style="fill:none;fill-rule:nonzero;stroke:#000;stroke-width:1.28px;"/><path d="M318.349,74.178c0.734,0.104 1.6,-0.359 2.33,-0.359c1.95,0 3.45,2.4 5.895,1.838c0.663,-0.15 1.459,-1.071 1.321,-1.733c-0.429,-2.096 -5.271,-4.905 -7.216,-5.363c-0.505,-0.154 -1.488,-0.258 -1.905,0.05c-0.495,0.408 -1.404,2.758 -1.579,3.421c-0.3,1.125 -0.246,1.992 1.154,2.146Z" style="fill:none;fill-rule:nonzero;stroke:#000;stroke-width:1.28px;"/><path d="M292.235,67.488c0.925,0.766 1.925,1.329 3.15,1.275c0.921,-0.05 1.912,-0.917 2.871,-0.663c0.304,-1.225 1.07,-2.35 1.895,-3.321l1.142,-0.762c-2.925,-1.433 -6.462,-0.821 -8.992,1.121c-1.25,0.971 -1.341,1.329 -0.066,2.35Z" style="fill:none;fill-rule:nonzero;stroke:#000;stroke-width:1.28px;"/><path d="M316.884,73.564c-0.087,-0.254 -0.112,-0.662 -0.104,-0.92l-0.708,0.716c2.258,2.196 -1.313,4.596 -2.546,1.584l-2.758,1.275c0.521,-0 0.937,0.204 1.379,0.308c0.158,0.05 0.354,-0.05 0.567,-0c2.341,0.662 2.812,1.479 3.37,3.725c0.255,1.025 0.446,2.196 0.534,3.217c0.996,-0.459 2.004,-0.459 3.079,-0.355c-0.571,-1.837 -0.658,-3.883 -1.258,-5.72c-0.43,-1.275 -1.105,-2.555 -1.555,-3.83Z" style="fill:none;fill-rule:nonzero;stroke:#000;stroke-width:1.28px;"/><path d="M303.459,78.313c-0.196,-0.204 -1.071,-1.275 -1.225,-1.175c-0.175,0.104 0.412,0.513 0.362,0.767c-0.07,0.254 -0.3,0.408 -0.579,0.408c-0.375,-0.05 -0.737,-0.766 -1.112,-0.916c-0.238,-0.105 -0.55,-0.105 -0.8,-0.155c-0.825,-0.308 -2.563,-1.279 -3.029,-0.054c-0.405,1.021 0.445,1.788 1.208,2.35c1.612,1.225 5.325,2.25 7.308,2.146c0.992,-0.1 2.221,-0.562 2.484,-1.633c-1.634,0.508 -3.459,-0.663 -4.617,-1.738Z" style="fill:none;fill-rule:nonzero;stroke:#000;stroke-width:1.28px;"/><path d="M333.731,77.547c-0.5,-0.308 -1.063,-1.429 -1.563,-1.941c-0.946,-0.917 -2.696,-1.479 -4.012,-1.275c-0.513,1.071 -1.188,1.379 -0.63,2.654c0.55,1.279 2.171,1.837 3.471,1.687c1.079,-0.104 1.929,-1.125 3.138,-0.816c0.125,-0.259 -0.217,-0.204 -0.404,-0.309Z" style="fill:none;fill-rule:nonzero;stroke:#000;stroke-width:1.28px;"/><path d="M320.26,74.127c-0.929,0.104 -1.85,0.612 -2.759,-0l1.013,2.908c2.283,-0.404 4.642,0.204 6.937,-0.1c0.58,-0.1 1.75,-0.408 1.717,-1.125c-0.437,-0 -0.854,0.204 -1.312,0.154c-2.225,-0.154 -3.625,-1.992 -5.596,-1.837Z" style="fill:none;fill-rule:nonzero;stroke:#000;stroke-width:1.28px;"/><path d="M297.827,76.271l-1.533,-1.175c0.12,0.816 -0.092,0.921 -0.871,0.662c0.037,-0.762 -0.221,-1.479 -0.646,-2.091c-0.121,0.358 0.379,1.02 0.062,1.275c-0.287,0.204 -0.908,0.054 -0.879,-0.359l-0.087,0c-0.084,0.259 -0.371,0.413 -0.621,0.309c-0.429,-0.205 -0.454,-1.021 -0.625,-1.48c-0.067,-0.154 -0.308,-0.87 -0.508,-0.87l-2.088,3.37l6.492,1.38c0.337,-0 0.371,-0.459 0.629,-0.663c0.175,-0.154 0.533,-0.204 0.675,-0.358Z" style="fill:none;fill-rule:nonzero;stroke:#000;stroke-width:1.28px;"/><path d="M294.079,68.815c-0.184,1.021 0.495,2.3 1.254,2.913c0.191,0.2 0.916,0.662 1.116,0.712l2.196,0.463c-0.587,-1.229 -1.083,-2.454 -0.779,-3.834c-0.25,0.105 -0.467,0.921 -0.775,0.563l-0.05,-0.154c-0.042,-0.409 0.404,-0.767 0.554,-1.121c-1.216,0.304 -2.216,0.967 -3.516,0.458Z" style="fill:none;fill-rule:nonzero;stroke:#000;stroke-width:1.28px;"/><path d="M319.463,81.275c0.708,0.309 1.25,1.021 1.95,1.379c0.133,0.1 0.133,0.1 0.296,0.05c0.683,-0.254 1.204,-1.583 1.079,-2.295l-4.033,-2.913l0.708,3.779Z" style="fill:none;fill-rule:nonzero;stroke:#000;stroke-width:1.28px;"/><path d="M312.365,76.834c-0.588,1.633 -2.325,2.45 -3.954,2.091c0.079,0.871 -0.071,1.638 -0.68,2.3c0.738,0.05 1.517,-0.104 2.192,-0.408c0.6,-0.204 0.833,-0.358 0.833,-0.358c1.113,-0.563 2.046,-1.33 2.938,-2.146l1.062,-0.563c-0.679,-0.458 -1.462,-0.816 -2.27,-0.966l-0.121,0.05Z" style="fill:none;fill-rule:nonzero;stroke:#000;stroke-width:1.28px;"/><path d="M305.068,77.65c-0.642,-0 -1.338,-0.05 -1.975,-0.154c0.325,0.462 0.95,1.021 1.429,1.329c0.854,0.612 1.946,1.175 3.021,1.071c1.208,-0.154 0.441,-1.584 -0.217,-2.092c-0.792,-0.612 -1.362,-0.204 -2.258,-0.154Z" style="fill:none;fill-rule:nonzero;stroke:#000;stroke-width:1.28px;"/><path d="M308.867,78.722c1.396,0.104 2.829,-0.613 3.292,-1.992c-1.805,-0.716 -3.275,0.359 -5.005,0.613l0.717,0.562c0.392,0.459 0.221,0.767 0.996,0.817Z" style="fill:none;fill-rule:nonzero;stroke:#000;stroke-width:1.28px;"/><path d="M302.979,82.245c-0.342,0.104 -1.338,0.309 -1.158,0.867c0.066,0.204 0.87,0.562 1.108,0.612c0.5,0.105 1.617,-0.05 1.796,-0.05c0.358,-0.05 1.216,-0.458 1.504,-0.662c0.312,-0.254 1.087,-1.071 0.433,-1.275c-1.221,0.304 -2.458,0.204 -3.683,0.508Z" style="fill:none;fill-rule:nonzero;stroke:#000;stroke-width:1.28px;"/><path d="M313.779,74.841c1.017,2.45 4.025,0.817 2.2,-1.329l-0.637,0.358l-1.563,0.971Z" style="fill:none;fill-rule:nonzero;stroke:#000;stroke-width:1.28px;"/><path d="M114.874,68.919c22.833,-2.771 70.137,-2.504 96.442,-0.046" style="fill:none;fill-rule:nonzero;stroke:#000;stroke-width:1.28px;"/><path d="M255.957,74.978c-0,-0 -5.104,1.929 -5.246,3.712c-0.142,1.779 5.246,1.792 5.246,1.792" style="fill:none;fill-rule:nonzero;stroke:#81c2ff;stroke-width:0.57px;"/><g transform="matrix(1,0,0,1,-864.209,-841.747)"><text x="1129.97px" y="1024.38px" style="font-family:'ArialMT', 'Arial', sans-serif;font-size:33.333px;">T<tspan x="1149.09px 1156.5px " y="1024.38px 1024.38px ">is</tspan>sue</text><g transform="matrix(33.3333,0,0,33.3333,1331.91,1057.72)"></g><text x="1129.97px" y="1057.72px" style="font-family:'ArialMT', 'Arial', sans-serif;font-size:33.333px;">reconstructed</text></g><g transform="matrix(1,0,0,1,-1017.22,-841.747)"><text x="1081.65px" y="1024.38px" style="font-family:'ArialMT', 'Arial', sans-serif;font-size:33.333px;">Ti<tspan x="1109.42px " y="1024.38px ">s</tspan>sue</text><g transform="matrix(33.3333,0,0,33.3333,1207.65,1054.38)"></g><text x="1081.65px" y="1054.38px" style="font-family:'ArialMT', 'Arial', sans-serif;font-size:33.333px;">scanned</text></g></svg>