<?xml version="1.0" encoding="UTF-8" standalone="no"?><!DOCTYPE svg PUBLIC "-//W3C//DTD SVG 1.1//EN" "http://www.w3.org/Graphics/SVG/1.1/DTD/svg11.dtd"><svg width="100%" height="100%" viewBox="0 0 697 721" version="1.1" xmlns="http://www.w3.org/2000/svg" xmlns:xlink="http://www.w3.org/1999/xlink" xml:space="preserve" xmlns:serif="http://www.serif.com/" style="fill-rule:evenodd;clip-rule:evenodd;stroke-miterlimit:10;"><path d="M464.64,170.579c-0,-0 3.667,2.542 9.917,2.083c6.291,-0.5 14.25,-3.041 14.083,-8.875c-0.167,-5.833 -8.875,-6.916 -13.167,-6.916c-11.75,-0 -12.708,6.083 -10.833,13.708" style="fill:#81c2ff;fill-rule:nonzero;"/><path d="M542.039,113.167c-0.996,-0.187 -2.304,-0.35 -3.779,-0.496c-6.017,-3.945 -16.513,-8.829 -31.471,-8.504c0,0 -10,-2.125 -20.333,-1.958c-10.334,0.125 -13.25,1.667 -13.25,1.667c-0,-0 -11.334,-1.542 -25.542,3.833c-6.504,2.479 -9.767,4.492 -11.433,6.133l-0.004,0c-24.817,5.025 -5.013,28.688 10.225,41.367c0.058,0.05 0.116,0.096 0.175,0.142c0.57,0.47 1.133,0.933 1.687,1.37c0.108,0.088 0.213,0.167 0.321,0.25c0.5,0.396 0.996,0.784 1.479,1.146c0.15,0.113 0.292,0.213 0.442,0.321c0.429,0.321 0.858,0.642 1.266,0.933c0.192,0.138 0.371,0.255 0.555,0.384c0.358,0.246 0.72,0.5 1.058,0.725c0.212,0.141 0.4,0.258 0.604,0.387c0.292,0.188 0.592,0.388 0.871,0.554c0.267,0.167 0.512,0.3 0.767,0.446c0.183,0.104 0.379,0.225 0.554,0.317c0.262,0.146 0.5,0.254 0.737,0.371c0.138,0.066 0.288,0.15 0.413,0.208c0.35,0.154 0.671,0.275 0.95,0.363c2.016,0.604 4.396,1.041 6.9,1.341c-1.171,1.1 -1.904,2.275 -1.859,3.45c0.109,2.838 5.909,5.254 11.159,6.65c-14.667,33.992 -50.896,41.021 -95.45,49.642c-17.709,3.417 -47.875,12.25 -77.167,34.833c-22,17 -38.875,53.875 -38.875,53.875c0,0 -2.708,9.084 -0.125,9.084c3,-0.042 3.875,-12.917 23.875,-33.625c40.417,-41.959 73.75,-44.959 116.792,-56.792c21.458,-5.917 50.375,-7.375 77.708,-28.5c6.075,-4.7 11.554,-15.458 16.029,-27.313c0.909,0.071 1.867,0.1 2.929,0.021c6.292,-0.5 14.25,-3.041 14.084,-8.875c-0.025,-0.866 -0.284,-1.6 -0.642,-2.266c1.096,-0.113 2.167,-0.246 3.142,-0.442c-0,-0 33.291,-16.5 34.875,-29.833c1.625,-13.334 -0.292,-19.417 -9.667,-21.209Z" style="fill:none;fill-rule:nonzero;stroke:#000;stroke-width:2.08px;"/><path d="M574.039,74.001c-0.833,-0 -1.625,0.083 -2.375,0.166c-14.5,2.042 -18.75,20.625 -16.75,35.084c1.875,13.291 13.208,22.875 26.25,22.875c1.208,-0 2.417,-0.084 3.667,-0.25c14.5,-2.042 31.208,-12.875 29.208,-27.375c-1.917,-13.75 -25.208,-30.5 -40,-30.5m0,1.625c14.75,-0 36.667,16.583 38.417,29.083c1.041,7.708 -3.709,13.458 -7.875,16.917c-5.292,4.416 -12.75,7.625 -19.959,8.625c-1.166,0.166 -2.333,0.25 -3.458,0.25c-12.333,-0 -22.917,-9.209 -24.625,-21.459c-1.042,-7.541 -0.292,-15.333 2.083,-21.416c1.875,-4.834 5.709,-10.792 13.25,-11.875c0.709,-0.084 1.417,-0.125 2.167,-0.125" style="fill:#81c2ff;fill-rule:nonzero;"/><path d="M382.539,82.959c-14.667,-0 -35.875,23.167 -35.875,37.792c0,14.625 17.792,21.416 32.417,21.416c14.666,0 26.541,-11.875 26.541,-26.5c0,-14.666 -8.458,-32.708 -23.083,-32.708m0,1.625c14,-0 21.458,18.042 21.458,31.083c0,13.709 -11.166,24.875 -24.916,24.875c-14.917,0 -30.834,-6.958 -30.834,-19.791c0,-14.209 20.834,-36.167 34.292,-36.167" style="fill:#81c2ff;fill-rule:nonzero;"/><path d="M568.456,58.251c-1.25,-0 -2.5,0.083 -3.667,0.25c-19.667,2.75 -27.125,25.291 -26.5,45.875c-15.583,-8 -34.667,-12 -55.75,-12c-25.042,-0 -45.958,6 -61.5,17.583c-2.583,-20.667 -15.083,-42.458 -35.042,-42.458c-22.583,-0 -55.333,35.666 -55.333,58.25c0,22.583 27.458,33.041 50.042,33.041c4.208,0 8.25,-0.625 12.041,-1.791c-1.333,6.75 -2.041,14 -2.041,21.75c-0,12.5 0.916,21.75 3.083,29.25c-98.375,10.166 -138.625,62.166 -154.625,103.666c-18.958,27.875 -53.167,67.917 -119.958,96.542c-53.5,22.958 -106.667,50.958 -94,82.75c8.458,21.208 27.083,34.75 59.875,34.75c17.375,-0 38.708,-3.792 64.666,-12.25c0.042,-0 0.042,-0.042 0.042,-0.042c-0.583,0 -22.167,4.334 -45.75,4.334c-9.417,-0 -19.125,-0.667 -27.958,-2.625c-17.334,-3.792 -42.084,-21.459 -30.625,-39.667c8.416,-13.333 41.375,-26.333 123.666,-65.292c34.917,-16.583 54.25,-27.333 65.5,-35.416c6.542,8.208 17.125,16.25 21,18.875c5.542,3.666 -10.416,41.125 -4.916,57.083c0.083,0.25 0.208,0.333 0.333,0.333c1.5,0 6.042,-14.708 8.833,-14.708c0.084,-0 0.209,0.042 0.292,0.083c2.167,0.834 1.625,21.75 4.375,21.834l0.042,-0c3.291,-0 0.666,-18.875 4.291,-19.667l0.042,-0c1.75,-0 9.333,17.125 11.083,17.125c0,-0 0.042,-0 0.084,-0.042c4.5,-1.375 -3.625,-23 -0.209,-25.041c0.209,-0.125 0.417,-0.167 0.667,-0.167c4.083,-0 16.125,13.667 18.375,13.667c0.125,-0 0.25,-0.042 0.292,-0.167c4.916,-9.833 -10.417,-20.875 -17.792,-29.458c-6.667,-7.792 -0.75,-13.084 3.625,-13.084c0.458,0 0.875,0.084 1.292,0.167c4.083,1.167 31.791,23.833 61.125,23.833c1.541,0 3.083,-0.041 4.625,-0.208c34.416,-2.917 34.333,-11.958 46,-13.792c0.125,-0.041 0.291,-0.041 0.458,-0.041c12.25,-0 52.917,69.541 52.333,80.458c-0.625,11.083 12.875,35.625 19.625,36.833c0.167,0.042 0.334,0.042 0.417,0.042c5.333,-0 -7.917,-22.375 -7.917,-22.375c0,-0 0.042,0.083 0.125,0.25c1.709,2.833 16.625,16.208 21.709,16.208c0.416,0 0.75,-0.083 1.041,-0.25c3.375,-2.25 -16.083,-20.083 -14.958,-20.083c0.125,-0 0.375,0.125 0.833,0.458c4.584,3.042 17.25,13.75 21.709,13.75c0.916,0 1.5,-0.458 1.625,-1.5c0.583,-6.125 -19.042,-22.083 -20.875,-22.708c-1.875,-0.625 -14.584,-97 26.541,-106.208c2.959,-0.667 5.709,-1 8.292,-1c33.458,-0 37.458,52.166 43.75,71c6.75,20.25 -10.458,39.291 -7.375,41.125c0.375,0.208 0.792,0.291 1.292,0.291c3.625,0 10.416,-5.375 15.291,-6.416c0.125,-0.042 0.292,-0.084 0.459,-0.084c5.666,0 27.583,16.25 34.75,16.25c1.208,0 2,-0.458 2.208,-1.458c1.875,-7.375 -19.625,-12.875 -28.208,-22.083c-8.625,-9.209 4.291,-44.834 3.666,-53.417c-0.625,-8.583 11.667,-55.25 16.584,-116.042c4.541,-56.125 -16.542,-97.541 -19.834,-103.583c0.209,-0.375 0.459,-0.75 0.667,-1.125c1.083,-0.375 2.417,-1.083 1,-1.833c5,-9.5 7.333,-19.209 7.333,-30.792c0,-10.833 -1.541,-20.583 -4.458,-29.375c1.125,0.125 2.208,0.167 3.333,0.167c1.875,-0 3.709,-0.125 5.625,-0.417c22.334,-3.083 48.125,-19.833 45.042,-42.167c-2.958,-21.208 -38.917,-47.041 -61.708,-47.041m-0,1.625c23.125,-0 57.375,26 60.083,45.625c1.708,12.25 -5.792,21.375 -12.375,26.875c-8.292,6.875 -20,11.916 -31.292,13.5c-1.75,0.25 -3.583,0.375 -5.375,0.375c-1.083,-0 -2.125,-0.042 -3.208,-0.125l-2.417,-0.209l0.75,2.334c2.917,8.75 4.417,18.458 4.417,28.833c0,11.25 -2.292,20.792 -7.167,30.042l-0.583,1.25l-0.125,0.041l-0.292,0.5l-0.625,1.084l-0.458,0.791l0.417,0.834c2.5,4.583 24.166,46.5 19.625,102.666c-3.042,38.084 -9,70.375 -12.917,91.709c-2.333,12.75 -3.875,21.166 -3.625,24.583c0.167,2.542 -1.083,8.167 -2.5,14.708c-3.167,14.625 -7.125,32.834 -0.792,39.667c3.834,4.083 9.792,7.333 15.542,10.458c6.458,3.5 13.083,7.125 12.292,10.292c-0,-0 -0.125,0.083 -0.625,0.083c-3.375,0 -11.709,-4.791 -18.417,-8.625c-8.208,-4.708 -13.375,-7.583 -16.333,-7.583c-0.292,-0 -0.584,-0 -0.834,0.083c-2.5,0.542 -5.291,2.042 -8,3.5c-2.625,1.417 -5.375,2.875 -6.916,2.917c0.291,-1.042 1.25,-3.042 2.125,-4.833c3.833,-7.959 10.208,-21.292 5.458,-35.5c-1.167,-3.584 -2.292,-8.375 -3.583,-13.917c-5.334,-23.167 -13.417,-58.167 -41.667,-58.167c-2.75,0 -5.667,0.334 -8.625,1c-23.208,5.167 -29.583,36.084 -30.875,61.084c-0.917,18.625 1.083,47.208 4.083,48.208c2.459,1.125 20.334,16.167 19.834,21.083c-2.792,0 -11,-6.208 -15.917,-9.875c-2,-1.5 -3.708,-2.833 -4.917,-3.625c-0.708,-0.458 -1.166,-0.708 -1.708,-0.708l-1.083,0.042l-0.417,0.958c-0.5,1.208 -0.25,1.458 3.958,5.917c2.875,3 10.125,10.666 11.167,13.416c-4.583,-0.541 -18.417,-12.708 -20.125,-15.583l-0.5,-0.875l-1.833,-0l-0.5,0.833l-0.417,0.834l0.458,0.833c5.875,10.042 9.042,17.667 8.959,19.833c-5.75,-1.5 -18.667,-24.708 -18.084,-35.125c0.542,-9.833 -27.375,-58.25 -43.291,-75.083c-4.5,-4.75 -8,-7.042 -10.667,-7.042c-0.25,0 -0.5,0 -0.708,0.042c-4.375,0.667 -7.209,2.292 -10.459,4.208c-5.958,3.417 -13.375,7.667 -35.416,9.584c-1.5,0.125 -3,0.166 -4.5,0.166c-22.5,0 -44.125,-13.666 -54.5,-20.208c-3.459,-2.167 -5.125,-3.25 -6.167,-3.542c-0.542,-0.166 -1.125,-0.208 -1.75,-0.208c-3.125,-0 -6.25,1.958 -7.542,4.792c-0.875,1.875 -1.666,5.791 2.709,10.916c1.708,1.959 3.75,4.042 5.916,6.209c6.584,6.583 13.959,13.958 12.125,20.25c-1.25,-0.917 -3.416,-2.875 -5.083,-4.375c-5.833,-5.334 -9.875,-8.792 -12.625,-8.792c-0.542,-0 -1.083,0.125 -1.5,0.375c-2.417,1.5 -1.792,5.875 -0.417,13.458c0.542,3.084 1.5,8.459 1.25,10.667c-1.083,-1.625 -2.791,-4.75 -4.041,-7c-4.125,-7.583 -5.292,-9.375 -6.917,-9.375l-0.25,-0l-0.167,0.042c-3.041,0.708 -3.25,5.666 -3.541,11.916c-0.084,1.75 -0.167,4.042 -0.375,5.709c-0.417,-2.292 -0.75,-5.834 -0.959,-8.25c-0.708,-8.084 -1.083,-10.792 -2.875,-11.459l-0.583,-0.166l-0.292,-0c-2.541,-0 -4.375,3.791 -7.166,10c-0.334,0.833 -0.75,1.75 -1.167,2.625c-1.458,-8.584 1.5,-21.75 3.917,-32.584c2.958,-13.291 4.333,-20.333 1.083,-22.5c-3.25,-2.166 -14,-10.208 -20.667,-18.541l-0.958,-1.167l-1.25,0.875c-11.917,8.583 -32.625,19.75 -65.25,35.208c-16.708,7.959 -31.375,14.792 -44.25,20.792c-51.708,24.125 -73.125,34.125 -80.083,45.167c-3.584,5.666 -4.125,11.916 -1.542,18c5,12.041 20.875,21.375 33.208,24.083c8.042,1.792 17.584,2.667 28.292,2.667c7.542,-0 15.5,-0.417 23.833,-1.292c-16,4 -30.333,6 -42.791,6c-29.834,-0 -49.459,-11.333 -58.375,-33.75c-12.209,-30.583 40.25,-57.958 93.125,-80.625c51.958,-22.292 91.416,-54.083 120.833,-97.458c15.917,-41.25 55.458,-92.542 153.292,-102.625l1.875,-0.209l-0.5,-1.833c-2.084,-7.25 -3,-16.125 -3,-28.833c-0,-7.459 0.666,-14.667 2,-21.459l0.5,-2.625l-2.542,0.792c-3.75,1.125 -7.625,1.708 -11.583,1.708c-23.459,0 -48.417,-11 -48.417,-31.416c0,-22.209 32.625,-56.667 53.708,-56.667c18.542,-0 30.875,20.667 33.459,41.042l0.333,2.75l2.208,-1.625c15.375,-11.459 35.709,-17.25 60.542,-17.25c21.167,-0 39.708,3.958 55.042,11.791l2.416,1.25l-0.083,-2.708c-0.542,-18.708 5.667,-41.5 25.125,-44.208c1.083,-0.167 2.25,-0.25 3.417,-0.25" style="fill:#81c2ff;fill-rule:nonzero;"/><rect x="307.325" y="627.218" width="21.546" height="21.546" style="fill:#ed7569;"/><rect x="107.033" y="627.218" width="21.546" height="21.546" style="fill:#81c2ff;"/><g transform="matrix(1,0,0,1,-789.36,-375.653)"><text x="1129.97px" y="1024.38px" style="font-family:'ArialMT', 'Arial', sans-serif;font-size:33.333px;">T<tspan x="1149.09px 1156.5px " y="1024.38px 1024.38px ">is</tspan>sue</text><g transform="matrix(33.3333,0,0,33.3333,1331.91,1057.72)"></g><text x="1129.97px" y="1057.72px" style="font-family:'ArialMT', 'Arial', sans-serif;font-size:33.333px;">reconstructed</text></g><g transform="matrix(1,0,0,1,-942.374,-375.653)"><text x="1081.65px" y="1024.38px" style="font-family:'ArialMT', 'Arial', sans-serif;font-size:33.333px;">Ti<tspan x="1109.42px " y="1024.38px ">s</tspan>sue</text><g transform="matrix(33.3333,0,0,33.3333,1207.65,1054.38)"></g><text x="1081.65px" y="1054.38px" style="font-family:'ArialMT', 'Arial', sans-serif;font-size:33.333px;">scanned</text></g></svg>