<?xml version="1.0" encoding="utf-8" standalone="no"?>
<!DOCTYPE svg PUBLIC "-//W3C//DTD SVG 1.1//EN"
  "http://www.w3.org/Graphics/SVG/1.1/DTD/svg11.dtd">
<svg xmlns:xlink="http://www.w3.org/1999/xlink" width="714.225937pt" height="375.412813pt" viewBox="0 0 714.225937 375.412813" xmlns="http://www.w3.org/2000/svg" version="1.1">
 <metadata>
  <rdf:RDF xmlns:dc="http://purl.org/dc/elements/1.1/" xmlns:cc="http://creativecommons.org/ns#" xmlns:rdf="http://www.w3.org/1999/02/22-rdf-syntax-ns#">
   <cc:Work>
    <dc:type rdf:resource="http://purl.org/dc/dcmitype/StillImage"/>
    <dc:date>2026-01-25T06:37:41.914660</dc:date>
    <dc:format>image/svg+xml</dc:format>
    <dc:creator>
     <cc:Agent>
      <dc:title>Matplotlib v3.10.8, https://matplotlib.org/</dc:title>
     </cc:Agent>
    </dc:creator>
   </cc:Work>
  </rdf:RDF>
 </metadata>
 <defs>
  <style type="text/css">*{stroke-linejoin: round; stroke-linecap: butt}</style>
 </defs>
 <g id="figure_1">
  <g id="patch_1">
   <path d="M 0 375.412813 
L 714.225937 375.412813 
L 714.225937 0 
L 0 0 
z
" style="fill: #ffffff"/>
  </g>
  <g id="axes_1">
   <g id="patch_2">
    <path d="M 56.805937 304.162125 
L 701.265937 304.162125 
L 701.265937 28.318125 
L 56.805937 28.318125 
z
" style="fill: #fafaf8"/>
   </g>
   <g id="matplotlib.axis_1">
    <g id="xtick_1">
     <g id="line2d_1">
      <path d="M 111.536575 304.162125 
L 111.536575 28.318125 
" clip-path="url(#p11d3824f89)" style="fill: none; stroke: #e8e5e1; stroke-linecap: round"/>
     </g>
     <g id="text_1">
      <!-- $\mathdefault{10^{-2}}$ -->
      <g style="fill: #4a4a5a" transform="translate(98.611575 322.020406) scale(0.11 -0.11)">
       <defs>
        <path id="DejaVuSans-31" d="M 794 531 
L 1825 531 
L 1825 4091 
L 703 3866 
L 703 4441 
L 1819 4666 
L 2450 4666 
L 2450 531 
L 3481 531 
L 3481 0 
L 794 0 
L 794 531 
z
" transform="scale(0.015625)"/>
        <path id="DejaVuSans-30" d="M 2034 4250 
Q 1547 4250 1301 3770 
Q 1056 3291 1056 2328 
Q 1056 1369 1301 889 
Q 1547 409 2034 409 
Q 2525 409 2770 889 
Q 3016 1369 3016 2328 
Q 3016 3291 2770 3770 
Q 2525 4250 2034 4250 
z
M 2034 4750 
Q 2819 4750 3233 4129 
Q 3647 3509 3647 2328 
Q 3647 1150 3233 529 
Q 2819 -91 2034 -91 
Q 1250 -91 836 529 
Q 422 1150 422 2328 
Q 422 3509 836 4129 
Q 1250 4750 2034 4750 
z
" transform="scale(0.015625)"/>
        <path id="DejaVuSans-2212" d="M 678 2272 
L 4684 2272 
L 4684 1741 
L 678 1741 
L 678 2272 
z
" transform="scale(0.015625)"/>
        <path id="DejaVuSans-32" d="M 1228 531 
L 3431 531 
L 3431 0 
L 469 0 
L 469 531 
Q 828 903 1448 1529 
Q 2069 2156 2228 2338 
Q 2531 2678 2651 2914 
Q 2772 3150 2772 3378 
Q 2772 3750 2511 3984 
Q 2250 4219 1831 4219 
Q 1534 4219 1204 4116 
Q 875 4013 500 3803 
L 500 4441 
Q 881 4594 1212 4672 
Q 1544 4750 1819 4750 
Q 2544 4750 2975 4387 
Q 3406 4025 3406 3419 
Q 3406 3131 3298 2873 
Q 3191 2616 2906 2266 
Q 2828 2175 2409 1742 
Q 1991 1309 1228 531 
z
" transform="scale(0.015625)"/>
       </defs>
       <use xlink:href="#DejaVuSans-31" transform="translate(0 0.765625)"/>
       <use xlink:href="#DejaVuSans-30" transform="translate(63.623047 0.765625)"/>
       <use xlink:href="#DejaVuSans-2212" transform="translate(128.203125 39.046875) scale(0.7)"/>
       <use xlink:href="#DejaVuSans-32" transform="translate(186.855469 39.046875) scale(0.7)"/>
      </g>
     </g>
    </g>
    <g id="xtick_2">
     <g id="line2d_2">
      <path d="M 218.171523 304.162125 
L 218.171523 28.318125 
" clip-path="url(#p11d3824f89)" style="fill: none; stroke: #e8e5e1; stroke-linecap: round"/>
     </g>
     <g id="text_2">
      <!-- $\mathdefault{10^{0}}$ -->
      <g style="fill: #4a4a5a" transform="translate(208.491523 322.020406) scale(0.11 -0.11)">
       <use xlink:href="#DejaVuSans-31" transform="translate(0 0.765625)"/>
       <use xlink:href="#DejaVuSans-30" transform="translate(63.623047 0.765625)"/>
       <use xlink:href="#DejaVuSans-30" transform="translate(128.203125 39.046875) scale(0.7)"/>
      </g>
     </g>
    </g>
    <g id="xtick_3">
     <g id="line2d_3">
      <path d="M 324.806472 304.162125 
L 324.806472 28.318125 
" clip-path="url(#p11d3824f89)" style="fill: none; stroke: #e8e5e1; stroke-linecap: round"/>
     </g>
     <g id="text_3">
      <!-- $\mathdefault{10^{2}}$ -->
      <g style="fill: #4a4a5a" transform="translate(315.126472 322.020406) scale(0.11 -0.11)">
       <use xlink:href="#DejaVuSans-31" transform="translate(0 0.765625)"/>
       <use xlink:href="#DejaVuSans-30" transform="translate(63.623047 0.765625)"/>
       <use xlink:href="#DejaVuSans-32" transform="translate(128.203125 39.046875) scale(0.7)"/>
      </g>
     </g>
    </g>
    <g id="xtick_4">
     <g id="line2d_4">
      <path d="M 431.44142 304.162125 
L 431.44142 28.318125 
" clip-path="url(#p11d3824f89)" style="fill: none; stroke: #e8e5e1; stroke-linecap: round"/>
     </g>
     <g id="text_4">
      <!-- $\mathdefault{10^{4}}$ -->
      <g style="fill: #4a4a5a" transform="translate(421.76142 322.020406) scale(0.11 -0.11)">
       <defs>
        <path id="DejaVuSans-34" d="M 2419 4116 
L 825 1625 
L 2419 1625 
L 2419 4116 
z
M 2253 4666 
L 3047 4666 
L 3047 1625 
L 3713 1625 
L 3713 1100 
L 3047 1100 
L 3047 0 
L 2419 0 
L 2419 1100 
L 313 1100 
L 313 1709 
L 2253 4666 
z
" transform="scale(0.015625)"/>
       </defs>
       <use xlink:href="#DejaVuSans-31" transform="translate(0 0.684375)"/>
       <use xlink:href="#DejaVuSans-30" transform="translate(63.623047 0.684375)"/>
       <use xlink:href="#DejaVuSans-34" transform="translate(128.203125 38.965625) scale(0.7)"/>
      </g>
     </g>
    </g>
    <g id="xtick_5">
     <g id="line2d_5">
      <path d="M 538.076368 304.162125 
L 538.076368 28.318125 
" clip-path="url(#p11d3824f89)" style="fill: none; stroke: #e8e5e1; stroke-linecap: round"/>
     </g>
     <g id="text_5">
      <!-- $\mathdefault{10^{6}}$ -->
      <g style="fill: #4a4a5a" transform="translate(528.396368 322.020406) scale(0.11 -0.11)">
       <defs>
        <path id="DejaVuSans-36" d="M 2113 2584 
Q 1688 2584 1439 2293 
Q 1191 2003 1191 1497 
Q 1191 994 1439 701 
Q 1688 409 2113 409 
Q 2538 409 2786 701 
Q 3034 994 3034 1497 
Q 3034 2003 2786 2293 
Q 2538 2584 2113 2584 
z
M 3366 4563 
L 3366 3988 
Q 3128 4100 2886 4159 
Q 2644 4219 2406 4219 
Q 1781 4219 1451 3797 
Q 1122 3375 1075 2522 
Q 1259 2794 1537 2939 
Q 1816 3084 2150 3084 
Q 2853 3084 3261 2657 
Q 3669 2231 3669 1497 
Q 3669 778 3244 343 
Q 2819 -91 2113 -91 
Q 1303 -91 875 529 
Q 447 1150 447 2328 
Q 447 3434 972 4092 
Q 1497 4750 2381 4750 
Q 2619 4750 2861 4703 
Q 3103 4656 3366 4563 
z
" transform="scale(0.015625)"/>
       </defs>
       <use xlink:href="#DejaVuSans-31" transform="translate(0 0.765625)"/>
       <use xlink:href="#DejaVuSans-30" transform="translate(63.623047 0.765625)"/>
       <use xlink:href="#DejaVuSans-36" transform="translate(128.203125 39.046875) scale(0.7)"/>
      </g>
     </g>
    </g>
    <g id="xtick_6">
     <g id="line2d_6">
      <path d="M 644.711317 304.162125 
L 644.711317 28.318125 
" clip-path="url(#p11d3824f89)" style="fill: none; stroke: #e8e5e1; stroke-linecap: round"/>
     </g>
     <g id="text_6">
      <!-- $\mathdefault{10^{8}}$ -->
      <g style="fill: #4a4a5a" transform="translate(635.031317 322.020406) scale(0.11 -0.11)">
       <defs>
        <path id="DejaVuSans-38" d="M 2034 2216 
Q 1584 2216 1326 1975 
Q 1069 1734 1069 1313 
Q 1069 891 1326 650 
Q 1584 409 2034 409 
Q 2484 409 2743 651 
Q 3003 894 3003 1313 
Q 3003 1734 2745 1975 
Q 2488 2216 2034 2216 
z
M 1403 2484 
Q 997 2584 770 2862 
Q 544 3141 544 3541 
Q 544 4100 942 4425 
Q 1341 4750 2034 4750 
Q 2731 4750 3128 4425 
Q 3525 4100 3525 3541 
Q 3525 3141 3298 2862 
Q 3072 2584 2669 2484 
Q 3125 2378 3379 2068 
Q 3634 1759 3634 1313 
Q 3634 634 3220 271 
Q 2806 -91 2034 -91 
Q 1263 -91 848 271 
Q 434 634 434 1313 
Q 434 1759 690 2068 
Q 947 2378 1403 2484 
z
M 1172 3481 
Q 1172 3119 1398 2916 
Q 1625 2713 2034 2713 
Q 2441 2713 2670 2916 
Q 2900 3119 2900 3481 
Q 2900 3844 2670 4047 
Q 2441 4250 2034 4250 
Q 1625 4250 1398 4047 
Q 1172 3844 1172 3481 
z
" transform="scale(0.015625)"/>
       </defs>
       <use xlink:href="#DejaVuSans-31" transform="translate(0 0.765625)"/>
       <use xlink:href="#DejaVuSans-30" transform="translate(63.623047 0.765625)"/>
       <use xlink:href="#DejaVuSans-38" transform="translate(128.203125 39.046875) scale(0.7)"/>
      </g>
     </g>
    </g>
    <g id="text_7">
     <!-- Budget (Million $) -->
     <g style="fill: #4a4a5a" transform="translate(325.823437 337.426188) scale(0.12 -0.12)">
      <defs>
       <path id="DejaVuSans-42" d="M 1259 2228 
L 1259 519 
L 2272 519 
Q 2781 519 3026 730 
Q 3272 941 3272 1375 
Q 3272 1813 3026 2020 
Q 2781 2228 2272 2228 
L 1259 2228 
z
M 1259 4147 
L 1259 2741 
L 2194 2741 
Q 2656 2741 2882 2914 
Q 3109 3088 3109 3444 
Q 3109 3797 2882 3972 
Q 2656 4147 2194 4147 
L 1259 4147 
z
M 628 4666 
L 2241 4666 
Q 2963 4666 3353 4366 
Q 3744 4066 3744 3513 
Q 3744 3084 3544 2831 
Q 3344 2578 2956 2516 
Q 3422 2416 3680 2098 
Q 3938 1781 3938 1306 
Q 3938 681 3513 340 
Q 3088 0 2303 0 
L 628 0 
L 628 4666 
z
" transform="scale(0.015625)"/>
       <path id="DejaVuSans-75" d="M 544 1381 
L 544 3500 
L 1119 3500 
L 1119 1403 
Q 1119 906 1312 657 
Q 1506 409 1894 409 
Q 2359 409 2629 706 
Q 2900 1003 2900 1516 
L 2900 3500 
L 3475 3500 
L 3475 0 
L 2900 0 
L 2900 538 
Q 2691 219 2414 64 
Q 2138 -91 1772 -91 
Q 1169 -91 856 284 
Q 544 659 544 1381 
z
M 1991 3584 
L 1991 3584 
z
" transform="scale(0.015625)"/>
       <path id="DejaVuSans-64" d="M 2906 2969 
L 2906 4863 
L 3481 4863 
L 3481 0 
L 2906 0 
L 2906 525 
Q 2725 213 2448 61 
Q 2172 -91 1784 -91 
Q 1150 -91 751 415 
Q 353 922 353 1747 
Q 353 2572 751 3078 
Q 1150 3584 1784 3584 
Q 2172 3584 2448 3432 
Q 2725 3281 2906 2969 
z
M 947 1747 
Q 947 1113 1208 752 
Q 1469 391 1925 391 
Q 2381 391 2643 752 
Q 2906 1113 2906 1747 
Q 2906 2381 2643 2742 
Q 2381 3103 1925 3103 
Q 1469 3103 1208 2742 
Q 947 2381 947 1747 
z
" transform="scale(0.015625)"/>
       <path id="DejaVuSans-67" d="M 2906 1791 
Q 2906 2416 2648 2759 
Q 2391 3103 1925 3103 
Q 1463 3103 1205 2759 
Q 947 2416 947 1791 
Q 947 1169 1205 825 
Q 1463 481 1925 481 
Q 2391 481 2648 825 
Q 2906 1169 2906 1791 
z
M 3481 434 
Q 3481 -459 3084 -895 
Q 2688 -1331 1869 -1331 
Q 1566 -1331 1297 -1286 
Q 1028 -1241 775 -1147 
L 775 -588 
Q 1028 -725 1275 -790 
Q 1522 -856 1778 -856 
Q 2344 -856 2625 -561 
Q 2906 -266 2906 331 
L 2906 616 
Q 2728 306 2450 153 
Q 2172 0 1784 0 
Q 1141 0 747 490 
Q 353 981 353 1791 
Q 353 2603 747 3093 
Q 1141 3584 1784 3584 
Q 2172 3584 2450 3431 
Q 2728 3278 2906 2969 
L 2906 3500 
L 3481 3500 
L 3481 434 
z
" transform="scale(0.015625)"/>
       <path id="DejaVuSans-65" d="M 3597 1894 
L 3597 1613 
L 953 1613 
Q 991 1019 1311 708 
Q 1631 397 2203 397 
Q 2534 397 2845 478 
Q 3156 559 3463 722 
L 3463 178 
Q 3153 47 2828 -22 
Q 2503 -91 2169 -91 
Q 1331 -91 842 396 
Q 353 884 353 1716 
Q 353 2575 817 3079 
Q 1281 3584 2069 3584 
Q 2775 3584 3186 3129 
Q 3597 2675 3597 1894 
z
M 3022 2063 
Q 3016 2534 2758 2815 
Q 2500 3097 2075 3097 
Q 1594 3097 1305 2825 
Q 1016 2553 972 2059 
L 3022 2063 
z
" transform="scale(0.015625)"/>
       <path id="DejaVuSans-74" d="M 1172 4494 
L 1172 3500 
L 2356 3500 
L 2356 3053 
L 1172 3053 
L 1172 1153 
Q 1172 725 1289 603 
Q 1406 481 1766 481 
L 2356 481 
L 2356 0 
L 1766 0 
Q 1100 0 847 248 
Q 594 497 594 1153 
L 594 3053 
L 172 3053 
L 172 3500 
L 594 3500 
L 594 4494 
L 1172 4494 
z
" transform="scale(0.015625)"/>
       <path id="DejaVuSans-20" transform="scale(0.015625)"/>
       <path id="DejaVuSans-28" d="M 1984 4856 
Q 1566 4138 1362 3434 
Q 1159 2731 1159 2009 
Q 1159 1288 1364 580 
Q 1569 -128 1984 -844 
L 1484 -844 
Q 1016 -109 783 600 
Q 550 1309 550 2009 
Q 550 2706 781 3412 
Q 1013 4119 1484 4856 
L 1984 4856 
z
" transform="scale(0.015625)"/>
       <path id="DejaVuSans-4d" d="M 628 4666 
L 1569 4666 
L 2759 1491 
L 3956 4666 
L 4897 4666 
L 4897 0 
L 4281 0 
L 4281 4097 
L 3078 897 
L 2444 897 
L 1241 4097 
L 1241 0 
L 628 0 
L 628 4666 
z
" transform="scale(0.015625)"/>
       <path id="DejaVuSans-69" d="M 603 3500 
L 1178 3500 
L 1178 0 
L 603 0 
L 603 3500 
z
M 603 4863 
L 1178 4863 
L 1178 4134 
L 603 4134 
L 603 4863 
z
" transform="scale(0.015625)"/>
       <path id="DejaVuSans-6c" d="M 603 4863 
L 1178 4863 
L 1178 0 
L 603 0 
L 603 4863 
z
" transform="scale(0.015625)"/>
       <path id="DejaVuSans-6f" d="M 1959 3097 
Q 1497 3097 1228 2736 
Q 959 2375 959 1747 
Q 959 1119 1226 758 
Q 1494 397 1959 397 
Q 2419 397 2687 759 
Q 2956 1122 2956 1747 
Q 2956 2369 2687 2733 
Q 2419 3097 1959 3097 
z
M 1959 3584 
Q 2709 3584 3137 3096 
Q 3566 2609 3566 1747 
Q 3566 888 3137 398 
Q 2709 -91 1959 -91 
Q 1206 -91 779 398 
Q 353 888 353 1747 
Q 353 2609 779 3096 
Q 1206 3584 1959 3584 
z
" transform="scale(0.015625)"/>
       <path id="DejaVuSans-6e" d="M 3513 2113 
L 3513 0 
L 2938 0 
L 2938 2094 
Q 2938 2591 2744 2837 
Q 2550 3084 2163 3084 
Q 1697 3084 1428 2787 
Q 1159 2491 1159 1978 
L 1159 0 
L 581 0 
L 581 3500 
L 1159 3500 
L 1159 2956 
Q 1366 3272 1645 3428 
Q 1925 3584 2291 3584 
Q 2894 3584 3203 3211 
Q 3513 2838 3513 2113 
z
" transform="scale(0.015625)"/>
       <path id="DejaVuSans-24" d="M 2163 -941 
L 1850 -941 
L 1847 0 
Q 1519 6 1191 76 
Q 863 147 531 288 
L 531 850 
Q 850 650 1176 548 
Q 1503 447 1850 444 
L 1850 1869 
Q 1159 1981 845 2250 
Q 531 2519 531 2988 
Q 531 3497 872 3790 
Q 1213 4084 1850 4128 
L 1850 4863 
L 2163 4863 
L 2163 4138 
Q 2453 4125 2725 4076 
Q 2997 4028 3256 3944 
L 3256 3397 
Q 2997 3528 2723 3600 
Q 2450 3672 2163 3684 
L 2163 2350 
Q 2872 2241 3206 1959 
Q 3541 1678 3541 1191 
Q 3541 663 3186 358 
Q 2831 53 2163 6 
L 2163 -941 
z
M 1850 2406 
L 1850 3688 
Q 1488 3647 1297 3481 
Q 1106 3316 1106 3041 
Q 1106 2772 1282 2622 
Q 1459 2472 1850 2406 
z
M 2163 1806 
L 2163 453 
Q 2559 506 2761 678 
Q 2963 850 2963 1131 
Q 2963 1406 2770 1568 
Q 2578 1731 2163 1806 
z
" transform="scale(0.015625)"/>
       <path id="DejaVuSans-29" d="M 513 4856 
L 1013 4856 
Q 1481 4119 1714 3412 
Q 1947 2706 1947 2009 
Q 1947 1309 1714 600 
Q 1481 -109 1013 -844 
L 513 -844 
Q 928 -128 1133 580 
Q 1338 1288 1338 2009 
Q 1338 2731 1133 3434 
Q 928 4138 513 4856 
z
" transform="scale(0.015625)"/>
      </defs>
      <use xlink:href="#DejaVuSans-42"/>
      <use xlink:href="#DejaVuSans-75" transform="translate(68.603516 0)"/>
      <use xlink:href="#DejaVuSans-64" transform="translate(131.982422 0)"/>
      <use xlink:href="#DejaVuSans-67" transform="translate(195.458984 0)"/>
      <use xlink:href="#DejaVuSans-65" transform="translate(258.935547 0)"/>
      <use xlink:href="#DejaVuSans-74" transform="translate(320.458984 0)"/>
      <use xlink:href="#DejaVuSans-20" transform="translate(359.667969 0)"/>
      <use xlink:href="#DejaVuSans-28" transform="translate(391.455078 0)"/>
      <use xlink:href="#DejaVuSans-4d" transform="translate(430.46875 0)"/>
      <use xlink:href="#DejaVuSans-69" transform="translate(516.748047 0)"/>
      <use xlink:href="#DejaVuSans-6c" transform="translate(544.53125 0)"/>
      <use xlink:href="#DejaVuSans-6c" transform="translate(572.314453 0)"/>
      <use xlink:href="#DejaVuSans-69" transform="translate(600.097656 0)"/>
      <use xlink:href="#DejaVuSans-6f" transform="translate(627.880859 0)"/>
      <use xlink:href="#DejaVuSans-6e" transform="translate(689.0625 0)"/>
      <use xlink:href="#DejaVuSans-20" transform="translate(752.441406 0)"/>
      <use xlink:href="#DejaVuSans-24" transform="translate(784.228516 0)"/>
      <use xlink:href="#DejaVuSans-29" transform="translate(847.851562 0)"/>
     </g>
    </g>
   </g>
   <g id="matplotlib.axis_2">
    <g id="ytick_1">
     <g id="line2d_7">
      <path d="M 56.805937 304.162125 
L 701.265937 304.162125 
" clip-path="url(#p11d3824f89)" style="fill: none; stroke: #e8e5e1; stroke-linecap: round"/>
     </g>
     <g id="text_8">
      <!-- 0.00 -->
      <g style="fill: #4a4a5a" transform="translate(22.81375 308.341266) scale(0.11 -0.11)">
       <defs>
        <path id="DejaVuSans-2e" d="M 684 794 
L 1344 794 
L 1344 0 
L 684 0 
L 684 794 
z
" transform="scale(0.015625)"/>
       </defs>
       <use xlink:href="#DejaVuSans-30"/>
       <use xlink:href="#DejaVuSans-2e" transform="translate(63.623047 0)"/>
       <use xlink:href="#DejaVuSans-30" transform="translate(95.410156 0)"/>
       <use xlink:href="#DejaVuSans-30" transform="translate(159.033203 0)"/>
      </g>
     </g>
    </g>
    <g id="ytick_2">
     <g id="line2d_8">
      <path d="M 56.805937 267.94598 
L 701.265937 267.94598 
" clip-path="url(#p11d3824f89)" style="fill: none; stroke: #e8e5e1; stroke-linecap: round"/>
     </g>
     <g id="text_9">
      <!-- 0.25 -->
      <g style="fill: #4a4a5a" transform="translate(22.81375 272.125121) scale(0.11 -0.11)">
       <defs>
        <path id="DejaVuSans-35" d="M 691 4666 
L 3169 4666 
L 3169 4134 
L 1269 4134 
L 1269 2991 
Q 1406 3038 1543 3061 
Q 1681 3084 1819 3084 
Q 2600 3084 3056 2656 
Q 3513 2228 3513 1497 
Q 3513 744 3044 326 
Q 2575 -91 1722 -91 
Q 1428 -91 1123 -41 
Q 819 9 494 109 
L 494 744 
Q 775 591 1075 516 
Q 1375 441 1709 441 
Q 2250 441 2565 725 
Q 2881 1009 2881 1497 
Q 2881 1984 2565 2268 
Q 2250 2553 1709 2553 
Q 1456 2553 1204 2497 
Q 953 2441 691 2322 
L 691 4666 
z
" transform="scale(0.015625)"/>
       </defs>
       <use xlink:href="#DejaVuSans-30"/>
       <use xlink:href="#DejaVuSans-2e" transform="translate(63.623047 0)"/>
       <use xlink:href="#DejaVuSans-32" transform="translate(95.410156 0)"/>
       <use xlink:href="#DejaVuSans-35" transform="translate(159.033203 0)"/>
      </g>
     </g>
    </g>
    <g id="ytick_3">
     <g id="line2d_9">
      <path d="M 56.805937 231.729836 
L 701.265937 231.729836 
" clip-path="url(#p11d3824f89)" style="fill: none; stroke: #e8e5e1; stroke-linecap: round"/>
     </g>
     <g id="text_10">
      <!-- 0.50 -->
      <g style="fill: #4a4a5a" transform="translate(22.81375 235.908976) scale(0.11 -0.11)">
       <use xlink:href="#DejaVuSans-30"/>
       <use xlink:href="#DejaVuSans-2e" transform="translate(63.623047 0)"/>
       <use xlink:href="#DejaVuSans-35" transform="translate(95.410156 0)"/>
       <use xlink:href="#DejaVuSans-30" transform="translate(159.033203 0)"/>
      </g>
     </g>
    </g>
    <g id="ytick_4">
     <g id="line2d_10">
      <path d="M 56.805937 195.513691 
L 701.265937 195.513691 
" clip-path="url(#p11d3824f89)" style="fill: none; stroke: #e8e5e1; stroke-linecap: round"/>
     </g>
     <g id="text_11">
      <!-- 0.75 -->
      <g style="fill: #4a4a5a" transform="translate(22.81375 199.692831) scale(0.11 -0.11)">
       <defs>
        <path id="DejaVuSans-37" d="M 525 4666 
L 3525 4666 
L 3525 4397 
L 1831 0 
L 1172 0 
L 2766 4134 
L 525 4134 
L 525 4666 
z
" transform="scale(0.015625)"/>
       </defs>
       <use xlink:href="#DejaVuSans-30"/>
       <use xlink:href="#DejaVuSans-2e" transform="translate(63.623047 0)"/>
       <use xlink:href="#DejaVuSans-37" transform="translate(95.410156 0)"/>
       <use xlink:href="#DejaVuSans-35" transform="translate(159.033203 0)"/>
      </g>
     </g>
    </g>
    <g id="ytick_5">
     <g id="line2d_11">
      <path d="M 56.805937 159.297546 
L 701.265937 159.297546 
" clip-path="url(#p11d3824f89)" style="fill: none; stroke: #e8e5e1; stroke-linecap: round"/>
     </g>
     <g id="text_12">
      <!-- 1.00 -->
      <g style="fill: #4a4a5a" transform="translate(22.81375 163.476687) scale(0.11 -0.11)">
       <use xlink:href="#DejaVuSans-31"/>
       <use xlink:href="#DejaVuSans-2e" transform="translate(63.623047 0)"/>
       <use xlink:href="#DejaVuSans-30" transform="translate(95.410156 0)"/>
       <use xlink:href="#DejaVuSans-30" transform="translate(159.033203 0)"/>
      </g>
     </g>
    </g>
    <g id="ytick_6">
     <g id="line2d_12">
      <path d="M 56.805937 123.081401 
L 701.265937 123.081401 
" clip-path="url(#p11d3824f89)" style="fill: none; stroke: #e8e5e1; stroke-linecap: round"/>
     </g>
     <g id="text_13">
      <!-- 1.25 -->
      <g style="fill: #4a4a5a" transform="translate(22.81375 127.260542) scale(0.11 -0.11)">
       <use xlink:href="#DejaVuSans-31"/>
       <use xlink:href="#DejaVuSans-2e" transform="translate(63.623047 0)"/>
       <use xlink:href="#DejaVuSans-32" transform="translate(95.410156 0)"/>
       <use xlink:href="#DejaVuSans-35" transform="translate(159.033203 0)"/>
      </g>
     </g>
    </g>
    <g id="ytick_7">
     <g id="line2d_13">
      <path d="M 56.805937 86.865257 
L 701.265937 86.865257 
" clip-path="url(#p11d3824f89)" style="fill: none; stroke: #e8e5e1; stroke-linecap: round"/>
     </g>
     <g id="text_14">
      <!-- 1.50 -->
      <g style="fill: #4a4a5a" transform="translate(22.81375 91.044397) scale(0.11 -0.11)">
       <use xlink:href="#DejaVuSans-31"/>
       <use xlink:href="#DejaVuSans-2e" transform="translate(63.623047 0)"/>
       <use xlink:href="#DejaVuSans-35" transform="translate(95.410156 0)"/>
       <use xlink:href="#DejaVuSans-30" transform="translate(159.033203 0)"/>
      </g>
     </g>
    </g>
    <g id="ytick_8">
     <g id="line2d_14">
      <path d="M 56.805937 50.649112 
L 701.265937 50.649112 
" clip-path="url(#p11d3824f89)" style="fill: none; stroke: #e8e5e1; stroke-linecap: round"/>
     </g>
     <g id="text_15">
      <!-- 1.75 -->
      <g style="fill: #4a4a5a" transform="translate(22.81375 54.828253) scale(0.11 -0.11)">
       <use xlink:href="#DejaVuSans-31"/>
       <use xlink:href="#DejaVuSans-2e" transform="translate(63.623047 0)"/>
       <use xlink:href="#DejaVuSans-37" transform="translate(95.410156 0)"/>
       <use xlink:href="#DejaVuSans-35" transform="translate(159.033203 0)"/>
      </g>
     </g>
    </g>
    <g id="text_16">
     <!-- Density -->
     <g style="fill: #4a4a5a" transform="translate(16.318125 189.050438) rotate(-90) scale(0.12 -0.12)">
      <defs>
       <path id="DejaVuSans-44" d="M 1259 4147 
L 1259 519 
L 2022 519 
Q 2988 519 3436 956 
Q 3884 1394 3884 2338 
Q 3884 3275 3436 3711 
Q 2988 4147 2022 4147 
L 1259 4147 
z
M 628 4666 
L 1925 4666 
Q 3281 4666 3915 4102 
Q 4550 3538 4550 2338 
Q 4550 1131 3912 565 
Q 3275 0 1925 0 
L 628 0 
L 628 4666 
z
" transform="scale(0.015625)"/>
       <path id="DejaVuSans-73" d="M 2834 3397 
L 2834 2853 
Q 2591 2978 2328 3040 
Q 2066 3103 1784 3103 
Q 1356 3103 1142 2972 
Q 928 2841 928 2578 
Q 928 2378 1081 2264 
Q 1234 2150 1697 2047 
L 1894 2003 
Q 2506 1872 2764 1633 
Q 3022 1394 3022 966 
Q 3022 478 2636 193 
Q 2250 -91 1575 -91 
Q 1294 -91 989 -36 
Q 684 19 347 128 
L 347 722 
Q 666 556 975 473 
Q 1284 391 1588 391 
Q 1994 391 2212 530 
Q 2431 669 2431 922 
Q 2431 1156 2273 1281 
Q 2116 1406 1581 1522 
L 1381 1569 
Q 847 1681 609 1914 
Q 372 2147 372 2553 
Q 372 3047 722 3315 
Q 1072 3584 1716 3584 
Q 2034 3584 2315 3537 
Q 2597 3491 2834 3397 
z
" transform="scale(0.015625)"/>
       <path id="DejaVuSans-79" d="M 2059 -325 
Q 1816 -950 1584 -1140 
Q 1353 -1331 966 -1331 
L 506 -1331 
L 506 -850 
L 844 -850 
Q 1081 -850 1212 -737 
Q 1344 -625 1503 -206 
L 1606 56 
L 191 3500 
L 800 3500 
L 1894 763 
L 2988 3500 
L 3597 3500 
L 2059 -325 
z
" transform="scale(0.015625)"/>
      </defs>
      <use xlink:href="#DejaVuSans-44"/>
      <use xlink:href="#DejaVuSans-65" transform="translate(77.001953 0)"/>
      <use xlink:href="#DejaVuSans-6e" transform="translate(138.525391 0)"/>
      <use xlink:href="#DejaVuSans-73" transform="translate(201.904297 0)"/>
      <use xlink:href="#DejaVuSans-69" transform="translate(254.003906 0)"/>
      <use xlink:href="#DejaVuSans-74" transform="translate(281.787109 0)"/>
      <use xlink:href="#DejaVuSans-79" transform="translate(320.996094 0)"/>
     </g>
    </g>
   </g>
   <g id="FillBetweenPolyCollection_1">
    <defs>
     <path id="mce4afc57af" d="M 86.099574 -71.272898 
L 86.099574 -71.250687 
L 88.873184 -71.250687 
L 91.646794 -71.250687 
L 94.420404 -71.250687 
L 97.194015 -71.250687 
L 99.967625 -71.250687 
L 102.741235 -71.250687 
L 105.514845 -71.250687 
L 108.288455 -71.250687 
L 111.062065 -71.250687 
L 113.835676 -71.250687 
L 116.609286 -71.250687 
L 119.382896 -71.250687 
L 122.156506 -71.250687 
L 124.930116 -71.250687 
L 127.703727 -71.250687 
L 130.477337 -71.250687 
L 133.250947 -71.250687 
L 136.024557 -71.250687 
L 138.798167 -71.250687 
L 141.571777 -71.250687 
L 144.345388 -71.250687 
L 147.118998 -71.250687 
L 149.892608 -71.250687 
L 152.666218 -71.250687 
L 155.439828 -71.250687 
L 158.213439 -71.250687 
L 160.987049 -71.250687 
L 163.760659 -71.250687 
L 166.534269 -71.250687 
L 169.307879 -71.250687 
L 172.081489 -71.250687 
L 174.8551 -71.250687 
L 177.62871 -71.250687 
L 180.40232 -71.250687 
L 183.17593 -71.250687 
L 185.94954 -71.250687 
L 188.723151 -71.250687 
L 191.496761 -71.250687 
L 194.270371 -71.250687 
L 197.043981 -71.250687 
L 199.817591 -71.250687 
L 202.591201 -71.250687 
L 205.364812 -71.250687 
L 208.138422 -71.250687 
L 210.912032 -71.250687 
L 213.685642 -71.250687 
L 216.459252 -71.250687 
L 219.232863 -71.250687 
L 222.006473 -71.250687 
L 224.780083 -71.250687 
L 227.553693 -71.250687 
L 230.327303 -71.250687 
L 233.100913 -71.250687 
L 235.874524 -71.250687 
L 238.648134 -71.250687 
L 241.421744 -71.250687 
L 244.195354 -71.250687 
L 246.968964 -71.250687 
L 249.742574 -71.250687 
L 252.516185 -71.250687 
L 255.289795 -71.250687 
L 258.063405 -71.250687 
L 260.837015 -71.250687 
L 263.610625 -71.250687 
L 266.384236 -71.250687 
L 269.157846 -71.250687 
L 271.931456 -71.250687 
L 274.705066 -71.250687 
L 277.478676 -71.250687 
L 280.252286 -71.250687 
L 283.025897 -71.250687 
L 285.799507 -71.250687 
L 288.573117 -71.250687 
L 291.346727 -71.250687 
L 294.120337 -71.250687 
L 296.893948 -71.250687 
L 299.667558 -71.250687 
L 302.441168 -71.250687 
L 305.214778 -71.250687 
L 307.988388 -71.250687 
L 310.761998 -71.250687 
L 313.535609 -71.250687 
L 316.309219 -71.250687 
L 319.082829 -71.250687 
L 321.856439 -71.250687 
L 324.630049 -71.250687 
L 327.40366 -71.250687 
L 330.17727 -71.250687 
L 332.95088 -71.250687 
L 335.72449 -71.250687 
L 338.4981 -71.250687 
L 341.27171 -71.250687 
L 344.045321 -71.250687 
L 346.818931 -71.250687 
L 349.592541 -71.250687 
L 352.366151 -71.250687 
L 355.139761 -71.250687 
L 357.913372 -71.250687 
L 360.686982 -71.250687 
L 363.460592 -71.250687 
L 366.234202 -71.250687 
L 369.007812 -71.250687 
L 371.781422 -71.250687 
L 374.555033 -71.250687 
L 377.328643 -71.250687 
L 380.102253 -71.250687 
L 382.875863 -71.250687 
L 385.649473 -71.250687 
L 388.423084 -71.250687 
L 391.196694 -71.250687 
L 393.970304 -71.250687 
L 396.743914 -71.250687 
L 399.517524 -71.250687 
L 402.291134 -71.250687 
L 405.064745 -71.250687 
L 407.838355 -71.250687 
L 410.611965 -71.250687 
L 413.385575 -71.250687 
L 416.159185 -71.250687 
L 418.932795 -71.250687 
L 421.706406 -71.250687 
L 424.480016 -71.250687 
L 427.253626 -71.250687 
L 430.027236 -71.250687 
L 432.800846 -71.250687 
L 435.574457 -71.250687 
L 438.348067 -71.250687 
L 441.121677 -71.250687 
L 443.895287 -71.250687 
L 446.668897 -71.250687 
L 449.442507 -71.250687 
L 452.216118 -71.250687 
L 454.989728 -71.250687 
L 457.763338 -71.250687 
L 460.536948 -71.250687 
L 463.310558 -71.250687 
L 466.084169 -71.250687 
L 468.857779 -71.250687 
L 471.631389 -71.250687 
L 474.404999 -71.250687 
L 477.178609 -71.250687 
L 479.952219 -71.250687 
L 482.72583 -71.250687 
L 485.49944 -71.250687 
L 488.27305 -71.250687 
L 491.04666 -71.250687 
L 493.82027 -71.250687 
L 496.593881 -71.250687 
L 499.367491 -71.250687 
L 502.141101 -71.250687 
L 504.914711 -71.250687 
L 507.688321 -71.250687 
L 510.461931 -71.250687 
L 513.235542 -71.250687 
L 516.009152 -71.250687 
L 518.782762 -71.250687 
L 521.556372 -71.250687 
L 524.329982 -71.250687 
L 527.103593 -71.250687 
L 529.877203 -71.250687 
L 532.650813 -71.250687 
L 535.424423 -71.250687 
L 538.198033 -71.250687 
L 540.971643 -71.250687 
L 543.745254 -71.250687 
L 546.518864 -71.250687 
L 549.292474 -71.250687 
L 552.066084 -71.250687 
L 554.839694 -71.250687 
L 557.613304 -71.250687 
L 560.386915 -71.250687 
L 563.160525 -71.250687 
L 565.934135 -71.250687 
L 568.707745 -71.250687 
L 571.481355 -71.250687 
L 574.254966 -71.250687 
L 577.028576 -71.250687 
L 579.802186 -71.250687 
L 582.575796 -71.250687 
L 585.349406 -71.250687 
L 588.123016 -71.250687 
L 590.896627 -71.250687 
L 593.670237 -71.250687 
L 596.443847 -71.250687 
L 599.217457 -71.250687 
L 601.991067 -71.250687 
L 604.764678 -71.250687 
L 607.538288 -71.250687 
L 610.311898 -71.250687 
L 613.085508 -71.250687 
L 615.859118 -71.250687 
L 618.632728 -71.250687 
L 621.406339 -71.250687 
L 624.179949 -71.250687 
L 626.953559 -71.250687 
L 629.727169 -71.250687 
L 632.500779 -71.250687 
L 635.27439 -71.250687 
L 638.048 -71.250687 
L 638.048 -71.27972 
L 638.048 -71.27972 
L 635.27439 -71.287158 
L 632.500779 -71.29629 
L 629.727169 -71.307448 
L 626.953559 -71.321013 
L 624.179949 -71.337425 
L 621.406339 -71.357183 
L 618.632728 -71.380854 
L 615.859118 -71.409077 
L 613.085508 -71.442564 
L 610.311898 -71.482107 
L 607.538288 -71.528578 
L 604.764678 -71.582932 
L 601.991067 -71.646206 
L 599.217457 -71.719519 
L 596.443847 -71.804068 
L 593.670237 -71.901125 
L 590.896627 -72.01203 
L 588.123016 -72.138181 
L 585.349406 -72.28103 
L 582.575796 -72.442064 
L 579.802186 -72.622796 
L 577.028576 -72.824751 
L 574.254966 -73.049446 
L 571.481355 -73.298375 
L 568.707745 -73.572991 
L 565.934135 -73.874686 
L 563.160525 -74.204771 
L 560.386915 -74.56446 
L 557.613304 -74.954847 
L 554.839694 -75.37689 
L 552.066084 -75.831395 
L 549.292474 -76.318993 
L 546.518864 -76.84013 
L 543.745254 -77.395052 
L 540.971643 -77.983786 
L 538.198033 -78.606132 
L 535.424423 -79.261651 
L 532.650813 -79.949651 
L 529.877203 -80.669177 
L 527.103593 -81.419004 
L 524.329982 -82.197626 
L 521.556372 -83.003244 
L 518.782762 -83.833764 
L 516.009152 -84.686785 
L 513.235542 -85.559597 
L 510.461931 -86.449173 
L 507.688321 -87.352173 
L 504.914711 -88.264942 
L 502.141101 -89.183516 
L 499.367491 -90.103636 
L 496.593881 -91.020763 
L 493.82027 -91.930101 
L 491.04666 -92.826628 
L 488.27305 -93.705138 
L 485.49944 -94.560285 
L 482.72583 -95.386644 
L 479.952219 -96.178772 
L 477.178609 -96.931284 
L 474.404999 -97.638934 
L 471.631389 -98.2967 
L 468.857779 -98.899875 
L 466.084169 -99.444163 
L 463.310558 -99.925772 
L 460.536948 -100.341501 
L 457.763338 -100.688832 
L 454.989728 -100.966003 
L 452.216118 -101.172079 
L 449.442507 -101.307 
L 446.668897 -101.371626 
L 443.895287 -101.367749 
L 441.121677 -101.298101 
L 438.348067 -101.166326 
L 435.574457 -100.976944 
L 432.800846 -100.735287 
L 430.027236 -100.447416 
L 427.253626 -100.120021 
L 424.480016 -99.760307 
L 421.706406 -99.375858 
L 418.932795 -98.974502 
L 416.159185 -98.56416 
L 413.385575 -98.152699 
L 410.611965 -97.747778 
L 407.838355 -97.35671 
L 405.064745 -96.986319 
L 402.291134 -96.642822 
L 399.517524 -96.331716 
L 396.743914 -96.057687 
L 393.970304 -95.824539 
L 391.196694 -95.635143 
L 388.423084 -95.491401 
L 385.649473 -95.394247 
L 382.875863 -95.34365 
L 380.102253 -95.33865 
L 377.328643 -95.377409 
L 374.555033 -95.457273 
L 371.781422 -95.574858 
L 369.007812 -95.726136 
L 366.234202 -95.90654 
L 363.460592 -96.111065 
L 360.686982 -96.334381 
L 357.913372 -96.570942 
L 355.139761 -96.815091 
L 352.366151 -97.061168 
L 349.592541 -97.303605 
L 346.818931 -97.537014 
L 344.045321 -97.756273 
L 341.27171 -97.956588 
L 338.4981 -98.13356 
L 335.72449 -98.283229 
L 332.95088 -98.402107 
L 330.17727 -98.487209 
L 327.40366 -98.536062 
L 324.630049 -98.546712 
L 321.856439 -98.517713 
L 319.082829 -98.448118 
L 316.309219 -98.337455 
L 313.535609 -98.185699 
L 310.761998 -97.993241 
L 307.988388 -97.760851 
L 305.214778 -97.489641 
L 302.441168 -97.181025 
L 299.667558 -96.83668 
L 296.893948 -96.458505 
L 294.120337 -96.048585 
L 291.346727 -95.609151 
L 288.573117 -95.142548 
L 285.799507 -94.651203 
L 283.025897 -94.137591 
L 280.252286 -93.604208 
L 277.478676 -93.053547 
L 274.705066 -92.488068 
L 271.931456 -91.910184 
L 269.157846 -91.322232 
L 266.384236 -90.726459 
L 263.610625 -90.125007 
L 260.837015 -89.519893 
L 258.063405 -88.913004 
L 255.289795 -88.306083 
L 252.516185 -87.700721 
L 249.742574 -87.098358 
L 246.968964 -86.500279 
L 244.195354 -85.907615 
L 241.421744 -85.321353 
L 238.648134 -84.742339 
L 235.874524 -84.171295 
L 233.100913 -83.608826 
L 230.327303 -83.05544 
L 227.553693 -82.511565 
L 224.780083 -81.977563 
L 222.006473 -81.453752 
L 219.232863 -80.940418 
L 216.459252 -80.437836 
L 213.685642 -79.946281 
L 210.912032 -79.466038 
L 208.138422 -78.997415 
L 205.364812 -78.540743 
L 202.591201 -78.096383 
L 199.817591 -77.664724 
L 197.043981 -77.246177 
L 194.270371 -76.841171 
L 191.496761 -76.450144 
L 188.723151 -76.07353 
L 185.94954 -75.71175 
L 183.17593 -75.365197 
L 180.40232 -75.034225 
L 177.62871 -74.719136 
L 174.8551 -74.420169 
L 172.081489 -74.137488 
L 169.307879 -73.87118 
L 166.534269 -73.621241 
L 163.760659 -73.387578 
L 160.987049 -73.170006 
L 158.213439 -72.968251 
L 155.439828 -72.781948 
L 152.666218 -72.610652 
L 149.892608 -72.453841 
L 147.118998 -72.310928 
L 144.345388 -72.181265 
L 141.571777 -72.064161 
L 138.798167 -71.958886 
L 136.024557 -71.864685 
L 133.250947 -71.780789 
L 130.477337 -71.706424 
L 127.703727 -71.640822 
L 124.930116 -71.583226 
L 122.156506 -71.532905 
L 119.382896 -71.489151 
L 116.609286 -71.451294 
L 113.835676 -71.418698 
L 111.062065 -71.390771 
L 108.288455 -71.366961 
L 105.514845 -71.346762 
L 102.741235 -71.329712 
L 99.967625 -71.31539 
L 97.194015 -71.303421 
L 94.420404 -71.293467 
L 91.646794 -71.285232 
L 88.873184 -71.278452 
L 86.099574 -71.272898 
z
" style="stroke: #e8e5e1"/>
    </defs>
    <g clip-path="url(#p11d3824f89)">
     <use xlink:href="#mce4afc57af" x="0" y="375.412813" style="fill: #e8e5e1; fill-opacity: 0.5; stroke: #e8e5e1"/>
    </g>
   </g>
   <g id="line2d_15">
    <path d="M 290.884069 303.818994 
L 304.289183 303.421233 
L 313.864264 302.933087 
L 321.524329 302.36712 
L 329.184394 301.600512 
L 336.844459 300.589806 
L 342.589508 299.646281 
L 348.334557 298.52636 
L 354.079605 297.217887 
L 359.824654 295.713365 
L 365.569703 294.011231 
L 371.314752 292.116936 
L 378.974816 289.316318 
L 386.634881 286.252133 
L 396.209963 282.171249 
L 415.360125 273.928947 
L 423.02019 270.899666 
L 428.765239 268.816388 
L 434.510287 266.927671 
L 440.255336 265.254149 
L 446.000385 263.808055 
L 451.745434 262.593931 
L 457.490482 261.610053 
L 463.235531 260.850391 
L 468.98058 260.306847 
L 474.725628 259.971464 
L 480.470677 259.838316 
L 486.215726 259.904816 
L 491.960775 260.172274 
L 497.705823 260.645612 
L 503.450872 261.332299 
L 509.195921 262.240619 
L 514.940969 263.377546 
L 520.686018 264.746476 
L 526.431067 266.345147 
L 532.176116 268.164004 
L 537.921164 270.185243 
L 545.581229 273.148586 
L 555.156311 277.163648 
L 578.136505 287.039026 
L 585.79657 290.043707 
L 593.456635 292.769068 
L 599.201684 294.600384 
L 604.946733 296.236887 
L 610.691781 297.675568 
L 616.43683 298.9201 
L 622.181879 299.97968 
L 629.841944 301.128372 
L 637.502009 302.011604 
L 645.162074 302.67251 
L 654.737155 303.25101 
L 666.227252 303.6807 
L 671.972301 303.818994 
L 671.972301 303.818994 
" clip-path="url(#p11d3824f89)" style="fill: none; stroke: #d4a84b; stroke-width: 1.5; stroke-linecap: round"/>
   </g>
   <g id="line2d_16">
    <path d="M 333.614742 303.81981 
L 341.914216 303.461688 
L 348.830444 302.948765 
L 354.363427 302.336179 
L 359.89641 301.488506 
L 364.046147 300.666502 
L 368.195884 299.661256 
L 372.345622 298.454744 
L 376.495359 297.034016 
L 380.645096 295.393217 
L 384.794833 293.535433 
L 388.94457 291.474112 
L 394.477553 288.453053 
L 401.393781 284.367267 
L 415.226238 276.064222 
L 420.759221 273.032853 
L 426.292204 270.294748 
L 431.825187 267.866536 
L 437.35817 265.703593 
L 456.72361 258.501382 
L 462.256593 256.005767 
L 467.789575 253.197546 
L 474.705804 249.364533 
L 483.005278 244.783554 
L 487.155015 242.772165 
L 489.921507 241.625257 
L 492.687998 240.679729 
L 495.45449 239.972596 
L 498.220981 239.536986 
L 500.987472 239.400826 
L 503.753964 239.585722 
L 506.520455 240.106081 
L 509.286947 240.968534 
L 512.053438 242.171655 
L 514.819929 243.706001 
L 517.586421 245.554461 
L 520.352912 247.692878 
L 523.119404 250.090925 
L 527.269141 254.096213 
L 531.418878 258.470484 
L 538.335106 266.188765 
L 545.251335 273.881972 
L 549.401072 278.252389 
L 553.550809 282.324506 
L 557.700546 286.033557 
L 561.850284 289.33964 
L 564.616775 291.310663 
L 567.383266 293.094827 
L 570.149758 294.695706 
L 572.916249 296.119781 
L 577.065986 297.944162 
L 581.215723 299.427634 
L 585.365461 300.611914 
L 589.515198 301.540398 
L 593.664935 302.255476 
L 599.197918 302.944536 
L 604.7309 303.405466 
L 608.880638 303.641908 
L 608.880638 303.641908 
" clip-path="url(#p11d3824f89)" style="fill: none; stroke: #4a90a4; stroke-width: 1.5; stroke-linecap: round"/>
   </g>
   <g id="line2d_17">
    <path d="M 438.860061 302.684905 
L 440.194529 302.08953 
L 441.528997 301.292117 
L 442.863465 300.239662 
L 444.197932 298.870966 
L 445.5324 297.117304 
L 446.866868 294.903865 
L 448.201335 292.152069 
L 449.535803 288.782852 
L 450.870271 284.720858 
L 452.204739 279.89946 
L 453.539206 274.266322 
L 454.873674 267.789168 
L 456.652964 257.832696 
L 458.432255 246.436403 
L 460.656368 230.445065 
L 463.770126 205.895538 
L 468.218351 170.645 
L 470.442464 154.896312 
L 472.221755 143.863194 
L 473.556222 136.658474 
L 474.89069 130.432861 
L 476.225158 125.205907 
L 477.559626 120.970189 
L 478.894093 117.69975 
L 479.783738 116.038579 
L 480.673384 114.780371 
L 481.563029 113.915861 
L 482.452674 113.438 
L 483.342319 113.342641 
L 484.231964 113.628933 
L 485.121609 114.299406 
L 486.011254 115.359726 
L 486.9009 116.818153 
L 487.790545 118.68472 
L 488.68019 120.970189 
L 490.014658 125.205907 
L 491.349125 130.432861 
L 492.683593 136.658474 
L 494.018061 143.863194 
L 495.797351 154.896312 
L 497.576641 167.34753 
L 500.245577 187.93034 
L 506.473093 237.04616 
L 508.697206 252.306097 
L 510.476496 262.997645 
L 512.255787 272.201957 
L 513.590254 278.114002 
L 514.924722 283.201038 
L 516.25919 287.50935 
L 517.593657 291.101442 
L 518.928125 294.050348 
L 520.262593 296.434408 
L 521.597061 298.332773 
L 522.931528 299.821817 
L 524.265996 300.972494 
L 525.600464 301.848621 
L 526.934932 302.505966 
L 527.379754 302.684905 
L 527.379754 302.684905 
" clip-path="url(#p11d3824f89)" style="fill: none; stroke: #6b6080; stroke-width: 1.5; stroke-linecap: round"/>
   </g>
   <g id="line2d_18">
    <path d="M 425.489423 302.848997 
L 427.491057 302.105608 
L 428.992283 301.326802 
L 430.493509 300.303943 
L 431.994735 298.980305 
L 433.49596 297.292812 
L 434.997186 295.173576 
L 436.498412 292.552239 
L 437.999637 289.359161 
L 439.500863 285.529421 
L 441.002089 281.007459 
L 442.503315 275.752132 
L 444.00454 269.741802 
L 446.006175 260.561974 
L 448.007809 250.132274 
L 450.509852 235.622282 
L 454.012712 213.608306 
L 458.516389 185.476246 
L 461.018432 171.476941 
L 463.020066 161.669395 
L 464.521292 155.264984 
L 466.022517 149.73092 
L 467.523743 145.084582 
L 469.024969 141.319373 
L 470.025786 139.287776 
L 471.026603 137.62855 
L 472.02742 136.332127 
L 473.028237 135.389588 
L 474.029055 134.793593 
L 475.029872 134.539102 
L 476.030689 134.623869 
L 477.031506 135.048649 
L 478.032323 135.817128 
L 479.03314 136.935573 
L 480.033958 138.412218 
L 481.034775 140.256433 
L 482.035592 142.477717 
L 483.536818 146.534715 
L 485.038043 151.477274 
L 486.539269 157.30475 
L 488.040495 163.990433 
L 490.042129 174.135815 
L 492.043763 185.476246 
L 495.046215 204.013228 
L 501.051118 241.594991 
L 503.55316 255.494339 
L 505.554795 265.315614 
L 507.556429 273.83299 
L 509.057655 279.338686 
L 510.55888 284.101392 
L 512.060106 288.156305 
L 513.561332 291.554751 
L 515.062558 294.359075 
L 516.563783 296.637822 
L 518.065009 298.461508 
L 519.566235 299.899146 
L 521.06746 301.015625 
L 522.568686 301.869911 
L 524.57032 302.689934 
L 525.070729 302.848997 
L 525.070729 302.848997 
" clip-path="url(#p11d3824f89)" style="fill: none; stroke: #8b7355; stroke-width: 1.5; stroke-linecap: round"/>
   </g>
   <g id="line2d_19">
    <path d="M 402.807034 303.240367 
L 404.948723 302.596964 
L 406.554989 301.879758 
L 408.161256 300.890051 
L 409.767522 299.550221 
L 410.838367 298.418896 
L 411.909211 297.063748 
L 412.980055 295.454644 
L 414.0509 293.560798 
L 415.121744 291.351617 
L 416.72801 287.382955 
L 418.334277 282.55161 
L 419.940543 276.792263 
L 421.54681 270.072655 
L 423.153076 262.403915 
L 425.294765 250.819883 
L 427.971875 234.623069 
L 434.396941 194.362151 
L 436.003208 185.634506 
L 437.609474 177.995984 
L 439.215741 171.636448 
L 440.286585 168.164977 
L 441.357429 165.322712 
L 442.428274 163.101644 
L 443.499118 161.476007 
L 444.569962 160.403645 
L 445.640807 159.828164 
L 446.711651 159.681777 
L 447.782495 159.888683 
L 448.853339 160.36883 
L 450.459606 161.426451 
L 455.278405 164.931078 
L 456.884672 165.751256 
L 459.02636 166.535123 
L 461.703471 167.411846 
L 463.309738 168.211679 
L 464.380582 168.993003 
L 465.451426 170.048076 
L 466.522271 171.436397 
L 467.593115 173.209796 
L 468.663959 175.409977 
L 469.734803 178.066607 
L 470.805648 181.195997 
L 472.411914 186.77762 
L 474.018181 193.373584 
L 475.624447 200.867136 
L 477.766136 211.952231 
L 481.514091 232.882999 
L 484.726624 250.47 
L 486.868312 261.167617 
L 489.010001 270.658807 
L 490.616267 276.874137 
L 492.222534 282.282914 
L 493.8288 286.895525 
L 495.435067 290.751752 
L 497.041333 293.913113 
L 498.6476 296.455178 
L 500.253866 298.460515 
L 501.860133 300.012717 
L 503.466399 301.191759 
L 505.072666 302.070744 
L 506.678932 302.713944 
L 508.820621 303.297747 
L 509.356043 303.405906 
L 509.356043 303.405906 
" clip-path="url(#p11d3824f89)" style="fill: none; stroke: #5c8b6b; stroke-width: 1.5; stroke-linecap: round"/>
   </g>
   <g id="line2d_20">
    <path d="M 385.979735 303.361297 
L 388.426243 302.843171 
L 390.261124 302.280307 
L 392.096005 301.520047 
L 393.930886 300.511577 
L 395.765767 299.19798 
L 397.600648 297.517972 
L 399.435529 295.408562 
L 401.27041 292.808644 
L 403.105291 289.663392 
L 404.940172 285.929203 
L 406.775053 281.578778 
L 408.609934 276.605829 
L 410.444815 271.028811 
L 412.891323 262.7355 
L 415.337831 253.633675 
L 419.007593 239.038224 
L 424.512236 217.113999 
L 427.570371 205.987667 
L 430.016879 197.981629 
L 432.463387 190.880324 
L 434.298268 186.164106 
L 436.133149 181.960901 
L 437.96803 178.252343 
L 439.802912 175.019477 
L 441.637793 172.250048 
L 443.472674 169.944343 
L 444.695928 168.672271 
L 445.919182 167.622512 
L 447.142436 166.807673 
L 448.36569 166.243382 
L 449.588944 165.947755 
L 450.812198 165.940681 
L 452.035452 166.242974 
L 453.258706 166.875427 
L 454.48196 167.85781 
L 455.705214 169.207844 
L 456.928468 170.940205 
L 458.151722 173.065582 
L 459.374976 175.589846 
L 460.59823 178.51334 
L 462.433111 183.632857 
L 464.267992 189.58965 
L 466.102873 196.304088 
L 468.549381 206.239516 
L 471.607516 219.754976 
L 478.94704 252.700879 
L 481.393548 262.52032 
L 483.840056 271.289064 
L 485.674937 277.084975 
L 487.509818 282.180596 
L 489.344699 286.578445 
L 491.17958 290.304988 
L 493.014461 293.405566 
L 494.849342 295.9389 
L 496.684223 297.971701 
L 498.519104 299.573786 
L 500.353985 300.814004 
L 502.188866 301.757116 
L 504.023747 302.461666 
L 506.470255 303.117168 
L 507.693509 303.351638 
L 507.693509 303.351638 
" clip-path="url(#p11d3824f89)" style="fill: none; stroke: #2ecc71; stroke-width: 1.5; stroke-linecap: round"/>
   </g>
   <g id="line2d_21">
    <path d="M 401.641935 303.02574 
L 402.768124 302.444875 
L 403.894313 301.612208 
L 405.020502 300.441117 
L 406.146692 298.825102 
L 407.272881 296.637109 
L 408.39907 293.730427 
L 409.525259 289.941634 
L 410.651448 285.096036 
L 411.777637 279.015859 
L 412.903826 271.531246 
L 414.030015 262.49381 
L 415.156204 251.792143 
L 416.65779 234.844158 
L 418.159375 214.905315 
L 420.036357 186.324683 
L 423.039528 135.701064 
L 425.291906 98.69134 
L 426.793491 77.165037 
L 427.91968 63.695506 
L 429.045869 53.100853 
L 429.796662 47.838312 
L 430.547455 44.116614 
L 430.922851 42.850136 
L 431.298248 41.984273 
L 431.673644 41.519405 
L 432.04904 41.453554 
L 432.424437 41.782379 
L 432.799833 42.499188 
L 433.175229 43.594976 
L 433.926022 46.876274 
L 434.676815 51.51079 
L 435.803004 60.672474 
L 436.929193 71.946936 
L 438.806175 93.57595 
L 441.809346 128.667965 
L 443.310931 143.797846 
L 444.812517 156.471643 
L 445.938706 164.360818 
L 447.440291 173.063608 
L 448.941877 180.349262 
L 452.69584 197.754288 
L 454.197426 206.060827 
L 455.699011 215.520963 
L 457.951389 231.457512 
L 462.080749 261.41146 
L 463.957731 273.093339 
L 465.459316 280.953432 
L 466.585505 285.909241 
L 467.711695 290.070039 
L 468.837884 293.482713 
L 469.964073 296.21844 
L 471.090262 298.362763 
L 472.216451 300.006771 
L 473.34264 301.240026 
L 474.468829 302.145462 
L 475.595018 302.796229 
L 476.345811 303.119628 
L 476.345811 303.119628 
" clip-path="url(#p11d3824f89)" style="fill: none; stroke: #e377c2; stroke-width: 1.5; stroke-linecap: round"/>
   </g>
   <g id="line2d_22">
    <path d="M 119.181293 304.116393 
L 134.593224 303.941315 
L 144.225681 303.649793 
L 151.931646 303.231045 
L 159.637612 302.576657 
L 165.417086 301.893988 
L 171.19656 301.025476 
L 176.976034 299.963127 
L 182.755508 298.712467 
L 190.461474 296.788388 
L 200.093931 294.088775 
L 221.285336 287.772336 
L 232.844284 284.184559 
L 240.550249 281.565502 
L 248.256215 278.659827 
L 255.96218 275.459531 
L 267.521129 270.328194 
L 277.153586 266.101477 
L 284.859551 262.952056 
L 292.565517 260.091922 
L 298.344991 258.167537 
L 304.124465 256.470278 
L 309.903939 255.059277 
L 313.756922 254.317179 
L 317.609904 253.765215 
L 321.462887 253.4295 
L 325.31587 253.332346 
L 329.168853 253.489683 
L 333.021835 253.909232 
L 336.874818 254.589693 
L 340.727801 255.520999 
L 344.580784 256.685481 
L 348.433766 258.059653 
L 352.286749 259.616237 
L 358.066223 262.229239 
L 363.845697 265.088298 
L 373.478154 270.148637 
L 386.963594 277.226367 
L 394.669559 280.992284 
L 402.375525 284.450348 
L 410.08149 287.592395 
L 417.787456 290.456184 
L 425.493421 293.086646 
L 433.199387 295.499112 
L 440.905352 297.666027 
L 446.684827 299.097281 
L 452.464301 300.336693 
L 458.243775 301.37036 
L 464.023249 302.197575 
L 469.802723 302.831284 
L 477.508689 303.417428 
L 485.214654 303.774389 
L 494.847111 304.007525 
L 502.553076 304.094019 
L 502.553076 304.094019 
" clip-path="url(#p11d3824f89)" style="fill: none; stroke: #7f7f7f; stroke-width: 1.5; stroke-linecap: round"/>
   </g>
   <g id="patch_3">
    <path d="M 56.805937 304.162125 
L 56.805937 28.318125 
" style="fill: none; stroke: #d8d4cf; stroke-width: 1.25; stroke-linejoin: miter; stroke-linecap: square"/>
   </g>
   <g id="patch_4">
    <path d="M 701.265937 304.162125 
L 701.265937 28.318125 
" style="fill: none; stroke: #d8d4cf; stroke-width: 1.25; stroke-linejoin: miter; stroke-linecap: square"/>
   </g>
   <g id="patch_5">
    <path d="M 56.805937 304.162125 
L 701.265937 304.162125 
" style="fill: none; stroke: #d8d4cf; stroke-width: 1.25; stroke-linejoin: miter; stroke-linecap: square"/>
   </g>
   <g id="patch_6">
    <path d="M 56.805937 28.318125 
L 701.265937 28.318125 
" style="fill: none; stroke: #d8d4cf; stroke-width: 1.25; stroke-linejoin: miter; stroke-linecap: square"/>
   </g>
   <g id="text_17">
    <!-- Budget Distributions by Category -->
    <g style="fill: #3a3a48" transform="translate(265.568437 16.318125) scale(0.12 -0.12)">
     <defs>
      <path id="DejaVuSans-Bold-42" d="M 2456 2859 
Q 2741 2859 2887 2984 
Q 3034 3109 3034 3353 
Q 3034 3594 2887 3720 
Q 2741 3847 2456 3847 
L 1791 3847 
L 1791 2859 
L 2456 2859 
z
M 2497 819 
Q 2859 819 3042 972 
Q 3225 1125 3225 1434 
Q 3225 1738 3044 1889 
Q 2863 2041 2497 2041 
L 1791 2041 
L 1791 819 
L 2497 819 
z
M 3616 2497 
Q 4003 2384 4215 2081 
Q 4428 1778 4428 1338 
Q 4428 663 3972 331 
Q 3516 0 2584 0 
L 588 0 
L 588 4666 
L 2394 4666 
Q 3366 4666 3802 4372 
Q 4238 4078 4238 3431 
Q 4238 3091 4078 2852 
Q 3919 2613 3616 2497 
z
" transform="scale(0.015625)"/>
      <path id="DejaVuSans-Bold-75" d="M 500 1363 
L 500 3500 
L 1625 3500 
L 1625 3150 
Q 1625 2866 1622 2436 
Q 1619 2006 1619 1863 
Q 1619 1441 1641 1255 
Q 1663 1069 1716 984 
Q 1784 875 1895 815 
Q 2006 756 2150 756 
Q 2500 756 2700 1025 
Q 2900 1294 2900 1772 
L 2900 3500 
L 4019 3500 
L 4019 0 
L 2900 0 
L 2900 506 
Q 2647 200 2364 54 
Q 2081 -91 1741 -91 
Q 1134 -91 817 281 
Q 500 653 500 1363 
z
" transform="scale(0.015625)"/>
      <path id="DejaVuSans-Bold-64" d="M 2919 2988 
L 2919 4863 
L 4044 4863 
L 4044 0 
L 2919 0 
L 2919 506 
Q 2688 197 2409 53 
Q 2131 -91 1766 -91 
Q 1119 -91 703 423 
Q 288 938 288 1747 
Q 288 2556 703 3070 
Q 1119 3584 1766 3584 
Q 2128 3584 2408 3439 
Q 2688 3294 2919 2988 
z
M 2181 722 
Q 2541 722 2730 984 
Q 2919 1247 2919 1747 
Q 2919 2247 2730 2509 
Q 2541 2772 2181 2772 
Q 1825 2772 1636 2509 
Q 1447 2247 1447 1747 
Q 1447 1247 1636 984 
Q 1825 722 2181 722 
z
" transform="scale(0.015625)"/>
      <path id="DejaVuSans-Bold-67" d="M 2919 594 
Q 2688 288 2409 144 
Q 2131 0 1766 0 
Q 1125 0 706 504 
Q 288 1009 288 1791 
Q 288 2575 706 3076 
Q 1125 3578 1766 3578 
Q 2131 3578 2409 3434 
Q 2688 3291 2919 2981 
L 2919 3500 
L 4044 3500 
L 4044 353 
Q 4044 -491 3511 -936 
Q 2978 -1381 1966 -1381 
Q 1638 -1381 1331 -1331 
Q 1025 -1281 716 -1178 
L 716 -306 
Q 1009 -475 1290 -558 
Q 1572 -641 1856 -641 
Q 2406 -641 2662 -400 
Q 2919 -159 2919 353 
L 2919 594 
z
M 2181 2772 
Q 1834 2772 1640 2515 
Q 1447 2259 1447 1791 
Q 1447 1309 1634 1061 
Q 1822 813 2181 813 
Q 2531 813 2725 1069 
Q 2919 1325 2919 1791 
Q 2919 2259 2725 2515 
Q 2531 2772 2181 2772 
z
" transform="scale(0.015625)"/>
      <path id="DejaVuSans-Bold-65" d="M 4031 1759 
L 4031 1441 
L 1416 1441 
Q 1456 1047 1700 850 
Q 1944 653 2381 653 
Q 2734 653 3104 758 
Q 3475 863 3866 1075 
L 3866 213 
Q 3469 63 3072 -14 
Q 2675 -91 2278 -91 
Q 1328 -91 801 392 
Q 275 875 275 1747 
Q 275 2603 792 3093 
Q 1309 3584 2216 3584 
Q 3041 3584 3536 3087 
Q 4031 2591 4031 1759 
z
M 2881 2131 
Q 2881 2450 2695 2645 
Q 2509 2841 2209 2841 
Q 1884 2841 1681 2658 
Q 1478 2475 1428 2131 
L 2881 2131 
z
" transform="scale(0.015625)"/>
      <path id="DejaVuSans-Bold-74" d="M 1759 4494 
L 1759 3500 
L 2913 3500 
L 2913 2700 
L 1759 2700 
L 1759 1216 
Q 1759 972 1856 886 
Q 1953 800 2241 800 
L 2816 800 
L 2816 0 
L 1856 0 
Q 1194 0 917 276 
Q 641 553 641 1216 
L 641 2700 
L 84 2700 
L 84 3500 
L 641 3500 
L 641 4494 
L 1759 4494 
z
" transform="scale(0.015625)"/>
      <path id="DejaVuSans-Bold-20" transform="scale(0.015625)"/>
      <path id="DejaVuSans-Bold-44" d="M 1791 3756 
L 1791 909 
L 2222 909 
Q 2959 909 3348 1275 
Q 3738 1641 3738 2338 
Q 3738 3031 3350 3393 
Q 2963 3756 2222 3756 
L 1791 3756 
z
M 588 4666 
L 1856 4666 
Q 2919 4666 3439 4514 
Q 3959 4363 4331 4000 
Q 4659 3684 4818 3271 
Q 4978 2859 4978 2338 
Q 4978 1809 4818 1395 
Q 4659 981 4331 666 
Q 3956 303 3431 151 
Q 2906 0 1856 0 
L 588 0 
L 588 4666 
z
" transform="scale(0.015625)"/>
      <path id="DejaVuSans-Bold-69" d="M 538 3500 
L 1656 3500 
L 1656 0 
L 538 0 
L 538 3500 
z
M 538 4863 
L 1656 4863 
L 1656 3950 
L 538 3950 
L 538 4863 
z
" transform="scale(0.015625)"/>
      <path id="DejaVuSans-Bold-73" d="M 3272 3391 
L 3272 2541 
Q 2913 2691 2578 2766 
Q 2244 2841 1947 2841 
Q 1628 2841 1473 2761 
Q 1319 2681 1319 2516 
Q 1319 2381 1436 2309 
Q 1553 2238 1856 2203 
L 2053 2175 
Q 2913 2066 3209 1816 
Q 3506 1566 3506 1031 
Q 3506 472 3093 190 
Q 2681 -91 1863 -91 
Q 1516 -91 1145 -36 
Q 775 19 384 128 
L 384 978 
Q 719 816 1070 734 
Q 1422 653 1784 653 
Q 2113 653 2278 743 
Q 2444 834 2444 1013 
Q 2444 1163 2330 1236 
Q 2216 1309 1875 1350 
L 1678 1375 
Q 931 1469 631 1722 
Q 331 1975 331 2491 
Q 331 3047 712 3315 
Q 1094 3584 1881 3584 
Q 2191 3584 2531 3537 
Q 2872 3491 3272 3391 
z
" transform="scale(0.015625)"/>
      <path id="DejaVuSans-Bold-72" d="M 3138 2547 
Q 2991 2616 2845 2648 
Q 2700 2681 2553 2681 
Q 2122 2681 1889 2404 
Q 1656 2128 1656 1613 
L 1656 0 
L 538 0 
L 538 3500 
L 1656 3500 
L 1656 2925 
Q 1872 3269 2151 3426 
Q 2431 3584 2822 3584 
Q 2878 3584 2943 3579 
Q 3009 3575 3134 3559 
L 3138 2547 
z
" transform="scale(0.015625)"/>
      <path id="DejaVuSans-Bold-62" d="M 2400 722 
Q 2759 722 2948 984 
Q 3138 1247 3138 1747 
Q 3138 2247 2948 2509 
Q 2759 2772 2400 2772 
Q 2041 2772 1848 2508 
Q 1656 2244 1656 1747 
Q 1656 1250 1848 986 
Q 2041 722 2400 722 
z
M 1656 2988 
Q 1888 3294 2169 3439 
Q 2450 3584 2816 3584 
Q 3463 3584 3878 3070 
Q 4294 2556 4294 1747 
Q 4294 938 3878 423 
Q 3463 -91 2816 -91 
Q 2450 -91 2169 54 
Q 1888 200 1656 506 
L 1656 0 
L 538 0 
L 538 4863 
L 1656 4863 
L 1656 2988 
z
" transform="scale(0.015625)"/>
      <path id="DejaVuSans-Bold-6f" d="M 2203 2784 
Q 1831 2784 1636 2517 
Q 1441 2250 1441 1747 
Q 1441 1244 1636 976 
Q 1831 709 2203 709 
Q 2569 709 2762 976 
Q 2956 1244 2956 1747 
Q 2956 2250 2762 2517 
Q 2569 2784 2203 2784 
z
M 2203 3584 
Q 3106 3584 3614 3096 
Q 4122 2609 4122 1747 
Q 4122 884 3614 396 
Q 3106 -91 2203 -91 
Q 1297 -91 786 396 
Q 275 884 275 1747 
Q 275 2609 786 3096 
Q 1297 3584 2203 3584 
z
" transform="scale(0.015625)"/>
      <path id="DejaVuSans-Bold-6e" d="M 4056 2131 
L 4056 0 
L 2931 0 
L 2931 347 
L 2931 1631 
Q 2931 2084 2911 2256 
Q 2891 2428 2841 2509 
Q 2775 2619 2662 2680 
Q 2550 2741 2406 2741 
Q 2056 2741 1856 2470 
Q 1656 2200 1656 1722 
L 1656 0 
L 538 0 
L 538 3500 
L 1656 3500 
L 1656 2988 
Q 1909 3294 2193 3439 
Q 2478 3584 2822 3584 
Q 3428 3584 3742 3212 
Q 4056 2841 4056 2131 
z
" transform="scale(0.015625)"/>
      <path id="DejaVuSans-Bold-79" d="M 78 3500 
L 1197 3500 
L 2138 1125 
L 2938 3500 
L 4056 3500 
L 2584 -331 
Q 2363 -916 2067 -1148 
Q 1772 -1381 1288 -1381 
L 641 -1381 
L 641 -647 
L 991 -647 
Q 1275 -647 1404 -556 
Q 1534 -466 1606 -231 
L 1638 -134 
L 78 3500 
z
" transform="scale(0.015625)"/>
      <path id="DejaVuSans-Bold-43" d="M 4288 256 
Q 3956 84 3597 -3 
Q 3238 -91 2847 -91 
Q 1681 -91 1000 561 
Q 319 1213 319 2328 
Q 319 3447 1000 4098 
Q 1681 4750 2847 4750 
Q 3238 4750 3597 4662 
Q 3956 4575 4288 4403 
L 4288 3438 
Q 3953 3666 3628 3772 
Q 3303 3878 2944 3878 
Q 2300 3878 1931 3465 
Q 1563 3053 1563 2328 
Q 1563 1606 1931 1193 
Q 2300 781 2944 781 
Q 3303 781 3628 887 
Q 3953 994 4288 1222 
L 4288 256 
z
" transform="scale(0.015625)"/>
      <path id="DejaVuSans-Bold-61" d="M 2106 1575 
Q 1756 1575 1579 1456 
Q 1403 1338 1403 1106 
Q 1403 894 1545 773 
Q 1688 653 1941 653 
Q 2256 653 2472 879 
Q 2688 1106 2688 1447 
L 2688 1575 
L 2106 1575 
z
M 3816 1997 
L 3816 0 
L 2688 0 
L 2688 519 
Q 2463 200 2181 54 
Q 1900 -91 1497 -91 
Q 953 -91 614 226 
Q 275 544 275 1050 
Q 275 1666 698 1953 
Q 1122 2241 2028 2241 
L 2688 2241 
L 2688 2328 
Q 2688 2594 2478 2717 
Q 2269 2841 1825 2841 
Q 1466 2841 1156 2769 
Q 847 2697 581 2553 
L 581 3406 
Q 941 3494 1303 3539 
Q 1666 3584 2028 3584 
Q 2975 3584 3395 3211 
Q 3816 2838 3816 1997 
z
" transform="scale(0.015625)"/>
     </defs>
     <use xlink:href="#DejaVuSans-Bold-42"/>
     <use xlink:href="#DejaVuSans-Bold-75" transform="translate(76.220703 0)"/>
     <use xlink:href="#DejaVuSans-Bold-64" transform="translate(147.412109 0)"/>
     <use xlink:href="#DejaVuSans-Bold-67" transform="translate(218.994141 0)"/>
     <use xlink:href="#DejaVuSans-Bold-65" transform="translate(290.576172 0)"/>
     <use xlink:href="#DejaVuSans-Bold-74" transform="translate(358.398438 0)"/>
     <use xlink:href="#DejaVuSans-Bold-20" transform="translate(406.201172 0)"/>
     <use xlink:href="#DejaVuSans-Bold-44" transform="translate(441.015625 0)"/>
     <use xlink:href="#DejaVuSans-Bold-69" transform="translate(524.023438 0)"/>
     <use xlink:href="#DejaVuSans-Bold-73" transform="translate(558.300781 0)"/>
     <use xlink:href="#DejaVuSans-Bold-74" transform="translate(617.822266 0)"/>
     <use xlink:href="#DejaVuSans-Bold-72" transform="translate(665.625 0)"/>
     <use xlink:href="#DejaVuSans-Bold-69" transform="translate(714.941406 0)"/>
     <use xlink:href="#DejaVuSans-Bold-62" transform="translate(749.21875 0)"/>
     <use xlink:href="#DejaVuSans-Bold-75" transform="translate(820.800781 0)"/>
     <use xlink:href="#DejaVuSans-Bold-74" transform="translate(891.992188 0)"/>
     <use xlink:href="#DejaVuSans-Bold-69" transform="translate(939.794922 0)"/>
     <use xlink:href="#DejaVuSans-Bold-6f" transform="translate(974.072266 0)"/>
     <use xlink:href="#DejaVuSans-Bold-6e" transform="translate(1042.773438 0)"/>
     <use xlink:href="#DejaVuSans-Bold-73" transform="translate(1113.964844 0)"/>
     <use xlink:href="#DejaVuSans-Bold-20" transform="translate(1173.486328 0)"/>
     <use xlink:href="#DejaVuSans-Bold-62" transform="translate(1208.300781 0)"/>
     <use xlink:href="#DejaVuSans-Bold-79" transform="translate(1279.882812 0)"/>
     <use xlink:href="#DejaVuSans-Bold-20" transform="translate(1345.068359 0)"/>
     <use xlink:href="#DejaVuSans-Bold-43" transform="translate(1379.882812 0)"/>
     <use xlink:href="#DejaVuSans-Bold-61" transform="translate(1453.271484 0)"/>
     <use xlink:href="#DejaVuSans-Bold-74" transform="translate(1520.751953 0)"/>
     <use xlink:href="#DejaVuSans-Bold-65" transform="translate(1568.554688 0)"/>
     <use xlink:href="#DejaVuSans-Bold-67" transform="translate(1636.376953 0)"/>
     <use xlink:href="#DejaVuSans-Bold-6f" transform="translate(1707.958984 0)"/>
     <use xlink:href="#DejaVuSans-Bold-72" transform="translate(1776.660156 0)"/>
     <use xlink:href="#DejaVuSans-Bold-79" transform="translate(1825.976562 0)"/>
    </g>
   </g>
   <g id="legend_1">
    <g id="patch_7">
     <path d="M 580.903594 175.831562 
L 693.565937 175.831562 
Q 695.765937 175.831562 695.765937 173.631563 
L 695.765937 36.018125 
Q 695.765937 33.818125 693.565937 33.818125 
L 580.903594 33.818125 
Q 578.703594 33.818125 578.703594 36.018125 
L 578.703594 173.631563 
Q 578.703594 175.831562 580.903594 175.831562 
z
" style="fill: #ffffff; opacity: 0.9; stroke: #e8e5e1; stroke-linejoin: miter"/>
    </g>
    <g id="patch_8">
     <path d="M 584.203594 47.676406 
L 606.203594 47.676406 
L 606.203594 39.976406 
L 584.203594 39.976406 
z
" style="fill: #e8e5e1; fill-opacity: 0.5; stroke: #e8e5e1; stroke-linejoin: miter"/>
    </g>
    <g id="text_18">
     <!-- All projects -->
     <g style="fill: #4a4a5a" transform="translate(615.003594 47.676406) scale(0.11 -0.11)">
      <defs>
       <path id="DejaVuSans-41" d="M 2188 4044 
L 1331 1722 
L 3047 1722 
L 2188 4044 
z
M 1831 4666 
L 2547 4666 
L 4325 0 
L 3669 0 
L 3244 1197 
L 1141 1197 
L 716 0 
L 50 0 
L 1831 4666 
z
" transform="scale(0.015625)"/>
       <path id="DejaVuSans-70" d="M 1159 525 
L 1159 -1331 
L 581 -1331 
L 581 3500 
L 1159 3500 
L 1159 2969 
Q 1341 3281 1617 3432 
Q 1894 3584 2278 3584 
Q 2916 3584 3314 3078 
Q 3713 2572 3713 1747 
Q 3713 922 3314 415 
Q 2916 -91 2278 -91 
Q 1894 -91 1617 61 
Q 1341 213 1159 525 
z
M 3116 1747 
Q 3116 2381 2855 2742 
Q 2594 3103 2138 3103 
Q 1681 3103 1420 2742 
Q 1159 2381 1159 1747 
Q 1159 1113 1420 752 
Q 1681 391 2138 391 
Q 2594 391 2855 752 
Q 3116 1113 3116 1747 
z
" transform="scale(0.015625)"/>
       <path id="DejaVuSans-72" d="M 2631 2963 
Q 2534 3019 2420 3045 
Q 2306 3072 2169 3072 
Q 1681 3072 1420 2755 
Q 1159 2438 1159 1844 
L 1159 0 
L 581 0 
L 581 3500 
L 1159 3500 
L 1159 2956 
Q 1341 3275 1631 3429 
Q 1922 3584 2338 3584 
Q 2397 3584 2469 3576 
Q 2541 3569 2628 3553 
L 2631 2963 
z
" transform="scale(0.015625)"/>
       <path id="DejaVuSans-6a" d="M 603 3500 
L 1178 3500 
L 1178 -63 
Q 1178 -731 923 -1031 
Q 669 -1331 103 -1331 
L -116 -1331 
L -116 -844 
L 38 -844 
Q 366 -844 484 -692 
Q 603 -541 603 -63 
L 603 3500 
z
M 603 4863 
L 1178 4863 
L 1178 4134 
L 603 4134 
L 603 4863 
z
" transform="scale(0.015625)"/>
       <path id="DejaVuSans-63" d="M 3122 3366 
L 3122 2828 
Q 2878 2963 2633 3030 
Q 2388 3097 2138 3097 
Q 1578 3097 1268 2742 
Q 959 2388 959 1747 
Q 959 1106 1268 751 
Q 1578 397 2138 397 
Q 2388 397 2633 464 
Q 2878 531 3122 666 
L 3122 134 
Q 2881 22 2623 -34 
Q 2366 -91 2075 -91 
Q 1284 -91 818 406 
Q 353 903 353 1747 
Q 353 2603 823 3093 
Q 1294 3584 2113 3584 
Q 2378 3584 2631 3529 
Q 2884 3475 3122 3366 
z
" transform="scale(0.015625)"/>
      </defs>
      <use xlink:href="#DejaVuSans-41"/>
      <use xlink:href="#DejaVuSans-6c" transform="translate(68.408203 0)"/>
      <use xlink:href="#DejaVuSans-6c" transform="translate(96.191406 0)"/>
      <use xlink:href="#DejaVuSans-20" transform="translate(123.974609 0)"/>
      <use xlink:href="#DejaVuSans-70" transform="translate(155.761719 0)"/>
      <use xlink:href="#DejaVuSans-72" transform="translate(219.238281 0)"/>
      <use xlink:href="#DejaVuSans-6f" transform="translate(258.101562 0)"/>
      <use xlink:href="#DejaVuSans-6a" transform="translate(319.283203 0)"/>
      <use xlink:href="#DejaVuSans-65" transform="translate(347.066406 0)"/>
      <use xlink:href="#DejaVuSans-63" transform="translate(408.589844 0)"/>
      <use xlink:href="#DejaVuSans-74" transform="translate(463.570312 0)"/>
      <use xlink:href="#DejaVuSans-73" transform="translate(502.779297 0)"/>
     </g>
    </g>
    <g id="line2d_23">
     <path d="M 584.203594 58.872344 
L 595.203594 58.872344 
L 606.203594 58.872344 
" style="fill: none; stroke: #d4a84b; stroke-width: 1.5; stroke-linecap: round"/>
    </g>
    <g id="text_19">
     <!-- Defense -->
     <g style="fill: #4a4a5a" transform="translate(615.003594 62.722344) scale(0.11 -0.11)">
      <defs>
       <path id="DejaVuSans-66" d="M 2375 4863 
L 2375 4384 
L 1825 4384 
Q 1516 4384 1395 4259 
Q 1275 4134 1275 3809 
L 1275 3500 
L 2222 3500 
L 2222 3053 
L 1275 3053 
L 1275 0 
L 697 0 
L 697 3053 
L 147 3053 
L 147 3500 
L 697 3500 
L 697 3744 
Q 697 4328 969 4595 
Q 1241 4863 1831 4863 
L 2375 4863 
z
" transform="scale(0.015625)"/>
      </defs>
      <use xlink:href="#DejaVuSans-44"/>
      <use xlink:href="#DejaVuSans-65" transform="translate(77.001953 0)"/>
      <use xlink:href="#DejaVuSans-66" transform="translate(138.525391 0)"/>
      <use xlink:href="#DejaVuSans-65" transform="translate(173.730469 0)"/>
      <use xlink:href="#DejaVuSans-6e" transform="translate(235.253906 0)"/>
      <use xlink:href="#DejaVuSans-73" transform="translate(298.632812 0)"/>
      <use xlink:href="#DejaVuSans-65" transform="translate(350.732422 0)"/>
     </g>
    </g>
    <g id="line2d_24">
     <path d="M 584.203594 73.918281 
L 595.203594 73.918281 
L 606.203594 73.918281 
" style="fill: none; stroke: #4a90a4; stroke-width: 1.5; stroke-linecap: round"/>
    </g>
    <g id="text_20">
     <!-- Space -->
     <g style="fill: #4a4a5a" transform="translate(615.003594 77.768281) scale(0.11 -0.11)">
      <defs>
       <path id="DejaVuSans-53" d="M 3425 4513 
L 3425 3897 
Q 3066 4069 2747 4153 
Q 2428 4238 2131 4238 
Q 1616 4238 1336 4038 
Q 1056 3838 1056 3469 
Q 1056 3159 1242 3001 
Q 1428 2844 1947 2747 
L 2328 2669 
Q 3034 2534 3370 2195 
Q 3706 1856 3706 1288 
Q 3706 609 3251 259 
Q 2797 -91 1919 -91 
Q 1588 -91 1214 -16 
Q 841 59 441 206 
L 441 856 
Q 825 641 1194 531 
Q 1563 422 1919 422 
Q 2459 422 2753 634 
Q 3047 847 3047 1241 
Q 3047 1584 2836 1778 
Q 2625 1972 2144 2069 
L 1759 2144 
Q 1053 2284 737 2584 
Q 422 2884 422 3419 
Q 422 4038 858 4394 
Q 1294 4750 2059 4750 
Q 2388 4750 2728 4690 
Q 3069 4631 3425 4513 
z
" transform="scale(0.015625)"/>
       <path id="DejaVuSans-61" d="M 2194 1759 
Q 1497 1759 1228 1600 
Q 959 1441 959 1056 
Q 959 750 1161 570 
Q 1363 391 1709 391 
Q 2188 391 2477 730 
Q 2766 1069 2766 1631 
L 2766 1759 
L 2194 1759 
z
M 3341 1997 
L 3341 0 
L 2766 0 
L 2766 531 
Q 2569 213 2275 61 
Q 1981 -91 1556 -91 
Q 1019 -91 701 211 
Q 384 513 384 1019 
Q 384 1609 779 1909 
Q 1175 2209 1959 2209 
L 2766 2209 
L 2766 2266 
Q 2766 2663 2505 2880 
Q 2244 3097 1772 3097 
Q 1472 3097 1187 3025 
Q 903 2953 641 2809 
L 641 3341 
Q 956 3463 1253 3523 
Q 1550 3584 1831 3584 
Q 2591 3584 2966 3190 
Q 3341 2797 3341 1997 
z
" transform="scale(0.015625)"/>
      </defs>
      <use xlink:href="#DejaVuSans-53"/>
      <use xlink:href="#DejaVuSans-70" transform="translate(63.476562 0)"/>
      <use xlink:href="#DejaVuSans-61" transform="translate(126.953125 0)"/>
      <use xlink:href="#DejaVuSans-63" transform="translate(188.232422 0)"/>
      <use xlink:href="#DejaVuSans-65" transform="translate(243.212891 0)"/>
     </g>
    </g>
    <g id="line2d_25">
     <path d="M 584.203594 88.964219 
L 595.203594 88.964219 
L 606.203594 88.964219 
" style="fill: none; stroke: #6b6080; stroke-width: 1.5; stroke-linecap: round"/>
    </g>
    <g id="text_21">
     <!-- Energy -->
     <g style="fill: #4a4a5a" transform="translate(615.003594 92.814219) scale(0.11 -0.11)">
      <defs>
       <path id="DejaVuSans-45" d="M 628 4666 
L 3578 4666 
L 3578 4134 
L 1259 4134 
L 1259 2753 
L 3481 2753 
L 3481 2222 
L 1259 2222 
L 1259 531 
L 3634 531 
L 3634 0 
L 628 0 
L 628 4666 
z
" transform="scale(0.015625)"/>
      </defs>
      <use xlink:href="#DejaVuSans-45"/>
      <use xlink:href="#DejaVuSans-6e" transform="translate(63.183594 0)"/>
      <use xlink:href="#DejaVuSans-65" transform="translate(126.5625 0)"/>
      <use xlink:href="#DejaVuSans-72" transform="translate(188.085938 0)"/>
      <use xlink:href="#DejaVuSans-67" transform="translate(227.449219 0)"/>
      <use xlink:href="#DejaVuSans-79" transform="translate(290.925781 0)"/>
     </g>
    </g>
    <g id="line2d_26">
     <path d="M 584.203594 104.010156 
L 595.203594 104.010156 
L 606.203594 104.010156 
" style="fill: none; stroke: #8b7355; stroke-width: 1.5; stroke-linecap: round"/>
    </g>
    <g id="text_22">
     <!-- Transport -->
     <g style="fill: #4a4a5a" transform="translate(615.003594 107.860156) scale(0.11 -0.11)">
      <defs>
       <path id="DejaVuSans-54" d="M -19 4666 
L 3928 4666 
L 3928 4134 
L 2272 4134 
L 2272 0 
L 1638 0 
L 1638 4134 
L -19 4134 
L -19 4666 
z
" transform="scale(0.015625)"/>
      </defs>
      <use xlink:href="#DejaVuSans-54"/>
      <use xlink:href="#DejaVuSans-72" transform="translate(46.333984 0)"/>
      <use xlink:href="#DejaVuSans-61" transform="translate(87.447266 0)"/>
      <use xlink:href="#DejaVuSans-6e" transform="translate(148.726562 0)"/>
      <use xlink:href="#DejaVuSans-73" transform="translate(212.105469 0)"/>
      <use xlink:href="#DejaVuSans-70" transform="translate(264.205078 0)"/>
      <use xlink:href="#DejaVuSans-6f" transform="translate(327.681641 0)"/>
      <use xlink:href="#DejaVuSans-72" transform="translate(388.863281 0)"/>
      <use xlink:href="#DejaVuSans-74" transform="translate(429.976562 0)"/>
     </g>
    </g>
    <g id="line2d_27">
     <path d="M 584.203594 119.056094 
L 595.203594 119.056094 
L 606.203594 119.056094 
" style="fill: none; stroke: #5c8b6b; stroke-width: 1.5; stroke-linecap: round"/>
    </g>
    <g id="text_23">
     <!-- Tech -->
     <g style="fill: #4a4a5a" transform="translate(615.003594 122.906094) scale(0.11 -0.11)">
      <defs>
       <path id="DejaVuSans-68" d="M 3513 2113 
L 3513 0 
L 2938 0 
L 2938 2094 
Q 2938 2591 2744 2837 
Q 2550 3084 2163 3084 
Q 1697 3084 1428 2787 
Q 1159 2491 1159 1978 
L 1159 0 
L 581 0 
L 581 4863 
L 1159 4863 
L 1159 2956 
Q 1366 3272 1645 3428 
Q 1925 3584 2291 3584 
Q 2894 3584 3203 3211 
Q 3513 2838 3513 2113 
z
" transform="scale(0.015625)"/>
      </defs>
      <use xlink:href="#DejaVuSans-54"/>
      <use xlink:href="#DejaVuSans-65" transform="translate(44.083984 0)"/>
      <use xlink:href="#DejaVuSans-63" transform="translate(105.607422 0)"/>
      <use xlink:href="#DejaVuSans-68" transform="translate(160.587891 0)"/>
     </g>
    </g>
    <g id="line2d_28">
     <path d="M 584.203594 134.102031 
L 595.203594 134.102031 
L 606.203594 134.102031 
" style="fill: none; stroke: #2ecc71; stroke-width: 1.5; stroke-linecap: round"/>
    </g>
    <g id="text_24">
     <!-- Infrastructure -->
     <g style="fill: #4a4a5a" transform="translate(615.003594 137.952031) scale(0.11 -0.11)">
      <defs>
       <path id="DejaVuSans-49" d="M 628 4666 
L 1259 4666 
L 1259 0 
L 628 0 
L 628 4666 
z
" transform="scale(0.015625)"/>
      </defs>
      <use xlink:href="#DejaVuSans-49"/>
      <use xlink:href="#DejaVuSans-6e" transform="translate(29.492188 0)"/>
      <use xlink:href="#DejaVuSans-66" transform="translate(92.871094 0)"/>
      <use xlink:href="#DejaVuSans-72" transform="translate(128.076172 0)"/>
      <use xlink:href="#DejaVuSans-61" transform="translate(169.189453 0)"/>
      <use xlink:href="#DejaVuSans-73" transform="translate(230.46875 0)"/>
      <use xlink:href="#DejaVuSans-74" transform="translate(282.568359 0)"/>
      <use xlink:href="#DejaVuSans-72" transform="translate(321.777344 0)"/>
      <use xlink:href="#DejaVuSans-75" transform="translate(362.890625 0)"/>
      <use xlink:href="#DejaVuSans-63" transform="translate(426.269531 0)"/>
      <use xlink:href="#DejaVuSans-74" transform="translate(481.25 0)"/>
      <use xlink:href="#DejaVuSans-75" transform="translate(520.458984 0)"/>
      <use xlink:href="#DejaVuSans-72" transform="translate(583.837891 0)"/>
      <use xlink:href="#DejaVuSans-65" transform="translate(622.701172 0)"/>
     </g>
    </g>
    <g id="line2d_29">
     <path d="M 584.203594 149.147969 
L 595.203594 149.147969 
L 606.203594 149.147969 
" style="fill: none; stroke: #e377c2; stroke-width: 1.5; stroke-linecap: round"/>
    </g>
    <g id="text_25">
     <!-- Research -->
     <g style="fill: #4a4a5a" transform="translate(615.003594 152.997969) scale(0.11 -0.11)">
      <defs>
       <path id="DejaVuSans-52" d="M 2841 2188 
Q 3044 2119 3236 1894 
Q 3428 1669 3622 1275 
L 4263 0 
L 3584 0 
L 2988 1197 
Q 2756 1666 2539 1819 
Q 2322 1972 1947 1972 
L 1259 1972 
L 1259 0 
L 628 0 
L 628 4666 
L 2053 4666 
Q 2853 4666 3247 4331 
Q 3641 3997 3641 3322 
Q 3641 2881 3436 2590 
Q 3231 2300 2841 2188 
z
M 1259 4147 
L 1259 2491 
L 2053 2491 
Q 2509 2491 2742 2702 
Q 2975 2913 2975 3322 
Q 2975 3731 2742 3939 
Q 2509 4147 2053 4147 
L 1259 4147 
z
" transform="scale(0.015625)"/>
      </defs>
      <use xlink:href="#DejaVuSans-52"/>
      <use xlink:href="#DejaVuSans-65" transform="translate(64.982422 0)"/>
      <use xlink:href="#DejaVuSans-73" transform="translate(126.505859 0)"/>
      <use xlink:href="#DejaVuSans-65" transform="translate(178.605469 0)"/>
      <use xlink:href="#DejaVuSans-61" transform="translate(240.128906 0)"/>
      <use xlink:href="#DejaVuSans-72" transform="translate(301.408203 0)"/>
      <use xlink:href="#DejaVuSans-63" transform="translate(340.271484 0)"/>
      <use xlink:href="#DejaVuSans-68" transform="translate(395.251953 0)"/>
     </g>
    </g>
    <g id="line2d_30">
     <path d="M 584.203594 164.193906 
L 595.203594 164.193906 
L 606.203594 164.193906 
" style="fill: none; stroke: #7f7f7f; stroke-width: 1.5; stroke-linecap: round"/>
    </g>
    <g id="text_26">
     <!-- Brain -->
     <g style="fill: #4a4a5a" transform="translate(615.003594 168.043906) scale(0.11 -0.11)">
      <use xlink:href="#DejaVuSans-42"/>
      <use xlink:href="#DejaVuSans-72" transform="translate(68.603516 0)"/>
      <use xlink:href="#DejaVuSans-61" transform="translate(109.716797 0)"/>
      <use xlink:href="#DejaVuSans-69" transform="translate(170.996094 0)"/>
      <use xlink:href="#DejaVuSans-6e" transform="translate(198.779297 0)"/>
     </g>
    </g>
   </g>
  </g>
  <g id="text_27">
   <!-- Zanichelli &amp; Schons et al., State of Brain Emulation Report 2025 -->
   <g style="fill: #787470" transform="translate(482.315 366.757031) scale(0.07 -0.07)">
    <defs>
     <path id="DejaVuSans-Oblique-5a" d="M 838 4666 
L 4500 4666 
L 4409 4184 
L 794 531 
L 3769 531 
L 3669 0 
L -141 0 
L -50 481 
L 3566 4134 
L 738 4134 
L 838 4666 
z
" transform="scale(0.015625)"/>
     <path id="DejaVuSans-Oblique-61" d="M 3438 1997 
L 3047 0 
L 2472 0 
L 2578 531 
Q 2325 219 2001 64 
Q 1678 -91 1281 -91 
Q 834 -91 548 182 
Q 263 456 263 884 
Q 263 1497 752 1853 
Q 1241 2209 2100 2209 
L 2900 2209 
L 2931 2363 
Q 2938 2388 2941 2417 
Q 2944 2447 2944 2509 
Q 2944 2788 2717 2942 
Q 2491 3097 2081 3097 
Q 1800 3097 1504 3025 
Q 1209 2953 897 2809 
L 997 3341 
Q 1322 3463 1633 3523 
Q 1944 3584 2234 3584 
Q 2853 3584 3176 3315 
Q 3500 3047 3500 2534 
Q 3500 2431 3484 2292 
Q 3469 2153 3438 1997 
z
M 2816 1759 
L 2241 1759 
Q 1534 1759 1195 1570 
Q 856 1381 856 984 
Q 856 709 1029 553 
Q 1203 397 1509 397 
Q 1978 397 2328 733 
Q 2678 1069 2791 1631 
L 2816 1759 
z
" transform="scale(0.015625)"/>
     <path id="DejaVuSans-Oblique-6e" d="M 3566 2113 
L 3156 0 
L 2578 0 
L 2988 2091 
Q 3016 2238 3031 2350 
Q 3047 2463 3047 2528 
Q 3047 2791 2881 2937 
Q 2716 3084 2419 3084 
Q 1956 3084 1622 2776 
Q 1288 2469 1184 1941 
L 800 0 
L 225 0 
L 903 3500 
L 1478 3500 
L 1363 2950 
Q 1603 3253 1940 3418 
Q 2278 3584 2650 3584 
Q 3113 3584 3367 3334 
Q 3622 3084 3622 2631 
Q 3622 2519 3608 2391 
Q 3594 2263 3566 2113 
z
" transform="scale(0.015625)"/>
     <path id="DejaVuSans-Oblique-69" d="M 1172 4863 
L 1747 4863 
L 1606 4134 
L 1031 4134 
L 1172 4863 
z
M 909 3500 
L 1484 3500 
L 800 0 
L 225 0 
L 909 3500 
z
" transform="scale(0.015625)"/>
     <path id="DejaVuSans-Oblique-63" d="M 3431 3366 
L 3316 2797 
Q 3109 2947 2876 3022 
Q 2644 3097 2394 3097 
Q 2119 3097 1870 3000 
Q 1622 2903 1453 2725 
Q 1184 2453 1037 2087 
Q 891 1722 891 1331 
Q 891 859 1127 628 
Q 1363 397 1844 397 
Q 2081 397 2348 469 
Q 2616 541 2906 684 
L 2797 116 
Q 2547 13 2283 -39 
Q 2019 -91 1741 -91 
Q 1044 -91 669 257 
Q 294 606 294 1253 
Q 294 1797 489 2255 
Q 684 2713 1069 3078 
Q 1331 3328 1684 3456 
Q 2038 3584 2456 3584 
Q 2700 3584 2940 3529 
Q 3181 3475 3431 3366 
z
" transform="scale(0.015625)"/>
     <path id="DejaVuSans-Oblique-68" d="M 3566 2113 
L 3156 0 
L 2578 0 
L 2988 2091 
Q 3016 2238 3031 2350 
Q 3047 2463 3047 2528 
Q 3047 2791 2881 2937 
Q 2716 3084 2419 3084 
Q 1956 3084 1617 2771 
Q 1278 2459 1178 1941 
L 800 0 
L 225 0 
L 1172 4863 
L 1747 4863 
L 1375 2950 
Q 1594 3244 1934 3414 
Q 2275 3584 2650 3584 
Q 3113 3584 3367 3334 
Q 3622 3084 3622 2631 
Q 3622 2519 3608 2391 
Q 3594 2263 3566 2113 
z
" transform="scale(0.015625)"/>
     <path id="DejaVuSans-Oblique-65" d="M 3078 2063 
Q 3088 2113 3092 2166 
Q 3097 2219 3097 2272 
Q 3097 2653 2873 2875 
Q 2650 3097 2266 3097 
Q 1838 3097 1509 2826 
Q 1181 2556 1013 2059 
L 3078 2063 
z
M 3578 1613 
L 903 1613 
Q 884 1494 878 1425 
Q 872 1356 872 1306 
Q 872 872 1139 634 
Q 1406 397 1894 397 
Q 2269 397 2603 481 
Q 2938 566 3225 728 
L 3116 159 
Q 2806 34 2476 -28 
Q 2147 -91 1806 -91 
Q 1078 -91 686 257 
Q 294 606 294 1247 
Q 294 1794 489 2264 
Q 684 2734 1063 3103 
Q 1306 3334 1642 3459 
Q 1978 3584 2356 3584 
Q 2950 3584 3301 3228 
Q 3653 2872 3653 2272 
Q 3653 2128 3634 1964 
Q 3616 1800 3578 1613 
z
" transform="scale(0.015625)"/>
     <path id="DejaVuSans-Oblique-6c" d="M 1172 4863 
L 1747 4863 
L 800 0 
L 225 0 
L 1172 4863 
z
" transform="scale(0.015625)"/>
     <path id="DejaVuSans-Oblique-20" transform="scale(0.015625)"/>
     <path id="DejaVuSans-Oblique-26" d="M 3022 813 
L 1691 2509 
Q 1313 2234 1117 1925 
Q 922 1616 922 1294 
Q 922 897 1189 656 
Q 1456 416 1900 416 
Q 2194 416 2480 517 
Q 2766 619 3022 813 
z
M 4709 2503 
Q 4569 2006 4339 1593 
Q 4109 1181 3788 844 
L 4441 0 
L 3653 0 
L 3322 434 
Q 2991 175 2609 42 
Q 2228 -91 1813 -91 
Q 1122 -91 711 250 
Q 300 591 300 1153 
Q 300 1634 589 2062 
Q 878 2491 1447 2853 
Q 1350 2997 1304 3145 
Q 1259 3294 1259 3463 
Q 1259 3675 1331 3865 
Q 1403 4056 1538 4213 
Q 1753 4469 2078 4609 
Q 2403 4750 2778 4750 
Q 3022 4750 3269 4694 
Q 3516 4638 3769 4525 
L 3659 3956 
Q 3425 4103 3192 4179 
Q 2959 4256 2741 4256 
Q 2353 4256 2111 4054 
Q 1869 3853 1869 3541 
Q 1869 3403 1928 3268 
Q 1988 3134 2203 2859 
L 3475 1234 
Q 3709 1481 3875 1801 
Q 4041 2122 4128 2503 
L 4709 2503 
z
" transform="scale(0.015625)"/>
     <path id="DejaVuSans-Oblique-53" d="M 3859 4513 
L 3738 3897 
Q 3422 4066 3111 4152 
Q 2800 4238 2509 4238 
Q 1944 4238 1609 3991 
Q 1275 3744 1275 3334 
Q 1275 3109 1398 2989 
Q 1522 2869 2034 2731 
L 2413 2638 
Q 3053 2472 3303 2217 
Q 3553 1963 3553 1503 
Q 3553 797 2998 353 
Q 2444 -91 1538 -91 
Q 1166 -91 791 -17 
Q 416 56 38 206 
L 166 856 
Q 513 641 861 531 
Q 1209 422 1556 422 
Q 2147 422 2503 684 
Q 2859 947 2859 1369 
Q 2859 1650 2717 1795 
Q 2575 1941 2106 2059 
L 1728 2156 
Q 1081 2325 845 2545 
Q 609 2766 609 3163 
Q 609 3859 1145 4304 
Q 1681 4750 2541 4750 
Q 2875 4750 3203 4690 
Q 3531 4631 3859 4513 
z
" transform="scale(0.015625)"/>
     <path id="DejaVuSans-Oblique-6f" d="M 1625 -91 
Q 1009 -91 651 289 
Q 294 669 294 1325 
Q 294 1706 417 2101 
Q 541 2497 738 2766 
Q 1047 3184 1428 3384 
Q 1809 3584 2291 3584 
Q 2888 3584 3255 3212 
Q 3622 2841 3622 2241 
Q 3622 1825 3500 1412 
Q 3378 1000 3181 728 
Q 2875 309 2494 109 
Q 2113 -91 1625 -91 
z
M 891 1344 
Q 891 869 1089 633 
Q 1288 397 1691 397 
Q 2269 397 2648 901 
Q 3028 1406 3028 2181 
Q 3028 2634 2825 2865 
Q 2622 3097 2228 3097 
Q 1903 3097 1650 2945 
Q 1397 2794 1197 2484 
Q 1050 2253 970 1956 
Q 891 1659 891 1344 
z
" transform="scale(0.015625)"/>
     <path id="DejaVuSans-Oblique-73" d="M 3200 3397 
L 3091 2853 
Q 2863 2978 2609 3040 
Q 2356 3103 2088 3103 
Q 1634 3103 1373 2948 
Q 1113 2794 1113 2528 
Q 1113 2219 1719 2053 
Q 1766 2041 1788 2034 
L 1972 1978 
Q 2547 1819 2739 1644 
Q 2931 1469 2931 1166 
Q 2931 609 2489 259 
Q 2047 -91 1331 -91 
Q 1053 -91 747 -37 
Q 441 16 72 128 
L 184 722 
Q 500 559 806 475 
Q 1113 391 1394 391 
Q 1816 391 2080 572 
Q 2344 753 2344 1031 
Q 2344 1331 1650 1516 
L 1591 1531 
L 1394 1581 
Q 956 1697 753 1886 
Q 550 2075 550 2369 
Q 550 2928 970 3256 
Q 1391 3584 2113 3584 
Q 2397 3584 2667 3537 
Q 2938 3491 3200 3397 
z
" transform="scale(0.015625)"/>
     <path id="DejaVuSans-Oblique-74" d="M 2706 3500 
L 2619 3053 
L 1472 3053 
L 1100 1153 
Q 1081 1047 1072 975 
Q 1063 903 1063 863 
Q 1063 663 1183 572 
Q 1303 481 1569 481 
L 2150 481 
L 2053 0 
L 1503 0 
Q 991 0 739 200 
Q 488 400 488 806 
Q 488 878 497 964 
Q 506 1050 525 1153 
L 897 3053 
L 409 3053 
L 500 3500 
L 978 3500 
L 1172 4494 
L 1747 4494 
L 1556 3500 
L 2706 3500 
z
" transform="scale(0.015625)"/>
     <path id="DejaVuSans-Oblique-2e" d="M 525 794 
L 1184 794 
L 1031 0 
L 372 0 
L 525 794 
z
" transform="scale(0.015625)"/>
     <path id="DejaVuSans-Oblique-2c" d="M 575 794 
L 1234 794 
L 1131 256 
L 422 -744 
L 19 -744 
L 469 256 
L 575 794 
z
" transform="scale(0.015625)"/>
     <path id="DejaVuSans-Oblique-66" d="M 3059 4863 
L 2969 4384 
L 2419 4384 
Q 2106 4384 1964 4261 
Q 1822 4138 1753 3809 
L 1691 3500 
L 2638 3500 
L 2553 3053 
L 1606 3053 
L 1013 0 
L 434 0 
L 1031 3053 
L 481 3053 
L 563 3500 
L 1113 3500 
L 1159 3744 
Q 1278 4363 1576 4613 
Q 1875 4863 2516 4863 
L 3059 4863 
z
" transform="scale(0.015625)"/>
     <path id="DejaVuSans-Oblique-42" d="M 1081 4666 
L 2694 4666 
Q 3350 4666 3675 4422 
Q 4000 4178 4000 3688 
Q 4000 3238 3720 2911 
Q 3441 2584 2988 2516 
Q 3375 2428 3569 2181 
Q 3763 1934 3763 1522 
Q 3763 819 3242 409 
Q 2722 0 1819 0 
L 172 0 
L 1081 4666 
z
M 1234 2228 
L 903 519 
L 1919 519 
Q 2491 519 2800 781 
Q 3109 1044 3109 1522 
Q 3109 1891 2904 2059 
Q 2700 2228 2247 2228 
L 1234 2228 
z
M 1606 4147 
L 1331 2741 
L 2272 2741 
Q 2775 2741 3058 2959 
Q 3341 3178 3341 3566 
Q 3341 3869 3150 4008 
Q 2959 4147 2541 4147 
L 1606 4147 
z
" transform="scale(0.015625)"/>
     <path id="DejaVuSans-Oblique-72" d="M 2853 2969 
Q 2766 3016 2653 3041 
Q 2541 3066 2413 3066 
Q 1953 3066 1609 2717 
Q 1266 2369 1153 1784 
L 800 0 
L 225 0 
L 909 3500 
L 1484 3500 
L 1375 2956 
Q 1603 3259 1920 3421 
Q 2238 3584 2597 3584 
Q 2691 3584 2781 3573 
Q 2872 3563 2963 3538 
L 2853 2969 
z
" transform="scale(0.015625)"/>
     <path id="DejaVuSans-Oblique-45" d="M 1081 4666 
L 4031 4666 
L 3928 4134 
L 1606 4134 
L 1338 2753 
L 3566 2753 
L 3463 2222 
L 1234 2222 
L 909 531 
L 3284 531 
L 3181 0 
L 172 0 
L 1081 4666 
z
" transform="scale(0.015625)"/>
     <path id="DejaVuSans-Oblique-6d" d="M 5747 2113 
L 5338 0 
L 4763 0 
L 5166 2094 
Q 5191 2228 5203 2325 
Q 5216 2422 5216 2491 
Q 5216 2772 5059 2928 
Q 4903 3084 4622 3084 
Q 4203 3084 3875 2770 
Q 3547 2456 3450 1953 
L 3066 0 
L 2491 0 
L 2900 2094 
Q 2925 2209 2937 2307 
Q 2950 2406 2950 2484 
Q 2950 2769 2794 2926 
Q 2638 3084 2363 3084 
Q 1938 3084 1609 2770 
Q 1281 2456 1184 1953 
L 800 0 
L 225 0 
L 909 3500 
L 1484 3500 
L 1375 2956 
Q 1609 3263 1923 3423 
Q 2238 3584 2597 3584 
Q 2978 3584 3223 3384 
Q 3469 3184 3519 2828 
Q 3781 3197 4126 3390 
Q 4472 3584 4856 3584 
Q 5306 3584 5551 3325 
Q 5797 3066 5797 2591 
Q 5797 2488 5784 2364 
Q 5772 2241 5747 2113 
z
" transform="scale(0.015625)"/>
     <path id="DejaVuSans-Oblique-75" d="M 428 1388 
L 838 3500 
L 1416 3500 
L 1006 1409 
Q 975 1256 961 1147 
Q 947 1038 947 966 
Q 947 700 1109 554 
Q 1272 409 1569 409 
Q 2031 409 2368 721 
Q 2706 1034 2809 1563 
L 3194 3500 
L 3769 3500 
L 3091 0 
L 2516 0 
L 2631 550 
Q 2388 244 2052 76 
Q 1716 -91 1338 -91 
Q 878 -91 622 161 
Q 366 413 366 863 
Q 366 956 381 1097 
Q 397 1238 428 1388 
z
" transform="scale(0.015625)"/>
     <path id="DejaVuSans-Oblique-52" d="M 1613 4147 
L 1294 2491 
L 2106 2491 
Q 2584 2491 2879 2755 
Q 3175 3019 3175 3444 
Q 3175 3784 2976 3965 
Q 2778 4147 2406 4147 
L 1613 4147 
z
M 2772 2241 
Q 2972 2194 3105 2009 
Q 3238 1825 3413 1275 
L 3809 0 
L 3144 0 
L 2778 1197 
Q 2638 1659 2453 1815 
Q 2269 1972 1888 1972 
L 1191 1972 
L 806 0 
L 172 0 
L 1081 4666 
L 2503 4666 
Q 3150 4666 3495 4373 
Q 3841 4081 3841 3531 
Q 3841 3044 3547 2687 
Q 3253 2331 2772 2241 
z
" transform="scale(0.015625)"/>
     <path id="DejaVuSans-Oblique-70" d="M 3175 2156 
Q 3175 2616 2975 2859 
Q 2775 3103 2400 3103 
Q 2144 3103 1911 2972 
Q 1678 2841 1497 2591 
Q 1319 2344 1212 1994 
Q 1106 1644 1106 1300 
Q 1106 863 1306 627 
Q 1506 391 1875 391 
Q 2147 391 2380 519 
Q 2613 647 2778 891 
Q 2956 1147 3065 1494 
Q 3175 1841 3175 2156 
z
M 1394 2969 
Q 1625 3272 1939 3428 
Q 2253 3584 2638 3584 
Q 3175 3584 3472 3232 
Q 3769 2881 3769 2247 
Q 3769 1728 3584 1258 
Q 3400 788 3053 416 
Q 2822 169 2531 39 
Q 2241 -91 1919 -91 
Q 1547 -91 1294 64 
Q 1041 219 916 525 
L 556 -1331 
L -19 -1331 
L 922 3500 
L 1497 3500 
L 1394 2969 
z
" transform="scale(0.015625)"/>
     <path id="DejaVuSans-Oblique-32" d="M 2950 2253 
L 934 525 
L 3163 525 
L 3053 0 
L 25 0 
L 128 531 
L 2234 2338 
Q 2656 2703 2832 2979 
Q 3009 3256 3009 3547 
Q 3009 3850 2796 4040 
Q 2584 4231 2241 4231 
Q 1944 4231 1581 4125 
Q 1219 4019 806 3816 
L 922 4441 
Q 1309 4594 1662 4672 
Q 2016 4750 2316 4750 
Q 2928 4750 3301 4425 
Q 3675 4100 3675 3572 
Q 3675 3216 3497 2892 
Q 3319 2569 2950 2253 
z
" transform="scale(0.015625)"/>
     <path id="DejaVuSans-Oblique-30" d="M 2444 4750 
Q 3078 4750 3414 4328 
Q 3750 3906 3750 3116 
Q 3750 2516 3592 1923 
Q 3434 1331 3150 863 
Q 2859 394 2467 151 
Q 2075 -91 1600 -91 
Q 988 -91 653 334 
Q 319 759 319 1544 
Q 319 2138 480 2733 
Q 641 3328 928 3794 
Q 1216 4263 1602 4506 
Q 1988 4750 2444 4750 
z
M 2406 4250 
Q 2169 4250 1955 4123 
Q 1741 3997 1569 3750 
Q 1281 3338 1111 2720 
Q 941 2103 941 1453 
Q 941 938 1123 673 
Q 1306 409 1663 409 
Q 1913 409 2125 536 
Q 2338 663 2509 909 
Q 2794 1319 2961 1936 
Q 3128 2553 3128 3206 
Q 3128 3722 2945 3986 
Q 2763 4250 2406 4250 
z
" transform="scale(0.015625)"/>
     <path id="DejaVuSans-Oblique-35" d="M 3719 4666 
L 3622 4141 
L 1691 4141 
L 1466 2988 
Q 1609 3034 1757 3056 
Q 1906 3078 2059 3078 
Q 2706 3078 3081 2731 
Q 3456 2384 3456 1791 
Q 3456 1375 3264 994 
Q 3072 613 2719 325 
Q 2469 125 2108 17 
Q 1747 -91 1319 -91 
Q 1038 -91 744 -41 
Q 450 9 128 109 
L 244 697 
Q 531 556 820 486 
Q 1109 416 1403 416 
Q 2013 416 2411 781 
Q 2809 1147 2809 1697 
Q 2809 2103 2548 2328 
Q 2288 2553 1819 2553 
Q 1572 2553 1305 2495 
Q 1038 2438 756 2322 
L 1209 4666 
L 3719 4666 
z
" transform="scale(0.015625)"/>
    </defs>
    <use xlink:href="#DejaVuSans-Oblique-5a"/>
    <use xlink:href="#DejaVuSans-Oblique-61" transform="translate(68.505859 0)"/>
    <use xlink:href="#DejaVuSans-Oblique-6e" transform="translate(129.785156 0)"/>
    <use xlink:href="#DejaVuSans-Oblique-69" transform="translate(193.164062 0)"/>
    <use xlink:href="#DejaVuSans-Oblique-63" transform="translate(220.947266 0)"/>
    <use xlink:href="#DejaVuSans-Oblique-68" transform="translate(275.927734 0)"/>
    <use xlink:href="#DejaVuSans-Oblique-65" transform="translate(339.306641 0)"/>
    <use xlink:href="#DejaVuSans-Oblique-6c" transform="translate(400.830078 0)"/>
    <use xlink:href="#DejaVuSans-Oblique-6c" transform="translate(428.613281 0)"/>
    <use xlink:href="#DejaVuSans-Oblique-69" transform="translate(456.396484 0)"/>
    <use xlink:href="#DejaVuSans-Oblique-20" transform="translate(484.179688 0)"/>
    <use xlink:href="#DejaVuSans-Oblique-26" transform="translate(515.966797 0)"/>
    <use xlink:href="#DejaVuSans-Oblique-20" transform="translate(593.945312 0)"/>
    <use xlink:href="#DejaVuSans-Oblique-53" transform="translate(625.732422 0)"/>
    <use xlink:href="#DejaVuSans-Oblique-63" transform="translate(689.208984 0)"/>
    <use xlink:href="#DejaVuSans-Oblique-68" transform="translate(744.189453 0)"/>
    <use xlink:href="#DejaVuSans-Oblique-6f" transform="translate(807.568359 0)"/>
    <use xlink:href="#DejaVuSans-Oblique-6e" transform="translate(868.75 0)"/>
    <use xlink:href="#DejaVuSans-Oblique-73" transform="translate(932.128906 0)"/>
    <use xlink:href="#DejaVuSans-Oblique-20" transform="translate(984.228516 0)"/>
    <use xlink:href="#DejaVuSans-Oblique-65" transform="translate(1016.015625 0)"/>
    <use xlink:href="#DejaVuSans-Oblique-74" transform="translate(1077.539062 0)"/>
    <use xlink:href="#DejaVuSans-Oblique-20" transform="translate(1116.748047 0)"/>
    <use xlink:href="#DejaVuSans-Oblique-61" transform="translate(1148.535156 0)"/>
    <use xlink:href="#DejaVuSans-Oblique-6c" transform="translate(1209.814453 0)"/>
    <use xlink:href="#DejaVuSans-Oblique-2e" transform="translate(1237.597656 0)"/>
    <use xlink:href="#DejaVuSans-Oblique-2c" transform="translate(1269.384766 0)"/>
    <use xlink:href="#DejaVuSans-Oblique-20" transform="translate(1301.171875 0)"/>
    <use xlink:href="#DejaVuSans-Oblique-53" transform="translate(1332.958984 0)"/>
    <use xlink:href="#DejaVuSans-Oblique-74" transform="translate(1396.435547 0)"/>
    <use xlink:href="#DejaVuSans-Oblique-61" transform="translate(1435.644531 0)"/>
    <use xlink:href="#DejaVuSans-Oblique-74" transform="translate(1496.923828 0)"/>
    <use xlink:href="#DejaVuSans-Oblique-65" transform="translate(1536.132812 0)"/>
    <use xlink:href="#DejaVuSans-Oblique-20" transform="translate(1597.65625 0)"/>
    <use xlink:href="#DejaVuSans-Oblique-6f" transform="translate(1629.443359 0)"/>
    <use xlink:href="#DejaVuSans-Oblique-66" transform="translate(1690.625 0)"/>
    <use xlink:href="#DejaVuSans-Oblique-20" transform="translate(1725.830078 0)"/>
    <use xlink:href="#DejaVuSans-Oblique-42" transform="translate(1757.617188 0)"/>
    <use xlink:href="#DejaVuSans-Oblique-72" transform="translate(1826.220703 0)"/>
    <use xlink:href="#DejaVuSans-Oblique-61" transform="translate(1867.333984 0)"/>
    <use xlink:href="#DejaVuSans-Oblique-69" transform="translate(1928.613281 0)"/>
    <use xlink:href="#DejaVuSans-Oblique-6e" transform="translate(1956.396484 0)"/>
    <use xlink:href="#DejaVuSans-Oblique-20" transform="translate(2019.775391 0)"/>
    <use xlink:href="#DejaVuSans-Oblique-45" transform="translate(2051.5625 0)"/>
    <use xlink:href="#DejaVuSans-Oblique-6d" transform="translate(2114.746094 0)"/>
    <use xlink:href="#DejaVuSans-Oblique-75" transform="translate(2212.158203 0)"/>
    <use xlink:href="#DejaVuSans-Oblique-6c" transform="translate(2275.537109 0)"/>
    <use xlink:href="#DejaVuSans-Oblique-61" transform="translate(2303.320312 0)"/>
    <use xlink:href="#DejaVuSans-Oblique-74" transform="translate(2364.599609 0)"/>
    <use xlink:href="#DejaVuSans-Oblique-69" transform="translate(2403.808594 0)"/>
    <use xlink:href="#DejaVuSans-Oblique-6f" transform="translate(2431.591797 0)"/>
    <use xlink:href="#DejaVuSans-Oblique-6e" transform="translate(2492.773438 0)"/>
    <use xlink:href="#DejaVuSans-Oblique-20" transform="translate(2556.152344 0)"/>
    <use xlink:href="#DejaVuSans-Oblique-52" transform="translate(2587.939453 0)"/>
    <use xlink:href="#DejaVuSans-Oblique-65" transform="translate(2657.421875 0)"/>
    <use xlink:href="#DejaVuSans-Oblique-70" transform="translate(2718.945312 0)"/>
    <use xlink:href="#DejaVuSans-Oblique-6f" transform="translate(2782.421875 0)"/>
    <use xlink:href="#DejaVuSans-Oblique-72" transform="translate(2843.603516 0)"/>
    <use xlink:href="#DejaVuSans-Oblique-74" transform="translate(2884.716797 0)"/>
    <use xlink:href="#DejaVuSans-Oblique-20" transform="translate(2923.925781 0)"/>
    <use xlink:href="#DejaVuSans-Oblique-32" transform="translate(2955.712891 0)"/>
    <use xlink:href="#DejaVuSans-Oblique-30" transform="translate(3019.335938 0)"/>
    <use xlink:href="#DejaVuSans-Oblique-32" transform="translate(3082.958984 0)"/>
    <use xlink:href="#DejaVuSans-Oblique-35" transform="translate(3146.582031 0)"/>
   </g>
  </g>
 </g>
 <defs>
  <clipPath id="p11d3824f89">
   <rect x="56.805937" y="28.318125" width="644.46" height="275.844"/>
  </clipPath>
 </defs>
</svg>
