<?xml version="1.0" encoding="utf-8" standalone="no"?>
<!DOCTYPE svg PUBLIC "-//W3C//DTD SVG 1.1//EN"
  "http://www.w3.org/Graphics/SVG/1.1/DTD/svg11.dtd">
<svg xmlns:xlink="http://www.w3.org/1999/xlink" width="788.271925pt" height="448.198594pt" viewBox="0 0 788.271925 448.198594" xmlns="http://www.w3.org/2000/svg" version="1.1">
 <metadata>
  <rdf:RDF xmlns:dc="http://purl.org/dc/elements/1.1/" xmlns:cc="http://creativecommons.org/ns#" xmlns:rdf="http://www.w3.org/1999/02/22-rdf-syntax-ns#">
   <cc:Work>
    <dc:type rdf:resource="http://purl.org/dc/dcmitype/StillImage"/>
    <dc:date>2026-01-26T17:42:48.555865</dc:date>
    <dc:format>image/svg+xml</dc:format>
    <dc:creator>
     <cc:Agent>
      <dc:title>Matplotlib v3.9.4, https://matplotlib.org/</dc:title>
     </cc:Agent>
    </dc:creator>
   </cc:Work>
  </rdf:RDF>
 </metadata>
 <defs>
  <style type="text/css">*{stroke-linejoin: round; stroke-linecap: butt}</style>
 </defs>
 <g id="figure_1">
  <g id="patch_1">
   <path d="M 0 448.198594 
L 788.271925 448.198594 
L 788.271925 0 
L 0 0 
z
" style="fill: #ffffff"/>
  </g>
  <g id="axes_1">
   <g id="patch_2">
    <path d="M 83.181925 392.371562 
L 634.555925 392.371562 
L 634.555925 37.391562 
L 83.181925 37.391562 
z
" style="fill: #fafaf8"/>
   </g>
   <g id="LineCollection_1">
    <path d="M 115.61569 371.490386 
L 115.61569 58.272739 
" clip-path="url(#p44ccca0b0e)" style="fill: none; stroke: #e8e5e1"/>
   </g>
   <g id="LineCollection_2">
    <path d="M 277.784513 371.490386 
L 277.784513 58.272739 
" clip-path="url(#p44ccca0b0e)" style="fill: none; stroke: #e8e5e1"/>
   </g>
   <g id="LineCollection_3">
    <path d="M 439.953337 371.490386 
L 439.953337 58.272739 
" clip-path="url(#p44ccca0b0e)" style="fill: none; stroke: #e8e5e1"/>
   </g>
   <g id="LineCollection_4">
    <path d="M 602.12216 371.490386 
L 602.12216 58.272739 
" clip-path="url(#p44ccca0b0e)" style="fill: none; stroke: #e8e5e1"/>
   </g>
   <g id="LineCollection_5">
    <path d="M 115.61569 371.490386 
L 602.12216 371.490386 
" clip-path="url(#p44ccca0b0e)" style="fill: none; stroke-dasharray: 3.7,1.6; stroke-dashoffset: 0; stroke: #e8e5e1"/>
   </g>
   <g id="LineCollection_6">
    <path d="M 115.61569 267.084504 
L 602.12216 267.084504 
" clip-path="url(#p44ccca0b0e)" style="fill: none; stroke-dasharray: 3.7,1.6; stroke-dashoffset: 0; stroke: #e8e5e1"/>
   </g>
   <g id="LineCollection_7">
    <path d="M 115.61569 162.678621 
L 602.12216 162.678621 
" clip-path="url(#p44ccca0b0e)" style="fill: none; stroke-dasharray: 3.7,1.6; stroke-dashoffset: 0; stroke: #e8e5e1"/>
   </g>
   <g id="LineCollection_8">
    <path d="M 115.61569 58.272739 
L 602.12216 58.272739 
" clip-path="url(#p44ccca0b0e)" style="fill: none; stroke-dasharray: 3.7,1.6; stroke-dashoffset: 0; stroke: #e8e5e1"/>
   </g>
   <g id="matplotlib.axis_1">
    <g id="xtick_1">
     <g id="line2d_1">
      <path d="M 115.61569 392.371562 
L 115.61569 37.391562 
" clip-path="url(#p44ccca0b0e)" style="fill: none; stroke: #e8e5e1; stroke-linecap: round"/>
     </g>
     <g id="text_1">
      <!-- Resolution -->
      <g style="fill: #4a4a5a" transform="translate(87.266627 410.460937) scale(0.12 -0.12)">
       <defs>
        <path id="ArialMT-52" d="M 503 0 
L 503 4581 
L 2534 4581 
Q 3147 4581 3465 4457 
Q 3784 4334 3975 4021 
Q 4166 3709 4166 3331 
Q 4166 2844 3850 2509 
Q 3534 2175 2875 2084 
Q 3116 1969 3241 1856 
Q 3506 1613 3744 1247 
L 4541 0 
L 3778 0 
L 3172 953 
Q 2906 1366 2734 1584 
Q 2563 1803 2427 1890 
Q 2291 1978 2150 2013 
Q 2047 2034 1813 2034 
L 1109 2034 
L 1109 0 
L 503 0 
z
M 1109 2559 
L 2413 2559 
Q 2828 2559 3062 2645 
Q 3297 2731 3419 2920 
Q 3541 3109 3541 3331 
Q 3541 3656 3305 3865 
Q 3069 4075 2559 4075 
L 1109 4075 
L 1109 2559 
z
" transform="scale(0.015625)"/>
        <path id="ArialMT-65" d="M 2694 1069 
L 3275 997 
Q 3138 488 2766 206 
Q 2394 -75 1816 -75 
Q 1088 -75 661 373 
Q 234 822 234 1631 
Q 234 2469 665 2931 
Q 1097 3394 1784 3394 
Q 2450 3394 2872 2941 
Q 3294 2488 3294 1666 
Q 3294 1616 3291 1516 
L 816 1516 
Q 847 969 1125 678 
Q 1403 388 1819 388 
Q 2128 388 2347 550 
Q 2566 713 2694 1069 
z
M 847 1978 
L 2700 1978 
Q 2663 2397 2488 2606 
Q 2219 2931 1791 2931 
Q 1403 2931 1139 2672 
Q 875 2413 847 1978 
z
" transform="scale(0.015625)"/>
        <path id="ArialMT-73" d="M 197 991 
L 753 1078 
Q 800 744 1014 566 
Q 1228 388 1613 388 
Q 2000 388 2187 545 
Q 2375 703 2375 916 
Q 2375 1106 2209 1216 
Q 2094 1291 1634 1406 
Q 1016 1563 777 1677 
Q 538 1791 414 1992 
Q 291 2194 291 2438 
Q 291 2659 392 2848 
Q 494 3038 669 3163 
Q 800 3259 1026 3326 
Q 1253 3394 1513 3394 
Q 1903 3394 2198 3281 
Q 2494 3169 2634 2976 
Q 2775 2784 2828 2463 
L 2278 2388 
Q 2241 2644 2061 2787 
Q 1881 2931 1553 2931 
Q 1166 2931 1000 2803 
Q 834 2675 834 2503 
Q 834 2394 903 2306 
Q 972 2216 1119 2156 
Q 1203 2125 1616 2013 
Q 2213 1853 2448 1751 
Q 2684 1650 2818 1456 
Q 2953 1263 2953 975 
Q 2953 694 2789 445 
Q 2625 197 2315 61 
Q 2006 -75 1616 -75 
Q 969 -75 630 194 
Q 291 463 197 991 
z
" transform="scale(0.015625)"/>
        <path id="ArialMT-6f" d="M 213 1659 
Q 213 2581 725 3025 
Q 1153 3394 1769 3394 
Q 2453 3394 2887 2945 
Q 3322 2497 3322 1706 
Q 3322 1066 3130 698 
Q 2938 331 2570 128 
Q 2203 -75 1769 -75 
Q 1072 -75 642 372 
Q 213 819 213 1659 
z
M 791 1659 
Q 791 1022 1069 705 
Q 1347 388 1769 388 
Q 2188 388 2466 706 
Q 2744 1025 2744 1678 
Q 2744 2294 2464 2611 
Q 2184 2928 1769 2928 
Q 1347 2928 1069 2612 
Q 791 2297 791 1659 
z
" transform="scale(0.015625)"/>
        <path id="ArialMT-6c" d="M 409 0 
L 409 4581 
L 972 4581 
L 972 0 
L 409 0 
z
" transform="scale(0.015625)"/>
        <path id="ArialMT-75" d="M 2597 0 
L 2597 488 
Q 2209 -75 1544 -75 
Q 1250 -75 995 37 
Q 741 150 617 320 
Q 494 491 444 738 
Q 409 903 409 1263 
L 409 3319 
L 972 3319 
L 972 1478 
Q 972 1038 1006 884 
Q 1059 663 1231 536 
Q 1403 409 1656 409 
Q 1909 409 2131 539 
Q 2353 669 2445 892 
Q 2538 1116 2538 1541 
L 2538 3319 
L 3100 3319 
L 3100 0 
L 2597 0 
z
" transform="scale(0.015625)"/>
        <path id="ArialMT-74" d="M 1650 503 
L 1731 6 
Q 1494 -44 1306 -44 
Q 1000 -44 831 53 
Q 663 150 594 308 
Q 525 466 525 972 
L 525 2881 
L 113 2881 
L 113 3319 
L 525 3319 
L 525 4141 
L 1084 4478 
L 1084 3319 
L 1650 3319 
L 1650 2881 
L 1084 2881 
L 1084 941 
Q 1084 700 1114 631 
Q 1144 563 1211 522 
Q 1278 481 1403 481 
Q 1497 481 1650 503 
z
" transform="scale(0.015625)"/>
        <path id="ArialMT-69" d="M 425 3934 
L 425 4581 
L 988 4581 
L 988 3934 
L 425 3934 
z
M 425 0 
L 425 3319 
L 988 3319 
L 988 0 
L 425 0 
z
" transform="scale(0.015625)"/>
        <path id="ArialMT-6e" d="M 422 0 
L 422 3319 
L 928 3319 
L 928 2847 
Q 1294 3394 1984 3394 
Q 2284 3394 2536 3286 
Q 2788 3178 2913 3003 
Q 3038 2828 3088 2588 
Q 3119 2431 3119 2041 
L 3119 0 
L 2556 0 
L 2556 2019 
Q 2556 2363 2490 2533 
Q 2425 2703 2258 2804 
Q 2091 2906 1866 2906 
Q 1506 2906 1245 2678 
Q 984 2450 984 1813 
L 984 0 
L 422 0 
z
" transform="scale(0.015625)"/>
       </defs>
       <use xlink:href="#ArialMT-52"/>
       <use xlink:href="#ArialMT-65" x="72.216797"/>
       <use xlink:href="#ArialMT-73" x="127.832031"/>
       <use xlink:href="#ArialMT-6f" x="177.832031"/>
       <use xlink:href="#ArialMT-6c" x="233.447266"/>
       <use xlink:href="#ArialMT-75" x="255.664062"/>
       <use xlink:href="#ArialMT-74" x="311.279297"/>
       <use xlink:href="#ArialMT-69" x="339.0625"/>
       <use xlink:href="#ArialMT-6f" x="361.279297"/>
       <use xlink:href="#ArialMT-6e" x="416.894531"/>
      </g>
     </g>
    </g>
    <g id="xtick_2">
     <g id="line2d_2">
      <path d="M 277.784513 392.371562 
L 277.784513 37.391562 
" clip-path="url(#p44ccca0b0e)" style="fill: none; stroke: #e8e5e1; stroke-linecap: round"/>
     </g>
     <g id="text_2">
      <!-- Speed -->
      <g style="fill: #4a4a5a" transform="translate(260.436076 410.607187) scale(0.12 -0.12)">
       <defs>
        <path id="ArialMT-53" d="M 288 1472 
L 859 1522 
Q 900 1178 1048 958 
Q 1197 738 1509 602 
Q 1822 466 2213 466 
Q 2559 466 2825 569 
Q 3091 672 3220 851 
Q 3350 1031 3350 1244 
Q 3350 1459 3225 1620 
Q 3100 1781 2813 1891 
Q 2628 1963 1997 2114 
Q 1366 2266 1113 2400 
Q 784 2572 623 2826 
Q 463 3081 463 3397 
Q 463 3744 659 4045 
Q 856 4347 1234 4503 
Q 1613 4659 2075 4659 
Q 2584 4659 2973 4495 
Q 3363 4331 3572 4012 
Q 3781 3694 3797 3291 
L 3216 3247 
Q 3169 3681 2898 3903 
Q 2628 4125 2100 4125 
Q 1550 4125 1298 3923 
Q 1047 3722 1047 3438 
Q 1047 3191 1225 3031 
Q 1400 2872 2139 2705 
Q 2878 2538 3153 2413 
Q 3553 2228 3743 1945 
Q 3934 1663 3934 1294 
Q 3934 928 3725 604 
Q 3516 281 3123 101 
Q 2731 -78 2241 -78 
Q 1619 -78 1198 103 
Q 778 284 539 648 
Q 300 1013 288 1472 
z
" transform="scale(0.015625)"/>
        <path id="ArialMT-70" d="M 422 -1272 
L 422 3319 
L 934 3319 
L 934 2888 
Q 1116 3141 1344 3267 
Q 1572 3394 1897 3394 
Q 2322 3394 2647 3175 
Q 2972 2956 3137 2557 
Q 3303 2159 3303 1684 
Q 3303 1175 3120 767 
Q 2938 359 2589 142 
Q 2241 -75 1856 -75 
Q 1575 -75 1351 44 
Q 1128 163 984 344 
L 984 -1272 
L 422 -1272 
z
M 931 1641 
Q 931 1000 1190 694 
Q 1450 388 1819 388 
Q 2194 388 2461 705 
Q 2728 1022 2728 1688 
Q 2728 2322 2467 2637 
Q 2206 2953 1844 2953 
Q 1484 2953 1207 2617 
Q 931 2281 931 1641 
z
" transform="scale(0.015625)"/>
        <path id="ArialMT-64" d="M 2575 0 
L 2575 419 
Q 2259 -75 1647 -75 
Q 1250 -75 917 144 
Q 584 363 401 755 
Q 219 1147 219 1656 
Q 219 2153 384 2558 
Q 550 2963 881 3178 
Q 1213 3394 1622 3394 
Q 1922 3394 2156 3267 
Q 2391 3141 2538 2938 
L 2538 4581 
L 3097 4581 
L 3097 0 
L 2575 0 
z
M 797 1656 
Q 797 1019 1065 703 
Q 1334 388 1700 388 
Q 2069 388 2326 689 
Q 2584 991 2584 1609 
Q 2584 2291 2321 2609 
Q 2059 2928 1675 2928 
Q 1300 2928 1048 2622 
Q 797 2316 797 1656 
z
" transform="scale(0.015625)"/>
       </defs>
       <use xlink:href="#ArialMT-53"/>
       <use xlink:href="#ArialMT-70" x="66.699219"/>
       <use xlink:href="#ArialMT-65" x="122.314453"/>
       <use xlink:href="#ArialMT-65" x="177.929688"/>
       <use xlink:href="#ArialMT-64" x="233.544922"/>
      </g>
     </g>
    </g>
    <g id="xtick_3">
     <g id="line2d_3">
      <path d="M 439.953337 392.371562 
L 439.953337 37.391562 
" clip-path="url(#p44ccca0b0e)" style="fill: none; stroke: #e8e5e1; stroke-linecap: round"/>
     </g>
     <g id="text_3">
      <!-- Duration -->
      <g style="fill: #4a4a5a" transform="translate(417.276149 410.460937) scale(0.12 -0.12)">
       <defs>
        <path id="ArialMT-44" d="M 494 0 
L 494 4581 
L 2072 4581 
Q 2606 4581 2888 4516 
Q 3281 4425 3559 4188 
Q 3922 3881 4101 3404 
Q 4281 2928 4281 2316 
Q 4281 1794 4159 1391 
Q 4038 988 3847 723 
Q 3656 459 3429 307 
Q 3203 156 2883 78 
Q 2563 0 2147 0 
L 494 0 
z
M 1100 541 
L 2078 541 
Q 2531 541 2789 625 
Q 3047 709 3200 863 
Q 3416 1078 3536 1442 
Q 3656 1806 3656 2325 
Q 3656 3044 3420 3430 
Q 3184 3816 2847 3947 
Q 2603 4041 2063 4041 
L 1100 4041 
L 1100 541 
z
" transform="scale(0.015625)"/>
        <path id="ArialMT-72" d="M 416 0 
L 416 3319 
L 922 3319 
L 922 2816 
Q 1116 3169 1280 3281 
Q 1444 3394 1641 3394 
Q 1925 3394 2219 3213 
L 2025 2691 
Q 1819 2813 1613 2813 
Q 1428 2813 1281 2702 
Q 1134 2591 1072 2394 
Q 978 2094 978 1738 
L 978 0 
L 416 0 
z
" transform="scale(0.015625)"/>
        <path id="ArialMT-61" d="M 2588 409 
Q 2275 144 1986 34 
Q 1697 -75 1366 -75 
Q 819 -75 525 192 
Q 231 459 231 875 
Q 231 1119 342 1320 
Q 453 1522 633 1644 
Q 813 1766 1038 1828 
Q 1203 1872 1538 1913 
Q 2219 1994 2541 2106 
Q 2544 2222 2544 2253 
Q 2544 2597 2384 2738 
Q 2169 2928 1744 2928 
Q 1347 2928 1158 2789 
Q 969 2650 878 2297 
L 328 2372 
Q 403 2725 575 2942 
Q 747 3159 1072 3276 
Q 1397 3394 1825 3394 
Q 2250 3394 2515 3294 
Q 2781 3194 2906 3042 
Q 3031 2891 3081 2659 
Q 3109 2516 3109 2141 
L 3109 1391 
Q 3109 606 3145 398 
Q 3181 191 3288 0 
L 2700 0 
Q 2613 175 2588 409 
z
M 2541 1666 
Q 2234 1541 1622 1453 
Q 1275 1403 1131 1340 
Q 988 1278 909 1158 
Q 831 1038 831 891 
Q 831 666 1001 516 
Q 1172 366 1500 366 
Q 1825 366 2078 508 
Q 2331 650 2450 897 
Q 2541 1088 2541 1459 
L 2541 1666 
z
" transform="scale(0.015625)"/>
       </defs>
       <use xlink:href="#ArialMT-44"/>
       <use xlink:href="#ArialMT-75" x="72.216797"/>
       <use xlink:href="#ArialMT-72" x="127.832031"/>
       <use xlink:href="#ArialMT-61" x="161.132812"/>
       <use xlink:href="#ArialMT-74" x="216.748047"/>
       <use xlink:href="#ArialMT-69" x="244.53125"/>
       <use xlink:href="#ArialMT-6f" x="266.748047"/>
       <use xlink:href="#ArialMT-6e" x="322.363281"/>
      </g>
     </g>
    </g>
    <g id="xtick_4">
     <g id="line2d_4">
      <path d="M 602.12216 392.371562 
L 602.12216 37.391562 
" clip-path="url(#p44ccca0b0e)" style="fill: none; stroke: #e8e5e1; stroke-linecap: round"/>
     </g>
     <g id="text_4">
      <!-- Volume -->
      <g style="fill: #4a4a5a" transform="translate(582.109348 410.460937) scale(0.12 -0.12)">
       <defs>
        <path id="ArialMT-56" d="M 1803 0 
L 28 4581 
L 684 4581 
L 1875 1253 
Q 2019 853 2116 503 
Q 2222 878 2363 1253 
L 3600 4581 
L 4219 4581 
L 2425 0 
L 1803 0 
z
" transform="scale(0.015625)"/>
        <path id="ArialMT-6d" d="M 422 0 
L 422 3319 
L 925 3319 
L 925 2853 
Q 1081 3097 1340 3245 
Q 1600 3394 1931 3394 
Q 2300 3394 2536 3241 
Q 2772 3088 2869 2813 
Q 3263 3394 3894 3394 
Q 4388 3394 4653 3120 
Q 4919 2847 4919 2278 
L 4919 0 
L 4359 0 
L 4359 2091 
Q 4359 2428 4304 2576 
Q 4250 2725 4106 2815 
Q 3963 2906 3769 2906 
Q 3419 2906 3187 2673 
Q 2956 2441 2956 1928 
L 2956 0 
L 2394 0 
L 2394 2156 
Q 2394 2531 2256 2718 
Q 2119 2906 1806 2906 
Q 1569 2906 1367 2781 
Q 1166 2656 1075 2415 
Q 984 2175 984 1722 
L 984 0 
L 422 0 
z
" transform="scale(0.015625)"/>
       </defs>
       <use xlink:href="#ArialMT-56"/>
       <use xlink:href="#ArialMT-6f" x="61.199219"/>
       <use xlink:href="#ArialMT-6c" x="116.814453"/>
       <use xlink:href="#ArialMT-75" x="139.03125"/>
       <use xlink:href="#ArialMT-6d" x="194.646484"/>
       <use xlink:href="#ArialMT-65" x="277.947266"/>
      </g>
     </g>
    </g>
   </g>
   <g id="matplotlib.axis_2"/>
   <g id="line2d_5">
    <path d="M 115.61569 162.678621 
L 277.784513 162.678621 
L 439.953337 58.272739 
L 602.12216 162.678621 
" clip-path="url(#p44ccca0b0e)" style="fill: none; stroke: #d4a84b; stroke-width: 2.5; stroke-linecap: round"/>
    <defs>
     <path id="m75c00c10de" d="M 0 3 
C 0.795609 3 1.55874 2.683901 2.12132 2.12132 
C 2.683901 1.55874 3 0.795609 3 0 
C 3 -0.795609 2.683901 -1.55874 2.12132 -2.12132 
C 1.55874 -2.683901 0.795609 -3 0 -3 
C -0.795609 -3 -1.55874 -2.683901 -2.12132 -2.12132 
C -2.683901 -1.55874 -3 -0.795609 -3 0 
C -3 0.795609 -2.683901 1.55874 -2.12132 2.12132 
C -1.55874 2.683901 -0.795609 3 0 3 
z
" style="stroke: #ffffff; stroke-width: 1.5"/>
    </defs>
    <g clip-path="url(#p44ccca0b0e)">
     <use xlink:href="#m75c00c10de" x="115.61569" y="162.678621" style="fill: #d4a84b; stroke: #ffffff; stroke-width: 1.5"/>
     <use xlink:href="#m75c00c10de" x="277.784513" y="162.678621" style="fill: #d4a84b; stroke: #ffffff; stroke-width: 1.5"/>
     <use xlink:href="#m75c00c10de" x="439.953337" y="58.272739" style="fill: #d4a84b; stroke: #ffffff; stroke-width: 1.5"/>
     <use xlink:href="#m75c00c10de" x="602.12216" y="162.678621" style="fill: #d4a84b; stroke: #ffffff; stroke-width: 1.5"/>
    </g>
   </g>
   <g id="line2d_6">
    <path d="M 115.61569 58.272739 
L 277.784513 267.084504 
L 439.953337 267.084504 
L 602.12216 267.084504 
" clip-path="url(#p44ccca0b0e)" style="fill: none; stroke: #4a90a4; stroke-width: 2.5; stroke-linecap: round"/>
    <defs>
     <path id="ma109d42a9c" d="M 0 3 
C 0.795609 3 1.55874 2.683901 2.12132 2.12132 
C 2.683901 1.55874 3 0.795609 3 0 
C 3 -0.795609 2.683901 -1.55874 2.12132 -2.12132 
C 1.55874 -2.683901 0.795609 -3 0 -3 
C -0.795609 -3 -1.55874 -2.683901 -2.12132 -2.12132 
C -2.683901 -1.55874 -3 -0.795609 -3 0 
C -3 0.795609 -2.683901 1.55874 -2.12132 2.12132 
C -1.55874 2.683901 -0.795609 3 0 3 
z
" style="stroke: #ffffff; stroke-width: 1.5"/>
    </defs>
    <g clip-path="url(#p44ccca0b0e)">
     <use xlink:href="#ma109d42a9c" x="115.61569" y="58.272739" style="fill: #4a90a4; stroke: #ffffff; stroke-width: 1.5"/>
     <use xlink:href="#ma109d42a9c" x="277.784513" y="267.084504" style="fill: #4a90a4; stroke: #ffffff; stroke-width: 1.5"/>
     <use xlink:href="#ma109d42a9c" x="439.953337" y="267.084504" style="fill: #4a90a4; stroke: #ffffff; stroke-width: 1.5"/>
     <use xlink:href="#ma109d42a9c" x="602.12216" y="267.084504" style="fill: #4a90a4; stroke: #ffffff; stroke-width: 1.5"/>
    </g>
   </g>
   <g id="line2d_7">
    <path d="M 115.61569 58.272739 
L 277.784513 136.577151 
L 439.953337 319.287445 
L 602.12216 293.185974 
" clip-path="url(#p44ccca0b0e)" style="fill: none; stroke: #6b6080; stroke-width: 2.5; stroke-linecap: round"/>
    <defs>
     <path id="m6939ce1dc5" d="M 0 3 
C 0.795609 3 1.55874 2.683901 2.12132 2.12132 
C 2.683901 1.55874 3 0.795609 3 0 
C 3 -0.795609 2.683901 -1.55874 2.12132 -2.12132 
C 1.55874 -2.683901 0.795609 -3 0 -3 
C -0.795609 -3 -1.55874 -2.683901 -2.12132 -2.12132 
C -2.683901 -1.55874 -3 -0.795609 -3 0 
C -3 0.795609 -2.683901 1.55874 -2.12132 2.12132 
C -1.55874 2.683901 -0.795609 3 0 3 
z
" style="stroke: #ffffff; stroke-width: 1.5"/>
    </defs>
    <g clip-path="url(#p44ccca0b0e)">
     <use xlink:href="#m6939ce1dc5" x="115.61569" y="58.272739" style="fill: #6b6080; stroke: #ffffff; stroke-width: 1.5"/>
     <use xlink:href="#m6939ce1dc5" x="277.784513" y="136.577151" style="fill: #6b6080; stroke: #ffffff; stroke-width: 1.5"/>
     <use xlink:href="#m6939ce1dc5" x="439.953337" y="319.287445" style="fill: #6b6080; stroke: #ffffff; stroke-width: 1.5"/>
     <use xlink:href="#m6939ce1dc5" x="602.12216" y="293.185974" style="fill: #6b6080; stroke: #ffffff; stroke-width: 1.5"/>
    </g>
   </g>
   <g id="line2d_8">
    <path d="M 115.61569 58.272739 
L 277.784513 58.272739 
L 439.953337 58.272739 
L 602.12216 319.287445 
" clip-path="url(#p44ccca0b0e)" style="fill: none; stroke: #8b7355; stroke-width: 2.5; stroke-linecap: round"/>
    <defs>
     <path id="m9a6e5178d4" d="M 0 3 
C 0.795609 3 1.55874 2.683901 2.12132 2.12132 
C 2.683901 1.55874 3 0.795609 3 0 
C 3 -0.795609 2.683901 -1.55874 2.12132 -2.12132 
C 1.55874 -2.683901 0.795609 -3 0 -3 
C -0.795609 -3 -1.55874 -2.683901 -2.12132 -2.12132 
C -2.683901 -1.55874 -3 -0.795609 -3 0 
C -3 0.795609 -2.683901 1.55874 -2.12132 2.12132 
C -1.55874 2.683901 -0.795609 3 0 3 
z
" style="stroke: #ffffff; stroke-width: 1.5"/>
    </defs>
    <g clip-path="url(#p44ccca0b0e)">
     <use xlink:href="#m9a6e5178d4" x="115.61569" y="58.272739" style="fill: #8b7355; stroke: #ffffff; stroke-width: 1.5"/>
     <use xlink:href="#m9a6e5178d4" x="277.784513" y="58.272739" style="fill: #8b7355; stroke: #ffffff; stroke-width: 1.5"/>
     <use xlink:href="#m9a6e5178d4" x="439.953337" y="58.272739" style="fill: #8b7355; stroke: #ffffff; stroke-width: 1.5"/>
     <use xlink:href="#m9a6e5178d4" x="602.12216" y="319.287445" style="fill: #8b7355; stroke: #ffffff; stroke-width: 1.5"/>
    </g>
   </g>
   <g id="line2d_9">
    <path d="M 115.61569 371.490386 
L 277.784513 58.272739 
L 439.953337 162.678621 
L 602.12216 110.47568 
" clip-path="url(#p44ccca0b0e)" style="fill: none; stroke-dasharray: 9.25,4; stroke-dashoffset: 0; stroke: #5c8b6b; stroke-width: 2.5"/>
    <defs>
     <path id="m6d8bde9ef6" d="M 0 3 
C 0.795609 3 1.55874 2.683901 2.12132 2.12132 
C 2.683901 1.55874 3 0.795609 3 0 
C 3 -0.795609 2.683901 -1.55874 2.12132 -2.12132 
C 1.55874 -2.683901 0.795609 -3 0 -3 
C -0.795609 -3 -1.55874 -2.683901 -2.12132 -2.12132 
C -2.683901 -1.55874 -3 -0.795609 -3 0 
C -3 0.795609 -2.683901 1.55874 -2.12132 2.12132 
C -1.55874 2.683901 -0.795609 3 0 3 
z
" style="stroke: #ffffff; stroke-width: 1.5"/>
    </defs>
    <g clip-path="url(#p44ccca0b0e)">
     <use xlink:href="#m6d8bde9ef6" x="115.61569" y="371.490386" style="fill: #5c8b6b; stroke: #ffffff; stroke-width: 1.5"/>
     <use xlink:href="#m6d8bde9ef6" x="277.784513" y="58.272739" style="fill: #5c8b6b; stroke: #ffffff; stroke-width: 1.5"/>
     <use xlink:href="#m6d8bde9ef6" x="439.953337" y="162.678621" style="fill: #5c8b6b; stroke: #ffffff; stroke-width: 1.5"/>
     <use xlink:href="#m6d8bde9ef6" x="602.12216" y="110.47568" style="fill: #5c8b6b; stroke: #ffffff; stroke-width: 1.5"/>
    </g>
   </g>
   <g id="line2d_10">
    <path d="M 115.61569 267.084504 
L 277.784513 371.490386 
L 439.953337 162.678621 
L 602.12216 58.272739 
" clip-path="url(#p44ccca0b0e)" style="fill: none; stroke-dasharray: 9.25,4; stroke-dashoffset: 0; stroke: #6b6080; stroke-width: 2.5"/>
    <defs>
     <path id="m075df6968b" d="M -3 3 
L 3 3 
L 3 -3 
L -3 -3 
z
" style="stroke: #ffffff; stroke-width: 1.5; stroke-linejoin: miter"/>
    </defs>
    <g clip-path="url(#p44ccca0b0e)">
     <use xlink:href="#m075df6968b" x="115.61569" y="267.084504" style="fill: #6b6080; stroke: #ffffff; stroke-width: 1.5; stroke-linejoin: miter"/>
     <use xlink:href="#m075df6968b" x="277.784513" y="371.490386" style="fill: #6b6080; stroke: #ffffff; stroke-width: 1.5; stroke-linejoin: miter"/>
     <use xlink:href="#m075df6968b" x="439.953337" y="162.678621" style="fill: #6b6080; stroke: #ffffff; stroke-width: 1.5; stroke-linejoin: miter"/>
     <use xlink:href="#m075df6968b" x="602.12216" y="58.272739" style="fill: #6b6080; stroke: #ffffff; stroke-width: 1.5; stroke-linejoin: miter"/>
    </g>
   </g>
   <g id="text_5">
    <!-- Millions of cells -->
    <g style="fill: #4a4a5a" transform="translate(50.235469 373.817027) scale(0.09 -0.09)">
     <defs>
      <path id="ArialMT-4d" d="M 475 0 
L 475 4581 
L 1388 4581 
L 2472 1338 
Q 2622 884 2691 659 
Q 2769 909 2934 1394 
L 4031 4581 
L 4847 4581 
L 4847 0 
L 4263 0 
L 4263 3834 
L 2931 0 
L 2384 0 
L 1059 3900 
L 1059 0 
L 475 0 
z
" transform="scale(0.015625)"/>
      <path id="ArialMT-20" transform="scale(0.015625)"/>
      <path id="ArialMT-66" d="M 556 0 
L 556 2881 
L 59 2881 
L 59 3319 
L 556 3319 
L 556 3672 
Q 556 4006 616 4169 
Q 697 4388 901 4523 
Q 1106 4659 1475 4659 
Q 1713 4659 2000 4603 
L 1916 4113 
Q 1741 4144 1584 4144 
Q 1328 4144 1222 4034 
Q 1116 3925 1116 3625 
L 1116 3319 
L 1763 3319 
L 1763 2881 
L 1116 2881 
L 1116 0 
L 556 0 
z
" transform="scale(0.015625)"/>
      <path id="ArialMT-63" d="M 2588 1216 
L 3141 1144 
Q 3050 572 2676 248 
Q 2303 -75 1759 -75 
Q 1078 -75 664 370 
Q 250 816 250 1647 
Q 250 2184 428 2587 
Q 606 2991 970 3192 
Q 1334 3394 1763 3394 
Q 2303 3394 2647 3120 
Q 2991 2847 3088 2344 
L 2541 2259 
Q 2463 2594 2264 2762 
Q 2066 2931 1784 2931 
Q 1359 2931 1093 2626 
Q 828 2322 828 1663 
Q 828 994 1084 691 
Q 1341 388 1753 388 
Q 2084 388 2306 591 
Q 2528 794 2588 1216 
z
" transform="scale(0.015625)"/>
     </defs>
     <use xlink:href="#ArialMT-4d"/>
     <use xlink:href="#ArialMT-69" x="83.300781"/>
     <use xlink:href="#ArialMT-6c" x="105.517578"/>
     <use xlink:href="#ArialMT-6c" x="127.734375"/>
     <use xlink:href="#ArialMT-69" x="149.951172"/>
     <use xlink:href="#ArialMT-6f" x="172.167969"/>
     <use xlink:href="#ArialMT-6e" x="227.783203"/>
     <use xlink:href="#ArialMT-73" x="283.398438"/>
     <use xlink:href="#ArialMT-20" x="333.398438"/>
     <use xlink:href="#ArialMT-6f" x="361.181641"/>
     <use xlink:href="#ArialMT-66" x="416.796875"/>
     <use xlink:href="#ArialMT-20" x="444.580078"/>
     <use xlink:href="#ArialMT-63" x="472.363281"/>
     <use xlink:href="#ArialMT-65" x="522.363281"/>
     <use xlink:href="#ArialMT-6c" x="577.978516"/>
     <use xlink:href="#ArialMT-6c" x="600.195312"/>
     <use xlink:href="#ArialMT-73" x="622.412109"/>
    </g>
   </g>
   <g id="text_6">
    <!-- Tens of thousands of cells -->
    <g style="fill: #4a4a5a" transform="translate(7.2 269.411144) scale(0.09 -0.09)">
     <defs>
      <path id="ArialMT-54" d="M 1659 0 
L 1659 4041 
L 150 4041 
L 150 4581 
L 3781 4581 
L 3781 4041 
L 2266 4041 
L 2266 0 
L 1659 0 
z
" transform="scale(0.015625)"/>
      <path id="ArialMT-68" d="M 422 0 
L 422 4581 
L 984 4581 
L 984 2938 
Q 1378 3394 1978 3394 
Q 2347 3394 2619 3248 
Q 2891 3103 3008 2847 
Q 3125 2591 3125 2103 
L 3125 0 
L 2563 0 
L 2563 2103 
Q 2563 2525 2380 2717 
Q 2197 2909 1863 2909 
Q 1613 2909 1392 2779 
Q 1172 2650 1078 2428 
Q 984 2206 984 1816 
L 984 0 
L 422 0 
z
" transform="scale(0.015625)"/>
     </defs>
     <use xlink:href="#ArialMT-54"/>
     <use xlink:href="#ArialMT-65" x="49.958984"/>
     <use xlink:href="#ArialMT-6e" x="105.574219"/>
     <use xlink:href="#ArialMT-73" x="161.189453"/>
     <use xlink:href="#ArialMT-20" x="211.189453"/>
     <use xlink:href="#ArialMT-6f" x="238.972656"/>
     <use xlink:href="#ArialMT-66" x="294.587891"/>
     <use xlink:href="#ArialMT-20" x="322.371094"/>
     <use xlink:href="#ArialMT-74" x="350.154297"/>
     <use xlink:href="#ArialMT-68" x="377.9375"/>
     <use xlink:href="#ArialMT-6f" x="433.552734"/>
     <use xlink:href="#ArialMT-75" x="489.167969"/>
     <use xlink:href="#ArialMT-73" x="544.783203"/>
     <use xlink:href="#ArialMT-61" x="594.783203"/>
     <use xlink:href="#ArialMT-6e" x="650.398438"/>
     <use xlink:href="#ArialMT-64" x="706.013672"/>
     <use xlink:href="#ArialMT-73" x="761.628906"/>
     <use xlink:href="#ArialMT-20" x="811.628906"/>
     <use xlink:href="#ArialMT-6f" x="839.412109"/>
     <use xlink:href="#ArialMT-66" x="895.027344"/>
     <use xlink:href="#ArialMT-20" x="922.810547"/>
     <use xlink:href="#ArialMT-63" x="950.59375"/>
     <use xlink:href="#ArialMT-65" x="1000.59375"/>
     <use xlink:href="#ArialMT-6c" x="1056.208984"/>
     <use xlink:href="#ArialMT-6c" x="1078.425781"/>
     <use xlink:href="#ArialMT-73" x="1100.642578"/>
    </g>
   </g>
   <g id="text_7">
    <!-- Thousands of cells -->
    <g style="fill: #4a4a5a" transform="translate(35.714531 165.005262) scale(0.09 -0.09)">
     <use xlink:href="#ArialMT-54"/>
     <use xlink:href="#ArialMT-68" x="61.083984"/>
     <use xlink:href="#ArialMT-6f" x="116.699219"/>
     <use xlink:href="#ArialMT-75" x="172.314453"/>
     <use xlink:href="#ArialMT-73" x="227.929688"/>
     <use xlink:href="#ArialMT-61" x="277.929688"/>
     <use xlink:href="#ArialMT-6e" x="333.544922"/>
     <use xlink:href="#ArialMT-64" x="389.160156"/>
     <use xlink:href="#ArialMT-73" x="444.775391"/>
     <use xlink:href="#ArialMT-20" x="494.775391"/>
     <use xlink:href="#ArialMT-6f" x="522.558594"/>
     <use xlink:href="#ArialMT-66" x="578.173828"/>
     <use xlink:href="#ArialMT-20" x="605.957031"/>
     <use xlink:href="#ArialMT-63" x="633.740234"/>
     <use xlink:href="#ArialMT-65" x="683.740234"/>
     <use xlink:href="#ArialMT-6c" x="739.355469"/>
     <use xlink:href="#ArialMT-6c" x="761.572266"/>
     <use xlink:href="#ArialMT-73" x="783.789062"/>
    </g>
   </g>
   <g id="text_8">
    <!-- Single cell -->
    <g style="fill: #4a4a5a" transform="translate(69.728906 60.601489) scale(0.09 -0.09)">
     <defs>
      <path id="ArialMT-67" d="M 319 -275 
L 866 -356 
Q 900 -609 1056 -725 
Q 1266 -881 1628 -881 
Q 2019 -881 2231 -725 
Q 2444 -569 2519 -288 
Q 2563 -116 2559 434 
Q 2191 0 1641 0 
Q 956 0 581 494 
Q 206 988 206 1678 
Q 206 2153 378 2554 
Q 550 2956 876 3175 
Q 1203 3394 1644 3394 
Q 2231 3394 2613 2919 
L 2613 3319 
L 3131 3319 
L 3131 450 
Q 3131 -325 2973 -648 
Q 2816 -972 2473 -1159 
Q 2131 -1347 1631 -1347 
Q 1038 -1347 672 -1080 
Q 306 -813 319 -275 
z
M 784 1719 
Q 784 1066 1043 766 
Q 1303 466 1694 466 
Q 2081 466 2343 764 
Q 2606 1063 2606 1700 
Q 2606 2309 2336 2618 
Q 2066 2928 1684 2928 
Q 1309 2928 1046 2623 
Q 784 2319 784 1719 
z
" transform="scale(0.015625)"/>
     </defs>
     <use xlink:href="#ArialMT-53"/>
     <use xlink:href="#ArialMT-69" x="66.699219"/>
     <use xlink:href="#ArialMT-6e" x="88.916016"/>
     <use xlink:href="#ArialMT-67" x="144.53125"/>
     <use xlink:href="#ArialMT-6c" x="200.146484"/>
     <use xlink:href="#ArialMT-65" x="222.363281"/>
     <use xlink:href="#ArialMT-20" x="277.978516"/>
     <use xlink:href="#ArialMT-63" x="305.761719"/>
     <use xlink:href="#ArialMT-65" x="355.761719"/>
     <use xlink:href="#ArialMT-6c" x="411.376953"/>
     <use xlink:href="#ArialMT-6c" x="433.59375"/>
    </g>
   </g>
   <g id="text_9">
    <!-- 1 Hz -->
    <g style="fill: #4a4a5a" transform="translate(254.414605 373.817027) scale(0.09 -0.09)">
     <defs>
      <path id="ArialMT-31" d="M 2384 0 
L 1822 0 
L 1822 3584 
Q 1619 3391 1289 3197 
Q 959 3003 697 2906 
L 697 3450 
Q 1169 3672 1522 3987 
Q 1875 4303 2022 4600 
L 2384 4600 
L 2384 0 
z
" transform="scale(0.015625)"/>
      <path id="ArialMT-48" d="M 513 0 
L 513 4581 
L 1119 4581 
L 1119 2700 
L 3500 2700 
L 3500 4581 
L 4106 4581 
L 4106 0 
L 3500 0 
L 3500 2159 
L 1119 2159 
L 1119 0 
L 513 0 
z
" transform="scale(0.015625)"/>
      <path id="ArialMT-7a" d="M 125 0 
L 125 456 
L 2238 2881 
Q 1878 2863 1603 2863 
L 250 2863 
L 250 3319 
L 2963 3319 
L 2963 2947 
L 1166 841 
L 819 456 
Q 1197 484 1528 484 
L 3063 484 
L 3063 0 
L 125 0 
z
" transform="scale(0.015625)"/>
     </defs>
     <use xlink:href="#ArialMT-31"/>
     <use xlink:href="#ArialMT-20" x="55.615234"/>
     <use xlink:href="#ArialMT-48" x="83.398438"/>
     <use xlink:href="#ArialMT-7a" x="155.615234"/>
    </g>
   </g>
   <g id="text_10">
    <!-- 10 Hz -->
    <g style="fill: #4a4a5a" transform="translate(249.409761 269.411144) scale(0.09 -0.09)">
     <defs>
      <path id="ArialMT-30" d="M 266 2259 
Q 266 3072 433 3567 
Q 600 4063 929 4331 
Q 1259 4600 1759 4600 
Q 2128 4600 2406 4451 
Q 2684 4303 2865 4023 
Q 3047 3744 3150 3342 
Q 3253 2941 3253 2259 
Q 3253 1453 3087 958 
Q 2922 463 2592 192 
Q 2263 -78 1759 -78 
Q 1097 -78 719 397 
Q 266 969 266 2259 
z
M 844 2259 
Q 844 1131 1108 757 
Q 1372 384 1759 384 
Q 2147 384 2411 759 
Q 2675 1134 2675 2259 
Q 2675 3391 2411 3762 
Q 2147 4134 1753 4134 
Q 1366 4134 1134 3806 
Q 844 3388 844 2259 
z
" transform="scale(0.015625)"/>
     </defs>
     <use xlink:href="#ArialMT-31"/>
     <use xlink:href="#ArialMT-30" x="55.615234"/>
     <use xlink:href="#ArialMT-20" x="111.230469"/>
     <use xlink:href="#ArialMT-48" x="139.013672"/>
     <use xlink:href="#ArialMT-7a" x="211.230469"/>
    </g>
   </g>
   <g id="text_11">
    <!-- 100 Hz -->
    <g style="fill: #4a4a5a" transform="translate(244.404917 165.005262) scale(0.09 -0.09)">
     <use xlink:href="#ArialMT-31"/>
     <use xlink:href="#ArialMT-30" x="55.615234"/>
     <use xlink:href="#ArialMT-30" x="111.230469"/>
     <use xlink:href="#ArialMT-20" x="166.845703"/>
     <use xlink:href="#ArialMT-48" x="194.628906"/>
     <use xlink:href="#ArialMT-7a" x="266.845703"/>
    </g>
   </g>
   <g id="text_12">
    <!-- 1000 Hz -->
    <g style="fill: #4a4a5a" transform="translate(239.400074 60.59938) scale(0.09 -0.09)">
     <use xlink:href="#ArialMT-31"/>
     <use xlink:href="#ArialMT-30" x="55.615234"/>
     <use xlink:href="#ArialMT-30" x="111.230469"/>
     <use xlink:href="#ArialMT-30" x="166.845703"/>
     <use xlink:href="#ArialMT-20" x="222.460938"/>
     <use xlink:href="#ArialMT-48" x="250.244141"/>
     <use xlink:href="#ArialMT-7a" x="322.460938"/>
    </g>
   </g>
   <g id="text_13">
    <!-- Seconds -->
    <g style="fill: #4a4a5a" transform="translate(400.065616 373.817027) scale(0.09 -0.09)">
     <use xlink:href="#ArialMT-53"/>
     <use xlink:href="#ArialMT-65" x="66.699219"/>
     <use xlink:href="#ArialMT-63" x="122.314453"/>
     <use xlink:href="#ArialMT-6f" x="172.314453"/>
     <use xlink:href="#ArialMT-6e" x="227.929688"/>
     <use xlink:href="#ArialMT-64" x="283.544922"/>
     <use xlink:href="#ArialMT-73" x="339.160156"/>
    </g>
   </g>
   <g id="text_14">
    <!-- Minutes -->
    <g style="fill: #4a4a5a" transform="translate(403.577022 269.411144) scale(0.09 -0.09)">
     <use xlink:href="#ArialMT-4d"/>
     <use xlink:href="#ArialMT-69" x="83.300781"/>
     <use xlink:href="#ArialMT-6e" x="105.517578"/>
     <use xlink:href="#ArialMT-75" x="161.132812"/>
     <use xlink:href="#ArialMT-74" x="216.748047"/>
     <use xlink:href="#ArialMT-65" x="244.53125"/>
     <use xlink:href="#ArialMT-73" x="300.146484"/>
    </g>
   </g>
   <g id="text_15">
    <!-- Hours -->
    <g style="fill: #4a4a5a" transform="translate(411.082178 165.005262) scale(0.09 -0.09)">
     <use xlink:href="#ArialMT-48"/>
     <use xlink:href="#ArialMT-6f" x="72.216797"/>
     <use xlink:href="#ArialMT-75" x="127.832031"/>
     <use xlink:href="#ArialMT-72" x="183.447266"/>
     <use xlink:href="#ArialMT-73" x="216.748047"/>
    </g>
   </g>
   <g id="text_16">
    <!-- Days -->
    <g style="fill: #4a4a5a" transform="translate(414.583741 60.546645) scale(0.09 -0.09)">
     <defs>
      <path id="ArialMT-79" d="M 397 -1278 
L 334 -750 
Q 519 -800 656 -800 
Q 844 -800 956 -737 
Q 1069 -675 1141 -563 
Q 1194 -478 1313 -144 
Q 1328 -97 1363 -6 
L 103 3319 
L 709 3319 
L 1400 1397 
Q 1534 1031 1641 628 
Q 1738 1016 1872 1384 
L 2581 3319 
L 3144 3319 
L 1881 -56 
Q 1678 -603 1566 -809 
Q 1416 -1088 1222 -1217 
Q 1028 -1347 759 -1347 
Q 597 -1347 397 -1278 
z
" transform="scale(0.015625)"/>
     </defs>
     <use xlink:href="#ArialMT-44"/>
     <use xlink:href="#ArialMT-61" x="72.216797"/>
     <use xlink:href="#ArialMT-79" x="127.832031"/>
     <use xlink:href="#ArialMT-73" x="177.832031"/>
    </g>
   </g>
   <g id="text_17">
    <!-- 1 µm³ -->
    <g style="fill: #4a4a5a" transform="translate(606.987225 373.857105) scale(0.09 -0.09)">
     <defs>
      <path id="ArialMT-b5" d="M 3181 3319 
L 3181 0 
L 2678 0 
L 2678 394 
Q 2516 144 2356 50 
Q 2138 -78 1847 -78 
Q 1588 -78 1388 25 
Q 1238 103 1056 334 
L 1056 -1272 
L 500 -1272 
L 500 3319 
L 1056 3319 
L 1056 1913 
Q 1056 1147 1137 920 
Q 1219 694 1401 562 
Q 1584 431 1822 431 
Q 2072 431 2269 568 
Q 2466 706 2547 923 
Q 2628 1141 2628 1903 
L 2628 3319 
L 3181 3319 
z
" transform="scale(0.015625)"/>
      <path id="ArialMT-b3" d="M 103 2903 
L 559 2950 
Q 622 2763 722 2694 
Q 856 2600 1041 2600 
Q 1263 2600 1397 2722 
Q 1531 2844 1531 3016 
Q 1531 3172 1418 3265 
Q 1306 3359 1034 3359 
Q 997 3359 931 3353 
Q 888 3350 863 3350 
L 931 3694 
Q 1184 3691 1301 3784 
Q 1419 3878 1419 4013 
Q 1419 4128 1325 4209 
Q 1231 4291 1047 4291 
Q 872 4291 773 4222 
Q 675 4153 603 3972 
L 156 4044 
Q 284 4375 479 4506 
Q 675 4638 1050 4638 
Q 1500 4638 1704 4470 
Q 1909 4303 1909 4053 
Q 1909 3881 1798 3747 
Q 1688 3613 1478 3553 
Q 1756 3484 1887 3326 
Q 2019 3169 2019 2956 
Q 2019 2666 1772 2450 
Q 1525 2234 1069 2234 
Q 631 2234 400 2407 
Q 169 2581 103 2903 
z
" transform="scale(0.015625)"/>
     </defs>
     <use xlink:href="#ArialMT-31"/>
     <use xlink:href="#ArialMT-20" x="55.615234"/>
     <use xlink:href="#ArialMT-b5" x="83.398438"/>
     <use xlink:href="#ArialMT-6d" x="141.015625"/>
     <use xlink:href="#ArialMT-b3" x="224.316406"/>
    </g>
   </g>
   <g id="text_18">
    <!-- 1 mm³ -->
    <g style="fill: #4a4a5a" transform="translate(606.987225 269.411144) scale(0.09 -0.09)">
     <use xlink:href="#ArialMT-31"/>
     <use xlink:href="#ArialMT-20" x="55.615234"/>
     <use xlink:href="#ArialMT-6d" x="83.398438"/>
     <use xlink:href="#ArialMT-6d" x="166.699219"/>
     <use xlink:href="#ArialMT-b3" x="250"/>
    </g>
   </g>
   <g id="text_19">
    <!-- 1 cm³ -->
    <g style="fill: #4a4a5a" transform="translate(606.987225 165.005262) scale(0.09 -0.09)">
     <use xlink:href="#ArialMT-31"/>
     <use xlink:href="#ArialMT-20" x="55.615234"/>
     <use xlink:href="#ArialMT-63" x="83.398438"/>
     <use xlink:href="#ArialMT-6d" x="133.398438"/>
     <use xlink:href="#ArialMT-b3" x="216.699219"/>
    </g>
   </g>
   <g id="text_20">
    <!-- 1 dm³ -->
    <g style="fill: #4a4a5a" transform="translate(606.987225 60.59938) scale(0.09 -0.09)">
     <use xlink:href="#ArialMT-31"/>
     <use xlink:href="#ArialMT-20" x="55.615234"/>
     <use xlink:href="#ArialMT-64" x="83.398438"/>
     <use xlink:href="#ArialMT-6d" x="139.013672"/>
     <use xlink:href="#ArialMT-b3" x="222.314453"/>
    </g>
   </g>
   <g id="text_21">
    <!-- Brain Tissue Recording Modalities Comparison -->
    <g style="fill: #3a3a48" transform="translate(201.473925 17.391562) scale(0.14 -0.14)">
     <defs>
      <path id="Arial-BoldMT-42" d="M 469 4581 
L 2300 4581 
Q 2844 4581 3111 4536 
Q 3378 4491 3589 4347 
Q 3800 4203 3940 3964 
Q 4081 3725 4081 3428 
Q 4081 3106 3907 2837 
Q 3734 2569 3438 2434 
Q 3856 2313 4081 2019 
Q 4306 1725 4306 1328 
Q 4306 1016 4161 720 
Q 4016 425 3764 248 
Q 3513 72 3144 31 
Q 2913 6 2028 0 
L 469 0 
L 469 4581 
z
M 1394 3819 
L 1394 2759 
L 2000 2759 
Q 2541 2759 2672 2775 
Q 2909 2803 3045 2939 
Q 3181 3075 3181 3297 
Q 3181 3509 3064 3642 
Q 2947 3775 2716 3803 
Q 2578 3819 1925 3819 
L 1394 3819 
z
M 1394 1997 
L 1394 772 
L 2250 772 
Q 2750 772 2884 800 
Q 3091 838 3220 983 
Q 3350 1128 3350 1372 
Q 3350 1578 3250 1722 
Q 3150 1866 2961 1931 
Q 2772 1997 2141 1997 
L 1394 1997 
z
" transform="scale(0.015625)"/>
      <path id="Arial-BoldMT-72" d="M 1300 0 
L 422 0 
L 422 3319 
L 1238 3319 
L 1238 2847 
Q 1447 3181 1614 3287 
Q 1781 3394 1994 3394 
Q 2294 3394 2572 3228 
L 2300 2463 
Q 2078 2606 1888 2606 
Q 1703 2606 1575 2504 
Q 1447 2403 1373 2137 
Q 1300 1872 1300 1025 
L 1300 0 
z
" transform="scale(0.015625)"/>
      <path id="Arial-BoldMT-61" d="M 1116 2306 
L 319 2450 
Q 453 2931 781 3162 
Q 1109 3394 1756 3394 
Q 2344 3394 2631 3255 
Q 2919 3116 3036 2902 
Q 3153 2688 3153 2116 
L 3144 1091 
Q 3144 653 3186 445 
Q 3228 238 3344 0 
L 2475 0 
Q 2441 88 2391 259 
Q 2369 338 2359 363 
Q 2134 144 1878 34 
Q 1622 -75 1331 -75 
Q 819 -75 523 203 
Q 228 481 228 906 
Q 228 1188 362 1408 
Q 497 1628 739 1745 
Q 981 1863 1438 1950 
Q 2053 2066 2291 2166 
L 2291 2253 
Q 2291 2506 2166 2614 
Q 2041 2722 1694 2722 
Q 1459 2722 1328 2630 
Q 1197 2538 1116 2306 
z
M 2291 1594 
Q 2122 1538 1756 1459 
Q 1391 1381 1278 1306 
Q 1106 1184 1106 997 
Q 1106 813 1243 678 
Q 1381 544 1594 544 
Q 1831 544 2047 700 
Q 2206 819 2256 991 
Q 2291 1103 2291 1419 
L 2291 1594 
z
" transform="scale(0.015625)"/>
      <path id="Arial-BoldMT-69" d="M 459 3769 
L 459 4581 
L 1338 4581 
L 1338 3769 
L 459 3769 
z
M 459 0 
L 459 3319 
L 1338 3319 
L 1338 0 
L 459 0 
z
" transform="scale(0.015625)"/>
      <path id="Arial-BoldMT-6e" d="M 3478 0 
L 2600 0 
L 2600 1694 
Q 2600 2231 2544 2389 
Q 2488 2547 2361 2634 
Q 2234 2722 2056 2722 
Q 1828 2722 1647 2597 
Q 1466 2472 1398 2265 
Q 1331 2059 1331 1503 
L 1331 0 
L 453 0 
L 453 3319 
L 1269 3319 
L 1269 2831 
Q 1703 3394 2363 3394 
Q 2653 3394 2893 3289 
Q 3134 3184 3257 3021 
Q 3381 2859 3429 2653 
Q 3478 2447 3478 2063 
L 3478 0 
z
" transform="scale(0.015625)"/>
      <path id="Arial-BoldMT-20" transform="scale(0.015625)"/>
      <path id="Arial-BoldMT-54" d="M 1497 0 
L 1497 3806 
L 138 3806 
L 138 4581 
L 3778 4581 
L 3778 3806 
L 2422 3806 
L 2422 0 
L 1497 0 
z
" transform="scale(0.015625)"/>
      <path id="Arial-BoldMT-73" d="M 150 947 
L 1031 1081 
Q 1088 825 1259 692 
Q 1431 559 1741 559 
Q 2081 559 2253 684 
Q 2369 772 2369 919 
Q 2369 1019 2306 1084 
Q 2241 1147 2013 1200 
Q 950 1434 666 1628 
Q 272 1897 272 2375 
Q 272 2806 612 3100 
Q 953 3394 1669 3394 
Q 2350 3394 2681 3172 
Q 3013 2950 3138 2516 
L 2309 2363 
Q 2256 2556 2107 2659 
Q 1959 2763 1684 2763 
Q 1338 2763 1188 2666 
Q 1088 2597 1088 2488 
Q 1088 2394 1175 2328 
Q 1294 2241 1995 2081 
Q 2697 1922 2975 1691 
Q 3250 1456 3250 1038 
Q 3250 581 2869 253 
Q 2488 -75 1741 -75 
Q 1063 -75 667 200 
Q 272 475 150 947 
z
" transform="scale(0.015625)"/>
      <path id="Arial-BoldMT-75" d="M 2644 0 
L 2644 497 
Q 2463 231 2167 78 
Q 1872 -75 1544 -75 
Q 1209 -75 943 72 
Q 678 219 559 484 
Q 441 750 441 1219 
L 441 3319 
L 1319 3319 
L 1319 1794 
Q 1319 1094 1367 936 
Q 1416 778 1544 686 
Q 1672 594 1869 594 
Q 2094 594 2272 717 
Q 2450 841 2515 1023 
Q 2581 1206 2581 1919 
L 2581 3319 
L 3459 3319 
L 3459 0 
L 2644 0 
z
" transform="scale(0.015625)"/>
      <path id="Arial-BoldMT-65" d="M 2381 1056 
L 3256 909 
Q 3088 428 2723 176 
Q 2359 -75 1813 -75 
Q 947 -75 531 491 
Q 203 944 203 1634 
Q 203 2459 634 2926 
Q 1066 3394 1725 3394 
Q 2466 3394 2894 2905 
Q 3322 2416 3303 1406 
L 1103 1406 
Q 1113 1016 1316 798 
Q 1519 581 1822 581 
Q 2028 581 2168 693 
Q 2309 806 2381 1056 
z
M 2431 1944 
Q 2422 2325 2234 2523 
Q 2047 2722 1778 2722 
Q 1491 2722 1303 2513 
Q 1116 2303 1119 1944 
L 2431 1944 
z
" transform="scale(0.015625)"/>
      <path id="Arial-BoldMT-52" d="M 469 0 
L 469 4581 
L 2416 4581 
Q 3150 4581 3483 4457 
Q 3816 4334 4016 4018 
Q 4216 3703 4216 3297 
Q 4216 2781 3912 2445 
Q 3609 2109 3006 2022 
Q 3306 1847 3501 1637 
Q 3697 1428 4028 894 
L 4588 0 
L 3481 0 
L 2813 997 
Q 2456 1531 2325 1670 
Q 2194 1809 2047 1861 
Q 1900 1913 1581 1913 
L 1394 1913 
L 1394 0 
L 469 0 
z
M 1394 2644 
L 2078 2644 
Q 2744 2644 2909 2700 
Q 3075 2756 3169 2893 
Q 3263 3031 3263 3238 
Q 3263 3469 3139 3611 
Q 3016 3753 2791 3791 
Q 2678 3806 2116 3806 
L 1394 3806 
L 1394 2644 
z
" transform="scale(0.015625)"/>
      <path id="Arial-BoldMT-63" d="M 3353 2338 
L 2488 2181 
Q 2444 2441 2289 2572 
Q 2134 2703 1888 2703 
Q 1559 2703 1364 2476 
Q 1169 2250 1169 1719 
Q 1169 1128 1367 884 
Q 1566 641 1900 641 
Q 2150 641 2309 783 
Q 2469 925 2534 1272 
L 3397 1125 
Q 3263 531 2881 228 
Q 2500 -75 1859 -75 
Q 1131 -75 698 384 
Q 266 844 266 1656 
Q 266 2478 700 2936 
Q 1134 3394 1875 3394 
Q 2481 3394 2839 3133 
Q 3197 2872 3353 2338 
z
" transform="scale(0.015625)"/>
      <path id="Arial-BoldMT-6f" d="M 256 1706 
Q 256 2144 472 2553 
Q 688 2963 1083 3178 
Q 1478 3394 1966 3394 
Q 2719 3394 3200 2905 
Q 3681 2416 3681 1669 
Q 3681 916 3195 420 
Q 2709 -75 1972 -75 
Q 1516 -75 1102 131 
Q 688 338 472 736 
Q 256 1134 256 1706 
z
M 1156 1659 
Q 1156 1166 1390 903 
Q 1625 641 1969 641 
Q 2313 641 2545 903 
Q 2778 1166 2778 1666 
Q 2778 2153 2545 2415 
Q 2313 2678 1969 2678 
Q 1625 2678 1390 2415 
Q 1156 2153 1156 1659 
z
" transform="scale(0.015625)"/>
      <path id="Arial-BoldMT-64" d="M 3503 0 
L 2688 0 
L 2688 488 
Q 2484 203 2207 64 
Q 1931 -75 1650 -75 
Q 1078 -75 670 386 
Q 263 847 263 1672 
Q 263 2516 659 2955 
Q 1056 3394 1663 3394 
Q 2219 3394 2625 2931 
L 2625 4581 
L 3503 4581 
L 3503 0 
z
M 1159 1731 
Q 1159 1200 1306 963 
Q 1519 619 1900 619 
Q 2203 619 2415 876 
Q 2628 1134 2628 1647 
Q 2628 2219 2422 2470 
Q 2216 2722 1894 2722 
Q 1581 2722 1370 2473 
Q 1159 2225 1159 1731 
z
" transform="scale(0.015625)"/>
      <path id="Arial-BoldMT-67" d="M 378 -219 
L 1381 -341 
Q 1406 -516 1497 -581 
Q 1622 -675 1891 -675 
Q 2234 -675 2406 -572 
Q 2522 -503 2581 -350 
Q 2622 -241 2622 53 
L 2622 538 
Q 2228 0 1628 0 
Q 959 0 569 566 
Q 263 1013 263 1678 
Q 263 2513 664 2953 
Q 1066 3394 1663 3394 
Q 2278 3394 2678 2853 
L 2678 3319 
L 3500 3319 
L 3500 341 
Q 3500 -247 3403 -537 
Q 3306 -828 3131 -993 
Q 2956 -1159 2664 -1253 
Q 2372 -1347 1925 -1347 
Q 1081 -1347 728 -1058 
Q 375 -769 375 -325 
Q 375 -281 378 -219 
z
M 1163 1728 
Q 1163 1200 1367 954 
Q 1572 709 1872 709 
Q 2194 709 2416 961 
Q 2638 1213 2638 1706 
Q 2638 2222 2425 2472 
Q 2213 2722 1888 2722 
Q 1572 2722 1367 2476 
Q 1163 2231 1163 1728 
z
" transform="scale(0.015625)"/>
      <path id="Arial-BoldMT-4d" d="M 453 0 
L 453 4581 
L 1838 4581 
L 2669 1456 
L 3491 4581 
L 4878 4581 
L 4878 0 
L 4019 0 
L 4019 3606 
L 3109 0 
L 2219 0 
L 1313 3606 
L 1313 0 
L 453 0 
z
" transform="scale(0.015625)"/>
      <path id="Arial-BoldMT-6c" d="M 459 0 
L 459 4581 
L 1338 4581 
L 1338 0 
L 459 0 
z
" transform="scale(0.015625)"/>
      <path id="Arial-BoldMT-74" d="M 1981 3319 
L 1981 2619 
L 1381 2619 
L 1381 1281 
Q 1381 875 1398 808 
Q 1416 741 1477 697 
Q 1538 653 1625 653 
Q 1747 653 1978 738 
L 2053 56 
Q 1747 -75 1359 -75 
Q 1122 -75 931 4 
Q 741 84 652 211 
Q 563 338 528 553 
Q 500 706 500 1172 
L 500 2619 
L 97 2619 
L 97 3319 
L 500 3319 
L 500 3978 
L 1381 4491 
L 1381 3319 
L 1981 3319 
z
" transform="scale(0.015625)"/>
      <path id="Arial-BoldMT-43" d="M 3397 1684 
L 4294 1400 
Q 4088 650 3608 286 
Q 3128 -78 2391 -78 
Q 1478 -78 890 545 
Q 303 1169 303 2250 
Q 303 3394 893 4026 
Q 1484 4659 2447 4659 
Q 3288 4659 3813 4163 
Q 4125 3869 4281 3319 
L 3366 3100 
Q 3284 3456 3026 3662 
Q 2769 3869 2400 3869 
Q 1891 3869 1573 3503 
Q 1256 3138 1256 2319 
Q 1256 1450 1568 1081 
Q 1881 713 2381 713 
Q 2750 713 3015 947 
Q 3281 1181 3397 1684 
z
" transform="scale(0.015625)"/>
      <path id="Arial-BoldMT-6d" d="M 394 3319 
L 1203 3319 
L 1203 2866 
Q 1638 3394 2238 3394 
Q 2556 3394 2790 3262 
Q 3025 3131 3175 2866 
Q 3394 3131 3647 3262 
Q 3900 3394 4188 3394 
Q 4553 3394 4806 3245 
Q 5059 3097 5184 2809 
Q 5275 2597 5275 2122 
L 5275 0 
L 4397 0 
L 4397 1897 
Q 4397 2391 4306 2534 
Q 4184 2722 3931 2722 
Q 3747 2722 3584 2609 
Q 3422 2497 3350 2280 
Q 3278 2063 3278 1594 
L 3278 0 
L 2400 0 
L 2400 1819 
Q 2400 2303 2353 2443 
Q 2306 2584 2207 2653 
Q 2109 2722 1941 2722 
Q 1738 2722 1575 2612 
Q 1413 2503 1342 2297 
Q 1272 2091 1272 1613 
L 1272 0 
L 394 0 
L 394 3319 
z
" transform="scale(0.015625)"/>
      <path id="Arial-BoldMT-70" d="M 434 3319 
L 1253 3319 
L 1253 2831 
Q 1413 3081 1684 3237 
Q 1956 3394 2288 3394 
Q 2866 3394 3269 2941 
Q 3672 2488 3672 1678 
Q 3672 847 3265 386 
Q 2859 -75 2281 -75 
Q 2006 -75 1782 34 
Q 1559 144 1313 409 
L 1313 -1263 
L 434 -1263 
L 434 3319 
z
M 1303 1716 
Q 1303 1156 1525 889 
Q 1747 622 2066 622 
Q 2372 622 2575 867 
Q 2778 1113 2778 1672 
Q 2778 2194 2568 2447 
Q 2359 2700 2050 2700 
Q 1728 2700 1515 2451 
Q 1303 2203 1303 1716 
z
" transform="scale(0.015625)"/>
     </defs>
     <use xlink:href="#Arial-BoldMT-42"/>
     <use xlink:href="#Arial-BoldMT-72" x="72.216797"/>
     <use xlink:href="#Arial-BoldMT-61" x="111.132812"/>
     <use xlink:href="#Arial-BoldMT-69" x="166.748047"/>
     <use xlink:href="#Arial-BoldMT-6e" x="194.53125"/>
     <use xlink:href="#Arial-BoldMT-20" x="255.615234"/>
     <use xlink:href="#Arial-BoldMT-54" x="283.398438"/>
     <use xlink:href="#Arial-BoldMT-69" x="342.732422"/>
     <use xlink:href="#Arial-BoldMT-73" x="370.515625"/>
     <use xlink:href="#Arial-BoldMT-73" x="426.130859"/>
     <use xlink:href="#Arial-BoldMT-75" x="481.746094"/>
     <use xlink:href="#Arial-BoldMT-65" x="542.830078"/>
     <use xlink:href="#Arial-BoldMT-20" x="598.445312"/>
     <use xlink:href="#Arial-BoldMT-52" x="626.228516"/>
     <use xlink:href="#Arial-BoldMT-65" x="698.445312"/>
     <use xlink:href="#Arial-BoldMT-63" x="754.060547"/>
     <use xlink:href="#Arial-BoldMT-6f" x="809.675781"/>
     <use xlink:href="#Arial-BoldMT-72" x="870.759766"/>
     <use xlink:href="#Arial-BoldMT-64" x="909.675781"/>
     <use xlink:href="#Arial-BoldMT-69" x="970.759766"/>
     <use xlink:href="#Arial-BoldMT-6e" x="998.542969"/>
     <use xlink:href="#Arial-BoldMT-67" x="1059.626953"/>
     <use xlink:href="#Arial-BoldMT-20" x="1120.710938"/>
     <use xlink:href="#Arial-BoldMT-4d" x="1148.494141"/>
     <use xlink:href="#Arial-BoldMT-6f" x="1231.794922"/>
     <use xlink:href="#Arial-BoldMT-64" x="1292.878906"/>
     <use xlink:href="#Arial-BoldMT-61" x="1353.962891"/>
     <use xlink:href="#Arial-BoldMT-6c" x="1409.578125"/>
     <use xlink:href="#Arial-BoldMT-69" x="1437.361328"/>
     <use xlink:href="#Arial-BoldMT-74" x="1465.144531"/>
     <use xlink:href="#Arial-BoldMT-69" x="1498.445312"/>
     <use xlink:href="#Arial-BoldMT-65" x="1526.228516"/>
     <use xlink:href="#Arial-BoldMT-73" x="1581.84375"/>
     <use xlink:href="#Arial-BoldMT-20" x="1637.458984"/>
     <use xlink:href="#Arial-BoldMT-43" x="1665.242188"/>
     <use xlink:href="#Arial-BoldMT-6f" x="1737.458984"/>
     <use xlink:href="#Arial-BoldMT-6d" x="1798.542969"/>
     <use xlink:href="#Arial-BoldMT-70" x="1887.458984"/>
     <use xlink:href="#Arial-BoldMT-61" x="1948.542969"/>
     <use xlink:href="#Arial-BoldMT-72" x="2004.158203"/>
     <use xlink:href="#Arial-BoldMT-69" x="2043.074219"/>
     <use xlink:href="#Arial-BoldMT-73" x="2070.857422"/>
     <use xlink:href="#Arial-BoldMT-6f" x="2126.472656"/>
     <use xlink:href="#Arial-BoldMT-6e" x="2187.556641"/>
    </g>
   </g>
   <g id="legend_1">
    <g id="patch_3">
     <path d="M 653.283405 152.016875 
L 772.59903 152.016875 
Q 774.79903 152.016875 774.79903 149.816875 
L 774.79903 45.091562 
Q 774.79903 42.891562 772.59903 42.891562 
L 653.283405 42.891562 
Q 651.083405 42.891562 651.083405 45.091562 
L 651.083405 149.816875 
Q 651.083405 152.016875 653.283405 152.016875 
z
" style="fill: #ffffff; opacity: 0.9; stroke: #e8e5e1; stroke-linejoin: miter"/>
    </g>
    <g id="text_22">
     <!-- Method -->
     <g style="fill: #4a4a5a" transform="translate(692.93028 56.980937) scale(0.12 -0.12)">
      <use xlink:href="#ArialMT-4d"/>
      <use xlink:href="#ArialMT-65" x="83.300781"/>
      <use xlink:href="#ArialMT-74" x="138.916016"/>
      <use xlink:href="#ArialMT-68" x="166.699219"/>
      <use xlink:href="#ArialMT-6f" x="222.314453"/>
      <use xlink:href="#ArialMT-64" x="277.929688"/>
     </g>
    </g>
    <g id="line2d_11">
     <path d="M 656.583405 67.789531 
L 667.583405 67.789531 
L 678.583405 67.789531 
" style="fill: none; stroke: #d4a84b; stroke-width: 2.5; stroke-linecap: round"/>
     <g>
      <use xlink:href="#m75c00c10de" x="667.583405" y="67.789531" style="fill: #d4a84b; stroke: #ffffff; stroke-width: 1.5"/>
     </g>
    </g>
    <g id="text_23">
     <!-- fUS -->
     <g style="fill: #4a4a5a" transform="translate(687.383405 71.639531) scale(0.11 -0.11)">
      <defs>
       <path id="ArialMT-55" d="M 3500 4581 
L 4106 4581 
L 4106 1934 
Q 4106 1244 3950 837 
Q 3794 431 3386 176 
Q 2978 -78 2316 -78 
Q 1672 -78 1262 144 
Q 853 366 678 786 
Q 503 1206 503 1934 
L 503 4581 
L 1109 4581 
L 1109 1938 
Q 1109 1341 1220 1058 
Q 1331 775 1601 622 
Q 1872 469 2263 469 
Q 2931 469 3215 772 
Q 3500 1075 3500 1938 
L 3500 4581 
z
" transform="scale(0.015625)"/>
      </defs>
      <use xlink:href="#ArialMT-66"/>
      <use xlink:href="#ArialMT-55" x="27.783203"/>
      <use xlink:href="#ArialMT-53" x="100"/>
     </g>
    </g>
    <g id="line2d_12">
     <path d="M 656.583405 82.383437 
L 667.583405 82.383437 
L 678.583405 82.383437 
" style="fill: none; stroke: #4a90a4; stroke-width: 2.5; stroke-linecap: round"/>
     <g>
      <use xlink:href="#ma109d42a9c" x="667.583405" y="82.383437" style="fill: #4a90a4; stroke: #ffffff; stroke-width: 1.5"/>
     </g>
    </g>
    <g id="text_24">
     <!-- Calcium Imaging -->
     <g style="fill: #4a4a5a" transform="translate(687.383405 86.233437) scale(0.11 -0.11)">
      <defs>
       <path id="ArialMT-43" d="M 3763 1606 
L 4369 1453 
Q 4178 706 3683 314 
Q 3188 -78 2472 -78 
Q 1731 -78 1267 223 
Q 803 525 561 1097 
Q 319 1669 319 2325 
Q 319 3041 592 3573 
Q 866 4106 1370 4382 
Q 1875 4659 2481 4659 
Q 3169 4659 3637 4309 
Q 4106 3959 4291 3325 
L 3694 3184 
Q 3534 3684 3231 3912 
Q 2928 4141 2469 4141 
Q 1941 4141 1586 3887 
Q 1231 3634 1087 3207 
Q 944 2781 944 2328 
Q 944 1744 1114 1308 
Q 1284 872 1643 656 
Q 2003 441 2422 441 
Q 2931 441 3284 734 
Q 3638 1028 3763 1606 
z
" transform="scale(0.015625)"/>
       <path id="ArialMT-49" d="M 597 0 
L 597 4581 
L 1203 4581 
L 1203 0 
L 597 0 
z
" transform="scale(0.015625)"/>
      </defs>
      <use xlink:href="#ArialMT-43"/>
      <use xlink:href="#ArialMT-61" x="72.216797"/>
      <use xlink:href="#ArialMT-6c" x="127.832031"/>
      <use xlink:href="#ArialMT-63" x="150.048828"/>
      <use xlink:href="#ArialMT-69" x="200.048828"/>
      <use xlink:href="#ArialMT-75" x="222.265625"/>
      <use xlink:href="#ArialMT-6d" x="277.880859"/>
      <use xlink:href="#ArialMT-20" x="361.181641"/>
      <use xlink:href="#ArialMT-49" x="388.964844"/>
      <use xlink:href="#ArialMT-6d" x="416.748047"/>
      <use xlink:href="#ArialMT-61" x="500.048828"/>
      <use xlink:href="#ArialMT-67" x="555.664062"/>
      <use xlink:href="#ArialMT-69" x="611.279297"/>
      <use xlink:href="#ArialMT-6e" x="633.496094"/>
      <use xlink:href="#ArialMT-67" x="689.111328"/>
     </g>
    </g>
    <g id="line2d_13">
     <path d="M 656.583405 96.972187 
L 667.583405 96.972187 
L 678.583405 96.972187 
" style="fill: none; stroke: #6b6080; stroke-width: 2.5; stroke-linecap: round"/>
     <g>
      <use xlink:href="#m6939ce1dc5" x="667.583405" y="96.972187" style="fill: #6b6080; stroke: #ffffff; stroke-width: 1.5"/>
     </g>
    </g>
    <g id="text_25">
     <!-- Voltage Imaging -->
     <g style="fill: #4a4a5a" transform="translate(687.383405 100.822187) scale(0.11 -0.11)">
      <use xlink:href="#ArialMT-56"/>
      <use xlink:href="#ArialMT-6f" x="61.199219"/>
      <use xlink:href="#ArialMT-6c" x="116.814453"/>
      <use xlink:href="#ArialMT-74" x="139.03125"/>
      <use xlink:href="#ArialMT-61" x="166.814453"/>
      <use xlink:href="#ArialMT-67" x="222.429688"/>
      <use xlink:href="#ArialMT-65" x="278.044922"/>
      <use xlink:href="#ArialMT-20" x="333.660156"/>
      <use xlink:href="#ArialMT-49" x="361.443359"/>
      <use xlink:href="#ArialMT-6d" x="389.226562"/>
      <use xlink:href="#ArialMT-61" x="472.527344"/>
      <use xlink:href="#ArialMT-67" x="528.142578"/>
      <use xlink:href="#ArialMT-69" x="583.757812"/>
      <use xlink:href="#ArialMT-6e" x="605.974609"/>
      <use xlink:href="#ArialMT-67" x="661.589844"/>
     </g>
    </g>
    <g id="line2d_14">
     <path d="M 656.583405 111.560937 
L 667.583405 111.560937 
L 678.583405 111.560937 
" style="fill: none; stroke: #8b7355; stroke-width: 2.5; stroke-linecap: round"/>
     <g>
      <use xlink:href="#m9a6e5178d4" x="667.583405" y="111.560937" style="fill: #8b7355; stroke: #ffffff; stroke-width: 1.5"/>
     </g>
    </g>
    <g id="text_26">
     <!-- MEA -->
     <g style="fill: #4a4a5a" transform="translate(687.383405 115.410937) scale(0.11 -0.11)">
      <defs>
       <path id="ArialMT-45" d="M 506 0 
L 506 4581 
L 3819 4581 
L 3819 4041 
L 1113 4041 
L 1113 2638 
L 3647 2638 
L 3647 2100 
L 1113 2100 
L 1113 541 
L 3925 541 
L 3925 0 
L 506 0 
z
" transform="scale(0.015625)"/>
       <path id="ArialMT-41" d="M -9 0 
L 1750 4581 
L 2403 4581 
L 4278 0 
L 3588 0 
L 3053 1388 
L 1138 1388 
L 634 0 
L -9 0 
z
M 1313 1881 
L 2866 1881 
L 2388 3150 
Q 2169 3728 2063 4100 
Q 1975 3659 1816 3225 
L 1313 1881 
z
" transform="scale(0.015625)"/>
      </defs>
      <use xlink:href="#ArialMT-4d"/>
      <use xlink:href="#ArialMT-45" x="83.300781"/>
      <use xlink:href="#ArialMT-41" x="150"/>
     </g>
    </g>
    <g id="line2d_15">
     <path d="M 656.583405 126.020781 
L 667.583405 126.020781 
L 678.583405 126.020781 
" style="fill: none; stroke-dasharray: 9.25,4; stroke-dashoffset: 0; stroke: #5c8b6b; stroke-width: 2.5"/>
     <g>
      <use xlink:href="#m6d8bde9ef6" x="667.583405" y="126.020781" style="fill: #5c8b6b; stroke: #ffffff; stroke-width: 1.5"/>
     </g>
    </g>
    <g id="text_27">
     <!-- EEG -->
     <g style="fill: #4a4a5a" transform="translate(687.383405 129.870781) scale(0.11 -0.11)">
      <defs>
       <path id="ArialMT-47" d="M 2638 1797 
L 2638 2334 
L 4578 2338 
L 4578 638 
Q 4131 281 3656 101 
Q 3181 -78 2681 -78 
Q 2006 -78 1454 211 
Q 903 500 622 1047 
Q 341 1594 341 2269 
Q 341 2938 620 3517 
Q 900 4097 1425 4378 
Q 1950 4659 2634 4659 
Q 3131 4659 3532 4498 
Q 3934 4338 4162 4050 
Q 4391 3763 4509 3300 
L 3963 3150 
Q 3859 3500 3706 3700 
Q 3553 3900 3268 4020 
Q 2984 4141 2638 4141 
Q 2222 4141 1919 4014 
Q 1616 3888 1430 3681 
Q 1244 3475 1141 3228 
Q 966 2803 966 2306 
Q 966 1694 1177 1281 
Q 1388 869 1791 669 
Q 2194 469 2647 469 
Q 3041 469 3416 620 
Q 3791 772 3984 944 
L 3984 1797 
L 2638 1797 
z
" transform="scale(0.015625)"/>
      </defs>
      <use xlink:href="#ArialMT-45"/>
      <use xlink:href="#ArialMT-45" x="66.699219"/>
      <use xlink:href="#ArialMT-47" x="133.398438"/>
     </g>
    </g>
    <g id="line2d_16">
     <path d="M 656.583405 140.480625 
L 667.583405 140.480625 
L 678.583405 140.480625 
" style="fill: none; stroke-dasharray: 9.25,4; stroke-dashoffset: 0; stroke: #6b6080; stroke-width: 2.5"/>
     <g>
      <use xlink:href="#m075df6968b" x="667.583405" y="140.480625" style="fill: #6b6080; stroke: #ffffff; stroke-width: 1.5; stroke-linejoin: miter"/>
     </g>
    </g>
    <g id="text_28">
     <!-- fMRI -->
     <g style="fill: #4a4a5a" transform="translate(687.383405 144.330625) scale(0.11 -0.11)">
      <use xlink:href="#ArialMT-66"/>
      <use xlink:href="#ArialMT-4d" x="27.783203"/>
      <use xlink:href="#ArialMT-52" x="111.083984"/>
      <use xlink:href="#ArialMT-49" x="183.300781"/>
     </g>
    </g>
   </g>
  </g>
  <g id="text_29">
   <!-- Zanichelli &amp; Schons et al., State of Brain Emulation Report 2025 -->
   <g style="fill: #787470" transform="translate(582.639425 439.607344) scale(0.07 -0.07)">
    <defs>
     <path id="Arial-ItalicMT-5a" d="M 156 0 
L 216 459 
L 2509 3200 
L 2984 3775 
Q 3128 3950 3263 4097 
Q 2972 4063 2856 4063 
L 2706 4066 
L 2525 4063 
L 2347 4059 
L 806 4059 
L 916 4581 
L 4075 4581 
L 4022 4103 
L 1563 1181 
Q 1109 641 988 503 
Q 1125 522 1166 522 
L 3663 522 
L 3553 0 
L 156 0 
z
" transform="scale(0.015625)"/>
     <path id="Arial-ItalicMT-61" d="M 2450 413 
Q 2156 159 1884 42 
Q 1613 -75 1303 -75 
Q 844 -75 562 195 
Q 281 466 281 888 
Q 281 1166 407 1380 
Q 534 1594 743 1723 
Q 953 1853 1256 1909 
Q 1447 1947 1980 1969 
Q 2513 1991 2744 2081 
Q 2809 2313 2809 2466 
Q 2809 2663 2666 2775 
Q 2469 2931 2091 2931 
Q 1734 2931 1507 2773 
Q 1281 2616 1178 2325 
L 606 2375 
Q 781 2869 1161 3131 
Q 1541 3394 2119 3394 
Q 2734 3394 3094 3100 
Q 3369 2881 3369 2531 
Q 3369 2266 3291 1916 
L 3106 1091 
Q 3019 697 3019 450 
Q 3019 294 3088 0 
L 2516 0 
Q 2469 163 2450 413 
z
M 2659 1681 
Q 2541 1634 2405 1609 
Q 2269 1584 1950 1556 
Q 1456 1513 1253 1445 
Q 1050 1378 947 1231 
Q 844 1084 844 906 
Q 844 669 1008 516 
Q 1172 363 1475 363 
Q 1756 363 2015 511 
Q 2275 659 2425 925 
Q 2575 1191 2659 1681 
z
" transform="scale(0.015625)"/>
     <path id="Arial-ItalicMT-6e" d="M 213 0 
L 906 3319 
L 1419 3319 
L 1297 2741 
Q 1631 3081 1922 3237 
Q 2213 3394 2516 3394 
Q 2919 3394 3148 3175 
Q 3378 2956 3378 2591 
Q 3378 2406 3297 2009 
L 2875 0 
L 2309 0 
L 2750 2103 
Q 2816 2409 2816 2556 
Q 2816 2722 2702 2825 
Q 2588 2928 2372 2928 
Q 1938 2928 1598 2615 
Q 1259 2303 1100 1544 
L 778 0 
L 213 0 
z
" transform="scale(0.015625)"/>
     <path id="Arial-ItalicMT-69" d="M 1016 3941 
L 1150 4581 
L 1713 4581 
L 1578 3941 
L 1016 3941 
z
M 191 0 
L 884 3319 
L 1450 3319 
L 756 0 
L 191 0 
z
" transform="scale(0.015625)"/>
     <path id="Arial-ItalicMT-63" d="M 2503 1209 
L 3069 1150 
Q 2856 528 2464 226 
Q 2072 -75 1572 -75 
Q 1031 -75 695 275 
Q 359 625 359 1253 
Q 359 1797 575 2322 
Q 791 2847 1192 3120 
Q 1594 3394 2109 3394 
Q 2644 3394 2956 3092 
Q 3269 2791 3269 2294 
L 2713 2256 
Q 2709 2572 2529 2750 
Q 2350 2928 2056 2928 
Q 1716 2928 1466 2712 
Q 1216 2497 1073 2058 
Q 931 1619 931 1213 
Q 931 788 1118 575 
Q 1306 363 1581 363 
Q 1856 363 2107 572 
Q 2359 781 2503 1209 
z
" transform="scale(0.015625)"/>
     <path id="Arial-ItalicMT-68" d="M 213 0 
L 1169 4581 
L 1734 4581 
L 1369 2822 
Q 1684 3128 1956 3261 
Q 2228 3394 2516 3394 
Q 2928 3394 3156 3176 
Q 3384 2959 3384 2603 
Q 3384 2428 3284 1959 
L 2875 0 
L 2309 0 
L 2731 2009 
Q 2822 2447 2822 2559 
Q 2822 2722 2709 2825 
Q 2597 2928 2384 2928 
Q 2078 2928 1800 2767 
Q 1522 2606 1364 2326 
Q 1206 2047 1075 1425 
L 778 0 
L 213 0 
z
" transform="scale(0.015625)"/>
     <path id="Arial-ItalicMT-65" d="M 2650 1128 
L 3200 1072 
Q 3081 663 2654 294 
Q 2228 -75 1638 -75 
Q 1269 -75 961 95 
Q 653 266 492 591 
Q 331 916 331 1331 
Q 331 1875 582 2386 
Q 834 2897 1234 3145 
Q 1634 3394 2100 3394 
Q 2694 3394 3048 3025 
Q 3403 2656 3403 2019 
Q 3403 1775 3359 1519 
L 916 1519 
Q 903 1422 903 1344 
Q 903 878 1117 633 
Q 1331 388 1641 388 
Q 1931 388 2212 578 
Q 2494 769 2650 1128 
z
M 1006 1950 
L 2869 1950 
Q 2872 2038 2872 2075 
Q 2872 2500 2659 2726 
Q 2447 2953 2113 2953 
Q 1750 2953 1451 2703 
Q 1153 2453 1006 1950 
z
" transform="scale(0.015625)"/>
     <path id="Arial-ItalicMT-6c" d="M 169 0 
L 1125 4581 
L 1691 4581 
L 734 0 
L 169 0 
z
" transform="scale(0.015625)"/>
     <path id="Arial-ItalicMT-20" transform="scale(0.015625)"/>
     <path id="Arial-ItalicMT-26" d="M 3175 447 
Q 2784 128 2506 14 
Q 2228 -100 1891 -100 
Q 1266 -100 884 267 
Q 503 634 503 1191 
Q 503 1553 645 1831 
Q 788 2109 1069 2334 
Q 1284 2503 1706 2694 
Q 1544 3053 1509 3175 
Q 1466 3350 1466 3550 
Q 1466 3813 1612 4083 
Q 1759 4353 2028 4506 
Q 2297 4659 2613 4659 
Q 3053 4659 3323 4403 
Q 3594 4147 3594 3781 
Q 3594 3472 3362 3167 
Q 3131 2863 2453 2522 
Q 2863 1781 3241 1306 
Q 3469 1584 3675 1959 
L 4169 1706 
Q 3963 1272 3597 856 
Q 3800 597 4125 231 
L 3700 -109 
Q 3381 163 3175 447 
z
M 2247 2944 
Q 2706 3178 2903 3425 
Q 3041 3594 3041 3769 
Q 3041 3953 2914 4079 
Q 2788 4206 2606 4206 
Q 2388 4206 2220 4029 
Q 2053 3853 2053 3609 
Q 2053 3313 2247 2944 
z
M 2847 881 
Q 2263 1647 1938 2253 
Q 1513 2053 1331 1866 
Q 1078 1603 1078 1256 
Q 1078 900 1320 654 
Q 1563 409 1913 409 
Q 2384 409 2847 881 
z
" transform="scale(0.015625)"/>
     <path id="Arial-ItalicMT-53" d="M 450 1481 
L 1050 1538 
L 1044 1378 
Q 1044 1113 1166 892 
Q 1288 672 1569 551 
Q 1850 431 2238 431 
Q 2788 431 3077 672 
Q 3366 913 3366 1222 
Q 3366 1438 3213 1616 
Q 3056 1791 2359 2091 
Q 1819 2325 1622 2450 
Q 1313 2653 1166 2892 
Q 1019 3131 1019 3438 
Q 1019 3791 1212 4075 
Q 1406 4359 1779 4509 
Q 2153 4659 2622 4659 
Q 3181 4659 3565 4471 
Q 3950 4284 4123 3971 
Q 4297 3659 4297 3375 
Q 4297 3347 4294 3281 
L 3703 3234 
Q 3703 3428 3669 3538 
Q 3606 3728 3475 3859 
Q 3344 3991 3114 4070 
Q 2884 4150 2600 4150 
Q 2100 4150 1822 3925 
Q 1609 3753 1609 3469 
Q 1609 3300 1696 3167 
Q 1784 3034 2013 2906 
Q 2175 2816 2784 2547 
Q 3278 2328 3466 2203 
Q 3716 2038 3850 1802 
Q 3984 1566 3984 1266 
Q 3984 894 3757 580 
Q 3531 266 3131 94 
Q 2731 -78 2216 -78 
Q 1438 -78 945 261 
Q 453 600 450 1481 
z
" transform="scale(0.015625)"/>
     <path id="Arial-ItalicMT-6f" d="M 313 1259 
Q 313 2231 884 2869 
Q 1356 3394 2122 3394 
Q 2722 3394 3089 3019 
Q 3456 2644 3456 2006 
Q 3456 1434 3225 942 
Q 2994 450 2567 187 
Q 2141 -75 1669 -75 
Q 1281 -75 964 90 
Q 647 256 480 559 
Q 313 863 313 1259 
z
M 878 1316 
Q 878 847 1103 605 
Q 1328 363 1675 363 
Q 1856 363 2034 436 
Q 2213 509 2366 659 
Q 2519 809 2626 1001 
Q 2734 1194 2800 1416 
Q 2897 1725 2897 2009 
Q 2897 2459 2670 2707 
Q 2444 2956 2100 2956 
Q 1834 2956 1615 2829 
Q 1397 2703 1220 2459 
Q 1044 2216 961 1892 
Q 878 1569 878 1316 
z
" transform="scale(0.015625)"/>
     <path id="Arial-ItalicMT-73" d="M 266 1134 
L 831 1169 
Q 831 925 906 753 
Q 981 581 1182 472 
Q 1384 363 1653 363 
Q 2028 363 2215 513 
Q 2403 663 2403 866 
Q 2403 1013 2291 1144 
Q 2175 1275 1726 1467 
Q 1278 1659 1153 1738 
Q 944 1866 837 2039 
Q 731 2213 731 2438 
Q 731 2831 1043 3112 
Q 1356 3394 1919 3394 
Q 2544 3394 2870 3105 
Q 3197 2816 3209 2344 
L 2656 2306 
Q 2644 2606 2444 2781 
Q 2244 2956 1878 2956 
Q 1584 2956 1421 2822 
Q 1259 2688 1259 2531 
Q 1259 2375 1400 2256 
Q 1494 2175 1884 2006 
Q 2534 1725 2703 1563 
Q 2972 1303 2972 931 
Q 2972 684 2820 446 
Q 2669 209 2358 67 
Q 2047 -75 1625 -75 
Q 1050 -75 647 209 
Q 244 494 266 1134 
z
" transform="scale(0.015625)"/>
     <path id="Arial-ItalicMT-74" d="M 1534 459 
L 1441 -3 
Q 1238 -56 1047 -56 
Q 709 -56 509 109 
Q 359 234 359 450 
Q 359 559 441 953 
L 844 2881 
L 397 2881 
L 488 3319 
L 934 3319 
L 1106 4134 
L 1753 4525 
L 1500 3319 
L 2056 3319 
L 1963 2881 
L 1409 2881 
L 1025 1047 
Q 953 697 953 628 
Q 953 528 1011 475 
Q 1069 422 1200 422 
Q 1388 422 1534 459 
z
" transform="scale(0.015625)"/>
     <path id="Arial-ItalicMT-2e" d="M 369 0 
L 503 641 
L 1144 641 
L 1006 0 
L 369 0 
z
" transform="scale(0.015625)"/>
     <path id="Arial-ItalicMT-2c" d="M 347 0 
L 481 641 
L 1125 641 
L 1009 81 
Q 903 -422 679 -656 
Q 456 -891 153 -925 
L 206 -678 
Q 578 -575 697 0 
L 347 0 
z
" transform="scale(0.015625)"/>
     <path id="Arial-ItalicMT-66" d="M 291 0 
L 894 2881 
L 388 2881 
L 478 3319 
L 984 3319 
L 1081 3791 
Q 1156 4144 1236 4300 
Q 1316 4456 1495 4557 
Q 1675 4659 1984 4659 
Q 2200 4659 2609 4569 
L 2506 4075 
Q 2219 4150 2025 4150 
Q 1859 4150 1773 4067 
Q 1688 3984 1625 3675 
L 1550 3319 
L 2181 3319 
L 2091 2881 
L 1459 2881 
L 856 0 
L 291 0 
z
" transform="scale(0.015625)"/>
     <path id="Arial-ItalicMT-42" d="M 278 0 
L 1238 4581 
L 2656 4581 
Q 3044 4581 3231 4550 
Q 3538 4497 3748 4364 
Q 3959 4231 4075 4001 
Q 4191 3772 4191 3494 
Q 4191 3116 3983 2828 
Q 3775 2541 3347 2391 
Q 3719 2269 3903 2023 
Q 4088 1778 4088 1450 
Q 4088 1072 3870 725 
Q 3653 378 3295 189 
Q 2938 0 2497 0 
L 278 0 
z
M 1441 2625 
L 2369 2625 
Q 3034 2625 3326 2837 
Q 3619 3050 3619 3456 
Q 3619 3650 3528 3790 
Q 3438 3931 3286 3995 
Q 3134 4059 2716 4059 
L 1741 4059 
L 1441 2625 
z
M 1000 519 
L 2044 519 
Q 2459 519 2603 547 
Q 2894 597 3075 717 
Q 3256 838 3359 1034 
Q 3463 1231 3463 1447 
Q 3463 1769 3261 1936 
Q 3059 2103 2494 2103 
L 1331 2103 
L 1000 519 
z
" transform="scale(0.015625)"/>
     <path id="Arial-ItalicMT-72" d="M 213 0 
L 906 3319 
L 1406 3319 
L 1266 2641 
Q 1522 3025 1767 3209 
Q 2013 3394 2269 3394 
Q 2438 3394 2684 3272 
L 2453 2747 
Q 2306 2853 2131 2853 
Q 1834 2853 1521 2522 
Q 1209 2191 1031 1331 
L 750 0 
L 213 0 
z
" transform="scale(0.015625)"/>
     <path id="Arial-ItalicMT-45" d="M 288 0 
L 1247 4581 
L 4553 4581 
L 4444 4059 
L 1750 4059 
L 1450 2634 
L 4075 2634 
L 3966 2113 
L 1341 2113 
L 1009 519 
L 3894 519 
L 3784 0 
L 288 0 
z
" transform="scale(0.015625)"/>
     <path id="Arial-ItalicMT-6d" d="M 209 0 
L 903 3319 
L 1469 3319 
L 1353 2772 
Q 1669 3125 1917 3259 
Q 2166 3394 2456 3394 
Q 2766 3394 2973 3230 
Q 3181 3066 3247 2772 
Q 3500 3084 3779 3239 
Q 4059 3394 4369 3394 
Q 4784 3394 4992 3197 
Q 5200 3000 5200 2644 
Q 5200 2491 5128 2138 
L 4681 0 
L 4116 0 
L 4572 2194 
Q 4631 2463 4631 2578 
Q 4631 2741 4528 2834 
Q 4425 2928 4238 2928 
Q 3984 2928 3721 2775 
Q 3459 2622 3314 2373 
Q 3169 2125 3059 1609 
L 2722 0 
L 2156 0 
L 2625 2241 
Q 2675 2469 2675 2566 
Q 2675 2728 2573 2828 
Q 2472 2928 2309 2928 
Q 2069 2928 1805 2775 
Q 1541 2622 1375 2348 
Q 1209 2075 1103 1569 
L 775 0 
L 209 0 
z
" transform="scale(0.015625)"/>
     <path id="Arial-ItalicMT-75" d="M 2478 600 
Q 1881 -75 1256 -75 
Q 872 -75 636 145 
Q 400 366 400 684 
Q 400 894 506 1403 
L 906 3319 
L 1472 3319 
L 1028 1197 
Q 972 931 972 784 
Q 972 597 1086 492 
Q 1200 388 1422 388 
Q 1659 388 1886 503 
Q 2113 619 2277 816 
Q 2441 1013 2544 1281 
Q 2613 1453 2703 1884 
L 3003 3319 
L 3569 3319 
L 2875 0 
L 2353 0 
L 2478 600 
z
" transform="scale(0.015625)"/>
     <path id="Arial-ItalicMT-52" d="M 300 0 
L 1259 4581 
L 3181 4581 
Q 3750 4581 4044 4486 
Q 4338 4391 4505 4128 
Q 4672 3866 4672 3466 
Q 4672 2906 4306 2537 
Q 3941 2169 3125 2059 
Q 3375 1875 3503 1697 
Q 3791 1294 3966 863 
L 4316 0 
L 3631 0 
L 3303 853 
Q 3125 1316 2897 1653 
Q 2741 1888 2578 1961 
Q 2416 2034 2050 2034 
L 1338 2034 
L 913 0 
L 300 0 
z
M 1441 2531 
L 2288 2531 
Q 2875 2531 3053 2547 
Q 3400 2581 3622 2703 
Q 3844 2825 3966 3031 
Q 4088 3238 4088 3475 
Q 4088 3675 3997 3823 
Q 3906 3972 3759 4025 
Q 3613 4078 3259 4078 
L 1766 4078 
L 1441 2531 
z
" transform="scale(0.015625)"/>
     <path id="Arial-ItalicMT-70" d="M -66 -1272 
L 894 3319 
L 1416 3319 
L 1319 2856 
Q 1609 3159 1839 3276 
Q 2069 3394 2325 3394 
Q 2800 3394 3112 3048 
Q 3425 2703 3425 2059 
Q 3425 1541 3253 1114 
Q 3081 688 2831 428 
Q 2581 169 2325 47 
Q 2069 -75 1800 -75 
Q 1203 -75 875 531 
L 500 -1272 
L -66 -1272 
z
M 1053 1356 
Q 1053 984 1106 841 
Q 1184 638 1362 513 
Q 1541 388 1775 388 
Q 2263 388 2563 936 
Q 2863 1484 2863 2056 
Q 2863 2478 2661 2708 
Q 2459 2938 2159 2938 
Q 1944 2938 1759 2823 
Q 1575 2709 1417 2482 
Q 1259 2256 1156 1928 
Q 1053 1600 1053 1356 
z
" transform="scale(0.015625)"/>
     <path id="Arial-ItalicMT-32" d="M 375 0 
Q 463 409 617 686 
Q 772 963 1028 1211 
Q 1284 1459 2016 2044 
Q 2459 2397 2622 2566 
Q 2856 2809 2963 3044 
Q 3034 3203 3034 3391 
Q 3034 3706 2811 3926 
Q 2588 4147 2263 4147 
Q 1941 4147 1700 3923 
Q 1459 3700 1356 3206 
L 803 3288 
Q 884 3897 1276 4248 
Q 1669 4600 2253 4600 
Q 2644 4600 2961 4437 
Q 3278 4275 3437 3981 
Q 3597 3688 3597 3375 
Q 3597 2919 3272 2497 
Q 3072 2234 2097 1463 
Q 1678 1131 1473 918 
Q 1269 706 1166 519 
L 3216 519 
L 3106 0 
L 375 0 
z
" transform="scale(0.015625)"/>
     <path id="Arial-ItalicMT-30" d="M 453 1503 
Q 453 2084 626 2684 
Q 800 3284 1012 3643 
Q 1225 4003 1453 4206 
Q 1681 4409 1901 4504 
Q 2122 4600 2391 4600 
Q 2916 4600 3267 4209 
Q 3619 3819 3619 3081 
Q 3619 2322 3375 1578 
Q 3088 697 2575 256 
Q 2181 -78 1678 -78 
Q 1163 -78 808 326 
Q 453 731 453 1503 
z
M 1000 1359 
Q 1000 938 1141 700 
Q 1331 372 1706 372 
Q 2034 372 2303 669 
Q 2691 1088 2886 1895 
Q 3081 2703 3081 3216 
Q 3081 3709 2892 3928 
Q 2703 4147 2394 4147 
Q 2169 4147 1973 4031 
Q 1778 3916 1600 3634 
Q 1347 3238 1159 2447 
Q 1000 1772 1000 1359 
z
" transform="scale(0.015625)"/>
     <path id="Arial-ItalicMT-35" d="M 447 1309 
L 1022 1366 
Q 1016 1244 1016 1219 
Q 1016 1013 1120 803 
Q 1225 594 1404 483 
Q 1584 372 1784 372 
Q 2047 372 2319 553 
Q 2591 734 2759 1081 
Q 2928 1428 2928 1769 
Q 2928 2153 2701 2384 
Q 2475 2616 2106 2616 
Q 1859 2616 1639 2497 
Q 1419 2378 1228 2141 
L 734 2175 
L 1425 4519 
L 3663 4519 
L 3553 4000 
L 1813 4000 
L 1469 2834 
Q 1663 2975 1867 3045 
Q 2072 3116 2288 3116 
Q 2813 3116 3150 2769 
Q 3488 2422 3488 1819 
Q 3488 1291 3256 845 
Q 3025 400 2620 161 
Q 2216 -78 1747 -78 
Q 1353 -78 1050 100 
Q 747 278 595 590 
Q 444 903 444 1216 
Q 444 1247 447 1309 
z
" transform="scale(0.015625)"/>
    </defs>
    <use xlink:href="#Arial-ItalicMT-5a"/>
    <use xlink:href="#Arial-ItalicMT-61" x="61.083984"/>
    <use xlink:href="#Arial-ItalicMT-6e" x="116.699219"/>
    <use xlink:href="#Arial-ItalicMT-69" x="172.314453"/>
    <use xlink:href="#Arial-ItalicMT-63" x="194.53125"/>
    <use xlink:href="#Arial-ItalicMT-68" x="244.53125"/>
    <use xlink:href="#Arial-ItalicMT-65" x="300.146484"/>
    <use xlink:href="#Arial-ItalicMT-6c" x="355.761719"/>
    <use xlink:href="#Arial-ItalicMT-6c" x="377.978516"/>
    <use xlink:href="#Arial-ItalicMT-69" x="400.195312"/>
    <use xlink:href="#Arial-ItalicMT-20" x="422.412109"/>
    <use xlink:href="#Arial-ItalicMT-26" x="450.195312"/>
    <use xlink:href="#Arial-ItalicMT-20" x="516.894531"/>
    <use xlink:href="#Arial-ItalicMT-53" x="544.677734"/>
    <use xlink:href="#Arial-ItalicMT-63" x="611.376953"/>
    <use xlink:href="#Arial-ItalicMT-68" x="661.376953"/>
    <use xlink:href="#Arial-ItalicMT-6f" x="716.992188"/>
    <use xlink:href="#Arial-ItalicMT-6e" x="772.607422"/>
    <use xlink:href="#Arial-ItalicMT-73" x="828.222656"/>
    <use xlink:href="#Arial-ItalicMT-20" x="878.222656"/>
    <use xlink:href="#Arial-ItalicMT-65" x="906.005859"/>
    <use xlink:href="#Arial-ItalicMT-74" x="961.621094"/>
    <use xlink:href="#Arial-ItalicMT-20" x="989.404297"/>
    <use xlink:href="#Arial-ItalicMT-61" x="1017.1875"/>
    <use xlink:href="#Arial-ItalicMT-6c" x="1072.802734"/>
    <use xlink:href="#Arial-ItalicMT-2e" x="1095.019531"/>
    <use xlink:href="#Arial-ItalicMT-2c" x="1122.802734"/>
    <use xlink:href="#Arial-ItalicMT-20" x="1150.585938"/>
    <use xlink:href="#Arial-ItalicMT-53" x="1178.369141"/>
    <use xlink:href="#Arial-ItalicMT-74" x="1245.068359"/>
    <use xlink:href="#Arial-ItalicMT-61" x="1272.851562"/>
    <use xlink:href="#Arial-ItalicMT-74" x="1328.466797"/>
    <use xlink:href="#Arial-ItalicMT-65" x="1356.25"/>
    <use xlink:href="#Arial-ItalicMT-20" x="1411.865234"/>
    <use xlink:href="#Arial-ItalicMT-6f" x="1439.648438"/>
    <use xlink:href="#Arial-ItalicMT-66" x="1495.263672"/>
    <use xlink:href="#Arial-ItalicMT-20" x="1523.046875"/>
    <use xlink:href="#Arial-ItalicMT-42" x="1550.830078"/>
    <use xlink:href="#Arial-ItalicMT-72" x="1617.529297"/>
    <use xlink:href="#Arial-ItalicMT-61" x="1650.830078"/>
    <use xlink:href="#Arial-ItalicMT-69" x="1706.445312"/>
    <use xlink:href="#Arial-ItalicMT-6e" x="1728.662109"/>
    <use xlink:href="#Arial-ItalicMT-20" x="1784.277344"/>
    <use xlink:href="#Arial-ItalicMT-45" x="1812.060547"/>
    <use xlink:href="#Arial-ItalicMT-6d" x="1878.759766"/>
    <use xlink:href="#Arial-ItalicMT-75" x="1962.060547"/>
    <use xlink:href="#Arial-ItalicMT-6c" x="2017.675781"/>
    <use xlink:href="#Arial-ItalicMT-61" x="2039.892578"/>
    <use xlink:href="#Arial-ItalicMT-74" x="2095.507812"/>
    <use xlink:href="#Arial-ItalicMT-69" x="2123.291016"/>
    <use xlink:href="#Arial-ItalicMT-6f" x="2145.507812"/>
    <use xlink:href="#Arial-ItalicMT-6e" x="2201.123047"/>
    <use xlink:href="#Arial-ItalicMT-20" x="2256.738281"/>
    <use xlink:href="#Arial-ItalicMT-52" x="2284.521484"/>
    <use xlink:href="#Arial-ItalicMT-65" x="2356.738281"/>
    <use xlink:href="#Arial-ItalicMT-70" x="2412.353516"/>
    <use xlink:href="#Arial-ItalicMT-6f" x="2467.96875"/>
    <use xlink:href="#Arial-ItalicMT-72" x="2523.583984"/>
    <use xlink:href="#Arial-ItalicMT-74" x="2556.884766"/>
    <use xlink:href="#Arial-ItalicMT-20" x="2584.667969"/>
    <use xlink:href="#Arial-ItalicMT-32" x="2612.451172"/>
    <use xlink:href="#Arial-ItalicMT-30" x="2668.066406"/>
    <use xlink:href="#Arial-ItalicMT-32" x="2723.681641"/>
    <use xlink:href="#Arial-ItalicMT-35" x="2779.296875"/>
   </g>
  </g>
 </g>
 <defs>
  <clipPath id="p44ccca0b0e">
   <rect x="83.181925" y="37.391562" width="551.374" height="354.98"/>
  </clipPath>
 </defs>
</svg>
