<?xml version="1.0" encoding="utf-8" standalone="no"?>
<!DOCTYPE svg PUBLIC "-//W3C//DTD SVG 1.1//EN"
  "http://www.w3.org/Graphics/SVG/1.1/DTD/svg11.dtd">
<svg xmlns:xlink="http://www.w3.org/1999/xlink" width="571.742031pt" height="357.789375pt" viewBox="0 0 571.742031 357.789375" xmlns="http://www.w3.org/2000/svg" version="1.1">
 <metadata>
  <rdf:RDF xmlns:dc="http://purl.org/dc/elements/1.1/" xmlns:cc="http://creativecommons.org/ns#" xmlns:rdf="http://www.w3.org/1999/02/22-rdf-syntax-ns#">
   <cc:Work>
    <dc:type rdf:resource="http://purl.org/dc/dcmitype/StillImage"/>
    <dc:date>2026-01-19T19:37:18.836195</dc:date>
    <dc:format>image/svg+xml</dc:format>
    <dc:creator>
     <cc:Agent>
      <dc:title>Matplotlib v3.9.4, https://matplotlib.org/</dc:title>
     </cc:Agent>
    </dc:creator>
   </cc:Work>
  </rdf:RDF>
 </metadata>
 <defs>
  <style type="text/css">*{stroke-linejoin: round; stroke-linecap: butt}</style>
 </defs>
 <g id="figure_1">
  <g id="patch_1">
   <path d="M 0 357.789375 
L 571.742031 357.789375 
L 571.742031 0 
L 0 0 
z
" style="fill: #ffffff"/>
  </g>
  <g id="axes_1">
   <g id="patch_2">
    <path d="M 53.222031 300.239062 
L 557.342031 300.239062 
L 557.342031 27.789375 
L 53.222031 27.789375 
z
" style="fill: #fafaf8"/>
   </g>
   <g id="matplotlib.axis_1">
    <g id="xtick_1">
     <g id="line2d_1">
      <path d="M 141.527578 300.239062 
L 141.527578 27.789375 
" clip-path="url(#p9b2c461a3a)" style="fill: none; stroke: #e8e5e1; stroke-linecap: round"/>
     </g>
     <g id="text_1">
      <!-- $\mathdefault{10^{-1}}$ -->
      <g style="fill: #4a4a5a" transform="translate(130.637578 321.082812) scale(0.11 -0.11)">
       <defs>
        <path id="ArialMT-31" d="M 2384 0 
L 1822 0 
L 1822 3584 
Q 1619 3391 1289 3197 
Q 959 3003 697 2906 
L 697 3450 
Q 1169 3672 1522 3987 
Q 1875 4303 2022 4600 
L 2384 4600 
L 2384 0 
z
" transform="scale(0.015625)"/>
        <path id="ArialMT-30" d="M 266 2259 
Q 266 3072 433 3567 
Q 600 4063 929 4331 
Q 1259 4600 1759 4600 
Q 2128 4600 2406 4451 
Q 2684 4303 2865 4023 
Q 3047 3744 3150 3342 
Q 3253 2941 3253 2259 
Q 3253 1453 3087 958 
Q 2922 463 2592 192 
Q 2263 -78 1759 -78 
Q 1097 -78 719 397 
Q 266 969 266 2259 
z
M 844 2259 
Q 844 1131 1108 757 
Q 1372 384 1759 384 
Q 2147 384 2411 759 
Q 2675 1134 2675 2259 
Q 2675 3391 2411 3762 
Q 2147 4134 1753 4134 
Q 1366 4134 1134 3806 
Q 844 3388 844 2259 
z
" transform="scale(0.015625)"/>
        <path id="ArialMT-2212" d="M 3381 1997 
L 356 1997 
L 356 2522 
L 3381 2522 
L 3381 1997 
z
" transform="scale(0.015625)"/>
       </defs>
       <use xlink:href="#ArialMT-31" transform="translate(0 0.99375)"/>
       <use xlink:href="#ArialMT-30" transform="translate(55.615234 0.99375)"/>
       <use xlink:href="#ArialMT-2212" transform="translate(112.972813 70.6875) scale(0.7)"/>
       <use xlink:href="#ArialMT-31" transform="translate(153.851719 70.6875) scale(0.7)"/>
      </g>
     </g>
    </g>
    <g id="xtick_2">
     <g id="line2d_2">
      <path d="M 230.068146 300.239062 
L 230.068146 27.789375 
" clip-path="url(#p9b2c461a3a)" style="fill: none; stroke: #e8e5e1; stroke-linecap: round"/>
     </g>
     <g id="text_2">
      <!-- $\mathdefault{10^{1}}$ -->
      <g style="fill: #4a4a5a" transform="translate(221.433146 321.082812) scale(0.11 -0.11)">
       <use xlink:href="#ArialMT-31" transform="translate(0 0.99375)"/>
       <use xlink:href="#ArialMT-30" transform="translate(55.615234 0.99375)"/>
       <use xlink:href="#ArialMT-31" transform="translate(112.972813 70.6875) scale(0.7)"/>
      </g>
     </g>
    </g>
    <g id="xtick_3">
     <g id="line2d_3">
      <path d="M 318.608715 300.239062 
L 318.608715 27.789375 
" clip-path="url(#p9b2c461a3a)" style="fill: none; stroke: #e8e5e1; stroke-linecap: round"/>
     </g>
     <g id="text_3">
      <!-- $\mathdefault{10^{3}}$ -->
      <g style="fill: #4a4a5a" transform="translate(309.973715 321.082812) scale(0.11 -0.11)">
       <defs>
        <path id="ArialMT-33" d="M 269 1209 
L 831 1284 
Q 928 806 1161 595 
Q 1394 384 1728 384 
Q 2125 384 2398 659 
Q 2672 934 2672 1341 
Q 2672 1728 2419 1979 
Q 2166 2231 1775 2231 
Q 1616 2231 1378 2169 
L 1441 2663 
Q 1497 2656 1531 2656 
Q 1891 2656 2178 2843 
Q 2466 3031 2466 3422 
Q 2466 3731 2256 3934 
Q 2047 4138 1716 4138 
Q 1388 4138 1169 3931 
Q 950 3725 888 3313 
L 325 3413 
Q 428 3978 793 4289 
Q 1159 4600 1703 4600 
Q 2078 4600 2393 4439 
Q 2709 4278 2876 4000 
Q 3044 3722 3044 3409 
Q 3044 3113 2884 2869 
Q 2725 2625 2413 2481 
Q 2819 2388 3044 2092 
Q 3269 1797 3269 1353 
Q 3269 753 2831 336 
Q 2394 -81 1725 -81 
Q 1122 -81 723 278 
Q 325 638 269 1209 
z
" transform="scale(0.015625)"/>
       </defs>
       <use xlink:href="#ArialMT-31" transform="translate(0 0.99375)"/>
       <use xlink:href="#ArialMT-30" transform="translate(55.615234 0.99375)"/>
       <use xlink:href="#ArialMT-33" transform="translate(112.972813 70.6875) scale(0.7)"/>
      </g>
     </g>
    </g>
    <g id="xtick_4">
     <g id="line2d_4">
      <path d="M 407.149283 300.239062 
L 407.149283 27.789375 
" clip-path="url(#p9b2c461a3a)" style="fill: none; stroke: #e8e5e1; stroke-linecap: round"/>
     </g>
     <g id="text_4">
      <!-- $\mathdefault{10^{5}}$ -->
      <g style="fill: #4a4a5a" transform="translate(398.514283 320.972812) scale(0.11 -0.11)">
       <defs>
        <path id="ArialMT-35" d="M 266 1200 
L 856 1250 
Q 922 819 1161 601 
Q 1400 384 1738 384 
Q 2144 384 2425 690 
Q 2706 997 2706 1503 
Q 2706 1984 2436 2262 
Q 2166 2541 1728 2541 
Q 1456 2541 1237 2417 
Q 1019 2294 894 2097 
L 366 2166 
L 809 4519 
L 3088 4519 
L 3088 3981 
L 1259 3981 
L 1013 2750 
Q 1425 3038 1878 3038 
Q 2478 3038 2890 2622 
Q 3303 2206 3303 1553 
Q 3303 931 2941 478 
Q 2500 -78 1738 -78 
Q 1113 -78 717 272 
Q 322 622 266 1200 
z
" transform="scale(0.015625)"/>
       </defs>
       <use xlink:href="#ArialMT-31" transform="translate(0 0.879688)"/>
       <use xlink:href="#ArialMT-30" transform="translate(55.615234 0.879688)"/>
       <use xlink:href="#ArialMT-35" transform="translate(112.972813 70.573438) scale(0.7)"/>
      </g>
     </g>
    </g>
    <g id="xtick_5">
     <g id="line2d_5">
      <path d="M 495.689852 300.239062 
L 495.689852 27.789375 
" clip-path="url(#p9b2c461a3a)" style="fill: none; stroke: #e8e5e1; stroke-linecap: round"/>
     </g>
     <g id="text_5">
      <!-- $\mathdefault{10^{7}}$ -->
      <g style="fill: #4a4a5a" transform="translate(487.054852 320.972812) scale(0.11 -0.11)">
       <defs>
        <path id="ArialMT-37" d="M 303 3981 
L 303 4522 
L 3269 4522 
L 3269 4084 
Q 2831 3619 2401 2847 
Q 1972 2075 1738 1259 
Q 1569 684 1522 0 
L 944 0 
Q 953 541 1156 1306 
Q 1359 2072 1739 2783 
Q 2119 3494 2547 3981 
L 303 3981 
z
" transform="scale(0.015625)"/>
       </defs>
       <use xlink:href="#ArialMT-31" transform="translate(0 0.846875)"/>
       <use xlink:href="#ArialMT-30" transform="translate(55.615234 0.846875)"/>
       <use xlink:href="#ArialMT-37" transform="translate(112.972813 70.540625) scale(0.7)"/>
      </g>
     </g>
    </g>
    <g id="text_6">
     <!-- Budget (Million $) -->
     <g style="fill: #4a4a5a" transform="translate(258.597344 336.649687) scale(0.12 -0.12)">
      <defs>
       <path id="ArialMT-42" d="M 469 0 
L 469 4581 
L 2188 4581 
Q 2713 4581 3030 4442 
Q 3347 4303 3526 4014 
Q 3706 3725 3706 3409 
Q 3706 3116 3547 2856 
Q 3388 2597 3066 2438 
Q 3481 2316 3704 2022 
Q 3928 1728 3928 1328 
Q 3928 1006 3792 729 
Q 3656 453 3456 303 
Q 3256 153 2954 76 
Q 2653 0 2216 0 
L 469 0 
z
M 1075 2656 
L 2066 2656 
Q 2469 2656 2644 2709 
Q 2875 2778 2992 2937 
Q 3109 3097 3109 3338 
Q 3109 3566 3000 3739 
Q 2891 3913 2687 3977 
Q 2484 4041 1991 4041 
L 1075 4041 
L 1075 2656 
z
M 1075 541 
L 2216 541 
Q 2509 541 2628 563 
Q 2838 600 2978 687 
Q 3119 775 3209 942 
Q 3300 1109 3300 1328 
Q 3300 1584 3169 1773 
Q 3038 1963 2805 2039 
Q 2572 2116 2134 2116 
L 1075 2116 
L 1075 541 
z
" transform="scale(0.015625)"/>
       <path id="ArialMT-75" d="M 2597 0 
L 2597 488 
Q 2209 -75 1544 -75 
Q 1250 -75 995 37 
Q 741 150 617 320 
Q 494 491 444 738 
Q 409 903 409 1263 
L 409 3319 
L 972 3319 
L 972 1478 
Q 972 1038 1006 884 
Q 1059 663 1231 536 
Q 1403 409 1656 409 
Q 1909 409 2131 539 
Q 2353 669 2445 892 
Q 2538 1116 2538 1541 
L 2538 3319 
L 3100 3319 
L 3100 0 
L 2597 0 
z
" transform="scale(0.015625)"/>
       <path id="ArialMT-64" d="M 2575 0 
L 2575 419 
Q 2259 -75 1647 -75 
Q 1250 -75 917 144 
Q 584 363 401 755 
Q 219 1147 219 1656 
Q 219 2153 384 2558 
Q 550 2963 881 3178 
Q 1213 3394 1622 3394 
Q 1922 3394 2156 3267 
Q 2391 3141 2538 2938 
L 2538 4581 
L 3097 4581 
L 3097 0 
L 2575 0 
z
M 797 1656 
Q 797 1019 1065 703 
Q 1334 388 1700 388 
Q 2069 388 2326 689 
Q 2584 991 2584 1609 
Q 2584 2291 2321 2609 
Q 2059 2928 1675 2928 
Q 1300 2928 1048 2622 
Q 797 2316 797 1656 
z
" transform="scale(0.015625)"/>
       <path id="ArialMT-67" d="M 319 -275 
L 866 -356 
Q 900 -609 1056 -725 
Q 1266 -881 1628 -881 
Q 2019 -881 2231 -725 
Q 2444 -569 2519 -288 
Q 2563 -116 2559 434 
Q 2191 0 1641 0 
Q 956 0 581 494 
Q 206 988 206 1678 
Q 206 2153 378 2554 
Q 550 2956 876 3175 
Q 1203 3394 1644 3394 
Q 2231 3394 2613 2919 
L 2613 3319 
L 3131 3319 
L 3131 450 
Q 3131 -325 2973 -648 
Q 2816 -972 2473 -1159 
Q 2131 -1347 1631 -1347 
Q 1038 -1347 672 -1080 
Q 306 -813 319 -275 
z
M 784 1719 
Q 784 1066 1043 766 
Q 1303 466 1694 466 
Q 2081 466 2343 764 
Q 2606 1063 2606 1700 
Q 2606 2309 2336 2618 
Q 2066 2928 1684 2928 
Q 1309 2928 1046 2623 
Q 784 2319 784 1719 
z
" transform="scale(0.015625)"/>
       <path id="ArialMT-65" d="M 2694 1069 
L 3275 997 
Q 3138 488 2766 206 
Q 2394 -75 1816 -75 
Q 1088 -75 661 373 
Q 234 822 234 1631 
Q 234 2469 665 2931 
Q 1097 3394 1784 3394 
Q 2450 3394 2872 2941 
Q 3294 2488 3294 1666 
Q 3294 1616 3291 1516 
L 816 1516 
Q 847 969 1125 678 
Q 1403 388 1819 388 
Q 2128 388 2347 550 
Q 2566 713 2694 1069 
z
M 847 1978 
L 2700 1978 
Q 2663 2397 2488 2606 
Q 2219 2931 1791 2931 
Q 1403 2931 1139 2672 
Q 875 2413 847 1978 
z
" transform="scale(0.015625)"/>
       <path id="ArialMT-74" d="M 1650 503 
L 1731 6 
Q 1494 -44 1306 -44 
Q 1000 -44 831 53 
Q 663 150 594 308 
Q 525 466 525 972 
L 525 2881 
L 113 2881 
L 113 3319 
L 525 3319 
L 525 4141 
L 1084 4478 
L 1084 3319 
L 1650 3319 
L 1650 2881 
L 1084 2881 
L 1084 941 
Q 1084 700 1114 631 
Q 1144 563 1211 522 
Q 1278 481 1403 481 
Q 1497 481 1650 503 
z
" transform="scale(0.015625)"/>
       <path id="ArialMT-20" transform="scale(0.015625)"/>
       <path id="ArialMT-28" d="M 1497 -1347 
Q 1031 -759 709 28 
Q 388 816 388 1659 
Q 388 2403 628 3084 
Q 909 3875 1497 4659 
L 1900 4659 
Q 1522 4009 1400 3731 
Q 1209 3300 1100 2831 
Q 966 2247 966 1656 
Q 966 153 1900 -1347 
L 1497 -1347 
z
" transform="scale(0.015625)"/>
       <path id="ArialMT-4d" d="M 475 0 
L 475 4581 
L 1388 4581 
L 2472 1338 
Q 2622 884 2691 659 
Q 2769 909 2934 1394 
L 4031 4581 
L 4847 4581 
L 4847 0 
L 4263 0 
L 4263 3834 
L 2931 0 
L 2384 0 
L 1059 3900 
L 1059 0 
L 475 0 
z
" transform="scale(0.015625)"/>
       <path id="ArialMT-69" d="M 425 3934 
L 425 4581 
L 988 4581 
L 988 3934 
L 425 3934 
z
M 425 0 
L 425 3319 
L 988 3319 
L 988 0 
L 425 0 
z
" transform="scale(0.015625)"/>
       <path id="ArialMT-6c" d="M 409 0 
L 409 4581 
L 972 4581 
L 972 0 
L 409 0 
z
" transform="scale(0.015625)"/>
       <path id="ArialMT-6f" d="M 213 1659 
Q 213 2581 725 3025 
Q 1153 3394 1769 3394 
Q 2453 3394 2887 2945 
Q 3322 2497 3322 1706 
Q 3322 1066 3130 698 
Q 2938 331 2570 128 
Q 2203 -75 1769 -75 
Q 1072 -75 642 372 
Q 213 819 213 1659 
z
M 791 1659 
Q 791 1022 1069 705 
Q 1347 388 1769 388 
Q 2188 388 2466 706 
Q 2744 1025 2744 1678 
Q 2744 2294 2464 2611 
Q 2184 2928 1769 2928 
Q 1347 2928 1069 2612 
Q 791 2297 791 1659 
z
" transform="scale(0.015625)"/>
       <path id="ArialMT-6e" d="M 422 0 
L 422 3319 
L 928 3319 
L 928 2847 
Q 1294 3394 1984 3394 
Q 2284 3394 2536 3286 
Q 2788 3178 2913 3003 
Q 3038 2828 3088 2588 
Q 3119 2431 3119 2041 
L 3119 0 
L 2556 0 
L 2556 2019 
Q 2556 2363 2490 2533 
Q 2425 2703 2258 2804 
Q 2091 2906 1866 2906 
Q 1506 2906 1245 2678 
Q 984 2450 984 1813 
L 984 0 
L 422 0 
z
" transform="scale(0.015625)"/>
       <path id="ArialMT-24" d="M 1594 -659 
L 1594 -97 
Q 1172 -44 908 92 
Q 644 228 451 531 
Q 259 834 228 1272 
L 794 1378 
Q 859 925 1025 713 
Q 1263 413 1594 378 
L 1594 2169 
Q 1247 2234 884 2438 
Q 616 2588 470 2853 
Q 325 3119 325 3456 
Q 325 4056 750 4428 
Q 1034 4678 1594 4734 
L 1594 5003 
L 1925 5003 
L 1925 4734 
Q 2416 4688 2703 4447 
Q 3072 4141 3147 3606 
L 2566 3519 
Q 2516 3850 2358 4026 
Q 2200 4203 1925 4259 
L 1925 2638 
Q 2350 2531 2488 2472 
Q 2750 2356 2915 2190 
Q 3081 2025 3170 1797 
Q 3259 1569 3259 1303 
Q 3259 719 2887 328 
Q 2516 -63 1925 -91 
L 1925 -659 
L 1594 -659 
z
M 1594 4266 
Q 1266 4216 1077 4003 
Q 888 3791 888 3500 
Q 888 3213 1048 3019 
Q 1209 2825 1594 2709 
L 1594 4266 
z
M 1925 378 
Q 2253 419 2467 662 
Q 2681 906 2681 1266 
Q 2681 1572 2529 1758 
Q 2378 1944 1925 2091 
L 1925 378 
z
" transform="scale(0.015625)"/>
       <path id="ArialMT-29" d="M 791 -1347 
L 388 -1347 
Q 1322 153 1322 1656 
Q 1322 2244 1188 2822 
Q 1081 3291 891 3722 
Q 769 4003 388 4659 
L 791 4659 
Q 1378 3875 1659 3084 
Q 1900 2403 1900 1659 
Q 1900 816 1576 28 
Q 1253 -759 791 -1347 
z
" transform="scale(0.015625)"/>
      </defs>
      <use xlink:href="#ArialMT-42"/>
      <use xlink:href="#ArialMT-75" x="66.699219"/>
      <use xlink:href="#ArialMT-64" x="122.314453"/>
      <use xlink:href="#ArialMT-67" x="177.929688"/>
      <use xlink:href="#ArialMT-65" x="233.544922"/>
      <use xlink:href="#ArialMT-74" x="289.160156"/>
      <use xlink:href="#ArialMT-20" x="316.943359"/>
      <use xlink:href="#ArialMT-28" x="344.726562"/>
      <use xlink:href="#ArialMT-4d" x="378.027344"/>
      <use xlink:href="#ArialMT-69" x="461.328125"/>
      <use xlink:href="#ArialMT-6c" x="483.544922"/>
      <use xlink:href="#ArialMT-6c" x="505.761719"/>
      <use xlink:href="#ArialMT-69" x="527.978516"/>
      <use xlink:href="#ArialMT-6f" x="550.195312"/>
      <use xlink:href="#ArialMT-6e" x="605.810547"/>
      <use xlink:href="#ArialMT-20" x="661.425781"/>
      <use xlink:href="#ArialMT-24" x="689.208984"/>
      <use xlink:href="#ArialMT-29" x="744.824219"/>
     </g>
    </g>
   </g>
   <g id="matplotlib.axis_2">
    <g id="ytick_1">
     <g id="line2d_6">
      <path d="M 53.222031 300.239062 
L 557.342031 300.239062 
" clip-path="url(#p9b2c461a3a)" style="fill: none; stroke: #e8e5e1; stroke-linecap: round"/>
     </g>
     <g id="text_7">
      <!-- 0.00 -->
      <g style="fill: #4a4a5a" transform="translate(22.315 304.175859) scale(0.11 -0.11)">
       <defs>
        <path id="ArialMT-2e" d="M 581 0 
L 581 641 
L 1222 641 
L 1222 0 
L 581 0 
z
" transform="scale(0.015625)"/>
       </defs>
       <use xlink:href="#ArialMT-30"/>
       <use xlink:href="#ArialMT-2e" x="55.615234"/>
       <use xlink:href="#ArialMT-30" x="83.398438"/>
       <use xlink:href="#ArialMT-30" x="139.013672"/>
      </g>
     </g>
    </g>
    <g id="ytick_2">
     <g id="line2d_7">
      <path d="M 53.222031 263.263822 
L 557.342031 263.263822 
" clip-path="url(#p9b2c461a3a)" style="fill: none; stroke: #e8e5e1; stroke-linecap: round"/>
     </g>
     <g id="text_8">
      <!-- 0.05 -->
      <g style="fill: #4a4a5a" transform="translate(22.315 267.200619) scale(0.11 -0.11)">
       <use xlink:href="#ArialMT-30"/>
       <use xlink:href="#ArialMT-2e" x="55.615234"/>
       <use xlink:href="#ArialMT-30" x="83.398438"/>
       <use xlink:href="#ArialMT-35" x="139.013672"/>
      </g>
     </g>
    </g>
    <g id="ytick_3">
     <g id="line2d_8">
      <path d="M 53.222031 226.288582 
L 557.342031 226.288582 
" clip-path="url(#p9b2c461a3a)" style="fill: none; stroke: #e8e5e1; stroke-linecap: round"/>
     </g>
     <g id="text_9">
      <!-- 0.10 -->
      <g style="fill: #4a4a5a" transform="translate(22.315 230.225378) scale(0.11 -0.11)">
       <use xlink:href="#ArialMT-30"/>
       <use xlink:href="#ArialMT-2e" x="55.615234"/>
       <use xlink:href="#ArialMT-31" x="83.398438"/>
       <use xlink:href="#ArialMT-30" x="139.013672"/>
      </g>
     </g>
    </g>
    <g id="ytick_4">
     <g id="line2d_9">
      <path d="M 53.222031 189.313341 
L 557.342031 189.313341 
" clip-path="url(#p9b2c461a3a)" style="fill: none; stroke: #e8e5e1; stroke-linecap: round"/>
     </g>
     <g id="text_10">
      <!-- 0.15 -->
      <g style="fill: #4a4a5a" transform="translate(22.315 193.250138) scale(0.11 -0.11)">
       <use xlink:href="#ArialMT-30"/>
       <use xlink:href="#ArialMT-2e" x="55.615234"/>
       <use xlink:href="#ArialMT-31" x="83.398438"/>
       <use xlink:href="#ArialMT-35" x="139.013672"/>
      </g>
     </g>
    </g>
    <g id="ytick_5">
     <g id="line2d_10">
      <path d="M 53.222031 152.338101 
L 557.342031 152.338101 
" clip-path="url(#p9b2c461a3a)" style="fill: none; stroke: #e8e5e1; stroke-linecap: round"/>
     </g>
     <g id="text_11">
      <!-- 0.20 -->
      <g style="fill: #4a4a5a" transform="translate(22.315 156.274897) scale(0.11 -0.11)">
       <defs>
        <path id="ArialMT-32" d="M 3222 541 
L 3222 0 
L 194 0 
Q 188 203 259 391 
Q 375 700 629 1000 
Q 884 1300 1366 1694 
Q 2113 2306 2375 2664 
Q 2638 3022 2638 3341 
Q 2638 3675 2398 3904 
Q 2159 4134 1775 4134 
Q 1369 4134 1125 3890 
Q 881 3647 878 3216 
L 300 3275 
Q 359 3922 746 4261 
Q 1134 4600 1788 4600 
Q 2447 4600 2831 4234 
Q 3216 3869 3216 3328 
Q 3216 3053 3103 2787 
Q 2991 2522 2730 2228 
Q 2469 1934 1863 1422 
Q 1356 997 1212 845 
Q 1069 694 975 541 
L 3222 541 
z
" transform="scale(0.015625)"/>
       </defs>
       <use xlink:href="#ArialMT-30"/>
       <use xlink:href="#ArialMT-2e" x="55.615234"/>
       <use xlink:href="#ArialMT-32" x="83.398438"/>
       <use xlink:href="#ArialMT-30" x="139.013672"/>
      </g>
     </g>
    </g>
    <g id="ytick_6">
     <g id="line2d_11">
      <path d="M 53.222031 115.36286 
L 557.342031 115.36286 
" clip-path="url(#p9b2c461a3a)" style="fill: none; stroke: #e8e5e1; stroke-linecap: round"/>
     </g>
     <g id="text_12">
      <!-- 0.25 -->
      <g style="fill: #4a4a5a" transform="translate(22.315 119.299657) scale(0.11 -0.11)">
       <use xlink:href="#ArialMT-30"/>
       <use xlink:href="#ArialMT-2e" x="55.615234"/>
       <use xlink:href="#ArialMT-32" x="83.398438"/>
       <use xlink:href="#ArialMT-35" x="139.013672"/>
      </g>
     </g>
    </g>
    <g id="ytick_7">
     <g id="line2d_12">
      <path d="M 53.222031 78.38762 
L 557.342031 78.38762 
" clip-path="url(#p9b2c461a3a)" style="fill: none; stroke: #e8e5e1; stroke-linecap: round"/>
     </g>
     <g id="text_13">
      <!-- 0.30 -->
      <g style="fill: #4a4a5a" transform="translate(22.315 82.324417) scale(0.11 -0.11)">
       <use xlink:href="#ArialMT-30"/>
       <use xlink:href="#ArialMT-2e" x="55.615234"/>
       <use xlink:href="#ArialMT-33" x="83.398438"/>
       <use xlink:href="#ArialMT-30" x="139.013672"/>
      </g>
     </g>
    </g>
    <g id="ytick_8">
     <g id="line2d_13">
      <path d="M 53.222031 41.412379 
L 557.342031 41.412379 
" clip-path="url(#p9b2c461a3a)" style="fill: none; stroke: #e8e5e1; stroke-linecap: round"/>
     </g>
     <g id="text_14">
      <!-- 0.35 -->
      <g style="fill: #4a4a5a" transform="translate(22.315 45.349176) scale(0.11 -0.11)">
       <use xlink:href="#ArialMT-30"/>
       <use xlink:href="#ArialMT-2e" x="55.615234"/>
       <use xlink:href="#ArialMT-33" x="83.398438"/>
       <use xlink:href="#ArialMT-35" x="139.013672"/>
      </g>
     </g>
    </g>
    <g id="text_15">
     <!-- Density -->
     <g style="fill: #4a4a5a" transform="translate(15.789375 184.020469) rotate(-90) scale(0.12 -0.12)">
      <defs>
       <path id="ArialMT-44" d="M 494 0 
L 494 4581 
L 2072 4581 
Q 2606 4581 2888 4516 
Q 3281 4425 3559 4188 
Q 3922 3881 4101 3404 
Q 4281 2928 4281 2316 
Q 4281 1794 4159 1391 
Q 4038 988 3847 723 
Q 3656 459 3429 307 
Q 3203 156 2883 78 
Q 2563 0 2147 0 
L 494 0 
z
M 1100 541 
L 2078 541 
Q 2531 541 2789 625 
Q 3047 709 3200 863 
Q 3416 1078 3536 1442 
Q 3656 1806 3656 2325 
Q 3656 3044 3420 3430 
Q 3184 3816 2847 3947 
Q 2603 4041 2063 4041 
L 1100 4041 
L 1100 541 
z
" transform="scale(0.015625)"/>
       <path id="ArialMT-73" d="M 197 991 
L 753 1078 
Q 800 744 1014 566 
Q 1228 388 1613 388 
Q 2000 388 2187 545 
Q 2375 703 2375 916 
Q 2375 1106 2209 1216 
Q 2094 1291 1634 1406 
Q 1016 1563 777 1677 
Q 538 1791 414 1992 
Q 291 2194 291 2438 
Q 291 2659 392 2848 
Q 494 3038 669 3163 
Q 800 3259 1026 3326 
Q 1253 3394 1513 3394 
Q 1903 3394 2198 3281 
Q 2494 3169 2634 2976 
Q 2775 2784 2828 2463 
L 2278 2388 
Q 2241 2644 2061 2787 
Q 1881 2931 1553 2931 
Q 1166 2931 1000 2803 
Q 834 2675 834 2503 
Q 834 2394 903 2306 
Q 972 2216 1119 2156 
Q 1203 2125 1616 2013 
Q 2213 1853 2448 1751 
Q 2684 1650 2818 1456 
Q 2953 1263 2953 975 
Q 2953 694 2789 445 
Q 2625 197 2315 61 
Q 2006 -75 1616 -75 
Q 969 -75 630 194 
Q 291 463 197 991 
z
" transform="scale(0.015625)"/>
       <path id="ArialMT-79" d="M 397 -1278 
L 334 -750 
Q 519 -800 656 -800 
Q 844 -800 956 -737 
Q 1069 -675 1141 -563 
Q 1194 -478 1313 -144 
Q 1328 -97 1363 -6 
L 103 3319 
L 709 3319 
L 1400 1397 
Q 1534 1031 1641 628 
Q 1738 1016 1872 1384 
L 2581 3319 
L 3144 3319 
L 1881 -56 
Q 1678 -603 1566 -809 
Q 1416 -1088 1222 -1217 
Q 1028 -1347 759 -1347 
Q 597 -1347 397 -1278 
z
" transform="scale(0.015625)"/>
      </defs>
      <use xlink:href="#ArialMT-44"/>
      <use xlink:href="#ArialMT-65" x="72.216797"/>
      <use xlink:href="#ArialMT-6e" x="127.832031"/>
      <use xlink:href="#ArialMT-73" x="183.447266"/>
      <use xlink:href="#ArialMT-69" x="233.447266"/>
      <use xlink:href="#ArialMT-74" x="255.664062"/>
      <use xlink:href="#ArialMT-79" x="283.447266"/>
     </g>
    </g>
   </g>
   <g id="PolyCollection_1">
    <defs>
     <path id="mdbc25c6a08" d="M 76.136577 -57.663694 
L 76.136577 -57.550312 
L 78.439546 -57.550312 
L 80.742515 -57.550312 
L 83.045485 -57.550312 
L 85.348454 -57.550312 
L 87.651424 -57.550312 
L 89.954393 -57.550312 
L 92.257362 -57.550312 
L 94.560332 -57.550312 
L 96.863301 -57.550312 
L 99.166271 -57.550312 
L 101.46924 -57.550312 
L 103.772209 -57.550312 
L 106.075179 -57.550312 
L 108.378148 -57.550312 
L 110.681118 -57.550312 
L 112.984087 -57.550312 
L 115.287056 -57.550312 
L 117.590026 -57.550312 
L 119.892995 -57.550312 
L 122.195965 -57.550312 
L 124.498934 -57.550312 
L 126.801903 -57.550312 
L 129.104873 -57.550312 
L 131.407842 -57.550312 
L 133.710812 -57.550312 
L 136.013781 -57.550312 
L 138.31675 -57.550312 
L 140.61972 -57.550312 
L 142.922689 -57.550312 
L 145.225658 -57.550312 
L 147.528628 -57.550312 
L 149.831597 -57.550312 
L 152.134567 -57.550312 
L 154.437536 -57.550312 
L 156.740505 -57.550312 
L 159.043475 -57.550312 
L 161.346444 -57.550312 
L 163.649414 -57.550312 
L 165.952383 -57.550312 
L 168.255352 -57.550312 
L 170.558322 -57.550312 
L 172.861291 -57.550312 
L 175.164261 -57.550312 
L 177.46723 -57.550312 
L 179.770199 -57.550312 
L 182.073169 -57.550312 
L 184.376138 -57.550312 
L 186.679108 -57.550312 
L 188.982077 -57.550312 
L 191.285046 -57.550312 
L 193.588016 -57.550312 
L 195.890985 -57.550312 
L 198.193955 -57.550312 
L 200.496924 -57.550312 
L 202.799893 -57.550312 
L 205.102863 -57.550312 
L 207.405832 -57.550312 
L 209.708801 -57.550312 
L 212.011771 -57.550312 
L 214.31474 -57.550312 
L 216.61771 -57.550312 
L 218.920679 -57.550312 
L 221.223648 -57.550312 
L 223.526618 -57.550312 
L 225.829587 -57.550312 
L 228.132557 -57.550312 
L 230.435526 -57.550312 
L 232.738495 -57.550312 
L 235.041465 -57.550312 
L 237.344434 -57.550312 
L 239.647404 -57.550312 
L 241.950373 -57.550312 
L 244.253342 -57.550312 
L 246.556312 -57.550312 
L 248.859281 -57.550312 
L 251.162251 -57.550312 
L 253.46522 -57.550312 
L 255.768189 -57.550312 
L 258.071159 -57.550312 
L 260.374128 -57.550312 
L 262.677097 -57.550312 
L 264.980067 -57.550312 
L 267.283036 -57.550312 
L 269.586006 -57.550312 
L 271.888975 -57.550312 
L 274.191944 -57.550312 
L 276.494914 -57.550312 
L 278.797883 -57.550312 
L 281.100853 -57.550312 
L 283.403822 -57.550312 
L 285.706791 -57.550312 
L 288.009761 -57.550312 
L 290.31273 -57.550312 
L 292.6157 -57.550312 
L 294.918669 -57.550312 
L 297.221638 -57.550312 
L 299.524608 -57.550312 
L 301.827577 -57.550312 
L 304.130547 -57.550312 
L 306.433516 -57.550312 
L 308.736485 -57.550312 
L 311.039455 -57.550312 
L 313.342424 -57.550312 
L 315.645394 -57.550312 
L 317.948363 -57.550312 
L 320.251332 -57.550312 
L 322.554302 -57.550312 
L 324.857271 -57.550312 
L 327.16024 -57.550312 
L 329.46321 -57.550312 
L 331.766179 -57.550312 
L 334.069149 -57.550312 
L 336.372118 -57.550312 
L 338.675087 -57.550312 
L 340.978057 -57.550312 
L 343.281026 -57.550312 
L 345.583996 -57.550312 
L 347.886965 -57.550312 
L 350.189934 -57.550312 
L 352.492904 -57.550312 
L 354.795873 -57.550312 
L 357.098843 -57.550312 
L 359.401812 -57.550312 
L 361.704781 -57.550312 
L 364.007751 -57.550312 
L 366.31072 -57.550312 
L 368.61369 -57.550312 
L 370.916659 -57.550312 
L 373.219628 -57.550312 
L 375.522598 -57.550312 
L 377.825567 -57.550312 
L 380.128537 -57.550312 
L 382.431506 -57.550312 
L 384.734475 -57.550312 
L 387.037445 -57.550312 
L 389.340414 -57.550312 
L 391.643383 -57.550312 
L 393.946353 -57.550312 
L 396.249322 -57.550312 
L 398.552292 -57.550312 
L 400.855261 -57.550312 
L 403.15823 -57.550312 
L 405.4612 -57.550312 
L 407.764169 -57.550312 
L 410.067139 -57.550312 
L 412.370108 -57.550312 
L 414.673077 -57.550312 
L 416.976047 -57.550312 
L 419.279016 -57.550312 
L 421.581986 -57.550312 
L 423.884955 -57.550312 
L 426.187924 -57.550312 
L 428.490894 -57.550312 
L 430.793863 -57.550312 
L 433.096833 -57.550312 
L 435.399802 -57.550312 
L 437.702771 -57.550312 
L 440.005741 -57.550312 
L 442.30871 -57.550312 
L 444.611679 -57.550312 
L 446.914649 -57.550312 
L 449.217618 -57.550312 
L 451.520588 -57.550312 
L 453.823557 -57.550312 
L 456.126526 -57.550312 
L 458.429496 -57.550312 
L 460.732465 -57.550312 
L 463.035435 -57.550312 
L 465.338404 -57.550312 
L 467.641373 -57.550312 
L 469.944343 -57.550312 
L 472.247312 -57.550312 
L 474.550282 -57.550312 
L 476.853251 -57.550312 
L 479.15622 -57.550312 
L 481.45919 -57.550312 
L 483.762159 -57.550312 
L 486.065129 -57.550312 
L 488.368098 -57.550312 
L 490.671067 -57.550312 
L 492.974037 -57.550312 
L 495.277006 -57.550312 
L 497.579976 -57.550312 
L 499.882945 -57.550312 
L 502.185914 -57.550312 
L 504.488884 -57.550312 
L 506.791853 -57.550312 
L 509.094822 -57.550312 
L 511.397792 -57.550312 
L 513.700761 -57.550312 
L 516.003731 -57.550312 
L 518.3067 -57.550312 
L 520.609669 -57.550312 
L 522.912639 -57.550312 
L 525.215608 -57.550312 
L 527.518578 -57.550312 
L 529.821547 -57.550312 
L 532.124516 -57.550312 
L 534.427486 -57.550312 
L 534.427486 -57.698516 
L 534.427486 -57.698516 
L 532.124516 -57.736486 
L 529.821547 -57.783105 
L 527.518578 -57.840063 
L 525.215608 -57.909311 
L 522.912639 -57.993088 
L 520.609669 -58.093949 
L 518.3067 -58.214787 
L 516.003731 -58.358859 
L 513.700761 -58.529804 
L 511.397792 -58.731662 
L 509.094822 -58.968888 
L 506.791853 -59.246353 
L 504.488884 -59.569355 
L 502.185914 -59.943603 
L 499.882945 -60.37521 
L 497.579976 -60.870667 
L 495.277006 -61.436812 
L 492.974037 -62.080792 
L 490.671067 -62.810005 
L 488.368098 -63.632051 
L 486.065129 -64.554654 
L 483.762159 -65.585593 
L 481.45919 -66.732615 
L 479.15622 -68.003349 
L 476.853251 -69.405209 
L 474.550282 -70.9453 
L 472.247312 -72.630319 
L 469.944343 -74.466459 
L 467.641373 -76.459307 
L 465.338404 -78.613756 
L 463.035435 -80.93391 
L 460.732465 -83.423001 
L 458.429496 -86.083304 
L 456.126526 -88.916068 
L 453.823557 -91.921437 
L 451.520588 -95.098391 
L 449.217618 -98.444685 
L 446.914649 -101.956786 
L 444.611679 -105.629824 
L 442.30871 -109.457544 
L 440.005741 -113.432251 
L 437.702771 -117.544772 
L 435.399802 -121.78441 
L 433.096833 -126.138913 
L 430.793863 -130.594442 
L 428.490894 -135.135552 
L 426.187924 -139.745187 
L 423.884955 -144.404689 
L 421.581986 -149.093828 
L 419.279016 -153.79086 
L 416.976047 -158.47261 
L 414.673077 -163.114598 
L 412.370108 -167.69119 
L 410.067139 -172.175808 
L 407.764169 -176.541165 
L 405.4612 -180.759563 
L 403.15823 -184.803218 
L 400.855261 -188.644643 
L 398.552292 -192.257054 
L 396.249322 -195.614815 
L 393.946353 -198.693904 
L 391.643383 -201.472388 
L 389.340414 -203.930903 
L 387.037445 -206.053118 
L 384.734475 -207.826173 
L 382.431506 -209.241078 
L 380.128537 -210.293052 
L 377.825567 -210.981799 
L 375.522598 -211.3117 
L 373.219628 -211.291912 
L 370.916659 -210.936371 
L 368.61369 -210.263687 
L 366.31072 -209.29693 
L 364.007751 -208.063318 
L 361.704781 -206.593793 
L 359.401812 -204.92251 
L 357.098843 -203.086239 
L 354.795873 -201.123704 
L 352.492904 -199.07486 
L 350.189934 -196.980147 
L 347.886965 -194.879718 
L 345.583996 -192.81268 
L 343.281026 -190.816355 
L 340.978057 -188.925585 
L 338.675087 -187.172101 
L 336.372118 -185.583965 
L 334.069149 -184.185102 
L 331.766179 -182.99493 
L 329.46321 -182.028097 
L 327.16024 -181.294327 
L 324.857271 -180.798374 
L 322.554302 -180.540086 
L 320.251332 -180.514562 
L 317.948363 -180.712416 
L 315.645394 -181.120108 
L 313.342424 -181.720356 
L 311.039455 -182.492602 
L 308.736485 -183.413528 
L 306.433516 -184.457587 
L 304.130547 -185.597572 
L 301.827577 -186.805166 
L 299.524608 -188.051499 
L 297.221638 -189.307673 
L 294.918669 -190.545264 
L 292.6157 -191.736774 
L 290.31273 -192.856044 
L 288.009761 -193.878614 
L 285.706791 -194.782022 
L 283.403822 -195.546048 
L 281.100853 -196.152897 
L 278.797883 -196.587325 
L 276.494914 -196.836713 
L 274.191944 -196.891076 
L 271.888975 -196.743044 
L 269.586006 -196.387777 
L 267.283036 -195.822864 
L 264.980067 -195.04818 
L 262.677097 -194.065719 
L 260.374128 -192.879413 
L 258.071159 -191.494941 
L 255.768189 -189.919519 
L 253.46522 -188.161707 
L 251.162251 -186.2312 
L 248.859281 -184.138637 
L 246.556312 -181.895414 
L 244.253342 -179.513501 
L 241.950373 -177.005283 
L 239.647404 -174.383395 
L 237.344434 -171.660582 
L 235.041465 -168.849564 
L 232.738495 -165.962911 
L 230.435526 -163.012926 
L 228.132557 -160.011546 
L 225.829587 -156.970246 
L 223.526618 -153.899951 
L 221.223648 -150.810968 
L 218.920679 -147.712921 
L 216.61771 -144.614707 
L 214.31474 -141.524455 
L 212.011771 -138.449513 
L 209.708801 -135.396436 
L 207.405832 -132.371006 
L 205.102863 -129.378255 
L 202.799893 -126.422507 
L 200.496924 -123.507439 
L 198.193955 -120.636147 
L 195.890985 -117.811223 
L 193.588016 -115.034849 
L 191.285046 -112.308876 
L 188.982077 -109.634922 
L 186.679108 -107.014456 
L 184.376138 -104.448876 
L 182.073169 -101.939585 
L 179.770199 -99.488042 
L 177.46723 -97.095812 
L 175.164261 -94.764592 
L 172.861291 -92.496225 
L 170.558322 -90.29269 
L 168.255352 -88.156091 
L 165.952383 -86.088617 
L 163.649414 -84.092501 
L 161.346444 -82.169962 
L 159.043475 -80.323146 
L 156.740505 -78.554062 
L 154.437536 -76.864517 
L 152.134567 -75.256051 
L 149.831597 -73.729882 
L 147.528628 -72.286856 
L 145.225658 -70.927404 
L 142.922689 -69.651514 
L 140.61972 -68.458711 
L 138.31675 -67.348053 
L 136.013781 -66.318132 
L 133.710812 -65.367093 
L 131.407842 -64.49266 
L 129.104873 -63.692173 
L 126.801903 -62.962627 
L 124.498934 -62.300726 
L 122.195965 -61.702933 
L 119.892995 -61.165525 
L 117.590026 -60.684648 
L 115.287056 -60.256377 
L 112.984087 -59.876759 
L 110.681118 -59.54187 
L 108.378148 -59.247857 
L 106.075179 -58.990974 
L 103.772209 -58.767621 
L 101.46924 -58.574367 
L 99.166271 -58.407973 
L 96.863301 -58.26541 
L 94.560332 -58.143866 
L 92.257362 -58.040755 
L 89.954393 -57.953715 
L 87.651424 -57.880606 
L 85.348454 -57.819505 
L 83.045485 -57.768696 
L 80.742515 -57.726655 
L 78.439546 -57.692044 
L 76.136577 -57.663694 
z
" style="stroke: #e8e5e1"/>
    </defs>
    <g clip-path="url(#p9b2c461a3a)">
     <use xlink:href="#mdbc25c6a08" x="0" y="357.789375" style="fill: #e8e5e1; fill-opacity: 0.5; stroke: #e8e5e1"/>
    </g>
   </g>
   <g id="PolyCollection_2">
    <defs>
     <path id="mb531b9e98f" d="M 103.604815 -57.783766 
L 103.604815 -57.550312 
L 105.204409 -57.550312 
L 106.804004 -57.550312 
L 108.403598 -57.550312 
L 110.003192 -57.550312 
L 111.602786 -57.550312 
L 113.20238 -57.550312 
L 114.801975 -57.550312 
L 116.401569 -57.550312 
L 118.001163 -57.550312 
L 119.600757 -57.550312 
L 121.200351 -57.550312 
L 122.799945 -57.550312 
L 124.39954 -57.550312 
L 125.999134 -57.550312 
L 127.598728 -57.550312 
L 129.198322 -57.550312 
L 130.797916 -57.550312 
L 132.39751 -57.550312 
L 133.997105 -57.550312 
L 135.596699 -57.550312 
L 137.196293 -57.550312 
L 138.795887 -57.550312 
L 140.395481 -57.550312 
L 141.995075 -57.550312 
L 143.59467 -57.550312 
L 145.194264 -57.550312 
L 146.793858 -57.550312 
L 148.393452 -57.550312 
L 149.993046 -57.550312 
L 151.59264 -57.550312 
L 153.192235 -57.550312 
L 154.791829 -57.550312 
L 156.391423 -57.550312 
L 157.991017 -57.550312 
L 159.590611 -57.550312 
L 161.190205 -57.550312 
L 162.7898 -57.550312 
L 164.389394 -57.550312 
L 165.988988 -57.550312 
L 167.588582 -57.550312 
L 169.188176 -57.550312 
L 170.78777 -57.550312 
L 172.387365 -57.550312 
L 173.986959 -57.550312 
L 175.586553 -57.550312 
L 177.186147 -57.550312 
L 178.785741 -57.550312 
L 180.385335 -57.550312 
L 181.98493 -57.550312 
L 183.584524 -57.550312 
L 185.184118 -57.550312 
L 186.783712 -57.550312 
L 188.383306 -57.550312 
L 189.9829 -57.550312 
L 191.582495 -57.550312 
L 193.182089 -57.550312 
L 194.781683 -57.550312 
L 196.381277 -57.550312 
L 197.980871 -57.550312 
L 199.580465 -57.550312 
L 201.18006 -57.550312 
L 202.779654 -57.550312 
L 204.379248 -57.550312 
L 205.978842 -57.550312 
L 207.578436 -57.550312 
L 209.17803 -57.550312 
L 210.777625 -57.550312 
L 212.377219 -57.550312 
L 213.976813 -57.550312 
L 215.576407 -57.550312 
L 217.176001 -57.550312 
L 218.775595 -57.550312 
L 220.37519 -57.550312 
L 221.974784 -57.550312 
L 223.574378 -57.550312 
L 225.173972 -57.550312 
L 226.773566 -57.550312 
L 228.37316 -57.550312 
L 229.972755 -57.550312 
L 231.572349 -57.550312 
L 233.171943 -57.550312 
L 234.771537 -57.550312 
L 236.371131 -57.550312 
L 237.970725 -57.550312 
L 239.57032 -57.550312 
L 241.169914 -57.550312 
L 242.769508 -57.550312 
L 244.369102 -57.550312 
L 245.968696 -57.550312 
L 247.56829 -57.550312 
L 249.167885 -57.550312 
L 250.767479 -57.550312 
L 252.367073 -57.550312 
L 253.966667 -57.550312 
L 255.566261 -57.550312 
L 257.165856 -57.550312 
L 258.76545 -57.550312 
L 260.365044 -57.550312 
L 261.964638 -57.550312 
L 263.564232 -57.550312 
L 265.163826 -57.550312 
L 266.763421 -57.550312 
L 268.363015 -57.550312 
L 269.962609 -57.550312 
L 271.562203 -57.550312 
L 273.161797 -57.550312 
L 274.761391 -57.550312 
L 276.360986 -57.550312 
L 277.96058 -57.550312 
L 279.560174 -57.550312 
L 281.159768 -57.550312 
L 282.759362 -57.550312 
L 284.358956 -57.550312 
L 285.958551 -57.550312 
L 287.558145 -57.550312 
L 289.157739 -57.550312 
L 290.757333 -57.550312 
L 292.356927 -57.550312 
L 293.956521 -57.550312 
L 295.556116 -57.550312 
L 297.15571 -57.550312 
L 298.755304 -57.550312 
L 300.354898 -57.550312 
L 301.954492 -57.550312 
L 303.554086 -57.550312 
L 305.153681 -57.550312 
L 306.753275 -57.550312 
L 308.352869 -57.550312 
L 309.952463 -57.550312 
L 311.552057 -57.550312 
L 313.151651 -57.550312 
L 314.751246 -57.550312 
L 316.35084 -57.550312 
L 317.950434 -57.550312 
L 319.550028 -57.550312 
L 321.149622 -57.550312 
L 322.749216 -57.550312 
L 324.348811 -57.550312 
L 325.948405 -57.550312 
L 327.547999 -57.550312 
L 329.147593 -57.550312 
L 330.747187 -57.550312 
L 332.346781 -57.550312 
L 333.946376 -57.550312 
L 335.54597 -57.550312 
L 337.145564 -57.550312 
L 338.745158 -57.550312 
L 340.344752 -57.550312 
L 341.944346 -57.550312 
L 343.543941 -57.550312 
L 345.143535 -57.550312 
L 346.743129 -57.550312 
L 348.342723 -57.550312 
L 349.942317 -57.550312 
L 351.541911 -57.550312 
L 353.141506 -57.550312 
L 354.7411 -57.550312 
L 356.340694 -57.550312 
L 357.940288 -57.550312 
L 359.539882 -57.550312 
L 361.139476 -57.550312 
L 362.739071 -57.550312 
L 364.338665 -57.550312 
L 365.938259 -57.550312 
L 367.537853 -57.550312 
L 369.137447 -57.550312 
L 370.737041 -57.550312 
L 372.336636 -57.550312 
L 373.93623 -57.550312 
L 375.535824 -57.550312 
L 377.135418 -57.550312 
L 378.735012 -57.550312 
L 380.334606 -57.550312 
L 381.934201 -57.550312 
L 383.533795 -57.550312 
L 385.133389 -57.550312 
L 386.732983 -57.550312 
L 388.332577 -57.550312 
L 389.932172 -57.550312 
L 391.531766 -57.550312 
L 393.13136 -57.550312 
L 394.730954 -57.550312 
L 396.330548 -57.550312 
L 397.930142 -57.550312 
L 399.529737 -57.550312 
L 401.129331 -57.550312 
L 402.728925 -57.550312 
L 404.328519 -57.550312 
L 405.928113 -57.550312 
L 407.527707 -57.550312 
L 409.127302 -57.550312 
L 410.726896 -57.550312 
L 412.32649 -57.550312 
L 413.926084 -57.550312 
L 415.525678 -57.550312 
L 417.125272 -57.550312 
L 418.724867 -57.550312 
L 420.324461 -57.550312 
L 421.924055 -57.550312 
L 421.924055 -57.897979 
L 421.924055 -57.897979 
L 420.324461 -57.980085 
L 418.724867 -58.07908 
L 417.125272 -58.197823 
L 415.525678 -58.339517 
L 413.926084 -58.507722 
L 412.32649 -58.706366 
L 410.726896 -58.939741 
L 409.127302 -59.212496 
L 407.527707 -59.529626 
L 405.928113 -59.896435 
L 404.328519 -60.318507 
L 402.728925 -60.801652 
L 401.129331 -61.351845 
L 399.529737 -61.975151 
L 397.930142 -62.677648 
L 396.330548 -63.465326 
L 394.730954 -64.343991 
L 393.13136 -65.319158 
L 391.531766 -66.395941 
L 389.932172 -67.57895 
L 388.332577 -68.872183 
L 386.732983 -70.278935 
L 385.133389 -71.801716 
L 383.533795 -73.44219 
L 381.934201 -75.201126 
L 380.334606 -77.078382 
L 378.735012 -79.072914 
L 377.135418 -81.182804 
L 375.535824 -83.405334 
L 373.93623 -85.737069 
L 372.336636 -88.173983 
L 370.737041 -90.7116 
L 369.137447 -93.345157 
L 367.537853 -96.069778 
L 365.938259 -98.880663 
L 364.338665 -101.773267 
L 362.739071 -104.74348 
L 361.139476 -107.787788 
L 359.539882 -110.903415 
L 357.940288 -114.088428 
L 356.340694 -117.341817 
L 354.7411 -120.66353 
L 353.141506 -124.054463 
L 351.541911 -127.516411 
L 349.942317 -131.051978 
L 348.342723 -134.664439 
L 346.743129 -138.357577 
L 345.143535 -142.135481 
L 343.543941 -146.002336 
L 341.944346 -149.962189 
L 340.344752 -154.018718 
L 338.745158 -158.175008 
L 337.145564 -162.433343 
L 335.54597 -166.795017 
L 333.946376 -171.260183 
L 332.346781 -175.827733 
L 330.747187 -180.495214 
L 329.147593 -185.258792 
L 327.547999 -190.113244 
L 325.948405 -195.05199 
L 324.348811 -200.067156 
L 322.749216 -205.149657 
L 321.149622 -210.289294 
L 319.550028 -215.474869 
L 317.950434 -220.694286 
L 316.35084 -225.934657 
L 314.751246 -231.182392 
L 313.151651 -236.423269 
L 311.552057 -241.642496 
L 309.952463 -246.824741 
L 308.352869 -251.954161 
L 306.753275 -257.014412 
L 305.153681 -261.988652 
L 303.554086 -266.859557 
L 301.954492 -271.609339 
L 300.354898 -276.219787 
L 298.755304 -280.672341 
L 297.15571 -284.948194 
L 295.556116 -289.028436 
L 293.956521 -292.894246 
L 292.356927 -296.527116 
L 290.757333 -299.90912 
L 289.157739 -303.023217 
L 287.558145 -305.853568 
L 285.958551 -308.385874 
L 284.358956 -310.607698 
L 282.759362 -312.508782 
L 281.159768 -314.081317 
L 279.560174 -315.320166 
L 277.96058 -316.22303 
L 276.360986 -316.790529 
L 274.761391 -317.026205 
L 273.161797 -316.936435 
L 271.562203 -316.530256 
L 269.962609 -315.819108 
L 268.363015 -314.816498 
L 266.763421 -313.537603 
L 265.163826 -311.998829 
L 263.564232 -310.217337 
L 261.964638 -308.210566 
L 260.365044 -305.995772 
L 258.76545 -303.589596 
L 257.165856 -301.00769 
L 255.566261 -298.264415 
L 253.966667 -295.372621 
L 252.367073 -292.343521 
L 250.767479 -289.186656 
L 249.167885 -285.909961 
L 247.56829 -282.519918 
L 245.968696 -279.021785 
L 244.369102 -275.419887 
L 242.769508 -271.71796 
L 241.169914 -267.919504 
L 239.57032 -264.028163 
L 237.970725 -260.048061 
L 236.371131 -255.984124 
L 234.771537 -251.842335 
L 233.171943 -247.629918 
L 231.572349 -243.355455 
L 229.972755 -239.028903 
L 228.37316 -234.661534 
L 226.773566 -230.265788 
L 225.173972 -225.85505 
L 223.574378 -221.443363 
L 221.974784 -217.045091 
L 220.37519 -212.674546 
L 218.775595 -208.345608 
L 217.176001 -204.071336 
L 215.576407 -199.863611 
L 213.976813 -195.732816 
L 212.377219 -191.687557 
L 210.777625 -187.734463 
L 209.17803 -183.878049 
L 207.578436 -180.120652 
L 205.978842 -176.462455 
L 204.379248 -172.901572 
L 202.779654 -169.434215 
L 201.18006 -166.05491 
L 199.580465 -162.756771 
L 197.980871 -159.531808 
L 196.381277 -156.371258 
L 194.781683 -153.265934 
L 193.182089 -150.206562 
L 191.582495 -147.184116 
L 189.9829 -144.19012 
L 188.383306 -141.216917 
L 186.783712 -138.257906 
L 185.184118 -135.307719 
L 183.584524 -132.362364 
L 181.98493 -129.419306 
L 180.385335 -126.47751 
L 178.785741 -123.537424 
L 177.186147 -120.60093 
L 175.586553 -117.671254 
L 173.986959 -114.752842 
L 172.387365 -111.851205 
L 170.78777 -108.972755 
L 169.188176 -106.124617 
L 167.588582 -103.314433 
L 165.988988 -100.550172 
L 164.389394 -97.839936 
L 162.7898 -95.191773 
L 161.190205 -92.613507 
L 159.590611 -90.112576 
L 157.991017 -87.695895 
L 156.391423 -85.369732 
L 154.791829 -83.139606 
L 153.192235 -81.010213 
L 151.59264 -78.98536 
L 149.993046 -77.067939 
L 148.393452 -75.259904 
L 146.793858 -73.562278 
L 145.194264 -71.975176 
L 143.59467 -70.497841 
L 141.995075 -69.128698 
L 140.395481 -67.865418 
L 138.795887 -66.704991 
L 137.196293 -65.643809 
L 135.596699 -64.677751 
L 133.997105 -63.802273 
L 132.39751 -63.012494 
L 130.797916 -62.303289 
L 129.198322 -61.669371 
L 127.598728 -61.105369 
L 125.999134 -60.605908 
L 124.39954 -60.165667 
L 122.799945 -59.779446 
L 121.200351 -59.442215 
L 119.600757 -59.149152 
L 118.001163 -58.895683 
L 116.401569 -58.677502 
L 114.801975 -58.490597 
L 113.20238 -58.33125 
L 111.602786 -58.196054 
L 110.003192 -58.081901 
L 108.403598 -57.985982 
L 106.804004 -57.905775 
L 105.204409 -57.839033 
L 103.604815 -57.783766 
z
" style="stroke: #d4a84b"/>
    </defs>
    <g clip-path="url(#p9b2c461a3a)">
     <use xlink:href="#mb531b9e98f" x="0" y="357.789375" style="fill: #d4a84b; fill-opacity: 0.7; stroke: #d4a84b"/>
    </g>
   </g>
   <g id="patch_3">
    <path d="M 53.222031 300.239062 
L 53.222031 27.789375 
" style="fill: none; stroke: #d8d4cf; stroke-width: 1.25; stroke-linejoin: miter; stroke-linecap: square"/>
   </g>
   <g id="patch_4">
    <path d="M 557.342031 300.239062 
L 557.342031 27.789375 
" style="fill: none; stroke: #d8d4cf; stroke-width: 1.25; stroke-linejoin: miter; stroke-linecap: square"/>
   </g>
   <g id="patch_5">
    <path d="M 53.222031 300.239062 
L 557.342031 300.239062 
" style="fill: none; stroke: #d8d4cf; stroke-width: 1.25; stroke-linejoin: miter; stroke-linecap: square"/>
   </g>
   <g id="patch_6">
    <path d="M 53.222031 27.789375 
L 557.342031 27.789375 
" style="fill: none; stroke: #d8d4cf; stroke-width: 1.25; stroke-linejoin: miter; stroke-linecap: square"/>
   </g>
   <g id="text_16">
    <!-- Brain Project Budgets vs All Megaprojects -->
    <g style="fill: #3a3a48" transform="translate(184.483281 15.789375) scale(0.12 -0.12)">
     <defs>
      <path id="Arial-BoldMT-42" d="M 469 4581 
L 2300 4581 
Q 2844 4581 3111 4536 
Q 3378 4491 3589 4347 
Q 3800 4203 3940 3964 
Q 4081 3725 4081 3428 
Q 4081 3106 3907 2837 
Q 3734 2569 3438 2434 
Q 3856 2313 4081 2019 
Q 4306 1725 4306 1328 
Q 4306 1016 4161 720 
Q 4016 425 3764 248 
Q 3513 72 3144 31 
Q 2913 6 2028 0 
L 469 0 
L 469 4581 
z
M 1394 3819 
L 1394 2759 
L 2000 2759 
Q 2541 2759 2672 2775 
Q 2909 2803 3045 2939 
Q 3181 3075 3181 3297 
Q 3181 3509 3064 3642 
Q 2947 3775 2716 3803 
Q 2578 3819 1925 3819 
L 1394 3819 
z
M 1394 1997 
L 1394 772 
L 2250 772 
Q 2750 772 2884 800 
Q 3091 838 3220 983 
Q 3350 1128 3350 1372 
Q 3350 1578 3250 1722 
Q 3150 1866 2961 1931 
Q 2772 1997 2141 1997 
L 1394 1997 
z
" transform="scale(0.015625)"/>
      <path id="Arial-BoldMT-72" d="M 1300 0 
L 422 0 
L 422 3319 
L 1238 3319 
L 1238 2847 
Q 1447 3181 1614 3287 
Q 1781 3394 1994 3394 
Q 2294 3394 2572 3228 
L 2300 2463 
Q 2078 2606 1888 2606 
Q 1703 2606 1575 2504 
Q 1447 2403 1373 2137 
Q 1300 1872 1300 1025 
L 1300 0 
z
" transform="scale(0.015625)"/>
      <path id="Arial-BoldMT-61" d="M 1116 2306 
L 319 2450 
Q 453 2931 781 3162 
Q 1109 3394 1756 3394 
Q 2344 3394 2631 3255 
Q 2919 3116 3036 2902 
Q 3153 2688 3153 2116 
L 3144 1091 
Q 3144 653 3186 445 
Q 3228 238 3344 0 
L 2475 0 
Q 2441 88 2391 259 
Q 2369 338 2359 363 
Q 2134 144 1878 34 
Q 1622 -75 1331 -75 
Q 819 -75 523 203 
Q 228 481 228 906 
Q 228 1188 362 1408 
Q 497 1628 739 1745 
Q 981 1863 1438 1950 
Q 2053 2066 2291 2166 
L 2291 2253 
Q 2291 2506 2166 2614 
Q 2041 2722 1694 2722 
Q 1459 2722 1328 2630 
Q 1197 2538 1116 2306 
z
M 2291 1594 
Q 2122 1538 1756 1459 
Q 1391 1381 1278 1306 
Q 1106 1184 1106 997 
Q 1106 813 1243 678 
Q 1381 544 1594 544 
Q 1831 544 2047 700 
Q 2206 819 2256 991 
Q 2291 1103 2291 1419 
L 2291 1594 
z
" transform="scale(0.015625)"/>
      <path id="Arial-BoldMT-69" d="M 459 3769 
L 459 4581 
L 1338 4581 
L 1338 3769 
L 459 3769 
z
M 459 0 
L 459 3319 
L 1338 3319 
L 1338 0 
L 459 0 
z
" transform="scale(0.015625)"/>
      <path id="Arial-BoldMT-6e" d="M 3478 0 
L 2600 0 
L 2600 1694 
Q 2600 2231 2544 2389 
Q 2488 2547 2361 2634 
Q 2234 2722 2056 2722 
Q 1828 2722 1647 2597 
Q 1466 2472 1398 2265 
Q 1331 2059 1331 1503 
L 1331 0 
L 453 0 
L 453 3319 
L 1269 3319 
L 1269 2831 
Q 1703 3394 2363 3394 
Q 2653 3394 2893 3289 
Q 3134 3184 3257 3021 
Q 3381 2859 3429 2653 
Q 3478 2447 3478 2063 
L 3478 0 
z
" transform="scale(0.015625)"/>
      <path id="Arial-BoldMT-20" transform="scale(0.015625)"/>
      <path id="Arial-BoldMT-50" d="M 466 0 
L 466 4581 
L 1950 4581 
Q 2794 4581 3050 4513 
Q 3444 4409 3709 4064 
Q 3975 3719 3975 3172 
Q 3975 2750 3822 2462 
Q 3669 2175 3433 2011 
Q 3197 1847 2953 1794 
Q 2622 1728 1994 1728 
L 1391 1728 
L 1391 0 
L 466 0 
z
M 1391 3806 
L 1391 2506 
L 1897 2506 
Q 2444 2506 2628 2578 
Q 2813 2650 2917 2803 
Q 3022 2956 3022 3159 
Q 3022 3409 2875 3571 
Q 2728 3734 2503 3775 
Q 2338 3806 1838 3806 
L 1391 3806 
z
" transform="scale(0.015625)"/>
      <path id="Arial-BoldMT-6f" d="M 256 1706 
Q 256 2144 472 2553 
Q 688 2963 1083 3178 
Q 1478 3394 1966 3394 
Q 2719 3394 3200 2905 
Q 3681 2416 3681 1669 
Q 3681 916 3195 420 
Q 2709 -75 1972 -75 
Q 1516 -75 1102 131 
Q 688 338 472 736 
Q 256 1134 256 1706 
z
M 1156 1659 
Q 1156 1166 1390 903 
Q 1625 641 1969 641 
Q 2313 641 2545 903 
Q 2778 1166 2778 1666 
Q 2778 2153 2545 2415 
Q 2313 2678 1969 2678 
Q 1625 2678 1390 2415 
Q 1156 2153 1156 1659 
z
" transform="scale(0.015625)"/>
      <path id="Arial-BoldMT-6a" d="M 441 3769 
L 441 4581 
L 1319 4581 
L 1319 3769 
L 441 3769 
z
M 1319 3319 
L 1319 103 
Q 1319 -531 1236 -792 
Q 1153 -1053 917 -1200 
Q 681 -1347 316 -1347 
Q 184 -1347 32 -1323 
Q -119 -1300 -294 -1253 
L -141 -503 
Q -78 -516 -23 -523 
Q 31 -531 78 -531 
Q 213 -531 298 -473 
Q 384 -416 412 -334 
Q 441 -253 441 153 
L 441 3319 
L 1319 3319 
z
" transform="scale(0.015625)"/>
      <path id="Arial-BoldMT-65" d="M 2381 1056 
L 3256 909 
Q 3088 428 2723 176 
Q 2359 -75 1813 -75 
Q 947 -75 531 491 
Q 203 944 203 1634 
Q 203 2459 634 2926 
Q 1066 3394 1725 3394 
Q 2466 3394 2894 2905 
Q 3322 2416 3303 1406 
L 1103 1406 
Q 1113 1016 1316 798 
Q 1519 581 1822 581 
Q 2028 581 2168 693 
Q 2309 806 2381 1056 
z
M 2431 1944 
Q 2422 2325 2234 2523 
Q 2047 2722 1778 2722 
Q 1491 2722 1303 2513 
Q 1116 2303 1119 1944 
L 2431 1944 
z
" transform="scale(0.015625)"/>
      <path id="Arial-BoldMT-63" d="M 3353 2338 
L 2488 2181 
Q 2444 2441 2289 2572 
Q 2134 2703 1888 2703 
Q 1559 2703 1364 2476 
Q 1169 2250 1169 1719 
Q 1169 1128 1367 884 
Q 1566 641 1900 641 
Q 2150 641 2309 783 
Q 2469 925 2534 1272 
L 3397 1125 
Q 3263 531 2881 228 
Q 2500 -75 1859 -75 
Q 1131 -75 698 384 
Q 266 844 266 1656 
Q 266 2478 700 2936 
Q 1134 3394 1875 3394 
Q 2481 3394 2839 3133 
Q 3197 2872 3353 2338 
z
" transform="scale(0.015625)"/>
      <path id="Arial-BoldMT-74" d="M 1981 3319 
L 1981 2619 
L 1381 2619 
L 1381 1281 
Q 1381 875 1398 808 
Q 1416 741 1477 697 
Q 1538 653 1625 653 
Q 1747 653 1978 738 
L 2053 56 
Q 1747 -75 1359 -75 
Q 1122 -75 931 4 
Q 741 84 652 211 
Q 563 338 528 553 
Q 500 706 500 1172 
L 500 2619 
L 97 2619 
L 97 3319 
L 500 3319 
L 500 3978 
L 1381 4491 
L 1381 3319 
L 1981 3319 
z
" transform="scale(0.015625)"/>
      <path id="Arial-BoldMT-75" d="M 2644 0 
L 2644 497 
Q 2463 231 2167 78 
Q 1872 -75 1544 -75 
Q 1209 -75 943 72 
Q 678 219 559 484 
Q 441 750 441 1219 
L 441 3319 
L 1319 3319 
L 1319 1794 
Q 1319 1094 1367 936 
Q 1416 778 1544 686 
Q 1672 594 1869 594 
Q 2094 594 2272 717 
Q 2450 841 2515 1023 
Q 2581 1206 2581 1919 
L 2581 3319 
L 3459 3319 
L 3459 0 
L 2644 0 
z
" transform="scale(0.015625)"/>
      <path id="Arial-BoldMT-64" d="M 3503 0 
L 2688 0 
L 2688 488 
Q 2484 203 2207 64 
Q 1931 -75 1650 -75 
Q 1078 -75 670 386 
Q 263 847 263 1672 
Q 263 2516 659 2955 
Q 1056 3394 1663 3394 
Q 2219 3394 2625 2931 
L 2625 4581 
L 3503 4581 
L 3503 0 
z
M 1159 1731 
Q 1159 1200 1306 963 
Q 1519 619 1900 619 
Q 2203 619 2415 876 
Q 2628 1134 2628 1647 
Q 2628 2219 2422 2470 
Q 2216 2722 1894 2722 
Q 1581 2722 1370 2473 
Q 1159 2225 1159 1731 
z
" transform="scale(0.015625)"/>
      <path id="Arial-BoldMT-67" d="M 378 -219 
L 1381 -341 
Q 1406 -516 1497 -581 
Q 1622 -675 1891 -675 
Q 2234 -675 2406 -572 
Q 2522 -503 2581 -350 
Q 2622 -241 2622 53 
L 2622 538 
Q 2228 0 1628 0 
Q 959 0 569 566 
Q 263 1013 263 1678 
Q 263 2513 664 2953 
Q 1066 3394 1663 3394 
Q 2278 3394 2678 2853 
L 2678 3319 
L 3500 3319 
L 3500 341 
Q 3500 -247 3403 -537 
Q 3306 -828 3131 -993 
Q 2956 -1159 2664 -1253 
Q 2372 -1347 1925 -1347 
Q 1081 -1347 728 -1058 
Q 375 -769 375 -325 
Q 375 -281 378 -219 
z
M 1163 1728 
Q 1163 1200 1367 954 
Q 1572 709 1872 709 
Q 2194 709 2416 961 
Q 2638 1213 2638 1706 
Q 2638 2222 2425 2472 
Q 2213 2722 1888 2722 
Q 1572 2722 1367 2476 
Q 1163 2231 1163 1728 
z
" transform="scale(0.015625)"/>
      <path id="Arial-BoldMT-73" d="M 150 947 
L 1031 1081 
Q 1088 825 1259 692 
Q 1431 559 1741 559 
Q 2081 559 2253 684 
Q 2369 772 2369 919 
Q 2369 1019 2306 1084 
Q 2241 1147 2013 1200 
Q 950 1434 666 1628 
Q 272 1897 272 2375 
Q 272 2806 612 3100 
Q 953 3394 1669 3394 
Q 2350 3394 2681 3172 
Q 3013 2950 3138 2516 
L 2309 2363 
Q 2256 2556 2107 2659 
Q 1959 2763 1684 2763 
Q 1338 2763 1188 2666 
Q 1088 2597 1088 2488 
Q 1088 2394 1175 2328 
Q 1294 2241 1995 2081 
Q 2697 1922 2975 1691 
Q 3250 1456 3250 1038 
Q 3250 581 2869 253 
Q 2488 -75 1741 -75 
Q 1063 -75 667 200 
Q 272 475 150 947 
z
" transform="scale(0.015625)"/>
      <path id="Arial-BoldMT-76" d="M 1372 0 
L 34 3319 
L 956 3319 
L 1581 1625 
L 1763 1059 
Q 1834 1275 1853 1344 
Q 1897 1484 1947 1625 
L 2578 3319 
L 3481 3319 
L 2163 0 
L 1372 0 
z
" transform="scale(0.015625)"/>
      <path id="Arial-BoldMT-41" d="M 4597 0 
L 3591 0 
L 3191 1041 
L 1359 1041 
L 981 0 
L 0 0 
L 1784 4581 
L 2763 4581 
L 4597 0 
z
M 2894 1813 
L 2263 3513 
L 1644 1813 
L 2894 1813 
z
" transform="scale(0.015625)"/>
      <path id="Arial-BoldMT-6c" d="M 459 0 
L 459 4581 
L 1338 4581 
L 1338 0 
L 459 0 
z
" transform="scale(0.015625)"/>
      <path id="Arial-BoldMT-4d" d="M 453 0 
L 453 4581 
L 1838 4581 
L 2669 1456 
L 3491 4581 
L 4878 4581 
L 4878 0 
L 4019 0 
L 4019 3606 
L 3109 0 
L 2219 0 
L 1313 3606 
L 1313 0 
L 453 0 
z
" transform="scale(0.015625)"/>
      <path id="Arial-BoldMT-70" d="M 434 3319 
L 1253 3319 
L 1253 2831 
Q 1413 3081 1684 3237 
Q 1956 3394 2288 3394 
Q 2866 3394 3269 2941 
Q 3672 2488 3672 1678 
Q 3672 847 3265 386 
Q 2859 -75 2281 -75 
Q 2006 -75 1782 34 
Q 1559 144 1313 409 
L 1313 -1263 
L 434 -1263 
L 434 3319 
z
M 1303 1716 
Q 1303 1156 1525 889 
Q 1747 622 2066 622 
Q 2372 622 2575 867 
Q 2778 1113 2778 1672 
Q 2778 2194 2568 2447 
Q 2359 2700 2050 2700 
Q 1728 2700 1515 2451 
Q 1303 2203 1303 1716 
z
" transform="scale(0.015625)"/>
     </defs>
     <use xlink:href="#Arial-BoldMT-42"/>
     <use xlink:href="#Arial-BoldMT-72" x="72.216797"/>
     <use xlink:href="#Arial-BoldMT-61" x="111.132812"/>
     <use xlink:href="#Arial-BoldMT-69" x="166.748047"/>
     <use xlink:href="#Arial-BoldMT-6e" x="194.53125"/>
     <use xlink:href="#Arial-BoldMT-20" x="255.615234"/>
     <use xlink:href="#Arial-BoldMT-50" x="283.398438"/>
     <use xlink:href="#Arial-BoldMT-72" x="350.097656"/>
     <use xlink:href="#Arial-BoldMT-6f" x="389.013672"/>
     <use xlink:href="#Arial-BoldMT-6a" x="450.097656"/>
     <use xlink:href="#Arial-BoldMT-65" x="477.880859"/>
     <use xlink:href="#Arial-BoldMT-63" x="533.496094"/>
     <use xlink:href="#Arial-BoldMT-74" x="589.111328"/>
     <use xlink:href="#Arial-BoldMT-20" x="622.412109"/>
     <use xlink:href="#Arial-BoldMT-42" x="650.195312"/>
     <use xlink:href="#Arial-BoldMT-75" x="722.412109"/>
     <use xlink:href="#Arial-BoldMT-64" x="783.496094"/>
     <use xlink:href="#Arial-BoldMT-67" x="844.580078"/>
     <use xlink:href="#Arial-BoldMT-65" x="905.664062"/>
     <use xlink:href="#Arial-BoldMT-74" x="961.279297"/>
     <use xlink:href="#Arial-BoldMT-73" x="994.580078"/>
     <use xlink:href="#Arial-BoldMT-20" x="1050.195312"/>
     <use xlink:href="#Arial-BoldMT-76" x="1077.978516"/>
     <use xlink:href="#Arial-BoldMT-73" x="1133.59375"/>
     <use xlink:href="#Arial-BoldMT-20" x="1189.208984"/>
     <use xlink:href="#Arial-BoldMT-41" x="1213.242188"/>
     <use xlink:href="#Arial-BoldMT-6c" x="1285.458984"/>
     <use xlink:href="#Arial-BoldMT-6c" x="1313.242188"/>
     <use xlink:href="#Arial-BoldMT-20" x="1341.025391"/>
     <use xlink:href="#Arial-BoldMT-4d" x="1368.808594"/>
     <use xlink:href="#Arial-BoldMT-65" x="1452.109375"/>
     <use xlink:href="#Arial-BoldMT-67" x="1507.724609"/>
     <use xlink:href="#Arial-BoldMT-61" x="1568.808594"/>
     <use xlink:href="#Arial-BoldMT-70" x="1624.423828"/>
     <use xlink:href="#Arial-BoldMT-72" x="1685.507812"/>
     <use xlink:href="#Arial-BoldMT-6f" x="1724.423828"/>
     <use xlink:href="#Arial-BoldMT-6a" x="1785.507812"/>
     <use xlink:href="#Arial-BoldMT-65" x="1813.291016"/>
     <use xlink:href="#Arial-BoldMT-63" x="1868.90625"/>
     <use xlink:href="#Arial-BoldMT-74" x="1924.521484"/>
     <use xlink:href="#Arial-BoldMT-73" x="1957.822266"/>
    </g>
   </g>
   <g id="legend_1">
    <g id="patch_7">
     <path d="M 444.994219 69.066875 
L 549.642031 69.066875 
Q 551.842031 69.066875 551.842031 66.866875 
L 551.842031 35.489375 
Q 551.842031 33.289375 549.642031 33.289375 
L 444.994219 33.289375 
Q 442.794219 33.289375 442.794219 35.489375 
L 442.794219 66.866875 
Q 442.794219 69.066875 444.994219 69.066875 
z
" style="fill: #ffffff; opacity: 0.9; stroke: #e8e5e1; stroke-linejoin: miter"/>
    </g>
    <g id="patch_8">
     <path d="M 448.294219 46.662969 
L 470.294219 46.662969 
L 470.294219 38.962969 
L 448.294219 38.962969 
z
" style="fill: #e8e5e1; fill-opacity: 0.5; stroke: #e8e5e1; stroke-linejoin: miter"/>
    </g>
    <g id="text_17">
     <!-- All projects -->
     <g style="fill: #4a4a5a" transform="translate(479.094219 46.662969) scale(0.11 -0.11)">
      <defs>
       <path id="ArialMT-41" d="M -9 0 
L 1750 4581 
L 2403 4581 
L 4278 0 
L 3588 0 
L 3053 1388 
L 1138 1388 
L 634 0 
L -9 0 
z
M 1313 1881 
L 2866 1881 
L 2388 3150 
Q 2169 3728 2063 4100 
Q 1975 3659 1816 3225 
L 1313 1881 
z
" transform="scale(0.015625)"/>
       <path id="ArialMT-70" d="M 422 -1272 
L 422 3319 
L 934 3319 
L 934 2888 
Q 1116 3141 1344 3267 
Q 1572 3394 1897 3394 
Q 2322 3394 2647 3175 
Q 2972 2956 3137 2557 
Q 3303 2159 3303 1684 
Q 3303 1175 3120 767 
Q 2938 359 2589 142 
Q 2241 -75 1856 -75 
Q 1575 -75 1351 44 
Q 1128 163 984 344 
L 984 -1272 
L 422 -1272 
z
M 931 1641 
Q 931 1000 1190 694 
Q 1450 388 1819 388 
Q 2194 388 2461 705 
Q 2728 1022 2728 1688 
Q 2728 2322 2467 2637 
Q 2206 2953 1844 2953 
Q 1484 2953 1207 2617 
Q 931 2281 931 1641 
z
" transform="scale(0.015625)"/>
       <path id="ArialMT-72" d="M 416 0 
L 416 3319 
L 922 3319 
L 922 2816 
Q 1116 3169 1280 3281 
Q 1444 3394 1641 3394 
Q 1925 3394 2219 3213 
L 2025 2691 
Q 1819 2813 1613 2813 
Q 1428 2813 1281 2702 
Q 1134 2591 1072 2394 
Q 978 2094 978 1738 
L 978 0 
L 416 0 
z
" transform="scale(0.015625)"/>
       <path id="ArialMT-6a" d="M 419 3928 
L 419 4581 
L 981 4581 
L 981 3928 
L 419 3928 
z
M -294 -1288 
L -188 -809 
Q -19 -853 78 -853 
Q 250 -853 334 -739 
Q 419 -625 419 -169 
L 419 3319 
L 981 3319 
L 981 -181 
Q 981 -794 822 -1034 
Q 619 -1347 147 -1347 
Q -81 -1347 -294 -1288 
z
" transform="scale(0.015625)"/>
       <path id="ArialMT-63" d="M 2588 1216 
L 3141 1144 
Q 3050 572 2676 248 
Q 2303 -75 1759 -75 
Q 1078 -75 664 370 
Q 250 816 250 1647 
Q 250 2184 428 2587 
Q 606 2991 970 3192 
Q 1334 3394 1763 3394 
Q 2303 3394 2647 3120 
Q 2991 2847 3088 2344 
L 2541 2259 
Q 2463 2594 2264 2762 
Q 2066 2931 1784 2931 
Q 1359 2931 1093 2626 
Q 828 2322 828 1663 
Q 828 994 1084 691 
Q 1341 388 1753 388 
Q 2084 388 2306 591 
Q 2528 794 2588 1216 
z
" transform="scale(0.015625)"/>
      </defs>
      <use xlink:href="#ArialMT-41"/>
      <use xlink:href="#ArialMT-6c" x="66.699219"/>
      <use xlink:href="#ArialMT-6c" x="88.916016"/>
      <use xlink:href="#ArialMT-20" x="111.132812"/>
      <use xlink:href="#ArialMT-70" x="138.916016"/>
      <use xlink:href="#ArialMT-72" x="194.53125"/>
      <use xlink:href="#ArialMT-6f" x="227.832031"/>
      <use xlink:href="#ArialMT-6a" x="283.447266"/>
      <use xlink:href="#ArialMT-65" x="305.664062"/>
      <use xlink:href="#ArialMT-63" x="361.279297"/>
      <use xlink:href="#ArialMT-74" x="411.279297"/>
      <use xlink:href="#ArialMT-73" x="439.0625"/>
     </g>
    </g>
    <g id="patch_9">
     <path d="M 448.294219 61.251719 
L 470.294219 61.251719 
L 470.294219 53.551719 
L 448.294219 53.551719 
z
" style="fill: #d4a84b; fill-opacity: 0.7; stroke: #d4a84b; stroke-linejoin: miter"/>
    </g>
    <g id="text_18">
     <!-- Brain projects -->
     <g style="fill: #4a4a5a" transform="translate(479.094219 61.251719) scale(0.11 -0.11)">
      <defs>
       <path id="ArialMT-61" d="M 2588 409 
Q 2275 144 1986 34 
Q 1697 -75 1366 -75 
Q 819 -75 525 192 
Q 231 459 231 875 
Q 231 1119 342 1320 
Q 453 1522 633 1644 
Q 813 1766 1038 1828 
Q 1203 1872 1538 1913 
Q 2219 1994 2541 2106 
Q 2544 2222 2544 2253 
Q 2544 2597 2384 2738 
Q 2169 2928 1744 2928 
Q 1347 2928 1158 2789 
Q 969 2650 878 2297 
L 328 2372 
Q 403 2725 575 2942 
Q 747 3159 1072 3276 
Q 1397 3394 1825 3394 
Q 2250 3394 2515 3294 
Q 2781 3194 2906 3042 
Q 3031 2891 3081 2659 
Q 3109 2516 3109 2141 
L 3109 1391 
Q 3109 606 3145 398 
Q 3181 191 3288 0 
L 2700 0 
Q 2613 175 2588 409 
z
M 2541 1666 
Q 2234 1541 1622 1453 
Q 1275 1403 1131 1340 
Q 988 1278 909 1158 
Q 831 1038 831 891 
Q 831 666 1001 516 
Q 1172 366 1500 366 
Q 1825 366 2078 508 
Q 2331 650 2450 897 
Q 2541 1088 2541 1459 
L 2541 1666 
z
" transform="scale(0.015625)"/>
      </defs>
      <use xlink:href="#ArialMT-42"/>
      <use xlink:href="#ArialMT-72" x="66.699219"/>
      <use xlink:href="#ArialMT-61" x="100"/>
      <use xlink:href="#ArialMT-69" x="155.615234"/>
      <use xlink:href="#ArialMT-6e" x="177.832031"/>
      <use xlink:href="#ArialMT-20" x="233.447266"/>
      <use xlink:href="#ArialMT-70" x="261.230469"/>
      <use xlink:href="#ArialMT-72" x="316.845703"/>
      <use xlink:href="#ArialMT-6f" x="350.146484"/>
      <use xlink:href="#ArialMT-6a" x="405.761719"/>
      <use xlink:href="#ArialMT-65" x="427.978516"/>
      <use xlink:href="#ArialMT-63" x="483.59375"/>
      <use xlink:href="#ArialMT-74" x="533.59375"/>
      <use xlink:href="#ArialMT-73" x="561.376953"/>
     </g>
    </g>
   </g>
  </g>
  <g id="text_19">
   <!-- Zanichelli, Schons et al, State of Brain Emulation Report 2025 -->
   <g style="fill: #787470" transform="translate(372.723438 349.198125) scale(0.07 -0.07)">
    <defs>
     <path id="Arial-ItalicMT-5a" d="M 156 0 
L 216 459 
L 2509 3200 
L 2984 3775 
Q 3128 3950 3263 4097 
Q 2972 4063 2856 4063 
L 2706 4066 
L 2525 4063 
L 2347 4059 
L 806 4059 
L 916 4581 
L 4075 4581 
L 4022 4103 
L 1563 1181 
Q 1109 641 988 503 
Q 1125 522 1166 522 
L 3663 522 
L 3553 0 
L 156 0 
z
" transform="scale(0.015625)"/>
     <path id="Arial-ItalicMT-61" d="M 2450 413 
Q 2156 159 1884 42 
Q 1613 -75 1303 -75 
Q 844 -75 562 195 
Q 281 466 281 888 
Q 281 1166 407 1380 
Q 534 1594 743 1723 
Q 953 1853 1256 1909 
Q 1447 1947 1980 1969 
Q 2513 1991 2744 2081 
Q 2809 2313 2809 2466 
Q 2809 2663 2666 2775 
Q 2469 2931 2091 2931 
Q 1734 2931 1507 2773 
Q 1281 2616 1178 2325 
L 606 2375 
Q 781 2869 1161 3131 
Q 1541 3394 2119 3394 
Q 2734 3394 3094 3100 
Q 3369 2881 3369 2531 
Q 3369 2266 3291 1916 
L 3106 1091 
Q 3019 697 3019 450 
Q 3019 294 3088 0 
L 2516 0 
Q 2469 163 2450 413 
z
M 2659 1681 
Q 2541 1634 2405 1609 
Q 2269 1584 1950 1556 
Q 1456 1513 1253 1445 
Q 1050 1378 947 1231 
Q 844 1084 844 906 
Q 844 669 1008 516 
Q 1172 363 1475 363 
Q 1756 363 2015 511 
Q 2275 659 2425 925 
Q 2575 1191 2659 1681 
z
" transform="scale(0.015625)"/>
     <path id="Arial-ItalicMT-6e" d="M 213 0 
L 906 3319 
L 1419 3319 
L 1297 2741 
Q 1631 3081 1922 3237 
Q 2213 3394 2516 3394 
Q 2919 3394 3148 3175 
Q 3378 2956 3378 2591 
Q 3378 2406 3297 2009 
L 2875 0 
L 2309 0 
L 2750 2103 
Q 2816 2409 2816 2556 
Q 2816 2722 2702 2825 
Q 2588 2928 2372 2928 
Q 1938 2928 1598 2615 
Q 1259 2303 1100 1544 
L 778 0 
L 213 0 
z
" transform="scale(0.015625)"/>
     <path id="Arial-ItalicMT-69" d="M 1016 3941 
L 1150 4581 
L 1713 4581 
L 1578 3941 
L 1016 3941 
z
M 191 0 
L 884 3319 
L 1450 3319 
L 756 0 
L 191 0 
z
" transform="scale(0.015625)"/>
     <path id="Arial-ItalicMT-63" d="M 2503 1209 
L 3069 1150 
Q 2856 528 2464 226 
Q 2072 -75 1572 -75 
Q 1031 -75 695 275 
Q 359 625 359 1253 
Q 359 1797 575 2322 
Q 791 2847 1192 3120 
Q 1594 3394 2109 3394 
Q 2644 3394 2956 3092 
Q 3269 2791 3269 2294 
L 2713 2256 
Q 2709 2572 2529 2750 
Q 2350 2928 2056 2928 
Q 1716 2928 1466 2712 
Q 1216 2497 1073 2058 
Q 931 1619 931 1213 
Q 931 788 1118 575 
Q 1306 363 1581 363 
Q 1856 363 2107 572 
Q 2359 781 2503 1209 
z
" transform="scale(0.015625)"/>
     <path id="Arial-ItalicMT-68" d="M 213 0 
L 1169 4581 
L 1734 4581 
L 1369 2822 
Q 1684 3128 1956 3261 
Q 2228 3394 2516 3394 
Q 2928 3394 3156 3176 
Q 3384 2959 3384 2603 
Q 3384 2428 3284 1959 
L 2875 0 
L 2309 0 
L 2731 2009 
Q 2822 2447 2822 2559 
Q 2822 2722 2709 2825 
Q 2597 2928 2384 2928 
Q 2078 2928 1800 2767 
Q 1522 2606 1364 2326 
Q 1206 2047 1075 1425 
L 778 0 
L 213 0 
z
" transform="scale(0.015625)"/>
     <path id="Arial-ItalicMT-65" d="M 2650 1128 
L 3200 1072 
Q 3081 663 2654 294 
Q 2228 -75 1638 -75 
Q 1269 -75 961 95 
Q 653 266 492 591 
Q 331 916 331 1331 
Q 331 1875 582 2386 
Q 834 2897 1234 3145 
Q 1634 3394 2100 3394 
Q 2694 3394 3048 3025 
Q 3403 2656 3403 2019 
Q 3403 1775 3359 1519 
L 916 1519 
Q 903 1422 903 1344 
Q 903 878 1117 633 
Q 1331 388 1641 388 
Q 1931 388 2212 578 
Q 2494 769 2650 1128 
z
M 1006 1950 
L 2869 1950 
Q 2872 2038 2872 2075 
Q 2872 2500 2659 2726 
Q 2447 2953 2113 2953 
Q 1750 2953 1451 2703 
Q 1153 2453 1006 1950 
z
" transform="scale(0.015625)"/>
     <path id="Arial-ItalicMT-6c" d="M 169 0 
L 1125 4581 
L 1691 4581 
L 734 0 
L 169 0 
z
" transform="scale(0.015625)"/>
     <path id="Arial-ItalicMT-2c" d="M 347 0 
L 481 641 
L 1125 641 
L 1009 81 
Q 903 -422 679 -656 
Q 456 -891 153 -925 
L 206 -678 
Q 578 -575 697 0 
L 347 0 
z
" transform="scale(0.015625)"/>
     <path id="Arial-ItalicMT-20" transform="scale(0.015625)"/>
     <path id="Arial-ItalicMT-53" d="M 450 1481 
L 1050 1538 
L 1044 1378 
Q 1044 1113 1166 892 
Q 1288 672 1569 551 
Q 1850 431 2238 431 
Q 2788 431 3077 672 
Q 3366 913 3366 1222 
Q 3366 1438 3213 1616 
Q 3056 1791 2359 2091 
Q 1819 2325 1622 2450 
Q 1313 2653 1166 2892 
Q 1019 3131 1019 3438 
Q 1019 3791 1212 4075 
Q 1406 4359 1779 4509 
Q 2153 4659 2622 4659 
Q 3181 4659 3565 4471 
Q 3950 4284 4123 3971 
Q 4297 3659 4297 3375 
Q 4297 3347 4294 3281 
L 3703 3234 
Q 3703 3428 3669 3538 
Q 3606 3728 3475 3859 
Q 3344 3991 3114 4070 
Q 2884 4150 2600 4150 
Q 2100 4150 1822 3925 
Q 1609 3753 1609 3469 
Q 1609 3300 1696 3167 
Q 1784 3034 2013 2906 
Q 2175 2816 2784 2547 
Q 3278 2328 3466 2203 
Q 3716 2038 3850 1802 
Q 3984 1566 3984 1266 
Q 3984 894 3757 580 
Q 3531 266 3131 94 
Q 2731 -78 2216 -78 
Q 1438 -78 945 261 
Q 453 600 450 1481 
z
" transform="scale(0.015625)"/>
     <path id="Arial-ItalicMT-6f" d="M 313 1259 
Q 313 2231 884 2869 
Q 1356 3394 2122 3394 
Q 2722 3394 3089 3019 
Q 3456 2644 3456 2006 
Q 3456 1434 3225 942 
Q 2994 450 2567 187 
Q 2141 -75 1669 -75 
Q 1281 -75 964 90 
Q 647 256 480 559 
Q 313 863 313 1259 
z
M 878 1316 
Q 878 847 1103 605 
Q 1328 363 1675 363 
Q 1856 363 2034 436 
Q 2213 509 2366 659 
Q 2519 809 2626 1001 
Q 2734 1194 2800 1416 
Q 2897 1725 2897 2009 
Q 2897 2459 2670 2707 
Q 2444 2956 2100 2956 
Q 1834 2956 1615 2829 
Q 1397 2703 1220 2459 
Q 1044 2216 961 1892 
Q 878 1569 878 1316 
z
" transform="scale(0.015625)"/>
     <path id="Arial-ItalicMT-73" d="M 266 1134 
L 831 1169 
Q 831 925 906 753 
Q 981 581 1182 472 
Q 1384 363 1653 363 
Q 2028 363 2215 513 
Q 2403 663 2403 866 
Q 2403 1013 2291 1144 
Q 2175 1275 1726 1467 
Q 1278 1659 1153 1738 
Q 944 1866 837 2039 
Q 731 2213 731 2438 
Q 731 2831 1043 3112 
Q 1356 3394 1919 3394 
Q 2544 3394 2870 3105 
Q 3197 2816 3209 2344 
L 2656 2306 
Q 2644 2606 2444 2781 
Q 2244 2956 1878 2956 
Q 1584 2956 1421 2822 
Q 1259 2688 1259 2531 
Q 1259 2375 1400 2256 
Q 1494 2175 1884 2006 
Q 2534 1725 2703 1563 
Q 2972 1303 2972 931 
Q 2972 684 2820 446 
Q 2669 209 2358 67 
Q 2047 -75 1625 -75 
Q 1050 -75 647 209 
Q 244 494 266 1134 
z
" transform="scale(0.015625)"/>
     <path id="Arial-ItalicMT-74" d="M 1534 459 
L 1441 -3 
Q 1238 -56 1047 -56 
Q 709 -56 509 109 
Q 359 234 359 450 
Q 359 559 441 953 
L 844 2881 
L 397 2881 
L 488 3319 
L 934 3319 
L 1106 4134 
L 1753 4525 
L 1500 3319 
L 2056 3319 
L 1963 2881 
L 1409 2881 
L 1025 1047 
Q 953 697 953 628 
Q 953 528 1011 475 
Q 1069 422 1200 422 
Q 1388 422 1534 459 
z
" transform="scale(0.015625)"/>
     <path id="Arial-ItalicMT-66" d="M 291 0 
L 894 2881 
L 388 2881 
L 478 3319 
L 984 3319 
L 1081 3791 
Q 1156 4144 1236 4300 
Q 1316 4456 1495 4557 
Q 1675 4659 1984 4659 
Q 2200 4659 2609 4569 
L 2506 4075 
Q 2219 4150 2025 4150 
Q 1859 4150 1773 4067 
Q 1688 3984 1625 3675 
L 1550 3319 
L 2181 3319 
L 2091 2881 
L 1459 2881 
L 856 0 
L 291 0 
z
" transform="scale(0.015625)"/>
     <path id="Arial-ItalicMT-42" d="M 278 0 
L 1238 4581 
L 2656 4581 
Q 3044 4581 3231 4550 
Q 3538 4497 3748 4364 
Q 3959 4231 4075 4001 
Q 4191 3772 4191 3494 
Q 4191 3116 3983 2828 
Q 3775 2541 3347 2391 
Q 3719 2269 3903 2023 
Q 4088 1778 4088 1450 
Q 4088 1072 3870 725 
Q 3653 378 3295 189 
Q 2938 0 2497 0 
L 278 0 
z
M 1441 2625 
L 2369 2625 
Q 3034 2625 3326 2837 
Q 3619 3050 3619 3456 
Q 3619 3650 3528 3790 
Q 3438 3931 3286 3995 
Q 3134 4059 2716 4059 
L 1741 4059 
L 1441 2625 
z
M 1000 519 
L 2044 519 
Q 2459 519 2603 547 
Q 2894 597 3075 717 
Q 3256 838 3359 1034 
Q 3463 1231 3463 1447 
Q 3463 1769 3261 1936 
Q 3059 2103 2494 2103 
L 1331 2103 
L 1000 519 
z
" transform="scale(0.015625)"/>
     <path id="Arial-ItalicMT-72" d="M 213 0 
L 906 3319 
L 1406 3319 
L 1266 2641 
Q 1522 3025 1767 3209 
Q 2013 3394 2269 3394 
Q 2438 3394 2684 3272 
L 2453 2747 
Q 2306 2853 2131 2853 
Q 1834 2853 1521 2522 
Q 1209 2191 1031 1331 
L 750 0 
L 213 0 
z
" transform="scale(0.015625)"/>
     <path id="Arial-ItalicMT-45" d="M 288 0 
L 1247 4581 
L 4553 4581 
L 4444 4059 
L 1750 4059 
L 1450 2634 
L 4075 2634 
L 3966 2113 
L 1341 2113 
L 1009 519 
L 3894 519 
L 3784 0 
L 288 0 
z
" transform="scale(0.015625)"/>
     <path id="Arial-ItalicMT-6d" d="M 209 0 
L 903 3319 
L 1469 3319 
L 1353 2772 
Q 1669 3125 1917 3259 
Q 2166 3394 2456 3394 
Q 2766 3394 2973 3230 
Q 3181 3066 3247 2772 
Q 3500 3084 3779 3239 
Q 4059 3394 4369 3394 
Q 4784 3394 4992 3197 
Q 5200 3000 5200 2644 
Q 5200 2491 5128 2138 
L 4681 0 
L 4116 0 
L 4572 2194 
Q 4631 2463 4631 2578 
Q 4631 2741 4528 2834 
Q 4425 2928 4238 2928 
Q 3984 2928 3721 2775 
Q 3459 2622 3314 2373 
Q 3169 2125 3059 1609 
L 2722 0 
L 2156 0 
L 2625 2241 
Q 2675 2469 2675 2566 
Q 2675 2728 2573 2828 
Q 2472 2928 2309 2928 
Q 2069 2928 1805 2775 
Q 1541 2622 1375 2348 
Q 1209 2075 1103 1569 
L 775 0 
L 209 0 
z
" transform="scale(0.015625)"/>
     <path id="Arial-ItalicMT-75" d="M 2478 600 
Q 1881 -75 1256 -75 
Q 872 -75 636 145 
Q 400 366 400 684 
Q 400 894 506 1403 
L 906 3319 
L 1472 3319 
L 1028 1197 
Q 972 931 972 784 
Q 972 597 1086 492 
Q 1200 388 1422 388 
Q 1659 388 1886 503 
Q 2113 619 2277 816 
Q 2441 1013 2544 1281 
Q 2613 1453 2703 1884 
L 3003 3319 
L 3569 3319 
L 2875 0 
L 2353 0 
L 2478 600 
z
" transform="scale(0.015625)"/>
     <path id="Arial-ItalicMT-52" d="M 300 0 
L 1259 4581 
L 3181 4581 
Q 3750 4581 4044 4486 
Q 4338 4391 4505 4128 
Q 4672 3866 4672 3466 
Q 4672 2906 4306 2537 
Q 3941 2169 3125 2059 
Q 3375 1875 3503 1697 
Q 3791 1294 3966 863 
L 4316 0 
L 3631 0 
L 3303 853 
Q 3125 1316 2897 1653 
Q 2741 1888 2578 1961 
Q 2416 2034 2050 2034 
L 1338 2034 
L 913 0 
L 300 0 
z
M 1441 2531 
L 2288 2531 
Q 2875 2531 3053 2547 
Q 3400 2581 3622 2703 
Q 3844 2825 3966 3031 
Q 4088 3238 4088 3475 
Q 4088 3675 3997 3823 
Q 3906 3972 3759 4025 
Q 3613 4078 3259 4078 
L 1766 4078 
L 1441 2531 
z
" transform="scale(0.015625)"/>
     <path id="Arial-ItalicMT-70" d="M -66 -1272 
L 894 3319 
L 1416 3319 
L 1319 2856 
Q 1609 3159 1839 3276 
Q 2069 3394 2325 3394 
Q 2800 3394 3112 3048 
Q 3425 2703 3425 2059 
Q 3425 1541 3253 1114 
Q 3081 688 2831 428 
Q 2581 169 2325 47 
Q 2069 -75 1800 -75 
Q 1203 -75 875 531 
L 500 -1272 
L -66 -1272 
z
M 1053 1356 
Q 1053 984 1106 841 
Q 1184 638 1362 513 
Q 1541 388 1775 388 
Q 2263 388 2563 936 
Q 2863 1484 2863 2056 
Q 2863 2478 2661 2708 
Q 2459 2938 2159 2938 
Q 1944 2938 1759 2823 
Q 1575 2709 1417 2482 
Q 1259 2256 1156 1928 
Q 1053 1600 1053 1356 
z
" transform="scale(0.015625)"/>
     <path id="Arial-ItalicMT-32" d="M 375 0 
Q 463 409 617 686 
Q 772 963 1028 1211 
Q 1284 1459 2016 2044 
Q 2459 2397 2622 2566 
Q 2856 2809 2963 3044 
Q 3034 3203 3034 3391 
Q 3034 3706 2811 3926 
Q 2588 4147 2263 4147 
Q 1941 4147 1700 3923 
Q 1459 3700 1356 3206 
L 803 3288 
Q 884 3897 1276 4248 
Q 1669 4600 2253 4600 
Q 2644 4600 2961 4437 
Q 3278 4275 3437 3981 
Q 3597 3688 3597 3375 
Q 3597 2919 3272 2497 
Q 3072 2234 2097 1463 
Q 1678 1131 1473 918 
Q 1269 706 1166 519 
L 3216 519 
L 3106 0 
L 375 0 
z
" transform="scale(0.015625)"/>
     <path id="Arial-ItalicMT-30" d="M 453 1503 
Q 453 2084 626 2684 
Q 800 3284 1012 3643 
Q 1225 4003 1453 4206 
Q 1681 4409 1901 4504 
Q 2122 4600 2391 4600 
Q 2916 4600 3267 4209 
Q 3619 3819 3619 3081 
Q 3619 2322 3375 1578 
Q 3088 697 2575 256 
Q 2181 -78 1678 -78 
Q 1163 -78 808 326 
Q 453 731 453 1503 
z
M 1000 1359 
Q 1000 938 1141 700 
Q 1331 372 1706 372 
Q 2034 372 2303 669 
Q 2691 1088 2886 1895 
Q 3081 2703 3081 3216 
Q 3081 3709 2892 3928 
Q 2703 4147 2394 4147 
Q 2169 4147 1973 4031 
Q 1778 3916 1600 3634 
Q 1347 3238 1159 2447 
Q 1000 1772 1000 1359 
z
" transform="scale(0.015625)"/>
     <path id="Arial-ItalicMT-35" d="M 447 1309 
L 1022 1366 
Q 1016 1244 1016 1219 
Q 1016 1013 1120 803 
Q 1225 594 1404 483 
Q 1584 372 1784 372 
Q 2047 372 2319 553 
Q 2591 734 2759 1081 
Q 2928 1428 2928 1769 
Q 2928 2153 2701 2384 
Q 2475 2616 2106 2616 
Q 1859 2616 1639 2497 
Q 1419 2378 1228 2141 
L 734 2175 
L 1425 4519 
L 3663 4519 
L 3553 4000 
L 1813 4000 
L 1469 2834 
Q 1663 2975 1867 3045 
Q 2072 3116 2288 3116 
Q 2813 3116 3150 2769 
Q 3488 2422 3488 1819 
Q 3488 1291 3256 845 
Q 3025 400 2620 161 
Q 2216 -78 1747 -78 
Q 1353 -78 1050 100 
Q 747 278 595 590 
Q 444 903 444 1216 
Q 444 1247 447 1309 
z
" transform="scale(0.015625)"/>
    </defs>
    <use xlink:href="#Arial-ItalicMT-5a"/>
    <use xlink:href="#Arial-ItalicMT-61" x="61.083984"/>
    <use xlink:href="#Arial-ItalicMT-6e" x="116.699219"/>
    <use xlink:href="#Arial-ItalicMT-69" x="172.314453"/>
    <use xlink:href="#Arial-ItalicMT-63" x="194.53125"/>
    <use xlink:href="#Arial-ItalicMT-68" x="244.53125"/>
    <use xlink:href="#Arial-ItalicMT-65" x="300.146484"/>
    <use xlink:href="#Arial-ItalicMT-6c" x="355.761719"/>
    <use xlink:href="#Arial-ItalicMT-6c" x="377.978516"/>
    <use xlink:href="#Arial-ItalicMT-69" x="400.195312"/>
    <use xlink:href="#Arial-ItalicMT-2c" x="422.412109"/>
    <use xlink:href="#Arial-ItalicMT-20" x="450.195312"/>
    <use xlink:href="#Arial-ItalicMT-53" x="477.978516"/>
    <use xlink:href="#Arial-ItalicMT-63" x="544.677734"/>
    <use xlink:href="#Arial-ItalicMT-68" x="594.677734"/>
    <use xlink:href="#Arial-ItalicMT-6f" x="650.292969"/>
    <use xlink:href="#Arial-ItalicMT-6e" x="705.908203"/>
    <use xlink:href="#Arial-ItalicMT-73" x="761.523438"/>
    <use xlink:href="#Arial-ItalicMT-20" x="811.523438"/>
    <use xlink:href="#Arial-ItalicMT-65" x="839.306641"/>
    <use xlink:href="#Arial-ItalicMT-74" x="894.921875"/>
    <use xlink:href="#Arial-ItalicMT-20" x="922.705078"/>
    <use xlink:href="#Arial-ItalicMT-61" x="950.488281"/>
    <use xlink:href="#Arial-ItalicMT-6c" x="1006.103516"/>
    <use xlink:href="#Arial-ItalicMT-2c" x="1028.320312"/>
    <use xlink:href="#Arial-ItalicMT-20" x="1056.103516"/>
    <use xlink:href="#Arial-ItalicMT-53" x="1083.886719"/>
    <use xlink:href="#Arial-ItalicMT-74" x="1150.585938"/>
    <use xlink:href="#Arial-ItalicMT-61" x="1178.369141"/>
    <use xlink:href="#Arial-ItalicMT-74" x="1233.984375"/>
    <use xlink:href="#Arial-ItalicMT-65" x="1261.767578"/>
    <use xlink:href="#Arial-ItalicMT-20" x="1317.382812"/>
    <use xlink:href="#Arial-ItalicMT-6f" x="1345.166016"/>
    <use xlink:href="#Arial-ItalicMT-66" x="1400.78125"/>
    <use xlink:href="#Arial-ItalicMT-20" x="1428.564453"/>
    <use xlink:href="#Arial-ItalicMT-42" x="1456.347656"/>
    <use xlink:href="#Arial-ItalicMT-72" x="1523.046875"/>
    <use xlink:href="#Arial-ItalicMT-61" x="1556.347656"/>
    <use xlink:href="#Arial-ItalicMT-69" x="1611.962891"/>
    <use xlink:href="#Arial-ItalicMT-6e" x="1634.179688"/>
    <use xlink:href="#Arial-ItalicMT-20" x="1689.794922"/>
    <use xlink:href="#Arial-ItalicMT-45" x="1717.578125"/>
    <use xlink:href="#Arial-ItalicMT-6d" x="1784.277344"/>
    <use xlink:href="#Arial-ItalicMT-75" x="1867.578125"/>
    <use xlink:href="#Arial-ItalicMT-6c" x="1923.193359"/>
    <use xlink:href="#Arial-ItalicMT-61" x="1945.410156"/>
    <use xlink:href="#Arial-ItalicMT-74" x="2001.025391"/>
    <use xlink:href="#Arial-ItalicMT-69" x="2028.808594"/>
    <use xlink:href="#Arial-ItalicMT-6f" x="2051.025391"/>
    <use xlink:href="#Arial-ItalicMT-6e" x="2106.640625"/>
    <use xlink:href="#Arial-ItalicMT-20" x="2162.255859"/>
    <use xlink:href="#Arial-ItalicMT-52" x="2190.039062"/>
    <use xlink:href="#Arial-ItalicMT-65" x="2262.255859"/>
    <use xlink:href="#Arial-ItalicMT-70" x="2317.871094"/>
    <use xlink:href="#Arial-ItalicMT-6f" x="2373.486328"/>
    <use xlink:href="#Arial-ItalicMT-72" x="2429.101562"/>
    <use xlink:href="#Arial-ItalicMT-74" x="2462.402344"/>
    <use xlink:href="#Arial-ItalicMT-20" x="2490.185547"/>
    <use xlink:href="#Arial-ItalicMT-32" x="2517.96875"/>
    <use xlink:href="#Arial-ItalicMT-30" x="2573.583984"/>
    <use xlink:href="#Arial-ItalicMT-32" x="2629.199219"/>
    <use xlink:href="#Arial-ItalicMT-35" x="2684.814453"/>
   </g>
  </g>
 </g>
 <defs>
  <clipPath id="p9b2c461a3a">
   <rect x="53.222031" y="27.789375" width="504.12" height="272.449687"/>
  </clipPath>
 </defs>
</svg>
