<?xml version="1.0" encoding="utf-8" standalone="no"?>
<!DOCTYPE svg PUBLIC "-//W3C//DTD SVG 1.1//EN"
  "http://www.w3.org/Graphics/SVG/1.1/DTD/svg11.dtd">
<svg xmlns:xlink="http://www.w3.org/1999/xlink" width="576pt" height="576pt" viewBox="0 0 576 576" xmlns="http://www.w3.org/2000/svg" version="1.1">
 <metadata>
  <rdf:RDF xmlns:dc="http://purl.org/dc/elements/1.1/" xmlns:cc="http://creativecommons.org/ns#" xmlns:rdf="http://www.w3.org/1999/02/22-rdf-syntax-ns#">
   <cc:Work>
    <dc:type rdf:resource="http://purl.org/dc/dcmitype/StillImage"/>
    <dc:date>2025-01-26T02:09:46.739357</dc:date>
    <dc:format>image/svg+xml</dc:format>
    <dc:creator>
     <cc:Agent>
      <dc:title>Matplotlib v3.9.2, https://matplotlib.org/</dc:title>
     </cc:Agent>
    </dc:creator>
   </cc:Work>
  </rdf:RDF>
 </metadata>
 <defs>
  <style type="text/css">*{stroke-linejoin: round; stroke-linecap: butt}</style>
 </defs>
 <g id="figure_1">
  <g id="patch_1">
   <path d="M 0 576 
L 576 576 
L 576 0 
L 0 0 
z
" style="fill: #ffffff"/>
  </g>
  <g id="axes_1">
   <g id="patch_2">
    <path d="M 486.820126 277.219362 
C 486.820126 250.475782 481.552224 223.99225 471.317899 199.284404 
C 461.083574 174.576557 446.081858 152.124903 427.171291 133.214336 
C 408.260724 114.303769 385.809069 99.302053 361.101223 89.067728 
C 336.393377 78.833403 309.909845 73.565501 283.166265 73.565501 
C 256.422685 73.565501 229.939152 78.833403 205.231306 89.067728 
C 180.52346 99.302053 158.071805 114.303769 139.161238 133.214336 
C 120.250672 152.124903 105.248956 174.576557 95.014631 199.284404 
C 84.780306 223.99225 79.512403 250.475782 79.512403 277.219362 
C 79.512403 303.962942 84.780306 330.446475 95.014631 355.154321 
C 105.248956 379.862167 120.250672 402.313822 139.161238 421.224388 
C 158.071805 440.134955 180.52346 455.136671 205.231306 465.370996 
C 229.939152 475.605321 256.422685 480.873223 283.166265 480.873223 
C 309.909845 480.873223 336.393377 475.605321 361.101223 465.370996 
C 385.809069 455.136671 408.260724 440.134955 427.171291 421.224388 
C 446.081858 402.313822 461.083574 379.862167 471.317899 355.154321 
C 481.552224 330.446475 486.820126 303.962942 486.820126 277.219362 
M 283.166265 277.219362 
C 283.166265 277.219362 283.166265 277.219362 283.166265 277.219362 
C 283.166265 277.219362 283.166265 277.219362 283.166265 277.219362 
C 283.166265 277.219362 283.166265 277.219362 283.166265 277.219362 
C 283.166265 277.219362 283.166265 277.219362 283.166265 277.219362 
C 283.166265 277.219362 283.166265 277.219362 283.166265 277.219362 
C 283.166265 277.219362 283.166265 277.219362 283.166265 277.219362 
C 283.166265 277.219362 283.166265 277.219362 283.166265 277.219362 
C 283.166265 277.219362 283.166265 277.219362 283.166265 277.219362 
C 283.166265 277.219362 283.166265 277.219362 283.166265 277.219362 
C 283.166265 277.219362 283.166265 277.219362 283.166265 277.219362 
C 283.166265 277.219362 283.166265 277.219362 283.166265 277.219362 
C 283.166265 277.219362 283.166265 277.219362 283.166265 277.219362 
C 283.166265 277.219362 283.166265 277.219362 283.166265 277.219362 
C 283.166265 277.219362 283.166265 277.219362 283.166265 277.219362 
C 283.166265 277.219362 283.166265 277.219362 283.166265 277.219362 
C 283.166265 277.219362 283.166265 277.219362 283.166265 277.219362 
z
" style="fill: #ffffff"/>
   </g>
   <g id="patch_3">
    <path d="M 283.166265 277.219362 
C 283.166265 277.219362 283.166265 277.219362 283.166265 277.219362 
C 283.166265 277.219362 283.166265 277.219362 283.166265 277.219362 
L 478.719187 135.141848 
C 508.718349 176.432153 524.882969 226.181738 524.882969 277.219362 
C 524.882969 328.256986 508.718349 378.006571 478.719187 419.296876 
z
" style="fill: #ef7569; opacity: 0.330567"/>
   </g>
   <g id="patch_4">
    <path d="M 283.166265 277.219362 
C 283.166265 277.219362 283.166265 277.219362 283.166265 277.219362 
C 283.166265 277.219362 283.166265 277.219362 283.166265 277.219362 
L 251.987976 181.262456 
C 272.248936 174.679271 294.083593 174.679271 314.344553 181.262456 
C 334.605513 187.845641 352.270122 200.679731 364.792084 217.914733 
z
" style="fill: #ef7569; opacity: 0.330567"/>
   </g>
   <g id="patch_5">
    <path d="M 283.166265 277.219362 
C 283.166265 277.219362 283.166265 277.219362 283.166265 277.219362 
C 283.166265 277.219362 283.166265 277.219362 283.166265 277.219362 
L 283.166265 277.219362 
C 283.166265 277.219362 283.166265 277.219362 283.166265 277.219362 
C 283.166265 277.219362 283.166265 277.219362 283.166265 277.219362 
z
" style="fill: #ef7569; opacity: 0.330567"/>
   </g>
   <g id="patch_6">
    <path d="M 283.166265 277.219362 
C 283.166265 277.219362 283.166265 277.219362 283.166265 277.219362 
C 283.166265 277.219362 283.166265 277.219362 283.166265 277.219362 
L 256.996648 357.76116 
C 239.990533 352.235538 225.163676 341.463196 214.653319 326.996931 
C 204.142962 312.530665 198.479607 295.100649 198.479607 277.219362 
z
" style="fill: #ef7569; opacity: 0.330567"/>
   </g>
   <g id="patch_7">
    <path d="M 283.166265 277.219362 
C 283.166265 277.219362 283.166265 277.219362 283.166265 277.219362 
C 283.166265 277.219362 283.166265 277.219362 283.166265 277.219362 
L 349.070038 325.101257 
C 338.959946 339.016605 324.697739 349.378705 308.339266 354.693895 
C 291.980794 360.009085 274.351736 360.009085 257.993263 354.693895 
z
" style="fill: #ef7569; opacity: 0.330567"/>
   </g>
   <g id="patch_8">
    <path d="M 283.166265 277.219362 
C 283.166265 277.219362 283.166265 277.219362 283.166265 277.219362 
C 283.166265 277.219362 283.166265 277.219362 283.166265 277.219362 
L 478.719187 135.141848 
C 508.718349 176.432153 524.882969 226.181738 524.882969 277.219362 
C 524.882969 328.256986 508.718349 378.006571 478.719187 419.296876 
z
" style="fill: #ef7569; opacity: 0.330567"/>
   </g>
   <g id="patch_9">
    <path d="M 283.166265 277.219362 
C 283.166265 277.219362 283.166265 277.219362 283.166265 277.219362 
C 283.166265 277.219362 283.166265 277.219362 283.166265 277.219362 
L 251.987976 181.262456 
C 272.248936 174.679271 294.083593 174.679271 314.344553 181.262456 
C 334.605513 187.845641 352.270122 200.679731 364.792084 217.914733 
z
" style="fill: #ef7569; opacity: 0.330567"/>
   </g>
   <g id="patch_10">
    <path d="M 283.166265 277.219362 
C 283.166265 277.219362 283.166265 277.219362 283.166265 277.219362 
C 283.166265 277.219362 283.166265 277.219362 283.166265 277.219362 
L 283.166265 277.219362 
C 283.166265 277.219362 283.166265 277.219362 283.166265 277.219362 
C 283.166265 277.219362 283.166265 277.219362 283.166265 277.219362 
z
" style="fill: #ef7569; opacity: 0.330567"/>
   </g>
   <g id="patch_11">
    <path d="M 283.166265 277.219362 
C 283.166265 277.219362 283.166265 277.219362 283.166265 277.219362 
C 283.166265 277.219362 283.166265 277.219362 283.166265 277.219362 
L 270.802907 315.269865 
C 262.768678 312.659385 255.764 307.570189 250.798574 300.735866 
C 245.833148 293.901543 243.157599 285.66705 243.157599 277.219362 
z
" style="fill: #ef7569; opacity: 0.330567"/>
   </g>
   <g id="patch_12">
    <path d="M 283.166265 277.219362 
C 283.166265 277.219362 283.166265 277.219362 283.166265 277.219362 
C 283.166265 277.219362 283.166265 277.219362 283.166265 277.219362 
L 349.070038 325.101257 
C 338.959946 339.016605 324.697739 349.378705 308.339266 354.693895 
C 291.980794 360.009085 274.351736 360.009085 257.993263 354.693895 
z
" style="fill: #ef7569; opacity: 0.330567"/>
   </g>
   <g id="patch_13">
    <path d="M 283.166265 277.219362 
C 283.166265 277.219362 283.166265 277.219362 283.166265 277.219362 
C 283.166265 277.219362 283.166265 277.219362 283.166265 277.219362 
L 478.719187 135.141848 
C 508.718349 176.432153 524.882969 226.181738 524.882969 277.219362 
C 524.882969 328.256986 508.718349 378.006571 478.719187 419.296876 
z
" style="fill: #ef7569; opacity: 0.330567"/>
   </g>
   <g id="patch_14">
    <path d="M 283.166265 277.219362 
C 283.166265 277.219362 283.166265 277.219362 283.166265 277.219362 
C 283.166265 277.219362 283.166265 277.219362 283.166265 277.219362 
L 251.987976 181.262456 
C 272.248936 174.679271 294.083593 174.679271 314.344553 181.262456 
C 334.605513 187.845641 352.270122 200.679731 364.792084 217.914733 
z
" style="fill: #ef7569; opacity: 0.330567"/>
   </g>
   <g id="patch_15">
    <path d="M 283.166265 277.219362 
C 283.166265 277.219362 283.166265 277.219362 283.166265 277.219362 
C 283.166265 277.219362 283.166265 277.219362 283.166265 277.219362 
L 283.166265 277.219362 
C 283.166265 277.219362 283.166265 277.219362 283.166265 277.219362 
C 283.166265 277.219362 283.166265 277.219362 283.166265 277.219362 
z
" style="fill: #ef7569; opacity: 0.330567"/>
   </g>
   <g id="patch_16">
    <path d="M 283.166265 277.219362 
C 283.166265 277.219362 283.166265 277.219362 283.166265 277.219362 
C 283.166265 277.219362 283.166265 277.219362 283.166265 277.219362 
L 266.52415 328.438523 
C 255.709406 324.9246 246.280523 318.074115 239.596644 308.874544 
C 232.912765 299.674974 229.311252 288.590657 229.311252 277.219362 
z
" style="fill: #ef7569; opacity: 0.330567"/>
   </g>
   <g id="patch_17">
    <path d="M 283.166265 277.219362 
C 283.166265 277.219362 283.166265 277.219362 283.166265 277.219362 
C 283.166265 277.219362 283.166265 277.219362 283.166265 277.219362 
L 349.070038 325.101257 
C 338.959946 339.016605 324.697739 349.378705 308.339266 354.693895 
C 291.980794 360.009085 274.351736 360.009085 257.993263 354.693895 
z
" style="fill: #ef7569; opacity: 0.330567"/>
   </g>
   <g id="matplotlib.axis_1"/>
   <g id="matplotlib.axis_2">
    <g id="ytick_1">
     <g id="line2d_1">
      <path d="M 283.166265 277.219362 
C 283.166265 277.219362 283.166265 277.219362 283.166265 277.219362 
C 283.166265 277.219362 283.166265 277.219362 283.166265 277.219362 
C 283.166265 277.219362 283.166265 277.219362 283.166265 277.219362 
C 283.166265 277.219362 283.166265 277.219362 283.166265 277.219362 
C 283.166265 277.219362 283.166265 277.219362 283.166265 277.219362 
C 283.166265 277.219362 283.166265 277.219362 283.166265 277.219362 
C 283.166265 277.219362 283.166265 277.219362 283.166265 277.219362 
C 283.166265 277.219362 283.166265 277.219362 283.166265 277.219362 
C 283.166265 277.219362 283.166265 277.219362 283.166265 277.219362 
C 283.166265 277.219362 283.166265 277.219362 283.166265 277.219362 
C 283.166265 277.219362 283.166265 277.219362 283.166265 277.219362 
C 283.166265 277.219362 283.166265 277.219362 283.166265 277.219362 
C 283.166265 277.219362 283.166265 277.219362 283.166265 277.219362 
C 283.166265 277.219362 283.166265 277.219362 283.166265 277.219362 
C 283.166265 277.219362 283.166265 277.219362 283.166265 277.219362 
C 283.166265 277.219362 283.166265 277.219362 283.166265 277.219362 
" clip-path="url(#p6e946149e2)" style="fill: none; stroke: #262626; stroke-opacity: 0.3; stroke-width: 0.8; stroke-linecap: square"/>
     </g>
    </g>
    <g id="ytick_2">
     <g id="line2d_2">
      <path d="M 323.897037 277.219362 
C 323.897037 271.870646 322.843456 266.57394 320.796591 261.63237 
C 318.749726 256.690801 315.749383 252.20047 311.96727 248.418357 
C 308.185157 244.636244 303.694826 241.6359 298.753256 239.589035 
C 293.811687 237.54217 288.514981 236.48859 283.166265 236.48859 
C 277.817549 236.48859 272.520842 237.54217 267.579273 239.589035 
C 262.637704 241.6359 258.147373 244.636244 254.365259 248.418357 
C 250.583146 252.20047 247.582803 256.690801 245.535938 261.63237 
C 243.489073 266.57394 242.435492 271.870646 242.435492 277.219362 
C 242.435492 282.568078 243.489073 287.864785 245.535938 292.806354 
C 247.582803 297.747923 250.583146 302.238254 254.365259 306.020367 
C 258.147373 309.802481 262.637704 312.802824 267.579273 314.849689 
C 272.520842 316.896554 277.817549 317.950134 283.166265 317.950134 
C 288.514981 317.950134 293.811687 316.896554 298.753256 314.849689 
C 303.694826 312.802824 308.185157 309.802481 311.96727 306.020367 
C 315.749383 302.238254 318.749726 297.747923 320.796591 292.806354 
C 322.843456 287.864785 323.897037 282.568078 323.897037 277.219362 
" clip-path="url(#p6e946149e2)" style="fill: none; stroke: #262626; stroke-opacity: 0.3; stroke-width: 0.8; stroke-linecap: square"/>
     </g>
    </g>
    <g id="ytick_3">
     <g id="line2d_3">
      <path d="M 364.627809 277.219362 
C 364.627809 266.52193 362.520648 255.928517 358.426918 246.045379 
C 354.333188 236.16224 348.332502 227.181578 340.768275 219.617352 
C 333.204048 212.053125 324.223387 206.052439 314.340248 201.958709 
C 304.45711 197.864979 293.863697 195.757818 283.166265 195.757818 
C 272.468833 195.757818 261.87542 197.864979 251.992281 201.958709 
C 242.109143 206.052439 233.128481 212.053125 225.564254 219.617352 
C 218.000027 227.181578 211.999341 236.16224 207.905611 246.045379 
C 203.811881 255.928517 201.70472 266.52193 201.70472 277.219362 
C 201.70472 287.916794 203.811881 298.510207 207.905611 308.393346 
C 211.999341 318.276484 218.000027 327.257146 225.564254 334.821373 
C 233.128481 342.385599 242.109143 348.386286 251.992281 352.480016 
C 261.87542 356.573746 272.468833 358.680907 283.166265 358.680907 
C 293.863697 358.680907 304.45711 356.573746 314.340248 352.480016 
C 324.223387 348.386286 333.204048 342.385599 340.768275 334.821373 
C 348.332502 327.257146 354.333188 318.276484 358.426918 308.393346 
C 362.520648 298.510207 364.627809 287.916794 364.627809 277.219362 
" clip-path="url(#p6e946149e2)" style="fill: none; stroke: #262626; stroke-opacity: 0.3; stroke-width: 0.8; stroke-linecap: square"/>
     </g>
    </g>
    <g id="ytick_4">
     <g id="line2d_4">
      <path d="M 405.358581 277.219362 
C 405.358581 261.173214 402.19784 245.283095 396.057245 230.458387 
C 389.91665 215.633679 380.91562 202.162686 369.56928 190.816346 
C 358.22294 179.470006 344.751948 170.468977 329.92724 164.328382 
C 315.102532 158.187787 299.212413 155.027045 283.166265 155.027045 
C 267.120117 155.027045 251.229997 158.187787 236.405289 164.328382 
C 221.580582 170.468977 208.109589 179.470006 196.763249 190.816346 
C 185.416909 202.162686 176.415879 215.633679 170.275284 230.458387 
C 164.134689 245.283095 160.973948 261.173214 160.973948 277.219362 
C 160.973948 293.26551 164.134689 309.15563 170.275284 323.980337 
C 176.415879 338.805045 185.416909 352.276038 196.763249 363.622378 
C 208.109589 374.968718 221.580582 383.969748 236.405289 390.110343 
C 251.229997 396.250938 267.120117 399.411679 283.166265 399.411679 
C 299.212413 399.411679 315.102532 396.250938 329.92724 390.110343 
C 344.751948 383.969748 358.22294 374.968718 369.56928 363.622378 
C 380.91562 352.276038 389.91665 338.805045 396.057245 323.980337 
C 402.19784 309.15563 405.358581 293.26551 405.358581 277.219362 
" clip-path="url(#p6e946149e2)" style="fill: none; stroke: #262626; stroke-opacity: 0.3; stroke-width: 0.8; stroke-linecap: square"/>
     </g>
    </g>
    <g id="ytick_5">
     <g id="line2d_5">
      <path d="M 446.089354 277.219362 
C 446.089354 255.824498 441.875032 234.637672 433.687572 214.871395 
C 425.500112 195.105118 413.498739 177.143795 398.370286 162.015341 
C 383.241832 146.886888 365.280508 134.885515 345.514232 126.698055 
C 325.747955 118.510595 304.561129 114.296273 283.166265 114.296273 
C 261.771401 114.296273 240.584575 118.510595 220.818298 126.698055 
C 201.052021 134.885515 183.090697 146.886888 167.962244 162.015341 
C 152.83379 177.143795 140.832417 195.105118 132.644957 214.871395 
C 124.457497 234.637672 120.243176 255.824498 120.243176 277.219362 
C 120.243176 298.614226 124.457497 319.801052 132.644957 339.567329 
C 140.832417 359.333606 152.83379 377.29493 167.962244 392.423383 
C 183.090697 407.551837 201.052021 419.553209 220.818298 427.740669 
C 240.584575 435.928129 261.771401 440.142451 283.166265 440.142451 
C 304.561129 440.142451 325.747955 435.928129 345.514232 427.740669 
C 365.280508 419.553209 383.241832 407.551837 398.370286 392.423383 
C 413.498739 377.29493 425.500112 359.333606 433.687572 339.567329 
C 441.875032 319.801052 446.089354 298.614226 446.089354 277.219362 
" clip-path="url(#p6e946149e2)" style="fill: none; stroke: #262626; stroke-opacity: 0.3; stroke-width: 0.8; stroke-linecap: square"/>
     </g>
    </g>
   </g>
   <g id="line2d_6">
    <path d="M 486.820126 277.219362 
L 486.410105 264.302836 
L 485.181692 251.43832 
L 483.139835 238.677615 
L 480.292755 226.072105 
L 476.651916 213.672546 
L 472.231979 201.528868 
L 467.05074 189.689969 
L 461.129064 178.20352 
L 454.490795 167.115772 
L 447.162662 156.471373 
L 439.174173 146.313184 
L 430.557496 136.682107 
L 421.347326 127.616924 
L 411.58075 119.154138 
L 401.297094 111.327824 
L 390.537767 104.169497 
L 379.346093 97.707981 
L 367.767136 91.969294 
L 355.847522 86.976544 
L 343.635246 82.749834 
L 331.179482 79.306184 
L 318.530386 76.659461 
L 305.738892 74.820322 
L 292.856506 73.796172 
L 279.9351 73.591135 
L 267.026705 74.206038 
L 254.183298 75.638404 
L 241.456596 77.882465 
L 228.897844 80.929185 
L 216.557611 84.766297 
L 204.485588 89.378349 
L 192.730384 94.74677 
L 181.339334 100.849945 
L 170.358305 107.663297 
L 159.831514 115.159391 
L 149.801348 123.308043 
L 140.308195 132.076442 
L 131.390282 141.429281 
L 123.083517 151.328898 
L 115.421348 161.735431 
L 108.43463 172.606978 
L 102.151494 183.899762 
L 96.59724 195.568311 
L 91.794234 207.565639 
L 87.761816 219.843439 
L 84.516222 232.352271 
L 82.070522 245.041768 
L 80.434564 257.860832 
L 79.614935 270.757846 
L 79.614935 283.680878 
L 80.434564 296.577892 
L 82.070522 309.396956 
L 84.516222 322.086453 
L 87.761816 334.595285 
L 91.794234 346.873085 
L 96.59724 358.870414 
L 102.151494 370.538963 
L 108.43463 381.831746 
L 115.421348 392.703293 
L 123.083517 403.109826 
L 131.390282 413.009444 
L 140.308195 422.362282 
L 149.801348 431.130681 
L 159.831514 439.279334 
L 170.358305 446.775428 
L 181.339334 453.588779 
L 192.730384 459.691954 
L 204.485588 465.060375 
L 216.557611 469.672428 
L 228.897844 473.509539 
L 241.456596 476.55626 
L 254.183298 478.800321 
L 267.026705 480.232686 
L 279.9351 480.847589 
L 292.856506 480.642553 
L 305.738892 479.618403 
L 318.530386 477.779264 
L 331.179482 475.13254 
L 343.635246 471.688891 
L 355.847522 467.462181 
L 367.767136 462.46943 
L 379.346093 456.730743 
L 390.537767 450.269227 
L 401.297094 443.1109 
L 411.58075 435.284586 
L 421.347326 426.8218 
L 430.557496 417.756617 
L 439.174173 408.125541 
L 447.162662 397.967351 
L 454.490795 387.322952 
L 461.129064 376.235205 
L 467.05074 364.748755 
L 472.231979 352.909856 
L 476.651916 340.766178 
L 480.292755 328.366619 
L 483.139835 315.761109 
L 485.181692 303.000404 
L 486.410105 290.135888 
L 486.820126 277.219362 
" clip-path="url(#p6e946149e2)" style="fill: none; stroke: #262626; stroke-opacity: 0.301961; stroke-width: 2; stroke-linecap: square"/>
   </g>
   <g id="line2d_7">
    <path d="M 283.166265 277.219362 
L 525.08747 277.219362 
" style="fill: none; stroke: #262626; stroke-linecap: square"/>
   </g>
   <g id="line2d_8">
    <defs>
     <path id="mdda850db66" d="M 0 3 
C 0.795609 3 1.55874 2.683901 2.12132 2.12132 
C 2.683901 1.55874 3 0.795609 3 0 
C 3 -0.795609 2.683901 -1.55874 2.12132 -2.12132 
C 1.55874 -2.683901 0.795609 -3 0 -3 
C -0.795609 -3 -1.55874 -2.683901 -2.12132 -2.12132 
C -2.683901 -1.55874 -3 -0.795609 -3 0 
C -3 0.795609 -2.683901 1.55874 -2.12132 2.12132 
C -1.55874 2.683901 -0.795609 3 0 3 
z
" style="stroke: #262626"/>
    </defs>
    <g>
     <use xlink:href="#mdda850db66" x="525.08747" y="277.219362" style="fill: #82c3ff; stroke: #262626"/>
    </g>
   </g>
   <g id="line2d_9">
    <path d="M 283.166265 277.219362 
L 353.877832 59.591537 
" style="fill: none; stroke: #262626; stroke-linecap: square"/>
   </g>
   <g id="line2d_10">
    <g>
     <use xlink:href="#mdda850db66" x="353.877832" y="59.591537" style="fill: #82c3ff; stroke: #262626"/>
    </g>
   </g>
   <g id="line2d_11">
    <path d="M 283.166265 277.219362 
L 98.776843 143.252606 
" style="fill: none; stroke: #262626; stroke-linecap: square"/>
   </g>
   <g id="line2d_12">
    <g>
     <use xlink:href="#mdda850db66" x="98.776843" y="143.252606" style="fill: #82c3ff; stroke: #262626"/>
    </g>
   </g>
   <g id="line2d_13">
    <path d="M 283.166265 277.219362 
L 98.776843 411.186118 
" style="fill: none; stroke: #262626; stroke-linecap: square"/>
   </g>
   <g id="line2d_14">
    <g>
     <use xlink:href="#mdda850db66" x="98.776843" y="411.186118" style="fill: #82c3ff; stroke: #262626"/>
    </g>
   </g>
   <g id="line2d_15">
    <path d="M 283.166265 277.219362 
L 346.098769 470.905694 
" style="fill: none; stroke: #262626; stroke-linecap: square"/>
   </g>
   <g id="line2d_16">
    <g>
     <use xlink:href="#mdda850db66" x="346.098769" y="470.905694" style="fill: #82c3ff; stroke: #262626"/>
    </g>
   </g>
   <g id="line2d_17">
    <path d="M 283.166265 277.219362 
L 447.925699 396.924098 
" clip-path="url(#p6e946149e2)" style="fill: none; stroke: #262626; stroke-opacity: 0.301961; stroke-linecap: square"/>
   </g>
   <g id="line2d_18">
    <path d="M 283.166265 277.219362 
L 447.925699 157.514626 
" clip-path="url(#p6e946149e2)" style="fill: none; stroke: #262626; stroke-opacity: 0.301961; stroke-linecap: square"/>
   </g>
   <g id="line2d_19">
    <path d="M 283.166265 277.219362 
L 220.233761 83.53303 
" clip-path="url(#p6e946149e2)" style="fill: none; stroke: #262626; stroke-opacity: 0.301961; stroke-linecap: square"/>
   </g>
   <g id="line2d_20">
    <path d="M 283.166265 277.219362 
L 79.512403 277.219362 
" clip-path="url(#p6e946149e2)" style="fill: none; stroke: #262626; stroke-opacity: 0.301961; stroke-linecap: square"/>
   </g>
   <g id="line2d_21">
    <path d="M 283.166265 277.219362 
L 220.233761 470.905694 
" clip-path="url(#p6e946149e2)" style="fill: none; stroke: #262626; stroke-opacity: 0.301961; stroke-linecap: square"/>
   </g>
   <g id="text_1">
    <!-- $10^{6}$ -->
    <g style="fill: #262626" transform="translate(326.897037 274.219362) scale(0.1 -0.1)">
     <defs>
      <path id="DejaVuSans-31" d="M 794 531 
L 1825 531 
L 1825 4091 
L 703 3866 
L 703 4441 
L 1819 4666 
L 2450 4666 
L 2450 531 
L 3481 531 
L 3481 0 
L 794 0 
L 794 531 
z
" transform="scale(0.015625)"/>
      <path id="DejaVuSans-30" d="M 2034 4250 
Q 1547 4250 1301 3770 
Q 1056 3291 1056 2328 
Q 1056 1369 1301 889 
Q 1547 409 2034 409 
Q 2525 409 2770 889 
Q 3016 1369 3016 2328 
Q 3016 3291 2770 3770 
Q 2525 4250 2034 4250 
z
M 2034 4750 
Q 2819 4750 3233 4129 
Q 3647 3509 3647 2328 
Q 3647 1150 3233 529 
Q 2819 -91 2034 -91 
Q 1250 -91 836 529 
Q 422 1150 422 2328 
Q 422 3509 836 4129 
Q 1250 4750 2034 4750 
z
" transform="scale(0.015625)"/>
      <path id="DejaVuSans-36" d="M 2113 2584 
Q 1688 2584 1439 2293 
Q 1191 2003 1191 1497 
Q 1191 994 1439 701 
Q 1688 409 2113 409 
Q 2538 409 2786 701 
Q 3034 994 3034 1497 
Q 3034 2003 2786 2293 
Q 2538 2584 2113 2584 
z
M 3366 4563 
L 3366 3988 
Q 3128 4100 2886 4159 
Q 2644 4219 2406 4219 
Q 1781 4219 1451 3797 
Q 1122 3375 1075 2522 
Q 1259 2794 1537 2939 
Q 1816 3084 2150 3084 
Q 2853 3084 3261 2657 
Q 3669 2231 3669 1497 
Q 3669 778 3244 343 
Q 2819 -91 2113 -91 
Q 1303 -91 875 529 
Q 447 1150 447 2328 
Q 447 3434 972 4092 
Q 1497 4750 2381 4750 
Q 2619 4750 2861 4703 
Q 3103 4656 3366 4563 
z
" transform="scale(0.015625)"/>
     </defs>
     <use xlink:href="#DejaVuSans-31" transform="translate(0 0.765625)"/>
     <use xlink:href="#DejaVuSans-30" transform="translate(63.623047 0.765625)"/>
     <use xlink:href="#DejaVuSans-36" transform="translate(128.203125 39.046875) scale(0.7)"/>
    </g>
   </g>
   <g id="text_2">
    <!-- $10^{7}$ -->
    <g style="fill: #262626" transform="translate(367.627809 274.219362) scale(0.1 -0.1)">
     <defs>
      <path id="DejaVuSans-37" d="M 525 4666 
L 3525 4666 
L 3525 4397 
L 1831 0 
L 1172 0 
L 2766 4134 
L 525 4134 
L 525 4666 
z
" transform="scale(0.015625)"/>
     </defs>
     <use xlink:href="#DejaVuSans-31" transform="translate(0 0.684375)"/>
     <use xlink:href="#DejaVuSans-30" transform="translate(63.623047 0.684375)"/>
     <use xlink:href="#DejaVuSans-37" transform="translate(128.203125 38.965625) scale(0.7)"/>
    </g>
   </g>
   <g id="text_3">
    <!-- $10^{8}$ -->
    <g style="fill: #262626" transform="translate(408.358581 274.219362) scale(0.1 -0.1)">
     <defs>
      <path id="DejaVuSans-38" d="M 2034 2216 
Q 1584 2216 1326 1975 
Q 1069 1734 1069 1313 
Q 1069 891 1326 650 
Q 1584 409 2034 409 
Q 2484 409 2743 651 
Q 3003 894 3003 1313 
Q 3003 1734 2745 1975 
Q 2488 2216 2034 2216 
z
M 1403 2484 
Q 997 2584 770 2862 
Q 544 3141 544 3541 
Q 544 4100 942 4425 
Q 1341 4750 2034 4750 
Q 2731 4750 3128 4425 
Q 3525 4100 3525 3541 
Q 3525 3141 3298 2862 
Q 3072 2584 2669 2484 
Q 3125 2378 3379 2068 
Q 3634 1759 3634 1313 
Q 3634 634 3220 271 
Q 2806 -91 2034 -91 
Q 1263 -91 848 271 
Q 434 634 434 1313 
Q 434 1759 690 2068 
Q 947 2378 1403 2484 
z
M 1172 3481 
Q 1172 3119 1398 2916 
Q 1625 2713 2034 2713 
Q 2441 2713 2670 2916 
Q 2900 3119 2900 3481 
Q 2900 3844 2670 4047 
Q 2441 4250 2034 4250 
Q 1625 4250 1398 4047 
Q 1172 3844 1172 3481 
z
" transform="scale(0.015625)"/>
     </defs>
     <use xlink:href="#DejaVuSans-31" transform="translate(0 0.765625)"/>
     <use xlink:href="#DejaVuSans-30" transform="translate(63.623047 0.765625)"/>
     <use xlink:href="#DejaVuSans-38" transform="translate(128.203125 39.046875) scale(0.7)"/>
    </g>
   </g>
   <g id="text_4">
    <!-- $10^{9}$ -->
    <g style="fill: #262626" transform="translate(449.089354 274.219362) scale(0.1 -0.1)">
     <defs>
      <path id="DejaVuSans-39" d="M 703 97 
L 703 672 
Q 941 559 1184 500 
Q 1428 441 1663 441 
Q 2288 441 2617 861 
Q 2947 1281 2994 2138 
Q 2813 1869 2534 1725 
Q 2256 1581 1919 1581 
Q 1219 1581 811 2004 
Q 403 2428 403 3163 
Q 403 3881 828 4315 
Q 1253 4750 1959 4750 
Q 2769 4750 3195 4129 
Q 3622 3509 3622 2328 
Q 3622 1225 3098 567 
Q 2575 -91 1691 -91 
Q 1453 -91 1209 -44 
Q 966 3 703 97 
z
M 1959 2075 
Q 2384 2075 2632 2365 
Q 2881 2656 2881 3163 
Q 2881 3666 2632 3958 
Q 2384 4250 1959 4250 
Q 1534 4250 1286 3958 
Q 1038 3666 1038 3163 
Q 1038 2656 1286 2365 
Q 1534 2075 1959 2075 
z
" transform="scale(0.015625)"/>
     </defs>
     <use xlink:href="#DejaVuSans-31" transform="translate(0 0.765625)"/>
     <use xlink:href="#DejaVuSans-30" transform="translate(63.623047 0.765625)"/>
     <use xlink:href="#DejaVuSans-39" transform="translate(128.203125 39.046875) scale(0.7)"/>
    </g>
   </g>
   <g id="text_5">
    <!-- $10^{10}$ -->
    <g style="fill: #262626" transform="translate(489.820126 274.219362) scale(0.1 -0.1)">
     <use xlink:href="#DejaVuSans-31" transform="translate(0 0.765625)"/>
     <use xlink:href="#DejaVuSans-30" transform="translate(63.623047 0.765625)"/>
     <use xlink:href="#DejaVuSans-31" transform="translate(128.203125 39.046875) scale(0.7)"/>
     <use xlink:href="#DejaVuSans-30" transform="translate(172.739258 39.046875) scale(0.7)"/>
    </g>
   </g>
   <g id="text_6">
    <!-- $10^{-2}$ -->
    <g style="fill: #262626" transform="translate(273.752765 230.482096) scale(0.1 -0.1)">
     <defs>
      <path id="DejaVuSans-2212" d="M 678 2272 
L 4684 2272 
L 4684 1741 
L 678 1741 
L 678 2272 
z
" transform="scale(0.015625)"/>
      <path id="DejaVuSans-32" d="M 1228 531 
L 3431 531 
L 3431 0 
L 469 0 
L 469 531 
Q 828 903 1448 1529 
Q 2069 2156 2228 2338 
Q 2531 2678 2651 2914 
Q 2772 3150 2772 3378 
Q 2772 3750 2511 3984 
Q 2250 4219 1831 4219 
Q 1534 4219 1204 4116 
Q 875 4013 500 3803 
L 500 4441 
Q 881 4594 1212 4672 
Q 1544 4750 1819 4750 
Q 2544 4750 2975 4387 
Q 3406 4025 3406 3419 
Q 3406 3131 3298 2873 
Q 3191 2616 2906 2266 
Q 2828 2175 2409 1742 
Q 1991 1309 1228 531 
z
" transform="scale(0.015625)"/>
     </defs>
     <use xlink:href="#DejaVuSans-31" transform="translate(0 0.765625)"/>
     <use xlink:href="#DejaVuSans-30" transform="translate(63.623047 0.765625)"/>
     <use xlink:href="#DejaVuSans-2212" transform="translate(128.203125 39.046875) scale(0.7)"/>
     <use xlink:href="#DejaVuSans-32" transform="translate(186.855469 39.046875) scale(0.7)"/>
    </g>
   </g>
   <g id="text_7">
    <!-- $10^{-1}$ -->
    <g style="fill: #262626" transform="translate(286.339266 191.744829) scale(0.1 -0.1)">
     <use xlink:href="#DejaVuSans-31" transform="translate(0 0.684375)"/>
     <use xlink:href="#DejaVuSans-30" transform="translate(63.623047 0.684375)"/>
     <use xlink:href="#DejaVuSans-2212" transform="translate(128.203125 38.965625) scale(0.7)"/>
     <use xlink:href="#DejaVuSans-31" transform="translate(186.855469 38.965625) scale(0.7)"/>
    </g>
   </g>
   <g id="text_8">
    <!-- $10^{0}$ -->
    <g style="fill: #262626" transform="translate(298.925767 153.007563) scale(0.1 -0.1)">
     <use xlink:href="#DejaVuSans-31" transform="translate(0 0.765625)"/>
     <use xlink:href="#DejaVuSans-30" transform="translate(63.623047 0.765625)"/>
     <use xlink:href="#DejaVuSans-30" transform="translate(128.203125 39.046875) scale(0.7)"/>
    </g>
   </g>
   <g id="text_9">
    <!-- $10^{1}$ -->
    <g style="fill: #262626" transform="translate(311.512268 114.270297) scale(0.1 -0.1)">
     <use xlink:href="#DejaVuSans-31" transform="translate(0 0.684375)"/>
     <use xlink:href="#DejaVuSans-30" transform="translate(63.623047 0.684375)"/>
     <use xlink:href="#DejaVuSans-31" transform="translate(128.203125 38.965625) scale(0.7)"/>
    </g>
   </g>
   <g id="text_10">
    <!-- $10^{2}$ -->
    <g style="fill: #262626" transform="translate(324.098769 75.53303) scale(0.1 -0.1)">
     <use xlink:href="#DejaVuSans-31" transform="translate(0 0.765625)"/>
     <use xlink:href="#DejaVuSans-30" transform="translate(63.623047 0.765625)"/>
     <use xlink:href="#DejaVuSans-32" transform="translate(128.203125 39.046875) scale(0.7)"/>
    </g>
   </g>
   <g id="text_11">
    <!-- $10^{3}$ -->
    <g style="fill: #262626" transform="translate(225.214378 263.278415) scale(0.1 -0.1)">
     <defs>
      <path id="DejaVuSans-33" d="M 2597 2516 
Q 3050 2419 3304 2112 
Q 3559 1806 3559 1356 
Q 3559 666 3084 287 
Q 2609 -91 1734 -91 
Q 1441 -91 1130 -33 
Q 819 25 488 141 
L 488 750 
Q 750 597 1062 519 
Q 1375 441 1716 441 
Q 2309 441 2620 675 
Q 2931 909 2931 1356 
Q 2931 1769 2642 2001 
Q 2353 2234 1838 2234 
L 1294 2234 
L 1294 2753 
L 1863 2753 
Q 2328 2753 2575 2939 
Q 2822 3125 2822 3475 
Q 2822 3834 2567 4026 
Q 2313 4219 1838 4219 
Q 1578 4219 1281 4162 
Q 984 4106 628 3988 
L 628 4550 
Q 988 4650 1302 4700 
Q 1616 4750 1894 4750 
Q 2613 4750 3031 4423 
Q 3450 4097 3450 3541 
Q 3450 3153 3228 2886 
Q 3006 2619 2597 2516 
z
" transform="scale(0.015625)"/>
     </defs>
     <use xlink:href="#DejaVuSans-31" transform="translate(0 0.765625)"/>
     <use xlink:href="#DejaVuSans-30" transform="translate(63.623047 0.765625)"/>
     <use xlink:href="#DejaVuSans-33" transform="translate(128.203125 39.046875) scale(0.7)"/>
    </g>
   </g>
   <g id="text_12">
    <!-- $10^{4}$ -->
    <g style="fill: #262626" transform="translate(192.262491 239.337468) scale(0.1 -0.1)">
     <defs>
      <path id="DejaVuSans-34" d="M 2419 4116 
L 825 1625 
L 2419 1625 
L 2419 4116 
z
M 2253 4666 
L 3047 4666 
L 3047 1625 
L 3713 1625 
L 3713 1100 
L 3047 1100 
L 3047 0 
L 2419 0 
L 2419 1100 
L 313 1100 
L 313 1709 
L 2253 4666 
z
" transform="scale(0.015625)"/>
     </defs>
     <use xlink:href="#DejaVuSans-31" transform="translate(0 0.684375)"/>
     <use xlink:href="#DejaVuSans-30" transform="translate(63.623047 0.684375)"/>
     <use xlink:href="#DejaVuSans-34" transform="translate(128.203125 38.965625) scale(0.7)"/>
    </g>
   </g>
   <g id="text_13">
    <!-- $10^{5}$ -->
    <g style="fill: #262626" transform="translate(159.310604 215.39652) scale(0.1 -0.1)">
     <defs>
      <path id="DejaVuSans-35" d="M 691 4666 
L 3169 4666 
L 3169 4134 
L 1269 4134 
L 1269 2991 
Q 1406 3038 1543 3061 
Q 1681 3084 1819 3084 
Q 2600 3084 3056 2656 
Q 3513 2228 3513 1497 
Q 3513 744 3044 326 
Q 2575 -91 1722 -91 
Q 1428 -91 1123 -41 
Q 819 9 494 109 
L 494 744 
Q 775 591 1075 516 
Q 1375 441 1709 441 
Q 2250 441 2565 725 
Q 2881 1009 2881 1497 
Q 2881 1984 2565 2268 
Q 2250 2553 1709 2553 
Q 1456 2553 1204 2497 
Q 953 2441 691 2322 
L 691 4666 
z
" transform="scale(0.015625)"/>
     </defs>
     <use xlink:href="#DejaVuSans-31" transform="translate(0 0.684375)"/>
     <use xlink:href="#DejaVuSans-30" transform="translate(63.623047 0.684375)"/>
     <use xlink:href="#DejaVuSans-35" transform="translate(128.203125 38.965625) scale(0.7)"/>
    </g>
   </g>
   <g id="text_14">
    <!-- $10^{6}$ -->
    <g style="fill: #262626" transform="translate(126.358717 191.455573) scale(0.1 -0.1)">
     <use xlink:href="#DejaVuSans-31" transform="translate(0 0.765625)"/>
     <use xlink:href="#DejaVuSans-30" transform="translate(63.623047 0.765625)"/>
     <use xlink:href="#DejaVuSans-36" transform="translate(128.203125 39.046875) scale(0.7)"/>
    </g>
   </g>
   <g id="text_15">
    <!-- $10^{7}$ -->
    <g style="fill: #262626" transform="translate(93.40683 167.514626) scale(0.1 -0.1)">
     <use xlink:href="#DejaVuSans-31" transform="translate(0 0.684375)"/>
     <use xlink:href="#DejaVuSans-30" transform="translate(63.623047 0.684375)"/>
     <use xlink:href="#DejaVuSans-37" transform="translate(128.203125 38.965625) scale(0.7)"/>
    </g>
   </g>
   <g id="text_16">
    <!-- $10^{3}$ -->
    <g style="fill: #262626" transform="translate(240.214378 321.160309) scale(0.1 -0.1)">
     <use xlink:href="#DejaVuSans-31" transform="translate(0 0.765625)"/>
     <use xlink:href="#DejaVuSans-30" transform="translate(63.623047 0.765625)"/>
     <use xlink:href="#DejaVuSans-33" transform="translate(128.203125 39.046875) scale(0.7)"/>
    </g>
   </g>
   <g id="text_17">
    <!-- $10^{4}$ -->
    <g style="fill: #262626" transform="translate(207.262491 345.101257) scale(0.1 -0.1)">
     <use xlink:href="#DejaVuSans-31" transform="translate(0 0.684375)"/>
     <use xlink:href="#DejaVuSans-30" transform="translate(63.623047 0.684375)"/>
     <use xlink:href="#DejaVuSans-34" transform="translate(128.203125 38.965625) scale(0.7)"/>
    </g>
   </g>
   <g id="text_18">
    <!-- $10^{5}$ -->
    <g style="fill: #262626" transform="translate(174.310604 369.042204) scale(0.1 -0.1)">
     <use xlink:href="#DejaVuSans-31" transform="translate(0 0.684375)"/>
     <use xlink:href="#DejaVuSans-30" transform="translate(63.623047 0.684375)"/>
     <use xlink:href="#DejaVuSans-35" transform="translate(128.203125 38.965625) scale(0.7)"/>
    </g>
   </g>
   <g id="text_19">
    <!-- $10^{6}$ -->
    <g style="fill: #262626" transform="translate(141.358717 392.983151) scale(0.1 -0.1)">
     <use xlink:href="#DejaVuSans-31" transform="translate(0 0.765625)"/>
     <use xlink:href="#DejaVuSans-30" transform="translate(63.623047 0.765625)"/>
     <use xlink:href="#DejaVuSans-36" transform="translate(128.203125 39.046875) scale(0.7)"/>
    </g>
   </g>
   <g id="text_20">
    <!-- $10^{7}$ -->
    <g style="fill: #262626" transform="translate(108.40683 416.924098) scale(0.1 -0.1)">
     <use xlink:href="#DejaVuSans-31" transform="translate(0 0.684375)"/>
     <use xlink:href="#DejaVuSans-30" transform="translate(63.623047 0.684375)"/>
     <use xlink:href="#DejaVuSans-37" transform="translate(128.203125 38.965625) scale(0.7)"/>
    </g>
   </g>
   <g id="text_21">
    <!-- $10^{4}$ -->
    <g style="fill: #262626" transform="translate(300.752765 325.956628) scale(0.1 -0.1)">
     <use xlink:href="#DejaVuSans-31" transform="translate(0 0.684375)"/>
     <use xlink:href="#DejaVuSans-30" transform="translate(63.623047 0.684375)"/>
     <use xlink:href="#DejaVuSans-34" transform="translate(128.203125 38.965625) scale(0.7)"/>
    </g>
   </g>
   <g id="text_22">
    <!-- $10^{3}$ -->
    <g style="fill: #262626" transform="translate(313.339266 364.693895) scale(0.1 -0.1)">
     <use xlink:href="#DejaVuSans-31" transform="translate(0 0.765625)"/>
     <use xlink:href="#DejaVuSans-30" transform="translate(63.623047 0.765625)"/>
     <use xlink:href="#DejaVuSans-33" transform="translate(128.203125 39.046875) scale(0.7)"/>
    </g>
   </g>
   <g id="text_23">
    <!-- $10^{2}$ -->
    <g style="fill: #262626" transform="translate(325.925767 403.431161) scale(0.1 -0.1)">
     <use xlink:href="#DejaVuSans-31" transform="translate(0 0.765625)"/>
     <use xlink:href="#DejaVuSans-30" transform="translate(63.623047 0.765625)"/>
     <use xlink:href="#DejaVuSans-32" transform="translate(128.203125 39.046875) scale(0.7)"/>
    </g>
   </g>
   <g id="text_24">
    <!-- $10^{1}$ -->
    <g style="fill: #262626" transform="translate(338.512268 442.168427) scale(0.1 -0.1)">
     <use xlink:href="#DejaVuSans-31" transform="translate(0 0.684375)"/>
     <use xlink:href="#DejaVuSans-30" transform="translate(63.623047 0.684375)"/>
     <use xlink:href="#DejaVuSans-31" transform="translate(128.203125 38.965625) scale(0.7)"/>
    </g>
   </g>
   <g id="text_25">
    <!-- $10^{0}$ -->
    <g style="fill: #262626" transform="translate(351.098769 480.905694) scale(0.1 -0.1)">
     <use xlink:href="#DejaVuSans-31" transform="translate(0 0.765625)"/>
     <use xlink:href="#DejaVuSans-30" transform="translate(63.623047 0.765625)"/>
     <use xlink:href="#DejaVuSans-30" transform="translate(128.203125 39.046875) scale(0.7)"/>
    </g>
   </g>
   <g id="text_26">
    <!-- Number of -->
    <g style="fill: #262626" transform="translate(484.751857 233.399961) scale(0.12 -0.12)">
     <defs>
      <path id="LiberationSans-4e" d="M 3381 0 
L 1025 3750 
L 1041 3447 
L 1056 2925 
L 1056 0 
L 525 0 
L 525 4403 
L 1219 4403 
L 3600 628 
Q 3563 1241 3563 1516 
L 3563 4403 
L 4100 4403 
L 4100 0 
L 3381 0 
z
" transform="scale(0.015625)"/>
      <path id="LiberationSans-75" d="M 981 3381 
L 981 1238 
Q 981 903 1047 718 
Q 1113 534 1256 453 
Q 1400 372 1678 372 
Q 2084 372 2318 650 
Q 2553 928 2553 1422 
L 2553 3381 
L 3116 3381 
L 3116 722 
Q 3116 131 3134 0 
L 2603 0 
Q 2600 16 2597 84 
Q 2594 153 2589 242 
Q 2584 331 2578 578 
L 2569 578 
Q 2375 228 2120 82 
Q 1866 -63 1488 -63 
Q 931 -63 673 214 
Q 416 491 416 1128 
L 416 3381 
L 981 3381 
z
" transform="scale(0.015625)"/>
      <path id="LiberationSans-6d" d="M 2400 0 
L 2400 2144 
Q 2400 2634 2265 2821 
Q 2131 3009 1781 3009 
Q 1422 3009 1212 2734 
Q 1003 2459 1003 1959 
L 1003 0 
L 444 0 
L 444 2659 
Q 444 3250 425 3381 
L 956 3381 
Q 959 3366 962 3297 
Q 966 3228 970 3139 
Q 975 3050 981 2803 
L 991 2803 
Q 1172 3163 1406 3303 
Q 1641 3444 1978 3444 
Q 2363 3444 2586 3291 
Q 2809 3138 2897 2803 
L 2906 2803 
Q 3081 3144 3329 3294 
Q 3578 3444 3931 3444 
Q 4444 3444 4676 3166 
Q 4909 2888 4909 2253 
L 4909 0 
L 4353 0 
L 4353 2144 
Q 4353 2634 4218 2821 
Q 4084 3009 3734 3009 
Q 3366 3009 3161 2736 
Q 2956 2463 2956 1959 
L 2956 0 
L 2400 0 
z
" transform="scale(0.015625)"/>
      <path id="LiberationSans-62" d="M 3291 1706 
Q 3291 -63 2047 -63 
Q 1663 -63 1408 76 
Q 1153 216 994 525 
L 988 525 
Q 988 428 975 229 
Q 963 31 956 0 
L 413 0 
Q 431 169 431 697 
L 431 4638 
L 994 4638 
L 994 3316 
Q 994 3113 981 2838 
L 994 2838 
Q 1150 3163 1408 3303 
Q 1666 3444 2047 3444 
Q 2688 3444 2989 3012 
Q 3291 2581 3291 1706 
z
M 2700 1688 
Q 2700 2397 2512 2703 
Q 2325 3009 1903 3009 
Q 1428 3009 1211 2684 
Q 994 2359 994 1653 
Q 994 988 1206 670 
Q 1419 353 1897 353 
Q 2322 353 2511 667 
Q 2700 981 2700 1688 
z
" transform="scale(0.015625)"/>
      <path id="LiberationSans-65" d="M 863 1572 
Q 863 991 1103 675 
Q 1344 359 1806 359 
Q 2172 359 2392 506 
Q 2613 653 2691 878 
L 3184 738 
Q 2881 -63 1806 -63 
Q 1056 -63 664 384 
Q 272 831 272 1713 
Q 272 2550 664 2997 
Q 1056 3444 1784 3444 
Q 3275 3444 3275 1647 
L 3275 1572 
L 863 1572 
z
M 2694 2003 
Q 2647 2538 2422 2783 
Q 2197 3028 1775 3028 
Q 1366 3028 1127 2754 
Q 888 2481 869 2003 
L 2694 2003 
z
" transform="scale(0.015625)"/>
      <path id="LiberationSans-72" d="M 444 0 
L 444 2594 
Q 444 2950 425 3381 
L 956 3381 
Q 981 2806 981 2691 
L 994 2691 
Q 1128 3125 1303 3284 
Q 1478 3444 1797 3444 
Q 1909 3444 2025 3413 
L 2025 2897 
Q 1913 2928 1725 2928 
Q 1375 2928 1190 2626 
Q 1006 2325 1006 1763 
L 1006 0 
L 444 0 
z
" transform="scale(0.015625)"/>
      <path id="LiberationSans-20" transform="scale(0.015625)"/>
      <path id="LiberationSans-6f" d="M 3291 1694 
Q 3291 806 2900 371 
Q 2509 -63 1766 -63 
Q 1025 -63 647 389 
Q 269 841 269 1694 
Q 269 3444 1784 3444 
Q 2559 3444 2925 3017 
Q 3291 2591 3291 1694 
z
M 2700 1694 
Q 2700 2394 2492 2711 
Q 2284 3028 1794 3028 
Q 1300 3028 1079 2704 
Q 859 2381 859 1694 
Q 859 1025 1076 689 
Q 1294 353 1759 353 
Q 2266 353 2483 678 
Q 2700 1003 2700 1694 
z
" transform="scale(0.015625)"/>
      <path id="LiberationSans-66" d="M 1128 2972 
L 1128 0 
L 566 0 
L 566 2972 
L 91 2972 
L 91 3381 
L 566 3381 
L 566 3763 
Q 566 4225 769 4428 
Q 972 4631 1391 4631 
Q 1625 4631 1788 4594 
L 1788 4166 
Q 1647 4191 1538 4191 
Q 1322 4191 1225 4081 
Q 1128 3972 1128 3684 
L 1128 3381 
L 1788 3381 
L 1788 2972 
L 1128 2972 
z
" transform="scale(0.015625)"/>
     </defs>
     <use xlink:href="#LiberationSans-4e"/>
     <use xlink:href="#LiberationSans-75" x="72.216797"/>
     <use xlink:href="#LiberationSans-6d" x="127.832031"/>
     <use xlink:href="#LiberationSans-62" x="211.132812"/>
     <use xlink:href="#LiberationSans-65" x="266.748047"/>
     <use xlink:href="#LiberationSans-72" x="322.363281"/>
     <use xlink:href="#LiberationSans-20" x="355.664062"/>
     <use xlink:href="#LiberationSans-6f" x="383.447266"/>
     <use xlink:href="#LiberationSans-66" x="439.0625"/>
    </g>
    <!-- neurons -->
    <g style="fill: #262626" transform="translate(491.079982 246.325461) scale(0.12 -0.12)">
     <defs>
      <path id="LiberationSans-6e" d="M 2578 0 
L 2578 2144 
Q 2578 2478 2512 2662 
Q 2447 2847 2303 2928 
Q 2159 3009 1881 3009 
Q 1475 3009 1240 2731 
Q 1006 2453 1006 1959 
L 1006 0 
L 444 0 
L 444 2659 
Q 444 3250 425 3381 
L 956 3381 
Q 959 3366 962 3297 
Q 966 3228 970 3139 
Q 975 3050 981 2803 
L 991 2803 
Q 1184 3153 1439 3298 
Q 1694 3444 2072 3444 
Q 2628 3444 2886 3167 
Q 3144 2891 3144 2253 
L 3144 0 
L 2578 0 
z
" transform="scale(0.015625)"/>
      <path id="LiberationSans-73" d="M 2969 934 
Q 2969 456 2608 196 
Q 2247 -63 1597 -63 
Q 966 -63 623 145 
Q 281 353 178 794 
L 675 891 
Q 747 619 972 492 
Q 1197 366 1597 366 
Q 2025 366 2223 497 
Q 2422 628 2422 891 
Q 2422 1091 2284 1216 
Q 2147 1341 1841 1422 
L 1438 1528 
Q 953 1653 748 1773 
Q 544 1894 428 2066 
Q 313 2238 313 2488 
Q 313 2950 642 3192 
Q 972 3434 1603 3434 
Q 2163 3434 2492 3237 
Q 2822 3041 2909 2606 
L 2403 2544 
Q 2356 2769 2151 2889 
Q 1947 3009 1603 3009 
Q 1222 3009 1040 2893 
Q 859 2778 859 2544 
Q 859 2400 934 2306 
Q 1009 2213 1156 2147 
Q 1303 2081 1775 1966 
Q 2222 1853 2419 1758 
Q 2616 1663 2730 1547 
Q 2844 1431 2906 1279 
Q 2969 1128 2969 934 
z
" transform="scale(0.015625)"/>
     </defs>
     <use xlink:href="#LiberationSans-6e"/>
     <use xlink:href="#LiberationSans-65" x="55.615234"/>
     <use xlink:href="#LiberationSans-75" x="111.230469"/>
     <use xlink:href="#LiberationSans-72" x="166.845703"/>
     <use xlink:href="#LiberationSans-6f" x="200.146484"/>
     <use xlink:href="#LiberationSans-6e" x="255.761719"/>
     <use xlink:href="#LiberationSans-73" x="311.376953"/>
    </g>
   </g>
   <g id="text_27">
    <g id="patch_18">
     <path d="M 502.298937 327.699577 
L 566.767687 327.699577 
Q 571.767687 327.699577 571.767687 322.699577 
L 571.767687 302.606452 
Q 571.767687 297.606452 566.767687 297.606452 
L 502.298937 297.606452 
Q 497.298937 297.606452 497.298937 302.606452 
L 497.298937 322.699577 
Q 497.298937 327.699577 502.298937 327.699577 
z
" style="fill: #82c3ff; opacity: 0.8; stroke: #000000; stroke-linejoin: miter"/>
    </g>
    <!-- Total Neurons: -->
    <g style="fill: #262626" transform="translate(502.298937 309.853327) scale(0.1 -0.1)">
     <defs>
      <path id="LiberationSans-54" d="M 2250 3916 
L 2250 0 
L 1656 0 
L 1656 3916 
L 144 3916 
L 144 4403 
L 3763 4403 
L 3763 3916 
L 2250 3916 
z
" transform="scale(0.015625)"/>
      <path id="LiberationSans-74" d="M 1731 25 
Q 1453 -50 1163 -50 
Q 488 -50 488 716 
L 488 2972 
L 97 2972 
L 97 3381 
L 509 3381 
L 675 4138 
L 1050 4138 
L 1050 3381 
L 1675 3381 
L 1675 2972 
L 1050 2972 
L 1050 838 
Q 1050 594 1129 495 
Q 1209 397 1406 397 
Q 1519 397 1731 441 
L 1731 25 
z
" transform="scale(0.015625)"/>
      <path id="LiberationSans-61" d="M 1294 -63 
Q 784 -63 528 206 
Q 272 475 272 944 
Q 272 1469 617 1750 
Q 963 2031 1731 2050 
L 2491 2063 
L 2491 2247 
Q 2491 2659 2316 2837 
Q 2141 3016 1766 3016 
Q 1388 3016 1216 2887 
Q 1044 2759 1009 2478 
L 422 2531 
Q 566 3444 1778 3444 
Q 2416 3444 2737 3151 
Q 3059 2859 3059 2306 
L 3059 850 
Q 3059 600 3125 473 
Q 3191 347 3375 347 
Q 3456 347 3559 369 
L 3559 19 
Q 3347 -31 3125 -31 
Q 2813 -31 2670 133 
Q 2528 297 2509 647 
L 2491 647 
Q 2275 259 1989 98 
Q 1703 -63 1294 -63 
z
M 1422 359 
Q 1731 359 1972 500 
Q 2213 641 2352 886 
Q 2491 1131 2491 1391 
L 2491 1669 
L 1875 1656 
Q 1478 1650 1273 1575 
Q 1069 1500 959 1344 
Q 850 1188 850 934 
Q 850 659 998 509 
Q 1147 359 1422 359 
z
" transform="scale(0.015625)"/>
      <path id="LiberationSans-6c" d="M 431 0 
L 431 4638 
L 994 4638 
L 994 0 
L 431 0 
z
" transform="scale(0.015625)"/>
      <path id="LiberationSans-3a" d="M 584 2734 
L 584 3381 
L 1194 3381 
L 1194 2734 
L 584 2734 
z
M 584 0 
L 584 647 
L 1194 647 
L 1194 0 
L 584 0 
z
" transform="scale(0.015625)"/>
     </defs>
     <use xlink:href="#LiberationSans-54"/>
     <use xlink:href="#LiberationSans-6f" x="49.958984"/>
     <use xlink:href="#LiberationSans-74" x="105.574219"/>
     <use xlink:href="#LiberationSans-61" x="133.357422"/>
     <use xlink:href="#LiberationSans-6c" x="188.972656"/>
     <use xlink:href="#LiberationSans-20" x="211.189453"/>
     <use xlink:href="#LiberationSans-4e" x="238.972656"/>
     <use xlink:href="#LiberationSans-65" x="311.189453"/>
     <use xlink:href="#LiberationSans-75" x="366.804688"/>
     <use xlink:href="#LiberationSans-72" x="422.419922"/>
     <use xlink:href="#LiberationSans-6f" x="455.720703"/>
     <use xlink:href="#LiberationSans-6e" x="511.335938"/>
     <use xlink:href="#LiberationSans-73" x="566.951172"/>
     <use xlink:href="#LiberationSans-3a" x="616.951172"/>
    </g>
    <!-- $\mathbf{8.7 \times 10^{10}}$ -->
    <g style="fill: #262626" transform="translate(507.483312 320.624577) scale(0.1 -0.1)">
     <defs>
      <path id="DejaVuSans-Bold-38" d="M 2228 2088 
Q 1891 2088 1709 1903 
Q 1528 1719 1528 1375 
Q 1528 1031 1709 848 
Q 1891 666 2228 666 
Q 2563 666 2741 848 
Q 2919 1031 2919 1375 
Q 2919 1722 2741 1905 
Q 2563 2088 2228 2088 
z
M 1350 2484 
Q 925 2613 709 2878 
Q 494 3144 494 3541 
Q 494 4131 934 4440 
Q 1375 4750 2228 4750 
Q 3075 4750 3515 4442 
Q 3956 4134 3956 3541 
Q 3956 3144 3739 2878 
Q 3522 2613 3097 2484 
Q 3572 2353 3814 2058 
Q 4056 1763 4056 1313 
Q 4056 619 3595 264 
Q 3134 -91 2228 -91 
Q 1319 -91 855 264 
Q 391 619 391 1313 
Q 391 1763 633 2058 
Q 875 2353 1350 2484 
z
M 1631 3419 
Q 1631 3141 1786 2991 
Q 1941 2841 2228 2841 
Q 2509 2841 2662 2991 
Q 2816 3141 2816 3419 
Q 2816 3697 2662 3845 
Q 2509 3994 2228 3994 
Q 1941 3994 1786 3844 
Q 1631 3694 1631 3419 
z
" transform="scale(0.015625)"/>
      <path id="DejaVuSans-Bold-2e" d="M 653 1209 
L 1778 1209 
L 1778 0 
L 653 0 
L 653 1209 
z
" transform="scale(0.015625)"/>
      <path id="DejaVuSans-Bold-37" d="M 428 4666 
L 3944 4666 
L 3944 3988 
L 2125 0 
L 953 0 
L 2675 3781 
L 428 3781 
L 428 4666 
z
" transform="scale(0.015625)"/>
      <path id="DejaVuSans-Bold-d7" d="M 4563 3359 
L 3206 2003 
L 4563 653 
L 4038 128 
L 2681 1478 
L 1325 128 
L 800 653 
L 2156 2003 
L 800 3359 
L 1325 3884 
L 2681 2528 
L 4038 3884 
L 4563 3359 
z
" transform="scale(0.015625)"/>
      <path id="DejaVuSans-Bold-31" d="M 750 831 
L 1813 831 
L 1813 3847 
L 722 3622 
L 722 4441 
L 1806 4666 
L 2950 4666 
L 2950 831 
L 4013 831 
L 4013 0 
L 750 0 
L 750 831 
z
" transform="scale(0.015625)"/>
      <path id="DejaVuSans-Bold-30" d="M 2944 2338 
Q 2944 3213 2780 3570 
Q 2616 3928 2228 3928 
Q 1841 3928 1675 3570 
Q 1509 3213 1509 2338 
Q 1509 1453 1675 1090 
Q 1841 728 2228 728 
Q 2613 728 2778 1090 
Q 2944 1453 2944 2338 
z
M 4147 2328 
Q 4147 1169 3647 539 
Q 3147 -91 2228 -91 
Q 1306 -91 806 539 
Q 306 1169 306 2328 
Q 306 3491 806 4120 
Q 1306 4750 2228 4750 
Q 3147 4750 3647 4120 
Q 4147 3491 4147 2328 
z
" transform="scale(0.015625)"/>
     </defs>
     <use xlink:href="#DejaVuSans-Bold-38" transform="translate(0 0.765625)"/>
     <use xlink:href="#DejaVuSans-Bold-2e" transform="translate(69.580078 0.765625)"/>
     <use xlink:href="#DejaVuSans-Bold-37" transform="translate(107.568359 0.765625)"/>
     <use xlink:href="#DejaVuSans-Bold-d7" transform="translate(196.630859 0.765625)"/>
     <use xlink:href="#DejaVuSans-Bold-31" transform="translate(299.902344 0.765625)"/>
     <use xlink:href="#DejaVuSans-Bold-30" transform="translate(369.482422 0.765625)"/>
     <use xlink:href="#DejaVuSans-Bold-31" transform="translate(440.019531 39.046875) scale(0.7)"/>
     <use xlink:href="#DejaVuSans-Bold-30" transform="translate(488.725586 39.046875) scale(0.7)"/>
    </g>
   </g>
   <g id="text_28">
    <!-- Temporal -->
    <g style="fill: #262626" transform="translate(261.692587 51.531478) scale(0.12 -0.12)">
     <defs>
      <path id="LiberationSans-70" d="M 3291 1706 
Q 3291 -63 2047 -63 
Q 1266 -63 997 525 
L 981 525 
Q 994 500 994 -6 
L 994 -1328 
L 431 -1328 
L 431 2691 
Q 431 3213 413 3381 
L 956 3381 
Q 959 3369 965 3292 
Q 972 3216 980 3056 
Q 988 2897 988 2838 
L 1000 2838 
Q 1150 3150 1397 3295 
Q 1644 3441 2047 3441 
Q 2672 3441 2981 3022 
Q 3291 2603 3291 1706 
z
M 2700 1694 
Q 2700 2400 2509 2703 
Q 2319 3006 1903 3006 
Q 1569 3006 1380 2865 
Q 1191 2725 1092 2426 
Q 994 2128 994 1650 
Q 994 984 1206 668 
Q 1419 353 1897 353 
Q 2316 353 2508 661 
Q 2700 969 2700 1694 
z
" transform="scale(0.015625)"/>
     </defs>
     <use xlink:href="#LiberationSans-54"/>
     <use xlink:href="#LiberationSans-65" x="49.958984"/>
     <use xlink:href="#LiberationSans-6d" x="105.574219"/>
     <use xlink:href="#LiberationSans-70" x="188.875"/>
     <use xlink:href="#LiberationSans-6f" x="244.490234"/>
     <use xlink:href="#LiberationSans-72" x="300.105469"/>
     <use xlink:href="#LiberationSans-61" x="333.40625"/>
     <use xlink:href="#LiberationSans-6c" x="389.021484"/>
    </g>
    <!-- resolution: Hz -->
    <g style="fill: #262626" transform="translate(249.68415 64.456978) scale(0.12 -0.12)">
     <defs>
      <path id="LiberationSans-69" d="M 428 4100 
L 428 4638 
L 991 4638 
L 991 4100 
L 428 4100 
z
M 428 0 
L 428 3381 
L 991 3381 
L 991 0 
L 428 0 
z
" transform="scale(0.015625)"/>
      <path id="LiberationSans-48" d="M 3503 0 
L 3503 2041 
L 1122 2041 
L 1122 0 
L 525 0 
L 525 4403 
L 1122 4403 
L 1122 2541 
L 3503 2541 
L 3503 4403 
L 4100 4403 
L 4100 0 
L 3503 0 
z
" transform="scale(0.015625)"/>
      <path id="LiberationSans-7a" d="M 259 0 
L 259 428 
L 2150 2947 
L 366 2947 
L 366 3381 
L 2816 3381 
L 2816 2953 
L 922 434 
L 2881 434 
L 2881 0 
L 259 0 
z
" transform="scale(0.015625)"/>
     </defs>
     <use xlink:href="#LiberationSans-72"/>
     <use xlink:href="#LiberationSans-65" x="33.300781"/>
     <use xlink:href="#LiberationSans-73" x="88.916016"/>
     <use xlink:href="#LiberationSans-6f" x="138.916016"/>
     <use xlink:href="#LiberationSans-6c" x="194.53125"/>
     <use xlink:href="#LiberationSans-75" x="216.748047"/>
     <use xlink:href="#LiberationSans-74" x="272.363281"/>
     <use xlink:href="#LiberationSans-69" x="300.146484"/>
     <use xlink:href="#LiberationSans-6f" x="322.363281"/>
     <use xlink:href="#LiberationSans-6e" x="377.978516"/>
     <use xlink:href="#LiberationSans-3a" x="433.59375"/>
     <use xlink:href="#LiberationSans-20" x="461.376953"/>
     <use xlink:href="#LiberationSans-48" x="489.160156"/>
     <use xlink:href="#LiberationSans-7a" x="561.376953"/>
    </g>
   </g>
   <g id="text_29">
    <g id="patch_19">
     <path d="M 376.486228 80.544623 
L 442.186228 80.544623 
Q 447.186228 80.544623 447.186228 75.544623 
L 447.186228 44.680248 
Q 447.186228 39.680248 442.186228 39.680248 
L 376.486228 39.680248 
Q 371.486228 39.680248 371.486228 44.680248 
L 371.486228 75.544623 
Q 371.486228 80.544623 376.486228 80.544623 
z
" style="fill: #82c3ff; opacity: 0.8; stroke: #000000; stroke-linejoin: miter"/>
    </g>
    <!-- Max. Neuron -->
    <g style="fill: #262626" transform="translate(380.715134 51.927123) scale(0.1 -0.1)">
     <defs>
      <path id="LiberationSans-4d" d="M 4269 0 
L 4269 2938 
Q 4269 3425 4297 3875 
Q 4144 3316 4022 3000 
L 2884 0 
L 2466 0 
L 1313 3000 
L 1138 3531 
L 1034 3875 
L 1044 3528 
L 1056 2938 
L 1056 0 
L 525 0 
L 525 4403 
L 1309 4403 
L 2481 1350 
Q 2544 1166 2601 955 
Q 2659 744 2678 650 
Q 2703 775 2783 1029 
Q 2863 1284 2891 1350 
L 4041 4403 
L 4806 4403 
L 4806 0 
L 4269 0 
z
" transform="scale(0.015625)"/>
      <path id="LiberationSans-78" d="M 2503 0 
L 1594 1388 
L 678 0 
L 72 0 
L 1275 1738 
L 128 3381 
L 750 3381 
L 1594 2066 
L 2431 3381 
L 3059 3381 
L 1913 1744 
L 3131 0 
L 2503 0 
z
" transform="scale(0.015625)"/>
      <path id="LiberationSans-2e" d="M 584 0 
L 584 684 
L 1194 684 
L 1194 0 
L 584 0 
z
" transform="scale(0.015625)"/>
     </defs>
     <use xlink:href="#LiberationSans-4d"/>
     <use xlink:href="#LiberationSans-61" x="83.300781"/>
     <use xlink:href="#LiberationSans-78" x="138.916016"/>
     <use xlink:href="#LiberationSans-2e" x="188.916016"/>
     <use xlink:href="#LiberationSans-20" x="216.699219"/>
     <use xlink:href="#LiberationSans-4e" x="244.482422"/>
     <use xlink:href="#LiberationSans-65" x="316.699219"/>
     <use xlink:href="#LiberationSans-75" x="372.314453"/>
     <use xlink:href="#LiberationSans-72" x="427.929688"/>
     <use xlink:href="#LiberationSans-6f" x="461.230469"/>
     <use xlink:href="#LiberationSans-6e" x="516.845703"/>
    </g>
    <!-- Firing Rate: -->
    <g style="fill: #262626" transform="translate(383.495603 62.698373) scale(0.1 -0.1)">
     <defs>
      <path id="LiberationSans-46" d="M 1122 3916 
L 1122 2278 
L 3578 2278 
L 3578 1784 
L 1122 1784 
L 1122 0 
L 525 0 
L 525 4403 
L 3653 4403 
L 3653 3916 
L 1122 3916 
z
" transform="scale(0.015625)"/>
      <path id="LiberationSans-67" d="M 1713 -1328 
Q 1159 -1328 831 -1111 
Q 503 -894 409 -494 
L 975 -413 
Q 1031 -647 1223 -773 
Q 1416 -900 1728 -900 
Q 2569 -900 2569 84 
L 2569 628 
L 2563 628 
Q 2403 303 2125 139 
Q 1847 -25 1475 -25 
Q 853 -25 561 387 
Q 269 800 269 1684 
Q 269 2581 583 3007 
Q 897 3434 1538 3434 
Q 1897 3434 2161 3270 
Q 2425 3106 2569 2803 
L 2575 2803 
Q 2575 2897 2587 3128 
Q 2600 3359 2613 3381 
L 3147 3381 
Q 3128 3213 3128 2681 
L 3128 97 
Q 3128 -1328 1713 -1328 
z
M 2569 1691 
Q 2569 2103 2456 2401 
Q 2344 2700 2139 2858 
Q 1934 3016 1675 3016 
Q 1244 3016 1047 2703 
Q 850 2391 850 1691 
Q 850 997 1034 694 
Q 1219 391 1666 391 
Q 1931 391 2137 547 
Q 2344 703 2456 995 
Q 2569 1288 2569 1691 
z
" transform="scale(0.015625)"/>
      <path id="LiberationSans-52" d="M 3638 0 
L 2494 1828 
L 1122 1828 
L 1122 0 
L 525 0 
L 525 4403 
L 2597 4403 
Q 3341 4403 3745 4070 
Q 4150 3738 4150 3144 
Q 4150 2653 3864 2318 
Q 3578 1984 3075 1897 
L 4325 0 
L 3638 0 
z
M 3550 3138 
Q 3550 3522 3289 3723 
Q 3028 3925 2538 3925 
L 1122 3925 
L 1122 2300 
L 2563 2300 
Q 3034 2300 3292 2520 
Q 3550 2741 3550 3138 
z
" transform="scale(0.015625)"/>
     </defs>
     <use xlink:href="#LiberationSans-46"/>
     <use xlink:href="#LiberationSans-69" x="61.083984"/>
     <use xlink:href="#LiberationSans-72" x="83.300781"/>
     <use xlink:href="#LiberationSans-69" x="116.601562"/>
     <use xlink:href="#LiberationSans-6e" x="138.818359"/>
     <use xlink:href="#LiberationSans-67" x="194.433594"/>
     <use xlink:href="#LiberationSans-20" x="250.048828"/>
     <use xlink:href="#LiberationSans-52" x="277.832031"/>
     <use xlink:href="#LiberationSans-61" x="350.048828"/>
     <use xlink:href="#LiberationSans-74" x="405.664062"/>
     <use xlink:href="#LiberationSans-65" x="433.447266"/>
     <use xlink:href="#LiberationSans-3a" x="489.0625"/>
    </g>
    <!-- $\mathbf{4.2 \times 10^{2}}$ $\mathbf{Hz}$ -->
    <g style="fill: #262626" transform="translate(376.486228 73.469623) scale(0.1 -0.1)">
     <defs>
      <path id="DejaVuSans-Bold-34" d="M 2356 3675 
L 1038 1722 
L 2356 1722 
L 2356 3675 
z
M 2156 4666 
L 3494 4666 
L 3494 1722 
L 4159 1722 
L 4159 850 
L 3494 850 
L 3494 0 
L 2356 0 
L 2356 850 
L 288 850 
L 288 1881 
L 2156 4666 
z
" transform="scale(0.015625)"/>
      <path id="DejaVuSans-Bold-32" d="M 1844 884 
L 3897 884 
L 3897 0 
L 506 0 
L 506 884 
L 2209 2388 
Q 2438 2594 2547 2791 
Q 2656 2988 2656 3200 
Q 2656 3528 2436 3728 
Q 2216 3928 1850 3928 
Q 1569 3928 1234 3808 
Q 900 3688 519 3450 
L 519 4475 
Q 925 4609 1322 4679 
Q 1719 4750 2100 4750 
Q 2938 4750 3402 4381 
Q 3866 4013 3866 3353 
Q 3866 2972 3669 2642 
Q 3472 2313 2841 1759 
L 1844 884 
z
" transform="scale(0.015625)"/>
      <path id="DejaVuSans-Bold-48" d="M 588 4666 
L 1791 4666 
L 1791 2888 
L 3566 2888 
L 3566 4666 
L 4769 4666 
L 4769 0 
L 3566 0 
L 3566 1978 
L 1791 1978 
L 1791 0 
L 588 0 
L 588 4666 
z
" transform="scale(0.015625)"/>
      <path id="DejaVuSans-Bold-7a" d="M 366 3500 
L 3419 3500 
L 3419 2719 
L 1575 800 
L 3419 800 
L 3419 0 
L 288 0 
L 288 781 
L 2131 2700 
L 366 2700 
L 366 3500 
z
" transform="scale(0.015625)"/>
     </defs>
     <use xlink:href="#DejaVuSans-Bold-34" transform="translate(0 0.765625)"/>
     <use xlink:href="#DejaVuSans-Bold-2e" transform="translate(69.580078 0.765625)"/>
     <use xlink:href="#DejaVuSans-Bold-32" transform="translate(103.068359 0.765625)"/>
     <use xlink:href="#DejaVuSans-Bold-d7" transform="translate(192.130859 0.765625)"/>
     <use xlink:href="#DejaVuSans-Bold-31" transform="translate(295.402344 0.765625)"/>
     <use xlink:href="#DejaVuSans-Bold-30" transform="translate(364.982422 0.765625)"/>
     <use xlink:href="#DejaVuSans-Bold-32" transform="translate(435.519531 39.046875) scale(0.7)"/>
     <use xlink:href="#LiberationSans-20" transform="translate(486.959961 0.765625)"/>
     <use xlink:href="#DejaVuSans-Bold-48" transform="translate(514.743164 0.765625)"/>
     <use xlink:href="#DejaVuSans-Bold-7a" transform="translate(598.43457 0.765625)"/>
    </g>
   </g>
   <g id="text_30">
    <!-- Duration single -->
    <g style="fill: #262626" transform="translate(7.88939 184.273773) scale(0.12 -0.12)">
     <defs>
      <path id="LiberationSans-44" d="M 4316 2247 
Q 4316 1566 4050 1055 
Q 3784 544 3296 272 
Q 2809 0 2172 0 
L 525 0 
L 525 4403 
L 1981 4403 
Q 3100 4403 3708 3842 
Q 4316 3281 4316 2247 
z
M 3716 2247 
Q 3716 3066 3267 3495 
Q 2819 3925 1969 3925 
L 1122 3925 
L 1122 478 
L 2103 478 
Q 2588 478 2955 690 
Q 3322 903 3519 1303 
Q 3716 1703 3716 2247 
z
" transform="scale(0.015625)"/>
     </defs>
     <use xlink:href="#LiberationSans-44"/>
     <use xlink:href="#LiberationSans-75" x="72.216797"/>
     <use xlink:href="#LiberationSans-72" x="127.832031"/>
     <use xlink:href="#LiberationSans-61" x="161.132812"/>
     <use xlink:href="#LiberationSans-74" x="216.748047"/>
     <use xlink:href="#LiberationSans-69" x="244.53125"/>
     <use xlink:href="#LiberationSans-6f" x="266.748047"/>
     <use xlink:href="#LiberationSans-6e" x="322.363281"/>
     <use xlink:href="#LiberationSans-20" x="377.978516"/>
     <use xlink:href="#LiberationSans-73" x="405.761719"/>
     <use xlink:href="#LiberationSans-69" x="455.761719"/>
     <use xlink:href="#LiberationSans-6e" x="477.978516"/>
     <use xlink:href="#LiberationSans-67" x="533.59375"/>
     <use xlink:href="#LiberationSans-6c" x="589.208984"/>
     <use xlink:href="#LiberationSans-65" x="611.425781"/>
    </g>
    <!-- session min -->
    <g style="fill: #262626" transform="translate(16.232202 197.199273) scale(0.12 -0.12)">
     <use xlink:href="#LiberationSans-73"/>
     <use xlink:href="#LiberationSans-65" x="50"/>
     <use xlink:href="#LiberationSans-73" x="105.615234"/>
     <use xlink:href="#LiberationSans-73" x="155.615234"/>
     <use xlink:href="#LiberationSans-69" x="205.615234"/>
     <use xlink:href="#LiberationSans-6f" x="227.832031"/>
     <use xlink:href="#LiberationSans-6e" x="283.447266"/>
     <use xlink:href="#LiberationSans-20" x="339.0625"/>
     <use xlink:href="#LiberationSans-6d" x="366.845703"/>
     <use xlink:href="#LiberationSans-69" x="450.146484"/>
     <use xlink:href="#LiberationSans-6e" x="472.363281"/>
    </g>
   </g>
   <g id="text_31">
    <g id="patch_20">
     <path d="M 56.695353 129.284001 
L 129.595353 129.284001 
Q 134.595353 129.284001 134.595353 124.284001 
L 134.595353 104.190876 
Q 134.595353 99.190876 129.595353 99.190876 
L 56.695353 99.190876 
Q 51.695353 99.190876 51.695353 104.190876 
L 51.695353 124.284001 
Q 51.695353 129.284001 56.695353 129.284001 
z
" style="fill: #82c3ff; opacity: 0.8; stroke: #000000; stroke-linejoin: miter"/>
    </g>
    <!-- Avg. Lifetime: -->
    <g style="fill: #262626" transform="translate(62.943791 111.437751) scale(0.1 -0.1)">
     <defs>
      <path id="LiberationSans-41" d="M 3647 0 
L 3144 1288 
L 1138 1288 
L 631 0 
L 13 0 
L 1809 4403 
L 2488 4403 
L 4256 0 
L 3647 0 
z
M 2141 3953 
L 2113 3866 
Q 2034 3606 1881 3200 
L 1319 1753 
L 2966 1753 
L 2400 3206 
Q 2313 3422 2225 3694 
L 2141 3953 
z
" transform="scale(0.015625)"/>
      <path id="LiberationSans-76" d="M 1916 0 
L 1250 0 
L 22 3381 
L 622 3381 
L 1366 1181 
Q 1406 1056 1581 441 
L 1691 806 
L 1813 1175 
L 2581 3381 
L 3178 3381 
L 1916 0 
z
" transform="scale(0.015625)"/>
      <path id="LiberationSans-4c" d="M 525 0 
L 525 4403 
L 1122 4403 
L 1122 488 
L 3347 488 
L 3347 0 
L 525 0 
z
" transform="scale(0.015625)"/>
     </defs>
     <use xlink:href="#LiberationSans-41"/>
     <use xlink:href="#LiberationSans-76" x="64.949219"/>
     <use xlink:href="#LiberationSans-67" x="114.949219"/>
     <use xlink:href="#LiberationSans-2e" x="170.564453"/>
     <use xlink:href="#LiberationSans-20" x="198.347656"/>
     <use xlink:href="#LiberationSans-4c" x="226.130859"/>
     <use xlink:href="#LiberationSans-69" x="281.746094"/>
     <use xlink:href="#LiberationSans-66" x="303.962891"/>
     <use xlink:href="#LiberationSans-65" x="331.746094"/>
     <use xlink:href="#LiberationSans-74" x="387.361328"/>
     <use xlink:href="#LiberationSans-69" x="415.144531"/>
     <use xlink:href="#LiberationSans-6d" x="437.361328"/>
     <use xlink:href="#LiberationSans-65" x="520.662109"/>
     <use xlink:href="#LiberationSans-3a" x="576.277344"/>
    </g>
    <!-- $\mathbf{3.9 \times 10^{7}}$ $\mathbf{min}$ -->
    <g style="fill: #262626" transform="translate(56.695353 122.209001) scale(0.1 -0.1)">
     <defs>
      <path id="DejaVuSans-Bold-33" d="M 2981 2516 
Q 3453 2394 3698 2092 
Q 3944 1791 3944 1325 
Q 3944 631 3412 270 
Q 2881 -91 1863 -91 
Q 1503 -91 1142 -33 
Q 781 25 428 141 
L 428 1069 
Q 766 900 1098 814 
Q 1431 728 1753 728 
Q 2231 728 2486 893 
Q 2741 1059 2741 1369 
Q 2741 1688 2480 1852 
Q 2219 2016 1709 2016 
L 1228 2016 
L 1228 2791 
L 1734 2791 
Q 2188 2791 2409 2933 
Q 2631 3075 2631 3366 
Q 2631 3634 2415 3781 
Q 2200 3928 1806 3928 
Q 1516 3928 1219 3862 
Q 922 3797 628 3669 
L 628 4550 
Q 984 4650 1334 4700 
Q 1684 4750 2022 4750 
Q 2931 4750 3382 4451 
Q 3834 4153 3834 3553 
Q 3834 3144 3618 2883 
Q 3403 2622 2981 2516 
z
" transform="scale(0.015625)"/>
      <path id="DejaVuSans-Bold-39" d="M 641 103 
L 641 966 
Q 928 831 1190 764 
Q 1453 697 1709 697 
Q 2247 697 2547 995 
Q 2847 1294 2900 1881 
Q 2688 1725 2447 1647 
Q 2206 1569 1925 1569 
Q 1209 1569 770 1986 
Q 331 2403 331 3084 
Q 331 3838 820 4291 
Q 1309 4744 2131 4744 
Q 3044 4744 3544 4128 
Q 4044 3513 4044 2388 
Q 4044 1231 3459 570 
Q 2875 -91 1856 -91 
Q 1528 -91 1228 -42 
Q 928 6 641 103 
z
M 2125 2350 
Q 2441 2350 2600 2554 
Q 2759 2759 2759 3169 
Q 2759 3575 2600 3781 
Q 2441 3988 2125 3988 
Q 1809 3988 1650 3781 
Q 1491 3575 1491 3169 
Q 1491 2759 1650 2554 
Q 1809 2350 2125 2350 
z
" transform="scale(0.015625)"/>
      <path id="DejaVuSans-Bold-6d" d="M 3781 2919 
Q 3994 3244 4286 3414 
Q 4578 3584 4928 3584 
Q 5531 3584 5847 3212 
Q 6163 2841 6163 2131 
L 6163 0 
L 5038 0 
L 5038 1825 
Q 5041 1866 5042 1909 
Q 5044 1953 5044 2034 
Q 5044 2406 4934 2573 
Q 4825 2741 4581 2741 
Q 4263 2741 4089 2478 
Q 3916 2216 3909 1719 
L 3909 0 
L 2784 0 
L 2784 1825 
Q 2784 2406 2684 2573 
Q 2584 2741 2328 2741 
Q 2006 2741 1831 2477 
Q 1656 2213 1656 1722 
L 1656 0 
L 531 0 
L 531 3500 
L 1656 3500 
L 1656 2988 
Q 1863 3284 2130 3434 
Q 2397 3584 2719 3584 
Q 3081 3584 3359 3409 
Q 3638 3234 3781 2919 
z
" transform="scale(0.015625)"/>
      <path id="DejaVuSans-Bold-69" d="M 538 3500 
L 1656 3500 
L 1656 0 
L 538 0 
L 538 3500 
z
M 538 4863 
L 1656 4863 
L 1656 3950 
L 538 3950 
L 538 4863 
z
" transform="scale(0.015625)"/>
      <path id="DejaVuSans-Bold-6e" d="M 4056 2131 
L 4056 0 
L 2931 0 
L 2931 347 
L 2931 1631 
Q 2931 2084 2911 2256 
Q 2891 2428 2841 2509 
Q 2775 2619 2662 2680 
Q 2550 2741 2406 2741 
Q 2056 2741 1856 2470 
Q 1656 2200 1656 1722 
L 1656 0 
L 538 0 
L 538 3500 
L 1656 3500 
L 1656 2988 
Q 1909 3294 2193 3439 
Q 2478 3584 2822 3584 
Q 3428 3584 3742 3212 
Q 4056 2841 4056 2131 
z
" transform="scale(0.015625)"/>
     </defs>
     <use xlink:href="#DejaVuSans-Bold-33" transform="translate(0 0.684375)"/>
     <use xlink:href="#DejaVuSans-Bold-2e" transform="translate(69.580078 0.684375)"/>
     <use xlink:href="#DejaVuSans-Bold-39" transform="translate(107.568359 0.684375)"/>
     <use xlink:href="#DejaVuSans-Bold-d7" transform="translate(196.630859 0.684375)"/>
     <use xlink:href="#DejaVuSans-Bold-31" transform="translate(299.902344 0.684375)"/>
     <use xlink:href="#DejaVuSans-Bold-30" transform="translate(369.482422 0.684375)"/>
     <use xlink:href="#DejaVuSans-Bold-37" transform="translate(440.019531 38.965625) scale(0.7)"/>
     <use xlink:href="#LiberationSans-20" transform="translate(491.459961 0.684375)"/>
     <use xlink:href="#DejaVuSans-Bold-6d" transform="translate(519.243164 0.684375)"/>
     <use xlink:href="#DejaVuSans-Bold-69" transform="translate(623.442383 0.684375)"/>
     <use xlink:href="#DejaVuSans-Bold-6e" transform="translate(657.719727 0.684375)"/>
    </g>
   </g>
   <g id="text_32">
    <!-- Duration total -->
    <g style="fill: #262626" transform="translate(89.788647 452.448245) scale(0.12 -0.12)">
     <use xlink:href="#LiberationSans-44"/>
     <use xlink:href="#LiberationSans-75" x="72.216797"/>
     <use xlink:href="#LiberationSans-72" x="127.832031"/>
     <use xlink:href="#LiberationSans-61" x="161.132812"/>
     <use xlink:href="#LiberationSans-74" x="216.748047"/>
     <use xlink:href="#LiberationSans-69" x="244.53125"/>
     <use xlink:href="#LiberationSans-6f" x="266.748047"/>
     <use xlink:href="#LiberationSans-6e" x="322.363281"/>
     <use xlink:href="#LiberationSans-20" x="377.978516"/>
     <use xlink:href="#LiberationSans-74" x="405.761719"/>
     <use xlink:href="#LiberationSans-6f" x="433.544922"/>
     <use xlink:href="#LiberationSans-74" x="489.160156"/>
     <use xlink:href="#LiberationSans-61" x="516.943359"/>
     <use xlink:href="#LiberationSans-6c" x="572.558594"/>
    </g>
    <!-- repeated -->
    <g style="fill: #262626" transform="translate(101.788647 465.373745) scale(0.12 -0.12)">
     <defs>
      <path id="LiberationSans-64" d="M 2566 544 
Q 2409 219 2151 78 
Q 1894 -63 1513 -63 
Q 872 -63 570 368 
Q 269 800 269 1675 
Q 269 3444 1513 3444 
Q 1897 3444 2153 3303 
Q 2409 3163 2566 2856 
L 2572 2856 
L 2566 3234 
L 2566 4638 
L 3128 4638 
L 3128 697 
Q 3128 169 3147 0 
L 2609 0 
Q 2600 50 2589 231 
Q 2578 413 2578 544 
L 2566 544 
z
M 859 1694 
Q 859 984 1046 678 
Q 1234 372 1656 372 
Q 2134 372 2350 703 
Q 2566 1034 2566 1731 
Q 2566 2403 2350 2715 
Q 2134 3028 1663 3028 
Q 1238 3028 1048 2714 
Q 859 2400 859 1694 
z
" transform="scale(0.015625)"/>
     </defs>
     <use xlink:href="#LiberationSans-72"/>
     <use xlink:href="#LiberationSans-65" x="33.300781"/>
     <use xlink:href="#LiberationSans-70" x="88.916016"/>
     <use xlink:href="#LiberationSans-65" x="144.53125"/>
     <use xlink:href="#LiberationSans-61" x="200.146484"/>
     <use xlink:href="#LiberationSans-74" x="255.761719"/>
     <use xlink:href="#LiberationSans-65" x="283.544922"/>
     <use xlink:href="#LiberationSans-64" x="339.160156"/>
    </g>
    <!-- sessions min -->
    <g style="fill: #262626" transform="translate(90.795522 478.299245) scale(0.12 -0.12)">
     <use xlink:href="#LiberationSans-73"/>
     <use xlink:href="#LiberationSans-65" x="50"/>
     <use xlink:href="#LiberationSans-73" x="105.615234"/>
     <use xlink:href="#LiberationSans-73" x="155.615234"/>
     <use xlink:href="#LiberationSans-69" x="205.615234"/>
     <use xlink:href="#LiberationSans-6f" x="227.832031"/>
     <use xlink:href="#LiberationSans-6e" x="283.447266"/>
     <use xlink:href="#LiberationSans-73" x="339.0625"/>
     <use xlink:href="#LiberationSans-20" x="389.0625"/>
     <use xlink:href="#LiberationSans-6d" x="416.845703"/>
     <use xlink:href="#LiberationSans-69" x="500.146484"/>
     <use xlink:href="#LiberationSans-6e" x="522.363281"/>
    </g>
   </g>
   <g id="text_33">
    <g id="patch_21">
     <path d="M 10.918449 401.005163 
L 83.818449 401.005163 
Q 88.818449 401.005163 88.818449 396.005163 
L 88.818449 375.912038 
Q 88.818449 370.912038 83.818449 370.912038 
L 10.918449 370.912038 
Q 5.918449 370.912038 5.918449 375.912038 
L 5.918449 396.005163 
Q 5.918449 401.005163 10.918449 401.005163 
z
" style="fill: #82c3ff; opacity: 0.8; stroke: #000000; stroke-linejoin: miter"/>
    </g>
    <!-- Avg. Lifetime: -->
    <g style="fill: #262626" transform="translate(17.166886 383.158913) scale(0.1 -0.1)">
     <use xlink:href="#LiberationSans-41"/>
     <use xlink:href="#LiberationSans-76" x="64.949219"/>
     <use xlink:href="#LiberationSans-67" x="114.949219"/>
     <use xlink:href="#LiberationSans-2e" x="170.564453"/>
     <use xlink:href="#LiberationSans-20" x="198.347656"/>
     <use xlink:href="#LiberationSans-4c" x="226.130859"/>
     <use xlink:href="#LiberationSans-69" x="281.746094"/>
     <use xlink:href="#LiberationSans-66" x="303.962891"/>
     <use xlink:href="#LiberationSans-65" x="331.746094"/>
     <use xlink:href="#LiberationSans-74" x="387.361328"/>
     <use xlink:href="#LiberationSans-69" x="415.144531"/>
     <use xlink:href="#LiberationSans-6d" x="437.361328"/>
     <use xlink:href="#LiberationSans-65" x="520.662109"/>
     <use xlink:href="#LiberationSans-3a" x="576.277344"/>
    </g>
    <!-- $\mathbf{3.9 \times 10^{7}}$ $\mathbf{min}$ -->
    <g style="fill: #262626" transform="translate(10.918449 393.930163) scale(0.1 -0.1)">
     <use xlink:href="#DejaVuSans-Bold-33" transform="translate(0 0.684375)"/>
     <use xlink:href="#DejaVuSans-Bold-2e" transform="translate(69.580078 0.684375)"/>
     <use xlink:href="#DejaVuSans-Bold-39" transform="translate(107.568359 0.684375)"/>
     <use xlink:href="#DejaVuSans-Bold-d7" transform="translate(196.630859 0.684375)"/>
     <use xlink:href="#DejaVuSans-Bold-31" transform="translate(299.902344 0.684375)"/>
     <use xlink:href="#DejaVuSans-Bold-30" transform="translate(369.482422 0.684375)"/>
     <use xlink:href="#DejaVuSans-Bold-37" transform="translate(440.019531 38.965625) scale(0.7)"/>
     <use xlink:href="#LiberationSans-20" transform="translate(491.459961 0.684375)"/>
     <use xlink:href="#DejaVuSans-Bold-6d" transform="translate(519.243164 0.684375)"/>
     <use xlink:href="#DejaVuSans-Bold-69" transform="translate(623.442383 0.684375)"/>
     <use xlink:href="#DejaVuSans-Bold-6e" transform="translate(657.719727 0.684375)"/>
    </g>
   </g>
   <g id="text_34">
    <!-- Resolution in -->
    <g style="fill: #262626" transform="translate(383.638217 466.182479) scale(0.12 -0.12)">
     <use xlink:href="#LiberationSans-52"/>
     <use xlink:href="#LiberationSans-65" x="72.216797"/>
     <use xlink:href="#LiberationSans-73" x="127.832031"/>
     <use xlink:href="#LiberationSans-6f" x="177.832031"/>
     <use xlink:href="#LiberationSans-6c" x="233.447266"/>
     <use xlink:href="#LiberationSans-75" x="255.664062"/>
     <use xlink:href="#LiberationSans-74" x="311.279297"/>
     <use xlink:href="#LiberationSans-69" x="339.0625"/>
     <use xlink:href="#LiberationSans-6f" x="361.279297"/>
     <use xlink:href="#LiberationSans-6e" x="416.894531"/>
     <use xlink:href="#LiberationSans-20" x="472.509766"/>
     <use xlink:href="#LiberationSans-69" x="500.292969"/>
     <use xlink:href="#LiberationSans-6e" x="522.509766"/>
    </g>
    <!-- m isotropic -->
    <g style="fill: #262626" transform="translate(385.86103 479.107979) scale(0.12 -0.12)">
     <defs>
      <path id="LiberationSans-b5" d="M 438 -1328 
L 438 3381 
L 1003 3381 
L 1003 1238 
Q 1003 806 1170 589 
Q 1338 372 1709 372 
Q 2109 372 2337 644 
Q 2566 916 2566 1422 
L 2566 3381 
L 3128 3381 
L 3128 831 
Q 3128 594 3184 486 
Q 3241 378 3372 378 
Q 3450 378 3541 403 
L 3541 0 
Q 3338 -63 3188 -63 
Q 2903 -63 2754 84 
Q 2606 231 2591 544 
L 2581 544 
Q 2250 -63 1647 -63 
Q 1438 -63 1267 1 
Q 1097 66 1000 184 
L 1000 -1328 
L 438 -1328 
z
" transform="scale(0.015625)"/>
      <path id="LiberationSans-63" d="M 859 1706 
Q 859 1031 1071 706 
Q 1284 381 1713 381 
Q 2013 381 2214 543 
Q 2416 706 2463 1044 
L 3031 1006 
Q 2966 519 2616 228 
Q 2266 -63 1728 -63 
Q 1019 -63 645 385 
Q 272 834 272 1694 
Q 272 2547 647 2995 
Q 1022 3444 1722 3444 
Q 2241 3444 2583 3175 
Q 2925 2906 3013 2434 
L 2434 2391 
Q 2391 2672 2212 2837 
Q 2034 3003 1706 3003 
Q 1259 3003 1059 2706 
Q 859 2409 859 1706 
z
" transform="scale(0.015625)"/>
     </defs>
     <use xlink:href="#LiberationSans-b5"/>
     <use xlink:href="#LiberationSans-6d" x="57.617188"/>
     <use xlink:href="#LiberationSans-20" x="140.917969"/>
     <use xlink:href="#LiberationSans-69" x="168.701172"/>
     <use xlink:href="#LiberationSans-73" x="190.917969"/>
     <use xlink:href="#LiberationSans-6f" x="240.917969"/>
     <use xlink:href="#LiberationSans-74" x="296.533203"/>
     <use xlink:href="#LiberationSans-72" x="324.316406"/>
     <use xlink:href="#LiberationSans-6f" x="357.617188"/>
     <use xlink:href="#LiberationSans-70" x="413.232422"/>
     <use xlink:href="#LiberationSans-69" x="468.847656"/>
     <use xlink:href="#LiberationSans-63" x="491.064453"/>
    </g>
   </g>
   <g id="text_35">
    <g id="patch_22">
     <path d="M 259.397981 534.691883 
L 333.497981 534.691883 
Q 338.497981 534.691883 338.497981 529.691883 
L 338.497981 496.603758 
Q 338.497981 491.603758 333.497981 491.603758 
L 259.397981 491.603758 
Q 254.397981 491.603758 254.397981 496.603758 
L 254.397981 529.691883 
Q 254.397981 534.691883 259.397981 534.691883 
z
" style="fill: #82c3ff; opacity: 0.8; stroke: #000000; stroke-linejoin: miter"/>
    </g>
    <!-- Single Neuron -->
    <g style="fill: #262626" transform="translate(264.762825 503.825633) scale(0.1 -0.1)">
     <defs>
      <path id="LiberationSans-53" d="M 3975 1216 
Q 3975 606 3498 271 
Q 3022 -63 2156 -63 
Q 547 -63 291 1056 
L 869 1172 
Q 969 775 1294 589 
Q 1619 403 2178 403 
Q 2756 403 3070 601 
Q 3384 800 3384 1184 
Q 3384 1400 3286 1534 
Q 3188 1669 3009 1756 
Q 2831 1844 2584 1903 
Q 2338 1963 2038 2031 
Q 1516 2147 1245 2262 
Q 975 2378 819 2520 
Q 663 2663 580 2853 
Q 497 3044 497 3291 
Q 497 3856 930 4162 
Q 1363 4469 2169 4469 
Q 2919 4469 3316 4239 
Q 3713 4009 3872 3456 
L 3284 3353 
Q 3188 3703 2916 3861 
Q 2644 4019 2163 4019 
Q 1634 4019 1356 3844 
Q 1078 3669 1078 3322 
Q 1078 3119 1186 2986 
Q 1294 2853 1497 2761 
Q 1700 2669 2306 2534 
Q 2509 2488 2711 2439 
Q 2913 2391 3097 2323 
Q 3281 2256 3442 2165 
Q 3603 2075 3722 1944 
Q 3841 1813 3908 1634 
Q 3975 1456 3975 1216 
z
" transform="scale(0.015625)"/>
     </defs>
     <use xlink:href="#LiberationSans-53"/>
     <use xlink:href="#LiberationSans-69" x="66.699219"/>
     <use xlink:href="#LiberationSans-6e" x="88.916016"/>
     <use xlink:href="#LiberationSans-67" x="144.53125"/>
     <use xlink:href="#LiberationSans-6c" x="200.146484"/>
     <use xlink:href="#LiberationSans-65" x="222.363281"/>
     <use xlink:href="#LiberationSans-20" x="277.978516"/>
     <use xlink:href="#LiberationSans-4e" x="305.761719"/>
     <use xlink:href="#LiberationSans-65" x="377.978516"/>
     <use xlink:href="#LiberationSans-75" x="433.59375"/>
     <use xlink:href="#LiberationSans-72" x="489.208984"/>
     <use xlink:href="#LiberationSans-6f" x="522.509766"/>
     <use xlink:href="#LiberationSans-6e" x="578.125"/>
    </g>
    <!-- Resolution: -->
    <g style="fill: #262626" transform="translate(271.4347 514.596883) scale(0.1 -0.1)">
     <use xlink:href="#LiberationSans-52"/>
     <use xlink:href="#LiberationSans-65" x="72.216797"/>
     <use xlink:href="#LiberationSans-73" x="127.832031"/>
     <use xlink:href="#LiberationSans-6f" x="177.832031"/>
     <use xlink:href="#LiberationSans-6c" x="233.447266"/>
     <use xlink:href="#LiberationSans-75" x="255.664062"/>
     <use xlink:href="#LiberationSans-74" x="311.279297"/>
     <use xlink:href="#LiberationSans-69" x="339.0625"/>
     <use xlink:href="#LiberationSans-6f" x="361.279297"/>
     <use xlink:href="#LiberationSans-6e" x="416.894531"/>
     <use xlink:href="#LiberationSans-3a" x="472.509766"/>
    </g>
    <!-- $\mathbf{1.0 \times 10^{0}}$ $\mathbf{m}$ -->
    <g style="fill: #262626" transform="translate(259.397981 527.591883) scale(0.1 -0.1)">
     <defs>
      <path id="DejaVuSans-Bold-b5" d="M 544 -1338 
L 544 3500 
L 1672 3500 
L 1672 1466 
Q 1672 1103 1828 926 
Q 1984 750 2303 750 
Q 2625 750 2781 926 
Q 2938 1103 2938 1466 
L 2938 3500 
L 4063 3500 
L 4063 1159 
Q 4063 938 4114 850 
Q 4166 763 4288 763 
Q 4344 763 4395 778 
Q 4447 794 4506 831 
L 4506 50 
Q 4341 -22 4195 -56 
Q 4050 -91 3909 -91 
Q 3631 -91 3454 26 
Q 3278 144 3169 403 
Q 3022 156 2811 32 
Q 2600 -91 2322 -91 
Q 2091 -91 1928 -17 
Q 1766 56 1672 206 
L 1672 -1338 
L 544 -1338 
z
" transform="scale(0.015625)"/>
      <path id="DejaVuSans-Bold-b3" d="M 1850 3500 
Q 2138 3444 2297 3272 
Q 2456 3100 2456 2847 
Q 2456 2444 2147 2242 
Q 1838 2041 1209 2041 
Q 956 2041 725 2077 
Q 494 2113 281 2181 
L 281 2725 
Q 488 2613 688 2555 
Q 888 2497 1075 2497 
Q 1372 2497 1534 2597 
Q 1697 2697 1697 2881 
Q 1697 3081 1530 3176 
Q 1363 3272 1006 3272 
L 775 3272 
L 775 3700 
L 1038 3700 
Q 1344 3700 1484 3773 
Q 1625 3847 1625 4006 
Q 1625 4147 1503 4217 
Q 1381 4288 1131 4288 
Q 969 4288 776 4247 
Q 584 4206 366 4122 
L 366 4641 
Q 569 4694 805 4722 
Q 1041 4750 1313 4750 
Q 1834 4750 2111 4575 
Q 2388 4400 2388 4072 
Q 2388 3856 2247 3706 
Q 2106 3556 1850 3500 
z
" transform="scale(0.015625)"/>
     </defs>
     <use xlink:href="#DejaVuSans-Bold-31" transform="translate(0 0.765625)"/>
     <use xlink:href="#DejaVuSans-Bold-2e" transform="translate(69.580078 0.765625)"/>
     <use xlink:href="#DejaVuSans-Bold-30" transform="translate(107.568359 0.765625)"/>
     <use xlink:href="#DejaVuSans-Bold-d7" transform="translate(196.630859 0.765625)"/>
     <use xlink:href="#DejaVuSans-Bold-31" transform="translate(299.902344 0.765625)"/>
     <use xlink:href="#DejaVuSans-Bold-30" transform="translate(369.482422 0.765625)"/>
     <use xlink:href="#DejaVuSans-Bold-30" transform="translate(440.019531 39.046875) scale(0.7)"/>
     <use xlink:href="#LiberationSans-20" transform="translate(491.459961 0.765625)"/>
     <use xlink:href="#DejaVuSans-Bold-b5" transform="translate(519.243164 0.765625)"/>
     <use xlink:href="#DejaVuSans-Bold-6d" transform="translate(592.827148 0.765625)"/>
     <use xlink:href="#DejaVuSans-Bold-b3" transform="translate(697.026367 0.765625)"/>
    </g>
   </g>
  </g>
 </g>
 <defs>
  <clipPath id="p6e946149e2">
   <path d="M 486.820126 277.219362 
C 486.820126 250.475782 481.552224 223.99225 471.317899 199.284404 
C 461.083574 174.576557 446.081858 152.124903 427.171291 133.214336 
C 408.260724 114.303769 385.809069 99.302053 361.101223 89.067728 
C 336.393377 78.833403 309.909845 73.565501 283.166265 73.565501 
C 256.422685 73.565501 229.939152 78.833403 205.231306 89.067728 
C 180.52346 99.302053 158.071805 114.303769 139.161238 133.214336 
C 120.250672 152.124903 105.248956 174.576557 95.014631 199.284404 
C 84.780306 223.99225 79.512403 250.475782 79.512403 277.219362 
C 79.512403 303.962942 84.780306 330.446475 95.014631 355.154321 
C 105.248956 379.862167 120.250672 402.313822 139.161238 421.224388 
C 158.071805 440.134955 180.52346 455.136671 205.231306 465.370996 
C 229.939152 475.605321 256.422685 480.873223 283.166265 480.873223 
C 309.909845 480.873223 336.393377 475.605321 361.101223 465.370996 
C 385.809069 455.136671 408.260724 440.134955 427.171291 421.224388 
C 446.081858 402.313822 461.083574 379.862167 471.317899 355.154321 
C 481.552224 330.446475 486.820126 303.962942 486.820126 277.219362 
M 283.166265 277.219362 
C 283.166265 277.219362 283.166265 277.219362 283.166265 277.219362 
C 283.166265 277.219362 283.166265 277.219362 283.166265 277.219362 
C 283.166265 277.219362 283.166265 277.219362 283.166265 277.219362 
C 283.166265 277.219362 283.166265 277.219362 283.166265 277.219362 
C 283.166265 277.219362 283.166265 277.219362 283.166265 277.219362 
C 283.166265 277.219362 283.166265 277.219362 283.166265 277.219362 
C 283.166265 277.219362 283.166265 277.219362 283.166265 277.219362 
C 283.166265 277.219362 283.166265 277.219362 283.166265 277.219362 
C 283.166265 277.219362 283.166265 277.219362 283.166265 277.219362 
C 283.166265 277.219362 283.166265 277.219362 283.166265 277.219362 
C 283.166265 277.219362 283.166265 277.219362 283.166265 277.219362 
C 283.166265 277.219362 283.166265 277.219362 283.166265 277.219362 
C 283.166265 277.219362 283.166265 277.219362 283.166265 277.219362 
C 283.166265 277.219362 283.166265 277.219362 283.166265 277.219362 
C 283.166265 277.219362 283.166265 277.219362 283.166265 277.219362 
C 283.166265 277.219362 283.166265 277.219362 283.166265 277.219362 
z
"/>
  </clipPath>
 </defs>
</svg>
