<?xml version="1.0" encoding="utf-8" standalone="no"?>
<!DOCTYPE svg PUBLIC "-//W3C//DTD SVG 1.1//EN"
  "http://www.w3.org/Graphics/SVG/1.1/DTD/svg11.dtd">
<svg xmlns:xlink="http://www.w3.org/1999/xlink" width="576pt" height="576pt" viewBox="0 0 576 576" xmlns="http://www.w3.org/2000/svg" version="1.1">
 <metadata>
  <rdf:RDF xmlns:dc="http://purl.org/dc/elements/1.1/" xmlns:cc="http://creativecommons.org/ns#" xmlns:rdf="http://www.w3.org/1999/02/22-rdf-syntax-ns#">
   <cc:Work>
    <dc:type rdf:resource="http://purl.org/dc/dcmitype/StillImage"/>
    <dc:date>2025-01-26T02:09:44.863858</dc:date>
    <dc:format>image/svg+xml</dc:format>
    <dc:creator>
     <cc:Agent>
      <dc:title>Matplotlib v3.9.2, https://matplotlib.org/</dc:title>
     </cc:Agent>
    </dc:creator>
   </cc:Work>
  </rdf:RDF>
 </metadata>
 <defs>
  <style type="text/css">*{stroke-linejoin: round; stroke-linecap: butt}</style>
 </defs>
 <g id="figure_1">
  <g id="patch_1">
   <path d="M 0 576 
L 576 576 
L 576 0 
L 0 0 
z
" style="fill: #ffffff"/>
  </g>
  <g id="axes_1">
   <g id="patch_2">
    <path d="M 486.820126 290.955639 
C 486.820126 264.212059 481.552224 237.728526 471.317899 213.02068 
C 461.083574 188.312834 446.081858 165.861179 427.171291 146.950612 
C 408.260724 128.040046 385.809069 113.03833 361.101223 102.804005 
C 336.393377 92.56968 309.909845 87.301777 283.166265 87.301777 
C 256.422685 87.301777 229.939152 92.56968 205.231306 102.804005 
C 180.52346 113.03833 158.071805 128.040046 139.161238 146.950612 
C 120.250672 165.861179 105.248956 188.312834 95.014631 213.02068 
C 84.780306 237.728526 79.512403 264.212059 79.512403 290.955639 
C 79.512403 317.699219 84.780306 344.182751 95.014631 368.890597 
C 105.248956 393.598443 120.250672 416.050098 139.161238 434.960665 
C 158.071805 453.871232 180.52346 468.872948 205.231306 479.107273 
C 229.939152 489.341598 256.422685 494.6095 283.166265 494.6095 
C 309.909845 494.6095 336.393377 489.341598 361.101223 479.107273 
C 385.809069 468.872948 408.260724 453.871232 427.171291 434.960665 
C 446.081858 416.050098 461.083574 393.598443 471.317899 368.890597 
C 481.552224 344.182751 486.820126 317.699219 486.820126 290.955639 
M 283.166265 290.955639 
C 283.166265 290.955639 283.166265 290.955639 283.166265 290.955639 
C 283.166265 290.955639 283.166265 290.955639 283.166265 290.955639 
C 283.166265 290.955639 283.166265 290.955639 283.166265 290.955639 
C 283.166265 290.955639 283.166265 290.955639 283.166265 290.955639 
C 283.166265 290.955639 283.166265 290.955639 283.166265 290.955639 
C 283.166265 290.955639 283.166265 290.955639 283.166265 290.955639 
C 283.166265 290.955639 283.166265 290.955639 283.166265 290.955639 
C 283.166265 290.955639 283.166265 290.955639 283.166265 290.955639 
C 283.166265 290.955639 283.166265 290.955639 283.166265 290.955639 
C 283.166265 290.955639 283.166265 290.955639 283.166265 290.955639 
C 283.166265 290.955639 283.166265 290.955639 283.166265 290.955639 
C 283.166265 290.955639 283.166265 290.955639 283.166265 290.955639 
C 283.166265 290.955639 283.166265 290.955639 283.166265 290.955639 
C 283.166265 290.955639 283.166265 290.955639 283.166265 290.955639 
C 283.166265 290.955639 283.166265 290.955639 283.166265 290.955639 
C 283.166265 290.955639 283.166265 290.955639 283.166265 290.955639 
z
" style="fill: #ffffff"/>
   </g>
   <g id="patch_3">
    <path d="M 283.166265 290.955639 
C 283.166265 290.955639 283.166265 290.955639 283.166265 290.955639 
C 283.166265 290.955639 283.166265 290.955639 283.166265 290.955639 
L 444.732331 173.57102 
C 469.517677 207.685122 482.872906 248.78829 482.872906 290.955639 
C 482.872906 333.122987 469.517677 374.226156 444.732331 408.340257 
z
" style="fill: #ef7569; opacity: 0.213997"/>
   </g>
   <g id="patch_4">
    <path d="M 283.166265 290.955639 
C 283.166265 290.955639 283.166265 290.955639 283.166265 290.955639 
C 283.166265 290.955639 283.166265 290.955639 283.166265 290.955639 
L 225.242433 112.684415 
C 262.883769 100.454003 303.44876 100.454003 341.090096 112.684415 
C 378.731433 124.914827 411.5492 148.75833 434.812825 180.777963 
z
" style="fill: #ef7569; opacity: 0.213997"/>
   </g>
   <g id="patch_5">
    <path d="M 283.166265 290.955639 
C 283.166265 290.955639 283.166265 290.955639 283.166265 290.955639 
C 283.166265 290.955639 283.166265 290.955639 283.166265 290.955639 
L 185.496316 290.955639 
C 185.496316 270.332976 192.027919 250.230768 204.149617 233.546683 
C 216.271314 216.862599 233.371273 204.438751 252.984591 198.065998 
z
" style="fill: #ef7569; opacity: 0.213997"/>
   </g>
   <g id="patch_6">
    <path d="M 283.166265 290.955639 
C 283.166265 290.955639 283.166265 290.955639 283.166265 290.955639 
C 283.166265 290.955639 283.166265 290.955639 283.166265 290.955639 
L 243.190389 413.988732 
C 217.212388 405.547967 194.563352 389.092479 178.508065 366.994272 
C 162.452777 344.896064 153.801615 318.270525 153.801615 290.955639 
z
" style="fill: #ef7569; opacity: 0.213997"/>
   </g>
   <g id="patch_7">
    <path d="M 283.166265 290.955639 
C 283.166265 290.955639 283.166265 290.955639 283.166265 290.955639 
C 283.166265 290.955639 283.166265 290.955639 283.166265 290.955639 
L 447.925699 410.660375 
C 422.650469 445.448745 386.99495 471.353995 346.098769 484.64197 
C 305.202587 497.929945 261.129942 497.929945 220.233761 484.64197 
z
" style="fill: #ef7569; opacity: 0.213997"/>
   </g>
   <g id="patch_8">
    <path d="M 283.166265 290.955639 
C 283.166265 290.955639 283.166265 290.955639 283.166265 290.955639 
C 283.166265 290.955639 283.166265 290.955639 283.166265 290.955639 
L 434.812825 180.777963 
C 458.07645 212.797596 470.611722 251.377196 470.611722 290.955639 
C 470.611722 330.534082 458.07645 369.113681 434.812825 401.133314 
z
" style="fill: #ef7569; opacity: 0.213997"/>
   </g>
   <g id="patch_9">
    <path d="M 283.166265 290.955639 
C 283.166265 290.955639 283.166265 290.955639 283.166265 290.955639 
C 283.166265 290.955639 283.166265 290.955639 283.166265 290.955639 
L 226.293985 115.920761 
C 263.251979 103.912381 303.080551 103.912381 340.038544 115.920761 
C 376.996537 127.929141 409.218529 151.339788 432.059825 182.778135 
z
" style="fill: #ef7569; opacity: 0.213997"/>
   </g>
   <g id="patch_10">
    <path d="M 283.166265 290.955639 
C 283.166265 290.955639 283.166265 290.955639 283.166265 290.955639 
C 283.166265 290.955639 283.166265 290.955639 283.166265 290.955639 
L 185.496316 290.955639 
C 185.496316 270.332976 192.027919 250.230768 204.149617 233.546683 
C 216.271314 216.862599 233.371273 204.438751 252.984591 198.065998 
z
" style="fill: #ef7569; opacity: 0.213997"/>
   </g>
   <g id="patch_11">
    <path d="M 283.166265 290.955639 
C 283.166265 290.955639 283.166265 290.955639 283.166265 290.955639 
C 283.166265 290.955639 283.166265 290.955639 283.166265 290.955639 
L 243.190389 413.988732 
C 217.212388 405.547967 194.563352 389.092479 178.508065 366.994272 
C 162.452777 344.896064 153.801615 318.270525 153.801615 290.955639 
z
" style="fill: #ef7569; opacity: 0.213997"/>
   </g>
   <g id="patch_12">
    <path d="M 283.166265 290.955639 
C 283.166265 290.955639 283.166265 290.955639 283.166265 290.955639 
C 283.166265 290.955639 283.166265 290.955639 283.166265 290.955639 
L 447.925699 410.660375 
C 422.650469 445.448745 386.99495 471.353995 346.098769 484.64197 
C 305.202587 497.929945 261.129942 497.929945 220.233761 484.64197 
z
" style="fill: #ef7569; opacity: 0.213997"/>
   </g>
   <g id="patch_13">
    <path d="M 283.166265 290.955639 
C 283.166265 290.955639 283.166265 290.955639 283.166265 290.955639 
C 283.166265 290.955639 283.166265 290.955639 283.166265 290.955639 
L 407.663477 200.503119 
C 426.762206 226.790264 437.053283 258.462941 437.053283 290.955639 
C 437.053283 323.448336 426.762206 355.121014 407.663477 381.408158 
z
" style="fill: #ef7569; opacity: 0.213997"/>
   </g>
   <g id="patch_14">
    <path d="M 283.166265 290.955639 
C 283.166265 290.955639 283.166265 290.955639 283.166265 290.955639 
C 283.166265 290.955639 283.166265 290.955639 283.166265 290.955639 
L 215.063513 81.35692 
C 259.319538 66.977265 307.012991 66.977265 351.269017 81.35692 
C 395.525042 95.736574 434.109856 123.770082 461.461584 161.416506 
z
" style="fill: #ef7569; opacity: 0.213997"/>
   </g>
   <g id="patch_15">
    <path d="M 283.166265 290.955639 
C 283.166265 290.955639 283.166265 290.955639 283.166265 290.955639 
C 283.166265 290.955639 283.166265 290.955639 283.166265 290.955639 
L 185.496316 290.955639 
C 185.496316 270.332976 192.027919 250.230768 204.149617 233.546683 
C 216.271314 216.862599 233.371273 204.438751 252.984591 198.065998 
z
" style="fill: #ef7569; opacity: 0.213997"/>
   </g>
   <g id="patch_16">
    <path d="M 283.166265 290.955639 
C 283.166265 290.955639 283.166265 290.955639 283.166265 290.955639 
C 283.166265 290.955639 283.166265 290.955639 283.166265 290.955639 
L 243.190389 413.988732 
C 217.212388 405.547967 194.563352 389.092479 178.508065 366.994272 
C 162.452777 344.896064 153.801615 318.270525 153.801615 290.955639 
z
" style="fill: #ef7569; opacity: 0.213997"/>
   </g>
   <g id="patch_17">
    <path d="M 283.166265 290.955639 
C 283.166265 290.955639 283.166265 290.955639 283.166265 290.955639 
C 283.166265 290.955639 283.166265 290.955639 283.166265 290.955639 
L 447.925699 410.660375 
C 422.650469 445.448745 386.99495 471.353995 346.098769 484.64197 
C 305.202587 497.929945 261.129942 497.929945 220.233761 484.64197 
z
" style="fill: #ef7569; opacity: 0.213997"/>
   </g>
   <g id="patch_18">
    <path d="M 283.166265 290.955639 
C 283.166265 290.955639 283.166265 290.955639 283.166265 290.955639 
C 283.166265 290.955639 283.166265 290.955639 283.166265 290.955639 
L 438.567474 178.050051 
C 462.407088 210.862465 475.252723 250.397265 475.252723 290.955639 
C 475.252723 331.514012 462.407088 371.048812 438.567474 403.861226 
z
" style="fill: #ef7569; opacity: 0.213997"/>
   </g>
   <g id="patch_19">
    <path d="M 283.166265 290.955639 
C 283.166265 290.955639 283.166265 290.955639 283.166265 290.955639 
C 283.166265 290.955639 283.166265 290.955639 283.166265 290.955639 
L 232.820261 136.006573 
C 265.537207 125.376193 300.795323 125.376193 333.512268 136.006573 
C 366.229213 146.636953 394.753628 167.361154 414.973812 195.19185 
z
" style="fill: #ef7569; opacity: 0.213997"/>
   </g>
   <g id="patch_20">
    <path d="M 283.166265 290.955639 
C 283.166265 290.955639 283.166265 290.955639 283.166265 290.955639 
C 283.166265 290.955639 283.166265 290.955639 283.166265 290.955639 
L 185.496316 290.955639 
C 185.496316 270.332976 192.027919 250.230768 204.149617 233.546683 
C 216.271314 216.862599 233.371273 204.438751 252.984591 198.065998 
z
" style="fill: #ef7569; opacity: 0.213997"/>
   </g>
   <g id="patch_21">
    <path d="M 283.166265 290.955639 
C 283.166265 290.955639 283.166265 290.955639 283.166265 290.955639 
C 283.166265 290.955639 283.166265 290.955639 283.166265 290.955639 
L 243.190389 413.988732 
C 217.212388 405.547967 194.563352 389.092479 178.508065 366.994272 
C 162.452777 344.896064 153.801615 318.270525 153.801615 290.955639 
z
" style="fill: #ef7569; opacity: 0.213997"/>
   </g>
   <g id="patch_22">
    <path d="M 283.166265 290.955639 
C 283.166265 290.955639 283.166265 290.955639 283.166265 290.955639 
C 283.166265 290.955639 283.166265 290.955639 283.166265 290.955639 
L 447.925699 410.660375 
C 422.650469 445.448745 386.99495 471.353995 346.098769 484.64197 
C 305.202587 497.929945 261.129942 497.929945 220.233761 484.64197 
z
" style="fill: #ef7569; opacity: 0.213997"/>
   </g>
   <g id="patch_23">
    <path d="M 283.166265 290.955639 
C 283.166265 290.955639 283.166265 290.955639 283.166265 290.955639 
C 283.166265 290.955639 283.166265 290.955639 283.166265 290.955639 
L 428.086686 185.664789 
C 450.318476 216.264222 462.297757 253.13266 462.297757 290.955639 
C 462.297757 328.778618 450.318476 365.647055 428.086686 396.246488 
z
" style="fill: #ef7569; opacity: 0.213997"/>
   </g>
   <g id="patch_24">
    <path d="M 283.166265 290.955639 
C 283.166265 290.955639 283.166265 290.955639 283.166265 290.955639 
C 283.166265 290.955639 283.166265 290.955639 283.166265 290.955639 
L 203.858345 46.870961 
C 255.395959 30.125376 310.93657 30.125376 362.474184 46.870961 
C 414.011797 63.616547 458.945096 96.2625 490.797093 140.103012 
z
" style="fill: #ef7569; opacity: 0.213997"/>
   </g>
   <g id="patch_25">
    <path d="M 283.166265 290.955639 
C 283.166265 290.955639 283.166265 290.955639 283.166265 290.955639 
C 283.166265 290.955639 283.166265 290.955639 283.166265 290.955639 
L 185.496316 290.955639 
C 185.496316 270.332976 192.027919 250.230768 204.149617 233.546683 
C 216.271314 216.862599 233.371273 204.438751 252.984591 198.065998 
z
" style="fill: #ef7569; opacity: 0.213997"/>
   </g>
   <g id="patch_26">
    <path d="M 283.166265 290.955639 
C 283.166265 290.955639 283.166265 290.955639 283.166265 290.955639 
C 283.166265 290.955639 283.166265 290.955639 283.166265 290.955639 
L 243.190389 413.988732 
C 217.212388 405.547967 194.563352 389.092479 178.508065 366.994272 
C 162.452777 344.896064 153.801615 318.270525 153.801615 290.955639 
z
" style="fill: #ef7569; opacity: 0.213997"/>
   </g>
   <g id="patch_27">
    <path d="M 283.166265 290.955639 
C 283.166265 290.955639 283.166265 290.955639 283.166265 290.955639 
C 283.166265 290.955639 283.166265 290.955639 283.166265 290.955639 
L 447.925699 410.660375 
C 422.650469 445.448745 386.99495 471.353995 346.098769 484.64197 
C 305.202587 497.929945 261.129942 497.929945 220.233761 484.64197 
z
" style="fill: #ef7569; opacity: 0.213997"/>
   </g>
   <g id="matplotlib.axis_1"/>
   <g id="matplotlib.axis_2">
    <g id="ytick_1">
     <g id="line2d_1">
      <path d="M 283.166265 290.955639 
C 283.166265 290.955639 283.166265 290.955639 283.166265 290.955639 
C 283.166265 290.955639 283.166265 290.955639 283.166265 290.955639 
C 283.166265 290.955639 283.166265 290.955639 283.166265 290.955639 
C 283.166265 290.955639 283.166265 290.955639 283.166265 290.955639 
C 283.166265 290.955639 283.166265 290.955639 283.166265 290.955639 
C 283.166265 290.955639 283.166265 290.955639 283.166265 290.955639 
C 283.166265 290.955639 283.166265 290.955639 283.166265 290.955639 
C 283.166265 290.955639 283.166265 290.955639 283.166265 290.955639 
C 283.166265 290.955639 283.166265 290.955639 283.166265 290.955639 
C 283.166265 290.955639 283.166265 290.955639 283.166265 290.955639 
C 283.166265 290.955639 283.166265 290.955639 283.166265 290.955639 
C 283.166265 290.955639 283.166265 290.955639 283.166265 290.955639 
C 283.166265 290.955639 283.166265 290.955639 283.166265 290.955639 
C 283.166265 290.955639 283.166265 290.955639 283.166265 290.955639 
C 283.166265 290.955639 283.166265 290.955639 283.166265 290.955639 
C 283.166265 290.955639 283.166265 290.955639 283.166265 290.955639 
" clip-path="url(#p5e6b1d9f95)" style="fill: none; stroke: #262626; stroke-opacity: 0.3; stroke-width: 0.8; stroke-linecap: square"/>
     </g>
    </g>
    <g id="ytick_2">
     <g id="line2d_2">
      <path d="M 323.897037 290.955639 
C 323.897037 285.606923 322.843456 280.310216 320.796591 275.368647 
C 318.749726 270.427078 315.749383 265.936747 311.96727 262.154633 
C 308.185157 258.37252 303.694826 255.372177 298.753256 253.325312 
C 293.811687 251.278447 288.514981 250.224866 283.166265 250.224866 
C 277.817549 250.224866 272.520842 251.278447 267.579273 253.325312 
C 262.637704 255.372177 258.147373 258.37252 254.365259 262.154633 
C 250.583146 265.936747 247.582803 270.427078 245.535938 275.368647 
C 243.489073 280.310216 242.435492 285.606923 242.435492 290.955639 
C 242.435492 296.304355 243.489073 301.601061 245.535938 306.54263 
C 247.582803 311.4842 250.583146 315.97453 254.365259 319.756644 
C 258.147373 323.538757 262.637704 326.5391 267.579273 328.585965 
C 272.520842 330.63283 277.817549 331.686411 283.166265 331.686411 
C 288.514981 331.686411 293.811687 330.63283 298.753256 328.585965 
C 303.694826 326.5391 308.185157 323.538757 311.96727 319.756644 
C 315.749383 315.97453 318.749726 311.4842 320.796591 306.54263 
C 322.843456 301.601061 323.897037 296.304355 323.897037 290.955639 
" clip-path="url(#p5e6b1d9f95)" style="fill: none; stroke: #262626; stroke-opacity: 0.3; stroke-width: 0.8; stroke-linecap: square"/>
     </g>
    </g>
    <g id="ytick_3">
     <g id="line2d_3">
      <path d="M 364.627809 290.955639 
C 364.627809 280.258207 362.520648 269.664794 358.426918 259.781655 
C 354.333188 249.898517 348.332502 240.917855 340.768275 233.353628 
C 333.204048 225.789401 324.223387 219.788715 314.340248 215.694985 
C 304.45711 211.601255 293.863697 209.494094 283.166265 209.494094 
C 272.468833 209.494094 261.87542 211.601255 251.992281 215.694985 
C 242.109143 219.788715 233.128481 225.789401 225.564254 233.353628 
C 218.000027 240.917855 211.999341 249.898517 207.905611 259.781655 
C 203.811881 269.664794 201.70472 280.258207 201.70472 290.955639 
C 201.70472 301.653071 203.811881 312.246484 207.905611 322.129622 
C 211.999341 332.012761 218.000027 340.993422 225.564254 348.557649 
C 233.128481 356.121876 242.109143 362.122562 251.992281 366.216292 
C 261.87542 370.310022 272.468833 372.417183 283.166265 372.417183 
C 293.863697 372.417183 304.45711 370.310022 314.340248 366.216292 
C 324.223387 362.122562 333.204048 356.121876 340.768275 348.557649 
C 348.332502 340.993422 354.333188 332.012761 358.426918 322.129622 
C 362.520648 312.246484 364.627809 301.653071 364.627809 290.955639 
" clip-path="url(#p5e6b1d9f95)" style="fill: none; stroke: #262626; stroke-opacity: 0.3; stroke-width: 0.8; stroke-linecap: square"/>
     </g>
    </g>
    <g id="ytick_4">
     <g id="line2d_4">
      <path d="M 405.358581 290.955639 
C 405.358581 274.909491 402.19784 259.019371 396.057245 244.194663 
C 389.91665 229.369956 380.91562 215.898963 369.56928 204.552623 
C 358.22294 193.206283 344.751948 184.205253 329.92724 178.064658 
C 315.102532 171.924063 299.212413 168.763322 283.166265 168.763322 
C 267.120117 168.763322 251.229997 171.924063 236.405289 178.064658 
C 221.580582 184.205253 208.109589 193.206283 196.763249 204.552623 
C 185.416909 215.898963 176.415879 229.369956 170.275284 244.194663 
C 164.134689 259.019371 160.973948 274.909491 160.973948 290.955639 
C 160.973948 307.001787 164.134689 322.891906 170.275284 337.716614 
C 176.415879 352.541321 185.416909 366.012314 196.763249 377.358654 
C 208.109589 388.704994 221.580582 397.706024 236.405289 403.846619 
C 251.229997 409.987214 267.120117 413.147955 283.166265 413.147955 
C 299.212413 413.147955 315.102532 409.987214 329.92724 403.846619 
C 344.751948 397.706024 358.22294 388.704994 369.56928 377.358654 
C 380.91562 366.012314 389.91665 352.541321 396.057245 337.716614 
C 402.19784 322.891906 405.358581 307.001787 405.358581 290.955639 
" clip-path="url(#p5e6b1d9f95)" style="fill: none; stroke: #262626; stroke-opacity: 0.3; stroke-width: 0.8; stroke-linecap: square"/>
     </g>
    </g>
    <g id="ytick_5">
     <g id="line2d_5">
      <path d="M 446.089354 290.955639 
C 446.089354 269.560775 441.875032 248.373949 433.687572 228.607672 
C 425.500112 208.841395 413.498739 190.880071 398.370286 175.751618 
C 383.241832 160.623164 365.280508 148.621791 345.514232 140.434331 
C 325.747955 132.246871 304.561129 128.03255 283.166265 128.03255 
C 261.771401 128.03255 240.584575 132.246871 220.818298 140.434331 
C 201.052021 148.621791 183.090697 160.623164 167.962244 175.751618 
C 152.83379 190.880071 140.832417 208.841395 132.644957 228.607672 
C 124.457497 248.373949 120.243176 269.560775 120.243176 290.955639 
C 120.243176 312.350503 124.457497 333.537329 132.644957 353.303605 
C 140.832417 373.069882 152.83379 391.031206 167.962244 406.15966 
C 183.090697 421.288113 201.052021 433.289486 220.818298 441.476946 
C 240.584575 449.664406 261.771401 453.878727 283.166265 453.878727 
C 304.561129 453.878727 325.747955 449.664406 345.514232 441.476946 
C 365.280508 433.289486 383.241832 421.288113 398.370286 406.15966 
C 413.498739 391.031206 425.500112 373.069882 433.687572 353.303605 
C 441.875032 333.537329 446.089354 312.350503 446.089354 290.955639 
" clip-path="url(#p5e6b1d9f95)" style="fill: none; stroke: #262626; stroke-opacity: 0.3; stroke-width: 0.8; stroke-linecap: square"/>
     </g>
    </g>
   </g>
   <g id="line2d_6">
    <path d="M 486.820126 290.955639 
L 486.410105 278.039112 
L 485.181692 265.174597 
L 483.139835 252.413892 
L 480.292755 239.808381 
L 476.651916 227.408823 
L 472.231979 215.265144 
L 467.05074 203.426245 
L 461.129064 191.939796 
L 454.490795 180.852049 
L 447.162662 170.20765 
L 439.174173 160.04946 
L 430.557496 150.418383 
L 421.347326 141.353201 
L 411.58075 132.890414 
L 401.297094 125.064101 
L 390.537767 117.905774 
L 379.346093 111.444258 
L 367.767136 105.705571 
L 355.847522 100.71282 
L 343.635246 96.48611 
L 331.179482 93.04246 
L 318.530386 90.395737 
L 305.738892 88.556598 
L 292.856506 87.532448 
L 279.9351 87.327412 
L 267.026705 87.942314 
L 254.183298 89.37468 
L 241.456596 91.618741 
L 228.897844 94.665461 
L 216.557611 98.502573 
L 204.485588 103.114625 
L 192.730384 108.483047 
L 181.339334 114.586221 
L 170.358305 121.399573 
L 159.831514 128.895667 
L 149.801348 137.04432 
L 140.308195 145.812719 
L 131.390282 155.165557 
L 123.083517 165.065174 
L 115.421348 175.471708 
L 108.43463 186.343254 
L 102.151494 197.636038 
L 96.59724 209.304587 
L 91.794234 221.301916 
L 87.761816 233.579716 
L 84.516222 246.088548 
L 82.070522 258.778044 
L 80.434564 271.597108 
L 79.614935 284.494122 
L 79.614935 297.417155 
L 80.434564 310.314169 
L 82.070522 323.133233 
L 84.516222 335.822729 
L 87.761816 348.331562 
L 91.794234 360.609361 
L 96.59724 372.60669 
L 102.151494 384.275239 
L 108.43463 395.568023 
L 115.421348 406.439569 
L 123.083517 416.846103 
L 131.390282 426.74572 
L 140.308195 436.098558 
L 149.801348 444.866957 
L 159.831514 453.01561 
L 170.358305 460.511704 
L 181.339334 467.325056 
L 192.730384 473.42823 
L 204.485588 478.796652 
L 216.557611 483.408704 
L 228.897844 487.245816 
L 241.456596 490.292536 
L 254.183298 492.536597 
L 267.026705 493.968963 
L 279.9351 494.583865 
L 292.856506 494.378829 
L 305.738892 493.354679 
L 318.530386 491.51554 
L 331.179482 488.868817 
L 343.635246 485.425167 
L 355.847522 481.198457 
L 367.767136 476.205707 
L 379.346093 470.467019 
L 390.537767 464.005503 
L 401.297094 456.847176 
L 411.58075 449.020863 
L 421.347326 440.558076 
L 430.557496 431.492894 
L 439.174173 421.861817 
L 447.162662 411.703628 
L 454.490795 401.059229 
L 461.129064 389.971481 
L 467.05074 378.485032 
L 472.231979 366.646133 
L 476.651916 354.502455 
L 480.292755 342.102896 
L 483.139835 329.497385 
L 485.181692 316.736681 
L 486.410105 303.872165 
L 486.820126 290.955639 
" clip-path="url(#p5e6b1d9f95)" style="fill: none; stroke: #262626; stroke-opacity: 0.301961; stroke-width: 2; stroke-linecap: square"/>
   </g>
   <g id="line2d_7">
    <path d="M 283.166265 290.955639 
L 486.820126 290.955639 
" style="fill: none; stroke: #262626; stroke-linecap: square"/>
   </g>
   <g id="line2d_8">
    <defs>
     <path id="m7dc90a701f" d="M 0 3 
C 0.795609 3 1.55874 2.683901 2.12132 2.12132 
C 2.683901 1.55874 3 0.795609 3 0 
C 3 -0.795609 2.683901 -1.55874 2.12132 -2.12132 
C 1.55874 -2.683901 0.795609 -3 0 -3 
C -0.795609 -3 -1.55874 -2.683901 -2.12132 -2.12132 
C -2.683901 -1.55874 -3 -0.795609 -3 0 
C -3 0.795609 -2.683901 1.55874 -2.12132 2.12132 
C -1.55874 2.683901 -0.795609 3 0 3 
z
" style="stroke: #262626"/>
    </defs>
    <g>
     <use xlink:href="#m7dc90a701f" x="486.820126" y="290.955639" style="fill: #82c3ff; stroke: #262626"/>
    </g>
   </g>
   <g id="line2d_9">
    <path d="M 283.166265 290.955639 
L 357.465512 62.28607 
" style="fill: none; stroke: #262626; stroke-linecap: square"/>
   </g>
   <g id="line2d_10">
    <g>
     <use xlink:href="#m7dc90a701f" x="357.465512" y="62.28607" style="fill: #82c3ff; stroke: #262626"/>
    </g>
   </g>
   <g id="line2d_11">
    <path d="M 283.166265 290.955639 
L 113.188487 167.459554 
" style="fill: none; stroke: #262626; stroke-linecap: square"/>
   </g>
   <g id="line2d_12">
    <g>
     <use xlink:href="#m7dc90a701f" x="113.188487" y="167.459554" style="fill: #82c3ff; stroke: #262626"/>
    </g>
   </g>
   <g id="line2d_13">
    <path d="M 283.166265 290.955639 
L 113.188487 414.451723 
" style="fill: none; stroke: #262626; stroke-linecap: square"/>
   </g>
   <g id="line2d_14">
    <g>
     <use xlink:href="#m7dc90a701f" x="113.188487" y="414.451723" style="fill: #82c3ff; stroke: #262626"/>
    </g>
   </g>
   <g id="line2d_15">
    <path d="M 283.166265 290.955639 
L 346.098769 484.64197 
" style="fill: none; stroke: #262626; stroke-linecap: square"/>
   </g>
   <g id="line2d_16">
    <g>
     <use xlink:href="#m7dc90a701f" x="346.098769" y="484.64197" style="fill: #82c3ff; stroke: #262626"/>
    </g>
   </g>
   <g id="line2d_17">
    <path d="M 283.166265 290.955639 
L 447.925699 410.660375 
" clip-path="url(#p5e6b1d9f95)" style="fill: none; stroke: #262626; stroke-opacity: 0.301961; stroke-linecap: square"/>
   </g>
   <g id="line2d_18">
    <path d="M 283.166265 290.955639 
L 447.925699 171.250902 
" clip-path="url(#p5e6b1d9f95)" style="fill: none; stroke: #262626; stroke-opacity: 0.301961; stroke-linecap: square"/>
   </g>
   <g id="line2d_19">
    <path d="M 283.166265 290.955639 
L 220.233761 97.269307 
" clip-path="url(#p5e6b1d9f95)" style="fill: none; stroke: #262626; stroke-opacity: 0.301961; stroke-linecap: square"/>
   </g>
   <g id="line2d_20">
    <path d="M 283.166265 290.955639 
L 79.512403 290.955639 
" clip-path="url(#p5e6b1d9f95)" style="fill: none; stroke: #262626; stroke-opacity: 0.301961; stroke-linecap: square"/>
   </g>
   <g id="line2d_21">
    <path d="M 283.166265 290.955639 
L 220.233761 484.64197 
" clip-path="url(#p5e6b1d9f95)" style="fill: none; stroke: #262626; stroke-opacity: 0.301961; stroke-linecap: square"/>
   </g>
   <g id="text_1">
    <!-- $10^{1}$ -->
    <g style="fill: #262626" transform="translate(326.897037 287.955639) scale(0.1 -0.1)">
     <defs>
      <path id="DejaVuSans-31" d="M 794 531 
L 1825 531 
L 1825 4091 
L 703 3866 
L 703 4441 
L 1819 4666 
L 2450 4666 
L 2450 531 
L 3481 531 
L 3481 0 
L 794 0 
L 794 531 
z
" transform="scale(0.015625)"/>
      <path id="DejaVuSans-30" d="M 2034 4250 
Q 1547 4250 1301 3770 
Q 1056 3291 1056 2328 
Q 1056 1369 1301 889 
Q 1547 409 2034 409 
Q 2525 409 2770 889 
Q 3016 1369 3016 2328 
Q 3016 3291 2770 3770 
Q 2525 4250 2034 4250 
z
M 2034 4750 
Q 2819 4750 3233 4129 
Q 3647 3509 3647 2328 
Q 3647 1150 3233 529 
Q 2819 -91 2034 -91 
Q 1250 -91 836 529 
Q 422 1150 422 2328 
Q 422 3509 836 4129 
Q 1250 4750 2034 4750 
z
" transform="scale(0.015625)"/>
     </defs>
     <use xlink:href="#DejaVuSans-31" transform="translate(0 0.684375)"/>
     <use xlink:href="#DejaVuSans-30" transform="translate(63.623047 0.684375)"/>
     <use xlink:href="#DejaVuSans-31" transform="translate(128.203125 38.965625) scale(0.7)"/>
    </g>
   </g>
   <g id="text_2">
    <!-- $10^{2}$ -->
    <g style="fill: #262626" transform="translate(367.627809 287.955639) scale(0.1 -0.1)">
     <defs>
      <path id="DejaVuSans-32" d="M 1228 531 
L 3431 531 
L 3431 0 
L 469 0 
L 469 531 
Q 828 903 1448 1529 
Q 2069 2156 2228 2338 
Q 2531 2678 2651 2914 
Q 2772 3150 2772 3378 
Q 2772 3750 2511 3984 
Q 2250 4219 1831 4219 
Q 1534 4219 1204 4116 
Q 875 4013 500 3803 
L 500 4441 
Q 881 4594 1212 4672 
Q 1544 4750 1819 4750 
Q 2544 4750 2975 4387 
Q 3406 4025 3406 3419 
Q 3406 3131 3298 2873 
Q 3191 2616 2906 2266 
Q 2828 2175 2409 1742 
Q 1991 1309 1228 531 
z
" transform="scale(0.015625)"/>
     </defs>
     <use xlink:href="#DejaVuSans-31" transform="translate(0 0.765625)"/>
     <use xlink:href="#DejaVuSans-30" transform="translate(63.623047 0.765625)"/>
     <use xlink:href="#DejaVuSans-32" transform="translate(128.203125 39.046875) scale(0.7)"/>
    </g>
   </g>
   <g id="text_3">
    <!-- $10^{3}$ -->
    <g style="fill: #262626" transform="translate(408.358581 287.955639) scale(0.1 -0.1)">
     <defs>
      <path id="DejaVuSans-33" d="M 2597 2516 
Q 3050 2419 3304 2112 
Q 3559 1806 3559 1356 
Q 3559 666 3084 287 
Q 2609 -91 1734 -91 
Q 1441 -91 1130 -33 
Q 819 25 488 141 
L 488 750 
Q 750 597 1062 519 
Q 1375 441 1716 441 
Q 2309 441 2620 675 
Q 2931 909 2931 1356 
Q 2931 1769 2642 2001 
Q 2353 2234 1838 2234 
L 1294 2234 
L 1294 2753 
L 1863 2753 
Q 2328 2753 2575 2939 
Q 2822 3125 2822 3475 
Q 2822 3834 2567 4026 
Q 2313 4219 1838 4219 
Q 1578 4219 1281 4162 
Q 984 4106 628 3988 
L 628 4550 
Q 988 4650 1302 4700 
Q 1616 4750 1894 4750 
Q 2613 4750 3031 4423 
Q 3450 4097 3450 3541 
Q 3450 3153 3228 2886 
Q 3006 2619 2597 2516 
z
" transform="scale(0.015625)"/>
     </defs>
     <use xlink:href="#DejaVuSans-31" transform="translate(0 0.765625)"/>
     <use xlink:href="#DejaVuSans-30" transform="translate(63.623047 0.765625)"/>
     <use xlink:href="#DejaVuSans-33" transform="translate(128.203125 39.046875) scale(0.7)"/>
    </g>
   </g>
   <g id="text_4">
    <!-- $10^{4}$ -->
    <g style="fill: #262626" transform="translate(449.089354 287.955639) scale(0.1 -0.1)">
     <defs>
      <path id="DejaVuSans-34" d="M 2419 4116 
L 825 1625 
L 2419 1625 
L 2419 4116 
z
M 2253 4666 
L 3047 4666 
L 3047 1625 
L 3713 1625 
L 3713 1100 
L 3047 1100 
L 3047 0 
L 2419 0 
L 2419 1100 
L 313 1100 
L 313 1709 
L 2253 4666 
z
" transform="scale(0.015625)"/>
     </defs>
     <use xlink:href="#DejaVuSans-31" transform="translate(0 0.684375)"/>
     <use xlink:href="#DejaVuSans-30" transform="translate(63.623047 0.684375)"/>
     <use xlink:href="#DejaVuSans-34" transform="translate(128.203125 38.965625) scale(0.7)"/>
    </g>
   </g>
   <g id="text_5">
    <!-- $10^{5}$ -->
    <g style="fill: #262626" transform="translate(489.820126 287.955639) scale(0.1 -0.1)">
     <defs>
      <path id="DejaVuSans-35" d="M 691 4666 
L 3169 4666 
L 3169 4134 
L 1269 4134 
L 1269 2991 
Q 1406 3038 1543 3061 
Q 1681 3084 1819 3084 
Q 2600 3084 3056 2656 
Q 3513 2228 3513 1497 
Q 3513 744 3044 326 
Q 2575 -91 1722 -91 
Q 1428 -91 1123 -41 
Q 819 9 494 109 
L 494 744 
Q 775 591 1075 516 
Q 1375 441 1709 441 
Q 2250 441 2565 725 
Q 2881 1009 2881 1497 
Q 2881 1984 2565 2268 
Q 2250 2553 1709 2553 
Q 1456 2553 1204 2497 
Q 953 2441 691 2322 
L 691 4666 
z
" transform="scale(0.015625)"/>
     </defs>
     <use xlink:href="#DejaVuSans-31" transform="translate(0 0.684375)"/>
     <use xlink:href="#DejaVuSans-30" transform="translate(63.623047 0.684375)"/>
     <use xlink:href="#DejaVuSans-35" transform="translate(128.203125 38.965625) scale(0.7)"/>
    </g>
   </g>
   <g id="text_6">
    <!-- $10^{-3}$ -->
    <g style="fill: #262626" transform="translate(273.752765 244.218372) scale(0.1 -0.1)">
     <defs>
      <path id="DejaVuSans-2212" d="M 678 2272 
L 4684 2272 
L 4684 1741 
L 678 1741 
L 678 2272 
z
" transform="scale(0.015625)"/>
     </defs>
     <use xlink:href="#DejaVuSans-31" transform="translate(0 0.765625)"/>
     <use xlink:href="#DejaVuSans-30" transform="translate(63.623047 0.765625)"/>
     <use xlink:href="#DejaVuSans-2212" transform="translate(128.203125 39.046875) scale(0.7)"/>
     <use xlink:href="#DejaVuSans-33" transform="translate(186.855469 39.046875) scale(0.7)"/>
    </g>
   </g>
   <g id="text_7">
    <!-- $10^{-2}$ -->
    <g style="fill: #262626" transform="translate(286.339266 205.481106) scale(0.1 -0.1)">
     <use xlink:href="#DejaVuSans-31" transform="translate(0 0.765625)"/>
     <use xlink:href="#DejaVuSans-30" transform="translate(63.623047 0.765625)"/>
     <use xlink:href="#DejaVuSans-2212" transform="translate(128.203125 39.046875) scale(0.7)"/>
     <use xlink:href="#DejaVuSans-32" transform="translate(186.855469 39.046875) scale(0.7)"/>
    </g>
   </g>
   <g id="text_8">
    <!-- $10^{-1}$ -->
    <g style="fill: #262626" transform="translate(298.925767 166.74384) scale(0.1 -0.1)">
     <use xlink:href="#DejaVuSans-31" transform="translate(0 0.684375)"/>
     <use xlink:href="#DejaVuSans-30" transform="translate(63.623047 0.684375)"/>
     <use xlink:href="#DejaVuSans-2212" transform="translate(128.203125 38.965625) scale(0.7)"/>
     <use xlink:href="#DejaVuSans-31" transform="translate(186.855469 38.965625) scale(0.7)"/>
    </g>
   </g>
   <g id="text_9">
    <!-- $10^{0}$ -->
    <g style="fill: #262626" transform="translate(311.512268 128.006573) scale(0.1 -0.1)">
     <use xlink:href="#DejaVuSans-31" transform="translate(0 0.765625)"/>
     <use xlink:href="#DejaVuSans-30" transform="translate(63.623047 0.765625)"/>
     <use xlink:href="#DejaVuSans-30" transform="translate(128.203125 39.046875) scale(0.7)"/>
    </g>
   </g>
   <g id="text_10">
    <!-- $10^{1}$ -->
    <g style="fill: #262626" transform="translate(324.098769 89.269307) scale(0.1 -0.1)">
     <use xlink:href="#DejaVuSans-31" transform="translate(0 0.684375)"/>
     <use xlink:href="#DejaVuSans-30" transform="translate(63.623047 0.684375)"/>
     <use xlink:href="#DejaVuSans-31" transform="translate(128.203125 38.965625) scale(0.7)"/>
    </g>
   </g>
   <g id="text_11">
    <!-- $10^{0}$ -->
    <g style="fill: #262626" transform="translate(225.214378 277.014691) scale(0.1 -0.1)">
     <use xlink:href="#DejaVuSans-31" transform="translate(0 0.765625)"/>
     <use xlink:href="#DejaVuSans-30" transform="translate(63.623047 0.765625)"/>
     <use xlink:href="#DejaVuSans-30" transform="translate(128.203125 39.046875) scale(0.7)"/>
    </g>
   </g>
   <g id="text_12">
    <!-- $10^{1}$ -->
    <g style="fill: #262626" transform="translate(192.262491 253.073744) scale(0.1 -0.1)">
     <use xlink:href="#DejaVuSans-31" transform="translate(0 0.684375)"/>
     <use xlink:href="#DejaVuSans-30" transform="translate(63.623047 0.684375)"/>
     <use xlink:href="#DejaVuSans-31" transform="translate(128.203125 38.965625) scale(0.7)"/>
    </g>
   </g>
   <g id="text_13">
    <!-- $10^{2}$ -->
    <g style="fill: #262626" transform="translate(159.310604 229.132797) scale(0.1 -0.1)">
     <use xlink:href="#DejaVuSans-31" transform="translate(0 0.765625)"/>
     <use xlink:href="#DejaVuSans-30" transform="translate(63.623047 0.765625)"/>
     <use xlink:href="#DejaVuSans-32" transform="translate(128.203125 39.046875) scale(0.7)"/>
    </g>
   </g>
   <g id="text_14">
    <!-- $10^{3}$ -->
    <g style="fill: #262626" transform="translate(126.358717 205.19185) scale(0.1 -0.1)">
     <use xlink:href="#DejaVuSans-31" transform="translate(0 0.765625)"/>
     <use xlink:href="#DejaVuSans-30" transform="translate(63.623047 0.765625)"/>
     <use xlink:href="#DejaVuSans-33" transform="translate(128.203125 39.046875) scale(0.7)"/>
    </g>
   </g>
   <g id="text_15">
    <!-- $10^{4}$ -->
    <g style="fill: #262626" transform="translate(93.40683 181.250902) scale(0.1 -0.1)">
     <use xlink:href="#DejaVuSans-31" transform="translate(0 0.684375)"/>
     <use xlink:href="#DejaVuSans-30" transform="translate(63.623047 0.684375)"/>
     <use xlink:href="#DejaVuSans-34" transform="translate(128.203125 38.965625) scale(0.7)"/>
    </g>
   </g>
   <g id="text_16">
    <!-- $10^{0}$ -->
    <g style="fill: #262626" transform="translate(240.214378 334.896586) scale(0.1 -0.1)">
     <use xlink:href="#DejaVuSans-31" transform="translate(0 0.765625)"/>
     <use xlink:href="#DejaVuSans-30" transform="translate(63.623047 0.765625)"/>
     <use xlink:href="#DejaVuSans-30" transform="translate(128.203125 39.046875) scale(0.7)"/>
    </g>
   </g>
   <g id="text_17">
    <!-- $10^{1}$ -->
    <g style="fill: #262626" transform="translate(207.262491 358.837533) scale(0.1 -0.1)">
     <use xlink:href="#DejaVuSans-31" transform="translate(0 0.684375)"/>
     <use xlink:href="#DejaVuSans-30" transform="translate(63.623047 0.684375)"/>
     <use xlink:href="#DejaVuSans-31" transform="translate(128.203125 38.965625) scale(0.7)"/>
    </g>
   </g>
   <g id="text_18">
    <!-- $10^{2}$ -->
    <g style="fill: #262626" transform="translate(174.310604 382.77848) scale(0.1 -0.1)">
     <use xlink:href="#DejaVuSans-31" transform="translate(0 0.765625)"/>
     <use xlink:href="#DejaVuSans-30" transform="translate(63.623047 0.765625)"/>
     <use xlink:href="#DejaVuSans-32" transform="translate(128.203125 39.046875) scale(0.7)"/>
    </g>
   </g>
   <g id="text_19">
    <!-- $10^{3}$ -->
    <g style="fill: #262626" transform="translate(141.358717 406.719428) scale(0.1 -0.1)">
     <use xlink:href="#DejaVuSans-31" transform="translate(0 0.765625)"/>
     <use xlink:href="#DejaVuSans-30" transform="translate(63.623047 0.765625)"/>
     <use xlink:href="#DejaVuSans-33" transform="translate(128.203125 39.046875) scale(0.7)"/>
    </g>
   </g>
   <g id="text_20">
    <!-- $10^{4}$ -->
    <g style="fill: #262626" transform="translate(108.40683 430.660375) scale(0.1 -0.1)">
     <use xlink:href="#DejaVuSans-31" transform="translate(0 0.684375)"/>
     <use xlink:href="#DejaVuSans-30" transform="translate(63.623047 0.684375)"/>
     <use xlink:href="#DejaVuSans-34" transform="translate(128.203125 38.965625) scale(0.7)"/>
    </g>
   </g>
   <g id="text_21">
    <!-- $10^{4}$ -->
    <g style="fill: #262626" transform="translate(300.752765 339.692905) scale(0.1 -0.1)">
     <use xlink:href="#DejaVuSans-31" transform="translate(0 0.684375)"/>
     <use xlink:href="#DejaVuSans-30" transform="translate(63.623047 0.684375)"/>
     <use xlink:href="#DejaVuSans-34" transform="translate(128.203125 38.965625) scale(0.7)"/>
    </g>
   </g>
   <g id="text_22">
    <!-- $10^{3}$ -->
    <g style="fill: #262626" transform="translate(313.339266 378.430171) scale(0.1 -0.1)">
     <use xlink:href="#DejaVuSans-31" transform="translate(0 0.765625)"/>
     <use xlink:href="#DejaVuSans-30" transform="translate(63.623047 0.765625)"/>
     <use xlink:href="#DejaVuSans-33" transform="translate(128.203125 39.046875) scale(0.7)"/>
    </g>
   </g>
   <g id="text_23">
    <!-- $10^{2}$ -->
    <g style="fill: #262626" transform="translate(325.925767 417.167438) scale(0.1 -0.1)">
     <use xlink:href="#DejaVuSans-31" transform="translate(0 0.765625)"/>
     <use xlink:href="#DejaVuSans-30" transform="translate(63.623047 0.765625)"/>
     <use xlink:href="#DejaVuSans-32" transform="translate(128.203125 39.046875) scale(0.7)"/>
    </g>
   </g>
   <g id="text_24">
    <!-- $10^{1}$ -->
    <g style="fill: #262626" transform="translate(338.512268 455.904704) scale(0.1 -0.1)">
     <use xlink:href="#DejaVuSans-31" transform="translate(0 0.684375)"/>
     <use xlink:href="#DejaVuSans-30" transform="translate(63.623047 0.684375)"/>
     <use xlink:href="#DejaVuSans-31" transform="translate(128.203125 38.965625) scale(0.7)"/>
    </g>
   </g>
   <g id="text_25">
    <!-- $10^{0}$ -->
    <g style="fill: #262626" transform="translate(351.098769 494.64197) scale(0.1 -0.1)">
     <use xlink:href="#DejaVuSans-31" transform="translate(0 0.765625)"/>
     <use xlink:href="#DejaVuSans-30" transform="translate(63.623047 0.765625)"/>
     <use xlink:href="#DejaVuSans-30" transform="translate(128.203125 39.046875) scale(0.7)"/>
    </g>
   </g>
   <g id="text_26">
    <!-- Number of -->
    <g style="fill: #262626" transform="translate(484.751857 247.136237) scale(0.12 -0.12)">
     <defs>
      <path id="LiberationSans-4e" d="M 3381 0 
L 1025 3750 
L 1041 3447 
L 1056 2925 
L 1056 0 
L 525 0 
L 525 4403 
L 1219 4403 
L 3600 628 
Q 3563 1241 3563 1516 
L 3563 4403 
L 4100 4403 
L 4100 0 
L 3381 0 
z
" transform="scale(0.015625)"/>
      <path id="LiberationSans-75" d="M 981 3381 
L 981 1238 
Q 981 903 1047 718 
Q 1113 534 1256 453 
Q 1400 372 1678 372 
Q 2084 372 2318 650 
Q 2553 928 2553 1422 
L 2553 3381 
L 3116 3381 
L 3116 722 
Q 3116 131 3134 0 
L 2603 0 
Q 2600 16 2597 84 
Q 2594 153 2589 242 
Q 2584 331 2578 578 
L 2569 578 
Q 2375 228 2120 82 
Q 1866 -63 1488 -63 
Q 931 -63 673 214 
Q 416 491 416 1128 
L 416 3381 
L 981 3381 
z
" transform="scale(0.015625)"/>
      <path id="LiberationSans-6d" d="M 2400 0 
L 2400 2144 
Q 2400 2634 2265 2821 
Q 2131 3009 1781 3009 
Q 1422 3009 1212 2734 
Q 1003 2459 1003 1959 
L 1003 0 
L 444 0 
L 444 2659 
Q 444 3250 425 3381 
L 956 3381 
Q 959 3366 962 3297 
Q 966 3228 970 3139 
Q 975 3050 981 2803 
L 991 2803 
Q 1172 3163 1406 3303 
Q 1641 3444 1978 3444 
Q 2363 3444 2586 3291 
Q 2809 3138 2897 2803 
L 2906 2803 
Q 3081 3144 3329 3294 
Q 3578 3444 3931 3444 
Q 4444 3444 4676 3166 
Q 4909 2888 4909 2253 
L 4909 0 
L 4353 0 
L 4353 2144 
Q 4353 2634 4218 2821 
Q 4084 3009 3734 3009 
Q 3366 3009 3161 2736 
Q 2956 2463 2956 1959 
L 2956 0 
L 2400 0 
z
" transform="scale(0.015625)"/>
      <path id="LiberationSans-62" d="M 3291 1706 
Q 3291 -63 2047 -63 
Q 1663 -63 1408 76 
Q 1153 216 994 525 
L 988 525 
Q 988 428 975 229 
Q 963 31 956 0 
L 413 0 
Q 431 169 431 697 
L 431 4638 
L 994 4638 
L 994 3316 
Q 994 3113 981 2838 
L 994 2838 
Q 1150 3163 1408 3303 
Q 1666 3444 2047 3444 
Q 2688 3444 2989 3012 
Q 3291 2581 3291 1706 
z
M 2700 1688 
Q 2700 2397 2512 2703 
Q 2325 3009 1903 3009 
Q 1428 3009 1211 2684 
Q 994 2359 994 1653 
Q 994 988 1206 670 
Q 1419 353 1897 353 
Q 2322 353 2511 667 
Q 2700 981 2700 1688 
z
" transform="scale(0.015625)"/>
      <path id="LiberationSans-65" d="M 863 1572 
Q 863 991 1103 675 
Q 1344 359 1806 359 
Q 2172 359 2392 506 
Q 2613 653 2691 878 
L 3184 738 
Q 2881 -63 1806 -63 
Q 1056 -63 664 384 
Q 272 831 272 1713 
Q 272 2550 664 2997 
Q 1056 3444 1784 3444 
Q 3275 3444 3275 1647 
L 3275 1572 
L 863 1572 
z
M 2694 2003 
Q 2647 2538 2422 2783 
Q 2197 3028 1775 3028 
Q 1366 3028 1127 2754 
Q 888 2481 869 2003 
L 2694 2003 
z
" transform="scale(0.015625)"/>
      <path id="LiberationSans-72" d="M 444 0 
L 444 2594 
Q 444 2950 425 3381 
L 956 3381 
Q 981 2806 981 2691 
L 994 2691 
Q 1128 3125 1303 3284 
Q 1478 3444 1797 3444 
Q 1909 3444 2025 3413 
L 2025 2897 
Q 1913 2928 1725 2928 
Q 1375 2928 1190 2626 
Q 1006 2325 1006 1763 
L 1006 0 
L 444 0 
z
" transform="scale(0.015625)"/>
      <path id="LiberationSans-20" transform="scale(0.015625)"/>
      <path id="LiberationSans-6f" d="M 3291 1694 
Q 3291 806 2900 371 
Q 2509 -63 1766 -63 
Q 1025 -63 647 389 
Q 269 841 269 1694 
Q 269 3444 1784 3444 
Q 2559 3444 2925 3017 
Q 3291 2591 3291 1694 
z
M 2700 1694 
Q 2700 2394 2492 2711 
Q 2284 3028 1794 3028 
Q 1300 3028 1079 2704 
Q 859 2381 859 1694 
Q 859 1025 1076 689 
Q 1294 353 1759 353 
Q 2266 353 2483 678 
Q 2700 1003 2700 1694 
z
" transform="scale(0.015625)"/>
      <path id="LiberationSans-66" d="M 1128 2972 
L 1128 0 
L 566 0 
L 566 2972 
L 91 2972 
L 91 3381 
L 566 3381 
L 566 3763 
Q 566 4225 769 4428 
Q 972 4631 1391 4631 
Q 1625 4631 1788 4594 
L 1788 4166 
Q 1647 4191 1538 4191 
Q 1322 4191 1225 4081 
Q 1128 3972 1128 3684 
L 1128 3381 
L 1788 3381 
L 1788 2972 
L 1128 2972 
z
" transform="scale(0.015625)"/>
     </defs>
     <use xlink:href="#LiberationSans-4e"/>
     <use xlink:href="#LiberationSans-75" x="72.216797"/>
     <use xlink:href="#LiberationSans-6d" x="127.832031"/>
     <use xlink:href="#LiberationSans-62" x="211.132812"/>
     <use xlink:href="#LiberationSans-65" x="266.748047"/>
     <use xlink:href="#LiberationSans-72" x="322.363281"/>
     <use xlink:href="#LiberationSans-20" x="355.664062"/>
     <use xlink:href="#LiberationSans-6f" x="383.447266"/>
     <use xlink:href="#LiberationSans-66" x="439.0625"/>
    </g>
    <!-- neurons -->
    <g style="fill: #262626" transform="translate(491.079982 260.061737) scale(0.12 -0.12)">
     <defs>
      <path id="LiberationSans-6e" d="M 2578 0 
L 2578 2144 
Q 2578 2478 2512 2662 
Q 2447 2847 2303 2928 
Q 2159 3009 1881 3009 
Q 1475 3009 1240 2731 
Q 1006 2453 1006 1959 
L 1006 0 
L 444 0 
L 444 2659 
Q 444 3250 425 3381 
L 956 3381 
Q 959 3366 962 3297 
Q 966 3228 970 3139 
Q 975 3050 981 2803 
L 991 2803 
Q 1184 3153 1439 3298 
Q 1694 3444 2072 3444 
Q 2628 3444 2886 3167 
Q 3144 2891 3144 2253 
L 3144 0 
L 2578 0 
z
" transform="scale(0.015625)"/>
      <path id="LiberationSans-73" d="M 2969 934 
Q 2969 456 2608 196 
Q 2247 -63 1597 -63 
Q 966 -63 623 145 
Q 281 353 178 794 
L 675 891 
Q 747 619 972 492 
Q 1197 366 1597 366 
Q 2025 366 2223 497 
Q 2422 628 2422 891 
Q 2422 1091 2284 1216 
Q 2147 1341 1841 1422 
L 1438 1528 
Q 953 1653 748 1773 
Q 544 1894 428 2066 
Q 313 2238 313 2488 
Q 313 2950 642 3192 
Q 972 3434 1603 3434 
Q 2163 3434 2492 3237 
Q 2822 3041 2909 2606 
L 2403 2544 
Q 2356 2769 2151 2889 
Q 1947 3009 1603 3009 
Q 1222 3009 1040 2893 
Q 859 2778 859 2544 
Q 859 2400 934 2306 
Q 1009 2213 1156 2147 
Q 1303 2081 1775 1966 
Q 2222 1853 2419 1758 
Q 2616 1663 2730 1547 
Q 2844 1431 2906 1279 
Q 2969 1128 2969 934 
z
" transform="scale(0.015625)"/>
     </defs>
     <use xlink:href="#LiberationSans-6e"/>
     <use xlink:href="#LiberationSans-65" x="55.615234"/>
     <use xlink:href="#LiberationSans-75" x="111.230469"/>
     <use xlink:href="#LiberationSans-72" x="166.845703"/>
     <use xlink:href="#LiberationSans-6f" x="200.146484"/>
     <use xlink:href="#LiberationSans-6e" x="255.761719"/>
     <use xlink:href="#LiberationSans-73" x="311.376953"/>
    </g>
   </g>
   <g id="text_27">
    <g id="patch_28">
     <path d="M 502.298937 341.435854 
L 566.767687 341.435854 
Q 571.767687 341.435854 571.767687 336.435854 
L 571.767687 316.342729 
Q 571.767687 311.342729 566.767687 311.342729 
L 502.298937 311.342729 
Q 497.298937 311.342729 497.298937 316.342729 
L 497.298937 336.435854 
Q 497.298937 341.435854 502.298937 341.435854 
z
" style="fill: #82c3ff; opacity: 0.8; stroke: #000000; stroke-linejoin: miter"/>
    </g>
    <!-- Total Neurons: -->
    <g style="fill: #262626" transform="translate(502.298937 323.589604) scale(0.1 -0.1)">
     <defs>
      <path id="LiberationSans-54" d="M 2250 3916 
L 2250 0 
L 1656 0 
L 1656 3916 
L 144 3916 
L 144 4403 
L 3763 4403 
L 3763 3916 
L 2250 3916 
z
" transform="scale(0.015625)"/>
      <path id="LiberationSans-74" d="M 1731 25 
Q 1453 -50 1163 -50 
Q 488 -50 488 716 
L 488 2972 
L 97 2972 
L 97 3381 
L 509 3381 
L 675 4138 
L 1050 4138 
L 1050 3381 
L 1675 3381 
L 1675 2972 
L 1050 2972 
L 1050 838 
Q 1050 594 1129 495 
Q 1209 397 1406 397 
Q 1519 397 1731 441 
L 1731 25 
z
" transform="scale(0.015625)"/>
      <path id="LiberationSans-61" d="M 1294 -63 
Q 784 -63 528 206 
Q 272 475 272 944 
Q 272 1469 617 1750 
Q 963 2031 1731 2050 
L 2491 2063 
L 2491 2247 
Q 2491 2659 2316 2837 
Q 2141 3016 1766 3016 
Q 1388 3016 1216 2887 
Q 1044 2759 1009 2478 
L 422 2531 
Q 566 3444 1778 3444 
Q 2416 3444 2737 3151 
Q 3059 2859 3059 2306 
L 3059 850 
Q 3059 600 3125 473 
Q 3191 347 3375 347 
Q 3456 347 3559 369 
L 3559 19 
Q 3347 -31 3125 -31 
Q 2813 -31 2670 133 
Q 2528 297 2509 647 
L 2491 647 
Q 2275 259 1989 98 
Q 1703 -63 1294 -63 
z
M 1422 359 
Q 1731 359 1972 500 
Q 2213 641 2352 886 
Q 2491 1131 2491 1391 
L 2491 1669 
L 1875 1656 
Q 1478 1650 1273 1575 
Q 1069 1500 959 1344 
Q 850 1188 850 934 
Q 850 659 998 509 
Q 1147 359 1422 359 
z
" transform="scale(0.015625)"/>
      <path id="LiberationSans-6c" d="M 431 0 
L 431 4638 
L 994 4638 
L 994 0 
L 431 0 
z
" transform="scale(0.015625)"/>
      <path id="LiberationSans-3a" d="M 584 2734 
L 584 3381 
L 1194 3381 
L 1194 2734 
L 584 2734 
z
M 584 0 
L 584 647 
L 1194 647 
L 1194 0 
L 584 0 
z
" transform="scale(0.015625)"/>
     </defs>
     <use xlink:href="#LiberationSans-54"/>
     <use xlink:href="#LiberationSans-6f" x="49.958984"/>
     <use xlink:href="#LiberationSans-74" x="105.574219"/>
     <use xlink:href="#LiberationSans-61" x="133.357422"/>
     <use xlink:href="#LiberationSans-6c" x="188.972656"/>
     <use xlink:href="#LiberationSans-20" x="211.189453"/>
     <use xlink:href="#LiberationSans-4e" x="238.972656"/>
     <use xlink:href="#LiberationSans-65" x="311.189453"/>
     <use xlink:href="#LiberationSans-75" x="366.804688"/>
     <use xlink:href="#LiberationSans-72" x="422.419922"/>
     <use xlink:href="#LiberationSans-6f" x="455.720703"/>
     <use xlink:href="#LiberationSans-6e" x="511.335938"/>
     <use xlink:href="#LiberationSans-73" x="566.951172"/>
     <use xlink:href="#LiberationSans-3a" x="616.951172"/>
    </g>
    <!-- $\mathbf{1.0 \times 10^{5}}$ -->
    <g style="fill: #262626" transform="translate(509.933312 334.360854) scale(0.1 -0.1)">
     <defs>
      <path id="DejaVuSans-Bold-31" d="M 750 831 
L 1813 831 
L 1813 3847 
L 722 3622 
L 722 4441 
L 1806 4666 
L 2950 4666 
L 2950 831 
L 4013 831 
L 4013 0 
L 750 0 
L 750 831 
z
" transform="scale(0.015625)"/>
      <path id="DejaVuSans-Bold-2e" d="M 653 1209 
L 1778 1209 
L 1778 0 
L 653 0 
L 653 1209 
z
" transform="scale(0.015625)"/>
      <path id="DejaVuSans-Bold-30" d="M 2944 2338 
Q 2944 3213 2780 3570 
Q 2616 3928 2228 3928 
Q 1841 3928 1675 3570 
Q 1509 3213 1509 2338 
Q 1509 1453 1675 1090 
Q 1841 728 2228 728 
Q 2613 728 2778 1090 
Q 2944 1453 2944 2338 
z
M 4147 2328 
Q 4147 1169 3647 539 
Q 3147 -91 2228 -91 
Q 1306 -91 806 539 
Q 306 1169 306 2328 
Q 306 3491 806 4120 
Q 1306 4750 2228 4750 
Q 3147 4750 3647 4120 
Q 4147 3491 4147 2328 
z
" transform="scale(0.015625)"/>
      <path id="DejaVuSans-Bold-d7" d="M 4563 3359 
L 3206 2003 
L 4563 653 
L 4038 128 
L 2681 1478 
L 1325 128 
L 800 653 
L 2156 2003 
L 800 3359 
L 1325 3884 
L 2681 2528 
L 4038 3884 
L 4563 3359 
z
" transform="scale(0.015625)"/>
      <path id="DejaVuSans-Bold-35" d="M 678 4666 
L 3669 4666 
L 3669 3781 
L 1638 3781 
L 1638 3059 
Q 1775 3097 1914 3117 
Q 2053 3138 2203 3138 
Q 3056 3138 3531 2711 
Q 4006 2284 4006 1522 
Q 4006 766 3489 337 
Q 2972 -91 2053 -91 
Q 1656 -91 1267 -14 
Q 878 63 494 219 
L 494 1166 
Q 875 947 1217 837 
Q 1559 728 1863 728 
Q 2300 728 2551 942 
Q 2803 1156 2803 1522 
Q 2803 1891 2551 2103 
Q 2300 2316 1863 2316 
Q 1603 2316 1309 2248 
Q 1016 2181 678 2041 
L 678 4666 
z
" transform="scale(0.015625)"/>
     </defs>
     <use xlink:href="#DejaVuSans-Bold-31" transform="translate(0 0.684375)"/>
     <use xlink:href="#DejaVuSans-Bold-2e" transform="translate(69.580078 0.684375)"/>
     <use xlink:href="#DejaVuSans-Bold-30" transform="translate(107.568359 0.684375)"/>
     <use xlink:href="#DejaVuSans-Bold-d7" transform="translate(196.630859 0.684375)"/>
     <use xlink:href="#DejaVuSans-Bold-31" transform="translate(299.902344 0.684375)"/>
     <use xlink:href="#DejaVuSans-Bold-30" transform="translate(369.482422 0.684375)"/>
     <use xlink:href="#DejaVuSans-Bold-35" transform="translate(440.019531 38.965625) scale(0.7)"/>
    </g>
   </g>
   <g id="text_28">
    <!-- Temporal -->
    <g style="fill: #262626" transform="translate(261.692587 65.267755) scale(0.12 -0.12)">
     <defs>
      <path id="LiberationSans-70" d="M 3291 1706 
Q 3291 -63 2047 -63 
Q 1266 -63 997 525 
L 981 525 
Q 994 500 994 -6 
L 994 -1328 
L 431 -1328 
L 431 2691 
Q 431 3213 413 3381 
L 956 3381 
Q 959 3369 965 3292 
Q 972 3216 980 3056 
Q 988 2897 988 2838 
L 1000 2838 
Q 1150 3150 1397 3295 
Q 1644 3441 2047 3441 
Q 2672 3441 2981 3022 
Q 3291 2603 3291 1706 
z
M 2700 1694 
Q 2700 2400 2509 2703 
Q 2319 3006 1903 3006 
Q 1569 3006 1380 2865 
Q 1191 2725 1092 2426 
Q 994 2128 994 1650 
Q 994 984 1206 668 
Q 1419 353 1897 353 
Q 2316 353 2508 661 
Q 2700 969 2700 1694 
z
" transform="scale(0.015625)"/>
     </defs>
     <use xlink:href="#LiberationSans-54"/>
     <use xlink:href="#LiberationSans-65" x="49.958984"/>
     <use xlink:href="#LiberationSans-6d" x="105.574219"/>
     <use xlink:href="#LiberationSans-70" x="188.875"/>
     <use xlink:href="#LiberationSans-6f" x="244.490234"/>
     <use xlink:href="#LiberationSans-72" x="300.105469"/>
     <use xlink:href="#LiberationSans-61" x="333.40625"/>
     <use xlink:href="#LiberationSans-6c" x="389.021484"/>
    </g>
    <!-- resolution: Hz -->
    <g style="fill: #262626" transform="translate(249.68415 78.193255) scale(0.12 -0.12)">
     <defs>
      <path id="LiberationSans-69" d="M 428 4100 
L 428 4638 
L 991 4638 
L 991 4100 
L 428 4100 
z
M 428 0 
L 428 3381 
L 991 3381 
L 991 0 
L 428 0 
z
" transform="scale(0.015625)"/>
      <path id="LiberationSans-48" d="M 3503 0 
L 3503 2041 
L 1122 2041 
L 1122 0 
L 525 0 
L 525 4403 
L 1122 4403 
L 1122 2541 
L 3503 2541 
L 3503 4403 
L 4100 4403 
L 4100 0 
L 3503 0 
z
" transform="scale(0.015625)"/>
      <path id="LiberationSans-7a" d="M 259 0 
L 259 428 
L 2150 2947 
L 366 2947 
L 366 3381 
L 2816 3381 
L 2816 2953 
L 922 434 
L 2881 434 
L 2881 0 
L 259 0 
z
" transform="scale(0.015625)"/>
     </defs>
     <use xlink:href="#LiberationSans-72"/>
     <use xlink:href="#LiberationSans-65" x="33.300781"/>
     <use xlink:href="#LiberationSans-73" x="88.916016"/>
     <use xlink:href="#LiberationSans-6f" x="138.916016"/>
     <use xlink:href="#LiberationSans-6c" x="194.53125"/>
     <use xlink:href="#LiberationSans-75" x="216.748047"/>
     <use xlink:href="#LiberationSans-74" x="272.363281"/>
     <use xlink:href="#LiberationSans-69" x="300.146484"/>
     <use xlink:href="#LiberationSans-6f" x="322.363281"/>
     <use xlink:href="#LiberationSans-6e" x="377.978516"/>
     <use xlink:href="#LiberationSans-3a" x="433.59375"/>
     <use xlink:href="#LiberationSans-20" x="461.376953"/>
     <use xlink:href="#LiberationSans-48" x="489.160156"/>
     <use xlink:href="#LiberationSans-7a" x="561.376953"/>
    </g>
   </g>
   <g id="text_29">
    <g id="patch_29">
     <path d="M 376.236228 94.280899 
L 442.436228 94.280899 
Q 447.436228 94.280899 447.436228 89.280899 
L 447.436228 58.416524 
Q 447.436228 53.416524 442.436228 53.416524 
L 376.236228 53.416524 
Q 371.236228 53.416524 371.236228 58.416524 
L 371.236228 89.280899 
Q 371.236228 94.280899 376.236228 94.280899 
z
" style="fill: #82c3ff; opacity: 0.8; stroke: #000000; stroke-linejoin: miter"/>
    </g>
    <!-- Max. Neuron -->
    <g style="fill: #262626" transform="translate(380.715134 65.663399) scale(0.1 -0.1)">
     <defs>
      <path id="LiberationSans-4d" d="M 4269 0 
L 4269 2938 
Q 4269 3425 4297 3875 
Q 4144 3316 4022 3000 
L 2884 0 
L 2466 0 
L 1313 3000 
L 1138 3531 
L 1034 3875 
L 1044 3528 
L 1056 2938 
L 1056 0 
L 525 0 
L 525 4403 
L 1309 4403 
L 2481 1350 
Q 2544 1166 2601 955 
Q 2659 744 2678 650 
Q 2703 775 2783 1029 
Q 2863 1284 2891 1350 
L 4041 4403 
L 4806 4403 
L 4806 0 
L 4269 0 
z
" transform="scale(0.015625)"/>
      <path id="LiberationSans-78" d="M 2503 0 
L 1594 1388 
L 678 0 
L 72 0 
L 1275 1738 
L 128 3381 
L 750 3381 
L 1594 2066 
L 2431 3381 
L 3059 3381 
L 1913 1744 
L 3131 0 
L 2503 0 
z
" transform="scale(0.015625)"/>
      <path id="LiberationSans-2e" d="M 584 0 
L 584 684 
L 1194 684 
L 1194 0 
L 584 0 
z
" transform="scale(0.015625)"/>
     </defs>
     <use xlink:href="#LiberationSans-4d"/>
     <use xlink:href="#LiberationSans-61" x="83.300781"/>
     <use xlink:href="#LiberationSans-78" x="138.916016"/>
     <use xlink:href="#LiberationSans-2e" x="188.916016"/>
     <use xlink:href="#LiberationSans-20" x="216.699219"/>
     <use xlink:href="#LiberationSans-4e" x="244.482422"/>
     <use xlink:href="#LiberationSans-65" x="316.699219"/>
     <use xlink:href="#LiberationSans-75" x="372.314453"/>
     <use xlink:href="#LiberationSans-72" x="427.929688"/>
     <use xlink:href="#LiberationSans-6f" x="461.230469"/>
     <use xlink:href="#LiberationSans-6e" x="516.845703"/>
    </g>
    <!-- Firing Rate: -->
    <g style="fill: #262626" transform="translate(383.495603 76.434649) scale(0.1 -0.1)">
     <defs>
      <path id="LiberationSans-46" d="M 1122 3916 
L 1122 2278 
L 3578 2278 
L 3578 1784 
L 1122 1784 
L 1122 0 
L 525 0 
L 525 4403 
L 3653 4403 
L 3653 3916 
L 1122 3916 
z
" transform="scale(0.015625)"/>
      <path id="LiberationSans-67" d="M 1713 -1328 
Q 1159 -1328 831 -1111 
Q 503 -894 409 -494 
L 975 -413 
Q 1031 -647 1223 -773 
Q 1416 -900 1728 -900 
Q 2569 -900 2569 84 
L 2569 628 
L 2563 628 
Q 2403 303 2125 139 
Q 1847 -25 1475 -25 
Q 853 -25 561 387 
Q 269 800 269 1684 
Q 269 2581 583 3007 
Q 897 3434 1538 3434 
Q 1897 3434 2161 3270 
Q 2425 3106 2569 2803 
L 2575 2803 
Q 2575 2897 2587 3128 
Q 2600 3359 2613 3381 
L 3147 3381 
Q 3128 3213 3128 2681 
L 3128 97 
Q 3128 -1328 1713 -1328 
z
M 2569 1691 
Q 2569 2103 2456 2401 
Q 2344 2700 2139 2858 
Q 1934 3016 1675 3016 
Q 1244 3016 1047 2703 
Q 850 2391 850 1691 
Q 850 997 1034 694 
Q 1219 391 1666 391 
Q 1931 391 2137 547 
Q 2344 703 2456 995 
Q 2569 1288 2569 1691 
z
" transform="scale(0.015625)"/>
      <path id="LiberationSans-52" d="M 3638 0 
L 2494 1828 
L 1122 1828 
L 1122 0 
L 525 0 
L 525 4403 
L 2597 4403 
Q 3341 4403 3745 4070 
Q 4150 3738 4150 3144 
Q 4150 2653 3864 2318 
Q 3578 1984 3075 1897 
L 4325 0 
L 3638 0 
z
M 3550 3138 
Q 3550 3522 3289 3723 
Q 3028 3925 2538 3925 
L 1122 3925 
L 1122 2300 
L 2563 2300 
Q 3034 2300 3292 2520 
Q 3550 2741 3550 3138 
z
" transform="scale(0.015625)"/>
     </defs>
     <use xlink:href="#LiberationSans-46"/>
     <use xlink:href="#LiberationSans-69" x="61.083984"/>
     <use xlink:href="#LiberationSans-72" x="83.300781"/>
     <use xlink:href="#LiberationSans-69" x="116.601562"/>
     <use xlink:href="#LiberationSans-6e" x="138.818359"/>
     <use xlink:href="#LiberationSans-67" x="194.433594"/>
     <use xlink:href="#LiberationSans-20" x="250.048828"/>
     <use xlink:href="#LiberationSans-52" x="277.832031"/>
     <use xlink:href="#LiberationSans-61" x="350.048828"/>
     <use xlink:href="#LiberationSans-74" x="405.664062"/>
     <use xlink:href="#LiberationSans-65" x="433.447266"/>
     <use xlink:href="#LiberationSans-3a" x="489.0625"/>
    </g>
    <!-- $\mathbf{8.0 \times 10^{1}}$ $\mathbf{Hz}$ -->
    <g style="fill: #262626" transform="translate(376.236228 87.205899) scale(0.1 -0.1)">
     <defs>
      <path id="DejaVuSans-Bold-38" d="M 2228 2088 
Q 1891 2088 1709 1903 
Q 1528 1719 1528 1375 
Q 1528 1031 1709 848 
Q 1891 666 2228 666 
Q 2563 666 2741 848 
Q 2919 1031 2919 1375 
Q 2919 1722 2741 1905 
Q 2563 2088 2228 2088 
z
M 1350 2484 
Q 925 2613 709 2878 
Q 494 3144 494 3541 
Q 494 4131 934 4440 
Q 1375 4750 2228 4750 
Q 3075 4750 3515 4442 
Q 3956 4134 3956 3541 
Q 3956 3144 3739 2878 
Q 3522 2613 3097 2484 
Q 3572 2353 3814 2058 
Q 4056 1763 4056 1313 
Q 4056 619 3595 264 
Q 3134 -91 2228 -91 
Q 1319 -91 855 264 
Q 391 619 391 1313 
Q 391 1763 633 2058 
Q 875 2353 1350 2484 
z
M 1631 3419 
Q 1631 3141 1786 2991 
Q 1941 2841 2228 2841 
Q 2509 2841 2662 2991 
Q 2816 3141 2816 3419 
Q 2816 3697 2662 3845 
Q 2509 3994 2228 3994 
Q 1941 3994 1786 3844 
Q 1631 3694 1631 3419 
z
" transform="scale(0.015625)"/>
      <path id="DejaVuSans-Bold-48" d="M 588 4666 
L 1791 4666 
L 1791 2888 
L 3566 2888 
L 3566 4666 
L 4769 4666 
L 4769 0 
L 3566 0 
L 3566 1978 
L 1791 1978 
L 1791 0 
L 588 0 
L 588 4666 
z
" transform="scale(0.015625)"/>
      <path id="DejaVuSans-Bold-7a" d="M 366 3500 
L 3419 3500 
L 3419 2719 
L 1575 800 
L 3419 800 
L 3419 0 
L 288 0 
L 288 781 
L 2131 2700 
L 366 2700 
L 366 3500 
z
" transform="scale(0.015625)"/>
     </defs>
     <use xlink:href="#DejaVuSans-Bold-38" transform="translate(0 0.684375)"/>
     <use xlink:href="#DejaVuSans-Bold-2e" transform="translate(69.580078 0.684375)"/>
     <use xlink:href="#DejaVuSans-Bold-30" transform="translate(107.568359 0.684375)"/>
     <use xlink:href="#DejaVuSans-Bold-d7" transform="translate(196.630859 0.684375)"/>
     <use xlink:href="#DejaVuSans-Bold-31" transform="translate(299.902344 0.684375)"/>
     <use xlink:href="#DejaVuSans-Bold-30" transform="translate(369.482422 0.684375)"/>
     <use xlink:href="#DejaVuSans-Bold-31" transform="translate(440.019531 38.965625) scale(0.7)"/>
     <use xlink:href="#LiberationSans-20" transform="translate(491.459961 0.684375)"/>
     <use xlink:href="#DejaVuSans-Bold-48" transform="translate(519.243164 0.684375)"/>
     <use xlink:href="#DejaVuSans-Bold-7a" transform="translate(602.93457 0.684375)"/>
    </g>
   </g>
   <g id="text_30">
    <!-- Duration single -->
    <g style="fill: #262626" transform="translate(7.88939 198.010049) scale(0.12 -0.12)">
     <defs>
      <path id="LiberationSans-44" d="M 4316 2247 
Q 4316 1566 4050 1055 
Q 3784 544 3296 272 
Q 2809 0 2172 0 
L 525 0 
L 525 4403 
L 1981 4403 
Q 3100 4403 3708 3842 
Q 4316 3281 4316 2247 
z
M 3716 2247 
Q 3716 3066 3267 3495 
Q 2819 3925 1969 3925 
L 1122 3925 
L 1122 478 
L 2103 478 
Q 2588 478 2955 690 
Q 3322 903 3519 1303 
Q 3716 1703 3716 2247 
z
" transform="scale(0.015625)"/>
     </defs>
     <use xlink:href="#LiberationSans-44"/>
     <use xlink:href="#LiberationSans-75" x="72.216797"/>
     <use xlink:href="#LiberationSans-72" x="127.832031"/>
     <use xlink:href="#LiberationSans-61" x="161.132812"/>
     <use xlink:href="#LiberationSans-74" x="216.748047"/>
     <use xlink:href="#LiberationSans-69" x="244.53125"/>
     <use xlink:href="#LiberationSans-6f" x="266.748047"/>
     <use xlink:href="#LiberationSans-6e" x="322.363281"/>
     <use xlink:href="#LiberationSans-20" x="377.978516"/>
     <use xlink:href="#LiberationSans-73" x="405.761719"/>
     <use xlink:href="#LiberationSans-69" x="455.761719"/>
     <use xlink:href="#LiberationSans-6e" x="477.978516"/>
     <use xlink:href="#LiberationSans-67" x="533.59375"/>
     <use xlink:href="#LiberationSans-6c" x="589.208984"/>
     <use xlink:href="#LiberationSans-65" x="611.425781"/>
    </g>
    <!-- session min -->
    <g style="fill: #262626" transform="translate(16.232202 210.935549) scale(0.12 -0.12)">
     <use xlink:href="#LiberationSans-73"/>
     <use xlink:href="#LiberationSans-65" x="50"/>
     <use xlink:href="#LiberationSans-73" x="105.615234"/>
     <use xlink:href="#LiberationSans-73" x="155.615234"/>
     <use xlink:href="#LiberationSans-69" x="205.615234"/>
     <use xlink:href="#LiberationSans-6f" x="227.832031"/>
     <use xlink:href="#LiberationSans-6e" x="283.447266"/>
     <use xlink:href="#LiberationSans-20" x="339.0625"/>
     <use xlink:href="#LiberationSans-6d" x="366.845703"/>
     <use xlink:href="#LiberationSans-69" x="450.146484"/>
     <use xlink:href="#LiberationSans-6e" x="472.363281"/>
    </g>
   </g>
   <g id="text_31">
    <g id="patch_30">
     <path d="M 56.695353 143.020278 
L 129.595353 143.020278 
Q 134.595353 143.020278 134.595353 138.020278 
L 134.595353 117.927153 
Q 134.595353 112.927153 129.595353 112.927153 
L 56.695353 112.927153 
Q 51.695353 112.927153 51.695353 117.927153 
L 51.695353 138.020278 
Q 51.695353 143.020278 56.695353 143.020278 
z
" style="fill: #82c3ff; opacity: 0.8; stroke: #000000; stroke-linejoin: miter"/>
    </g>
    <!-- Avg. Lifetime: -->
    <g style="fill: #262626" transform="translate(62.943791 125.174028) scale(0.1 -0.1)">
     <defs>
      <path id="LiberationSans-41" d="M 3647 0 
L 3144 1288 
L 1138 1288 
L 631 0 
L 13 0 
L 1809 4403 
L 2488 4403 
L 4256 0 
L 3647 0 
z
M 2141 3953 
L 2113 3866 
Q 2034 3606 1881 3200 
L 1319 1753 
L 2966 1753 
L 2400 3206 
Q 2313 3422 2225 3694 
L 2141 3953 
z
" transform="scale(0.015625)"/>
      <path id="LiberationSans-76" d="M 1916 0 
L 1250 0 
L 22 3381 
L 622 3381 
L 1366 1181 
Q 1406 1056 1581 441 
L 1691 806 
L 1813 1175 
L 2581 3381 
L 3178 3381 
L 1916 0 
z
" transform="scale(0.015625)"/>
      <path id="LiberationSans-4c" d="M 525 0 
L 525 4403 
L 1122 4403 
L 1122 488 
L 3347 488 
L 3347 0 
L 525 0 
z
" transform="scale(0.015625)"/>
     </defs>
     <use xlink:href="#LiberationSans-41"/>
     <use xlink:href="#LiberationSans-76" x="64.949219"/>
     <use xlink:href="#LiberationSans-67" x="114.949219"/>
     <use xlink:href="#LiberationSans-2e" x="170.564453"/>
     <use xlink:href="#LiberationSans-20" x="198.347656"/>
     <use xlink:href="#LiberationSans-4c" x="226.130859"/>
     <use xlink:href="#LiberationSans-69" x="281.746094"/>
     <use xlink:href="#LiberationSans-66" x="303.962891"/>
     <use xlink:href="#LiberationSans-65" x="331.746094"/>
     <use xlink:href="#LiberationSans-74" x="387.361328"/>
     <use xlink:href="#LiberationSans-69" x="415.144531"/>
     <use xlink:href="#LiberationSans-6d" x="437.361328"/>
     <use xlink:href="#LiberationSans-65" x="520.662109"/>
     <use xlink:href="#LiberationSans-3a" x="576.277344"/>
    </g>
    <!-- $\mathbf{1.4 \times 10^{4}}$ $\mathbf{min}$ -->
    <g style="fill: #262626" transform="translate(56.695353 135.945278) scale(0.1 -0.1)">
     <defs>
      <path id="DejaVuSans-Bold-34" d="M 2356 3675 
L 1038 1722 
L 2356 1722 
L 2356 3675 
z
M 2156 4666 
L 3494 4666 
L 3494 1722 
L 4159 1722 
L 4159 850 
L 3494 850 
L 3494 0 
L 2356 0 
L 2356 850 
L 288 850 
L 288 1881 
L 2156 4666 
z
" transform="scale(0.015625)"/>
      <path id="DejaVuSans-Bold-6d" d="M 3781 2919 
Q 3994 3244 4286 3414 
Q 4578 3584 4928 3584 
Q 5531 3584 5847 3212 
Q 6163 2841 6163 2131 
L 6163 0 
L 5038 0 
L 5038 1825 
Q 5041 1866 5042 1909 
Q 5044 1953 5044 2034 
Q 5044 2406 4934 2573 
Q 4825 2741 4581 2741 
Q 4263 2741 4089 2478 
Q 3916 2216 3909 1719 
L 3909 0 
L 2784 0 
L 2784 1825 
Q 2784 2406 2684 2573 
Q 2584 2741 2328 2741 
Q 2006 2741 1831 2477 
Q 1656 2213 1656 1722 
L 1656 0 
L 531 0 
L 531 3500 
L 1656 3500 
L 1656 2988 
Q 1863 3284 2130 3434 
Q 2397 3584 2719 3584 
Q 3081 3584 3359 3409 
Q 3638 3234 3781 2919 
z
" transform="scale(0.015625)"/>
      <path id="DejaVuSans-Bold-69" d="M 538 3500 
L 1656 3500 
L 1656 0 
L 538 0 
L 538 3500 
z
M 538 4863 
L 1656 4863 
L 1656 3950 
L 538 3950 
L 538 4863 
z
" transform="scale(0.015625)"/>
      <path id="DejaVuSans-Bold-6e" d="M 4056 2131 
L 4056 0 
L 2931 0 
L 2931 347 
L 2931 1631 
Q 2931 2084 2911 2256 
Q 2891 2428 2841 2509 
Q 2775 2619 2662 2680 
Q 2550 2741 2406 2741 
Q 2056 2741 1856 2470 
Q 1656 2200 1656 1722 
L 1656 0 
L 538 0 
L 538 3500 
L 1656 3500 
L 1656 2988 
Q 1909 3294 2193 3439 
Q 2478 3584 2822 3584 
Q 3428 3584 3742 3212 
Q 4056 2841 4056 2131 
z
" transform="scale(0.015625)"/>
     </defs>
     <use xlink:href="#DejaVuSans-Bold-31" transform="translate(0 0.684375)"/>
     <use xlink:href="#DejaVuSans-Bold-2e" transform="translate(69.580078 0.684375)"/>
     <use xlink:href="#DejaVuSans-Bold-34" transform="translate(107.568359 0.684375)"/>
     <use xlink:href="#DejaVuSans-Bold-d7" transform="translate(196.630859 0.684375)"/>
     <use xlink:href="#DejaVuSans-Bold-31" transform="translate(299.902344 0.684375)"/>
     <use xlink:href="#DejaVuSans-Bold-30" transform="translate(369.482422 0.684375)"/>
     <use xlink:href="#DejaVuSans-Bold-34" transform="translate(440.019531 38.965625) scale(0.7)"/>
     <use xlink:href="#LiberationSans-20" transform="translate(491.459961 0.684375)"/>
     <use xlink:href="#DejaVuSans-Bold-6d" transform="translate(519.243164 0.684375)"/>
     <use xlink:href="#DejaVuSans-Bold-69" transform="translate(623.442383 0.684375)"/>
     <use xlink:href="#DejaVuSans-Bold-6e" transform="translate(657.719727 0.684375)"/>
    </g>
   </g>
   <g id="text_32">
    <!-- Duration total -->
    <g style="fill: #262626" transform="translate(89.788647 466.184521) scale(0.12 -0.12)">
     <use xlink:href="#LiberationSans-44"/>
     <use xlink:href="#LiberationSans-75" x="72.216797"/>
     <use xlink:href="#LiberationSans-72" x="127.832031"/>
     <use xlink:href="#LiberationSans-61" x="161.132812"/>
     <use xlink:href="#LiberationSans-74" x="216.748047"/>
     <use xlink:href="#LiberationSans-69" x="244.53125"/>
     <use xlink:href="#LiberationSans-6f" x="266.748047"/>
     <use xlink:href="#LiberationSans-6e" x="322.363281"/>
     <use xlink:href="#LiberationSans-20" x="377.978516"/>
     <use xlink:href="#LiberationSans-74" x="405.761719"/>
     <use xlink:href="#LiberationSans-6f" x="433.544922"/>
     <use xlink:href="#LiberationSans-74" x="489.160156"/>
     <use xlink:href="#LiberationSans-61" x="516.943359"/>
     <use xlink:href="#LiberationSans-6c" x="572.558594"/>
    </g>
    <!-- repeated -->
    <g style="fill: #262626" transform="translate(101.788647 479.110021) scale(0.12 -0.12)">
     <defs>
      <path id="LiberationSans-64" d="M 2566 544 
Q 2409 219 2151 78 
Q 1894 -63 1513 -63 
Q 872 -63 570 368 
Q 269 800 269 1675 
Q 269 3444 1513 3444 
Q 1897 3444 2153 3303 
Q 2409 3163 2566 2856 
L 2572 2856 
L 2566 3234 
L 2566 4638 
L 3128 4638 
L 3128 697 
Q 3128 169 3147 0 
L 2609 0 
Q 2600 50 2589 231 
Q 2578 413 2578 544 
L 2566 544 
z
M 859 1694 
Q 859 984 1046 678 
Q 1234 372 1656 372 
Q 2134 372 2350 703 
Q 2566 1034 2566 1731 
Q 2566 2403 2350 2715 
Q 2134 3028 1663 3028 
Q 1238 3028 1048 2714 
Q 859 2400 859 1694 
z
" transform="scale(0.015625)"/>
     </defs>
     <use xlink:href="#LiberationSans-72"/>
     <use xlink:href="#LiberationSans-65" x="33.300781"/>
     <use xlink:href="#LiberationSans-70" x="88.916016"/>
     <use xlink:href="#LiberationSans-65" x="144.53125"/>
     <use xlink:href="#LiberationSans-61" x="200.146484"/>
     <use xlink:href="#LiberationSans-74" x="255.761719"/>
     <use xlink:href="#LiberationSans-65" x="283.544922"/>
     <use xlink:href="#LiberationSans-64" x="339.160156"/>
    </g>
    <!-- sessions min -->
    <g style="fill: #262626" transform="translate(90.795522 492.035521) scale(0.12 -0.12)">
     <use xlink:href="#LiberationSans-73"/>
     <use xlink:href="#LiberationSans-65" x="50"/>
     <use xlink:href="#LiberationSans-73" x="105.615234"/>
     <use xlink:href="#LiberationSans-73" x="155.615234"/>
     <use xlink:href="#LiberationSans-69" x="205.615234"/>
     <use xlink:href="#LiberationSans-6f" x="227.832031"/>
     <use xlink:href="#LiberationSans-6e" x="283.447266"/>
     <use xlink:href="#LiberationSans-73" x="339.0625"/>
     <use xlink:href="#LiberationSans-20" x="389.0625"/>
     <use xlink:href="#LiberationSans-6d" x="416.845703"/>
     <use xlink:href="#LiberationSans-69" x="500.146484"/>
     <use xlink:href="#LiberationSans-6e" x="522.363281"/>
    </g>
   </g>
   <g id="text_33">
    <g id="patch_31">
     <path d="M 10.918449 414.74144 
L 83.818449 414.74144 
Q 88.818449 414.74144 88.818449 409.74144 
L 88.818449 389.648315 
Q 88.818449 384.648315 83.818449 384.648315 
L 10.918449 384.648315 
Q 5.918449 384.648315 5.918449 389.648315 
L 5.918449 409.74144 
Q 5.918449 414.74144 10.918449 414.74144 
z
" style="fill: #82c3ff; opacity: 0.8; stroke: #000000; stroke-linejoin: miter"/>
    </g>
    <!-- Avg. Lifetime: -->
    <g style="fill: #262626" transform="translate(17.166886 396.89519) scale(0.1 -0.1)">
     <use xlink:href="#LiberationSans-41"/>
     <use xlink:href="#LiberationSans-76" x="64.949219"/>
     <use xlink:href="#LiberationSans-67" x="114.949219"/>
     <use xlink:href="#LiberationSans-2e" x="170.564453"/>
     <use xlink:href="#LiberationSans-20" x="198.347656"/>
     <use xlink:href="#LiberationSans-4c" x="226.130859"/>
     <use xlink:href="#LiberationSans-69" x="281.746094"/>
     <use xlink:href="#LiberationSans-66" x="303.962891"/>
     <use xlink:href="#LiberationSans-65" x="331.746094"/>
     <use xlink:href="#LiberationSans-74" x="387.361328"/>
     <use xlink:href="#LiberationSans-69" x="415.144531"/>
     <use xlink:href="#LiberationSans-6d" x="437.361328"/>
     <use xlink:href="#LiberationSans-65" x="520.662109"/>
     <use xlink:href="#LiberationSans-3a" x="576.277344"/>
    </g>
    <!-- $\mathbf{1.4 \times 10^{4}}$ $\mathbf{min}$ -->
    <g style="fill: #262626" transform="translate(10.918449 407.66644) scale(0.1 -0.1)">
     <use xlink:href="#DejaVuSans-Bold-31" transform="translate(0 0.684375)"/>
     <use xlink:href="#DejaVuSans-Bold-2e" transform="translate(69.580078 0.684375)"/>
     <use xlink:href="#DejaVuSans-Bold-34" transform="translate(107.568359 0.684375)"/>
     <use xlink:href="#DejaVuSans-Bold-d7" transform="translate(196.630859 0.684375)"/>
     <use xlink:href="#DejaVuSans-Bold-31" transform="translate(299.902344 0.684375)"/>
     <use xlink:href="#DejaVuSans-Bold-30" transform="translate(369.482422 0.684375)"/>
     <use xlink:href="#DejaVuSans-Bold-34" transform="translate(440.019531 38.965625) scale(0.7)"/>
     <use xlink:href="#LiberationSans-20" transform="translate(491.459961 0.684375)"/>
     <use xlink:href="#DejaVuSans-Bold-6d" transform="translate(519.243164 0.684375)"/>
     <use xlink:href="#DejaVuSans-Bold-69" transform="translate(623.442383 0.684375)"/>
     <use xlink:href="#DejaVuSans-Bold-6e" transform="translate(657.719727 0.684375)"/>
    </g>
   </g>
   <g id="text_34">
    <!-- Resolution in -->
    <g style="fill: #262626" transform="translate(383.638217 479.918755) scale(0.12 -0.12)">
     <use xlink:href="#LiberationSans-52"/>
     <use xlink:href="#LiberationSans-65" x="72.216797"/>
     <use xlink:href="#LiberationSans-73" x="127.832031"/>
     <use xlink:href="#LiberationSans-6f" x="177.832031"/>
     <use xlink:href="#LiberationSans-6c" x="233.447266"/>
     <use xlink:href="#LiberationSans-75" x="255.664062"/>
     <use xlink:href="#LiberationSans-74" x="311.279297"/>
     <use xlink:href="#LiberationSans-69" x="339.0625"/>
     <use xlink:href="#LiberationSans-6f" x="361.279297"/>
     <use xlink:href="#LiberationSans-6e" x="416.894531"/>
     <use xlink:href="#LiberationSans-20" x="472.509766"/>
     <use xlink:href="#LiberationSans-69" x="500.292969"/>
     <use xlink:href="#LiberationSans-6e" x="522.509766"/>
    </g>
    <!-- m isotropic -->
    <g style="fill: #262626" transform="translate(385.86103 492.844255) scale(0.12 -0.12)">
     <defs>
      <path id="LiberationSans-b5" d="M 438 -1328 
L 438 3381 
L 1003 3381 
L 1003 1238 
Q 1003 806 1170 589 
Q 1338 372 1709 372 
Q 2109 372 2337 644 
Q 2566 916 2566 1422 
L 2566 3381 
L 3128 3381 
L 3128 831 
Q 3128 594 3184 486 
Q 3241 378 3372 378 
Q 3450 378 3541 403 
L 3541 0 
Q 3338 -63 3188 -63 
Q 2903 -63 2754 84 
Q 2606 231 2591 544 
L 2581 544 
Q 2250 -63 1647 -63 
Q 1438 -63 1267 1 
Q 1097 66 1000 184 
L 1000 -1328 
L 438 -1328 
z
" transform="scale(0.015625)"/>
      <path id="LiberationSans-63" d="M 859 1706 
Q 859 1031 1071 706 
Q 1284 381 1713 381 
Q 2013 381 2214 543 
Q 2416 706 2463 1044 
L 3031 1006 
Q 2966 519 2616 228 
Q 2266 -63 1728 -63 
Q 1019 -63 645 385 
Q 272 834 272 1694 
Q 272 2547 647 2995 
Q 1022 3444 1722 3444 
Q 2241 3444 2583 3175 
Q 2925 2906 3013 2434 
L 2434 2391 
Q 2391 2672 2212 2837 
Q 2034 3003 1706 3003 
Q 1259 3003 1059 2706 
Q 859 2409 859 1706 
z
" transform="scale(0.015625)"/>
     </defs>
     <use xlink:href="#LiberationSans-b5"/>
     <use xlink:href="#LiberationSans-6d" x="57.617188"/>
     <use xlink:href="#LiberationSans-20" x="140.917969"/>
     <use xlink:href="#LiberationSans-69" x="168.701172"/>
     <use xlink:href="#LiberationSans-73" x="190.917969"/>
     <use xlink:href="#LiberationSans-6f" x="240.917969"/>
     <use xlink:href="#LiberationSans-74" x="296.533203"/>
     <use xlink:href="#LiberationSans-72" x="324.316406"/>
     <use xlink:href="#LiberationSans-6f" x="357.617188"/>
     <use xlink:href="#LiberationSans-70" x="413.232422"/>
     <use xlink:href="#LiberationSans-69" x="468.847656"/>
     <use xlink:href="#LiberationSans-63" x="491.064453"/>
    </g>
   </g>
   <g id="text_35">
    <g id="patch_32">
     <path d="M 259.397981 548.42816 
L 333.497981 548.42816 
Q 338.497981 548.42816 338.497981 543.42816 
L 338.497981 510.340035 
Q 338.497981 505.340035 333.497981 505.340035 
L 259.397981 505.340035 
Q 254.397981 505.340035 254.397981 510.340035 
L 254.397981 543.42816 
Q 254.397981 548.42816 259.397981 548.42816 
z
" style="fill: #82c3ff; opacity: 0.8; stroke: #000000; stroke-linejoin: miter"/>
    </g>
    <!-- Single Neuron -->
    <g style="fill: #262626" transform="translate(264.762825 517.56191) scale(0.1 -0.1)">
     <defs>
      <path id="LiberationSans-53" d="M 3975 1216 
Q 3975 606 3498 271 
Q 3022 -63 2156 -63 
Q 547 -63 291 1056 
L 869 1172 
Q 969 775 1294 589 
Q 1619 403 2178 403 
Q 2756 403 3070 601 
Q 3384 800 3384 1184 
Q 3384 1400 3286 1534 
Q 3188 1669 3009 1756 
Q 2831 1844 2584 1903 
Q 2338 1963 2038 2031 
Q 1516 2147 1245 2262 
Q 975 2378 819 2520 
Q 663 2663 580 2853 
Q 497 3044 497 3291 
Q 497 3856 930 4162 
Q 1363 4469 2169 4469 
Q 2919 4469 3316 4239 
Q 3713 4009 3872 3456 
L 3284 3353 
Q 3188 3703 2916 3861 
Q 2644 4019 2163 4019 
Q 1634 4019 1356 3844 
Q 1078 3669 1078 3322 
Q 1078 3119 1186 2986 
Q 1294 2853 1497 2761 
Q 1700 2669 2306 2534 
Q 2509 2488 2711 2439 
Q 2913 2391 3097 2323 
Q 3281 2256 3442 2165 
Q 3603 2075 3722 1944 
Q 3841 1813 3908 1634 
Q 3975 1456 3975 1216 
z
" transform="scale(0.015625)"/>
     </defs>
     <use xlink:href="#LiberationSans-53"/>
     <use xlink:href="#LiberationSans-69" x="66.699219"/>
     <use xlink:href="#LiberationSans-6e" x="88.916016"/>
     <use xlink:href="#LiberationSans-67" x="144.53125"/>
     <use xlink:href="#LiberationSans-6c" x="200.146484"/>
     <use xlink:href="#LiberationSans-65" x="222.363281"/>
     <use xlink:href="#LiberationSans-20" x="277.978516"/>
     <use xlink:href="#LiberationSans-4e" x="305.761719"/>
     <use xlink:href="#LiberationSans-65" x="377.978516"/>
     <use xlink:href="#LiberationSans-75" x="433.59375"/>
     <use xlink:href="#LiberationSans-72" x="489.208984"/>
     <use xlink:href="#LiberationSans-6f" x="522.509766"/>
     <use xlink:href="#LiberationSans-6e" x="578.125"/>
    </g>
    <!-- Resolution: -->
    <g style="fill: #262626" transform="translate(271.4347 528.33316) scale(0.1 -0.1)">
     <use xlink:href="#LiberationSans-52"/>
     <use xlink:href="#LiberationSans-65" x="72.216797"/>
     <use xlink:href="#LiberationSans-73" x="127.832031"/>
     <use xlink:href="#LiberationSans-6f" x="177.832031"/>
     <use xlink:href="#LiberationSans-6c" x="233.447266"/>
     <use xlink:href="#LiberationSans-75" x="255.664062"/>
     <use xlink:href="#LiberationSans-74" x="311.279297"/>
     <use xlink:href="#LiberationSans-69" x="339.0625"/>
     <use xlink:href="#LiberationSans-6f" x="361.279297"/>
     <use xlink:href="#LiberationSans-6e" x="416.894531"/>
     <use xlink:href="#LiberationSans-3a" x="472.509766"/>
    </g>
    <!-- $\mathbf{1.0 \times 10^{0}}$ $\mathbf{m}$ -->
    <g style="fill: #262626" transform="translate(259.397981 541.32816) scale(0.1 -0.1)">
     <defs>
      <path id="DejaVuSans-Bold-b5" d="M 544 -1338 
L 544 3500 
L 1672 3500 
L 1672 1466 
Q 1672 1103 1828 926 
Q 1984 750 2303 750 
Q 2625 750 2781 926 
Q 2938 1103 2938 1466 
L 2938 3500 
L 4063 3500 
L 4063 1159 
Q 4063 938 4114 850 
Q 4166 763 4288 763 
Q 4344 763 4395 778 
Q 4447 794 4506 831 
L 4506 50 
Q 4341 -22 4195 -56 
Q 4050 -91 3909 -91 
Q 3631 -91 3454 26 
Q 3278 144 3169 403 
Q 3022 156 2811 32 
Q 2600 -91 2322 -91 
Q 2091 -91 1928 -17 
Q 1766 56 1672 206 
L 1672 -1338 
L 544 -1338 
z
" transform="scale(0.015625)"/>
      <path id="DejaVuSans-Bold-b3" d="M 1850 3500 
Q 2138 3444 2297 3272 
Q 2456 3100 2456 2847 
Q 2456 2444 2147 2242 
Q 1838 2041 1209 2041 
Q 956 2041 725 2077 
Q 494 2113 281 2181 
L 281 2725 
Q 488 2613 688 2555 
Q 888 2497 1075 2497 
Q 1372 2497 1534 2597 
Q 1697 2697 1697 2881 
Q 1697 3081 1530 3176 
Q 1363 3272 1006 3272 
L 775 3272 
L 775 3700 
L 1038 3700 
Q 1344 3700 1484 3773 
Q 1625 3847 1625 4006 
Q 1625 4147 1503 4217 
Q 1381 4288 1131 4288 
Q 969 4288 776 4247 
Q 584 4206 366 4122 
L 366 4641 
Q 569 4694 805 4722 
Q 1041 4750 1313 4750 
Q 1834 4750 2111 4575 
Q 2388 4400 2388 4072 
Q 2388 3856 2247 3706 
Q 2106 3556 1850 3500 
z
" transform="scale(0.015625)"/>
     </defs>
     <use xlink:href="#DejaVuSans-Bold-31" transform="translate(0 0.765625)"/>
     <use xlink:href="#DejaVuSans-Bold-2e" transform="translate(69.580078 0.765625)"/>
     <use xlink:href="#DejaVuSans-Bold-30" transform="translate(107.568359 0.765625)"/>
     <use xlink:href="#DejaVuSans-Bold-d7" transform="translate(196.630859 0.765625)"/>
     <use xlink:href="#DejaVuSans-Bold-31" transform="translate(299.902344 0.765625)"/>
     <use xlink:href="#DejaVuSans-Bold-30" transform="translate(369.482422 0.765625)"/>
     <use xlink:href="#DejaVuSans-Bold-30" transform="translate(440.019531 39.046875) scale(0.7)"/>
     <use xlink:href="#LiberationSans-20" transform="translate(491.459961 0.765625)"/>
     <use xlink:href="#DejaVuSans-Bold-b5" transform="translate(519.243164 0.765625)"/>
     <use xlink:href="#DejaVuSans-Bold-6d" transform="translate(592.827148 0.765625)"/>
     <use xlink:href="#DejaVuSans-Bold-b3" transform="translate(697.026367 0.765625)"/>
    </g>
   </g>
  </g>
 </g>
 <defs>
  <clipPath id="p5e6b1d9f95">
   <path d="M 486.820126 290.955639 
C 486.820126 264.212059 481.552224 237.728526 471.317899 213.02068 
C 461.083574 188.312834 446.081858 165.861179 427.171291 146.950612 
C 408.260724 128.040046 385.809069 113.03833 361.101223 102.804005 
C 336.393377 92.56968 309.909845 87.301777 283.166265 87.301777 
C 256.422685 87.301777 229.939152 92.56968 205.231306 102.804005 
C 180.52346 113.03833 158.071805 128.040046 139.161238 146.950612 
C 120.250672 165.861179 105.248956 188.312834 95.014631 213.02068 
C 84.780306 237.728526 79.512403 264.212059 79.512403 290.955639 
C 79.512403 317.699219 84.780306 344.182751 95.014631 368.890597 
C 105.248956 393.598443 120.250672 416.050098 139.161238 434.960665 
C 158.071805 453.871232 180.52346 468.872948 205.231306 479.107273 
C 229.939152 489.341598 256.422685 494.6095 283.166265 494.6095 
C 309.909845 494.6095 336.393377 489.341598 361.101223 479.107273 
C 385.809069 468.872948 408.260724 453.871232 427.171291 434.960665 
C 446.081858 416.050098 461.083574 393.598443 471.317899 368.890597 
C 481.552224 344.182751 486.820126 317.699219 486.820126 290.955639 
M 283.166265 290.955639 
C 283.166265 290.955639 283.166265 290.955639 283.166265 290.955639 
C 283.166265 290.955639 283.166265 290.955639 283.166265 290.955639 
C 283.166265 290.955639 283.166265 290.955639 283.166265 290.955639 
C 283.166265 290.955639 283.166265 290.955639 283.166265 290.955639 
C 283.166265 290.955639 283.166265 290.955639 283.166265 290.955639 
C 283.166265 290.955639 283.166265 290.955639 283.166265 290.955639 
C 283.166265 290.955639 283.166265 290.955639 283.166265 290.955639 
C 283.166265 290.955639 283.166265 290.955639 283.166265 290.955639 
C 283.166265 290.955639 283.166265 290.955639 283.166265 290.955639 
C 283.166265 290.955639 283.166265 290.955639 283.166265 290.955639 
C 283.166265 290.955639 283.166265 290.955639 283.166265 290.955639 
C 283.166265 290.955639 283.166265 290.955639 283.166265 290.955639 
C 283.166265 290.955639 283.166265 290.955639 283.166265 290.955639 
C 283.166265 290.955639 283.166265 290.955639 283.166265 290.955639 
C 283.166265 290.955639 283.166265 290.955639 283.166265 290.955639 
C 283.166265 290.955639 283.166265 290.955639 283.166265 290.955639 
z
"/>
  </clipPath>
 </defs>
</svg>
