<?xml version="1.0" encoding="utf-8" standalone="no"?>
<!DOCTYPE svg PUBLIC "-//W3C//DTD SVG 1.1//EN"
  "http://www.w3.org/Graphics/SVG/1.1/DTD/svg11.dtd">
<svg xmlns:xlink="http://www.w3.org/1999/xlink" width="576pt" height="576pt" viewBox="0 0 576 576" xmlns="http://www.w3.org/2000/svg" version="1.1">
 <metadata>
  <rdf:RDF xmlns:dc="http://purl.org/dc/elements/1.1/" xmlns:cc="http://creativecommons.org/ns#" xmlns:rdf="http://www.w3.org/1999/02/22-rdf-syntax-ns#">
   <cc:Work>
    <dc:type rdf:resource="http://purl.org/dc/dcmitype/StillImage"/>
    <dc:date>2025-01-25T10:03:21.144802</dc:date>
    <dc:format>image/svg+xml</dc:format>
    <dc:creator>
     <cc:Agent>
      <dc:title>Matplotlib v3.9.2, https://matplotlib.org/</dc:title>
     </cc:Agent>
    </dc:creator>
   </cc:Work>
  </rdf:RDF>
 </metadata>
 <defs>
  <style type="text/css">*{stroke-linejoin: round; stroke-linecap: butt}</style>
 </defs>
 <g id="figure_1">
  <g id="patch_1">
   <path d="M 0 576 
L 576 576 
L 576 0 
L 0 0 
z
" style="fill: #ffffff"/>
  </g>
  <g id="axes_1">
   <g id="patch_2">
    <path d="M 481.125 282.168 
C 481.125 257.587091 476.283097 233.2452 466.87639 210.535402 
C 457.469684 187.825603 443.68111 167.189545 426.299783 149.808217 
C 408.918455 132.42689 388.282397 118.638316 365.572598 109.23161 
C 342.8628 99.824903 318.520909 94.983 293.94 94.983 
C 269.359091 94.983 245.0172 99.824903 222.307402 109.23161 
C 199.597603 118.638316 178.961545 132.42689 161.580217 149.808217 
C 144.19889 167.189545 130.410316 187.825603 121.00361 210.535402 
C 111.596903 233.2452 106.755 257.587091 106.755 282.168 
C 106.755 306.748909 111.596903 331.0908 121.00361 353.800598 
C 130.410316 376.510397 144.19889 397.146455 161.580217 414.527783 
C 178.961545 431.90911 199.597603 445.697684 222.307402 455.10439 
C 245.0172 464.511097 269.359091 469.353 293.94 469.353 
C 318.520909 469.353 342.8628 464.511097 365.572598 455.10439 
C 388.282397 445.697684 408.918455 431.90911 426.299783 414.527783 
C 443.68111 397.146455 457.469684 376.510397 466.87639 353.800598 
C 476.283097 331.0908 481.125 306.748909 481.125 282.168 
M 293.94 282.168 
C 293.94 282.168 293.94 282.168 293.94 282.168 
C 293.94 282.168 293.94 282.168 293.94 282.168 
C 293.94 282.168 293.94 282.168 293.94 282.168 
C 293.94 282.168 293.94 282.168 293.94 282.168 
C 293.94 282.168 293.94 282.168 293.94 282.168 
C 293.94 282.168 293.94 282.168 293.94 282.168 
C 293.94 282.168 293.94 282.168 293.94 282.168 
C 293.94 282.168 293.94 282.168 293.94 282.168 
C 293.94 282.168 293.94 282.168 293.94 282.168 
C 293.94 282.168 293.94 282.168 293.94 282.168 
C 293.94 282.168 293.94 282.168 293.94 282.168 
C 293.94 282.168 293.94 282.168 293.94 282.168 
C 293.94 282.168 293.94 282.168 293.94 282.168 
C 293.94 282.168 293.94 282.168 293.94 282.168 
C 293.94 282.168 293.94 282.168 293.94 282.168 
C 293.94 282.168 293.94 282.168 293.94 282.168 
z
" style="fill: #ffffff"/>
   </g>
   <g id="patch_3">
    <path d="M 293.94 282.168 
C 293.94 282.168 293.94 282.168 293.94 282.168 
C 293.94 282.168 293.94 282.168 293.94 282.168 
L 293.94 282.168 
C 293.94 282.168 293.94 282.168 293.94 282.168 
C 293.94 282.168 293.94 282.168 293.94 282.168 
z
" clip-path="url(#pb31c3b76f4)" style="fill: #82c3ff; opacity: 0.139719"/>
   </g>
   <g id="patch_4">
    <path d="M 293.94 282.168 
C 293.94 282.168 293.94 282.168 293.94 282.168 
C 293.94 282.168 293.94 282.168 293.94 282.168 
L 293.94 282.168 
C 293.94 282.168 293.94 282.168 293.94 282.168 
C 293.94 282.168 293.94 282.168 293.94 282.168 
z
" clip-path="url(#pb31c3b76f4)" style="fill: #82c3ff; opacity: 0.139719"/>
   </g>
   <g id="patch_5">
    <path d="M 293.94 282.168 
C 293.94 282.168 293.94 282.168 293.94 282.168 
C 293.94 282.168 293.94 282.168 293.94 282.168 
L 293.94 157.378 
C 307.034789 157.378 320.048346 159.439145 332.502231 163.485657 
C 344.956116 167.53217 356.695814 173.513845 367.289722 181.210769 
z
" clip-path="url(#pb31c3b76f4)" style="fill: #82c3ff; opacity: 0.139719"/>
   </g>
   <g id="patch_6">
    <path d="M 293.94 282.168 
C 293.94 282.168 293.94 282.168 293.94 282.168 
C 293.94 282.168 293.94 282.168 293.94 282.168 
L 293.94 282.168 
C 293.94 282.168 293.94 282.168 293.94 282.168 
C 293.94 282.168 293.94 282.168 293.94 282.168 
z
" clip-path="url(#pb31c3b76f4)" style="fill: #82c3ff; opacity: 0.139719"/>
   </g>
   <g id="patch_7">
    <path d="M 293.94 282.168 
C 293.94 282.168 293.94 282.168 293.94 282.168 
C 293.94 282.168 293.94 282.168 293.94 282.168 
L 115.916486 224.324654 
C 121.986255 205.643827 130.958768 188.034278 142.504154 172.143418 
C 154.04954 156.252557 168.024557 142.27754 183.915418 130.732154 
z
" clip-path="url(#pb31c3b76f4)" style="fill: #82c3ff; opacity: 0.139719"/>
   </g>
   <g id="patch_8">
    <path d="M 293.94 282.168 
C 293.94 282.168 293.94 282.168 293.94 282.168 
C 293.94 282.168 293.94 282.168 293.94 282.168 
L 234.598829 301.449115 
C 232.575572 295.222173 231.545 288.715395 231.545 282.168 
C 231.545 275.620605 232.575572 269.113827 234.598829 262.886885 
z
" clip-path="url(#pb31c3b76f4)" style="fill: #82c3ff; opacity: 0.139719"/>
   </g>
   <g id="patch_9">
    <path d="M 293.94 282.168 
C 293.94 282.168 293.94 282.168 293.94 282.168 
C 293.94 282.168 293.94 282.168 293.94 282.168 
L 220.590278 383.125231 
C 209.996371 375.428307 200.679693 366.111629 192.982769 355.517722 
C 185.285845 344.923814 179.30417 333.184116 175.257657 320.730231 
z
" clip-path="url(#pb31c3b76f4)" style="fill: #82c3ff; opacity: 0.139719"/>
   </g>
   <g id="patch_10">
    <path d="M 293.94 282.168 
C 293.94 282.168 293.94 282.168 293.94 282.168 
C 293.94 282.168 293.94 282.168 293.94 282.168 
L 293.94 282.168 
C 293.94 282.168 293.94 282.168 293.94 282.168 
C 293.94 282.168 293.94 282.168 293.94 282.168 
z
" clip-path="url(#pb31c3b76f4)" style="fill: #82c3ff; opacity: 0.139719"/>
   </g>
   <g id="patch_11">
    <path d="M 293.94 282.168 
C 293.94 282.168 293.94 282.168 293.94 282.168 
C 293.94 282.168 293.94 282.168 293.94 282.168 
L 293.94 282.168 
C 293.94 282.168 293.94 282.168 293.94 282.168 
C 293.94 282.168 293.94 282.168 293.94 282.168 
z
" clip-path="url(#pb31c3b76f4)" style="fill: #82c3ff; opacity: 0.139719"/>
   </g>
   <g id="patch_12">
    <path d="M 293.94 282.168 
C 293.94 282.168 293.94 282.168 293.94 282.168 
C 293.94 282.168 293.94 282.168 293.94 282.168 
L 293.94 282.168 
C 293.94 282.168 293.94 282.168 293.94 282.168 
C 293.94 282.168 293.94 282.168 293.94 282.168 
z
" clip-path="url(#pb31c3b76f4)" style="fill: #82c3ff; opacity: 0.139719"/>
   </g>
   <g id="patch_13">
    <path d="M 293.94 282.168 
C 293.94 282.168 293.94 282.168 293.94 282.168 
C 293.94 282.168 293.94 282.168 293.94 282.168 
L 353.281171 262.886885 
C 355.304428 269.113827 356.335 275.620605 356.335 282.168 
C 356.335 288.715395 355.304428 295.222173 353.281171 301.449115 
z
" clip-path="url(#pb31c3b76f4)" style="fill: #82c3ff; opacity: 0.139719"/>
   </g>
   <g id="patch_14">
    <path d="M 293.94 282.168 
C 293.94 282.168 293.94 282.168 293.94 282.168 
C 293.94 282.168 293.94 282.168 293.94 282.168 
L 330.614861 231.689385 
C 335.911814 235.537847 340.570153 240.196186 344.418615 245.493139 
C 348.267077 250.790093 351.257915 256.659942 353.281171 262.886885 
z
" clip-path="url(#pb31c3b76f4)" style="fill: #82c3ff; opacity: 0.139719"/>
   </g>
   <g id="patch_15">
    <path d="M 293.94 282.168 
C 293.94 282.168 293.94 282.168 293.94 282.168 
C 293.94 282.168 293.94 282.168 293.94 282.168 
L 293.94 282.168 
C 293.94 282.168 293.94 282.168 293.94 282.168 
C 293.94 282.168 293.94 282.168 293.94 282.168 
z
" clip-path="url(#pb31c3b76f4)" style="fill: #82c3ff; opacity: 0.139719"/>
   </g>
   <g id="patch_16">
    <path d="M 293.94 282.168 
C 293.94 282.168 293.94 282.168 293.94 282.168 
C 293.94 282.168 293.94 282.168 293.94 282.168 
L 293.94 282.168 
C 293.94 282.168 293.94 282.168 293.94 282.168 
C 293.94 282.168 293.94 282.168 293.94 282.168 
z
" clip-path="url(#pb31c3b76f4)" style="fill: #82c3ff; opacity: 0.139719"/>
   </g>
   <g id="patch_17">
    <path d="M 293.94 282.168 
C 293.94 282.168 293.94 282.168 293.94 282.168 
C 293.94 282.168 293.94 282.168 293.94 282.168 
L 234.598829 262.886885 
C 236.622085 256.659942 239.612923 250.790093 243.461385 245.493139 
C 247.309847 240.196186 251.968186 235.537847 257.265139 231.689385 
z
" clip-path="url(#pb31c3b76f4)" style="fill: #82c3ff; opacity: 0.139719"/>
   </g>
   <g id="patch_18">
    <path d="M 293.94 282.168 
C 293.94 282.168 293.94 282.168 293.94 282.168 
C 293.94 282.168 293.94 282.168 293.94 282.168 
L 293.94 282.168 
C 293.94 282.168 293.94 282.168 293.94 282.168 
C 293.94 282.168 293.94 282.168 293.94 282.168 
z
" clip-path="url(#pb31c3b76f4)" style="fill: #82c3ff; opacity: 0.139719"/>
   </g>
   <g id="patch_19">
    <path d="M 293.94 282.168 
C 293.94 282.168 293.94 282.168 293.94 282.168 
C 293.94 282.168 293.94 282.168 293.94 282.168 
L 257.265139 332.646615 
C 251.968186 328.798153 247.309847 324.139814 243.461385 318.842861 
C 239.612923 313.545907 236.622085 307.676058 234.598829 301.449115 
z
" clip-path="url(#pb31c3b76f4)" style="fill: #82c3ff; opacity: 0.139719"/>
   </g>
   <g id="patch_20">
    <path d="M 293.94 282.168 
C 293.94 282.168 293.94 282.168 293.94 282.168 
C 293.94 282.168 293.94 282.168 293.94 282.168 
L 293.94 282.168 
C 293.94 282.168 293.94 282.168 293.94 282.168 
C 293.94 282.168 293.94 282.168 293.94 282.168 
z
" clip-path="url(#pb31c3b76f4)" style="fill: #82c3ff; opacity: 0.139719"/>
   </g>
   <g id="patch_21">
    <path d="M 293.94 282.168 
C 293.94 282.168 293.94 282.168 293.94 282.168 
C 293.94 282.168 293.94 282.168 293.94 282.168 
L 293.94 282.168 
C 293.94 282.168 293.94 282.168 293.94 282.168 
C 293.94 282.168 293.94 282.168 293.94 282.168 
z
" clip-path="url(#pb31c3b76f4)" style="fill: #82c3ff; opacity: 0.139719"/>
   </g>
   <g id="patch_22">
    <path d="M 293.94 282.168 
C 293.94 282.168 293.94 282.168 293.94 282.168 
C 293.94 282.168 293.94 282.168 293.94 282.168 
L 293.94 282.168 
C 293.94 282.168 293.94 282.168 293.94 282.168 
C 293.94 282.168 293.94 282.168 293.94 282.168 
z
" clip-path="url(#pb31c3b76f4)" style="fill: #82c3ff; opacity: 0.139719"/>
   </g>
   <g id="patch_23">
    <path d="M 293.94 282.168 
C 293.94 282.168 293.94 282.168 293.94 282.168 
C 293.94 282.168 293.94 282.168 293.94 282.168 
L 412.622343 243.605769 
C 416.668855 256.059654 418.73 269.073211 418.73 282.168 
C 418.73 295.262789 416.668855 308.276346 412.622343 320.730231 
z
" clip-path="url(#pb31c3b76f4)" style="fill: #82c3ff; opacity: 0.139719"/>
   </g>
   <g id="patch_24">
    <path d="M 293.94 282.168 
C 293.94 282.168 293.94 282.168 293.94 282.168 
C 293.94 282.168 293.94 282.168 293.94 282.168 
L 330.614861 231.689385 
C 335.911814 235.537847 340.570153 240.196186 344.418615 245.493139 
C 348.267077 250.790093 351.257915 256.659942 353.281171 262.886885 
z
" clip-path="url(#pb31c3b76f4)" style="fill: #82c3ff; opacity: 0.139719"/>
   </g>
   <g id="patch_25">
    <path d="M 293.94 282.168 
C 293.94 282.168 293.94 282.168 293.94 282.168 
C 293.94 282.168 293.94 282.168 293.94 282.168 
L 293.94 157.378 
C 307.034789 157.378 320.048346 159.439145 332.502231 163.485657 
C 344.956116 167.53217 356.695814 173.513845 367.289722 181.210769 
z
" clip-path="url(#pb31c3b76f4)" style="fill: #82c3ff; opacity: 0.139719"/>
   </g>
   <g id="patch_26">
    <path d="M 293.94 282.168 
C 293.94 282.168 293.94 282.168 293.94 282.168 
C 293.94 282.168 293.94 282.168 293.94 282.168 
L 257.265139 231.689385 
C 262.562093 227.840923 268.431942 224.850085 274.658885 222.826829 
C 280.885827 220.803572 287.392605 219.773 293.94 219.773 
z
" clip-path="url(#pb31c3b76f4)" style="fill: #82c3ff; opacity: 0.139719"/>
   </g>
   <g id="patch_27">
    <path d="M 293.94 282.168 
C 293.94 282.168 293.94 282.168 293.94 282.168 
C 293.94 282.168 293.94 282.168 293.94 282.168 
L 175.257657 243.605769 
C 179.30417 231.151884 185.285845 219.412186 192.982769 208.818278 
C 200.679693 198.224371 209.996371 188.907693 220.590278 181.210769 
z
" clip-path="url(#pb31c3b76f4)" style="fill: #82c3ff; opacity: 0.139719"/>
   </g>
   <g id="patch_28">
    <path d="M 293.94 282.168 
C 293.94 282.168 293.94 282.168 293.94 282.168 
C 293.94 282.168 293.94 282.168 293.94 282.168 
L 293.94 282.168 
C 293.94 282.168 293.94 282.168 293.94 282.168 
C 293.94 282.168 293.94 282.168 293.94 282.168 
z
" clip-path="url(#pb31c3b76f4)" style="fill: #82c3ff; opacity: 0.139719"/>
   </g>
   <g id="patch_29">
    <path d="M 293.94 282.168 
C 293.94 282.168 293.94 282.168 293.94 282.168 
C 293.94 282.168 293.94 282.168 293.94 282.168 
L 220.590278 383.125231 
C 209.996371 375.428307 200.679693 366.111629 192.982769 355.517722 
C 185.285845 344.923814 179.30417 333.184116 175.257657 320.730231 
z
" clip-path="url(#pb31c3b76f4)" style="fill: #82c3ff; opacity: 0.139719"/>
   </g>
   <g id="patch_30">
    <path d="M 293.94 282.168 
C 293.94 282.168 293.94 282.168 293.94 282.168 
C 293.94 282.168 293.94 282.168 293.94 282.168 
L 293.94 344.563 
C 287.392605 344.563 280.885827 343.532428 274.658885 341.509171 
C 268.431942 339.485915 262.562093 336.495077 257.265139 332.646615 
z
" clip-path="url(#pb31c3b76f4)" style="fill: #82c3ff; opacity: 0.139719"/>
   </g>
   <g id="patch_31">
    <path d="M 293.94 282.168 
C 293.94 282.168 293.94 282.168 293.94 282.168 
C 293.94 282.168 293.94 282.168 293.94 282.168 
L 293.94 282.168 
C 293.94 282.168 293.94 282.168 293.94 282.168 
C 293.94 282.168 293.94 282.168 293.94 282.168 
z
" clip-path="url(#pb31c3b76f4)" style="fill: #82c3ff; opacity: 0.139719"/>
   </g>
   <g id="patch_32">
    <path d="M 293.94 282.168 
C 293.94 282.168 293.94 282.168 293.94 282.168 
C 293.94 282.168 293.94 282.168 293.94 282.168 
L 293.94 282.168 
C 293.94 282.168 293.94 282.168 293.94 282.168 
C 293.94 282.168 293.94 282.168 293.94 282.168 
z
" clip-path="url(#pb31c3b76f4)" style="fill: #82c3ff; opacity: 0.139719"/>
   </g>
   <g id="patch_33">
    <path d="M 293.94 282.168 
C 293.94 282.168 293.94 282.168 293.94 282.168 
C 293.94 282.168 293.94 282.168 293.94 282.168 
L 412.622343 243.605769 
C 416.668855 256.059654 418.73 269.073211 418.73 282.168 
C 418.73 295.262789 416.668855 308.276346 412.622343 320.730231 
z
" clip-path="url(#pb31c3b76f4)" style="fill: #82c3ff; opacity: 0.139719"/>
   </g>
   <g id="patch_34">
    <path d="M 293.94 282.168 
C 293.94 282.168 293.94 282.168 293.94 282.168 
C 293.94 282.168 293.94 282.168 293.94 282.168 
L 330.614861 231.689385 
C 335.911814 235.537847 340.570153 240.196186 344.418615 245.493139 
C 348.267077 250.790093 351.257915 256.659942 353.281171 262.886885 
z
" clip-path="url(#pb31c3b76f4)" style="fill: #82c3ff; opacity: 0.139719"/>
   </g>
   <g id="patch_35">
    <path d="M 293.94 282.168 
C 293.94 282.168 293.94 282.168 293.94 282.168 
C 293.94 282.168 293.94 282.168 293.94 282.168 
L 293.94 157.378 
C 307.034789 157.378 320.048346 159.439145 332.502231 163.485657 
C 344.956116 167.53217 356.695814 173.513845 367.289722 181.210769 
z
" clip-path="url(#pb31c3b76f4)" style="fill: #82c3ff; opacity: 0.139719"/>
   </g>
   <g id="patch_36">
    <path d="M 293.94 282.168 
C 293.94 282.168 293.94 282.168 293.94 282.168 
C 293.94 282.168 293.94 282.168 293.94 282.168 
L 293.94 282.168 
C 293.94 282.168 293.94 282.168 293.94 282.168 
C 293.94 282.168 293.94 282.168 293.94 282.168 
z
" clip-path="url(#pb31c3b76f4)" style="fill: #82c3ff; opacity: 0.139719"/>
   </g>
   <g id="patch_37">
    <path d="M 293.94 282.168 
C 293.94 282.168 293.94 282.168 293.94 282.168 
C 293.94 282.168 293.94 282.168 293.94 282.168 
L 115.916486 224.324654 
C 121.986255 205.643827 130.958768 188.034278 142.504154 172.143418 
C 154.04954 156.252557 168.024557 142.27754 183.915418 130.732154 
z
" clip-path="url(#pb31c3b76f4)" style="fill: #82c3ff; opacity: 0.139719"/>
   </g>
   <g id="patch_38">
    <path d="M 293.94 282.168 
C 293.94 282.168 293.94 282.168 293.94 282.168 
C 293.94 282.168 293.94 282.168 293.94 282.168 
L 293.94 282.168 
C 293.94 282.168 293.94 282.168 293.94 282.168 
C 293.94 282.168 293.94 282.168 293.94 282.168 
z
" clip-path="url(#pb31c3b76f4)" style="fill: #82c3ff; opacity: 0.139719"/>
   </g>
   <g id="patch_39">
    <path d="M 293.94 282.168 
C 293.94 282.168 293.94 282.168 293.94 282.168 
C 293.94 282.168 293.94 282.168 293.94 282.168 
L 220.590278 383.125231 
C 209.996371 375.428307 200.679693 366.111629 192.982769 355.517722 
C 185.285845 344.923814 179.30417 333.184116 175.257657 320.730231 
z
" clip-path="url(#pb31c3b76f4)" style="fill: #82c3ff; opacity: 0.139719"/>
   </g>
   <g id="patch_40">
    <path d="M 293.94 282.168 
C 293.94 282.168 293.94 282.168 293.94 282.168 
C 293.94 282.168 293.94 282.168 293.94 282.168 
L 293.94 344.563 
C 287.392605 344.563 280.885827 343.532428 274.658885 341.509171 
C 268.431942 339.485915 262.562093 336.495077 257.265139 332.646615 
z
" clip-path="url(#pb31c3b76f4)" style="fill: #82c3ff; opacity: 0.139719"/>
   </g>
   <g id="patch_41">
    <path d="M 293.94 282.168 
C 293.94 282.168 293.94 282.168 293.94 282.168 
C 293.94 282.168 293.94 282.168 293.94 282.168 
L 293.94 282.168 
C 293.94 282.168 293.94 282.168 293.94 282.168 
C 293.94 282.168 293.94 282.168 293.94 282.168 
z
" clip-path="url(#pb31c3b76f4)" style="fill: #82c3ff; opacity: 0.139719"/>
   </g>
   <g id="patch_42">
    <path d="M 293.94 282.168 
C 293.94 282.168 293.94 282.168 293.94 282.168 
C 293.94 282.168 293.94 282.168 293.94 282.168 
L 293.94 282.168 
C 293.94 282.168 293.94 282.168 293.94 282.168 
C 293.94 282.168 293.94 282.168 293.94 282.168 
z
" clip-path="url(#pb31c3b76f4)" style="fill: #82c3ff; opacity: 0.139719"/>
   </g>
   <g id="patch_43">
    <path d="M 293.94 282.168 
C 293.94 282.168 293.94 282.168 293.94 282.168 
C 293.94 282.168 293.94 282.168 293.94 282.168 
L 412.622343 243.605769 
C 416.668855 256.059654 418.73 269.073211 418.73 282.168 
C 418.73 295.262789 416.668855 308.276346 412.622343 320.730231 
z
" clip-path="url(#pb31c3b76f4)" style="fill: #82c3ff; opacity: 0.139719"/>
   </g>
   <g id="patch_44">
    <path d="M 293.94 282.168 
C 293.94 282.168 293.94 282.168 293.94 282.168 
C 293.94 282.168 293.94 282.168 293.94 282.168 
L 330.614861 231.689385 
C 335.911814 235.537847 340.570153 240.196186 344.418615 245.493139 
C 348.267077 250.790093 351.257915 256.659942 353.281171 262.886885 
z
" clip-path="url(#pb31c3b76f4)" style="fill: #82c3ff; opacity: 0.139719"/>
   </g>
   <g id="patch_45">
    <path d="M 293.94 282.168 
C 293.94 282.168 293.94 282.168 293.94 282.168 
C 293.94 282.168 293.94 282.168 293.94 282.168 
L 293.94 157.378 
C 307.034789 157.378 320.048346 159.439145 332.502231 163.485657 
C 344.956116 167.53217 356.695814 173.513845 367.289722 181.210769 
z
" clip-path="url(#pb31c3b76f4)" style="fill: #82c3ff; opacity: 0.139719"/>
   </g>
   <g id="patch_46">
    <path d="M 293.94 282.168 
C 293.94 282.168 293.94 282.168 293.94 282.168 
C 293.94 282.168 293.94 282.168 293.94 282.168 
L 220.590278 181.210769 
C 231.184186 173.513845 242.923884 167.53217 255.377769 163.485657 
C 267.831654 159.439145 280.845211 157.378 293.94 157.378 
z
" clip-path="url(#pb31c3b76f4)" style="fill: #82c3ff; opacity: 0.139719"/>
   </g>
   <g id="patch_47">
    <path d="M 293.94 282.168 
C 293.94 282.168 293.94 282.168 293.94 282.168 
C 293.94 282.168 293.94 282.168 293.94 282.168 
L 175.257657 243.605769 
C 179.30417 231.151884 185.285845 219.412186 192.982769 208.818278 
C 200.679693 198.224371 209.996371 188.907693 220.590278 181.210769 
z
" clip-path="url(#pb31c3b76f4)" style="fill: #82c3ff; opacity: 0.139719"/>
   </g>
   <g id="patch_48">
    <path d="M 293.94 282.168 
C 293.94 282.168 293.94 282.168 293.94 282.168 
C 293.94 282.168 293.94 282.168 293.94 282.168 
L 234.598829 301.449115 
C 232.575572 295.222173 231.545 288.715395 231.545 282.168 
C 231.545 275.620605 232.575572 269.113827 234.598829 262.886885 
z
" clip-path="url(#pb31c3b76f4)" style="fill: #82c3ff; opacity: 0.139719"/>
   </g>
   <g id="patch_49">
    <path d="M 293.94 282.168 
C 293.94 282.168 293.94 282.168 293.94 282.168 
C 293.94 282.168 293.94 282.168 293.94 282.168 
L 220.590278 383.125231 
C 209.996371 375.428307 200.679693 366.111629 192.982769 355.517722 
C 185.285845 344.923814 179.30417 333.184116 175.257657 320.730231 
z
" clip-path="url(#pb31c3b76f4)" style="fill: #82c3ff; opacity: 0.139719"/>
   </g>
   <g id="patch_50">
    <path d="M 293.94 282.168 
C 293.94 282.168 293.94 282.168 293.94 282.168 
C 293.94 282.168 293.94 282.168 293.94 282.168 
L 293.94 406.958 
C 280.845211 406.958 267.831654 404.896855 255.377769 400.850343 
C 242.923884 396.80383 231.184186 390.822155 220.590278 383.125231 
z
" clip-path="url(#pb31c3b76f4)" style="fill: #82c3ff; opacity: 0.139719"/>
   </g>
   <g id="patch_51">
    <path d="M 293.94 282.168 
C 293.94 282.168 293.94 282.168 293.94 282.168 
C 293.94 282.168 293.94 282.168 293.94 282.168 
L 293.94 282.168 
C 293.94 282.168 293.94 282.168 293.94 282.168 
C 293.94 282.168 293.94 282.168 293.94 282.168 
z
" clip-path="url(#pb31c3b76f4)" style="fill: #82c3ff; opacity: 0.139719"/>
   </g>
   <g id="patch_52">
    <path d="M 293.94 282.168 
C 293.94 282.168 293.94 282.168 293.94 282.168 
C 293.94 282.168 293.94 282.168 293.94 282.168 
L 353.281171 301.449115 
C 351.257915 307.676058 348.267077 313.545907 344.418615 318.842861 
C 340.570153 324.139814 335.911814 328.798153 330.614861 332.646615 
z
" clip-path="url(#pb31c3b76f4)" style="fill: #82c3ff; opacity: 0.139719"/>
   </g>
   <g id="patch_53">
    <path d="M 293.94 282.168 
C 293.94 282.168 293.94 282.168 293.94 282.168 
C 293.94 282.168 293.94 282.168 293.94 282.168 
L 412.622343 243.605769 
C 416.668855 256.059654 418.73 269.073211 418.73 282.168 
C 418.73 295.262789 416.668855 308.276346 412.622343 320.730231 
z
" clip-path="url(#pb31c3b76f4)" style="fill: #82c3ff; opacity: 0.139719"/>
   </g>
   <g id="patch_54">
    <path d="M 293.94 282.168 
C 293.94 282.168 293.94 282.168 293.94 282.168 
C 293.94 282.168 293.94 282.168 293.94 282.168 
L 293.94 282.168 
C 293.94 282.168 293.94 282.168 293.94 282.168 
C 293.94 282.168 293.94 282.168 293.94 282.168 
z
" clip-path="url(#pb31c3b76f4)" style="fill: #82c3ff; opacity: 0.139719"/>
   </g>
   <g id="patch_55">
    <path d="M 293.94 282.168 
C 293.94 282.168 293.94 282.168 293.94 282.168 
C 293.94 282.168 293.94 282.168 293.94 282.168 
L 293.94 157.378 
C 307.034789 157.378 320.048346 159.439145 332.502231 163.485657 
C 344.956116 167.53217 356.695814 173.513845 367.289722 181.210769 
z
" clip-path="url(#pb31c3b76f4)" style="fill: #82c3ff; opacity: 0.139719"/>
   </g>
   <g id="patch_56">
    <path d="M 293.94 282.168 
C 293.94 282.168 293.94 282.168 293.94 282.168 
C 293.94 282.168 293.94 282.168 293.94 282.168 
L 220.590278 181.210769 
C 231.184186 173.513845 242.923884 167.53217 255.377769 163.485657 
C 267.831654 159.439145 280.845211 157.378 293.94 157.378 
z
" clip-path="url(#pb31c3b76f4)" style="fill: #82c3ff; opacity: 0.139719"/>
   </g>
   <g id="patch_57">
    <path d="M 293.94 282.168 
C 293.94 282.168 293.94 282.168 293.94 282.168 
C 293.94 282.168 293.94 282.168 293.94 282.168 
L 115.916486 224.324654 
C 121.986255 205.643827 130.958768 188.034278 142.504154 172.143418 
C 154.04954 156.252557 168.024557 142.27754 183.915418 130.732154 
z
" clip-path="url(#pb31c3b76f4)" style="fill: #82c3ff; opacity: 0.139719"/>
   </g>
   <g id="patch_58">
    <path d="M 293.94 282.168 
C 293.94 282.168 293.94 282.168 293.94 282.168 
C 293.94 282.168 293.94 282.168 293.94 282.168 
L 293.94 282.168 
C 293.94 282.168 293.94 282.168 293.94 282.168 
C 293.94 282.168 293.94 282.168 293.94 282.168 
z
" clip-path="url(#pb31c3b76f4)" style="fill: #82c3ff; opacity: 0.139719"/>
   </g>
   <g id="patch_59">
    <path d="M 293.94 282.168 
C 293.94 282.168 293.94 282.168 293.94 282.168 
C 293.94 282.168 293.94 282.168 293.94 282.168 
L 220.590278 383.125231 
C 209.996371 375.428307 200.679693 366.111629 192.982769 355.517722 
C 185.285845 344.923814 179.30417 333.184116 175.257657 320.730231 
z
" clip-path="url(#pb31c3b76f4)" style="fill: #82c3ff; opacity: 0.139719"/>
   </g>
   <g id="patch_60">
    <path d="M 293.94 282.168 
C 293.94 282.168 293.94 282.168 293.94 282.168 
C 293.94 282.168 293.94 282.168 293.94 282.168 
L 293.94 406.958 
C 280.845211 406.958 267.831654 404.896855 255.377769 400.850343 
C 242.923884 396.80383 231.184186 390.822155 220.590278 383.125231 
z
" clip-path="url(#pb31c3b76f4)" style="fill: #82c3ff; opacity: 0.139719"/>
   </g>
   <g id="patch_61">
    <path d="M 293.94 282.168 
C 293.94 282.168 293.94 282.168 293.94 282.168 
C 293.94 282.168 293.94 282.168 293.94 282.168 
L 293.94 282.168 
C 293.94 282.168 293.94 282.168 293.94 282.168 
C 293.94 282.168 293.94 282.168 293.94 282.168 
z
" clip-path="url(#pb31c3b76f4)" style="fill: #82c3ff; opacity: 0.139719"/>
   </g>
   <g id="patch_62">
    <path d="M 293.94 282.168 
C 293.94 282.168 293.94 282.168 293.94 282.168 
C 293.94 282.168 293.94 282.168 293.94 282.168 
L 293.94 282.168 
C 293.94 282.168 293.94 282.168 293.94 282.168 
C 293.94 282.168 293.94 282.168 293.94 282.168 
z
" clip-path="url(#pb31c3b76f4)" style="fill: #82c3ff; opacity: 0.139719"/>
   </g>
   <g id="patch_63">
    <path d="M 293.94 282.168 
C 293.94 282.168 293.94 282.168 293.94 282.168 
C 293.94 282.168 293.94 282.168 293.94 282.168 
L 412.622343 243.605769 
C 416.668855 256.059654 418.73 269.073211 418.73 282.168 
C 418.73 295.262789 416.668855 308.276346 412.622343 320.730231 
z
" clip-path="url(#pb31c3b76f4)" style="fill: #82c3ff; opacity: 0.139719"/>
   </g>
   <g id="patch_64">
    <path d="M 293.94 282.168 
C 293.94 282.168 293.94 282.168 293.94 282.168 
C 293.94 282.168 293.94 282.168 293.94 282.168 
L 293.94 282.168 
C 293.94 282.168 293.94 282.168 293.94 282.168 
C 293.94 282.168 293.94 282.168 293.94 282.168 
z
" clip-path="url(#pb31c3b76f4)" style="fill: #82c3ff; opacity: 0.139719"/>
   </g>
   <g id="patch_65">
    <path d="M 293.94 282.168 
C 293.94 282.168 293.94 282.168 293.94 282.168 
C 293.94 282.168 293.94 282.168 293.94 282.168 
L 293.94 157.378 
C 307.034789 157.378 320.048346 159.439145 332.502231 163.485657 
C 344.956116 167.53217 356.695814 173.513845 367.289722 181.210769 
z
" clip-path="url(#pb31c3b76f4)" style="fill: #82c3ff; opacity: 0.139719"/>
   </g>
   <g id="patch_66">
    <path d="M 293.94 282.168 
C 293.94 282.168 293.94 282.168 293.94 282.168 
C 293.94 282.168 293.94 282.168 293.94 282.168 
L 257.265139 231.689385 
C 262.562093 227.840923 268.431942 224.850085 274.658885 222.826829 
C 280.885827 220.803572 287.392605 219.773 293.94 219.773 
z
" clip-path="url(#pb31c3b76f4)" style="fill: #82c3ff; opacity: 0.139719"/>
   </g>
   <g id="patch_67">
    <path d="M 293.94 282.168 
C 293.94 282.168 293.94 282.168 293.94 282.168 
C 293.94 282.168 293.94 282.168 293.94 282.168 
L 175.257657 243.605769 
C 179.30417 231.151884 185.285845 219.412186 192.982769 208.818278 
C 200.679693 198.224371 209.996371 188.907693 220.590278 181.210769 
z
" clip-path="url(#pb31c3b76f4)" style="fill: #82c3ff; opacity: 0.139719"/>
   </g>
   <g id="patch_68">
    <path d="M 293.94 282.168 
C 293.94 282.168 293.94 282.168 293.94 282.168 
C 293.94 282.168 293.94 282.168 293.94 282.168 
L 293.94 282.168 
C 293.94 282.168 293.94 282.168 293.94 282.168 
C 293.94 282.168 293.94 282.168 293.94 282.168 
z
" clip-path="url(#pb31c3b76f4)" style="fill: #82c3ff; opacity: 0.139719"/>
   </g>
   <g id="patch_69">
    <path d="M 293.94 282.168 
C 293.94 282.168 293.94 282.168 293.94 282.168 
C 293.94 282.168 293.94 282.168 293.94 282.168 
L 220.590278 383.125231 
C 209.996371 375.428307 200.679693 366.111629 192.982769 355.517722 
C 185.285845 344.923814 179.30417 333.184116 175.257657 320.730231 
z
" clip-path="url(#pb31c3b76f4)" style="fill: #82c3ff; opacity: 0.139719"/>
   </g>
   <g id="patch_70">
    <path d="M 293.94 282.168 
C 293.94 282.168 293.94 282.168 293.94 282.168 
C 293.94 282.168 293.94 282.168 293.94 282.168 
L 293.94 344.563 
C 287.392605 344.563 280.885827 343.532428 274.658885 341.509171 
C 268.431942 339.485915 262.562093 336.495077 257.265139 332.646615 
z
" clip-path="url(#pb31c3b76f4)" style="fill: #82c3ff; opacity: 0.139719"/>
   </g>
   <g id="patch_71">
    <path d="M 293.94 282.168 
C 293.94 282.168 293.94 282.168 293.94 282.168 
C 293.94 282.168 293.94 282.168 293.94 282.168 
L 293.94 282.168 
C 293.94 282.168 293.94 282.168 293.94 282.168 
C 293.94 282.168 293.94 282.168 293.94 282.168 
z
" clip-path="url(#pb31c3b76f4)" style="fill: #82c3ff; opacity: 0.139719"/>
   </g>
   <g id="patch_72">
    <path d="M 293.94 282.168 
C 293.94 282.168 293.94 282.168 293.94 282.168 
C 293.94 282.168 293.94 282.168 293.94 282.168 
L 293.94 282.168 
C 293.94 282.168 293.94 282.168 293.94 282.168 
C 293.94 282.168 293.94 282.168 293.94 282.168 
z
" clip-path="url(#pb31c3b76f4)" style="fill: #82c3ff; opacity: 0.139719"/>
   </g>
   <g id="matplotlib.axis_1">
    <g id="xtick_1">
     <g id="text_1">
      <!-- Connectivity -->
      <g style="fill: #262626" transform="translate(506.668906 279.088344) scale(0.11 -0.11)">
       <defs>
        <path id="LiberationSans-43" d="M 2475 3981 
Q 1744 3981 1337 3511 
Q 931 3041 931 2222 
Q 931 1413 1354 920 
Q 1778 428 2500 428 
Q 3425 428 3891 1344 
L 4378 1100 
Q 4106 531 3614 234 
Q 3122 -63 2472 -63 
Q 1806 -63 1320 214 
Q 834 491 579 1005 
Q 325 1519 325 2222 
Q 325 3275 894 3872 
Q 1463 4469 2469 4469 
Q 3172 4469 3644 4194 
Q 4116 3919 4338 3378 
L 3772 3191 
Q 3619 3575 3280 3778 
Q 2941 3981 2475 3981 
z
" transform="scale(0.015625)"/>
        <path id="LiberationSans-6f" d="M 3291 1694 
Q 3291 806 2900 371 
Q 2509 -63 1766 -63 
Q 1025 -63 647 389 
Q 269 841 269 1694 
Q 269 3444 1784 3444 
Q 2559 3444 2925 3017 
Q 3291 2591 3291 1694 
z
M 2700 1694 
Q 2700 2394 2492 2711 
Q 2284 3028 1794 3028 
Q 1300 3028 1079 2704 
Q 859 2381 859 1694 
Q 859 1025 1076 689 
Q 1294 353 1759 353 
Q 2266 353 2483 678 
Q 2700 1003 2700 1694 
z
" transform="scale(0.015625)"/>
        <path id="LiberationSans-6e" d="M 2578 0 
L 2578 2144 
Q 2578 2478 2512 2662 
Q 2447 2847 2303 2928 
Q 2159 3009 1881 3009 
Q 1475 3009 1240 2731 
Q 1006 2453 1006 1959 
L 1006 0 
L 444 0 
L 444 2659 
Q 444 3250 425 3381 
L 956 3381 
Q 959 3366 962 3297 
Q 966 3228 970 3139 
Q 975 3050 981 2803 
L 991 2803 
Q 1184 3153 1439 3298 
Q 1694 3444 2072 3444 
Q 2628 3444 2886 3167 
Q 3144 2891 3144 2253 
L 3144 0 
L 2578 0 
z
" transform="scale(0.015625)"/>
        <path id="LiberationSans-65" d="M 863 1572 
Q 863 991 1103 675 
Q 1344 359 1806 359 
Q 2172 359 2392 506 
Q 2613 653 2691 878 
L 3184 738 
Q 2881 -63 1806 -63 
Q 1056 -63 664 384 
Q 272 831 272 1713 
Q 272 2550 664 2997 
Q 1056 3444 1784 3444 
Q 3275 3444 3275 1647 
L 3275 1572 
L 863 1572 
z
M 2694 2003 
Q 2647 2538 2422 2783 
Q 2197 3028 1775 3028 
Q 1366 3028 1127 2754 
Q 888 2481 869 2003 
L 2694 2003 
z
" transform="scale(0.015625)"/>
        <path id="LiberationSans-63" d="M 859 1706 
Q 859 1031 1071 706 
Q 1284 381 1713 381 
Q 2013 381 2214 543 
Q 2416 706 2463 1044 
L 3031 1006 
Q 2966 519 2616 228 
Q 2266 -63 1728 -63 
Q 1019 -63 645 385 
Q 272 834 272 1694 
Q 272 2547 647 2995 
Q 1022 3444 1722 3444 
Q 2241 3444 2583 3175 
Q 2925 2906 3013 2434 
L 2434 2391 
Q 2391 2672 2212 2837 
Q 2034 3003 1706 3003 
Q 1259 3003 1059 2706 
Q 859 2409 859 1706 
z
" transform="scale(0.015625)"/>
        <path id="LiberationSans-74" d="M 1731 25 
Q 1453 -50 1163 -50 
Q 488 -50 488 716 
L 488 2972 
L 97 2972 
L 97 3381 
L 509 3381 
L 675 4138 
L 1050 4138 
L 1050 3381 
L 1675 3381 
L 1675 2972 
L 1050 2972 
L 1050 838 
Q 1050 594 1129 495 
Q 1209 397 1406 397 
Q 1519 397 1731 441 
L 1731 25 
z
" transform="scale(0.015625)"/>
        <path id="LiberationSans-69" d="M 428 4100 
L 428 4638 
L 991 4638 
L 991 4100 
L 428 4100 
z
M 428 0 
L 428 3381 
L 991 3381 
L 991 0 
L 428 0 
z
" transform="scale(0.015625)"/>
        <path id="LiberationSans-76" d="M 1916 0 
L 1250 0 
L 22 3381 
L 622 3381 
L 1366 1181 
Q 1406 1056 1581 441 
L 1691 806 
L 1813 1175 
L 2581 3381 
L 3178 3381 
L 1916 0 
z
" transform="scale(0.015625)"/>
        <path id="LiberationSans-79" d="M 597 -1328 
Q 366 -1328 209 -1294 
L 209 -872 
Q 328 -891 472 -891 
Q 997 -891 1303 -119 
L 1356 16 
L 16 3381 
L 616 3381 
L 1328 1513 
Q 1344 1469 1366 1408 
Q 1388 1347 1506 1000 
Q 1625 653 1634 613 
L 1853 1228 
L 2594 3381 
L 3188 3381 
L 1888 0 
Q 1678 -541 1497 -805 
Q 1316 -1069 1095 -1198 
Q 875 -1328 597 -1328 
z
" transform="scale(0.015625)"/>
       </defs>
       <use xlink:href="#LiberationSans-43"/>
       <use xlink:href="#LiberationSans-6f" x="72.216797"/>
       <use xlink:href="#LiberationSans-6e" x="127.832031"/>
       <use xlink:href="#LiberationSans-6e" x="183.447266"/>
       <use xlink:href="#LiberationSans-65" x="239.0625"/>
       <use xlink:href="#LiberationSans-63" x="294.677734"/>
       <use xlink:href="#LiberationSans-74" x="344.677734"/>
       <use xlink:href="#LiberationSans-69" x="372.460938"/>
       <use xlink:href="#LiberationSans-76" x="394.677734"/>
       <use xlink:href="#LiberationSans-69" x="444.677734"/>
       <use xlink:href="#LiberationSans-74" x="466.894531"/>
       <use xlink:href="#LiberationSans-79" x="494.677734"/>
      </g>
      <!-- accuracy -->
      <g style="fill: #262626" transform="translate(514.618125 290.936719) scale(0.11 -0.11)">
       <defs>
        <path id="LiberationSans-61" d="M 1294 -63 
Q 784 -63 528 206 
Q 272 475 272 944 
Q 272 1469 617 1750 
Q 963 2031 1731 2050 
L 2491 2063 
L 2491 2247 
Q 2491 2659 2316 2837 
Q 2141 3016 1766 3016 
Q 1388 3016 1216 2887 
Q 1044 2759 1009 2478 
L 422 2531 
Q 566 3444 1778 3444 
Q 2416 3444 2737 3151 
Q 3059 2859 3059 2306 
L 3059 850 
Q 3059 600 3125 473 
Q 3191 347 3375 347 
Q 3456 347 3559 369 
L 3559 19 
Q 3347 -31 3125 -31 
Q 2813 -31 2670 133 
Q 2528 297 2509 647 
L 2491 647 
Q 2275 259 1989 98 
Q 1703 -63 1294 -63 
z
M 1422 359 
Q 1731 359 1972 500 
Q 2213 641 2352 886 
Q 2491 1131 2491 1391 
L 2491 1669 
L 1875 1656 
Q 1478 1650 1273 1575 
Q 1069 1500 959 1344 
Q 850 1188 850 934 
Q 850 659 998 509 
Q 1147 359 1422 359 
z
" transform="scale(0.015625)"/>
        <path id="LiberationSans-75" d="M 981 3381 
L 981 1238 
Q 981 903 1047 718 
Q 1113 534 1256 453 
Q 1400 372 1678 372 
Q 2084 372 2318 650 
Q 2553 928 2553 1422 
L 2553 3381 
L 3116 3381 
L 3116 722 
Q 3116 131 3134 0 
L 2603 0 
Q 2600 16 2597 84 
Q 2594 153 2589 242 
Q 2584 331 2578 578 
L 2569 578 
Q 2375 228 2120 82 
Q 1866 -63 1488 -63 
Q 931 -63 673 214 
Q 416 491 416 1128 
L 416 3381 
L 981 3381 
z
" transform="scale(0.015625)"/>
        <path id="LiberationSans-72" d="M 444 0 
L 444 2594 
Q 444 2950 425 3381 
L 956 3381 
Q 981 2806 981 2691 
L 994 2691 
Q 1128 3125 1303 3284 
Q 1478 3444 1797 3444 
Q 1909 3444 2025 3413 
L 2025 2897 
Q 1913 2928 1725 2928 
Q 1375 2928 1190 2626 
Q 1006 2325 1006 1763 
L 1006 0 
L 444 0 
z
" transform="scale(0.015625)"/>
       </defs>
       <use xlink:href="#LiberationSans-61"/>
       <use xlink:href="#LiberationSans-63" x="55.615234"/>
       <use xlink:href="#LiberationSans-63" x="105.615234"/>
       <use xlink:href="#LiberationSans-75" x="155.615234"/>
       <use xlink:href="#LiberationSans-72" x="211.230469"/>
       <use xlink:href="#LiberationSans-61" x="244.53125"/>
       <use xlink:href="#LiberationSans-63" x="300.146484"/>
       <use xlink:href="#LiberationSans-79" x="350.146484"/>
      </g>
     </g>
    </g>
    <g id="xtick_2">
     <g id="text_2">
      <!-- Percentage of -->
      <g style="fill: #262626" transform="translate(456.032774 136.44168) scale(0.11 -0.11)">
       <defs>
        <path id="LiberationSans-50" d="M 3931 3078 
Q 3931 2453 3523 2084 
Q 3116 1716 2416 1716 
L 1122 1716 
L 1122 0 
L 525 0 
L 525 4403 
L 2378 4403 
Q 3119 4403 3525 4056 
Q 3931 3709 3931 3078 
z
M 3331 3072 
Q 3331 3925 2306 3925 
L 1122 3925 
L 1122 2188 
L 2331 2188 
Q 3331 2188 3331 3072 
z
" transform="scale(0.015625)"/>
        <path id="LiberationSans-67" d="M 1713 -1328 
Q 1159 -1328 831 -1111 
Q 503 -894 409 -494 
L 975 -413 
Q 1031 -647 1223 -773 
Q 1416 -900 1728 -900 
Q 2569 -900 2569 84 
L 2569 628 
L 2563 628 
Q 2403 303 2125 139 
Q 1847 -25 1475 -25 
Q 853 -25 561 387 
Q 269 800 269 1684 
Q 269 2581 583 3007 
Q 897 3434 1538 3434 
Q 1897 3434 2161 3270 
Q 2425 3106 2569 2803 
L 2575 2803 
Q 2575 2897 2587 3128 
Q 2600 3359 2613 3381 
L 3147 3381 
Q 3128 3213 3128 2681 
L 3128 97 
Q 3128 -1328 1713 -1328 
z
M 2569 1691 
Q 2569 2103 2456 2401 
Q 2344 2700 2139 2858 
Q 1934 3016 1675 3016 
Q 1244 3016 1047 2703 
Q 850 2391 850 1691 
Q 850 997 1034 694 
Q 1219 391 1666 391 
Q 1931 391 2137 547 
Q 2344 703 2456 995 
Q 2569 1288 2569 1691 
z
" transform="scale(0.015625)"/>
        <path id="LiberationSans-20" transform="scale(0.015625)"/>
        <path id="LiberationSans-66" d="M 1128 2972 
L 1128 0 
L 566 0 
L 566 2972 
L 91 2972 
L 91 3381 
L 566 3381 
L 566 3763 
Q 566 4225 769 4428 
Q 972 4631 1391 4631 
Q 1625 4631 1788 4594 
L 1788 4166 
Q 1647 4191 1538 4191 
Q 1322 4191 1225 4081 
Q 1128 3972 1128 3684 
L 1128 3381 
L 1788 3381 
L 1788 2972 
L 1128 2972 
z
" transform="scale(0.015625)"/>
       </defs>
       <use xlink:href="#LiberationSans-50"/>
       <use xlink:href="#LiberationSans-65" x="66.699219"/>
       <use xlink:href="#LiberationSans-72" x="122.314453"/>
       <use xlink:href="#LiberationSans-63" x="155.615234"/>
       <use xlink:href="#LiberationSans-65" x="205.615234"/>
       <use xlink:href="#LiberationSans-6e" x="261.230469"/>
       <use xlink:href="#LiberationSans-74" x="316.845703"/>
       <use xlink:href="#LiberationSans-61" x="344.628906"/>
       <use xlink:href="#LiberationSans-67" x="400.244141"/>
       <use xlink:href="#LiberationSans-65" x="455.859375"/>
       <use xlink:href="#LiberationSans-20" x="511.474609"/>
       <use xlink:href="#LiberationSans-6f" x="539.257812"/>
       <use xlink:href="#LiberationSans-66" x="594.873047"/>
      </g>
      <!-- neurons -->
      <g style="fill: #262626" transform="translate(470.402383 148.290055) scale(0.11 -0.11)">
       <defs>
        <path id="LiberationSans-73" d="M 2969 934 
Q 2969 456 2608 196 
Q 2247 -63 1597 -63 
Q 966 -63 623 145 
Q 281 353 178 794 
L 675 891 
Q 747 619 972 492 
Q 1197 366 1597 366 
Q 2025 366 2223 497 
Q 2422 628 2422 891 
Q 2422 1091 2284 1216 
Q 2147 1341 1841 1422 
L 1438 1528 
Q 953 1653 748 1773 
Q 544 1894 428 2066 
Q 313 2238 313 2488 
Q 313 2950 642 3192 
Q 972 3434 1603 3434 
Q 2163 3434 2492 3237 
Q 2822 3041 2909 2606 
L 2403 2544 
Q 2356 2769 2151 2889 
Q 1947 3009 1603 3009 
Q 1222 3009 1040 2893 
Q 859 2778 859 2544 
Q 859 2400 934 2306 
Q 1009 2213 1156 2147 
Q 1303 2081 1775 1966 
Q 2222 1853 2419 1758 
Q 2616 1663 2730 1547 
Q 2844 1431 2906 1279 
Q 2969 1128 2969 934 
z
" transform="scale(0.015625)"/>
       </defs>
       <use xlink:href="#LiberationSans-6e"/>
       <use xlink:href="#LiberationSans-65" x="55.615234"/>
       <use xlink:href="#LiberationSans-75" x="111.230469"/>
       <use xlink:href="#LiberationSans-72" x="166.845703"/>
       <use xlink:href="#LiberationSans-6f" x="200.146484"/>
       <use xlink:href="#LiberationSans-6e" x="255.761719"/>
       <use xlink:href="#LiberationSans-73" x="311.376953"/>
      </g>
     </g>
    </g>
    <g id="xtick_3">
     <g id="text_3">
      <!-- Neurontypes -->
      <g style="fill: #262626" transform="translate(337.751367 54.205381) scale(0.11 -0.11)">
       <defs>
        <path id="LiberationSans-4e" d="M 3381 0 
L 1025 3750 
L 1041 3447 
L 1056 2925 
L 1056 0 
L 525 0 
L 525 4403 
L 1219 4403 
L 3600 628 
Q 3563 1241 3563 1516 
L 3563 4403 
L 4100 4403 
L 4100 0 
L 3381 0 
z
" transform="scale(0.015625)"/>
        <path id="LiberationSans-70" d="M 3291 1706 
Q 3291 -63 2047 -63 
Q 1266 -63 997 525 
L 981 525 
Q 994 500 994 -6 
L 994 -1328 
L 431 -1328 
L 431 2691 
Q 431 3213 413 3381 
L 956 3381 
Q 959 3369 965 3292 
Q 972 3216 980 3056 
Q 988 2897 988 2838 
L 1000 2838 
Q 1150 3150 1397 3295 
Q 1644 3441 2047 3441 
Q 2672 3441 2981 3022 
Q 3291 2603 3291 1706 
z
M 2700 1694 
Q 2700 2400 2509 2703 
Q 2319 3006 1903 3006 
Q 1569 3006 1380 2865 
Q 1191 2725 1092 2426 
Q 994 2128 994 1650 
Q 994 984 1206 668 
Q 1419 353 1897 353 
Q 2316 353 2508 661 
Q 2700 969 2700 1694 
z
" transform="scale(0.015625)"/>
       </defs>
       <use xlink:href="#LiberationSans-4e"/>
       <use xlink:href="#LiberationSans-65" x="72.216797"/>
       <use xlink:href="#LiberationSans-75" x="127.832031"/>
       <use xlink:href="#LiberationSans-72" x="183.447266"/>
       <use xlink:href="#LiberationSans-6f" x="216.748047"/>
       <use xlink:href="#LiberationSans-6e" x="272.363281"/>
       <use xlink:href="#LiberationSans-74" x="327.978516"/>
       <use xlink:href="#LiberationSans-79" x="355.761719"/>
       <use xlink:href="#LiberationSans-70" x="405.761719"/>
       <use xlink:href="#LiberationSans-65" x="461.376953"/>
       <use xlink:href="#LiberationSans-73" x="516.992188"/>
      </g>
     </g>
    </g>
    <g id="xtick_4">
     <g id="text_4">
      <!-- Plasticity -->
      <g style="fill: #262626" transform="translate(197.246992 54.205381) scale(0.11 -0.11)">
       <defs>
        <path id="LiberationSans-6c" d="M 431 0 
L 431 4638 
L 994 4638 
L 994 0 
L 431 0 
z
" transform="scale(0.015625)"/>
       </defs>
       <use xlink:href="#LiberationSans-50"/>
       <use xlink:href="#LiberationSans-6c" x="66.699219"/>
       <use xlink:href="#LiberationSans-61" x="88.916016"/>
       <use xlink:href="#LiberationSans-73" x="144.53125"/>
       <use xlink:href="#LiberationSans-74" x="194.53125"/>
       <use xlink:href="#LiberationSans-69" x="222.314453"/>
       <use xlink:href="#LiberationSans-63" x="244.53125"/>
       <use xlink:href="#LiberationSans-69" x="294.53125"/>
       <use xlink:href="#LiberationSans-74" x="316.748047"/>
       <use xlink:href="#LiberationSans-79" x="344.53125"/>
      </g>
     </g>
    </g>
    <g id="xtick_5">
     <g id="text_5">
      <!-- Functional -->
      <g style="fill: #262626" transform="translate(72.229804 136.44168) scale(0.11 -0.11)">
       <defs>
        <path id="LiberationSans-46" d="M 1122 3916 
L 1122 2278 
L 3578 2278 
L 3578 1784 
L 1122 1784 
L 1122 0 
L 525 0 
L 525 4403 
L 3653 4403 
L 3653 3916 
L 1122 3916 
z
" transform="scale(0.015625)"/>
       </defs>
       <use xlink:href="#LiberationSans-46"/>
       <use xlink:href="#LiberationSans-75" x="61.083984"/>
       <use xlink:href="#LiberationSans-6e" x="116.699219"/>
       <use xlink:href="#LiberationSans-63" x="172.314453"/>
       <use xlink:href="#LiberationSans-74" x="222.314453"/>
       <use xlink:href="#LiberationSans-69" x="250.097656"/>
       <use xlink:href="#LiberationSans-6f" x="272.314453"/>
       <use xlink:href="#LiberationSans-6e" x="327.929688"/>
       <use xlink:href="#LiberationSans-61" x="383.544922"/>
       <use xlink:href="#LiberationSans-6c" x="439.160156"/>
      </g>
      <!-- Accuracy -->
      <g style="fill: #262626" transform="translate(74.986679 148.290055) scale(0.11 -0.11)">
       <defs>
        <path id="LiberationSans-41" d="M 3647 0 
L 3144 1288 
L 1138 1288 
L 631 0 
L 13 0 
L 1809 4403 
L 2488 4403 
L 4256 0 
L 3647 0 
z
M 2141 3953 
L 2113 3866 
Q 2034 3606 1881 3200 
L 1319 1753 
L 2966 1753 
L 2400 3206 
Q 2313 3422 2225 3694 
L 2141 3953 
z
" transform="scale(0.015625)"/>
       </defs>
       <use xlink:href="#LiberationSans-41"/>
       <use xlink:href="#LiberationSans-63" x="66.699219"/>
       <use xlink:href="#LiberationSans-63" x="116.699219"/>
       <use xlink:href="#LiberationSans-75" x="166.699219"/>
       <use xlink:href="#LiberationSans-72" x="222.314453"/>
       <use xlink:href="#LiberationSans-61" x="255.615234"/>
       <use xlink:href="#LiberationSans-63" x="311.230469"/>
       <use xlink:href="#LiberationSans-79" x="361.230469"/>
      </g>
     </g>
    </g>
    <g id="xtick_6">
     <g id="text_6">
      <!-- Neuromodulation -->
      <g style="fill: #262626" transform="translate(9.371641 285.012531) scale(0.11 -0.11)">
       <defs>
        <path id="LiberationSans-6d" d="M 2400 0 
L 2400 2144 
Q 2400 2634 2265 2821 
Q 2131 3009 1781 3009 
Q 1422 3009 1212 2734 
Q 1003 2459 1003 1959 
L 1003 0 
L 444 0 
L 444 2659 
Q 444 3250 425 3381 
L 956 3381 
Q 959 3366 962 3297 
Q 966 3228 970 3139 
Q 975 3050 981 2803 
L 991 2803 
Q 1172 3163 1406 3303 
Q 1641 3444 1978 3444 
Q 2363 3444 2586 3291 
Q 2809 3138 2897 2803 
L 2906 2803 
Q 3081 3144 3329 3294 
Q 3578 3444 3931 3444 
Q 4444 3444 4676 3166 
Q 4909 2888 4909 2253 
L 4909 0 
L 4353 0 
L 4353 2144 
Q 4353 2634 4218 2821 
Q 4084 3009 3734 3009 
Q 3366 3009 3161 2736 
Q 2956 2463 2956 1959 
L 2956 0 
L 2400 0 
z
" transform="scale(0.015625)"/>
        <path id="LiberationSans-64" d="M 2566 544 
Q 2409 219 2151 78 
Q 1894 -63 1513 -63 
Q 872 -63 570 368 
Q 269 800 269 1675 
Q 269 3444 1513 3444 
Q 1897 3444 2153 3303 
Q 2409 3163 2566 2856 
L 2572 2856 
L 2566 3234 
L 2566 4638 
L 3128 4638 
L 3128 697 
Q 3128 169 3147 0 
L 2609 0 
Q 2600 50 2589 231 
Q 2578 413 2578 544 
L 2566 544 
z
M 859 1694 
Q 859 984 1046 678 
Q 1234 372 1656 372 
Q 2134 372 2350 703 
Q 2566 1034 2566 1731 
Q 2566 2403 2350 2715 
Q 2134 3028 1663 3028 
Q 1238 3028 1048 2714 
Q 859 2400 859 1694 
z
" transform="scale(0.015625)"/>
       </defs>
       <use xlink:href="#LiberationSans-4e"/>
       <use xlink:href="#LiberationSans-65" x="72.216797"/>
       <use xlink:href="#LiberationSans-75" x="127.832031"/>
       <use xlink:href="#LiberationSans-72" x="183.447266"/>
       <use xlink:href="#LiberationSans-6f" x="216.748047"/>
       <use xlink:href="#LiberationSans-6d" x="272.363281"/>
       <use xlink:href="#LiberationSans-6f" x="355.664062"/>
       <use xlink:href="#LiberationSans-64" x="411.279297"/>
       <use xlink:href="#LiberationSans-75" x="466.894531"/>
       <use xlink:href="#LiberationSans-6c" x="522.509766"/>
       <use xlink:href="#LiberationSans-61" x="544.726562"/>
       <use xlink:href="#LiberationSans-74" x="600.341797"/>
       <use xlink:href="#LiberationSans-69" x="628.125"/>
       <use xlink:href="#LiberationSans-6f" x="650.341797"/>
       <use xlink:href="#LiberationSans-6e" x="705.957031"/>
      </g>
     </g>
    </g>
    <g id="xtick_7">
     <g id="text_7">
      <!-- Temporal -->
      <g style="fill: #262626" transform="translate(74.987539 421.735008) scale(0.11 -0.11)">
       <defs>
        <path id="LiberationSans-54" d="M 2250 3916 
L 2250 0 
L 1656 0 
L 1656 3916 
L 144 3916 
L 144 4403 
L 3763 4403 
L 3763 3916 
L 2250 3916 
z
" transform="scale(0.015625)"/>
       </defs>
       <use xlink:href="#LiberationSans-54"/>
       <use xlink:href="#LiberationSans-65" x="49.958984"/>
       <use xlink:href="#LiberationSans-6d" x="105.574219"/>
       <use xlink:href="#LiberationSans-70" x="188.875"/>
       <use xlink:href="#LiberationSans-6f" x="244.490234"/>
       <use xlink:href="#LiberationSans-72" x="300.105469"/>
       <use xlink:href="#LiberationSans-61" x="333.40625"/>
       <use xlink:href="#LiberationSans-6c" x="389.021484"/>
      </g>
      <!-- resolution -->
      <g style="fill: #262626" transform="translate(73.757773 433.583383) scale(0.11 -0.11)">
       <use xlink:href="#LiberationSans-72"/>
       <use xlink:href="#LiberationSans-65" x="33.300781"/>
       <use xlink:href="#LiberationSans-73" x="88.916016"/>
       <use xlink:href="#LiberationSans-6f" x="138.916016"/>
       <use xlink:href="#LiberationSans-6c" x="194.53125"/>
       <use xlink:href="#LiberationSans-75" x="216.748047"/>
       <use xlink:href="#LiberationSans-74" x="272.363281"/>
       <use xlink:href="#LiberationSans-69" x="300.146484"/>
       <use xlink:href="#LiberationSans-6f" x="322.363281"/>
       <use xlink:href="#LiberationSans-6e" x="377.978516"/>
      </g>
     </g>
    </g>
    <g id="xtick_8">
     <g id="text_8">
      <!-- Behavior -->
      <g style="fill: #262626" transform="translate(197.240117 515.819682) scale(0.11 -0.11)">
       <defs>
        <path id="LiberationSans-42" d="M 3931 1241 
Q 3931 653 3503 326 
Q 3075 0 2313 0 
L 525 0 
L 525 4403 
L 2125 4403 
Q 3675 4403 3675 3334 
Q 3675 2944 3456 2678 
Q 3238 2413 2838 2322 
Q 3363 2259 3647 1970 
Q 3931 1681 3931 1241 
z
M 3075 3263 
Q 3075 3619 2831 3772 
Q 2588 3925 2125 3925 
L 1122 3925 
L 1122 2531 
L 2125 2531 
Q 2603 2531 2839 2711 
Q 3075 2891 3075 3263 
z
M 3328 1288 
Q 3328 2066 2234 2066 
L 1122 2066 
L 1122 478 
L 2281 478 
Q 2828 478 3078 681 
Q 3328 884 3328 1288 
z
" transform="scale(0.015625)"/>
        <path id="LiberationSans-68" d="M 991 2803 
Q 1172 3134 1426 3289 
Q 1681 3444 2072 3444 
Q 2622 3444 2883 3170 
Q 3144 2897 3144 2253 
L 3144 0 
L 2578 0 
L 2578 2144 
Q 2578 2500 2512 2673 
Q 2447 2847 2297 2928 
Q 2147 3009 1881 3009 
Q 1484 3009 1245 2734 
Q 1006 2459 1006 1994 
L 1006 0 
L 444 0 
L 444 4638 
L 1006 4638 
L 1006 3431 
Q 1006 3241 995 3037 
Q 984 2834 981 2803 
L 991 2803 
z
" transform="scale(0.015625)"/>
       </defs>
       <use xlink:href="#LiberationSans-42"/>
       <use xlink:href="#LiberationSans-65" x="66.699219"/>
       <use xlink:href="#LiberationSans-68" x="122.314453"/>
       <use xlink:href="#LiberationSans-61" x="177.929688"/>
       <use xlink:href="#LiberationSans-76" x="233.544922"/>
       <use xlink:href="#LiberationSans-69" x="283.544922"/>
       <use xlink:href="#LiberationSans-6f" x="305.761719"/>
       <use xlink:href="#LiberationSans-72" x="361.376953"/>
      </g>
     </g>
    </g>
    <g id="xtick_9">
     <g id="text_9">
      <!-- Personality- -->
      <g style="fill: #262626" transform="translate(339.896367 503.971307) scale(0.11 -0.11)">
       <defs>
        <path id="LiberationSans-2d" d="M 284 1450 
L 284 1950 
L 1847 1950 
L 1847 1450 
L 284 1450 
z
" transform="scale(0.015625)"/>
       </defs>
       <use xlink:href="#LiberationSans-50"/>
       <use xlink:href="#LiberationSans-65" x="66.699219"/>
       <use xlink:href="#LiberationSans-72" x="122.314453"/>
       <use xlink:href="#LiberationSans-73" x="155.615234"/>
       <use xlink:href="#LiberationSans-6f" x="205.615234"/>
       <use xlink:href="#LiberationSans-6e" x="261.230469"/>
       <use xlink:href="#LiberationSans-61" x="316.845703"/>
       <use xlink:href="#LiberationSans-6c" x="372.460938"/>
       <use xlink:href="#LiberationSans-69" x="394.677734"/>
       <use xlink:href="#LiberationSans-74" x="416.894531"/>
       <use xlink:href="#LiberationSans-79" x="444.677734"/>
       <use xlink:href="#LiberationSans-2d" x="494.677734"/>
      </g>
      <!-- defining -->
      <g style="fill: #262626" transform="translate(349.66918 515.819682) scale(0.11 -0.11)">
       <use xlink:href="#LiberationSans-64"/>
       <use xlink:href="#LiberationSans-65" x="55.615234"/>
       <use xlink:href="#LiberationSans-66" x="111.230469"/>
       <use xlink:href="#LiberationSans-69" x="139.013672"/>
       <use xlink:href="#LiberationSans-6e" x="161.230469"/>
       <use xlink:href="#LiberationSans-69" x="216.845703"/>
       <use xlink:href="#LiberationSans-6e" x="239.0625"/>
       <use xlink:href="#LiberationSans-67" x="294.677734"/>
      </g>
      <!-- Characteristics -->
      <g style="fill: #262626" transform="translate(332.565039 527.668057) scale(0.11 -0.11)">
       <use xlink:href="#LiberationSans-43"/>
       <use xlink:href="#LiberationSans-68" x="72.216797"/>
       <use xlink:href="#LiberationSans-61" x="127.832031"/>
       <use xlink:href="#LiberationSans-72" x="183.447266"/>
       <use xlink:href="#LiberationSans-61" x="216.748047"/>
       <use xlink:href="#LiberationSans-63" x="272.363281"/>
       <use xlink:href="#LiberationSans-74" x="322.363281"/>
       <use xlink:href="#LiberationSans-65" x="350.146484"/>
       <use xlink:href="#LiberationSans-72" x="405.761719"/>
       <use xlink:href="#LiberationSans-69" x="439.0625"/>
       <use xlink:href="#LiberationSans-73" x="461.279297"/>
       <use xlink:href="#LiberationSans-74" x="511.279297"/>
       <use xlink:href="#LiberationSans-69" x="539.0625"/>
       <use xlink:href="#LiberationSans-63" x="561.279297"/>
       <use xlink:href="#LiberationSans-73" x="611.279297"/>
      </g>
     </g>
    </g>
    <g id="xtick_10">
     <g id="text_10">
      <!-- Learning -->
      <g style="fill: #262626" transform="translate(468.871836 427.659195) scale(0.11 -0.11)">
       <defs>
        <path id="LiberationSans-4c" d="M 525 0 
L 525 4403 
L 1122 4403 
L 1122 488 
L 3347 488 
L 3347 0 
L 525 0 
z
" transform="scale(0.015625)"/>
       </defs>
       <use xlink:href="#LiberationSans-4c"/>
       <use xlink:href="#LiberationSans-65" x="55.615234"/>
       <use xlink:href="#LiberationSans-61" x="111.230469"/>
       <use xlink:href="#LiberationSans-72" x="166.845703"/>
       <use xlink:href="#LiberationSans-6e" x="200.146484"/>
       <use xlink:href="#LiberationSans-69" x="255.761719"/>
       <use xlink:href="#LiberationSans-6e" x="277.978516"/>
       <use xlink:href="#LiberationSans-67" x="333.59375"/>
      </g>
     </g>
    </g>
   </g>
   <g id="matplotlib.axis_2"/>
   <g id="line2d_1">
    <path d="M 481.125 282.168 
L 480.748136 270.295994 
L 479.619062 258.471792 
L 477.742323 246.743006 
L 475.125478 235.156864 
L 471.779062 223.760019 
L 467.716552 212.598363 
L 462.954304 201.716839 
L 457.511496 191.159264 
L 451.410043 180.968149 
L 444.674513 171.184529 
L 437.332029 161.847801 
L 429.412156 152.99556 
L 420.946784 144.663451 
L 411.970001 136.885024 
L 402.517953 129.6916 
L 392.628699 123.112145 
L 382.342061 117.173152 
L 371.699459 111.898535 
L 360.743747 107.309533 
L 349.51904 103.424624 
L 338.070536 100.259452 
L 326.444334 97.826761 
L 314.687248 96.136347 
L 302.846621 95.195017 
L 290.97013 95.006561 
L 279.105597 95.571739 
L 267.300797 96.888273 
L 255.603264 98.950864 
L 244.060099 101.751206 
L 232.717783 105.278022 
L 221.621988 109.517111 
L 210.817391 114.451405 
L 200.3475 120.061035 
L 190.254473 126.323412 
L 180.578951 133.21332 
L 171.359894 140.703016 
L 162.634423 148.762342 
L 154.437674 157.358845 
L 146.802651 166.45791 
L 139.760099 176.022899 
L 133.338375 186.015297 
L 127.563337 196.394869 
L 122.458238 207.119818 
L 118.043637 218.146959 
L 114.337308 229.431891 
L 111.354175 240.929173 
L 109.106252 252.592509 
L 107.602588 264.374935 
L 106.84924 276.229007 
L 106.84924 288.106993 
L 107.602588 299.961065 
L 109.106252 311.743491 
L 111.354175 323.406827 
L 114.337308 334.904109 
L 118.043637 346.189041 
L 122.458238 357.216182 
L 127.563337 367.941131 
L 133.338375 378.320703 
L 139.760099 388.313101 
L 146.802651 397.87809 
L 154.437674 406.977155 
L 162.634423 415.573658 
L 171.359894 423.632984 
L 180.578951 431.12268 
L 190.254473 438.012588 
L 200.3475 444.274965 
L 210.817391 449.884595 
L 221.621988 454.818889 
L 232.717783 459.057978 
L 244.060099 462.584794 
L 255.603264 465.385136 
L 267.300797 467.447727 
L 279.105597 468.764261 
L 290.97013 469.329439 
L 302.846621 469.140983 
L 314.687248 468.199653 
L 326.444334 466.509239 
L 338.070536 464.076548 
L 349.51904 460.911376 
L 360.743747 457.026467 
L 371.699459 452.437465 
L 382.342061 447.162848 
L 392.628699 441.223855 
L 402.517953 434.6444 
L 411.970001 427.450976 
L 420.946784 419.672549 
L 429.412156 411.34044 
L 437.332029 402.488199 
L 444.674513 393.151471 
L 451.410043 383.367851 
L 457.511496 373.176736 
L 462.954304 362.619161 
L 467.716552 351.737637 
L 471.779062 340.575981 
L 475.125478 329.179136 
L 477.742323 317.592994 
L 479.619062 305.864208 
L 480.748136 294.040006 
L 481.125 282.168 
" clip-path="url(#pb31c3b76f4)" style="fill: none; stroke: #262626; stroke-opacity: 0.301961; stroke-width: 2; stroke-linecap: square"/>
   </g>
   <g id="line2d_2">
    <path d="M 293.94 282.168 
L 471.963514 340.011346 
" clip-path="url(#pb31c3b76f4)" style="fill: none; stroke: #262626; stroke-opacity: 0.301961; stroke-linecap: square"/>
   </g>
   <g id="line2d_3">
    <path d="M 293.94 282.168 
L 471.963514 224.324654 
" clip-path="url(#pb31c3b76f4)" style="fill: none; stroke: #262626; stroke-opacity: 0.301961; stroke-linecap: square"/>
   </g>
   <g id="line2d_4">
    <path d="M 293.94 282.168 
L 403.964582 130.732154 
" clip-path="url(#pb31c3b76f4)" style="fill: none; stroke: #262626; stroke-opacity: 0.301961; stroke-linecap: square"/>
   </g>
   <g id="line2d_5">
    <path d="M 293.94 282.168 
L 293.94 94.983 
" clip-path="url(#pb31c3b76f4)" style="fill: none; stroke: #262626; stroke-opacity: 0.301961; stroke-linecap: square"/>
   </g>
   <g id="line2d_6">
    <path d="M 293.94 282.168 
L 183.915418 130.732154 
" clip-path="url(#pb31c3b76f4)" style="fill: none; stroke: #262626; stroke-opacity: 0.301961; stroke-linecap: square"/>
   </g>
   <g id="line2d_7">
    <path d="M 293.94 282.168 
L 115.916486 224.324654 
" clip-path="url(#pb31c3b76f4)" style="fill: none; stroke: #262626; stroke-opacity: 0.301961; stroke-linecap: square"/>
   </g>
   <g id="line2d_8">
    <path d="M 293.94 282.168 
L 115.916486 340.011346 
" clip-path="url(#pb31c3b76f4)" style="fill: none; stroke: #262626; stroke-opacity: 0.301961; stroke-linecap: square"/>
   </g>
   <g id="line2d_9">
    <path d="M 293.94 282.168 
L 183.915418 433.603846 
" clip-path="url(#pb31c3b76f4)" style="fill: none; stroke: #262626; stroke-opacity: 0.301961; stroke-linecap: square"/>
   </g>
   <g id="line2d_10">
    <path d="M 293.94 282.168 
L 293.94 469.353 
" clip-path="url(#pb31c3b76f4)" style="fill: none; stroke: #262626; stroke-opacity: 0.301961; stroke-linecap: square"/>
   </g>
   <g id="line2d_11">
    <path d="M 293.94 282.168 
L 403.964582 433.603846 
" clip-path="url(#pb31c3b76f4)" style="fill: none; stroke: #262626; stroke-opacity: 0.301961; stroke-linecap: square"/>
   </g>
  </g>
 </g>
 <defs>
  <clipPath id="pb31c3b76f4">
   <path d="M 481.125 282.168 
C 481.125 257.587091 476.283097 233.2452 466.87639 210.535402 
C 457.469684 187.825603 443.68111 167.189545 426.299783 149.808217 
C 408.918455 132.42689 388.282397 118.638316 365.572598 109.23161 
C 342.8628 99.824903 318.520909 94.983 293.94 94.983 
C 269.359091 94.983 245.0172 99.824903 222.307402 109.23161 
C 199.597603 118.638316 178.961545 132.42689 161.580217 149.808217 
C 144.19889 167.189545 130.410316 187.825603 121.00361 210.535402 
C 111.596903 233.2452 106.755 257.587091 106.755 282.168 
C 106.755 306.748909 111.596903 331.0908 121.00361 353.800598 
C 130.410316 376.510397 144.19889 397.146455 161.580217 414.527783 
C 178.961545 431.90911 199.597603 445.697684 222.307402 455.10439 
C 245.0172 464.511097 269.359091 469.353 293.94 469.353 
C 318.520909 469.353 342.8628 464.511097 365.572598 455.10439 
C 388.282397 445.697684 408.918455 431.90911 426.299783 414.527783 
C 443.68111 397.146455 457.469684 376.510397 466.87639 353.800598 
C 476.283097 331.0908 481.125 306.748909 481.125 282.168 
M 293.94 282.168 
C 293.94 282.168 293.94 282.168 293.94 282.168 
C 293.94 282.168 293.94 282.168 293.94 282.168 
C 293.94 282.168 293.94 282.168 293.94 282.168 
C 293.94 282.168 293.94 282.168 293.94 282.168 
C 293.94 282.168 293.94 282.168 293.94 282.168 
C 293.94 282.168 293.94 282.168 293.94 282.168 
C 293.94 282.168 293.94 282.168 293.94 282.168 
C 293.94 282.168 293.94 282.168 293.94 282.168 
C 293.94 282.168 293.94 282.168 293.94 282.168 
C 293.94 282.168 293.94 282.168 293.94 282.168 
C 293.94 282.168 293.94 282.168 293.94 282.168 
C 293.94 282.168 293.94 282.168 293.94 282.168 
C 293.94 282.168 293.94 282.168 293.94 282.168 
C 293.94 282.168 293.94 282.168 293.94 282.168 
C 293.94 282.168 293.94 282.168 293.94 282.168 
C 293.94 282.168 293.94 282.168 293.94 282.168 
z
"/>
  </clipPath>
 </defs>
</svg>
