<?xml version="1.0" encoding="utf-8" standalone="no"?>
<!DOCTYPE svg PUBLIC "-//W3C//DTD SVG 1.1//EN"
  "http://www.w3.org/Graphics/SVG/1.1/DTD/svg11.dtd">
<svg xmlns:xlink="http://www.w3.org/1999/xlink" width="576pt" height="576pt" viewBox="0 0 576 576" xmlns="http://www.w3.org/2000/svg" version="1.1">
 <metadata>
  <rdf:RDF xmlns:dc="http://purl.org/dc/elements/1.1/" xmlns:cc="http://creativecommons.org/ns#" xmlns:rdf="http://www.w3.org/1999/02/22-rdf-syntax-ns#">
   <cc:Work>
    <dc:type rdf:resource="http://purl.org/dc/dcmitype/StillImage"/>
    <dc:date>2025-01-24T17:18:20.691119</dc:date>
    <dc:format>image/svg+xml</dc:format>
    <dc:creator>
     <cc:Agent>
      <dc:title>Matplotlib v3.9.2, https://matplotlib.org/</dc:title>
     </cc:Agent>
    </dc:creator>
   </cc:Work>
  </rdf:RDF>
 </metadata>
 <defs>
  <style type="text/css">*{stroke-linejoin: round; stroke-linecap: butt}</style>
 </defs>
 <g id="figure_1">
  <g id="patch_1">
   <path d="M 0 576 
L 576 576 
L 576 0 
L 0 0 
z
" style="fill: #ffffff"/>
  </g>
  <g id="axes_1">
   <g id="patch_2">
    <path d="M 485.49 288 
C 485.49 259.318862 479.840441 230.916612 468.864645 204.418695 
C 457.888849 177.920779 441.800266 153.842514 421.519639 133.561887 
C 401.239012 113.28126 377.160747 97.192677 350.66283 86.216881 
C 324.164914 75.241085 295.762664 69.591526 267.081526 69.591526 
C 238.400388 69.591526 209.998138 75.241085 183.500221 86.216881 
C 157.002305 97.192677 132.92404 113.28126 112.643413 133.561887 
C 92.362786 153.842514 76.274203 177.920779 65.298407 204.418695 
C 54.322611 230.916612 48.673052 259.318862 48.673052 288 
C 48.673052 316.681138 54.322611 345.083388 65.298407 371.581305 
C 76.274203 398.079221 92.362786 422.157486 112.643413 442.438113 
C 132.92404 462.71874 157.002305 478.807323 183.500221 489.783119 
C 209.998138 500.758915 238.400388 506.408474 267.081526 506.408474 
C 295.762664 506.408474 324.164914 500.758915 350.66283 489.783119 
C 377.160747 478.807323 401.239012 462.71874 421.519639 442.438113 
C 441.800266 422.157486 457.888849 398.079221 468.864645 371.581305 
C 479.840441 345.083388 485.49 316.681138 485.49 288 
M 267.081526 288 
C 267.081526 288 267.081526 288 267.081526 288 
C 267.081526 288 267.081526 288 267.081526 288 
C 267.081526 288 267.081526 288 267.081526 288 
C 267.081526 288 267.081526 288 267.081526 288 
C 267.081526 288 267.081526 288 267.081526 288 
C 267.081526 288 267.081526 288 267.081526 288 
C 267.081526 288 267.081526 288 267.081526 288 
C 267.081526 288 267.081526 288 267.081526 288 
C 267.081526 288 267.081526 288 267.081526 288 
C 267.081526 288 267.081526 288 267.081526 288 
C 267.081526 288 267.081526 288 267.081526 288 
C 267.081526 288 267.081526 288 267.081526 288 
C 267.081526 288 267.081526 288 267.081526 288 
C 267.081526 288 267.081526 288 267.081526 288 
C 267.081526 288 267.081526 288 267.081526 288 
C 267.081526 288 267.081526 288 267.081526 288 
z
" style="fill: #ffffff"/>
   </g>
   <g id="patch_3">
    <path d="M 315.297543 288 
L 280.579912 246.45624 
L 225.519362 257.803321 
L 193.604854 341.383927 
L 334.573456 495.718802 
L 315.297543 288 
z
" clip-path="url(#p4e8cf6c40d)" style="fill: #82c3ff; opacity: 0.037037; stroke: #82c3ff; stroke-linejoin: miter"/>
   </g>
   <g id="patch_4">
    <path d="M 312.223227 288 
L 280.579912 246.45624 
L 225.519362 257.803321 
L 193.604854 341.383927 
L 334.573456 495.718802 
L 312.223227 288 
z
" clip-path="url(#p4e8cf6c40d)" style="fill: #82c3ff; opacity: 0.037037; stroke: #82c3ff; stroke-linejoin: miter"/>
   </g>
   <g id="patch_5">
    <path d="M 315.593967 288 
L 280.579912 246.45624 
L 225.519362 257.803321 
L 193.604854 341.383927 
L 334.573456 495.718802 
L 315.593967 288 
z
" clip-path="url(#p4e8cf6c40d)" style="fill: #82c3ff; opacity: 0.037037; stroke: #82c3ff; stroke-linejoin: miter"/>
   </g>
   <g id="patch_6">
    <path d="M 313.248921 288 
L 280.579912 246.45624 
L 225.519362 257.803321 
L 193.604854 341.383927 
L 334.573456 495.718802 
L 313.248921 288 
z
" clip-path="url(#p4e8cf6c40d)" style="fill: #82c3ff; opacity: 0.037037; stroke: #82c3ff; stroke-linejoin: miter"/>
   </g>
   <g id="patch_7">
    <path d="M 314.996414 288 
L 280.579912 246.45624 
L 225.519362 257.803321 
L 193.604854 341.383927 
L 334.573456 495.718802 
L 314.996414 288 
z
" clip-path="url(#p4e8cf6c40d)" style="fill: #82c3ff; opacity: 0.037037; stroke: #82c3ff; stroke-linejoin: miter"/>
   </g>
   <g id="patch_8">
    <path d="M 316.873376 288 
L 280.579912 246.45624 
L 225.519362 257.803321 
L 193.604854 341.383927 
L 334.573456 495.718802 
L 316.873376 288 
z
" clip-path="url(#p4e8cf6c40d)" style="fill: #82c3ff; opacity: 0.037037; stroke: #82c3ff; stroke-linejoin: miter"/>
   </g>
   <g id="patch_9">
    <path d="M 317.548562 288 
L 280.579912 246.45624 
L 225.519362 257.803321 
L 193.604854 341.383927 
L 334.573456 495.718802 
L 317.548562 288 
z
" clip-path="url(#p4e8cf6c40d)" style="fill: #82c3ff; opacity: 0.037037; stroke: #82c3ff; stroke-linejoin: miter"/>
   </g>
   <g id="patch_10">
    <path d="M 314.535565 288 
L 280.579912 246.45624 
L 225.519362 257.803321 
L 193.604854 341.383927 
L 334.573456 495.718802 
L 314.535565 288 
z
" clip-path="url(#p4e8cf6c40d)" style="fill: #82c3ff; opacity: 0.037037; stroke: #82c3ff; stroke-linejoin: miter"/>
   </g>
   <g id="patch_11">
    <path d="M 267.081526 288 
L 280.579912 246.45624 
L 225.519362 257.803321 
L 193.604854 341.383927 
L 334.573456 495.718802 
L 267.081526 288 
z
" clip-path="url(#p4e8cf6c40d)" style="fill: #82c3ff; opacity: 0.037037; stroke: #82c3ff; stroke-linejoin: miter"/>
   </g>
   <g id="patch_12">
    <path d="M 437.575112 288 
L 288.70675 221.444403 
L 217.679398 252.107253 
L 190.180129 343.872135 
L 334.573456 495.718802 
L 437.575112 288 
z
" clip-path="url(#p4e8cf6c40d)" style="fill: #82c3ff; opacity: 0.037037; stroke: #82c3ff; stroke-linejoin: miter"/>
   </g>
   <g id="patch_13">
    <path d="M 424.425611 288 
L 287.579013 224.915221 
L 217.679398 252.107253 
L 190.180129 343.872135 
L 334.573456 495.718802 
L 424.425611 288 
z
" clip-path="url(#p4e8cf6c40d)" style="fill: #82c3ff; opacity: 0.037037; stroke: #82c3ff; stroke-linejoin: miter"/>
   </g>
   <g id="patch_14">
    <path d="M 388.435881 288 
L 299.623128 187.847248 
L 217.679398 252.107253 
L 190.180129 343.872135 
L 334.573456 495.718802 
L 388.435881 288 
z
" clip-path="url(#p4e8cf6c40d)" style="fill: #82c3ff; opacity: 0.037037; stroke: #82c3ff; stroke-linejoin: miter"/>
   </g>
   <g id="patch_15">
    <path d="M 429.40285 288 
L 280.579912 246.45624 
L 217.679398 252.107253 
L 190.180129 343.872135 
L 334.573456 495.718802 
L 429.40285 288 
z
" clip-path="url(#p4e8cf6c40d)" style="fill: #82c3ff; opacity: 0.037037; stroke: #82c3ff; stroke-linejoin: miter"/>
   </g>
   <g id="patch_16">
    <path d="M 415.509304 288 
L 311.640103 150.8628 
L 217.679398 252.107253 
L 190.180129 343.872135 
L 334.573456 495.718802 
L 415.509304 288 
z
" clip-path="url(#p4e8cf6c40d)" style="fill: #82c3ff; opacity: 0.037037; stroke: #82c3ff; stroke-linejoin: miter"/>
   </g>
   <g id="patch_17">
    <path d="M 433.04316 288 
L 307.576684 163.368719 
L 204.243024 242.345156 
L 199.827785 336.862703 
L 334.573456 495.718802 
L 433.04316 288 
z
" clip-path="url(#p4e8cf6c40d)" style="fill: #82c3ff; opacity: 0.037037; stroke: #82c3ff; stroke-linejoin: miter"/>
   </g>
   <g id="patch_18">
    <path d="M 424.708059 288 
L 294.078298 204.912479 
L 204.243024 242.345156 
L 199.827785 336.862703 
L 334.573456 495.718802 
L 424.708059 288 
z
" clip-path="url(#p4e8cf6c40d)" style="fill: #82c3ff; opacity: 0.037037; stroke: #82c3ff; stroke-linejoin: miter"/>
   </g>
   <g id="patch_19">
    <path d="M 440.875131 288 
L 284.025679 235.85126 
L 204.243024 242.345156 
L 199.827785 336.862703 
L 334.573456 495.718802 
L 440.875131 288 
z
" clip-path="url(#p4e8cf6c40d)" style="fill: #82c3ff; opacity: 0.037037; stroke: #82c3ff; stroke-linejoin: miter"/>
   </g>
   <g id="patch_20">
    <path d="M 267.081526 288 
L 280.579912 246.45624 
L 204.243024 242.345156 
L 199.827785 336.862703 
L 334.573456 495.718802 
L 267.081526 288 
z
" clip-path="url(#p4e8cf6c40d)" style="fill: #82c3ff; opacity: 0.037037; stroke: #82c3ff; stroke-linejoin: miter"/>
   </g>
   <g id="patch_21">
    <path d="M 392.669075 288 
L 280.579912 246.45624 
L 166.105586 214.636685 
L 166.105586 361.363315 
L 334.573456 495.718802 
L 392.669075 288 
z
" clip-path="url(#p4e8cf6c40d)" style="fill: #82c3ff; opacity: 0.037037; stroke: #82c3ff; stroke-linejoin: miter"/>
   </g>
   <g id="patch_22">
    <path d="M 392.669075 288 
L 280.579912 246.45624 
L 267.081526 288 
L 162.68086 363.851524 
L 334.573456 495.718802 
L 392.669075 288 
z
" clip-path="url(#p4e8cf6c40d)" style="fill: #82c3ff; opacity: 0.037037; stroke: #82c3ff; stroke-linejoin: miter"/>
   </g>
   <g id="patch_23">
    <path d="M 436.350769 288 
L 280.579912 246.45624 
L 199.827785 239.137297 
L 172.328516 356.842091 
L 334.573456 495.718802 
L 436.350769 288 
z
" clip-path="url(#p4e8cf6c40d)" style="fill: #82c3ff; opacity: 0.037037; stroke: #82c3ff; stroke-linejoin: miter"/>
   </g>
   <g id="patch_24">
    <path d="M 485.49 288 
L 280.579912 246.45624 
L 204.243024 242.345156 
L 193.604854 341.383927 
L 334.573456 495.718802 
L 485.49 288 
z
" clip-path="url(#p4e8cf6c40d)" style="fill: #82c3ff; opacity: 0.037037; stroke: #82c3ff; stroke-linejoin: miter"/>
   </g>
   <g id="patch_25">
    <path d="M 424.425611 288 
L 280.579912 246.45624 
L 242.380462 270.053626 
L 214.881193 325.925762 
L 334.573456 495.718802 
L 424.425611 288 
z
" clip-path="url(#p4e8cf6c40d)" style="fill: #82c3ff; opacity: 0.037037; stroke: #82c3ff; stroke-linejoin: miter"/>
   </g>
   <g id="patch_26">
    <path d="M 331.604686 288 
L 315.703522 138.356882 
L 221.104123 254.595462 
L 221.104123 321.404538 
L 334.573456 495.718802 
L 331.604686 288 
z
" clip-path="url(#p4e8cf6c40d)" style="fill: #82c3ff; opacity: 0.037037; stroke: #82c3ff; stroke-linejoin: miter"/>
   </g>
   <g id="patch_27">
    <path d="M 701.037255 288 
L 273.521893 268.178589 
L 204.243024 242.345156 
L 122.926388 392.734839 
L 294.078298 371.087521 
L 701.037255 288 
z
" clip-path="url(#p4e8cf6c40d)" style="fill: #82c3ff; opacity: 0.037037; stroke: #82c3ff; stroke-linejoin: miter"/>
   </g>
   <g id="patch_28">
    <path d="M 701.037255 288 
L 273.521893 268.178589 
L 204.243024 242.345156 
L 161.690347 364.571174 
L 294.078298 371.087521 
L 701.037255 288 
z
" clip-path="url(#p4e8cf6c40d)" style="fill: #82c3ff; opacity: 0.037037; stroke: #82c3ff; stroke-linejoin: miter"/>
   </g>
   <g id="patch_29">
    <path d="M 701.037255 288 
L 273.521893 268.178589 
L 204.243024 242.345156 
L 149.676843 373.299495 
L 294.078298 371.087521 
L 701.037255 288 
z
" clip-path="url(#p4e8cf6c40d)" style="fill: #82c3ff; opacity: 0.037037; stroke: #82c3ff; stroke-linejoin: miter"/>
   </g>
   <g id="matplotlib.axis_1">
    <g id="xtick_1">
     <g id="text_1">
      <!-- Number of -->
      <g style="fill: #262626" transform="translate(515.315313 284.920344) scale(0.11 -0.11)">
       <defs>
        <path id="LiberationSans-4e" d="M 3381 0 
L 1025 3750 
L 1041 3447 
L 1056 2925 
L 1056 0 
L 525 0 
L 525 4403 
L 1219 4403 
L 3600 628 
Q 3563 1241 3563 1516 
L 3563 4403 
L 4100 4403 
L 4100 0 
L 3381 0 
z
" transform="scale(0.015625)"/>
        <path id="LiberationSans-75" d="M 981 3381 
L 981 1238 
Q 981 903 1047 718 
Q 1113 534 1256 453 
Q 1400 372 1678 372 
Q 2084 372 2318 650 
Q 2553 928 2553 1422 
L 2553 3381 
L 3116 3381 
L 3116 722 
Q 3116 131 3134 0 
L 2603 0 
Q 2600 16 2597 84 
Q 2594 153 2589 242 
Q 2584 331 2578 578 
L 2569 578 
Q 2375 228 2120 82 
Q 1866 -63 1488 -63 
Q 931 -63 673 214 
Q 416 491 416 1128 
L 416 3381 
L 981 3381 
z
" transform="scale(0.015625)"/>
        <path id="LiberationSans-6d" d="M 2400 0 
L 2400 2144 
Q 2400 2634 2265 2821 
Q 2131 3009 1781 3009 
Q 1422 3009 1212 2734 
Q 1003 2459 1003 1959 
L 1003 0 
L 444 0 
L 444 2659 
Q 444 3250 425 3381 
L 956 3381 
Q 959 3366 962 3297 
Q 966 3228 970 3139 
Q 975 3050 981 2803 
L 991 2803 
Q 1172 3163 1406 3303 
Q 1641 3444 1978 3444 
Q 2363 3444 2586 3291 
Q 2809 3138 2897 2803 
L 2906 2803 
Q 3081 3144 3329 3294 
Q 3578 3444 3931 3444 
Q 4444 3444 4676 3166 
Q 4909 2888 4909 2253 
L 4909 0 
L 4353 0 
L 4353 2144 
Q 4353 2634 4218 2821 
Q 4084 3009 3734 3009 
Q 3366 3009 3161 2736 
Q 2956 2463 2956 1959 
L 2956 0 
L 2400 0 
z
" transform="scale(0.015625)"/>
        <path id="LiberationSans-62" d="M 3291 1706 
Q 3291 -63 2047 -63 
Q 1663 -63 1408 76 
Q 1153 216 994 525 
L 988 525 
Q 988 428 975 229 
Q 963 31 956 0 
L 413 0 
Q 431 169 431 697 
L 431 4638 
L 994 4638 
L 994 3316 
Q 994 3113 981 2838 
L 994 2838 
Q 1150 3163 1408 3303 
Q 1666 3444 2047 3444 
Q 2688 3444 2989 3012 
Q 3291 2581 3291 1706 
z
M 2700 1688 
Q 2700 2397 2512 2703 
Q 2325 3009 1903 3009 
Q 1428 3009 1211 2684 
Q 994 2359 994 1653 
Q 994 988 1206 670 
Q 1419 353 1897 353 
Q 2322 353 2511 667 
Q 2700 981 2700 1688 
z
" transform="scale(0.015625)"/>
        <path id="LiberationSans-65" d="M 863 1572 
Q 863 991 1103 675 
Q 1344 359 1806 359 
Q 2172 359 2392 506 
Q 2613 653 2691 878 
L 3184 738 
Q 2881 -63 1806 -63 
Q 1056 -63 664 384 
Q 272 831 272 1713 
Q 272 2550 664 2997 
Q 1056 3444 1784 3444 
Q 3275 3444 3275 1647 
L 3275 1572 
L 863 1572 
z
M 2694 2003 
Q 2647 2538 2422 2783 
Q 2197 3028 1775 3028 
Q 1366 3028 1127 2754 
Q 888 2481 869 2003 
L 2694 2003 
z
" transform="scale(0.015625)"/>
        <path id="LiberationSans-72" d="M 444 0 
L 444 2594 
Q 444 2950 425 3381 
L 956 3381 
Q 981 2806 981 2691 
L 994 2691 
Q 1128 3125 1303 3284 
Q 1478 3444 1797 3444 
Q 1909 3444 2025 3413 
L 2025 2897 
Q 1913 2928 1725 2928 
Q 1375 2928 1190 2626 
Q 1006 2325 1006 1763 
L 1006 0 
L 444 0 
z
" transform="scale(0.015625)"/>
        <path id="LiberationSans-20" transform="scale(0.015625)"/>
        <path id="LiberationSans-6f" d="M 3291 1694 
Q 3291 806 2900 371 
Q 2509 -63 1766 -63 
Q 1025 -63 647 389 
Q 269 841 269 1694 
Q 269 3444 1784 3444 
Q 2559 3444 2925 3017 
Q 3291 2591 3291 1694 
z
M 2700 1694 
Q 2700 2394 2492 2711 
Q 2284 3028 1794 3028 
Q 1300 3028 1079 2704 
Q 859 2381 859 1694 
Q 859 1025 1076 689 
Q 1294 353 1759 353 
Q 2266 353 2483 678 
Q 2700 1003 2700 1694 
z
" transform="scale(0.015625)"/>
        <path id="LiberationSans-66" d="M 1128 2972 
L 1128 0 
L 566 0 
L 566 2972 
L 91 2972 
L 91 3381 
L 566 3381 
L 566 3763 
Q 566 4225 769 4428 
Q 972 4631 1391 4631 
Q 1625 4631 1788 4594 
L 1788 4166 
Q 1647 4191 1538 4191 
Q 1322 4191 1225 4081 
Q 1128 3972 1128 3684 
L 1128 3381 
L 1788 3381 
L 1788 2972 
L 1128 2972 
z
" transform="scale(0.015625)"/>
       </defs>
       <use xlink:href="#LiberationSans-4e"/>
       <use xlink:href="#LiberationSans-75" x="72.216797"/>
       <use xlink:href="#LiberationSans-6d" x="127.832031"/>
       <use xlink:href="#LiberationSans-62" x="211.132812"/>
       <use xlink:href="#LiberationSans-65" x="266.748047"/>
       <use xlink:href="#LiberationSans-72" x="322.363281"/>
       <use xlink:href="#LiberationSans-20" x="355.664062"/>
       <use xlink:href="#LiberationSans-6f" x="383.447266"/>
       <use xlink:href="#LiberationSans-66" x="439.0625"/>
      </g>
      <!-- neurons -->
      <g style="fill: #262626" transform="translate(521.116094 296.768719) scale(0.11 -0.11)">
       <defs>
        <path id="LiberationSans-6e" d="M 2578 0 
L 2578 2144 
Q 2578 2478 2512 2662 
Q 2447 2847 2303 2928 
Q 2159 3009 1881 3009 
Q 1475 3009 1240 2731 
Q 1006 2453 1006 1959 
L 1006 0 
L 444 0 
L 444 2659 
Q 444 3250 425 3381 
L 956 3381 
Q 959 3366 962 3297 
Q 966 3228 970 3139 
Q 975 3050 981 2803 
L 991 2803 
Q 1184 3153 1439 3298 
Q 1694 3444 2072 3444 
Q 2628 3444 2886 3167 
Q 3144 2891 3144 2253 
L 3144 0 
L 2578 0 
z
" transform="scale(0.015625)"/>
        <path id="LiberationSans-73" d="M 2969 934 
Q 2969 456 2608 196 
Q 2247 -63 1597 -63 
Q 966 -63 623 145 
Q 281 353 178 794 
L 675 891 
Q 747 619 972 492 
Q 1197 366 1597 366 
Q 2025 366 2223 497 
Q 2422 628 2422 891 
Q 2422 1091 2284 1216 
Q 2147 1341 1841 1422 
L 1438 1528 
Q 953 1653 748 1773 
Q 544 1894 428 2066 
Q 313 2238 313 2488 
Q 313 2950 642 3192 
Q 972 3434 1603 3434 
Q 2163 3434 2492 3237 
Q 2822 3041 2909 2606 
L 2403 2544 
Q 2356 2769 2151 2889 
Q 1947 3009 1603 3009 
Q 1222 3009 1040 2893 
Q 859 2778 859 2544 
Q 859 2400 934 2306 
Q 1009 2213 1156 2147 
Q 1303 2081 1775 1966 
Q 2222 1853 2419 1758 
Q 2616 1663 2730 1547 
Q 2844 1431 2906 1279 
Q 2969 1128 2969 934 
z
" transform="scale(0.015625)"/>
       </defs>
       <use xlink:href="#LiberationSans-6e"/>
       <use xlink:href="#LiberationSans-65" x="55.615234"/>
       <use xlink:href="#LiberationSans-75" x="111.230469"/>
       <use xlink:href="#LiberationSans-72" x="166.845703"/>
       <use xlink:href="#LiberationSans-6f" x="200.146484"/>
       <use xlink:href="#LiberationSans-6e" x="255.761719"/>
       <use xlink:href="#LiberationSans-73" x="311.376953"/>
      </g>
     </g>
    </g>
    <g id="xtick_2">
     <g id="text_2">
      <!-- Temporal -->
      <g style="fill: #262626" transform="translate(329.107727 24.417905) scale(0.11 -0.11)">
       <defs>
        <path id="LiberationSans-54" d="M 2250 3916 
L 2250 0 
L 1656 0 
L 1656 3916 
L 144 3916 
L 144 4403 
L 3763 4403 
L 3763 3916 
L 2250 3916 
z
" transform="scale(0.015625)"/>
        <path id="LiberationSans-70" d="M 3291 1706 
Q 3291 -63 2047 -63 
Q 1266 -63 997 525 
L 981 525 
Q 994 500 994 -6 
L 994 -1328 
L 431 -1328 
L 431 2691 
Q 431 3213 413 3381 
L 956 3381 
Q 959 3369 965 3292 
Q 972 3216 980 3056 
Q 988 2897 988 2838 
L 1000 2838 
Q 1150 3150 1397 3295 
Q 1644 3441 2047 3441 
Q 2672 3441 2981 3022 
Q 3291 2603 3291 1706 
z
M 2700 1694 
Q 2700 2400 2509 2703 
Q 2319 3006 1903 3006 
Q 1569 3006 1380 2865 
Q 1191 2725 1092 2426 
Q 994 2128 994 1650 
Q 994 984 1206 668 
Q 1419 353 1897 353 
Q 2316 353 2508 661 
Q 2700 969 2700 1694 
z
" transform="scale(0.015625)"/>
        <path id="LiberationSans-61" d="M 1294 -63 
Q 784 -63 528 206 
Q 272 475 272 944 
Q 272 1469 617 1750 
Q 963 2031 1731 2050 
L 2491 2063 
L 2491 2247 
Q 2491 2659 2316 2837 
Q 2141 3016 1766 3016 
Q 1388 3016 1216 2887 
Q 1044 2759 1009 2478 
L 422 2531 
Q 566 3444 1778 3444 
Q 2416 3444 2737 3151 
Q 3059 2859 3059 2306 
L 3059 850 
Q 3059 600 3125 473 
Q 3191 347 3375 347 
Q 3456 347 3559 369 
L 3559 19 
Q 3347 -31 3125 -31 
Q 2813 -31 2670 133 
Q 2528 297 2509 647 
L 2491 647 
Q 2275 259 1989 98 
Q 1703 -63 1294 -63 
z
M 1422 359 
Q 1731 359 1972 500 
Q 2213 641 2352 886 
Q 2491 1131 2491 1391 
L 2491 1669 
L 1875 1656 
Q 1478 1650 1273 1575 
Q 1069 1500 959 1344 
Q 850 1188 850 934 
Q 850 659 998 509 
Q 1147 359 1422 359 
z
" transform="scale(0.015625)"/>
        <path id="LiberationSans-6c" d="M 431 0 
L 431 4638 
L 994 4638 
L 994 0 
L 431 0 
z
" transform="scale(0.015625)"/>
       </defs>
       <use xlink:href="#LiberationSans-54"/>
       <use xlink:href="#LiberationSans-65" x="49.958984"/>
       <use xlink:href="#LiberationSans-6d" x="105.574219"/>
       <use xlink:href="#LiberationSans-70" x="188.875"/>
       <use xlink:href="#LiberationSans-6f" x="244.490234"/>
       <use xlink:href="#LiberationSans-72" x="300.105469"/>
       <use xlink:href="#LiberationSans-61" x="333.40625"/>
       <use xlink:href="#LiberationSans-6c" x="389.021484"/>
      </g>
      <!-- resolution: Hz -->
      <g style="fill: #262626" transform="translate(318.099993 36.26628) scale(0.11 -0.11)">
       <defs>
        <path id="LiberationSans-74" d="M 1731 25 
Q 1453 -50 1163 -50 
Q 488 -50 488 716 
L 488 2972 
L 97 2972 
L 97 3381 
L 509 3381 
L 675 4138 
L 1050 4138 
L 1050 3381 
L 1675 3381 
L 1675 2972 
L 1050 2972 
L 1050 838 
Q 1050 594 1129 495 
Q 1209 397 1406 397 
Q 1519 397 1731 441 
L 1731 25 
z
" transform="scale(0.015625)"/>
        <path id="LiberationSans-69" d="M 428 4100 
L 428 4638 
L 991 4638 
L 991 4100 
L 428 4100 
z
M 428 0 
L 428 3381 
L 991 3381 
L 991 0 
L 428 0 
z
" transform="scale(0.015625)"/>
        <path id="LiberationSans-3a" d="M 584 2734 
L 584 3381 
L 1194 3381 
L 1194 2734 
L 584 2734 
z
M 584 0 
L 584 647 
L 1194 647 
L 1194 0 
L 584 0 
z
" transform="scale(0.015625)"/>
        <path id="LiberationSans-48" d="M 3503 0 
L 3503 2041 
L 1122 2041 
L 1122 0 
L 525 0 
L 525 4403 
L 1122 4403 
L 1122 2541 
L 3503 2541 
L 3503 4403 
L 4100 4403 
L 4100 0 
L 3503 0 
z
" transform="scale(0.015625)"/>
        <path id="LiberationSans-7a" d="M 259 0 
L 259 428 
L 2150 2947 
L 366 2947 
L 366 3381 
L 2816 3381 
L 2816 2953 
L 922 434 
L 2881 434 
L 2881 0 
L 259 0 
z
" transform="scale(0.015625)"/>
       </defs>
       <use xlink:href="#LiberationSans-72"/>
       <use xlink:href="#LiberationSans-65" x="33.300781"/>
       <use xlink:href="#LiberationSans-73" x="88.916016"/>
       <use xlink:href="#LiberationSans-6f" x="138.916016"/>
       <use xlink:href="#LiberationSans-6c" x="194.53125"/>
       <use xlink:href="#LiberationSans-75" x="216.748047"/>
       <use xlink:href="#LiberationSans-74" x="272.363281"/>
       <use xlink:href="#LiberationSans-69" x="300.146484"/>
       <use xlink:href="#LiberationSans-6f" x="322.363281"/>
       <use xlink:href="#LiberationSans-6e" x="377.978516"/>
       <use xlink:href="#LiberationSans-3a" x="433.59375"/>
       <use xlink:href="#LiberationSans-20" x="461.376953"/>
       <use xlink:href="#LiberationSans-48" x="489.160156"/>
       <use xlink:href="#LiberationSans-7a" x="561.376953"/>
      </g>
     </g>
    </g>
    <g id="xtick_3">
     <g id="text_3">
      <!-- Duration single -->
      <g style="fill: #262626" transform="translate(8.799916 123.920982) scale(0.11 -0.11)">
       <defs>
        <path id="LiberationSans-44" d="M 4316 2247 
Q 4316 1566 4050 1055 
Q 3784 544 3296 272 
Q 2809 0 2172 0 
L 525 0 
L 525 4403 
L 1981 4403 
Q 3100 4403 3708 3842 
Q 4316 3281 4316 2247 
z
M 3716 2247 
Q 3716 3066 3267 3495 
Q 2819 3925 1969 3925 
L 1122 3925 
L 1122 478 
L 2103 478 
Q 2588 478 2955 690 
Q 3322 903 3519 1303 
Q 3716 1703 3716 2247 
z
" transform="scale(0.015625)"/>
        <path id="LiberationSans-67" d="M 1713 -1328 
Q 1159 -1328 831 -1111 
Q 503 -894 409 -494 
L 975 -413 
Q 1031 -647 1223 -773 
Q 1416 -900 1728 -900 
Q 2569 -900 2569 84 
L 2569 628 
L 2563 628 
Q 2403 303 2125 139 
Q 1847 -25 1475 -25 
Q 853 -25 561 387 
Q 269 800 269 1684 
Q 269 2581 583 3007 
Q 897 3434 1538 3434 
Q 1897 3434 2161 3270 
Q 2425 3106 2569 2803 
L 2575 2803 
Q 2575 2897 2587 3128 
Q 2600 3359 2613 3381 
L 3147 3381 
Q 3128 3213 3128 2681 
L 3128 97 
Q 3128 -1328 1713 -1328 
z
M 2569 1691 
Q 2569 2103 2456 2401 
Q 2344 2700 2139 2858 
Q 1934 3016 1675 3016 
Q 1244 3016 1047 2703 
Q 850 2391 850 1691 
Q 850 997 1034 694 
Q 1219 391 1666 391 
Q 1931 391 2137 547 
Q 2344 703 2456 995 
Q 2569 1288 2569 1691 
z
" transform="scale(0.015625)"/>
       </defs>
       <use xlink:href="#LiberationSans-44"/>
       <use xlink:href="#LiberationSans-75" x="72.216797"/>
       <use xlink:href="#LiberationSans-72" x="127.832031"/>
       <use xlink:href="#LiberationSans-61" x="161.132812"/>
       <use xlink:href="#LiberationSans-74" x="216.748047"/>
       <use xlink:href="#LiberationSans-69" x="244.53125"/>
       <use xlink:href="#LiberationSans-6f" x="266.748047"/>
       <use xlink:href="#LiberationSans-6e" x="322.363281"/>
       <use xlink:href="#LiberationSans-20" x="377.978516"/>
       <use xlink:href="#LiberationSans-73" x="405.761719"/>
       <use xlink:href="#LiberationSans-69" x="455.761719"/>
       <use xlink:href="#LiberationSans-6e" x="477.978516"/>
       <use xlink:href="#LiberationSans-67" x="533.59375"/>
       <use xlink:href="#LiberationSans-6c" x="589.208984"/>
       <use xlink:href="#LiberationSans-65" x="611.425781"/>
      </g>
      <!-- session min -->
      <g style="fill: #262626" transform="translate(16.447494 135.769357) scale(0.11 -0.11)">
       <use xlink:href="#LiberationSans-73"/>
       <use xlink:href="#LiberationSans-65" x="50"/>
       <use xlink:href="#LiberationSans-73" x="105.615234"/>
       <use xlink:href="#LiberationSans-73" x="155.615234"/>
       <use xlink:href="#LiberationSans-69" x="205.615234"/>
       <use xlink:href="#LiberationSans-6f" x="227.832031"/>
       <use xlink:href="#LiberationSans-6e" x="283.447266"/>
       <use xlink:href="#LiberationSans-20" x="339.0625"/>
       <use xlink:href="#LiberationSans-6d" x="366.845703"/>
       <use xlink:href="#LiberationSans-69" x="450.146484"/>
       <use xlink:href="#LiberationSans-6e" x="472.363281"/>
      </g>
     </g>
    </g>
    <g id="xtick_4">
     <g id="text_4">
      <!-- Duration total -->
      <g style="fill: #262626" transform="translate(12.774525 439.995518) scale(0.11 -0.11)">
       <use xlink:href="#LiberationSans-44"/>
       <use xlink:href="#LiberationSans-75" x="72.216797"/>
       <use xlink:href="#LiberationSans-72" x="127.832031"/>
       <use xlink:href="#LiberationSans-61" x="161.132812"/>
       <use xlink:href="#LiberationSans-74" x="216.748047"/>
       <use xlink:href="#LiberationSans-69" x="244.53125"/>
       <use xlink:href="#LiberationSans-6f" x="266.748047"/>
       <use xlink:href="#LiberationSans-6e" x="322.363281"/>
       <use xlink:href="#LiberationSans-20" x="377.978516"/>
       <use xlink:href="#LiberationSans-74" x="405.761719"/>
       <use xlink:href="#LiberationSans-6f" x="433.544922"/>
       <use xlink:href="#LiberationSans-74" x="489.160156"/>
       <use xlink:href="#LiberationSans-61" x="516.943359"/>
       <use xlink:href="#LiberationSans-6c" x="572.558594"/>
      </g>
      <!-- repeated -->
      <g style="fill: #262626" transform="translate(23.774525 451.843893) scale(0.11 -0.11)">
       <defs>
        <path id="LiberationSans-64" d="M 2566 544 
Q 2409 219 2151 78 
Q 1894 -63 1513 -63 
Q 872 -63 570 368 
Q 269 800 269 1675 
Q 269 3444 1513 3444 
Q 1897 3444 2153 3303 
Q 2409 3163 2566 2856 
L 2572 2856 
L 2566 3234 
L 2566 4638 
L 3128 4638 
L 3128 697 
Q 3128 169 3147 0 
L 2609 0 
Q 2600 50 2589 231 
Q 2578 413 2578 544 
L 2566 544 
z
M 859 1694 
Q 859 984 1046 678 
Q 1234 372 1656 372 
Q 2134 372 2350 703 
Q 2566 1034 2566 1731 
Q 2566 2403 2350 2715 
Q 2134 3028 1663 3028 
Q 1238 3028 1048 2714 
Q 859 2400 859 1694 
z
" transform="scale(0.015625)"/>
       </defs>
       <use xlink:href="#LiberationSans-72"/>
       <use xlink:href="#LiberationSans-65" x="33.300781"/>
       <use xlink:href="#LiberationSans-70" x="88.916016"/>
       <use xlink:href="#LiberationSans-65" x="144.53125"/>
       <use xlink:href="#LiberationSans-61" x="200.146484"/>
       <use xlink:href="#LiberationSans-74" x="255.761719"/>
       <use xlink:href="#LiberationSans-65" x="283.544922"/>
       <use xlink:href="#LiberationSans-64" x="339.160156"/>
      </g>
      <!-- sessions min -->
      <g style="fill: #262626" transform="translate(13.697494 463.692268) scale(0.11 -0.11)">
       <use xlink:href="#LiberationSans-73"/>
       <use xlink:href="#LiberationSans-65" x="50"/>
       <use xlink:href="#LiberationSans-73" x="105.615234"/>
       <use xlink:href="#LiberationSans-73" x="155.615234"/>
       <use xlink:href="#LiberationSans-69" x="205.615234"/>
       <use xlink:href="#LiberationSans-6f" x="227.832031"/>
       <use xlink:href="#LiberationSans-6e" x="283.447266"/>
       <use xlink:href="#LiberationSans-73" x="339.0625"/>
       <use xlink:href="#LiberationSans-20" x="389.0625"/>
       <use xlink:href="#LiberationSans-6d" x="416.845703"/>
       <use xlink:href="#LiberationSans-69" x="500.146484"/>
       <use xlink:href="#LiberationSans-6e" x="522.363281"/>
      </g>
     </g>
    </g>
    <g id="xtick_5">
     <g id="text_5">
      <!-- Resolution in -->
      <g style="fill: #262626" transform="translate(319.928743 545.422783) scale(0.11 -0.11)">
       <defs>
        <path id="LiberationSans-52" d="M 3638 0 
L 2494 1828 
L 1122 1828 
L 1122 0 
L 525 0 
L 525 4403 
L 2597 4403 
Q 3341 4403 3745 4070 
Q 4150 3738 4150 3144 
Q 4150 2653 3864 2318 
Q 3578 1984 3075 1897 
L 4325 0 
L 3638 0 
z
M 3550 3138 
Q 3550 3522 3289 3723 
Q 3028 3925 2538 3925 
L 1122 3925 
L 1122 2300 
L 2563 2300 
Q 3034 2300 3292 2520 
Q 3550 2741 3550 3138 
z
" transform="scale(0.015625)"/>
       </defs>
       <use xlink:href="#LiberationSans-52"/>
       <use xlink:href="#LiberationSans-65" x="72.216797"/>
       <use xlink:href="#LiberationSans-73" x="127.832031"/>
       <use xlink:href="#LiberationSans-6f" x="177.832031"/>
       <use xlink:href="#LiberationSans-6c" x="233.447266"/>
       <use xlink:href="#LiberationSans-75" x="255.664062"/>
       <use xlink:href="#LiberationSans-74" x="311.279297"/>
       <use xlink:href="#LiberationSans-69" x="339.0625"/>
       <use xlink:href="#LiberationSans-6f" x="361.279297"/>
       <use xlink:href="#LiberationSans-6e" x="416.894531"/>
       <use xlink:href="#LiberationSans-20" x="472.509766"/>
       <use xlink:href="#LiberationSans-69" x="500.292969"/>
       <use xlink:href="#LiberationSans-6e" x="522.509766"/>
      </g>
      <!-- µm isotropic -->
      <g style="fill: #262626" transform="translate(321.966321 557.271158) scale(0.11 -0.11)">
       <defs>
        <path id="LiberationSans-b5" d="M 438 -1328 
L 438 3381 
L 1003 3381 
L 1003 1238 
Q 1003 806 1170 589 
Q 1338 372 1709 372 
Q 2109 372 2337 644 
Q 2566 916 2566 1422 
L 2566 3381 
L 3128 3381 
L 3128 831 
Q 3128 594 3184 486 
Q 3241 378 3372 378 
Q 3450 378 3541 403 
L 3541 0 
Q 3338 -63 3188 -63 
Q 2903 -63 2754 84 
Q 2606 231 2591 544 
L 2581 544 
Q 2250 -63 1647 -63 
Q 1438 -63 1267 1 
Q 1097 66 1000 184 
L 1000 -1328 
L 438 -1328 
z
" transform="scale(0.015625)"/>
        <path id="LiberationSans-63" d="M 859 1706 
Q 859 1031 1071 706 
Q 1284 381 1713 381 
Q 2013 381 2214 543 
Q 2416 706 2463 1044 
L 3031 1006 
Q 2966 519 2616 228 
Q 2266 -63 1728 -63 
Q 1019 -63 645 385 
Q 272 834 272 1694 
Q 272 2547 647 2995 
Q 1022 3444 1722 3444 
Q 2241 3444 2583 3175 
Q 2925 2906 3013 2434 
L 2434 2391 
Q 2391 2672 2212 2837 
Q 2034 3003 1706 3003 
Q 1259 3003 1059 2706 
Q 859 2409 859 1706 
z
" transform="scale(0.015625)"/>
       </defs>
       <use xlink:href="#LiberationSans-b5"/>
       <use xlink:href="#LiberationSans-6d" x="57.617188"/>
       <use xlink:href="#LiberationSans-20" x="140.917969"/>
       <use xlink:href="#LiberationSans-69" x="168.701172"/>
       <use xlink:href="#LiberationSans-73" x="190.917969"/>
       <use xlink:href="#LiberationSans-6f" x="240.917969"/>
       <use xlink:href="#LiberationSans-74" x="296.533203"/>
       <use xlink:href="#LiberationSans-72" x="324.316406"/>
       <use xlink:href="#LiberationSans-6f" x="357.617188"/>
       <use xlink:href="#LiberationSans-70" x="413.232422"/>
       <use xlink:href="#LiberationSans-69" x="468.847656"/>
       <use xlink:href="#LiberationSans-63" x="491.064453"/>
      </g>
     </g>
    </g>
   </g>
   <g id="matplotlib.axis_2">
    <g id="ytick_1">
     <g id="line2d_1">
      <path d="M 267.081526 288 
C 267.081526 288 267.081526 288 267.081526 288 
C 267.081526 288 267.081526 288 267.081526 288 
C 267.081526 288 267.081526 288 267.081526 288 
C 267.081526 288 267.081526 288 267.081526 288 
C 267.081526 288 267.081526 288 267.081526 288 
C 267.081526 288 267.081526 288 267.081526 288 
C 267.081526 288 267.081526 288 267.081526 288 
C 267.081526 288 267.081526 288 267.081526 288 
C 267.081526 288 267.081526 288 267.081526 288 
C 267.081526 288 267.081526 288 267.081526 288 
C 267.081526 288 267.081526 288 267.081526 288 
C 267.081526 288 267.081526 288 267.081526 288 
C 267.081526 288 267.081526 288 267.081526 288 
C 267.081526 288 267.081526 288 267.081526 288 
C 267.081526 288 267.081526 288 267.081526 288 
C 267.081526 288 267.081526 288 267.081526 288 
" clip-path="url(#p4e8cf6c40d)" style="fill: none; stroke: #262626; stroke-opacity: 0.3; stroke-width: 0.8; stroke-linecap: square"/>
     </g>
    </g>
    <g id="ytick_2">
     <g id="line2d_2">
      <path d="M 310.763221 288 
C 310.763221 282.263772 309.633309 276.583322 307.43815 271.283739 
C 305.24299 265.984156 302.025274 261.168503 297.969149 257.112377 
C 293.913023 253.056252 289.09737 249.838535 283.797787 247.643376 
C 278.498204 245.448217 272.817754 244.318305 267.081526 244.318305 
C 261.345298 244.318305 255.664848 245.448217 250.365265 247.643376 
C 245.065682 249.838535 240.250029 253.056252 236.193903 257.112377 
C 232.137778 261.168503 228.920061 265.984156 226.724902 271.283739 
C 224.529743 276.583322 223.399831 282.263772 223.399831 288 
C 223.399831 293.736228 224.529743 299.416678 226.724902 304.716261 
C 228.920061 310.015844 232.137778 314.831497 236.193903 318.887623 
C 240.250029 322.943748 245.065682 326.161465 250.365265 328.356624 
C 255.664848 330.551783 261.345298 331.681695 267.081526 331.681695 
C 272.817754 331.681695 278.498204 330.551783 283.797787 328.356624 
C 289.09737 326.161465 293.913023 322.943748 297.969149 318.887623 
C 302.025274 314.831497 305.24299 310.015844 307.43815 304.716261 
C 309.633309 299.416678 310.763221 293.736228 310.763221 288 
" clip-path="url(#p4e8cf6c40d)" style="fill: none; stroke: #262626; stroke-opacity: 0.3; stroke-width: 0.8; stroke-linecap: square"/>
     </g>
    </g>
    <g id="ytick_3">
     <g id="line2d_3">
      <path d="M 354.444916 288 
C 354.444916 276.527545 352.185092 265.166645 347.794773 254.567478 
C 343.404455 243.968312 336.969022 234.337006 328.856771 226.224755 
C 320.74452 218.112504 311.113214 211.677071 300.514048 207.286752 
C 289.914881 202.896434 278.553981 200.63661 267.081526 200.63661 
C 255.609071 200.63661 244.248171 202.896434 233.649004 207.286752 
C 223.049838 211.677071 213.418532 218.112504 205.306281 226.224755 
C 197.19403 234.337006 190.758597 243.968312 186.368278 254.567478 
C 181.97796 265.166645 179.718136 276.527545 179.718136 288 
C 179.718136 299.472455 181.97796 310.833355 186.368278 321.432522 
C 190.758597 332.031688 197.19403 341.662994 205.306281 349.775245 
C 213.418532 357.887496 223.049838 364.322929 233.649004 368.713248 
C 244.248171 373.103566 255.609071 375.36339 267.081526 375.36339 
C 278.553981 375.36339 289.914881 373.103566 300.514048 368.713248 
C 311.113214 364.322929 320.74452 357.887496 328.856771 349.775245 
C 336.969022 341.662994 343.404455 332.031688 347.794773 321.432522 
C 352.185092 310.833355 354.444916 299.472455 354.444916 288 
" clip-path="url(#p4e8cf6c40d)" style="fill: none; stroke: #262626; stroke-opacity: 0.3; stroke-width: 0.8; stroke-linecap: square"/>
     </g>
    </g>
    <g id="ytick_4">
     <g id="line2d_4">
      <path d="M 398.12661 288 
C 398.12661 270.791317 394.736875 253.749967 388.151397 237.851217 
C 381.565919 221.952467 371.91277 207.505508 359.744394 195.337132 
C 347.576017 183.168756 333.129058 173.515606 317.230309 166.930129 
C 301.331559 160.344651 284.290209 156.954916 267.081526 156.954916 
C 249.872843 156.954916 232.831493 160.344651 216.932743 166.930129 
C 201.033993 173.515606 186.587034 183.168756 174.418658 195.337132 
C 162.250282 207.505508 152.597132 221.952467 146.011655 237.851217 
C 139.426177 253.749967 136.036441 270.791317 136.036441 288 
C 136.036441 305.208683 139.426177 322.250033 146.011655 338.148783 
C 152.597132 354.047533 162.250282 368.494492 174.418658 380.662868 
C 186.587034 392.831244 201.033993 402.484394 216.932743 409.069871 
C 232.831493 415.655349 249.872843 419.045084 267.081526 419.045084 
C 284.290209 419.045084 301.331559 415.655349 317.230309 409.069871 
C 333.129058 402.484394 347.576017 392.831244 359.744394 380.662868 
C 371.91277 368.494492 381.565919 354.047533 388.151397 338.148783 
C 394.736875 322.250033 398.12661 305.208683 398.12661 288 
" clip-path="url(#p4e8cf6c40d)" style="fill: none; stroke: #262626; stroke-opacity: 0.3; stroke-width: 0.8; stroke-linecap: square"/>
     </g>
    </g>
    <g id="ytick_5">
     <g id="line2d_5">
      <path d="M 441.808305 288 
C 441.808305 265.05509 437.288658 242.33329 428.508021 221.134956 
C 419.727384 199.936623 406.856518 180.674011 390.632016 164.44951 
C 374.407515 148.225008 355.144903 135.354142 333.94657 126.573505 
C 312.748236 117.792868 290.026436 113.273221 267.081526 113.273221 
C 244.136616 113.273221 221.414815 117.792868 200.216482 126.573505 
C 179.018149 135.354142 159.755537 148.225008 143.531035 164.44951 
C 127.306534 180.674011 114.435668 199.936623 105.655031 221.134956 
C 96.874394 242.33329 92.354747 265.05509 92.354747 288 
C 92.354747 310.94491 96.874394 333.66671 105.655031 354.865044 
C 114.435668 376.063377 127.306534 395.325989 143.531035 411.55049 
C 159.755537 427.774992 179.018149 440.645858 200.216482 449.426495 
C 221.414815 458.207132 244.136616 462.726779 267.081526 462.726779 
C 290.026436 462.726779 312.748236 458.207132 333.94657 449.426495 
C 355.144903 440.645858 374.407515 427.774992 390.632016 411.55049 
C 406.856518 395.325989 419.727384 376.063377 428.508021 354.865044 
C 437.288658 333.66671 441.808305 310.94491 441.808305 288 
" clip-path="url(#p4e8cf6c40d)" style="fill: none; stroke: #262626; stroke-opacity: 0.3; stroke-width: 0.8; stroke-linecap: square"/>
     </g>
    </g>
   </g>
   <g id="line2d_6">
    <path d="M 485.49 288 
L 485.050273 274.147678 
L 483.732863 260.351135 
L 481.543074 246.665925 
L 478.489725 233.147151 
L 474.585109 219.849251 
L 469.84495 206.82577 
L 464.288333 194.129149 
L 457.937635 181.810513 
L 450.818426 169.919464 
L 442.959374 158.503884 
L 434.392124 147.609739 
L 425.151173 137.280896 
L 415.273731 127.558946 
L 404.799572 118.483035 
L 393.77087 110.089709 
L 382.232036 102.412765 
L 370.229531 95.483116 
L 357.811685 89.328664 
L 345.028501 83.974191 
L 331.931452 79.441259 
L 318.573275 75.748118 
L 305.007759 72.909641 
L 291.289528 70.937258 
L 277.47382 69.838909 
L 263.616265 69.619018 
L 249.772664 70.27847 
L 235.998759 71.814609 
L 222.350014 74.221251 
L 208.881387 77.488705 
L 195.647111 81.603813 
L 182.700477 86.550006 
L 170.093615 92.307367 
L 157.877289 98.852713 
L 146.10069 106.159688 
L 134.811238 114.198871 
L 124.054392 122.937889 
L 113.873466 132.341554 
L 104.309455 142.372 
L 95.400869 152.988839 
L 87.183581 164.14932 
L 79.690678 175.808505 
L 72.952332 187.919445 
L 66.995676 200.433374 
L 61.844695 213.299902 
L 57.52013 226.467222 
L 54.039395 239.882313 
L 51.416505 253.491156 
L 49.662022 267.238955 
L 48.783011 281.07035 
L 48.783011 294.92965 
L 49.662022 308.761045 
L 51.416505 322.508844 
L 54.039395 336.117687 
L 57.52013 349.532778 
L 61.844695 362.700098 
L 66.995676 375.566626 
L 72.952332 388.080555 
L 79.690678 400.191495 
L 87.183581 411.85068 
L 95.400869 423.011161 
L 104.309455 433.628 
L 113.873466 443.658446 
L 124.054392 453.062111 
L 134.811238 461.801129 
L 146.10069 469.840312 
L 157.877289 477.147287 
L 170.093615 483.692633 
L 182.700477 489.449994 
L 195.647111 494.396187 
L 208.881387 498.511295 
L 222.350014 501.778749 
L 235.998759 504.185391 
L 249.772664 505.72153 
L 263.616265 506.380982 
L 277.47382 506.161091 
L 291.289528 505.062742 
L 305.007759 503.090359 
L 318.573275 500.251882 
L 331.931452 496.558741 
L 345.028501 492.025809 
L 357.811685 486.671336 
L 370.229531 480.516884 
L 382.232036 473.587235 
L 393.77087 465.910291 
L 404.799572 457.516965 
L 415.273731 448.441054 
L 425.151173 438.719104 
L 434.392124 428.390261 
L 442.959374 417.496116 
L 450.818426 406.080536 
L 457.937635 394.189487 
L 464.288333 381.870851 
L 469.84495 369.17423 
L 474.585109 356.150749 
L 478.489725 342.852849 
L 481.543074 329.334075 
L 483.732863 315.648865 
L 485.050273 301.852322 
L 485.49 288 
" clip-path="url(#p4e8cf6c40d)" style="fill: none; stroke: #262626; stroke-opacity: 0.301961; stroke-width: 2; stroke-linecap: square"/>
   </g>
   <g id="line2d_7">
    <path d="M 267.081526 288 
L 485.49 288 
" clip-path="url(#p4e8cf6c40d)" style="fill: none; stroke: #262626; stroke-opacity: 0.301961; stroke-linecap: square"/>
   </g>
   <g id="line2d_8">
    <path d="M 267.081526 288 
L 334.573456 80.281198 
" clip-path="url(#p4e8cf6c40d)" style="fill: none; stroke: #262626; stroke-opacity: 0.301961; stroke-linecap: square"/>
   </g>
   <g id="line2d_9">
    <path d="M 267.081526 288 
L 90.385359 159.62272 
" clip-path="url(#p4e8cf6c40d)" style="fill: none; stroke: #262626; stroke-opacity: 0.301961; stroke-linecap: square"/>
   </g>
   <g id="line2d_10">
    <path d="M 267.081526 288 
L 90.385359 416.37728 
" clip-path="url(#p4e8cf6c40d)" style="fill: none; stroke: #262626; stroke-opacity: 0.301961; stroke-linecap: square"/>
   </g>
   <g id="line2d_11">
    <path d="M 267.081526 288 
L 334.573456 495.718802 
" clip-path="url(#p4e8cf6c40d)" style="fill: none; stroke: #262626; stroke-opacity: 0.301961; stroke-linecap: square"/>
   </g>
   <g id="text_6">
    <!-- $10^{1}$ -->
    <g style="fill: #262626" transform="translate(315.067729 285.925) scale(0.1 -0.1)">
     <defs>
      <path id="DejaVuSans-31" d="M 794 531 
L 1825 531 
L 1825 4091 
L 703 3866 
L 703 4441 
L 1819 4666 
L 2450 4666 
L 2450 531 
L 3481 531 
L 3481 0 
L 794 0 
L 794 531 
z
" transform="scale(0.015625)"/>
      <path id="DejaVuSans-30" d="M 2034 4250 
Q 1547 4250 1301 3770 
Q 1056 3291 1056 2328 
Q 1056 1369 1301 889 
Q 1547 409 2034 409 
Q 2525 409 2770 889 
Q 3016 1369 3016 2328 
Q 3016 3291 2770 3770 
Q 2525 4250 2034 4250 
z
M 2034 4750 
Q 2819 4750 3233 4129 
Q 3647 3509 3647 2328 
Q 3647 1150 3233 529 
Q 2819 -91 2034 -91 
Q 1250 -91 836 529 
Q 422 1150 422 2328 
Q 422 3509 836 4129 
Q 1250 4750 2034 4750 
z
" transform="scale(0.015625)"/>
     </defs>
     <use xlink:href="#DejaVuSans-31" transform="translate(0 0.684375)"/>
     <use xlink:href="#DejaVuSans-30" transform="translate(63.623047 0.684375)"/>
     <use xlink:href="#DejaVuSans-31" transform="translate(128.203125 38.965625) scale(0.7)"/>
    </g>
   </g>
   <g id="text_7">
    <!-- $10^{2}$ -->
    <g style="fill: #262626" transform="translate(358.749424 285.925) scale(0.1 -0.1)">
     <defs>
      <path id="DejaVuSans-32" d="M 1228 531 
L 3431 531 
L 3431 0 
L 469 0 
L 469 531 
Q 828 903 1448 1529 
Q 2069 2156 2228 2338 
Q 2531 2678 2651 2914 
Q 2772 3150 2772 3378 
Q 2772 3750 2511 3984 
Q 2250 4219 1831 4219 
Q 1534 4219 1204 4116 
Q 875 4013 500 3803 
L 500 4441 
Q 881 4594 1212 4672 
Q 1544 4750 1819 4750 
Q 2544 4750 2975 4387 
Q 3406 4025 3406 3419 
Q 3406 3131 3298 2873 
Q 3191 2616 2906 2266 
Q 2828 2175 2409 1742 
Q 1991 1309 1228 531 
z
" transform="scale(0.015625)"/>
     </defs>
     <use xlink:href="#DejaVuSans-31" transform="translate(0 0.765625)"/>
     <use xlink:href="#DejaVuSans-30" transform="translate(63.623047 0.765625)"/>
     <use xlink:href="#DejaVuSans-32" transform="translate(128.203125 39.046875) scale(0.7)"/>
    </g>
   </g>
   <g id="text_8">
    <!-- $10^{3}$ -->
    <g style="fill: #262626" transform="translate(402.431119 285.925) scale(0.1 -0.1)">
     <defs>
      <path id="DejaVuSans-33" d="M 2597 2516 
Q 3050 2419 3304 2112 
Q 3559 1806 3559 1356 
Q 3559 666 3084 287 
Q 2609 -91 1734 -91 
Q 1441 -91 1130 -33 
Q 819 25 488 141 
L 488 750 
Q 750 597 1062 519 
Q 1375 441 1716 441 
Q 2309 441 2620 675 
Q 2931 909 2931 1356 
Q 2931 1769 2642 2001 
Q 2353 2234 1838 2234 
L 1294 2234 
L 1294 2753 
L 1863 2753 
Q 2328 2753 2575 2939 
Q 2822 3125 2822 3475 
Q 2822 3834 2567 4026 
Q 2313 4219 1838 4219 
Q 1578 4219 1281 4162 
Q 984 4106 628 3988 
L 628 4550 
Q 988 4650 1302 4700 
Q 1616 4750 1894 4750 
Q 2613 4750 3031 4423 
Q 3450 4097 3450 3541 
Q 3450 3153 3228 2886 
Q 3006 2619 2597 2516 
z
" transform="scale(0.015625)"/>
     </defs>
     <use xlink:href="#DejaVuSans-31" transform="translate(0 0.765625)"/>
     <use xlink:href="#DejaVuSans-30" transform="translate(63.623047 0.765625)"/>
     <use xlink:href="#DejaVuSans-33" transform="translate(128.203125 39.046875) scale(0.7)"/>
    </g>
   </g>
   <g id="text_9">
    <!-- $10^{4}$ -->
    <g style="fill: #262626" transform="translate(446.112814 285.925) scale(0.1 -0.1)">
     <defs>
      <path id="DejaVuSans-34" d="M 2419 4116 
L 825 1625 
L 2419 1625 
L 2419 4116 
z
M 2253 4666 
L 3047 4666 
L 3047 1625 
L 3713 1625 
L 3713 1100 
L 3047 1100 
L 3047 0 
L 2419 0 
L 2419 1100 
L 313 1100 
L 313 1709 
L 2253 4666 
z
" transform="scale(0.015625)"/>
     </defs>
     <use xlink:href="#DejaVuSans-31" transform="translate(0 0.684375)"/>
     <use xlink:href="#DejaVuSans-30" transform="translate(63.623047 0.684375)"/>
     <use xlink:href="#DejaVuSans-34" transform="translate(128.203125 38.965625) scale(0.7)"/>
    </g>
   </g>
   <g id="text_10">
    <!-- $10^{5}$ -->
    <g style="fill: #262626" transform="translate(489.794508 285.925) scale(0.1 -0.1)">
     <defs>
      <path id="DejaVuSans-35" d="M 691 4666 
L 3169 4666 
L 3169 4134 
L 1269 4134 
L 1269 2991 
Q 1406 3038 1543 3061 
Q 1681 3084 1819 3084 
Q 2600 3084 3056 2656 
Q 3513 2228 3513 1497 
Q 3513 744 3044 326 
Q 2575 -91 1722 -91 
Q 1428 -91 1123 -41 
Q 819 9 494 109 
L 494 744 
Q 775 591 1075 516 
Q 1375 441 1709 441 
Q 2250 441 2565 725 
Q 2881 1009 2881 1497 
Q 2881 1984 2565 2268 
Q 2250 2553 1709 2553 
Q 1456 2553 1204 2497 
Q 953 2441 691 2322 
L 691 4666 
z
" transform="scale(0.015625)"/>
     </defs>
     <use xlink:href="#DejaVuSans-31" transform="translate(0 0.684375)"/>
     <use xlink:href="#DejaVuSans-30" transform="translate(63.623047 0.684375)"/>
     <use xlink:href="#DejaVuSans-35" transform="translate(128.203125 38.965625) scale(0.7)"/>
    </g>
   </g>
   <g id="text_11">
    <!-- $10^{-1}$ -->
    <g style="fill: #262626" transform="translate(284.629428 241.239986) scale(0.1 -0.1)">
     <defs>
      <path id="DejaVuSans-2212" d="M 678 2272 
L 4684 2272 
L 4684 1741 
L 678 1741 
L 678 2272 
z
" transform="scale(0.015625)"/>
     </defs>
     <use xlink:href="#DejaVuSans-31" transform="translate(0 0.684375)"/>
     <use xlink:href="#DejaVuSans-30" transform="translate(63.623047 0.684375)"/>
     <use xlink:href="#DejaVuSans-2212" transform="translate(128.203125 38.965625) scale(0.7)"/>
     <use xlink:href="#DejaVuSans-31" transform="translate(186.855469 38.965625) scale(0.7)"/>
    </g>
   </g>
   <g id="text_12">
    <!-- $10^{0}$ -->
    <g style="fill: #262626" transform="translate(298.127814 199.696226) scale(0.1 -0.1)">
     <use xlink:href="#DejaVuSans-31" transform="translate(0 0.765625)"/>
     <use xlink:href="#DejaVuSans-30" transform="translate(63.623047 0.765625)"/>
     <use xlink:href="#DejaVuSans-30" transform="translate(128.203125 39.046875) scale(0.7)"/>
    </g>
   </g>
   <g id="text_13">
    <!-- $10^{1}$ -->
    <g style="fill: #262626" transform="translate(311.6262 158.152465) scale(0.1 -0.1)">
     <use xlink:href="#DejaVuSans-31" transform="translate(0 0.684375)"/>
     <use xlink:href="#DejaVuSans-30" transform="translate(63.623047 0.684375)"/>
     <use xlink:href="#DejaVuSans-31" transform="translate(128.203125 38.965625) scale(0.7)"/>
    </g>
   </g>
   <g id="text_14">
    <!-- $10^{2}$ -->
    <g style="fill: #262626" transform="translate(325.124586 116.608705) scale(0.1 -0.1)">
     <use xlink:href="#DejaVuSans-31" transform="translate(0 0.765625)"/>
     <use xlink:href="#DejaVuSans-30" transform="translate(63.623047 0.765625)"/>
     <use xlink:href="#DejaVuSans-32" transform="translate(128.203125 39.046875) scale(0.7)"/>
    </g>
   </g>
   <g id="text_15">
    <!-- $10^{3}$ -->
    <g style="fill: #262626" transform="translate(338.622972 75.064944) scale(0.1 -0.1)">
     <use xlink:href="#DejaVuSans-31" transform="translate(0 0.765625)"/>
     <use xlink:href="#DejaVuSans-30" transform="translate(63.623047 0.765625)"/>
     <use xlink:href="#DejaVuSans-33" transform="translate(128.203125 39.046875) scale(0.7)"/>
    </g>
   </g>
   <g id="text_16">
    <!-- $10^{0}$ -->
    <g style="fill: #262626" transform="translate(221.140522 252.546907) scale(0.1 -0.1)">
     <use xlink:href="#DejaVuSans-31" transform="translate(0 0.765625)"/>
     <use xlink:href="#DejaVuSans-30" transform="translate(63.623047 0.765625)"/>
     <use xlink:href="#DejaVuSans-30" transform="translate(128.203125 39.046875) scale(0.7)"/>
    </g>
   </g>
   <g id="text_17">
    <!-- $10^{1}$ -->
    <g style="fill: #262626" transform="translate(185.801289 226.871451) scale(0.1 -0.1)">
     <use xlink:href="#DejaVuSans-31" transform="translate(0 0.684375)"/>
     <use xlink:href="#DejaVuSans-30" transform="translate(63.623047 0.684375)"/>
     <use xlink:href="#DejaVuSans-31" transform="translate(128.203125 38.965625) scale(0.7)"/>
    </g>
   </g>
   <g id="text_18">
    <!-- $10^{2}$ -->
    <g style="fill: #262626" transform="translate(150.462056 201.195995) scale(0.1 -0.1)">
     <use xlink:href="#DejaVuSans-31" transform="translate(0 0.765625)"/>
     <use xlink:href="#DejaVuSans-30" transform="translate(63.623047 0.765625)"/>
     <use xlink:href="#DejaVuSans-32" transform="translate(128.203125 39.046875) scale(0.7)"/>
    </g>
   </g>
   <g id="text_19">
    <!-- $10^{3}$ -->
    <g style="fill: #262626" transform="translate(115.122822 175.520539) scale(0.1 -0.1)">
     <use xlink:href="#DejaVuSans-31" transform="translate(0 0.765625)"/>
     <use xlink:href="#DejaVuSans-30" transform="translate(63.623047 0.765625)"/>
     <use xlink:href="#DejaVuSans-33" transform="translate(128.203125 39.046875) scale(0.7)"/>
    </g>
   </g>
   <g id="text_20">
    <!-- $10^{4}$ -->
    <g style="fill: #262626" transform="translate(79.783589 149.845083) scale(0.1 -0.1)">
     <use xlink:href="#DejaVuSans-31" transform="translate(0 0.684375)"/>
     <use xlink:href="#DejaVuSans-30" transform="translate(63.623047 0.684375)"/>
     <use xlink:href="#DejaVuSans-34" transform="translate(128.203125 38.965625) scale(0.7)"/>
    </g>
   </g>
   <g id="text_21">
    <!-- $10^{0}$ -->
    <g style="fill: #262626" transform="translate(221.140522 328.624968) scale(0.1 -0.1)">
     <use xlink:href="#DejaVuSans-31" transform="translate(0 0.765625)"/>
     <use xlink:href="#DejaVuSans-30" transform="translate(63.623047 0.765625)"/>
     <use xlink:href="#DejaVuSans-30" transform="translate(128.203125 39.046875) scale(0.7)"/>
    </g>
   </g>
   <g id="text_22">
    <!-- $10^{1}$ -->
    <g style="fill: #262626" transform="translate(185.801289 354.300424) scale(0.1 -0.1)">
     <use xlink:href="#DejaVuSans-31" transform="translate(0 0.684375)"/>
     <use xlink:href="#DejaVuSans-30" transform="translate(63.623047 0.684375)"/>
     <use xlink:href="#DejaVuSans-31" transform="translate(128.203125 38.965625) scale(0.7)"/>
    </g>
   </g>
   <g id="text_23">
    <!-- $10^{2}$ -->
    <g style="fill: #262626" transform="translate(150.462056 379.97588) scale(0.1 -0.1)">
     <use xlink:href="#DejaVuSans-31" transform="translate(0 0.765625)"/>
     <use xlink:href="#DejaVuSans-30" transform="translate(63.623047 0.765625)"/>
     <use xlink:href="#DejaVuSans-32" transform="translate(128.203125 39.046875) scale(0.7)"/>
    </g>
   </g>
   <g id="text_24">
    <!-- $10^{3}$ -->
    <g style="fill: #262626" transform="translate(115.122822 405.651336) scale(0.1 -0.1)">
     <use xlink:href="#DejaVuSans-31" transform="translate(0 0.765625)"/>
     <use xlink:href="#DejaVuSans-30" transform="translate(63.623047 0.765625)"/>
     <use xlink:href="#DejaVuSans-33" transform="translate(128.203125 39.046875) scale(0.7)"/>
    </g>
   </g>
   <g id="text_25">
    <!-- $10^{4}$ -->
    <g style="fill: #262626" transform="translate(79.783589 431.326792) scale(0.1 -0.1)">
     <use xlink:href="#DejaVuSans-31" transform="translate(0 0.684375)"/>
     <use xlink:href="#DejaVuSans-30" transform="translate(63.623047 0.684375)"/>
     <use xlink:href="#DejaVuSans-34" transform="translate(128.203125 38.965625) scale(0.7)"/>
    </g>
   </g>
   <g id="text_26">
    <!-- $10^{5}$ -->
    <g style="fill: #262626" transform="translate(284.629428 339.931889) scale(0.1 -0.1)">
     <use xlink:href="#DejaVuSans-31" transform="translate(0 0.684375)"/>
     <use xlink:href="#DejaVuSans-30" transform="translate(63.623047 0.684375)"/>
     <use xlink:href="#DejaVuSans-35" transform="translate(128.203125 38.965625) scale(0.7)"/>
    </g>
   </g>
   <g id="text_27">
    <!-- $10^{4}$ -->
    <g style="fill: #262626" transform="translate(298.127814 381.475649) scale(0.1 -0.1)">
     <use xlink:href="#DejaVuSans-31" transform="translate(0 0.684375)"/>
     <use xlink:href="#DejaVuSans-30" transform="translate(63.623047 0.684375)"/>
     <use xlink:href="#DejaVuSans-34" transform="translate(128.203125 38.965625) scale(0.7)"/>
    </g>
   </g>
   <g id="text_28">
    <!-- $10^{3}$ -->
    <g style="fill: #262626" transform="translate(311.6262 423.01941) scale(0.1 -0.1)">
     <use xlink:href="#DejaVuSans-31" transform="translate(0 0.765625)"/>
     <use xlink:href="#DejaVuSans-30" transform="translate(63.623047 0.765625)"/>
     <use xlink:href="#DejaVuSans-33" transform="translate(128.203125 39.046875) scale(0.7)"/>
    </g>
   </g>
   <g id="text_29">
    <!-- $10^{2}$ -->
    <g style="fill: #262626" transform="translate(325.124586 464.56317) scale(0.1 -0.1)">
     <use xlink:href="#DejaVuSans-31" transform="translate(0 0.765625)"/>
     <use xlink:href="#DejaVuSans-30" transform="translate(63.623047 0.765625)"/>
     <use xlink:href="#DejaVuSans-32" transform="translate(128.203125 39.046875) scale(0.7)"/>
    </g>
   </g>
   <g id="text_30">
    <!-- $10^{1}$ -->
    <g style="fill: #262626" transform="translate(338.622972 506.106931) scale(0.1 -0.1)">
     <use xlink:href="#DejaVuSans-31" transform="translate(0 0.684375)"/>
     <use xlink:href="#DejaVuSans-30" transform="translate(63.623047 0.684375)"/>
     <use xlink:href="#DejaVuSans-31" transform="translate(128.203125 38.965625) scale(0.7)"/>
    </g>
   </g>
  </g>
 </g>
 <defs>
  <clipPath id="p4e8cf6c40d">
   <path d="M 485.49 288 
C 485.49 259.318862 479.840441 230.916612 468.864645 204.418695 
C 457.888849 177.920779 441.800266 153.842514 421.519639 133.561887 
C 401.239012 113.28126 377.160747 97.192677 350.66283 86.216881 
C 324.164914 75.241085 295.762664 69.591526 267.081526 69.591526 
C 238.400388 69.591526 209.998138 75.241085 183.500221 86.216881 
C 157.002305 97.192677 132.92404 113.28126 112.643413 133.561887 
C 92.362786 153.842514 76.274203 177.920779 65.298407 204.418695 
C 54.322611 230.916612 48.673052 259.318862 48.673052 288 
C 48.673052 316.681138 54.322611 345.083388 65.298407 371.581305 
C 76.274203 398.079221 92.362786 422.157486 112.643413 442.438113 
C 132.92404 462.71874 157.002305 478.807323 183.500221 489.783119 
C 209.998138 500.758915 238.400388 506.408474 267.081526 506.408474 
C 295.762664 506.408474 324.164914 500.758915 350.66283 489.783119 
C 377.160747 478.807323 401.239012 462.71874 421.519639 442.438113 
C 441.800266 422.157486 457.888849 398.079221 468.864645 371.581305 
C 479.840441 345.083388 485.49 316.681138 485.49 288 
M 267.081526 288 
C 267.081526 288 267.081526 288 267.081526 288 
C 267.081526 288 267.081526 288 267.081526 288 
C 267.081526 288 267.081526 288 267.081526 288 
C 267.081526 288 267.081526 288 267.081526 288 
C 267.081526 288 267.081526 288 267.081526 288 
C 267.081526 288 267.081526 288 267.081526 288 
C 267.081526 288 267.081526 288 267.081526 288 
C 267.081526 288 267.081526 288 267.081526 288 
C 267.081526 288 267.081526 288 267.081526 288 
C 267.081526 288 267.081526 288 267.081526 288 
C 267.081526 288 267.081526 288 267.081526 288 
C 267.081526 288 267.081526 288 267.081526 288 
C 267.081526 288 267.081526 288 267.081526 288 
C 267.081526 288 267.081526 288 267.081526 288 
C 267.081526 288 267.081526 288 267.081526 288 
C 267.081526 288 267.081526 288 267.081526 288 
z
"/>
  </clipPath>
 </defs>
</svg>
