<?xml version="1.0" encoding="UTF-8" standalone="no"?><!DOCTYPE svg PUBLIC "-//W3C//DTD SVG 1.1//EN" "http://www.w3.org/Graphics/SVG/1.1/DTD/svg11.dtd"><svg width="100%" height="100%" viewBox="0 0 500 311" version="1.1" xmlns="http://www.w3.org/2000/svg" xmlns:xlink="http://www.w3.org/1999/xlink" xml:space="preserve" xmlns:serif="http://www.serif.com/" style="fill-rule:evenodd;clip-rule:evenodd;stroke-miterlimit:10;"><rect x="222.924" y="215.767" width="21.546" height="21.546" style="fill:#ed7569;"/><rect x="22.632" y="215.767" width="21.546" height="21.546" style="fill:#81c2ff;"/><g transform="matrix(1,0,0,1,-873.761,-787.104)"><text x="1129.97px" y="1024.38px" style="font-family:'ArialMT', 'Arial', sans-serif;font-size:33.333px;">T<tspan x="1149.09px 1156.5px " y="1024.38px 1024.38px ">is</tspan>sue</text><g transform="matrix(33.3333,0,0,33.3333,1331.91,1057.72)"></g><text x="1129.97px" y="1057.72px" style="font-family:'ArialMT', 'Arial', sans-serif;font-size:33.333px;">reconstructed</text></g><g transform="matrix(1,0,0,1,-1026.77,-787.104)"><text x="1081.65px" y="1024.38px" style="font-family:'ArialMT', 'Arial', sans-serif;font-size:33.333px;">Ti<tspan x="1109.42px " y="1024.38px ">s</tspan>sue</text><g transform="matrix(33.3333,0,0,33.3333,1207.65,1054.38)"></g><text x="1081.65px" y="1054.38px" style="font-family:'ArialMT', 'Arial', sans-serif;font-size:33.333px;">scanned</text></g><path d="M179.366,106.642c-0.062,-0.208 -0.379,-0.167 -0.454,0.042c-0.079,0.166 0.008,0.375 0.117,0.541c0.108,0.167 0.25,0.334 0.437,0.375c0.188,0.084 0.425,0.042 0.534,-0.125c0.12,-0.166 0.041,-0.458 -0.117,-0.583c-0.154,-0.167 -0.371,-0.208 -0.579,-0.292" style="fill:none;fill-rule:nonzero;stroke:#ed7569;stroke-width:0.83px;"/><path d="M184.316,111.017c-0.146,-0.125 -0.296,-0.25 -0.483,-0.292c-0.188,-0.041 -0.417,0 -0.483,0.209c-0.067,0.166 0.045,0.375 0.175,0.5c0.266,0.291 0.608,0.541 0.983,0.666c0.067,-0.5 -0.183,-1 -0.608,-1.291" style="fill:none;fill-rule:nonzero;stroke:#ed7569;stroke-width:0.83px;"/><path d="M168.862,83.225l0,77.042" style="fill:none;fill-rule:nonzero;stroke:#8d8d8d;stroke-width:1.04px;"/><path d="M186.304,83.225l-0,77.042" style="fill:none;fill-rule:nonzero;stroke:#8d8d8d;stroke-width:1.04px;"/><path d="M212.145,83.225l0,77.042" style="fill:none;fill-rule:nonzero;stroke:#8d8d8d;stroke-width:1.04px;"/><path d="M240.379,83.225l-0,77.042" style="fill:none;fill-rule:nonzero;stroke:#8d8d8d;stroke-width:1.04px;"/><path d="M266.212,83.225l0,77.042" style="fill:none;fill-rule:nonzero;stroke:#8d8d8d;stroke-width:1.04px;"/><path d="M284.87,83.225l0,77.042" style="fill:none;fill-rule:nonzero;stroke:#8d8d8d;stroke-width:1.04px;"/><path d="M302.487,83.225l0,77.042" style="fill:none;fill-rule:nonzero;stroke:#8d8d8d;stroke-width:1.04px;"/><path d="M303.704,133.517c-0.134,-0.333 -0.046,-0.708 0.104,-1.042c0.146,-0.375 0.35,-0.666 0.454,-1.041c0.254,-0.875 -0.187,-1.834 -0.617,-2.667" style="fill:none;fill-rule:nonzero;stroke:#ed7569;stroke-width:0.83px;"/><path d="M211.983,84.684c-4.404,-0 -8.538,0.833 -12.125,1.916c-12.95,4 -24.35,18.75 -29.871,26.5c-5.596,7.834 -14.437,15.5 -18.729,17.834c-4.667,2.541 -14.729,5.083 -20.242,8.291c-6.696,3.917 -1.279,3.375 5.829,3.792c1.542,0.083 3.15,0.167 4.867,0.167c6.213,-0 13.842,-1.084 24.746,-7c10.783,-5.875 15.854,-12.709 19.371,-17.042c4.996,-6.125 13.946,-15.75 23.246,-15.75c0.133,0 0.262,0.042 0.395,0.042c14.584,0.416 18.855,10.541 25.092,18.833c9.658,12.875 17.204,23.458 38.258,23.458l0.188,0c8.771,0 18.579,-3.958 24.383,-7.458c5.804,-3.542 29.309,-25.875 31.496,-27.292c1.146,-0.708 2.188,-1 3.121,-1c2.046,0 3.558,1.334 4.375,2.292c0.629,0.708 1.958,2.5 1.717,3.417c-0.209,0.791 -1.146,2.333 -1.146,2.333l0.008,0c0.158,0 3.229,-0.042 2.283,-3.708c-0.975,-3.75 -3.166,-7 -9.67,-7.292l-0.513,0c-9.479,0 -24.217,11.167 -29.696,14.208c-5.079,2.834 -15.979,7.042 -26.116,7.042c-2.58,0 -5.117,-0.25 -7.492,-0.917c-11.692,-3.125 -16.358,-17.708 -28.979,-31.291c-8.104,-8.667 -16.892,-11.375 -24.796,-11.375m-0,0.583c9.242,0 17.442,3.75 24.371,11.208c4.6,4.917 8.191,10.084 11.362,14.625c5.517,7.917 10.284,14.792 17.892,16.834c2.3,0.625 4.871,0.916 7.642,0.916c10.766,0 21.975,-4.625 26.395,-7.125c1.213,-0.666 2.875,-1.708 4.796,-2.958c6.921,-4.458 17.384,-11.208 24.621,-11.208c0.163,-0 0.325,0.041 0.488,0.041c2.887,0.125 5.029,0.834 6.55,2.209c1.22,1.083 2.041,2.541 2.583,4.625c0.267,1.041 0.208,1.833 -0.175,2.333c-0.108,0.125 -0.238,0.25 -0.375,0.333c0.221,-0.416 0.433,-0.916 0.525,-1.25c0.354,-1.375 -1.471,-3.541 -1.842,-3.958c-0.991,-1.167 -2.633,-2.5 -4.808,-2.5c-1.133,0 -2.288,0.375 -3.433,1.125c-0.8,0.5 -3.821,3.208 -9.088,8c-7.917,7.208 -18.758,17.042 -22.396,19.25c-5.604,3.375 -15.275,7.375 -24.083,7.375l-0.188,0c-20.387,0 -27.841,-9.917 -37.275,-22.542l-0.52,-0.666c-0.984,-1.334 -1.934,-2.709 -2.855,-4.042c-4.975,-7.208 -10.12,-14.667 -22.683,-15.042l-0.412,0c-7.13,0 -15.1,5.334 -23.696,15.959c-0.229,0.291 -0.467,0.583 -0.713,0.875c-3.387,4.208 -8.508,10.583 -18.483,15.958c-11.342,6.167 -19.033,6.958 -24.471,6.958c-1.712,0 -3.325,-0.083 -4.833,-0.166c-1.113,-0.084 -2.204,-0.125 -3.167,-0.167c-2.062,-0.042 -4.608,-0.167 -5.137,-0.5c0.104,-0.208 0.583,-0.75 2.733,-2.042c2.967,-1.708 7.246,-3.25 11.387,-4.708c3.438,-1.25 6.68,-2.417 8.838,-3.583c5.825,-3.167 14.65,-12.042 18.925,-18c10.421,-14.584 20.367,-23.417 29.571,-26.25c4.133,-1.292 8.154,-1.917 11.954,-1.917" style="fill:#81c2ff;fill-rule:nonzero;"/><path d="M141.612,140.392c-1.021,-0.958 0.579,-1.625 1.496,-1.917c1.033,-0.333 2.137,-0.416 3.225,-0.5c2.912,-0.208 5.721,0.834 8.642,0.625c8.587,-0.583 15.616,-6.708 21.566,-12.833c5.609,-5.708 10.409,-12.292 16.592,-17.417c6.179,-5.125 14.275,-8.75 22.15,-7.208c7.3,1.458 13.062,7.083 17.479,13.083c4.417,5.959 8,12.667 13.304,17.875c6.671,6.584 15.925,10.459 25.284,10.584c9.362,0.166 18.729,-3.417 25.6,-9.792c1.791,0.625 3.875,0.417 5.483,-0.583c1.175,-0.709 2.083,-1.792 2.967,-2.875c1.433,-1.709 2.866,-3.459 4.304,-5.167c1.333,-1.583 2.75,-3.25 4.687,-4.042c1.1,-0.458 2.054,-1.375 1.779,-2.541c-0.15,-0.667 -0.75,-1.125 -1.4,-1.292c-0.645,-0.167 -1.333,0 -1.958,0.208c-2.554,0.959 -4.154,3.459 -5.429,5.875c-1.329,2.5 -2.5,5.125 -3.508,7.792" style="fill:none;fill-rule:nonzero;stroke:#ed7569;stroke-width:2.08px;"/><path d="M150.75,136.392c-0.788,0.333 -1.796,-0.583 -1.646,-1.167c0.15,-0.583 -1.354,0.25 -1.692,0.5c-0.337,0.25 -4.717,2.125 -5.533,2.709c-0.813,0.583 -3.525,1.708 -4.488,1.833c-0.966,0.083 0.629,-1 1.392,-1.542c1.025,-0.708 11.767,-5.583 11.904,-5.208c0.138,0.417 -0.537,1.375 0.2,1.583c0.733,0.167 0.65,0.959 -0.137,1.292m26.854,-16.375c-1.096,0.75 -12.488,3 -18.025,8.333c-0.542,0.542 -2.95,4.125 -4.175,4.167c-1.225,0.042 -2.113,0.917 -2.792,0.25c-0.679,-0.667 -3.012,0.083 -4.083,0.667c-1.075,0.541 -13.971,6.666 -14.067,7.291c-0.092,0.625 -0.771,1.625 0.8,1.959c0,-0 5.408,-1.834 7.013,-2.209c1.6,-0.416 8.133,-1.708 9.8,-2.5c1.662,-0.833 2.212,-1.916 4.587,-1.791c2.375,0.166 2.221,1.75 3.5,1.208c1.283,-0.5 0.258,-1.625 0.258,-1.625c0,0 2.121,-0.333 1.892,-1.125c-0.229,-0.792 0.854,0.375 0.75,-0.75c-0.104,-1.083 -1.042,-1.833 -0.446,-2c0.6,-0.167 1.675,-0.125 1.709,0.208c0.033,0.375 -1.467,1.834 -0.525,2.042c0.941,0.208 2.458,0.542 2.462,-0.5c0.008,-1 -1.346,-1.25 -1.379,-1.583c-0.033,-0.375 0.021,-1.459 0.021,-1.459c-0,0 1.296,-0.375 1.725,-0.166c0.429,0.25 1.141,1.791 1.091,2.375c-0.05,0.583 0.338,0.875 0.496,0.375c0.154,-0.542 -0.346,-2.625 -0.733,-2.917c-0.388,-0.333 -2.342,-0.375 -2.321,-0.708c0.025,-0.292 1.279,-1.167 2.446,-1.334c1.162,-0.166 5.146,0.292 7.246,-0.75c2.1,-1.083 11.421,-11.958 14.037,-15.208c0.613,-0.792 -3.058,2.125 -11.287,7.75" style="fill:#ed7569;fill-rule:nonzero;stroke:#000;stroke-width:1.04px;stroke-linejoin:round;"/><path d="M179.158,102.267c5.3,1.833 9.05,7.417 8.767,13.042" style="fill:none;fill-rule:nonzero;stroke:#ed7569;stroke-width:0.83px;"/><path d="M157.345,130.1c1.725,-1.5 3.446,-3 5.171,-4.458c4.367,-3.792 8.784,-7.667 12.071,-12.417c1.471,-2.125 2.725,-4.416 4.621,-6.166c1.9,-1.75 4.683,-2.875 7.096,-1.959" style="fill:none;fill-rule:nonzero;stroke:#ed7569;stroke-width:0.83px;"/><path d="M187.654,104.017c-0.438,0.042 -0.875,0.25 -1.129,0.625c-0.255,0.375 -0.271,0.917 0.033,1.208c0.267,0.292 0.742,0.334 1.075,0.125c0.337,-0.166 0.525,-0.583 0.483,-1c-0.037,-0.375 -0.283,-0.708 -0.616,-0.916" style="fill:#ed7569;fill-rule:nonzero;"/><path d="M252.558,117.725c-1.192,-3.291 -4.896,-5.458 -8.342,-4.875c-2.225,0.375 -4.183,1.709 -5.696,3.375c-1.508,1.667 -2.625,3.667 -3.725,5.625" style="fill:none;fill-rule:nonzero;stroke:#ed7569;stroke-width:0.83px;"/><path d="M266.741,144.225c-1.15,-1.583 -1.529,-3.708 -1.012,-5.625c0.512,-1.875 0.983,-3.625 1.366,-5.416c0.092,-0.417 0.263,-0.792 0.146,-1.167c-0.133,-0.458 -0.504,-0.917 -0.729,-1.333c-0.487,-0.875 -0.987,-1.834 -0.908,-2.834" style="fill:none;fill-rule:nonzero;stroke:#ed7569;stroke-width:0.83px;"/><path d="M267.279,132.392c0.291,-0.833 0.871,-1.583 1.612,-2.041c0.363,-0.25 0.767,-0.417 1.063,-0.75c0.291,-0.334 0.433,-0.834 0.175,-1.209" style="fill:none;fill-rule:nonzero;stroke:#ed7569;stroke-width:0.83px;"/><path d="M220.8,95.85c-0,0.417 -0.496,0.75 -1.109,0.75c-0.612,0 -1.108,-0.333 -1.108,-0.75c-0,-0.458 0.496,-0.791 1.108,-0.791c0.613,-0 1.109,0.333 1.109,0.791" style="fill:#ed7569;fill-rule:nonzero;"/><path d="M301.341,126.225c-9.116,2.834 -18.625,4.125 -28.083,5.417c-3.442,0.458 -6.983,0.917 -10.358,0.125c-6.413,-1.583 -10.813,-7.292 -14.675,-12.625c-3.346,-4.667 -6.688,-9.292 -10.03,-13.917c-3.3,-4.541 -6.654,-9.166 -11.087,-12.666c-0,-0 -11.275,-8.209 -25.833,-2.084c-14.559,6.167 -27.621,32 -27.621,32c6.271,-3.583 11.721,-8.625 15.829,-14.583c2.296,-3.333 4.221,-7 7.212,-9.708c5.059,-4.584 12.984,-5.667 19.1,-2.667c0.38,0.208 2.367,0.208 2.788,0.292" style="fill:none;fill-rule:nonzero;stroke:#ed7569;stroke-width:0.83px;"/><path d="M222.462,105.892c-0.062,-0.209 -0.379,-0.167 -0.454,0.041c-0.079,0.167 0.008,0.375 0.117,0.542c0.108,0.167 0.25,0.333 0.437,0.375c0.188,0.083 0.425,0.042 0.533,-0.125c0.121,-0.167 0.042,-0.458 -0.116,-0.583c-0.159,-0.167 -0.371,-0.209 -0.579,-0.292" style="fill:none;fill-rule:nonzero;stroke:#ed7569;stroke-width:0.83px;"/><path d="M227.412,110.267c-0.146,-0.125 -0.296,-0.25 -0.483,-0.292c-0.188,-0.041 -0.417,0 -0.484,0.209c-0.066,0.166 0.046,0.375 0.175,0.5c0.267,0.291 0.609,0.541 0.984,0.666c0.066,-0.5 -0.184,-1 -0.609,-1.291" style="fill:none;fill-rule:nonzero;stroke:#ed7569;stroke-width:0.83px;"/><path d="M232.241,116.434l-0.858,-0.209c-0.025,0.292 0.033,0.625 0.167,0.875c0.066,0.167 0.154,0.292 0.287,0.375c0.129,0.084 0.308,0.084 0.433,0c0.155,-0.125 0.175,-0.375 0.092,-0.541c-0.079,-0.167 -0.233,-0.292 -0.379,-0.417" style="fill:none;fill-rule:nonzero;stroke:#ed7569;stroke-width:0.83px;"/><path d="M240.179,127.475c-0.25,-0.25 -0.609,-0.375 -0.95,-0.333c-0.129,0.667 0.421,1.375 1.1,1.458c0.129,-0.458 -0.009,-0.958 -0.346,-1.25" style="fill:none;fill-rule:nonzero;stroke:#ed7569;stroke-width:0.83px;"/></svg>