<?xml version="1.0" encoding="utf-8" standalone="no"?>
<!DOCTYPE svg PUBLIC "-//W3C//DTD SVG 1.1//EN"
  "http://www.w3.org/Graphics/SVG/1.1/DTD/svg11.dtd">
<svg xmlns:xlink="http://www.w3.org/1999/xlink" width="713.987369pt" height="741.958594pt" viewBox="0 0 713.987369 741.958594" xmlns="http://www.w3.org/2000/svg" version="1.1">
 <metadata>
  <rdf:RDF xmlns:dc="http://purl.org/dc/elements/1.1/" xmlns:cc="http://creativecommons.org/ns#" xmlns:rdf="http://www.w3.org/1999/02/22-rdf-syntax-ns#">
   <cc:Work>
    <dc:type rdf:resource="http://purl.org/dc/dcmitype/StillImage"/>
    <dc:date>2026-01-23T12:55:51.599158</dc:date>
    <dc:format>image/svg+xml</dc:format>
    <dc:creator>
     <cc:Agent>
      <dc:title>Matplotlib v3.9.4, https://matplotlib.org/</dc:title>
     </cc:Agent>
    </dc:creator>
   </cc:Work>
  </rdf:RDF>
 </metadata>
 <defs>
  <style type="text/css">*{stroke-linejoin: round; stroke-linecap: butt}</style>
 </defs>
 <g id="figure_1">
  <g id="patch_1">
   <path d="M 0 741.958594 
L 713.987369 741.958594 
L 713.987369 0 
L 0 0 
z
" style="fill: #ffffff"/>
  </g>
  <g id="axes_1">
   <g id="patch_2">
    <path d="M 645.556145 390.340338 
C 645.556145 351.870657 637.978457 313.775046 623.256747 278.233695 
C 608.535038 242.692344 586.955607 210.396444 559.753435 183.194272 
C 532.551263 155.9921 500.255363 134.41267 464.714012 119.69096 
C 429.172662 104.969251 391.07705 97.391563 352.607369 97.391563 
C 314.137689 97.391563 276.042077 104.969251 240.500726 119.69096 
C 204.959376 134.41267 172.663476 155.9921 145.461304 183.194272 
C 118.259131 210.396444 96.679701 242.692344 81.957991 278.233695 
C 67.236282 313.775046 59.658594 351.870657 59.658594 390.340338 
C 59.658594 428.810019 67.236282 466.90563 81.957991 502.446981 
C 96.679701 537.988332 118.259131 570.284232 145.461304 597.486404 
C 172.663476 624.688576 204.959376 646.268007 240.500726 660.989716 
C 276.042077 675.711425 314.137689 683.289114 352.607369 683.289114 
C 391.07705 683.289114 429.172662 675.711425 464.714012 660.989716 
C 500.255363 646.268007 532.551263 624.688576 559.753435 597.486404 
C 586.955607 570.284232 608.535038 537.988332 623.256747 502.446981 
C 637.978457 466.90563 645.556145 428.810019 645.556145 390.340338 
M 352.607369 390.340338 
C 352.607369 390.340338 352.607369 390.340338 352.607369 390.340338 
C 352.607369 390.340338 352.607369 390.340338 352.607369 390.340338 
C 352.607369 390.340338 352.607369 390.340338 352.607369 390.340338 
C 352.607369 390.340338 352.607369 390.340338 352.607369 390.340338 
C 352.607369 390.340338 352.607369 390.340338 352.607369 390.340338 
C 352.607369 390.340338 352.607369 390.340338 352.607369 390.340338 
C 352.607369 390.340338 352.607369 390.340338 352.607369 390.340338 
C 352.607369 390.340338 352.607369 390.340338 352.607369 390.340338 
C 352.607369 390.340338 352.607369 390.340338 352.607369 390.340338 
C 352.607369 390.340338 352.607369 390.340338 352.607369 390.340338 
C 352.607369 390.340338 352.607369 390.340338 352.607369 390.340338 
C 352.607369 390.340338 352.607369 390.340338 352.607369 390.340338 
C 352.607369 390.340338 352.607369 390.340338 352.607369 390.340338 
C 352.607369 390.340338 352.607369 390.340338 352.607369 390.340338 
C 352.607369 390.340338 352.607369 390.340338 352.607369 390.340338 
C 352.607369 390.340338 352.607369 390.340338 352.607369 390.340338 
z
" style="fill: #fafaf8"/>
   </g>
   <g id="matplotlib.axis_1">
    <g id="xtick_1">
     <g id="text_1">
      <!-- Connectivity -->
      <g style="fill: #4a4a5a" transform="translate(646.323332 387.580807) scale(0.1 -0.1)">
       <defs>
        <path id="ArialMT-43" d="M 3763 1606 
L 4369 1453 
Q 4178 706 3683 314 
Q 3188 -78 2472 -78 
Q 1731 -78 1267 223 
Q 803 525 561 1097 
Q 319 1669 319 2325 
Q 319 3041 592 3573 
Q 866 4106 1370 4382 
Q 1875 4659 2481 4659 
Q 3169 4659 3637 4309 
Q 4106 3959 4291 3325 
L 3694 3184 
Q 3534 3684 3231 3912 
Q 2928 4141 2469 4141 
Q 1941 4141 1586 3887 
Q 1231 3634 1087 3207 
Q 944 2781 944 2328 
Q 944 1744 1114 1308 
Q 1284 872 1643 656 
Q 2003 441 2422 441 
Q 2931 441 3284 734 
Q 3638 1028 3763 1606 
z
" transform="scale(0.015625)"/>
        <path id="ArialMT-6f" d="M 213 1659 
Q 213 2581 725 3025 
Q 1153 3394 1769 3394 
Q 2453 3394 2887 2945 
Q 3322 2497 3322 1706 
Q 3322 1066 3130 698 
Q 2938 331 2570 128 
Q 2203 -75 1769 -75 
Q 1072 -75 642 372 
Q 213 819 213 1659 
z
M 791 1659 
Q 791 1022 1069 705 
Q 1347 388 1769 388 
Q 2188 388 2466 706 
Q 2744 1025 2744 1678 
Q 2744 2294 2464 2611 
Q 2184 2928 1769 2928 
Q 1347 2928 1069 2612 
Q 791 2297 791 1659 
z
" transform="scale(0.015625)"/>
        <path id="ArialMT-6e" d="M 422 0 
L 422 3319 
L 928 3319 
L 928 2847 
Q 1294 3394 1984 3394 
Q 2284 3394 2536 3286 
Q 2788 3178 2913 3003 
Q 3038 2828 3088 2588 
Q 3119 2431 3119 2041 
L 3119 0 
L 2556 0 
L 2556 2019 
Q 2556 2363 2490 2533 
Q 2425 2703 2258 2804 
Q 2091 2906 1866 2906 
Q 1506 2906 1245 2678 
Q 984 2450 984 1813 
L 984 0 
L 422 0 
z
" transform="scale(0.015625)"/>
        <path id="ArialMT-65" d="M 2694 1069 
L 3275 997 
Q 3138 488 2766 206 
Q 2394 -75 1816 -75 
Q 1088 -75 661 373 
Q 234 822 234 1631 
Q 234 2469 665 2931 
Q 1097 3394 1784 3394 
Q 2450 3394 2872 2941 
Q 3294 2488 3294 1666 
Q 3294 1616 3291 1516 
L 816 1516 
Q 847 969 1125 678 
Q 1403 388 1819 388 
Q 2128 388 2347 550 
Q 2566 713 2694 1069 
z
M 847 1978 
L 2700 1978 
Q 2663 2397 2488 2606 
Q 2219 2931 1791 2931 
Q 1403 2931 1139 2672 
Q 875 2413 847 1978 
z
" transform="scale(0.015625)"/>
        <path id="ArialMT-63" d="M 2588 1216 
L 3141 1144 
Q 3050 572 2676 248 
Q 2303 -75 1759 -75 
Q 1078 -75 664 370 
Q 250 816 250 1647 
Q 250 2184 428 2587 
Q 606 2991 970 3192 
Q 1334 3394 1763 3394 
Q 2303 3394 2647 3120 
Q 2991 2847 3088 2344 
L 2541 2259 
Q 2463 2594 2264 2762 
Q 2066 2931 1784 2931 
Q 1359 2931 1093 2626 
Q 828 2322 828 1663 
Q 828 994 1084 691 
Q 1341 388 1753 388 
Q 2084 388 2306 591 
Q 2528 794 2588 1216 
z
" transform="scale(0.015625)"/>
        <path id="ArialMT-74" d="M 1650 503 
L 1731 6 
Q 1494 -44 1306 -44 
Q 1000 -44 831 53 
Q 663 150 594 308 
Q 525 466 525 972 
L 525 2881 
L 113 2881 
L 113 3319 
L 525 3319 
L 525 4141 
L 1084 4478 
L 1084 3319 
L 1650 3319 
L 1650 2881 
L 1084 2881 
L 1084 941 
Q 1084 700 1114 631 
Q 1144 563 1211 522 
Q 1278 481 1403 481 
Q 1497 481 1650 503 
z
" transform="scale(0.015625)"/>
        <path id="ArialMT-69" d="M 425 3934 
L 425 4581 
L 988 4581 
L 988 3934 
L 425 3934 
z
M 425 0 
L 425 3319 
L 988 3319 
L 988 0 
L 425 0 
z
" transform="scale(0.015625)"/>
        <path id="ArialMT-76" d="M 1344 0 
L 81 3319 
L 675 3319 
L 1388 1331 
Q 1503 1009 1600 663 
Q 1675 925 1809 1294 
L 2547 3319 
L 3125 3319 
L 1869 0 
L 1344 0 
z
" transform="scale(0.015625)"/>
        <path id="ArialMT-79" d="M 397 -1278 
L 334 -750 
Q 519 -800 656 -800 
Q 844 -800 956 -737 
Q 1069 -675 1141 -563 
Q 1194 -478 1313 -144 
Q 1328 -97 1363 -6 
L 103 3319 
L 709 3319 
L 1400 1397 
Q 1534 1031 1641 628 
Q 1738 1016 1872 1384 
L 2581 3319 
L 3144 3319 
L 1881 -56 
Q 1678 -603 1566 -809 
Q 1416 -1088 1222 -1217 
Q 1028 -1347 759 -1347 
Q 597 -1347 397 -1278 
z
" transform="scale(0.015625)"/>
       </defs>
       <use xlink:href="#ArialMT-43"/>
       <use xlink:href="#ArialMT-6f" x="72.216797"/>
       <use xlink:href="#ArialMT-6e" x="127.832031"/>
       <use xlink:href="#ArialMT-6e" x="183.447266"/>
       <use xlink:href="#ArialMT-65" x="239.0625"/>
       <use xlink:href="#ArialMT-63" x="294.677734"/>
       <use xlink:href="#ArialMT-74" x="344.677734"/>
       <use xlink:href="#ArialMT-69" x="372.460938"/>
       <use xlink:href="#ArialMT-76" x="394.677734"/>
       <use xlink:href="#ArialMT-69" x="444.677734"/>
       <use xlink:href="#ArialMT-74" x="466.894531"/>
       <use xlink:href="#ArialMT-79" x="494.677734"/>
      </g>
      <!-- Accuracy -->
      <g style="fill: #4a4a5a" transform="translate(652.995207 398.274869) scale(0.1 -0.1)">
       <defs>
        <path id="ArialMT-41" d="M -9 0 
L 1750 4581 
L 2403 4581 
L 4278 0 
L 3588 0 
L 3053 1388 
L 1138 1388 
L 634 0 
L -9 0 
z
M 1313 1881 
L 2866 1881 
L 2388 3150 
Q 2169 3728 2063 4100 
Q 1975 3659 1816 3225 
L 1313 1881 
z
" transform="scale(0.015625)"/>
        <path id="ArialMT-75" d="M 2597 0 
L 2597 488 
Q 2209 -75 1544 -75 
Q 1250 -75 995 37 
Q 741 150 617 320 
Q 494 491 444 738 
Q 409 903 409 1263 
L 409 3319 
L 972 3319 
L 972 1478 
Q 972 1038 1006 884 
Q 1059 663 1231 536 
Q 1403 409 1656 409 
Q 1909 409 2131 539 
Q 2353 669 2445 892 
Q 2538 1116 2538 1541 
L 2538 3319 
L 3100 3319 
L 3100 0 
L 2597 0 
z
" transform="scale(0.015625)"/>
        <path id="ArialMT-72" d="M 416 0 
L 416 3319 
L 922 3319 
L 922 2816 
Q 1116 3169 1280 3281 
Q 1444 3394 1641 3394 
Q 1925 3394 2219 3213 
L 2025 2691 
Q 1819 2813 1613 2813 
Q 1428 2813 1281 2702 
Q 1134 2591 1072 2394 
Q 978 2094 978 1738 
L 978 0 
L 416 0 
z
" transform="scale(0.015625)"/>
        <path id="ArialMT-61" d="M 2588 409 
Q 2275 144 1986 34 
Q 1697 -75 1366 -75 
Q 819 -75 525 192 
Q 231 459 231 875 
Q 231 1119 342 1320 
Q 453 1522 633 1644 
Q 813 1766 1038 1828 
Q 1203 1872 1538 1913 
Q 2219 1994 2541 2106 
Q 2544 2222 2544 2253 
Q 2544 2597 2384 2738 
Q 2169 2928 1744 2928 
Q 1347 2928 1158 2789 
Q 969 2650 878 2297 
L 328 2372 
Q 403 2725 575 2942 
Q 747 3159 1072 3276 
Q 1397 3394 1825 3394 
Q 2250 3394 2515 3294 
Q 2781 3194 2906 3042 
Q 3031 2891 3081 2659 
Q 3109 2516 3109 2141 
L 3109 1391 
Q 3109 606 3145 398 
Q 3181 191 3288 0 
L 2700 0 
Q 2613 175 2588 409 
z
M 2541 1666 
Q 2234 1541 1622 1453 
Q 1275 1403 1131 1340 
Q 988 1278 909 1158 
Q 831 1038 831 891 
Q 831 666 1001 516 
Q 1172 366 1500 366 
Q 1825 366 2078 508 
Q 2331 650 2450 897 
Q 2541 1088 2541 1459 
L 2541 1666 
z
" transform="scale(0.015625)"/>
       </defs>
       <use xlink:href="#ArialMT-41"/>
       <use xlink:href="#ArialMT-63" x="66.699219"/>
       <use xlink:href="#ArialMT-63" x="116.699219"/>
       <use xlink:href="#ArialMT-75" x="166.699219"/>
       <use xlink:href="#ArialMT-72" x="222.314453"/>
       <use xlink:href="#ArialMT-61" x="255.615234"/>
       <use xlink:href="#ArialMT-63" x="311.230469"/>
       <use xlink:href="#ArialMT-79" x="361.230469"/>
      </g>
     </g>
    </g>
    <g id="xtick_2">
     <g id="text_2">
      <!-- % of -->
      <g style="fill: #4a4a5a" transform="translate(602.255696 198.9881) scale(0.1 -0.1)">
       <defs>
        <path id="ArialMT-25" d="M 372 3481 
Q 372 3972 619 4315 
Q 866 4659 1334 4659 
Q 1766 4659 2048 4351 
Q 2331 4044 2331 3447 
Q 2331 2866 2045 2552 
Q 1759 2238 1341 2238 
Q 925 2238 648 2547 
Q 372 2856 372 3481 
z
M 1350 4272 
Q 1141 4272 1002 4090 
Q 863 3909 863 3425 
Q 863 2984 1003 2804 
Q 1144 2625 1350 2625 
Q 1563 2625 1702 2806 
Q 1841 2988 1841 3469 
Q 1841 3913 1700 4092 
Q 1559 4272 1350 4272 
z
M 1353 -169 
L 3859 4659 
L 4316 4659 
L 1819 -169 
L 1353 -169 
z
M 3334 1075 
Q 3334 1569 3581 1911 
Q 3828 2253 4300 2253 
Q 4731 2253 5014 1945 
Q 5297 1638 5297 1041 
Q 5297 459 5011 145 
Q 4725 -169 4303 -169 
Q 3888 -169 3611 142 
Q 3334 453 3334 1075 
z
M 4316 1866 
Q 4103 1866 3964 1684 
Q 3825 1503 3825 1019 
Q 3825 581 3965 400 
Q 4106 219 4313 219 
Q 4528 219 4667 400 
Q 4806 581 4806 1063 
Q 4806 1506 4665 1686 
Q 4525 1866 4316 1866 
z
" transform="scale(0.015625)"/>
        <path id="ArialMT-20" transform="scale(0.015625)"/>
        <path id="ArialMT-66" d="M 556 0 
L 556 2881 
L 59 2881 
L 59 3319 
L 556 3319 
L 556 3672 
Q 556 4006 616 4169 
Q 697 4388 901 4523 
Q 1106 4659 1475 4659 
Q 1713 4659 2000 4603 
L 1916 4113 
Q 1741 4144 1584 4144 
Q 1328 4144 1222 4034 
Q 1116 3925 1116 3625 
L 1116 3319 
L 1763 3319 
L 1763 2881 
L 1116 2881 
L 1116 0 
L 556 0 
z
" transform="scale(0.015625)"/>
       </defs>
       <use xlink:href="#ArialMT-25"/>
       <use xlink:href="#ArialMT-20" x="88.916016"/>
       <use xlink:href="#ArialMT-6f" x="116.699219"/>
       <use xlink:href="#ArialMT-66" x="172.314453"/>
      </g>
      <!-- Neurons -->
      <g style="fill: #4a4a5a" transform="translate(593.362727 209.564975) scale(0.1 -0.1)">
       <defs>
        <path id="ArialMT-4e" d="M 488 0 
L 488 4581 
L 1109 4581 
L 3516 984 
L 3516 4581 
L 4097 4581 
L 4097 0 
L 3475 0 
L 1069 3600 
L 1069 0 
L 488 0 
z
" transform="scale(0.015625)"/>
        <path id="ArialMT-73" d="M 197 991 
L 753 1078 
Q 800 744 1014 566 
Q 1228 388 1613 388 
Q 2000 388 2187 545 
Q 2375 703 2375 916 
Q 2375 1106 2209 1216 
Q 2094 1291 1634 1406 
Q 1016 1563 777 1677 
Q 538 1791 414 1992 
Q 291 2194 291 2438 
Q 291 2659 392 2848 
Q 494 3038 669 3163 
Q 800 3259 1026 3326 
Q 1253 3394 1513 3394 
Q 1903 3394 2198 3281 
Q 2494 3169 2634 2976 
Q 2775 2784 2828 2463 
L 2278 2388 
Q 2241 2644 2061 2787 
Q 1881 2931 1553 2931 
Q 1166 2931 1000 2803 
Q 834 2675 834 2503 
Q 834 2394 903 2306 
Q 972 2216 1119 2156 
Q 1203 2125 1616 2013 
Q 2213 1853 2448 1751 
Q 2684 1650 2818 1456 
Q 2953 1263 2953 975 
Q 2953 694 2789 445 
Q 2625 197 2315 61 
Q 2006 -75 1616 -75 
Q 969 -75 630 194 
Q 291 463 197 991 
z
" transform="scale(0.015625)"/>
       </defs>
       <use xlink:href="#ArialMT-4e"/>
       <use xlink:href="#ArialMT-65" x="72.216797"/>
       <use xlink:href="#ArialMT-75" x="127.832031"/>
       <use xlink:href="#ArialMT-72" x="183.447266"/>
       <use xlink:href="#ArialMT-6f" x="216.748047"/>
       <use xlink:href="#ArialMT-6e" x="272.363281"/>
       <use xlink:href="#ArialMT-73" x="327.978516"/>
      </g>
     </g>
    </g>
    <g id="xtick_3">
     <g id="text_3">
      <!-- Neuron -->
      <g style="fill: #4a4a5a" transform="translate(435.388339 82.338039) scale(0.1 -0.1)">
       <use xlink:href="#ArialMT-4e"/>
       <use xlink:href="#ArialMT-65" x="72.216797"/>
       <use xlink:href="#ArialMT-75" x="127.832031"/>
       <use xlink:href="#ArialMT-72" x="183.447266"/>
       <use xlink:href="#ArialMT-6f" x="216.748047"/>
       <use xlink:href="#ArialMT-6e" x="272.363281"/>
      </g>
      <!-- Types -->
      <g style="fill: #4a4a5a" transform="translate(438.446152 92.914914) scale(0.1 -0.1)">
       <defs>
        <path id="ArialMT-54" d="M 1659 0 
L 1659 4041 
L 150 4041 
L 150 4581 
L 3781 4581 
L 3781 4041 
L 2266 4041 
L 2266 0 
L 1659 0 
z
" transform="scale(0.015625)"/>
        <path id="ArialMT-70" d="M 422 -1272 
L 422 3319 
L 934 3319 
L 934 2888 
Q 1116 3141 1344 3267 
Q 1572 3394 1897 3394 
Q 2322 3394 2647 3175 
Q 2972 2956 3137 2557 
Q 3303 2159 3303 1684 
Q 3303 1175 3120 767 
Q 2938 359 2589 142 
Q 2241 -75 1856 -75 
Q 1575 -75 1351 44 
Q 1128 163 984 344 
L 984 -1272 
L 422 -1272 
z
M 931 1641 
Q 931 1000 1190 694 
Q 1450 388 1819 388 
Q 2194 388 2461 705 
Q 2728 1022 2728 1688 
Q 2728 2322 2467 2637 
Q 2206 2953 1844 2953 
Q 1484 2953 1207 2617 
Q 931 2281 931 1641 
z
" transform="scale(0.015625)"/>
       </defs>
       <use xlink:href="#ArialMT-54"/>
       <use xlink:href="#ArialMT-79" x="55.583984"/>
       <use xlink:href="#ArialMT-70" x="105.583984"/>
       <use xlink:href="#ArialMT-65" x="161.199219"/>
       <use xlink:href="#ArialMT-73" x="216.814453"/>
      </g>
     </g>
    </g>
    <g id="xtick_4">
     <g id="text_4">
      <!-- Plasticity -->
      <g style="fill: #4a4a5a" transform="translate(233.702181 87.626476) scale(0.1 -0.1)">
       <defs>
        <path id="ArialMT-50" d="M 494 0 
L 494 4581 
L 2222 4581 
Q 2678 4581 2919 4538 
Q 3256 4481 3484 4323 
Q 3713 4166 3852 3881 
Q 3991 3597 3991 3256 
Q 3991 2672 3619 2267 
Q 3247 1863 2275 1863 
L 1100 1863 
L 1100 0 
L 494 0 
z
M 1100 2403 
L 2284 2403 
Q 2872 2403 3119 2622 
Q 3366 2841 3366 3238 
Q 3366 3525 3220 3729 
Q 3075 3934 2838 4000 
Q 2684 4041 2272 4041 
L 1100 4041 
L 1100 2403 
z
" transform="scale(0.015625)"/>
        <path id="ArialMT-6c" d="M 409 0 
L 409 4581 
L 972 4581 
L 972 0 
L 409 0 
z
" transform="scale(0.015625)"/>
       </defs>
       <use xlink:href="#ArialMT-50"/>
       <use xlink:href="#ArialMT-6c" x="66.699219"/>
       <use xlink:href="#ArialMT-61" x="88.916016"/>
       <use xlink:href="#ArialMT-73" x="144.53125"/>
       <use xlink:href="#ArialMT-74" x="194.53125"/>
       <use xlink:href="#ArialMT-69" x="222.314453"/>
       <use xlink:href="#ArialMT-63" x="244.53125"/>
       <use xlink:href="#ArialMT-69" x="294.53125"/>
       <use xlink:href="#ArialMT-74" x="316.748047"/>
       <use xlink:href="#ArialMT-79" x="344.53125"/>
      </g>
     </g>
    </g>
    <g id="xtick_5">
     <g id="text_5">
      <!-- Functional -->
      <g style="fill: #4a4a5a" transform="translate(69.887168 198.929506) scale(0.1 -0.1)">
       <defs>
        <path id="ArialMT-46" d="M 525 0 
L 525 4581 
L 3616 4581 
L 3616 4041 
L 1131 4041 
L 1131 2622 
L 3281 2622 
L 3281 2081 
L 1131 2081 
L 1131 0 
L 525 0 
z
" transform="scale(0.015625)"/>
       </defs>
       <use xlink:href="#ArialMT-46"/>
       <use xlink:href="#ArialMT-75" x="61.083984"/>
       <use xlink:href="#ArialMT-6e" x="116.699219"/>
       <use xlink:href="#ArialMT-63" x="172.314453"/>
       <use xlink:href="#ArialMT-74" x="222.314453"/>
       <use xlink:href="#ArialMT-69" x="250.097656"/>
       <use xlink:href="#ArialMT-6f" x="272.314453"/>
       <use xlink:href="#ArialMT-6e" x="327.929688"/>
       <use xlink:href="#ArialMT-61" x="383.544922"/>
       <use xlink:href="#ArialMT-6c" x="439.160156"/>
      </g>
      <!-- Accuracy -->
      <g style="fill: #4a4a5a" transform="translate(72.393418 209.506381) scale(0.1 -0.1)">
       <use xlink:href="#ArialMT-41"/>
       <use xlink:href="#ArialMT-63" x="66.699219"/>
       <use xlink:href="#ArialMT-63" x="116.699219"/>
       <use xlink:href="#ArialMT-75" x="166.699219"/>
       <use xlink:href="#ArialMT-72" x="222.314453"/>
       <use xlink:href="#ArialMT-61" x="255.615234"/>
       <use xlink:href="#ArialMT-63" x="311.230469"/>
       <use xlink:href="#ArialMT-79" x="361.230469"/>
      </g>
     </g>
    </g>
    <g id="xtick_6">
     <g id="text_6">
      <!-- Neuro- -->
      <g style="fill: #4a4a5a" transform="translate(16.376562 387.637057) scale(0.1 -0.1)">
       <defs>
        <path id="ArialMT-2d" d="M 203 1375 
L 203 1941 
L 1931 1941 
L 1931 1375 
L 203 1375 
z
" transform="scale(0.015625)"/>
       </defs>
       <use xlink:href="#ArialMT-4e"/>
       <use xlink:href="#ArialMT-65" x="72.216797"/>
       <use xlink:href="#ArialMT-75" x="127.832031"/>
       <use xlink:href="#ArialMT-72" x="183.447266"/>
       <use xlink:href="#ArialMT-6f" x="216.748047"/>
       <use xlink:href="#ArialMT-2d" x="272.363281"/>
      </g>
      <!-- modulation -->
      <g style="fill: #4a4a5a" transform="translate(7.2 398.213932) scale(0.1 -0.1)">
       <defs>
        <path id="ArialMT-6d" d="M 422 0 
L 422 3319 
L 925 3319 
L 925 2853 
Q 1081 3097 1340 3245 
Q 1600 3394 1931 3394 
Q 2300 3394 2536 3241 
Q 2772 3088 2869 2813 
Q 3263 3394 3894 3394 
Q 4388 3394 4653 3120 
Q 4919 2847 4919 2278 
L 4919 0 
L 4359 0 
L 4359 2091 
Q 4359 2428 4304 2576 
Q 4250 2725 4106 2815 
Q 3963 2906 3769 2906 
Q 3419 2906 3187 2673 
Q 2956 2441 2956 1928 
L 2956 0 
L 2394 0 
L 2394 2156 
Q 2394 2531 2256 2718 
Q 2119 2906 1806 2906 
Q 1569 2906 1367 2781 
Q 1166 2656 1075 2415 
Q 984 2175 984 1722 
L 984 0 
L 422 0 
z
" transform="scale(0.015625)"/>
        <path id="ArialMT-64" d="M 2575 0 
L 2575 419 
Q 2259 -75 1647 -75 
Q 1250 -75 917 144 
Q 584 363 401 755 
Q 219 1147 219 1656 
Q 219 2153 384 2558 
Q 550 2963 881 3178 
Q 1213 3394 1622 3394 
Q 1922 3394 2156 3267 
Q 2391 3141 2538 2938 
L 2538 4581 
L 3097 4581 
L 3097 0 
L 2575 0 
z
M 797 1656 
Q 797 1019 1065 703 
Q 1334 388 1700 388 
Q 2069 388 2326 689 
Q 2584 991 2584 1609 
Q 2584 2291 2321 2609 
Q 2059 2928 1675 2928 
Q 1300 2928 1048 2622 
Q 797 2316 797 1656 
z
" transform="scale(0.015625)"/>
       </defs>
       <use xlink:href="#ArialMT-6d"/>
       <use xlink:href="#ArialMT-6f" x="83.300781"/>
       <use xlink:href="#ArialMT-64" x="138.916016"/>
       <use xlink:href="#ArialMT-75" x="194.53125"/>
       <use xlink:href="#ArialMT-6c" x="250.146484"/>
       <use xlink:href="#ArialMT-61" x="272.363281"/>
       <use xlink:href="#ArialMT-74" x="327.978516"/>
       <use xlink:href="#ArialMT-69" x="355.761719"/>
       <use xlink:href="#ArialMT-6f" x="377.978516"/>
       <use xlink:href="#ArialMT-6e" x="433.59375"/>
      </g>
     </g>
    </g>
    <g id="xtick_7">
     <g id="text_7">
      <!-- Temporal -->
      <g style="fill: #4a4a5a" transform="translate(72.394199 576.286014) scale(0.1 -0.1)">
       <use xlink:href="#ArialMT-54"/>
       <use xlink:href="#ArialMT-65" x="49.958984"/>
       <use xlink:href="#ArialMT-6d" x="105.574219"/>
       <use xlink:href="#ArialMT-70" x="188.875"/>
       <use xlink:href="#ArialMT-6f" x="244.490234"/>
       <use xlink:href="#ArialMT-72" x="300.105469"/>
       <use xlink:href="#ArialMT-61" x="333.40625"/>
       <use xlink:href="#ArialMT-6c" x="389.021484"/>
      </g>
      <!-- Resolution -->
      <g style="fill: #4a4a5a" transform="translate(69.330137 586.862889) scale(0.1 -0.1)">
       <defs>
        <path id="ArialMT-52" d="M 503 0 
L 503 4581 
L 2534 4581 
Q 3147 4581 3465 4457 
Q 3784 4334 3975 4021 
Q 4166 3709 4166 3331 
Q 4166 2844 3850 2509 
Q 3534 2175 2875 2084 
Q 3116 1969 3241 1856 
Q 3506 1613 3744 1247 
L 4541 0 
L 3778 0 
L 3172 953 
Q 2906 1366 2734 1584 
Q 2563 1803 2427 1890 
Q 2291 1978 2150 2013 
Q 2047 2034 1813 2034 
L 1109 2034 
L 1109 0 
L 503 0 
z
M 1109 2559 
L 2413 2559 
Q 2828 2559 3062 2645 
Q 3297 2731 3419 2920 
Q 3541 3109 3541 3331 
Q 3541 3656 3305 3865 
Q 3069 4075 2559 4075 
L 1109 4075 
L 1109 2559 
z
" transform="scale(0.015625)"/>
       </defs>
       <use xlink:href="#ArialMT-52"/>
       <use xlink:href="#ArialMT-65" x="72.216797"/>
       <use xlink:href="#ArialMT-73" x="127.832031"/>
       <use xlink:href="#ArialMT-6f" x="177.832031"/>
       <use xlink:href="#ArialMT-6c" x="233.447266"/>
       <use xlink:href="#ArialMT-75" x="255.664062"/>
       <use xlink:href="#ArialMT-74" x="311.279297"/>
       <use xlink:href="#ArialMT-69" x="339.0625"/>
       <use xlink:href="#ArialMT-6f" x="361.279297"/>
       <use xlink:href="#ArialMT-6e" x="416.894531"/>
      </g>
     </g>
    </g>
    <g id="xtick_8">
     <g id="text_8">
      <!-- Behavior -->
      <g style="fill: #4a4a5a" transform="translate(233.695931 698.165919) scale(0.1 -0.1)">
       <defs>
        <path id="ArialMT-42" d="M 469 0 
L 469 4581 
L 2188 4581 
Q 2713 4581 3030 4442 
Q 3347 4303 3526 4014 
Q 3706 3725 3706 3409 
Q 3706 3116 3547 2856 
Q 3388 2597 3066 2438 
Q 3481 2316 3704 2022 
Q 3928 1728 3928 1328 
Q 3928 1006 3792 729 
Q 3656 453 3456 303 
Q 3256 153 2954 76 
Q 2653 0 2216 0 
L 469 0 
z
M 1075 2656 
L 2066 2656 
Q 2469 2656 2644 2709 
Q 2875 2778 2992 2937 
Q 3109 3097 3109 3338 
Q 3109 3566 3000 3739 
Q 2891 3913 2687 3977 
Q 2484 4041 1991 4041 
L 1075 4041 
L 1075 2656 
z
M 1075 541 
L 2216 541 
Q 2509 541 2628 563 
Q 2838 600 2978 687 
Q 3119 775 3209 942 
Q 3300 1109 3300 1328 
Q 3300 1584 3169 1773 
Q 3038 1963 2805 2039 
Q 2572 2116 2134 2116 
L 1075 2116 
L 1075 541 
z
" transform="scale(0.015625)"/>
        <path id="ArialMT-68" d="M 422 0 
L 422 4581 
L 984 4581 
L 984 2938 
Q 1378 3394 1978 3394 
Q 2347 3394 2619 3248 
Q 2891 3103 3008 2847 
Q 3125 2591 3125 2103 
L 3125 0 
L 2563 0 
L 2563 2103 
Q 2563 2525 2380 2717 
Q 2197 2909 1863 2909 
Q 1613 2909 1392 2779 
Q 1172 2650 1078 2428 
Q 984 2206 984 1816 
L 984 0 
L 422 0 
z
" transform="scale(0.015625)"/>
       </defs>
       <use xlink:href="#ArialMT-42"/>
       <use xlink:href="#ArialMT-65" x="66.699219"/>
       <use xlink:href="#ArialMT-68" x="122.314453"/>
       <use xlink:href="#ArialMT-61" x="177.929688"/>
       <use xlink:href="#ArialMT-76" x="233.544922"/>
       <use xlink:href="#ArialMT-69" x="283.544922"/>
       <use xlink:href="#ArialMT-6f" x="305.761719"/>
       <use xlink:href="#ArialMT-72" x="361.376953"/>
      </g>
     </g>
    </g>
    <g id="xtick_9">
     <g id="text_9">
      <!-- Personality -->
      <g style="fill: #4a4a5a" transform="translate(427.053183 698.107325) scale(0.1 -0.1)">
       <use xlink:href="#ArialMT-50"/>
       <use xlink:href="#ArialMT-65" x="66.699219"/>
       <use xlink:href="#ArialMT-72" x="122.314453"/>
       <use xlink:href="#ArialMT-73" x="155.615234"/>
       <use xlink:href="#ArialMT-6f" x="205.615234"/>
       <use xlink:href="#ArialMT-6e" x="261.230469"/>
       <use xlink:href="#ArialMT-61" x="316.845703"/>
       <use xlink:href="#ArialMT-6c" x="372.460938"/>
       <use xlink:href="#ArialMT-69" x="394.677734"/>
       <use xlink:href="#ArialMT-74" x="416.894531"/>
       <use xlink:href="#ArialMT-79" x="444.677734"/>
      </g>
     </g>
    </g>
    <g id="xtick_10">
     <g id="text_10">
      <!-- Learning -->
      <g style="fill: #4a4a5a" transform="translate(592.801789 581.515858) scale(0.1 -0.1)">
       <defs>
        <path id="ArialMT-4c" d="M 469 0 
L 469 4581 
L 1075 4581 
L 1075 541 
L 3331 541 
L 3331 0 
L 469 0 
z
" transform="scale(0.015625)"/>
        <path id="ArialMT-67" d="M 319 -275 
L 866 -356 
Q 900 -609 1056 -725 
Q 1266 -881 1628 -881 
Q 2019 -881 2231 -725 
Q 2444 -569 2519 -288 
Q 2563 -116 2559 434 
Q 2191 0 1641 0 
Q 956 0 581 494 
Q 206 988 206 1678 
Q 206 2153 378 2554 
Q 550 2956 876 3175 
Q 1203 3394 1644 3394 
Q 2231 3394 2613 2919 
L 2613 3319 
L 3131 3319 
L 3131 450 
Q 3131 -325 2973 -648 
Q 2816 -972 2473 -1159 
Q 2131 -1347 1631 -1347 
Q 1038 -1347 672 -1080 
Q 306 -813 319 -275 
z
M 784 1719 
Q 784 1066 1043 766 
Q 1303 466 1694 466 
Q 2081 466 2343 764 
Q 2606 1063 2606 1700 
Q 2606 2309 2336 2618 
Q 2066 2928 1684 2928 
Q 1309 2928 1046 2623 
Q 784 2319 784 1719 
z
" transform="scale(0.015625)"/>
       </defs>
       <use xlink:href="#ArialMT-4c"/>
       <use xlink:href="#ArialMT-65" x="55.615234"/>
       <use xlink:href="#ArialMT-61" x="111.230469"/>
       <use xlink:href="#ArialMT-72" x="166.845703"/>
       <use xlink:href="#ArialMT-6e" x="200.146484"/>
       <use xlink:href="#ArialMT-69" x="255.761719"/>
       <use xlink:href="#ArialMT-6e" x="277.978516"/>
       <use xlink:href="#ArialMT-67" x="333.59375"/>
      </g>
     </g>
    </g>
   </g>
   <g id="matplotlib.axis_2"/>
   <g id="patch_3">
    <path d="M 352.607369 390.340338 
C 352.607369 390.340338 352.607369 390.340338 352.607369 390.340338 
C 352.607369 390.340338 352.607369 390.340338 352.607369 390.340338 
L 511.813565 338.611109 
C 517.241751 355.317349 520.00667 372.774359 520.00667 390.340338 
C 520.00667 407.906318 517.241751 425.363327 511.813565 442.069567 
z
" clip-path="url(#p15fbcb5827)" style="fill: #4a90a4; opacity: 0.213997"/>
   </g>
   <g id="patch_4">
    <path d="M 352.607369 390.340338 
C 352.607369 390.340338 352.607369 390.340338 352.607369 390.340338 
C 352.607369 390.340338 352.607369 390.340338 352.607369 390.340338 
L 401.804789 322.625899 
C 408.910377 327.788411 415.159297 334.03733 420.321809 341.142918 
C 425.484321 348.248506 429.496374 356.122604 432.210467 364.475724 
z
" clip-path="url(#p15fbcb5827)" style="fill: #4a90a4; opacity: 0.213997"/>
   </g>
   <g id="patch_5">
    <path d="M 352.607369 390.340338 
C 352.607369 390.340338 352.607369 390.340338 352.607369 390.340338 
C 352.607369 390.340338 352.607369 390.340338 352.607369 390.340338 
L 352.607369 222.941038 
C 370.173349 222.941038 387.630359 225.705956 404.336598 231.134143 
C 421.042837 236.562329 436.791033 244.586436 451.002209 254.911459 
z
" clip-path="url(#p15fbcb5827)" style="fill: #4a90a4; opacity: 0.213997"/>
   </g>
   <g id="patch_6">
    <path d="M 352.607369 390.340338 
C 352.607369 390.340338 352.607369 390.340338 352.607369 390.340338 
C 352.607369 390.340338 352.607369 390.340338 352.607369 390.340338 
L 303.409949 322.625899 
C 310.515537 317.463387 318.389635 313.451334 326.742755 310.73724 
C 335.095875 308.023147 343.82438 306.640688 352.607369 306.640688 
z
" clip-path="url(#p15fbcb5827)" style="fill: #4a90a4; opacity: 0.213997"/>
   </g>
   <g id="patch_7">
    <path d="M 352.607369 390.340338 
C 352.607369 390.340338 352.607369 390.340338 352.607369 390.340338 
C 352.607369 390.340338 352.607369 390.340338 352.607369 390.340338 
L 193.401174 338.611109 
C 198.82936 321.90487 206.853467 306.156674 217.178491 291.945498 
C 227.503514 277.734322 240.001353 265.236483 254.212529 254.911459 
z
" clip-path="url(#p15fbcb5827)" style="fill: #4a90a4; opacity: 0.213997"/>
   </g>
   <g id="patch_8">
    <path d="M 352.607369 390.340338 
C 352.607369 390.340338 352.607369 390.340338 352.607369 390.340338 
C 352.607369 390.340338 352.607369 390.340338 352.607369 390.340338 
L 352.607369 390.340338 
C 352.607369 390.340338 352.607369 390.340338 352.607369 390.340338 
C 352.607369 390.340338 352.607369 390.340338 352.607369 390.340338 
z
" clip-path="url(#p15fbcb5827)" style="fill: #4a90a4; opacity: 0.213997"/>
   </g>
   <g id="patch_9">
    <path d="M 352.607369 390.340338 
C 352.607369 390.340338 352.607369 390.340338 352.607369 390.340338 
C 352.607369 390.340338 352.607369 390.340338 352.607369 390.340338 
L 254.212529 525.769217 
C 240.001353 515.444193 227.503514 502.946354 217.178491 488.735178 
C 206.853467 474.524002 198.82936 458.775806 193.401174 442.069567 
z
" clip-path="url(#p15fbcb5827)" style="fill: #4a90a4; opacity: 0.213997"/>
   </g>
   <g id="patch_10">
    <path d="M 352.607369 390.340338 
C 352.607369 390.340338 352.607369 390.340338 352.607369 390.340338 
C 352.607369 390.340338 352.607369 390.340338 352.607369 390.340338 
L 352.607369 390.340338 
C 352.607369 390.340338 352.607369 390.340338 352.607369 390.340338 
C 352.607369 390.340338 352.607369 390.340338 352.607369 390.340338 
z
" clip-path="url(#p15fbcb5827)" style="fill: #4a90a4; opacity: 0.213997"/>
   </g>
   <g id="patch_11">
    <path d="M 352.607369 390.340338 
C 352.607369 390.340338 352.607369 390.340338 352.607369 390.340338 
C 352.607369 390.340338 352.607369 390.340338 352.607369 390.340338 
L 352.607369 390.340338 
C 352.607369 390.340338 352.607369 390.340338 352.607369 390.340338 
C 352.607369 390.340338 352.607369 390.340338 352.607369 390.340338 
z
" clip-path="url(#p15fbcb5827)" style="fill: #4a90a4; opacity: 0.213997"/>
   </g>
   <g id="patch_12">
    <path d="M 352.607369 390.340338 
C 352.607369 390.340338 352.607369 390.340338 352.607369 390.340338 
C 352.607369 390.340338 352.607369 390.340338 352.607369 390.340338 
L 352.607369 390.340338 
C 352.607369 390.340338 352.607369 390.340338 352.607369 390.340338 
C 352.607369 390.340338 352.607369 390.340338 352.607369 390.340338 
z
" clip-path="url(#p15fbcb5827)" style="fill: #4a90a4; opacity: 0.213997"/>
   </g>
   <g id="patch_13">
    <path d="M 352.607369 390.340338 
C 352.607369 390.340338 352.607369 390.340338 352.607369 390.340338 
C 352.607369 390.340338 352.607369 390.340338 352.607369 390.340338 
L 511.813565 338.611109 
C 517.241751 355.317349 520.00667 372.774359 520.00667 390.340338 
C 520.00667 407.906318 517.241751 425.363327 511.813565 442.069567 
z
" clip-path="url(#p15fbcb5827)" style="fill: #4a90a4; opacity: 0.213997"/>
   </g>
   <g id="patch_14">
    <path d="M 352.607369 390.340338 
C 352.607369 390.340338 352.607369 390.340338 352.607369 390.340338 
C 352.607369 390.340338 352.607369 390.340338 352.607369 390.340338 
L 401.804789 322.625899 
C 408.910377 327.788411 415.159297 334.03733 420.321809 341.142918 
C 425.484321 348.248506 429.496374 356.122604 432.210467 364.475724 
z
" clip-path="url(#p15fbcb5827)" style="fill: #4a90a4; opacity: 0.213997"/>
   </g>
   <g id="patch_15">
    <path d="M 352.607369 390.340338 
C 352.607369 390.340338 352.607369 390.340338 352.607369 390.340338 
C 352.607369 390.340338 352.607369 390.340338 352.607369 390.340338 
L 352.607369 222.941038 
C 370.173349 222.941038 387.630359 225.705956 404.336598 231.134143 
C 421.042837 236.562329 436.791033 244.586436 451.002209 254.911459 
z
" clip-path="url(#p15fbcb5827)" style="fill: #4a90a4; opacity: 0.213997"/>
   </g>
   <g id="patch_16">
    <path d="M 352.607369 390.340338 
C 352.607369 390.340338 352.607369 390.340338 352.607369 390.340338 
C 352.607369 390.340338 352.607369 390.340338 352.607369 390.340338 
L 254.212529 254.911459 
C 268.423705 244.586436 284.171901 236.562329 300.878141 231.134143 
C 317.58438 225.705956 335.04139 222.941038 352.607369 222.941038 
z
" clip-path="url(#p15fbcb5827)" style="fill: #4a90a4; opacity: 0.213997"/>
   </g>
   <g id="patch_17">
    <path d="M 352.607369 390.340338 
C 352.607369 390.340338 352.607369 390.340338 352.607369 390.340338 
C 352.607369 390.340338 352.607369 390.340338 352.607369 390.340338 
L 113.798076 312.746495 
C 121.940356 287.687136 133.976516 264.064842 149.464051 242.748078 
C 164.951587 221.431314 183.698345 202.684555 205.015109 187.19702 
z
" clip-path="url(#p15fbcb5827)" style="fill: #4a90a4; opacity: 0.213997"/>
   </g>
   <g id="patch_18">
    <path d="M 352.607369 390.340338 
C 352.607369 390.340338 352.607369 390.340338 352.607369 390.340338 
C 352.607369 390.340338 352.607369 390.340338 352.607369 390.340338 
L 273.004272 416.204952 
C 270.290179 407.851833 268.907719 399.123328 268.907719 390.340338 
C 268.907719 381.557348 270.290179 372.828843 273.004272 364.475724 
z
" clip-path="url(#p15fbcb5827)" style="fill: #4a90a4; opacity: 0.213997"/>
   </g>
   <g id="patch_19">
    <path d="M 352.607369 390.340338 
C 352.607369 390.340338 352.607369 390.340338 352.607369 390.340338 
C 352.607369 390.340338 352.607369 390.340338 352.607369 390.340338 
L 254.212529 525.769217 
C 240.001353 515.444193 227.503514 502.946354 217.178491 488.735178 
C 206.853467 474.524002 198.82936 458.775806 193.401174 442.069567 
z
" clip-path="url(#p15fbcb5827)" style="fill: #4a90a4; opacity: 0.213997"/>
   </g>
   <g id="patch_20">
    <path d="M 352.607369 390.340338 
C 352.607369 390.340338 352.607369 390.340338 352.607369 390.340338 
C 352.607369 390.340338 352.607369 390.340338 352.607369 390.340338 
L 352.607369 474.039988 
C 343.82438 474.039988 335.095875 472.657529 326.742755 469.943436 
C 318.389635 467.229343 310.515537 463.217289 303.409949 458.054778 
z
" clip-path="url(#p15fbcb5827)" style="fill: #4a90a4; opacity: 0.213997"/>
   </g>
   <g id="patch_21">
    <path d="M 352.607369 390.340338 
C 352.607369 390.340338 352.607369 390.340338 352.607369 390.340338 
C 352.607369 390.340338 352.607369 390.340338 352.607369 390.340338 
L 352.607369 390.340338 
C 352.607369 390.340338 352.607369 390.340338 352.607369 390.340338 
C 352.607369 390.340338 352.607369 390.340338 352.607369 390.340338 
z
" clip-path="url(#p15fbcb5827)" style="fill: #4a90a4; opacity: 0.213997"/>
   </g>
   <g id="patch_22">
    <path d="M 352.607369 390.340338 
C 352.607369 390.340338 352.607369 390.340338 352.607369 390.340338 
C 352.607369 390.340338 352.607369 390.340338 352.607369 390.340338 
L 432.210467 416.204952 
C 429.496374 424.558072 425.484321 432.43217 420.321809 439.537758 
C 415.159297 446.643346 408.910377 452.892266 401.804789 458.054778 
z
" clip-path="url(#p15fbcb5827)" style="fill: #4a90a4; opacity: 0.213997"/>
   </g>
   <g id="patch_23">
    <path d="M 352.607369 390.340338 
C 352.607369 390.340338 352.607369 390.340338 352.607369 390.340338 
C 352.607369 390.340338 352.607369 390.340338 352.607369 390.340338 
L 511.813565 338.611109 
C 517.241751 355.317349 520.00667 372.774359 520.00667 390.340338 
C 520.00667 407.906318 517.241751 425.363327 511.813565 442.069567 
z
" clip-path="url(#p15fbcb5827)" style="fill: #4a90a4; opacity: 0.213997"/>
   </g>
   <g id="patch_24">
    <path d="M 352.607369 390.340338 
C 352.607369 390.340338 352.607369 390.340338 352.607369 390.340338 
C 352.607369 390.340338 352.607369 390.340338 352.607369 390.340338 
L 352.607369 390.340338 
C 352.607369 390.340338 352.607369 390.340338 352.607369 390.340338 
C 352.607369 390.340338 352.607369 390.340338 352.607369 390.340338 
z
" clip-path="url(#p15fbcb5827)" style="fill: #4a90a4; opacity: 0.213997"/>
   </g>
   <g id="patch_25">
    <path d="M 352.607369 390.340338 
C 352.607369 390.340338 352.607369 390.340338 352.607369 390.340338 
C 352.607369 390.340338 352.607369 390.340338 352.607369 390.340338 
L 352.607369 222.941038 
C 370.173349 222.941038 387.630359 225.705956 404.336598 231.134143 
C 421.042837 236.562329 436.791033 244.586436 451.002209 254.911459 
z
" clip-path="url(#p15fbcb5827)" style="fill: #4a90a4; opacity: 0.213997"/>
   </g>
   <g id="patch_26">
    <path d="M 352.607369 390.340338 
C 352.607369 390.340338 352.607369 390.340338 352.607369 390.340338 
C 352.607369 390.340338 352.607369 390.340338 352.607369 390.340338 
L 352.607369 390.340338 
C 352.607369 390.340338 352.607369 390.340338 352.607369 390.340338 
C 352.607369 390.340338 352.607369 390.340338 352.607369 390.340338 
z
" clip-path="url(#p15fbcb5827)" style="fill: #4a90a4; opacity: 0.213997"/>
   </g>
   <g id="patch_27">
    <path d="M 352.607369 390.340338 
C 352.607369 390.340338 352.607369 390.340338 352.607369 390.340338 
C 352.607369 390.340338 352.607369 390.340338 352.607369 390.340338 
L 273.004272 364.475724 
C 275.718365 356.122604 279.730418 348.248506 284.89293 341.142918 
C 290.055442 334.03733 296.304361 327.788411 303.409949 322.625899 
z
" clip-path="url(#p15fbcb5827)" style="fill: #4a90a4; opacity: 0.213997"/>
   </g>
   <g id="patch_28">
    <path d="M 352.607369 390.340338 
C 352.607369 390.340338 352.607369 390.340338 352.607369 390.340338 
C 352.607369 390.340338 352.607369 390.340338 352.607369 390.340338 
L 352.607369 390.340338 
C 352.607369 390.340338 352.607369 390.340338 352.607369 390.340338 
C 352.607369 390.340338 352.607369 390.340338 352.607369 390.340338 
z
" clip-path="url(#p15fbcb5827)" style="fill: #4a90a4; opacity: 0.213997"/>
   </g>
   <g id="patch_29">
    <path d="M 352.607369 390.340338 
C 352.607369 390.340338 352.607369 390.340338 352.607369 390.340338 
C 352.607369 390.340338 352.607369 390.340338 352.607369 390.340338 
L 303.409949 458.054778 
C 296.304361 452.892266 290.055442 446.643346 284.89293 439.537758 
C 279.730418 432.43217 275.718365 424.558072 273.004272 416.204952 
z
" clip-path="url(#p15fbcb5827)" style="fill: #4a90a4; opacity: 0.213997"/>
   </g>
   <g id="patch_30">
    <path d="M 352.607369 390.340338 
C 352.607369 390.340338 352.607369 390.340338 352.607369 390.340338 
C 352.607369 390.340338 352.607369 390.340338 352.607369 390.340338 
L 352.607369 557.739638 
C 335.04139 557.739638 317.58438 554.97472 300.878141 549.546534 
C 284.171901 544.118347 268.423705 536.094241 254.212529 525.769217 
z
" clip-path="url(#p15fbcb5827)" style="fill: #4a90a4; opacity: 0.213997"/>
   </g>
   <g id="patch_31">
    <path d="M 352.607369 390.340338 
C 352.607369 390.340338 352.607369 390.340338 352.607369 390.340338 
C 352.607369 390.340338 352.607369 390.340338 352.607369 390.340338 
L 352.607369 390.340338 
C 352.607369 390.340338 352.607369 390.340338 352.607369 390.340338 
C 352.607369 390.340338 352.607369 390.340338 352.607369 390.340338 
z
" clip-path="url(#p15fbcb5827)" style="fill: #4a90a4; opacity: 0.213997"/>
   </g>
   <g id="patch_32">
    <path d="M 352.607369 390.340338 
C 352.607369 390.340338 352.607369 390.340338 352.607369 390.340338 
C 352.607369 390.340338 352.607369 390.340338 352.607369 390.340338 
L 352.607369 390.340338 
C 352.607369 390.340338 352.607369 390.340338 352.607369 390.340338 
C 352.607369 390.340338 352.607369 390.340338 352.607369 390.340338 
z
" clip-path="url(#p15fbcb5827)" style="fill: #4a90a4; opacity: 0.213997"/>
   </g>
   <g id="patch_33">
    <path d="M 352.607369 390.340338 
C 352.607369 390.340338 352.607369 390.340338 352.607369 390.340338 
C 352.607369 390.340338 352.607369 390.340338 352.607369 390.340338 
L 591.416662 312.746495 
C 599.558942 337.805854 603.70632 363.991369 603.70632 390.340338 
C 603.70632 416.689307 599.558942 442.874822 591.416662 467.934181 
z
" clip-path="url(#p15fbcb5827)" style="fill: #4a90a4; opacity: 0.213997"/>
   </g>
   <g id="patch_34">
    <path d="M 352.607369 390.340338 
C 352.607369 390.340338 352.607369 390.340338 352.607369 390.340338 
C 352.607369 390.340338 352.607369 390.340338 352.607369 390.340338 
L 401.804789 322.625899 
C 408.910377 327.788411 415.159297 334.03733 420.321809 341.142918 
C 425.484321 348.248506 429.496374 356.122604 432.210467 364.475724 
z
" clip-path="url(#p15fbcb5827)" style="fill: #4a90a4; opacity: 0.213997"/>
   </g>
   <g id="patch_35">
    <path d="M 352.607369 390.340338 
C 352.607369 390.340338 352.607369 390.340338 352.607369 390.340338 
C 352.607369 390.340338 352.607369 390.340338 352.607369 390.340338 
L 352.607369 222.941038 
C 370.173349 222.941038 387.630359 225.705956 404.336598 231.134143 
C 421.042837 236.562329 436.791033 244.586436 451.002209 254.911459 
z
" clip-path="url(#p15fbcb5827)" style="fill: #4a90a4; opacity: 0.213997"/>
   </g>
   <g id="patch_36">
    <path d="M 352.607369 390.340338 
C 352.607369 390.340338 352.607369 390.340338 352.607369 390.340338 
C 352.607369 390.340338 352.607369 390.340338 352.607369 390.340338 
L 352.607369 390.340338 
C 352.607369 390.340338 352.607369 390.340338 352.607369 390.340338 
C 352.607369 390.340338 352.607369 390.340338 352.607369 390.340338 
z
" clip-path="url(#p15fbcb5827)" style="fill: #4a90a4; opacity: 0.213997"/>
   </g>
   <g id="patch_37">
    <path d="M 352.607369 390.340338 
C 352.607369 390.340338 352.607369 390.340338 352.607369 390.340338 
C 352.607369 390.340338 352.607369 390.340338 352.607369 390.340338 
L 273.004272 364.475724 
C 275.718365 356.122604 279.730418 348.248506 284.89293 341.142918 
C 290.055442 334.03733 296.304361 327.788411 303.409949 322.625899 
z
" clip-path="url(#p15fbcb5827)" style="fill: #4a90a4; opacity: 0.213997"/>
   </g>
   <g id="patch_38">
    <path d="M 352.607369 390.340338 
C 352.607369 390.340338 352.607369 390.340338 352.607369 390.340338 
C 352.607369 390.340338 352.607369 390.340338 352.607369 390.340338 
L 352.607369 390.340338 
C 352.607369 390.340338 352.607369 390.340338 352.607369 390.340338 
C 352.607369 390.340338 352.607369 390.340338 352.607369 390.340338 
z
" clip-path="url(#p15fbcb5827)" style="fill: #4a90a4; opacity: 0.213997"/>
   </g>
   <g id="patch_39">
    <path d="M 352.607369 390.340338 
C 352.607369 390.340338 352.607369 390.340338 352.607369 390.340338 
C 352.607369 390.340338 352.607369 390.340338 352.607369 390.340338 
L 303.409949 458.054778 
C 296.304361 452.892266 290.055442 446.643346 284.89293 439.537758 
C 279.730418 432.43217 275.718365 424.558072 273.004272 416.204952 
z
" clip-path="url(#p15fbcb5827)" style="fill: #4a90a4; opacity: 0.213997"/>
   </g>
   <g id="patch_40">
    <path d="M 352.607369 390.340338 
C 352.607369 390.340338 352.607369 390.340338 352.607369 390.340338 
C 352.607369 390.340338 352.607369 390.340338 352.607369 390.340338 
L 352.607369 474.039988 
C 343.82438 474.039988 335.095875 472.657529 326.742755 469.943436 
C 318.389635 467.229343 310.515537 463.217289 303.409949 458.054778 
z
" clip-path="url(#p15fbcb5827)" style="fill: #4a90a4; opacity: 0.213997"/>
   </g>
   <g id="patch_41">
    <path d="M 352.607369 390.340338 
C 352.607369 390.340338 352.607369 390.340338 352.607369 390.340338 
C 352.607369 390.340338 352.607369 390.340338 352.607369 390.340338 
L 352.607369 390.340338 
C 352.607369 390.340338 352.607369 390.340338 352.607369 390.340338 
C 352.607369 390.340338 352.607369 390.340338 352.607369 390.340338 
z
" clip-path="url(#p15fbcb5827)" style="fill: #4a90a4; opacity: 0.213997"/>
   </g>
   <g id="patch_42">
    <path d="M 352.607369 390.340338 
C 352.607369 390.340338 352.607369 390.340338 352.607369 390.340338 
C 352.607369 390.340338 352.607369 390.340338 352.607369 390.340338 
L 352.607369 390.340338 
C 352.607369 390.340338 352.607369 390.340338 352.607369 390.340338 
C 352.607369 390.340338 352.607369 390.340338 352.607369 390.340338 
z
" clip-path="url(#p15fbcb5827)" style="fill: #4a90a4; opacity: 0.213997"/>
   </g>
   <g id="patch_43">
    <path d="M 352.607369 390.340338 
C 352.607369 390.340338 352.607369 390.340338 352.607369 390.340338 
C 352.607369 390.340338 352.607369 390.340338 352.607369 390.340338 
L 591.416662 312.746495 
C 599.558942 337.805854 603.70632 363.991369 603.70632 390.340338 
C 603.70632 416.689307 599.558942 442.874822 591.416662 467.934181 
z
" clip-path="url(#p15fbcb5827)" style="fill: #4a90a4; opacity: 0.213997"/>
   </g>
   <g id="patch_44">
    <path d="M 352.607369 390.340338 
C 352.607369 390.340338 352.607369 390.340338 352.607369 390.340338 
C 352.607369 390.340338 352.607369 390.340338 352.607369 390.340338 
L 451.002209 254.911459 
C 465.213385 265.236483 477.711224 277.734322 488.036248 291.945498 
C 498.361272 306.156674 506.385379 321.90487 511.813565 338.611109 
z
" clip-path="url(#p15fbcb5827)" style="fill: #4a90a4; opacity: 0.213997"/>
   </g>
   <g id="patch_45">
    <path d="M 352.607369 390.340338 
C 352.607369 390.340338 352.607369 390.340338 352.607369 390.340338 
C 352.607369 390.340338 352.607369 390.340338 352.607369 390.340338 
L 352.607369 306.640688 
C 361.390359 306.640688 370.118864 308.023147 378.471984 310.73724 
C 386.825103 313.451334 394.699201 317.463387 401.804789 322.625899 
z
" clip-path="url(#p15fbcb5827)" style="fill: #4a90a4; opacity: 0.213997"/>
   </g>
   <g id="patch_46">
    <path d="M 352.607369 390.340338 
C 352.607369 390.340338 352.607369 390.340338 352.607369 390.340338 
C 352.607369 390.340338 352.607369 390.340338 352.607369 390.340338 
L 352.607369 390.340338 
C 352.607369 390.340338 352.607369 390.340338 352.607369 390.340338 
C 352.607369 390.340338 352.607369 390.340338 352.607369 390.340338 
z
" clip-path="url(#p15fbcb5827)" style="fill: #4a90a4; opacity: 0.213997"/>
   </g>
   <g id="patch_47">
    <path d="M 352.607369 390.340338 
C 352.607369 390.340338 352.607369 390.340338 352.607369 390.340338 
C 352.607369 390.340338 352.607369 390.340338 352.607369 390.340338 
L 193.401174 338.611109 
C 198.82936 321.90487 206.853467 306.156674 217.178491 291.945498 
C 227.503514 277.734322 240.001353 265.236483 254.212529 254.911459 
z
" clip-path="url(#p15fbcb5827)" style="fill: #4a90a4; opacity: 0.213997"/>
   </g>
   <g id="patch_48">
    <path d="M 352.607369 390.340338 
C 352.607369 390.340338 352.607369 390.340338 352.607369 390.340338 
C 352.607369 390.340338 352.607369 390.340338 352.607369 390.340338 
L 352.607369 390.340338 
C 352.607369 390.340338 352.607369 390.340338 352.607369 390.340338 
C 352.607369 390.340338 352.607369 390.340338 352.607369 390.340338 
z
" clip-path="url(#p15fbcb5827)" style="fill: #4a90a4; opacity: 0.213997"/>
   </g>
   <g id="patch_49">
    <path d="M 352.607369 390.340338 
C 352.607369 390.340338 352.607369 390.340338 352.607369 390.340338 
C 352.607369 390.340338 352.607369 390.340338 352.607369 390.340338 
L 254.212529 525.769217 
C 240.001353 515.444193 227.503514 502.946354 217.178491 488.735178 
C 206.853467 474.524002 198.82936 458.775806 193.401174 442.069567 
z
" clip-path="url(#p15fbcb5827)" style="fill: #4a90a4; opacity: 0.213997"/>
   </g>
   <g id="patch_50">
    <path d="M 352.607369 390.340338 
C 352.607369 390.340338 352.607369 390.340338 352.607369 390.340338 
C 352.607369 390.340338 352.607369 390.340338 352.607369 390.340338 
L 352.607369 474.039988 
C 343.82438 474.039988 335.095875 472.657529 326.742755 469.943436 
C 318.389635 467.229343 310.515537 463.217289 303.409949 458.054778 
z
" clip-path="url(#p15fbcb5827)" style="fill: #4a90a4; opacity: 0.213997"/>
   </g>
   <g id="patch_51">
    <path d="M 352.607369 390.340338 
C 352.607369 390.340338 352.607369 390.340338 352.607369 390.340338 
C 352.607369 390.340338 352.607369 390.340338 352.607369 390.340338 
L 352.607369 390.340338 
C 352.607369 390.340338 352.607369 390.340338 352.607369 390.340338 
C 352.607369 390.340338 352.607369 390.340338 352.607369 390.340338 
z
" clip-path="url(#p15fbcb5827)" style="fill: #4a90a4; opacity: 0.213997"/>
   </g>
   <g id="patch_52">
    <path d="M 352.607369 390.340338 
C 352.607369 390.340338 352.607369 390.340338 352.607369 390.340338 
C 352.607369 390.340338 352.607369 390.340338 352.607369 390.340338 
L 352.607369 390.340338 
C 352.607369 390.340338 352.607369 390.340338 352.607369 390.340338 
C 352.607369 390.340338 352.607369 390.340338 352.607369 390.340338 
z
" clip-path="url(#p15fbcb5827)" style="fill: #4a90a4; opacity: 0.213997"/>
   </g>
   <g id="line2d_1">
    <path d="M 352.607369 390.340338 
L 352.607369 390.340338 
L 352.607369 390.340338 
L 352.607369 390.340338 
L 352.607369 390.340338 
L 352.607369 390.340338 
L 352.607369 390.340338 
L 352.607369 390.340338 
L 352.607369 390.340338 
L 352.607369 390.340338 
L 352.607369 390.340338 
L 352.607369 390.340338 
L 352.607369 390.340338 
L 352.607369 390.340338 
L 352.607369 390.340338 
L 352.607369 390.340338 
L 352.607369 390.340338 
L 352.607369 390.340338 
L 352.607369 390.340338 
L 352.607369 390.340338 
L 352.607369 390.340338 
L 352.607369 390.340338 
L 352.607369 390.340338 
L 352.607369 390.340338 
L 352.607369 390.340338 
L 352.607369 390.340338 
L 352.607369 390.340338 
L 352.607369 390.340338 
L 352.607369 390.340338 
L 352.607369 390.340338 
L 352.607369 390.340338 
L 352.607369 390.340338 
L 352.607369 390.340338 
L 352.607369 390.340338 
L 352.607369 390.340338 
L 352.607369 390.340338 
L 352.607369 390.340338 
L 352.607369 390.340338 
L 352.607369 390.340338 
L 352.607369 390.340338 
L 352.607369 390.340338 
L 352.607369 390.340338 
L 352.607369 390.340338 
L 352.607369 390.340338 
L 352.607369 390.340338 
L 352.607369 390.340338 
L 352.607369 390.340338 
L 352.607369 390.340338 
L 352.607369 390.340338 
L 352.607369 390.340338 
L 352.607369 390.340338 
L 352.607369 390.340338 
L 352.607369 390.340338 
L 352.607369 390.340338 
L 352.607369 390.340338 
L 352.607369 390.340338 
L 352.607369 390.340338 
L 352.607369 390.340338 
L 352.607369 390.340338 
L 352.607369 390.340338 
L 352.607369 390.340338 
L 352.607369 390.340338 
L 352.607369 390.340338 
L 352.607369 390.340338 
L 352.607369 390.340338 
L 352.607369 390.340338 
L 352.607369 390.340338 
L 352.607369 390.340338 
L 352.607369 390.340338 
L 352.607369 390.340338 
L 352.607369 390.340338 
L 352.607369 390.340338 
L 352.607369 390.340338 
L 352.607369 390.340338 
L 352.607369 390.340338 
L 352.607369 390.340338 
L 352.607369 390.340338 
L 352.607369 390.340338 
L 352.607369 390.340338 
L 352.607369 390.340338 
L 352.607369 390.340338 
L 352.607369 390.340338 
L 352.607369 390.340338 
L 352.607369 390.340338 
L 352.607369 390.340338 
L 352.607369 390.340338 
L 352.607369 390.340338 
L 352.607369 390.340338 
L 352.607369 390.340338 
L 352.607369 390.340338 
L 352.607369 390.340338 
L 352.607369 390.340338 
L 352.607369 390.340338 
L 352.607369 390.340338 
L 352.607369 390.340338 
L 352.607369 390.340338 
L 352.607369 390.340338 
L 352.607369 390.340338 
L 352.607369 390.340338 
L 352.607369 390.340338 
" clip-path="url(#p15fbcb5827)" style="fill: none; stroke: #e8e5e1; stroke-opacity: 0.7; stroke-width: 0.5; stroke-linecap: round"/>
   </g>
   <g id="line2d_2">
    <path d="M 436.30702 390.340338 
L 436.138505 385.031778 
L 435.63364 379.744594 
L 434.794458 374.500075 
L 433.624337 369.319339 
L 432.12799 364.223248 
L 430.311441 359.232321 
L 428.182005 354.366654 
L 425.748257 349.645841 
L 423.019996 345.088891 
L 420.008208 340.714152 
L 416.725021 336.53924 
L 413.183655 332.580966 
L 409.39837 328.855269 
L 405.384407 325.377151 
L 401.15793 322.160616 
L 396.735957 319.218617 
L 392.136293 316.563 
L 387.377461 314.204458 
L 382.478621 312.152489 
L 377.459501 310.415355 
L 372.34031 309.00005 
L 367.141661 307.912274 
L 361.884488 307.156406 
L 356.589959 306.735491 
L 351.279394 306.651223 
L 345.974176 306.903942 
L 340.695667 307.49263 
L 335.465123 308.414916 
L 330.303604 309.667087 
L 325.231895 311.2441 
L 320.270417 313.139606 
L 315.439149 315.345973 
L 310.757544 317.854315 
L 306.244454 320.654533 
L 301.91805 323.73535 
L 297.795755 327.084363 
L 293.894167 330.688085 
L 290.228996 334.532006 
L 286.815 338.600647 
L 283.665928 342.877626 
L 280.794458 347.34572 
L 278.212153 351.986939 
L 275.929412 356.782593 
L 273.955426 361.713372 
L 272.298143 366.759422 
L 270.964237 371.900424 
L 269.95908 377.115677 
L 269.286718 382.384181 
L 268.949858 387.684721 
L 268.949858 392.995955 
L 269.286718 398.296496 
L 269.95908 403.565 
L 270.964237 408.780253 
L 272.298143 413.921255 
L 273.955426 418.967304 
L 275.929412 423.898084 
L 278.212153 428.693738 
L 280.794458 433.334956 
L 283.665928 437.80305 
L 286.815 442.080029 
L 290.228996 446.14867 
L 293.894167 449.992591 
L 297.795755 453.596313 
L 301.91805 456.945326 
L 306.244454 460.026144 
L 310.757544 462.826361 
L 315.439149 465.334704 
L 320.270417 467.54107 
L 325.231895 469.436576 
L 330.303604 471.01359 
L 335.465123 472.26576 
L 340.695667 473.188047 
L 345.974176 473.776734 
L 351.279394 474.029453 
L 356.589959 473.945185 
L 361.884488 473.52427 
L 367.141661 472.768403 
L 372.34031 471.680626 
L 377.459501 470.265322 
L 382.478621 468.528187 
L 387.377461 466.476218 
L 392.136293 464.117676 
L 396.735957 461.462059 
L 401.15793 458.52006 
L 405.384407 455.303526 
L 409.39837 451.825407 
L 413.183655 448.09971 
L 416.725021 444.141436 
L 420.008208 439.966524 
L 423.019996 435.591785 
L 425.748257 431.034835 
L 428.182005 426.314022 
L 430.311441 421.448356 
L 432.12799 416.457428 
L 433.624337 411.361337 
L 434.794458 406.180601 
L 435.63364 400.936082 
L 436.138505 395.648898 
L 436.30702 390.340338 
" clip-path="url(#p15fbcb5827)" style="fill: none; stroke: #e8e5e1; stroke-opacity: 0.7; stroke-width: 0.5; stroke-linecap: round"/>
   </g>
   <g id="line2d_3">
    <path d="M 520.00667 390.340338 
L 519.669641 379.723218 
L 518.659911 369.14885 
L 516.981546 358.659812 
L 514.641305 348.298341 
L 511.64861 338.106158 
L 508.015512 328.124303 
L 503.75664 318.392971 
L 498.889144 308.951345 
L 493.432622 299.837444 
L 487.409047 291.087966 
L 480.842673 282.738142 
L 473.759941 274.821594 
L 466.18937 267.3702 
L 458.161445 260.413963 
L 449.70849 253.980894 
L 440.864544 248.096896 
L 431.665217 242.785662 
L 422.147552 238.068579 
L 412.349873 233.96464 
L 402.311632 230.490371 
L 392.07325 227.659762 
L 381.675953 225.484209 
L 371.161606 223.972475 
L 360.572549 223.130644 
L 349.951418 222.962109 
L 339.340982 223.467546 
L 328.783965 224.644921 
L 318.322876 226.489493 
L 307.999839 228.993835 
L 297.856421 232.147862 
L 287.933466 235.938875 
L 278.270929 240.351607 
L 268.907719 245.368291 
L 259.881538 250.968727 
L 251.228731 257.130363 
L 242.984141 263.828388 
L 235.180964 271.035832 
L 227.850622 278.723674 
L 221.022631 286.860956 
L 214.724486 295.414914 
L 208.981546 304.351102 
L 203.816937 313.633539 
L 199.251455 323.224847 
L 195.303482 333.086405 
L 191.988917 343.178505 
L 189.321105 353.460509 
L 187.31079 363.891015 
L 185.966066 374.428023 
L 185.292347 385.029104 
L 185.292347 395.651572 
L 185.966066 406.252653 
L 187.31079 416.789661 
L 189.321105 427.220167 
L 191.988917 437.502171 
L 195.303482 447.594271 
L 199.251455 457.455829 
L 203.816937 467.047137 
L 208.981546 476.329574 
L 214.724486 485.265763 
L 221.022631 493.81972 
L 227.850622 501.957002 
L 235.180964 509.644844 
L 242.984141 516.852288 
L 251.228731 523.550313 
L 259.881538 529.711949 
L 268.907719 535.312385 
L 278.270929 540.329069 
L 287.933466 544.741802 
L 297.856421 548.532814 
L 307.999839 551.686841 
L 318.322876 554.191183 
L 328.783965 556.035755 
L 339.340982 557.21313 
L 349.951418 557.718568 
L 360.572549 557.550032 
L 371.161606 556.708202 
L 381.675953 555.196467 
L 392.07325 553.020915 
L 402.311632 550.190305 
L 412.349873 546.716036 
L 422.147552 542.612098 
L 431.665217 537.895014 
L 440.864544 532.583781 
L 449.70849 526.699783 
L 458.161445 520.266713 
L 466.18937 513.310476 
L 473.759941 505.859082 
L 480.842673 497.942534 
L 487.409047 489.592711 
L 493.432622 480.843233 
L 498.889144 471.729332 
L 503.75664 462.287706 
L 508.015512 452.556373 
L 511.64861 442.574519 
L 514.641305 432.382335 
L 516.981546 422.020864 
L 518.659911 411.531826 
L 519.669641 400.957458 
L 520.00667 390.340338 
" clip-path="url(#p15fbcb5827)" style="fill: none; stroke: #e8e5e1; stroke-opacity: 0.7; stroke-width: 0.5; stroke-linecap: round"/>
   </g>
   <g id="line2d_4">
    <path d="M 603.70632 390.340338 
L 603.200776 374.414658 
L 601.686182 358.553106 
L 599.168635 342.819549 
L 595.658272 327.277342 
L 591.16923 311.989067 
L 585.719583 297.016286 
L 579.331276 282.419287 
L 572.030031 268.256848 
L 563.845249 254.585996 
L 554.809886 241.461779 
L 544.960325 228.937044 
L 534.336227 217.062223 
L 522.980371 205.885131 
L 510.938482 195.450775 
L 498.259051 185.801171 
L 484.993131 176.975174 
L 471.194141 169.008324 
L 456.917643 161.932699 
L 442.221125 155.776791 
L 427.163764 150.565387 
L 411.806191 146.319473 
L 396.210245 143.056145 
L 380.438725 140.788543 
L 364.555138 139.525798 
L 348.623442 139.272994 
L 332.707788 140.03115 
L 316.872263 141.797213 
L 301.18063 144.564071 
L 285.696074 148.320584 
L 270.480947 153.051624 
L 255.596514 158.738143 
L 241.102709 165.357242 
L 227.057894 172.882268 
L 213.518623 181.282921 
L 200.539412 190.525375 
L 188.172526 200.572413 
L 176.467761 211.38358 
L 165.472248 222.915342 
L 155.230262 235.121265 
L 145.783044 247.952201 
L 137.168635 261.356484 
L 129.421721 275.280139 
L 122.573497 289.667101 
L 116.651538 304.459439 
L 111.679691 319.597589 
L 107.677974 335.020595 
L 104.662501 350.666353 
L 102.645414 366.471865 
L 101.634837 382.373487 
L 101.634837 398.307189 
L 102.645414 414.208811 
L 104.662501 430.014323 
L 107.677974 445.660082 
L 111.679691 461.083087 
L 116.651538 476.221237 
L 122.573497 491.013575 
L 129.421721 505.400537 
L 137.168635 519.324192 
L 145.783044 532.728475 
L 155.230262 545.559411 
L 165.472248 557.765334 
L 176.467761 569.297097 
L 188.172526 580.108263 
L 200.539412 590.155301 
L 213.518623 599.397755 
L 227.057894 607.798408 
L 241.102709 615.323435 
L 255.596514 621.942533 
L 270.480947 627.629052 
L 285.696074 632.360093 
L 301.18063 636.116605 
L 316.872263 638.883463 
L 332.707788 640.649526 
L 348.623442 641.407682 
L 364.555138 641.154879 
L 380.438725 639.892134 
L 396.210245 637.624531 
L 411.806191 634.361203 
L 427.163764 630.115289 
L 442.221125 624.903885 
L 456.917643 618.747978 
L 471.194141 611.672353 
L 484.993131 603.705502 
L 498.259051 594.879505 
L 510.938482 585.229901 
L 522.980371 574.795545 
L 534.336227 563.618454 
L 544.960325 551.743632 
L 554.809886 539.218897 
L 563.845249 526.09468 
L 572.030031 512.423828 
L 579.331276 498.261389 
L 585.719583 483.664391 
L 591.16923 468.691609 
L 595.658272 453.403334 
L 599.168635 437.861127 
L 601.686182 422.12757 
L 603.200776 406.266018 
L 603.70632 390.340338 
" clip-path="url(#p15fbcb5827)" style="fill: none; stroke: #e8e5e1; stroke-opacity: 0.7; stroke-width: 0.5; stroke-linecap: round"/>
   </g>
   <g id="line2d_5">
    <path d="M 352.607369 390.340338 
L 631.218211 480.866488 
" clip-path="url(#p15fbcb5827)" style="fill: none; stroke: #e8e5e1; stroke-opacity: 0.7; stroke-width: 0.5; stroke-linecap: round"/>
   </g>
   <g id="line2d_6">
    <path d="M 352.607369 390.340338 
L 631.218211 299.814188 
" clip-path="url(#p15fbcb5827)" style="fill: none; stroke: #e8e5e1; stroke-opacity: 0.7; stroke-width: 0.5; stroke-linecap: round"/>
   </g>
   <g id="line2d_7">
    <path d="M 352.607369 390.340338 
L 524.798339 153.3398 
" clip-path="url(#p15fbcb5827)" style="fill: none; stroke: #e8e5e1; stroke-opacity: 0.7; stroke-width: 0.5; stroke-linecap: round"/>
   </g>
   <g id="line2d_8">
    <path d="M 352.607369 390.340338 
L 352.607369 97.391563 
" clip-path="url(#p15fbcb5827)" style="fill: none; stroke: #e8e5e1; stroke-opacity: 0.7; stroke-width: 0.5; stroke-linecap: round"/>
   </g>
   <g id="line2d_9">
    <path d="M 352.607369 390.340338 
L 180.416399 153.3398 
" clip-path="url(#p15fbcb5827)" style="fill: none; stroke: #e8e5e1; stroke-opacity: 0.7; stroke-width: 0.5; stroke-linecap: round"/>
   </g>
   <g id="line2d_10">
    <path d="M 352.607369 390.340338 
L 73.996527 299.814188 
" clip-path="url(#p15fbcb5827)" style="fill: none; stroke: #e8e5e1; stroke-opacity: 0.7; stroke-width: 0.5; stroke-linecap: round"/>
   </g>
   <g id="line2d_11">
    <path d="M 352.607369 390.340338 
L 73.996527 480.866488 
" clip-path="url(#p15fbcb5827)" style="fill: none; stroke: #e8e5e1; stroke-opacity: 0.7; stroke-width: 0.5; stroke-linecap: round"/>
   </g>
   <g id="line2d_12">
    <path d="M 352.607369 390.340338 
L 180.416399 627.340876 
" clip-path="url(#p15fbcb5827)" style="fill: none; stroke: #e8e5e1; stroke-opacity: 0.7; stroke-width: 0.5; stroke-linecap: round"/>
   </g>
   <g id="line2d_13">
    <path d="M 352.607369 390.340338 
L 352.607369 683.289114 
" clip-path="url(#p15fbcb5827)" style="fill: none; stroke: #e8e5e1; stroke-opacity: 0.7; stroke-width: 0.5; stroke-linecap: round"/>
   </g>
   <g id="line2d_14">
    <path d="M 352.607369 390.340338 
L 524.798339 627.340876 
" clip-path="url(#p15fbcb5827)" style="fill: none; stroke: #e8e5e1; stroke-opacity: 0.7; stroke-width: 0.5; stroke-linecap: round"/>
   </g>
   <g id="text_11">
    <g id="patch_53">
     <path d="M 433.804598 396.255729 
L 438.809441 396.255729 
Q 440.609441 396.255729 440.609441 394.455729 
L 440.609441 386.224947 
Q 440.609441 384.424947 438.809441 384.424947 
L 433.804598 384.424947 
Q 432.004598 384.424947 432.004598 386.224947 
L 432.004598 394.455729 
Q 432.004598 396.255729 433.804598 396.255729 
z
" style="fill: #ffffff; opacity: 0.8"/>
    </g>
    <!-- 1 -->
    <g style="fill: #787470" transform="translate(433.804598 392.666979) scale(0.09 -0.09)">
     <defs>
      <path id="ArialMT-31" d="M 2384 0 
L 1822 0 
L 1822 3584 
Q 1619 3391 1289 3197 
Q 959 3003 697 2906 
L 697 3450 
Q 1169 3672 1522 3987 
Q 1875 4303 2022 4600 
L 2384 4600 
L 2384 0 
z
" transform="scale(0.015625)"/>
     </defs>
     <use xlink:href="#ArialMT-31"/>
    </g>
   </g>
   <g id="text_12">
    <g id="patch_54">
     <path d="M 517.504248 396.255729 
L 522.509092 396.255729 
Q 524.309092 396.255729 524.309092 394.455729 
L 524.309092 386.224947 
Q 524.309092 384.424947 522.509092 384.424947 
L 517.504248 384.424947 
Q 515.704248 384.424947 515.704248 386.224947 
L 515.704248 394.455729 
Q 515.704248 396.255729 517.504248 396.255729 
z
" style="fill: #ffffff; opacity: 0.8"/>
    </g>
    <!-- 2 -->
    <g style="fill: #787470" transform="translate(517.504248 392.666979) scale(0.09 -0.09)">
     <defs>
      <path id="ArialMT-32" d="M 3222 541 
L 3222 0 
L 194 0 
Q 188 203 259 391 
Q 375 700 629 1000 
Q 884 1300 1366 1694 
Q 2113 2306 2375 2664 
Q 2638 3022 2638 3341 
Q 2638 3675 2398 3904 
Q 2159 4134 1775 4134 
Q 1369 4134 1125 3890 
Q 881 3647 878 3216 
L 300 3275 
Q 359 3922 746 4261 
Q 1134 4600 1788 4600 
Q 2447 4600 2831 4234 
Q 3216 3869 3216 3328 
Q 3216 3053 3103 2787 
Q 2991 2522 2730 2228 
Q 2469 1934 1863 1422 
Q 1356 997 1212 845 
Q 1069 694 975 541 
L 3222 541 
z
" transform="scale(0.015625)"/>
     </defs>
     <use xlink:href="#ArialMT-32"/>
    </g>
   </g>
   <g id="text_13">
    <g id="patch_55">
     <path d="M 601.203898 396.255729 
L 606.208742 396.255729 
Q 608.008742 396.255729 608.008742 394.455729 
L 608.008742 386.224947 
Q 608.008742 384.424947 606.208742 384.424947 
L 601.203898 384.424947 
Q 599.403898 384.424947 599.403898 386.224947 
L 599.403898 394.455729 
Q 599.403898 396.255729 601.203898 396.255729 
z
" style="fill: #ffffff; opacity: 0.8"/>
    </g>
    <!-- 3 -->
    <g style="fill: #787470" transform="translate(601.203898 392.666979) scale(0.09 -0.09)">
     <defs>
      <path id="ArialMT-33" d="M 269 1209 
L 831 1284 
Q 928 806 1161 595 
Q 1394 384 1728 384 
Q 2125 384 2398 659 
Q 2672 934 2672 1341 
Q 2672 1728 2419 1979 
Q 2166 2231 1775 2231 
Q 1616 2231 1378 2169 
L 1441 2663 
Q 1497 2656 1531 2656 
Q 1891 2656 2178 2843 
Q 2466 3031 2466 3422 
Q 2466 3731 2256 3934 
Q 2047 4138 1716 4138 
Q 1388 4138 1169 3931 
Q 950 3725 888 3313 
L 325 3413 
Q 428 3978 793 4289 
Q 1159 4600 1703 4600 
Q 2078 4600 2393 4439 
Q 2709 4278 2876 4000 
Q 3044 3722 3044 3409 
Q 3044 3113 2884 2869 
Q 2725 2625 2413 2481 
Q 2819 2388 3044 2092 
Q 3269 1797 3269 1353 
Q 3269 753 2831 336 
Q 2394 -81 1725 -81 
Q 1122 -81 723 278 
Q 325 638 269 1209 
z
" transform="scale(0.015625)"/>
     </defs>
     <use xlink:href="#ArialMT-33"/>
    </g>
   </g>
   <g id="text_14">
    <!-- Drosophila - Simulation Characteristics -->
    <g style="fill: #3a3a48" transform="translate(221.529088 17.391563) scale(0.14 -0.14)">
     <defs>
      <path id="Arial-BoldMT-44" d="M 463 4581 
L 2153 4581 
Q 2725 4581 3025 4494 
Q 3428 4375 3715 4072 
Q 4003 3769 4153 3330 
Q 4303 2891 4303 2247 
Q 4303 1681 4163 1272 
Q 3991 772 3672 463 
Q 3431 228 3022 97 
Q 2716 0 2203 0 
L 463 0 
L 463 4581 
z
M 1388 3806 
L 1388 772 
L 2078 772 
Q 2466 772 2638 816 
Q 2863 872 3011 1006 
Q 3159 1141 3253 1448 
Q 3347 1756 3347 2288 
Q 3347 2819 3253 3103 
Q 3159 3388 2990 3547 
Q 2822 3706 2563 3763 
Q 2369 3806 1803 3806 
L 1388 3806 
z
" transform="scale(0.015625)"/>
      <path id="Arial-BoldMT-72" d="M 1300 0 
L 422 0 
L 422 3319 
L 1238 3319 
L 1238 2847 
Q 1447 3181 1614 3287 
Q 1781 3394 1994 3394 
Q 2294 3394 2572 3228 
L 2300 2463 
Q 2078 2606 1888 2606 
Q 1703 2606 1575 2504 
Q 1447 2403 1373 2137 
Q 1300 1872 1300 1025 
L 1300 0 
z
" transform="scale(0.015625)"/>
      <path id="Arial-BoldMT-6f" d="M 256 1706 
Q 256 2144 472 2553 
Q 688 2963 1083 3178 
Q 1478 3394 1966 3394 
Q 2719 3394 3200 2905 
Q 3681 2416 3681 1669 
Q 3681 916 3195 420 
Q 2709 -75 1972 -75 
Q 1516 -75 1102 131 
Q 688 338 472 736 
Q 256 1134 256 1706 
z
M 1156 1659 
Q 1156 1166 1390 903 
Q 1625 641 1969 641 
Q 2313 641 2545 903 
Q 2778 1166 2778 1666 
Q 2778 2153 2545 2415 
Q 2313 2678 1969 2678 
Q 1625 2678 1390 2415 
Q 1156 2153 1156 1659 
z
" transform="scale(0.015625)"/>
      <path id="Arial-BoldMT-73" d="M 150 947 
L 1031 1081 
Q 1088 825 1259 692 
Q 1431 559 1741 559 
Q 2081 559 2253 684 
Q 2369 772 2369 919 
Q 2369 1019 2306 1084 
Q 2241 1147 2013 1200 
Q 950 1434 666 1628 
Q 272 1897 272 2375 
Q 272 2806 612 3100 
Q 953 3394 1669 3394 
Q 2350 3394 2681 3172 
Q 3013 2950 3138 2516 
L 2309 2363 
Q 2256 2556 2107 2659 
Q 1959 2763 1684 2763 
Q 1338 2763 1188 2666 
Q 1088 2597 1088 2488 
Q 1088 2394 1175 2328 
Q 1294 2241 1995 2081 
Q 2697 1922 2975 1691 
Q 3250 1456 3250 1038 
Q 3250 581 2869 253 
Q 2488 -75 1741 -75 
Q 1063 -75 667 200 
Q 272 475 150 947 
z
" transform="scale(0.015625)"/>
      <path id="Arial-BoldMT-70" d="M 434 3319 
L 1253 3319 
L 1253 2831 
Q 1413 3081 1684 3237 
Q 1956 3394 2288 3394 
Q 2866 3394 3269 2941 
Q 3672 2488 3672 1678 
Q 3672 847 3265 386 
Q 2859 -75 2281 -75 
Q 2006 -75 1782 34 
Q 1559 144 1313 409 
L 1313 -1263 
L 434 -1263 
L 434 3319 
z
M 1303 1716 
Q 1303 1156 1525 889 
Q 1747 622 2066 622 
Q 2372 622 2575 867 
Q 2778 1113 2778 1672 
Q 2778 2194 2568 2447 
Q 2359 2700 2050 2700 
Q 1728 2700 1515 2451 
Q 1303 2203 1303 1716 
z
" transform="scale(0.015625)"/>
      <path id="Arial-BoldMT-68" d="M 1334 4581 
L 1334 2897 
Q 1759 3394 2350 3394 
Q 2653 3394 2897 3281 
Q 3141 3169 3264 2994 
Q 3388 2819 3433 2606 
Q 3478 2394 3478 1947 
L 3478 0 
L 2600 0 
L 2600 1753 
Q 2600 2275 2550 2415 
Q 2500 2556 2373 2639 
Q 2247 2722 2056 2722 
Q 1838 2722 1666 2615 
Q 1494 2509 1414 2295 
Q 1334 2081 1334 1663 
L 1334 0 
L 456 0 
L 456 4581 
L 1334 4581 
z
" transform="scale(0.015625)"/>
      <path id="Arial-BoldMT-69" d="M 459 3769 
L 459 4581 
L 1338 4581 
L 1338 3769 
L 459 3769 
z
M 459 0 
L 459 3319 
L 1338 3319 
L 1338 0 
L 459 0 
z
" transform="scale(0.015625)"/>
      <path id="Arial-BoldMT-6c" d="M 459 0 
L 459 4581 
L 1338 4581 
L 1338 0 
L 459 0 
z
" transform="scale(0.015625)"/>
      <path id="Arial-BoldMT-61" d="M 1116 2306 
L 319 2450 
Q 453 2931 781 3162 
Q 1109 3394 1756 3394 
Q 2344 3394 2631 3255 
Q 2919 3116 3036 2902 
Q 3153 2688 3153 2116 
L 3144 1091 
Q 3144 653 3186 445 
Q 3228 238 3344 0 
L 2475 0 
Q 2441 88 2391 259 
Q 2369 338 2359 363 
Q 2134 144 1878 34 
Q 1622 -75 1331 -75 
Q 819 -75 523 203 
Q 228 481 228 906 
Q 228 1188 362 1408 
Q 497 1628 739 1745 
Q 981 1863 1438 1950 
Q 2053 2066 2291 2166 
L 2291 2253 
Q 2291 2506 2166 2614 
Q 2041 2722 1694 2722 
Q 1459 2722 1328 2630 
Q 1197 2538 1116 2306 
z
M 2291 1594 
Q 2122 1538 1756 1459 
Q 1391 1381 1278 1306 
Q 1106 1184 1106 997 
Q 1106 813 1243 678 
Q 1381 544 1594 544 
Q 1831 544 2047 700 
Q 2206 819 2256 991 
Q 2291 1103 2291 1419 
L 2291 1594 
z
" transform="scale(0.015625)"/>
      <path id="Arial-BoldMT-20" transform="scale(0.015625)"/>
      <path id="Arial-BoldMT-2d" d="M 359 1222 
L 359 2100 
L 2084 2100 
L 2084 1222 
L 359 1222 
z
" transform="scale(0.015625)"/>
      <path id="Arial-BoldMT-53" d="M 231 1491 
L 1131 1578 
Q 1213 1125 1461 912 
Q 1709 700 2131 700 
Q 2578 700 2804 889 
Q 3031 1078 3031 1331 
Q 3031 1494 2936 1608 
Q 2841 1722 2603 1806 
Q 2441 1863 1863 2006 
Q 1119 2191 819 2459 
Q 397 2838 397 3381 
Q 397 3731 595 4036 
Q 794 4341 1167 4500 
Q 1541 4659 2069 4659 
Q 2931 4659 3367 4281 
Q 3803 3903 3825 3272 
L 2900 3231 
Q 2841 3584 2645 3739 
Q 2450 3894 2059 3894 
Q 1656 3894 1428 3728 
Q 1281 3622 1281 3444 
Q 1281 3281 1419 3166 
Q 1594 3019 2269 2859 
Q 2944 2700 3267 2529 
Q 3591 2359 3773 2064 
Q 3956 1769 3956 1334 
Q 3956 941 3737 597 
Q 3519 253 3119 86 
Q 2719 -81 2122 -81 
Q 1253 -81 787 320 
Q 322 722 231 1491 
z
" transform="scale(0.015625)"/>
      <path id="Arial-BoldMT-6d" d="M 394 3319 
L 1203 3319 
L 1203 2866 
Q 1638 3394 2238 3394 
Q 2556 3394 2790 3262 
Q 3025 3131 3175 2866 
Q 3394 3131 3647 3262 
Q 3900 3394 4188 3394 
Q 4553 3394 4806 3245 
Q 5059 3097 5184 2809 
Q 5275 2597 5275 2122 
L 5275 0 
L 4397 0 
L 4397 1897 
Q 4397 2391 4306 2534 
Q 4184 2722 3931 2722 
Q 3747 2722 3584 2609 
Q 3422 2497 3350 2280 
Q 3278 2063 3278 1594 
L 3278 0 
L 2400 0 
L 2400 1819 
Q 2400 2303 2353 2443 
Q 2306 2584 2207 2653 
Q 2109 2722 1941 2722 
Q 1738 2722 1575 2612 
Q 1413 2503 1342 2297 
Q 1272 2091 1272 1613 
L 1272 0 
L 394 0 
L 394 3319 
z
" transform="scale(0.015625)"/>
      <path id="Arial-BoldMT-75" d="M 2644 0 
L 2644 497 
Q 2463 231 2167 78 
Q 1872 -75 1544 -75 
Q 1209 -75 943 72 
Q 678 219 559 484 
Q 441 750 441 1219 
L 441 3319 
L 1319 3319 
L 1319 1794 
Q 1319 1094 1367 936 
Q 1416 778 1544 686 
Q 1672 594 1869 594 
Q 2094 594 2272 717 
Q 2450 841 2515 1023 
Q 2581 1206 2581 1919 
L 2581 3319 
L 3459 3319 
L 3459 0 
L 2644 0 
z
" transform="scale(0.015625)"/>
      <path id="Arial-BoldMT-74" d="M 1981 3319 
L 1981 2619 
L 1381 2619 
L 1381 1281 
Q 1381 875 1398 808 
Q 1416 741 1477 697 
Q 1538 653 1625 653 
Q 1747 653 1978 738 
L 2053 56 
Q 1747 -75 1359 -75 
Q 1122 -75 931 4 
Q 741 84 652 211 
Q 563 338 528 553 
Q 500 706 500 1172 
L 500 2619 
L 97 2619 
L 97 3319 
L 500 3319 
L 500 3978 
L 1381 4491 
L 1381 3319 
L 1981 3319 
z
" transform="scale(0.015625)"/>
      <path id="Arial-BoldMT-6e" d="M 3478 0 
L 2600 0 
L 2600 1694 
Q 2600 2231 2544 2389 
Q 2488 2547 2361 2634 
Q 2234 2722 2056 2722 
Q 1828 2722 1647 2597 
Q 1466 2472 1398 2265 
Q 1331 2059 1331 1503 
L 1331 0 
L 453 0 
L 453 3319 
L 1269 3319 
L 1269 2831 
Q 1703 3394 2363 3394 
Q 2653 3394 2893 3289 
Q 3134 3184 3257 3021 
Q 3381 2859 3429 2653 
Q 3478 2447 3478 2063 
L 3478 0 
z
" transform="scale(0.015625)"/>
      <path id="Arial-BoldMT-43" d="M 3397 1684 
L 4294 1400 
Q 4088 650 3608 286 
Q 3128 -78 2391 -78 
Q 1478 -78 890 545 
Q 303 1169 303 2250 
Q 303 3394 893 4026 
Q 1484 4659 2447 4659 
Q 3288 4659 3813 4163 
Q 4125 3869 4281 3319 
L 3366 3100 
Q 3284 3456 3026 3662 
Q 2769 3869 2400 3869 
Q 1891 3869 1573 3503 
Q 1256 3138 1256 2319 
Q 1256 1450 1568 1081 
Q 1881 713 2381 713 
Q 2750 713 3015 947 
Q 3281 1181 3397 1684 
z
" transform="scale(0.015625)"/>
      <path id="Arial-BoldMT-63" d="M 3353 2338 
L 2488 2181 
Q 2444 2441 2289 2572 
Q 2134 2703 1888 2703 
Q 1559 2703 1364 2476 
Q 1169 2250 1169 1719 
Q 1169 1128 1367 884 
Q 1566 641 1900 641 
Q 2150 641 2309 783 
Q 2469 925 2534 1272 
L 3397 1125 
Q 3263 531 2881 228 
Q 2500 -75 1859 -75 
Q 1131 -75 698 384 
Q 266 844 266 1656 
Q 266 2478 700 2936 
Q 1134 3394 1875 3394 
Q 2481 3394 2839 3133 
Q 3197 2872 3353 2338 
z
" transform="scale(0.015625)"/>
      <path id="Arial-BoldMT-65" d="M 2381 1056 
L 3256 909 
Q 3088 428 2723 176 
Q 2359 -75 1813 -75 
Q 947 -75 531 491 
Q 203 944 203 1634 
Q 203 2459 634 2926 
Q 1066 3394 1725 3394 
Q 2466 3394 2894 2905 
Q 3322 2416 3303 1406 
L 1103 1406 
Q 1113 1016 1316 798 
Q 1519 581 1822 581 
Q 2028 581 2168 693 
Q 2309 806 2381 1056 
z
M 2431 1944 
Q 2422 2325 2234 2523 
Q 2047 2722 1778 2722 
Q 1491 2722 1303 2513 
Q 1116 2303 1119 1944 
L 2431 1944 
z
" transform="scale(0.015625)"/>
     </defs>
     <use xlink:href="#Arial-BoldMT-44"/>
     <use xlink:href="#Arial-BoldMT-72" x="72.216797"/>
     <use xlink:href="#Arial-BoldMT-6f" x="111.132812"/>
     <use xlink:href="#Arial-BoldMT-73" x="172.216797"/>
     <use xlink:href="#Arial-BoldMT-6f" x="227.832031"/>
     <use xlink:href="#Arial-BoldMT-70" x="288.916016"/>
     <use xlink:href="#Arial-BoldMT-68" x="350"/>
     <use xlink:href="#Arial-BoldMT-69" x="411.083984"/>
     <use xlink:href="#Arial-BoldMT-6c" x="438.867188"/>
     <use xlink:href="#Arial-BoldMT-61" x="466.650391"/>
     <use xlink:href="#Arial-BoldMT-20" x="522.265625"/>
     <use xlink:href="#Arial-BoldMT-2d" x="550.048828"/>
     <use xlink:href="#Arial-BoldMT-20" x="583.349609"/>
     <use xlink:href="#Arial-BoldMT-53" x="611.132812"/>
     <use xlink:href="#Arial-BoldMT-69" x="677.832031"/>
     <use xlink:href="#Arial-BoldMT-6d" x="705.615234"/>
     <use xlink:href="#Arial-BoldMT-75" x="794.53125"/>
     <use xlink:href="#Arial-BoldMT-6c" x="855.615234"/>
     <use xlink:href="#Arial-BoldMT-61" x="883.398438"/>
     <use xlink:href="#Arial-BoldMT-74" x="939.013672"/>
     <use xlink:href="#Arial-BoldMT-69" x="972.314453"/>
     <use xlink:href="#Arial-BoldMT-6f" x="1000.097656"/>
     <use xlink:href="#Arial-BoldMT-6e" x="1061.181641"/>
     <use xlink:href="#Arial-BoldMT-20" x="1122.265625"/>
     <use xlink:href="#Arial-BoldMT-43" x="1150.048828"/>
     <use xlink:href="#Arial-BoldMT-68" x="1222.265625"/>
     <use xlink:href="#Arial-BoldMT-61" x="1283.349609"/>
     <use xlink:href="#Arial-BoldMT-72" x="1338.964844"/>
     <use xlink:href="#Arial-BoldMT-61" x="1377.880859"/>
     <use xlink:href="#Arial-BoldMT-63" x="1433.496094"/>
     <use xlink:href="#Arial-BoldMT-74" x="1489.111328"/>
     <use xlink:href="#Arial-BoldMT-65" x="1522.412109"/>
     <use xlink:href="#Arial-BoldMT-72" x="1578.027344"/>
     <use xlink:href="#Arial-BoldMT-69" x="1616.943359"/>
     <use xlink:href="#Arial-BoldMT-73" x="1644.726562"/>
     <use xlink:href="#Arial-BoldMT-74" x="1700.341797"/>
     <use xlink:href="#Arial-BoldMT-69" x="1733.642578"/>
     <use xlink:href="#Arial-BoldMT-63" x="1761.425781"/>
     <use xlink:href="#Arial-BoldMT-73" x="1817.041016"/>
    </g>
   </g>
  </g>
  <g id="text_15">
   <!-- Zanichelli &amp; Schons et al., State of Brain Emulation Report 2025 -->
   <g style="fill: #787470" transform="translate(508.354869 733.367344) scale(0.07 -0.07)">
    <defs>
     <path id="Arial-ItalicMT-5a" d="M 156 0 
L 216 459 
L 2509 3200 
L 2984 3775 
Q 3128 3950 3263 4097 
Q 2972 4063 2856 4063 
L 2706 4066 
L 2525 4063 
L 2347 4059 
L 806 4059 
L 916 4581 
L 4075 4581 
L 4022 4103 
L 1563 1181 
Q 1109 641 988 503 
Q 1125 522 1166 522 
L 3663 522 
L 3553 0 
L 156 0 
z
" transform="scale(0.015625)"/>
     <path id="Arial-ItalicMT-61" d="M 2450 413 
Q 2156 159 1884 42 
Q 1613 -75 1303 -75 
Q 844 -75 562 195 
Q 281 466 281 888 
Q 281 1166 407 1380 
Q 534 1594 743 1723 
Q 953 1853 1256 1909 
Q 1447 1947 1980 1969 
Q 2513 1991 2744 2081 
Q 2809 2313 2809 2466 
Q 2809 2663 2666 2775 
Q 2469 2931 2091 2931 
Q 1734 2931 1507 2773 
Q 1281 2616 1178 2325 
L 606 2375 
Q 781 2869 1161 3131 
Q 1541 3394 2119 3394 
Q 2734 3394 3094 3100 
Q 3369 2881 3369 2531 
Q 3369 2266 3291 1916 
L 3106 1091 
Q 3019 697 3019 450 
Q 3019 294 3088 0 
L 2516 0 
Q 2469 163 2450 413 
z
M 2659 1681 
Q 2541 1634 2405 1609 
Q 2269 1584 1950 1556 
Q 1456 1513 1253 1445 
Q 1050 1378 947 1231 
Q 844 1084 844 906 
Q 844 669 1008 516 
Q 1172 363 1475 363 
Q 1756 363 2015 511 
Q 2275 659 2425 925 
Q 2575 1191 2659 1681 
z
" transform="scale(0.015625)"/>
     <path id="Arial-ItalicMT-6e" d="M 213 0 
L 906 3319 
L 1419 3319 
L 1297 2741 
Q 1631 3081 1922 3237 
Q 2213 3394 2516 3394 
Q 2919 3394 3148 3175 
Q 3378 2956 3378 2591 
Q 3378 2406 3297 2009 
L 2875 0 
L 2309 0 
L 2750 2103 
Q 2816 2409 2816 2556 
Q 2816 2722 2702 2825 
Q 2588 2928 2372 2928 
Q 1938 2928 1598 2615 
Q 1259 2303 1100 1544 
L 778 0 
L 213 0 
z
" transform="scale(0.015625)"/>
     <path id="Arial-ItalicMT-69" d="M 1016 3941 
L 1150 4581 
L 1713 4581 
L 1578 3941 
L 1016 3941 
z
M 191 0 
L 884 3319 
L 1450 3319 
L 756 0 
L 191 0 
z
" transform="scale(0.015625)"/>
     <path id="Arial-ItalicMT-63" d="M 2503 1209 
L 3069 1150 
Q 2856 528 2464 226 
Q 2072 -75 1572 -75 
Q 1031 -75 695 275 
Q 359 625 359 1253 
Q 359 1797 575 2322 
Q 791 2847 1192 3120 
Q 1594 3394 2109 3394 
Q 2644 3394 2956 3092 
Q 3269 2791 3269 2294 
L 2713 2256 
Q 2709 2572 2529 2750 
Q 2350 2928 2056 2928 
Q 1716 2928 1466 2712 
Q 1216 2497 1073 2058 
Q 931 1619 931 1213 
Q 931 788 1118 575 
Q 1306 363 1581 363 
Q 1856 363 2107 572 
Q 2359 781 2503 1209 
z
" transform="scale(0.015625)"/>
     <path id="Arial-ItalicMT-68" d="M 213 0 
L 1169 4581 
L 1734 4581 
L 1369 2822 
Q 1684 3128 1956 3261 
Q 2228 3394 2516 3394 
Q 2928 3394 3156 3176 
Q 3384 2959 3384 2603 
Q 3384 2428 3284 1959 
L 2875 0 
L 2309 0 
L 2731 2009 
Q 2822 2447 2822 2559 
Q 2822 2722 2709 2825 
Q 2597 2928 2384 2928 
Q 2078 2928 1800 2767 
Q 1522 2606 1364 2326 
Q 1206 2047 1075 1425 
L 778 0 
L 213 0 
z
" transform="scale(0.015625)"/>
     <path id="Arial-ItalicMT-65" d="M 2650 1128 
L 3200 1072 
Q 3081 663 2654 294 
Q 2228 -75 1638 -75 
Q 1269 -75 961 95 
Q 653 266 492 591 
Q 331 916 331 1331 
Q 331 1875 582 2386 
Q 834 2897 1234 3145 
Q 1634 3394 2100 3394 
Q 2694 3394 3048 3025 
Q 3403 2656 3403 2019 
Q 3403 1775 3359 1519 
L 916 1519 
Q 903 1422 903 1344 
Q 903 878 1117 633 
Q 1331 388 1641 388 
Q 1931 388 2212 578 
Q 2494 769 2650 1128 
z
M 1006 1950 
L 2869 1950 
Q 2872 2038 2872 2075 
Q 2872 2500 2659 2726 
Q 2447 2953 2113 2953 
Q 1750 2953 1451 2703 
Q 1153 2453 1006 1950 
z
" transform="scale(0.015625)"/>
     <path id="Arial-ItalicMT-6c" d="M 169 0 
L 1125 4581 
L 1691 4581 
L 734 0 
L 169 0 
z
" transform="scale(0.015625)"/>
     <path id="Arial-ItalicMT-20" transform="scale(0.015625)"/>
     <path id="Arial-ItalicMT-26" d="M 3175 447 
Q 2784 128 2506 14 
Q 2228 -100 1891 -100 
Q 1266 -100 884 267 
Q 503 634 503 1191 
Q 503 1553 645 1831 
Q 788 2109 1069 2334 
Q 1284 2503 1706 2694 
Q 1544 3053 1509 3175 
Q 1466 3350 1466 3550 
Q 1466 3813 1612 4083 
Q 1759 4353 2028 4506 
Q 2297 4659 2613 4659 
Q 3053 4659 3323 4403 
Q 3594 4147 3594 3781 
Q 3594 3472 3362 3167 
Q 3131 2863 2453 2522 
Q 2863 1781 3241 1306 
Q 3469 1584 3675 1959 
L 4169 1706 
Q 3963 1272 3597 856 
Q 3800 597 4125 231 
L 3700 -109 
Q 3381 163 3175 447 
z
M 2247 2944 
Q 2706 3178 2903 3425 
Q 3041 3594 3041 3769 
Q 3041 3953 2914 4079 
Q 2788 4206 2606 4206 
Q 2388 4206 2220 4029 
Q 2053 3853 2053 3609 
Q 2053 3313 2247 2944 
z
M 2847 881 
Q 2263 1647 1938 2253 
Q 1513 2053 1331 1866 
Q 1078 1603 1078 1256 
Q 1078 900 1320 654 
Q 1563 409 1913 409 
Q 2384 409 2847 881 
z
" transform="scale(0.015625)"/>
     <path id="Arial-ItalicMT-53" d="M 450 1481 
L 1050 1538 
L 1044 1378 
Q 1044 1113 1166 892 
Q 1288 672 1569 551 
Q 1850 431 2238 431 
Q 2788 431 3077 672 
Q 3366 913 3366 1222 
Q 3366 1438 3213 1616 
Q 3056 1791 2359 2091 
Q 1819 2325 1622 2450 
Q 1313 2653 1166 2892 
Q 1019 3131 1019 3438 
Q 1019 3791 1212 4075 
Q 1406 4359 1779 4509 
Q 2153 4659 2622 4659 
Q 3181 4659 3565 4471 
Q 3950 4284 4123 3971 
Q 4297 3659 4297 3375 
Q 4297 3347 4294 3281 
L 3703 3234 
Q 3703 3428 3669 3538 
Q 3606 3728 3475 3859 
Q 3344 3991 3114 4070 
Q 2884 4150 2600 4150 
Q 2100 4150 1822 3925 
Q 1609 3753 1609 3469 
Q 1609 3300 1696 3167 
Q 1784 3034 2013 2906 
Q 2175 2816 2784 2547 
Q 3278 2328 3466 2203 
Q 3716 2038 3850 1802 
Q 3984 1566 3984 1266 
Q 3984 894 3757 580 
Q 3531 266 3131 94 
Q 2731 -78 2216 -78 
Q 1438 -78 945 261 
Q 453 600 450 1481 
z
" transform="scale(0.015625)"/>
     <path id="Arial-ItalicMT-6f" d="M 313 1259 
Q 313 2231 884 2869 
Q 1356 3394 2122 3394 
Q 2722 3394 3089 3019 
Q 3456 2644 3456 2006 
Q 3456 1434 3225 942 
Q 2994 450 2567 187 
Q 2141 -75 1669 -75 
Q 1281 -75 964 90 
Q 647 256 480 559 
Q 313 863 313 1259 
z
M 878 1316 
Q 878 847 1103 605 
Q 1328 363 1675 363 
Q 1856 363 2034 436 
Q 2213 509 2366 659 
Q 2519 809 2626 1001 
Q 2734 1194 2800 1416 
Q 2897 1725 2897 2009 
Q 2897 2459 2670 2707 
Q 2444 2956 2100 2956 
Q 1834 2956 1615 2829 
Q 1397 2703 1220 2459 
Q 1044 2216 961 1892 
Q 878 1569 878 1316 
z
" transform="scale(0.015625)"/>
     <path id="Arial-ItalicMT-73" d="M 266 1134 
L 831 1169 
Q 831 925 906 753 
Q 981 581 1182 472 
Q 1384 363 1653 363 
Q 2028 363 2215 513 
Q 2403 663 2403 866 
Q 2403 1013 2291 1144 
Q 2175 1275 1726 1467 
Q 1278 1659 1153 1738 
Q 944 1866 837 2039 
Q 731 2213 731 2438 
Q 731 2831 1043 3112 
Q 1356 3394 1919 3394 
Q 2544 3394 2870 3105 
Q 3197 2816 3209 2344 
L 2656 2306 
Q 2644 2606 2444 2781 
Q 2244 2956 1878 2956 
Q 1584 2956 1421 2822 
Q 1259 2688 1259 2531 
Q 1259 2375 1400 2256 
Q 1494 2175 1884 2006 
Q 2534 1725 2703 1563 
Q 2972 1303 2972 931 
Q 2972 684 2820 446 
Q 2669 209 2358 67 
Q 2047 -75 1625 -75 
Q 1050 -75 647 209 
Q 244 494 266 1134 
z
" transform="scale(0.015625)"/>
     <path id="Arial-ItalicMT-74" d="M 1534 459 
L 1441 -3 
Q 1238 -56 1047 -56 
Q 709 -56 509 109 
Q 359 234 359 450 
Q 359 559 441 953 
L 844 2881 
L 397 2881 
L 488 3319 
L 934 3319 
L 1106 4134 
L 1753 4525 
L 1500 3319 
L 2056 3319 
L 1963 2881 
L 1409 2881 
L 1025 1047 
Q 953 697 953 628 
Q 953 528 1011 475 
Q 1069 422 1200 422 
Q 1388 422 1534 459 
z
" transform="scale(0.015625)"/>
     <path id="Arial-ItalicMT-2e" d="M 369 0 
L 503 641 
L 1144 641 
L 1006 0 
L 369 0 
z
" transform="scale(0.015625)"/>
     <path id="Arial-ItalicMT-2c" d="M 347 0 
L 481 641 
L 1125 641 
L 1009 81 
Q 903 -422 679 -656 
Q 456 -891 153 -925 
L 206 -678 
Q 578 -575 697 0 
L 347 0 
z
" transform="scale(0.015625)"/>
     <path id="Arial-ItalicMT-66" d="M 291 0 
L 894 2881 
L 388 2881 
L 478 3319 
L 984 3319 
L 1081 3791 
Q 1156 4144 1236 4300 
Q 1316 4456 1495 4557 
Q 1675 4659 1984 4659 
Q 2200 4659 2609 4569 
L 2506 4075 
Q 2219 4150 2025 4150 
Q 1859 4150 1773 4067 
Q 1688 3984 1625 3675 
L 1550 3319 
L 2181 3319 
L 2091 2881 
L 1459 2881 
L 856 0 
L 291 0 
z
" transform="scale(0.015625)"/>
     <path id="Arial-ItalicMT-42" d="M 278 0 
L 1238 4581 
L 2656 4581 
Q 3044 4581 3231 4550 
Q 3538 4497 3748 4364 
Q 3959 4231 4075 4001 
Q 4191 3772 4191 3494 
Q 4191 3116 3983 2828 
Q 3775 2541 3347 2391 
Q 3719 2269 3903 2023 
Q 4088 1778 4088 1450 
Q 4088 1072 3870 725 
Q 3653 378 3295 189 
Q 2938 0 2497 0 
L 278 0 
z
M 1441 2625 
L 2369 2625 
Q 3034 2625 3326 2837 
Q 3619 3050 3619 3456 
Q 3619 3650 3528 3790 
Q 3438 3931 3286 3995 
Q 3134 4059 2716 4059 
L 1741 4059 
L 1441 2625 
z
M 1000 519 
L 2044 519 
Q 2459 519 2603 547 
Q 2894 597 3075 717 
Q 3256 838 3359 1034 
Q 3463 1231 3463 1447 
Q 3463 1769 3261 1936 
Q 3059 2103 2494 2103 
L 1331 2103 
L 1000 519 
z
" transform="scale(0.015625)"/>
     <path id="Arial-ItalicMT-72" d="M 213 0 
L 906 3319 
L 1406 3319 
L 1266 2641 
Q 1522 3025 1767 3209 
Q 2013 3394 2269 3394 
Q 2438 3394 2684 3272 
L 2453 2747 
Q 2306 2853 2131 2853 
Q 1834 2853 1521 2522 
Q 1209 2191 1031 1331 
L 750 0 
L 213 0 
z
" transform="scale(0.015625)"/>
     <path id="Arial-ItalicMT-45" d="M 288 0 
L 1247 4581 
L 4553 4581 
L 4444 4059 
L 1750 4059 
L 1450 2634 
L 4075 2634 
L 3966 2113 
L 1341 2113 
L 1009 519 
L 3894 519 
L 3784 0 
L 288 0 
z
" transform="scale(0.015625)"/>
     <path id="Arial-ItalicMT-6d" d="M 209 0 
L 903 3319 
L 1469 3319 
L 1353 2772 
Q 1669 3125 1917 3259 
Q 2166 3394 2456 3394 
Q 2766 3394 2973 3230 
Q 3181 3066 3247 2772 
Q 3500 3084 3779 3239 
Q 4059 3394 4369 3394 
Q 4784 3394 4992 3197 
Q 5200 3000 5200 2644 
Q 5200 2491 5128 2138 
L 4681 0 
L 4116 0 
L 4572 2194 
Q 4631 2463 4631 2578 
Q 4631 2741 4528 2834 
Q 4425 2928 4238 2928 
Q 3984 2928 3721 2775 
Q 3459 2622 3314 2373 
Q 3169 2125 3059 1609 
L 2722 0 
L 2156 0 
L 2625 2241 
Q 2675 2469 2675 2566 
Q 2675 2728 2573 2828 
Q 2472 2928 2309 2928 
Q 2069 2928 1805 2775 
Q 1541 2622 1375 2348 
Q 1209 2075 1103 1569 
L 775 0 
L 209 0 
z
" transform="scale(0.015625)"/>
     <path id="Arial-ItalicMT-75" d="M 2478 600 
Q 1881 -75 1256 -75 
Q 872 -75 636 145 
Q 400 366 400 684 
Q 400 894 506 1403 
L 906 3319 
L 1472 3319 
L 1028 1197 
Q 972 931 972 784 
Q 972 597 1086 492 
Q 1200 388 1422 388 
Q 1659 388 1886 503 
Q 2113 619 2277 816 
Q 2441 1013 2544 1281 
Q 2613 1453 2703 1884 
L 3003 3319 
L 3569 3319 
L 2875 0 
L 2353 0 
L 2478 600 
z
" transform="scale(0.015625)"/>
     <path id="Arial-ItalicMT-52" d="M 300 0 
L 1259 4581 
L 3181 4581 
Q 3750 4581 4044 4486 
Q 4338 4391 4505 4128 
Q 4672 3866 4672 3466 
Q 4672 2906 4306 2537 
Q 3941 2169 3125 2059 
Q 3375 1875 3503 1697 
Q 3791 1294 3966 863 
L 4316 0 
L 3631 0 
L 3303 853 
Q 3125 1316 2897 1653 
Q 2741 1888 2578 1961 
Q 2416 2034 2050 2034 
L 1338 2034 
L 913 0 
L 300 0 
z
M 1441 2531 
L 2288 2531 
Q 2875 2531 3053 2547 
Q 3400 2581 3622 2703 
Q 3844 2825 3966 3031 
Q 4088 3238 4088 3475 
Q 4088 3675 3997 3823 
Q 3906 3972 3759 4025 
Q 3613 4078 3259 4078 
L 1766 4078 
L 1441 2531 
z
" transform="scale(0.015625)"/>
     <path id="Arial-ItalicMT-70" d="M -66 -1272 
L 894 3319 
L 1416 3319 
L 1319 2856 
Q 1609 3159 1839 3276 
Q 2069 3394 2325 3394 
Q 2800 3394 3112 3048 
Q 3425 2703 3425 2059 
Q 3425 1541 3253 1114 
Q 3081 688 2831 428 
Q 2581 169 2325 47 
Q 2069 -75 1800 -75 
Q 1203 -75 875 531 
L 500 -1272 
L -66 -1272 
z
M 1053 1356 
Q 1053 984 1106 841 
Q 1184 638 1362 513 
Q 1541 388 1775 388 
Q 2263 388 2563 936 
Q 2863 1484 2863 2056 
Q 2863 2478 2661 2708 
Q 2459 2938 2159 2938 
Q 1944 2938 1759 2823 
Q 1575 2709 1417 2482 
Q 1259 2256 1156 1928 
Q 1053 1600 1053 1356 
z
" transform="scale(0.015625)"/>
     <path id="Arial-ItalicMT-32" d="M 375 0 
Q 463 409 617 686 
Q 772 963 1028 1211 
Q 1284 1459 2016 2044 
Q 2459 2397 2622 2566 
Q 2856 2809 2963 3044 
Q 3034 3203 3034 3391 
Q 3034 3706 2811 3926 
Q 2588 4147 2263 4147 
Q 1941 4147 1700 3923 
Q 1459 3700 1356 3206 
L 803 3288 
Q 884 3897 1276 4248 
Q 1669 4600 2253 4600 
Q 2644 4600 2961 4437 
Q 3278 4275 3437 3981 
Q 3597 3688 3597 3375 
Q 3597 2919 3272 2497 
Q 3072 2234 2097 1463 
Q 1678 1131 1473 918 
Q 1269 706 1166 519 
L 3216 519 
L 3106 0 
L 375 0 
z
" transform="scale(0.015625)"/>
     <path id="Arial-ItalicMT-30" d="M 453 1503 
Q 453 2084 626 2684 
Q 800 3284 1012 3643 
Q 1225 4003 1453 4206 
Q 1681 4409 1901 4504 
Q 2122 4600 2391 4600 
Q 2916 4600 3267 4209 
Q 3619 3819 3619 3081 
Q 3619 2322 3375 1578 
Q 3088 697 2575 256 
Q 2181 -78 1678 -78 
Q 1163 -78 808 326 
Q 453 731 453 1503 
z
M 1000 1359 
Q 1000 938 1141 700 
Q 1331 372 1706 372 
Q 2034 372 2303 669 
Q 2691 1088 2886 1895 
Q 3081 2703 3081 3216 
Q 3081 3709 2892 3928 
Q 2703 4147 2394 4147 
Q 2169 4147 1973 4031 
Q 1778 3916 1600 3634 
Q 1347 3238 1159 2447 
Q 1000 1772 1000 1359 
z
" transform="scale(0.015625)"/>
     <path id="Arial-ItalicMT-35" d="M 447 1309 
L 1022 1366 
Q 1016 1244 1016 1219 
Q 1016 1013 1120 803 
Q 1225 594 1404 483 
Q 1584 372 1784 372 
Q 2047 372 2319 553 
Q 2591 734 2759 1081 
Q 2928 1428 2928 1769 
Q 2928 2153 2701 2384 
Q 2475 2616 2106 2616 
Q 1859 2616 1639 2497 
Q 1419 2378 1228 2141 
L 734 2175 
L 1425 4519 
L 3663 4519 
L 3553 4000 
L 1813 4000 
L 1469 2834 
Q 1663 2975 1867 3045 
Q 2072 3116 2288 3116 
Q 2813 3116 3150 2769 
Q 3488 2422 3488 1819 
Q 3488 1291 3256 845 
Q 3025 400 2620 161 
Q 2216 -78 1747 -78 
Q 1353 -78 1050 100 
Q 747 278 595 590 
Q 444 903 444 1216 
Q 444 1247 447 1309 
z
" transform="scale(0.015625)"/>
    </defs>
    <use xlink:href="#Arial-ItalicMT-5a"/>
    <use xlink:href="#Arial-ItalicMT-61" x="61.083984"/>
    <use xlink:href="#Arial-ItalicMT-6e" x="116.699219"/>
    <use xlink:href="#Arial-ItalicMT-69" x="172.314453"/>
    <use xlink:href="#Arial-ItalicMT-63" x="194.53125"/>
    <use xlink:href="#Arial-ItalicMT-68" x="244.53125"/>
    <use xlink:href="#Arial-ItalicMT-65" x="300.146484"/>
    <use xlink:href="#Arial-ItalicMT-6c" x="355.761719"/>
    <use xlink:href="#Arial-ItalicMT-6c" x="377.978516"/>
    <use xlink:href="#Arial-ItalicMT-69" x="400.195312"/>
    <use xlink:href="#Arial-ItalicMT-20" x="422.412109"/>
    <use xlink:href="#Arial-ItalicMT-26" x="450.195312"/>
    <use xlink:href="#Arial-ItalicMT-20" x="516.894531"/>
    <use xlink:href="#Arial-ItalicMT-53" x="544.677734"/>
    <use xlink:href="#Arial-ItalicMT-63" x="611.376953"/>
    <use xlink:href="#Arial-ItalicMT-68" x="661.376953"/>
    <use xlink:href="#Arial-ItalicMT-6f" x="716.992188"/>
    <use xlink:href="#Arial-ItalicMT-6e" x="772.607422"/>
    <use xlink:href="#Arial-ItalicMT-73" x="828.222656"/>
    <use xlink:href="#Arial-ItalicMT-20" x="878.222656"/>
    <use xlink:href="#Arial-ItalicMT-65" x="906.005859"/>
    <use xlink:href="#Arial-ItalicMT-74" x="961.621094"/>
    <use xlink:href="#Arial-ItalicMT-20" x="989.404297"/>
    <use xlink:href="#Arial-ItalicMT-61" x="1017.1875"/>
    <use xlink:href="#Arial-ItalicMT-6c" x="1072.802734"/>
    <use xlink:href="#Arial-ItalicMT-2e" x="1095.019531"/>
    <use xlink:href="#Arial-ItalicMT-2c" x="1122.802734"/>
    <use xlink:href="#Arial-ItalicMT-20" x="1150.585938"/>
    <use xlink:href="#Arial-ItalicMT-53" x="1178.369141"/>
    <use xlink:href="#Arial-ItalicMT-74" x="1245.068359"/>
    <use xlink:href="#Arial-ItalicMT-61" x="1272.851562"/>
    <use xlink:href="#Arial-ItalicMT-74" x="1328.466797"/>
    <use xlink:href="#Arial-ItalicMT-65" x="1356.25"/>
    <use xlink:href="#Arial-ItalicMT-20" x="1411.865234"/>
    <use xlink:href="#Arial-ItalicMT-6f" x="1439.648438"/>
    <use xlink:href="#Arial-ItalicMT-66" x="1495.263672"/>
    <use xlink:href="#Arial-ItalicMT-20" x="1523.046875"/>
    <use xlink:href="#Arial-ItalicMT-42" x="1550.830078"/>
    <use xlink:href="#Arial-ItalicMT-72" x="1617.529297"/>
    <use xlink:href="#Arial-ItalicMT-61" x="1650.830078"/>
    <use xlink:href="#Arial-ItalicMT-69" x="1706.445312"/>
    <use xlink:href="#Arial-ItalicMT-6e" x="1728.662109"/>
    <use xlink:href="#Arial-ItalicMT-20" x="1784.277344"/>
    <use xlink:href="#Arial-ItalicMT-45" x="1812.060547"/>
    <use xlink:href="#Arial-ItalicMT-6d" x="1878.759766"/>
    <use xlink:href="#Arial-ItalicMT-75" x="1962.060547"/>
    <use xlink:href="#Arial-ItalicMT-6c" x="2017.675781"/>
    <use xlink:href="#Arial-ItalicMT-61" x="2039.892578"/>
    <use xlink:href="#Arial-ItalicMT-74" x="2095.507812"/>
    <use xlink:href="#Arial-ItalicMT-69" x="2123.291016"/>
    <use xlink:href="#Arial-ItalicMT-6f" x="2145.507812"/>
    <use xlink:href="#Arial-ItalicMT-6e" x="2201.123047"/>
    <use xlink:href="#Arial-ItalicMT-20" x="2256.738281"/>
    <use xlink:href="#Arial-ItalicMT-52" x="2284.521484"/>
    <use xlink:href="#Arial-ItalicMT-65" x="2356.738281"/>
    <use xlink:href="#Arial-ItalicMT-70" x="2412.353516"/>
    <use xlink:href="#Arial-ItalicMT-6f" x="2467.96875"/>
    <use xlink:href="#Arial-ItalicMT-72" x="2523.583984"/>
    <use xlink:href="#Arial-ItalicMT-74" x="2556.884766"/>
    <use xlink:href="#Arial-ItalicMT-20" x="2584.667969"/>
    <use xlink:href="#Arial-ItalicMT-32" x="2612.451172"/>
    <use xlink:href="#Arial-ItalicMT-30" x="2668.066406"/>
    <use xlink:href="#Arial-ItalicMT-32" x="2723.681641"/>
    <use xlink:href="#Arial-ItalicMT-35" x="2779.296875"/>
   </g>
  </g>
 </g>
 <defs>
  <clipPath id="p15fbcb5827">
   <path d="M 645.556145 390.340338 
C 645.556145 351.870657 637.978457 313.775046 623.256747 278.233695 
C 608.535038 242.692344 586.955607 210.396444 559.753435 183.194272 
C 532.551263 155.9921 500.255363 134.41267 464.714012 119.69096 
C 429.172662 104.969251 391.07705 97.391563 352.607369 97.391563 
C 314.137689 97.391563 276.042077 104.969251 240.500726 119.69096 
C 204.959376 134.41267 172.663476 155.9921 145.461304 183.194272 
C 118.259131 210.396444 96.679701 242.692344 81.957991 278.233695 
C 67.236282 313.775046 59.658594 351.870657 59.658594 390.340338 
C 59.658594 428.810019 67.236282 466.90563 81.957991 502.446981 
C 96.679701 537.988332 118.259131 570.284232 145.461304 597.486404 
C 172.663476 624.688576 204.959376 646.268007 240.500726 660.989716 
C 276.042077 675.711425 314.137689 683.289114 352.607369 683.289114 
C 391.07705 683.289114 429.172662 675.711425 464.714012 660.989716 
C 500.255363 646.268007 532.551263 624.688576 559.753435 597.486404 
C 586.955607 570.284232 608.535038 537.988332 623.256747 502.446981 
C 637.978457 466.90563 645.556145 428.810019 645.556145 390.340338 
M 352.607369 390.340338 
C 352.607369 390.340338 352.607369 390.340338 352.607369 390.340338 
C 352.607369 390.340338 352.607369 390.340338 352.607369 390.340338 
C 352.607369 390.340338 352.607369 390.340338 352.607369 390.340338 
C 352.607369 390.340338 352.607369 390.340338 352.607369 390.340338 
C 352.607369 390.340338 352.607369 390.340338 352.607369 390.340338 
C 352.607369 390.340338 352.607369 390.340338 352.607369 390.340338 
C 352.607369 390.340338 352.607369 390.340338 352.607369 390.340338 
C 352.607369 390.340338 352.607369 390.340338 352.607369 390.340338 
C 352.607369 390.340338 352.607369 390.340338 352.607369 390.340338 
C 352.607369 390.340338 352.607369 390.340338 352.607369 390.340338 
C 352.607369 390.340338 352.607369 390.340338 352.607369 390.340338 
C 352.607369 390.340338 352.607369 390.340338 352.607369 390.340338 
C 352.607369 390.340338 352.607369 390.340338 352.607369 390.340338 
C 352.607369 390.340338 352.607369 390.340338 352.607369 390.340338 
C 352.607369 390.340338 352.607369 390.340338 352.607369 390.340338 
C 352.607369 390.340338 352.607369 390.340338 352.607369 390.340338 
z
"/>
  </clipPath>
 </defs>
</svg>
