<?xml version="1.0" encoding="utf-8" standalone="no"?>
<!DOCTYPE svg PUBLIC "-//W3C//DTD SVG 1.1//EN"
  "http://www.w3.org/Graphics/SVG/1.1/DTD/svg11.dtd">
<svg xmlns:xlink="http://www.w3.org/1999/xlink" width="732.650982pt" height="722.77329pt" viewBox="0 0 732.650982 722.77329" xmlns="http://www.w3.org/2000/svg" version="1.1">
 <metadata>
  <rdf:RDF xmlns:dc="http://purl.org/dc/elements/1.1/" xmlns:cc="http://creativecommons.org/ns#" xmlns:rdf="http://www.w3.org/1999/02/22-rdf-syntax-ns#">
   <cc:Work>
    <dc:type rdf:resource="http://purl.org/dc/dcmitype/StillImage"/>
    <dc:date>2026-01-19T22:54:57.222712</dc:date>
    <dc:format>image/svg+xml</dc:format>
    <dc:creator>
     <cc:Agent>
      <dc:title>Matplotlib v3.9.4, https://matplotlib.org/</dc:title>
     </cc:Agent>
    </dc:creator>
   </cc:Work>
  </rdf:RDF>
 </metadata>
 <defs>
  <style type="text/css">*{stroke-linejoin: round; stroke-linecap: butt}</style>
 </defs>
 <g id="figure_1">
  <g id="patch_1">
   <path d="M 0 722.77329 
L 732.650982 722.77329 
L 732.650982 0 
L 0 0 
z
" style="fill: #ffffff"/>
  </g>
  <g id="axes_1">
   <g id="patch_2">
    <path d="M 658.930982 377.005937 
C 658.930982 338.584027 651.362704 300.535722 636.659275 265.038505 
C 621.955847 229.541289 600.403213 197.285493 573.23482 170.1171 
C 546.066426 142.948707 513.810631 121.396073 478.313414 106.692644 
C 442.816198 91.989216 404.767892 84.420937 366.345982 84.420937 
C 327.924072 84.420937 289.875766 91.989216 254.37855 106.692644 
C 218.881334 121.396073 186.625538 142.948707 159.457145 170.1171 
C 132.288751 197.285493 110.736118 229.541289 96.032689 265.038505 
C 81.329261 300.535722 73.760982 338.584027 73.760982 377.005937 
C 73.760982 415.427848 81.329261 453.476153 96.032689 488.97337 
C 110.736118 524.470586 132.288751 556.726382 159.457145 583.894775 
C 186.625538 611.063168 218.881334 632.615802 254.37855 647.319231 
C 289.875766 662.022659 327.924072 669.590937 366.345982 669.590937 
C 404.767892 669.590937 442.816198 662.022659 478.313414 647.319231 
C 513.810631 632.615802 546.066426 611.063168 573.23482 583.894775 
C 600.403213 556.726382 621.955847 524.470586 636.659275 488.97337 
C 651.362704 453.476153 658.930982 415.427848 658.930982 377.005937 
M 366.345982 377.005937 
C 366.345982 377.005937 366.345982 377.005937 366.345982 377.005937 
C 366.345982 377.005937 366.345982 377.005937 366.345982 377.005937 
C 366.345982 377.005937 366.345982 377.005937 366.345982 377.005937 
C 366.345982 377.005937 366.345982 377.005937 366.345982 377.005937 
C 366.345982 377.005937 366.345982 377.005937 366.345982 377.005937 
C 366.345982 377.005937 366.345982 377.005937 366.345982 377.005937 
C 366.345982 377.005937 366.345982 377.005937 366.345982 377.005937 
C 366.345982 377.005937 366.345982 377.005937 366.345982 377.005937 
C 366.345982 377.005937 366.345982 377.005937 366.345982 377.005937 
C 366.345982 377.005937 366.345982 377.005937 366.345982 377.005937 
C 366.345982 377.005937 366.345982 377.005937 366.345982 377.005937 
C 366.345982 377.005937 366.345982 377.005937 366.345982 377.005937 
C 366.345982 377.005937 366.345982 377.005937 366.345982 377.005937 
C 366.345982 377.005937 366.345982 377.005937 366.345982 377.005937 
C 366.345982 377.005937 366.345982 377.005937 366.345982 377.005937 
C 366.345982 377.005937 366.345982 377.005937 366.345982 377.005937 
z
" style="fill: #fafaf8"/>
   </g>
   <g id="matplotlib.axis_1">
    <g id="xtick_1">
     <g id="text_1">
      <!-- Connectivity -->
      <g style="fill: #4a4a5a" transform="translate(659.69817 374.246406) scale(0.1 -0.1)">
       <defs>
        <path id="ArialMT-43" d="M 3763 1606 
L 4369 1453 
Q 4178 706 3683 314 
Q 3188 -78 2472 -78 
Q 1731 -78 1267 223 
Q 803 525 561 1097 
Q 319 1669 319 2325 
Q 319 3041 592 3573 
Q 866 4106 1370 4382 
Q 1875 4659 2481 4659 
Q 3169 4659 3637 4309 
Q 4106 3959 4291 3325 
L 3694 3184 
Q 3534 3684 3231 3912 
Q 2928 4141 2469 4141 
Q 1941 4141 1586 3887 
Q 1231 3634 1087 3207 
Q 944 2781 944 2328 
Q 944 1744 1114 1308 
Q 1284 872 1643 656 
Q 2003 441 2422 441 
Q 2931 441 3284 734 
Q 3638 1028 3763 1606 
z
" transform="scale(0.015625)"/>
        <path id="ArialMT-6f" d="M 213 1659 
Q 213 2581 725 3025 
Q 1153 3394 1769 3394 
Q 2453 3394 2887 2945 
Q 3322 2497 3322 1706 
Q 3322 1066 3130 698 
Q 2938 331 2570 128 
Q 2203 -75 1769 -75 
Q 1072 -75 642 372 
Q 213 819 213 1659 
z
M 791 1659 
Q 791 1022 1069 705 
Q 1347 388 1769 388 
Q 2188 388 2466 706 
Q 2744 1025 2744 1678 
Q 2744 2294 2464 2611 
Q 2184 2928 1769 2928 
Q 1347 2928 1069 2612 
Q 791 2297 791 1659 
z
" transform="scale(0.015625)"/>
        <path id="ArialMT-6e" d="M 422 0 
L 422 3319 
L 928 3319 
L 928 2847 
Q 1294 3394 1984 3394 
Q 2284 3394 2536 3286 
Q 2788 3178 2913 3003 
Q 3038 2828 3088 2588 
Q 3119 2431 3119 2041 
L 3119 0 
L 2556 0 
L 2556 2019 
Q 2556 2363 2490 2533 
Q 2425 2703 2258 2804 
Q 2091 2906 1866 2906 
Q 1506 2906 1245 2678 
Q 984 2450 984 1813 
L 984 0 
L 422 0 
z
" transform="scale(0.015625)"/>
        <path id="ArialMT-65" d="M 2694 1069 
L 3275 997 
Q 3138 488 2766 206 
Q 2394 -75 1816 -75 
Q 1088 -75 661 373 
Q 234 822 234 1631 
Q 234 2469 665 2931 
Q 1097 3394 1784 3394 
Q 2450 3394 2872 2941 
Q 3294 2488 3294 1666 
Q 3294 1616 3291 1516 
L 816 1516 
Q 847 969 1125 678 
Q 1403 388 1819 388 
Q 2128 388 2347 550 
Q 2566 713 2694 1069 
z
M 847 1978 
L 2700 1978 
Q 2663 2397 2488 2606 
Q 2219 2931 1791 2931 
Q 1403 2931 1139 2672 
Q 875 2413 847 1978 
z
" transform="scale(0.015625)"/>
        <path id="ArialMT-63" d="M 2588 1216 
L 3141 1144 
Q 3050 572 2676 248 
Q 2303 -75 1759 -75 
Q 1078 -75 664 370 
Q 250 816 250 1647 
Q 250 2184 428 2587 
Q 606 2991 970 3192 
Q 1334 3394 1763 3394 
Q 2303 3394 2647 3120 
Q 2991 2847 3088 2344 
L 2541 2259 
Q 2463 2594 2264 2762 
Q 2066 2931 1784 2931 
Q 1359 2931 1093 2626 
Q 828 2322 828 1663 
Q 828 994 1084 691 
Q 1341 388 1753 388 
Q 2084 388 2306 591 
Q 2528 794 2588 1216 
z
" transform="scale(0.015625)"/>
        <path id="ArialMT-74" d="M 1650 503 
L 1731 6 
Q 1494 -44 1306 -44 
Q 1000 -44 831 53 
Q 663 150 594 308 
Q 525 466 525 972 
L 525 2881 
L 113 2881 
L 113 3319 
L 525 3319 
L 525 4141 
L 1084 4478 
L 1084 3319 
L 1650 3319 
L 1650 2881 
L 1084 2881 
L 1084 941 
Q 1084 700 1114 631 
Q 1144 563 1211 522 
Q 1278 481 1403 481 
Q 1497 481 1650 503 
z
" transform="scale(0.015625)"/>
        <path id="ArialMT-69" d="M 425 3934 
L 425 4581 
L 988 4581 
L 988 3934 
L 425 3934 
z
M 425 0 
L 425 3319 
L 988 3319 
L 988 0 
L 425 0 
z
" transform="scale(0.015625)"/>
        <path id="ArialMT-76" d="M 1344 0 
L 81 3319 
L 675 3319 
L 1388 1331 
Q 1503 1009 1600 663 
Q 1675 925 1809 1294 
L 2547 3319 
L 3125 3319 
L 1869 0 
L 1344 0 
z
" transform="scale(0.015625)"/>
        <path id="ArialMT-79" d="M 397 -1278 
L 334 -750 
Q 519 -800 656 -800 
Q 844 -800 956 -737 
Q 1069 -675 1141 -563 
Q 1194 -478 1313 -144 
Q 1328 -97 1363 -6 
L 103 3319 
L 709 3319 
L 1400 1397 
Q 1534 1031 1641 628 
Q 1738 1016 1872 1384 
L 2581 3319 
L 3144 3319 
L 1881 -56 
Q 1678 -603 1566 -809 
Q 1416 -1088 1222 -1217 
Q 1028 -1347 759 -1347 
Q 597 -1347 397 -1278 
z
" transform="scale(0.015625)"/>
       </defs>
       <use xlink:href="#ArialMT-43"/>
       <use xlink:href="#ArialMT-6f" x="72.216797"/>
       <use xlink:href="#ArialMT-6e" x="127.832031"/>
       <use xlink:href="#ArialMT-6e" x="183.447266"/>
       <use xlink:href="#ArialMT-65" x="239.0625"/>
       <use xlink:href="#ArialMT-63" x="294.677734"/>
       <use xlink:href="#ArialMT-74" x="344.677734"/>
       <use xlink:href="#ArialMT-69" x="372.460938"/>
       <use xlink:href="#ArialMT-76" x="394.677734"/>
       <use xlink:href="#ArialMT-69" x="444.677734"/>
       <use xlink:href="#ArialMT-74" x="466.894531"/>
       <use xlink:href="#ArialMT-79" x="494.677734"/>
      </g>
      <!-- Accuracy -->
      <g style="fill: #4a4a5a" transform="translate(666.370045 384.940469) scale(0.1 -0.1)">
       <defs>
        <path id="ArialMT-41" d="M -9 0 
L 1750 4581 
L 2403 4581 
L 4278 0 
L 3588 0 
L 3053 1388 
L 1138 1388 
L 634 0 
L -9 0 
z
M 1313 1881 
L 2866 1881 
L 2388 3150 
Q 2169 3728 2063 4100 
Q 1975 3659 1816 3225 
L 1313 1881 
z
" transform="scale(0.015625)"/>
        <path id="ArialMT-75" d="M 2597 0 
L 2597 488 
Q 2209 -75 1544 -75 
Q 1250 -75 995 37 
Q 741 150 617 320 
Q 494 491 444 738 
Q 409 903 409 1263 
L 409 3319 
L 972 3319 
L 972 1478 
Q 972 1038 1006 884 
Q 1059 663 1231 536 
Q 1403 409 1656 409 
Q 1909 409 2131 539 
Q 2353 669 2445 892 
Q 2538 1116 2538 1541 
L 2538 3319 
L 3100 3319 
L 3100 0 
L 2597 0 
z
" transform="scale(0.015625)"/>
        <path id="ArialMT-72" d="M 416 0 
L 416 3319 
L 922 3319 
L 922 2816 
Q 1116 3169 1280 3281 
Q 1444 3394 1641 3394 
Q 1925 3394 2219 3213 
L 2025 2691 
Q 1819 2813 1613 2813 
Q 1428 2813 1281 2702 
Q 1134 2591 1072 2394 
Q 978 2094 978 1738 
L 978 0 
L 416 0 
z
" transform="scale(0.015625)"/>
        <path id="ArialMT-61" d="M 2588 409 
Q 2275 144 1986 34 
Q 1697 -75 1366 -75 
Q 819 -75 525 192 
Q 231 459 231 875 
Q 231 1119 342 1320 
Q 453 1522 633 1644 
Q 813 1766 1038 1828 
Q 1203 1872 1538 1913 
Q 2219 1994 2541 2106 
Q 2544 2222 2544 2253 
Q 2544 2597 2384 2738 
Q 2169 2928 1744 2928 
Q 1347 2928 1158 2789 
Q 969 2650 878 2297 
L 328 2372 
Q 403 2725 575 2942 
Q 747 3159 1072 3276 
Q 1397 3394 1825 3394 
Q 2250 3394 2515 3294 
Q 2781 3194 2906 3042 
Q 3031 2891 3081 2659 
Q 3109 2516 3109 2141 
L 3109 1391 
Q 3109 606 3145 398 
Q 3181 191 3288 0 
L 2700 0 
Q 2613 175 2588 409 
z
M 2541 1666 
Q 2234 1541 1622 1453 
Q 1275 1403 1131 1340 
Q 988 1278 909 1158 
Q 831 1038 831 891 
Q 831 666 1001 516 
Q 1172 366 1500 366 
Q 1825 366 2078 508 
Q 2331 650 2450 897 
Q 2541 1088 2541 1459 
L 2541 1666 
z
" transform="scale(0.015625)"/>
       </defs>
       <use xlink:href="#ArialMT-41"/>
       <use xlink:href="#ArialMT-63" x="66.699219"/>
       <use xlink:href="#ArialMT-63" x="116.699219"/>
       <use xlink:href="#ArialMT-75" x="166.699219"/>
       <use xlink:href="#ArialMT-72" x="222.314453"/>
       <use xlink:href="#ArialMT-61" x="255.615234"/>
       <use xlink:href="#ArialMT-63" x="311.230469"/>
       <use xlink:href="#ArialMT-79" x="361.230469"/>
      </g>
     </g>
    </g>
    <g id="xtick_2">
     <g id="text_2">
      <!-- % of -->
      <g style="fill: #4a4a5a" transform="translate(615.700008 185.867521) scale(0.1 -0.1)">
       <defs>
        <path id="ArialMT-25" d="M 372 3481 
Q 372 3972 619 4315 
Q 866 4659 1334 4659 
Q 1766 4659 2048 4351 
Q 2331 4044 2331 3447 
Q 2331 2866 2045 2552 
Q 1759 2238 1341 2238 
Q 925 2238 648 2547 
Q 372 2856 372 3481 
z
M 1350 4272 
Q 1141 4272 1002 4090 
Q 863 3909 863 3425 
Q 863 2984 1003 2804 
Q 1144 2625 1350 2625 
Q 1563 2625 1702 2806 
Q 1841 2988 1841 3469 
Q 1841 3913 1700 4092 
Q 1559 4272 1350 4272 
z
M 1353 -169 
L 3859 4659 
L 4316 4659 
L 1819 -169 
L 1353 -169 
z
M 3334 1075 
Q 3334 1569 3581 1911 
Q 3828 2253 4300 2253 
Q 4731 2253 5014 1945 
Q 5297 1638 5297 1041 
Q 5297 459 5011 145 
Q 4725 -169 4303 -169 
Q 3888 -169 3611 142 
Q 3334 453 3334 1075 
z
M 4316 1866 
Q 4103 1866 3964 1684 
Q 3825 1503 3825 1019 
Q 3825 581 3965 400 
Q 4106 219 4313 219 
Q 4528 219 4667 400 
Q 4806 581 4806 1063 
Q 4806 1506 4665 1686 
Q 4525 1866 4316 1866 
z
" transform="scale(0.015625)"/>
        <path id="ArialMT-20" transform="scale(0.015625)"/>
        <path id="ArialMT-66" d="M 556 0 
L 556 2881 
L 59 2881 
L 59 3319 
L 556 3319 
L 556 3672 
Q 556 4006 616 4169 
Q 697 4388 901 4523 
Q 1106 4659 1475 4659 
Q 1713 4659 2000 4603 
L 1916 4113 
Q 1741 4144 1584 4144 
Q 1328 4144 1222 4034 
Q 1116 3925 1116 3625 
L 1116 3319 
L 1763 3319 
L 1763 2881 
L 1116 2881 
L 1116 0 
L 556 0 
z
" transform="scale(0.015625)"/>
       </defs>
       <use xlink:href="#ArialMT-25"/>
       <use xlink:href="#ArialMT-20" x="88.916016"/>
       <use xlink:href="#ArialMT-6f" x="116.699219"/>
       <use xlink:href="#ArialMT-66" x="172.314453"/>
      </g>
      <!-- Neurons -->
      <g style="fill: #4a4a5a" transform="translate(606.807039 196.444396) scale(0.1 -0.1)">
       <defs>
        <path id="ArialMT-4e" d="M 488 0 
L 488 4581 
L 1109 4581 
L 3516 984 
L 3516 4581 
L 4097 4581 
L 4097 0 
L 3475 0 
L 1069 3600 
L 1069 0 
L 488 0 
z
" transform="scale(0.015625)"/>
        <path id="ArialMT-73" d="M 197 991 
L 753 1078 
Q 800 744 1014 566 
Q 1228 388 1613 388 
Q 2000 388 2187 545 
Q 2375 703 2375 916 
Q 2375 1106 2209 1216 
Q 2094 1291 1634 1406 
Q 1016 1563 777 1677 
Q 538 1791 414 1992 
Q 291 2194 291 2438 
Q 291 2659 392 2848 
Q 494 3038 669 3163 
Q 800 3259 1026 3326 
Q 1253 3394 1513 3394 
Q 1903 3394 2198 3281 
Q 2494 3169 2634 2976 
Q 2775 2784 2828 2463 
L 2278 2388 
Q 2241 2644 2061 2787 
Q 1881 2931 1553 2931 
Q 1166 2931 1000 2803 
Q 834 2675 834 2503 
Q 834 2394 903 2306 
Q 972 2216 1119 2156 
Q 1203 2125 1616 2013 
Q 2213 1853 2448 1751 
Q 2684 1650 2818 1456 
Q 2953 1263 2953 975 
Q 2953 694 2789 445 
Q 2625 197 2315 61 
Q 2006 -75 1616 -75 
Q 969 -75 630 194 
Q 291 463 197 991 
z
" transform="scale(0.015625)"/>
       </defs>
       <use xlink:href="#ArialMT-4e"/>
       <use xlink:href="#ArialMT-65" x="72.216797"/>
       <use xlink:href="#ArialMT-75" x="127.832031"/>
       <use xlink:href="#ArialMT-72" x="183.447266"/>
       <use xlink:href="#ArialMT-6f" x="216.748047"/>
       <use xlink:href="#ArialMT-6e" x="272.363281"/>
       <use xlink:href="#ArialMT-73" x="327.978516"/>
      </g>
     </g>
    </g>
    <g id="xtick_3">
     <g id="text_3">
      <!-- Neuron -->
      <g style="fill: #4a4a5a" transform="translate(449.014539 69.349609) scale(0.1 -0.1)">
       <use xlink:href="#ArialMT-4e"/>
       <use xlink:href="#ArialMT-65" x="72.216797"/>
       <use xlink:href="#ArialMT-75" x="127.832031"/>
       <use xlink:href="#ArialMT-72" x="183.447266"/>
       <use xlink:href="#ArialMT-6f" x="216.748047"/>
       <use xlink:href="#ArialMT-6e" x="272.363281"/>
      </g>
      <!-- Types -->
      <g style="fill: #4a4a5a" transform="translate(452.072352 79.926484) scale(0.1 -0.1)">
       <defs>
        <path id="ArialMT-54" d="M 1659 0 
L 1659 4041 
L 150 4041 
L 150 4581 
L 3781 4581 
L 3781 4041 
L 2266 4041 
L 2266 0 
L 1659 0 
z
" transform="scale(0.015625)"/>
        <path id="ArialMT-70" d="M 422 -1272 
L 422 3319 
L 934 3319 
L 934 2888 
Q 1116 3141 1344 3267 
Q 1572 3394 1897 3394 
Q 2322 3394 2647 3175 
Q 2972 2956 3137 2557 
Q 3303 2159 3303 1684 
Q 3303 1175 3120 767 
Q 2938 359 2589 142 
Q 2241 -75 1856 -75 
Q 1575 -75 1351 44 
Q 1128 163 984 344 
L 984 -1272 
L 422 -1272 
z
M 931 1641 
Q 931 1000 1190 694 
Q 1450 388 1819 388 
Q 2194 388 2461 705 
Q 2728 1022 2728 1688 
Q 2728 2322 2467 2637 
Q 2206 2953 1844 2953 
Q 1484 2953 1207 2617 
Q 931 2281 931 1641 
z
" transform="scale(0.015625)"/>
       </defs>
       <use xlink:href="#ArialMT-54"/>
       <use xlink:href="#ArialMT-79" x="55.583984"/>
       <use xlink:href="#ArialMT-70" x="105.583984"/>
       <use xlink:href="#ArialMT-65" x="161.199219"/>
       <use xlink:href="#ArialMT-73" x="216.814453"/>
      </g>
     </g>
    </g>
    <g id="xtick_4">
     <g id="text_4">
      <!-- Plasticity -->
      <g style="fill: #4a4a5a" transform="translate(247.553207 74.638047) scale(0.1 -0.1)">
       <defs>
        <path id="ArialMT-50" d="M 494 0 
L 494 4581 
L 2222 4581 
Q 2678 4581 2919 4538 
Q 3256 4481 3484 4323 
Q 3713 4166 3852 3881 
Q 3991 3597 3991 3256 
Q 3991 2672 3619 2267 
Q 3247 1863 2275 1863 
L 1100 1863 
L 1100 0 
L 494 0 
z
M 1100 2403 
L 2284 2403 
Q 2872 2403 3119 2622 
Q 3366 2841 3366 3238 
Q 3366 3525 3220 3729 
Q 3075 3934 2838 4000 
Q 2684 4041 2272 4041 
L 1100 4041 
L 1100 2403 
z
" transform="scale(0.015625)"/>
        <path id="ArialMT-6c" d="M 409 0 
L 409 4581 
L 972 4581 
L 972 0 
L 409 0 
z
" transform="scale(0.015625)"/>
       </defs>
       <use xlink:href="#ArialMT-50"/>
       <use xlink:href="#ArialMT-6c" x="66.699219"/>
       <use xlink:href="#ArialMT-61" x="88.916016"/>
       <use xlink:href="#ArialMT-73" x="144.53125"/>
       <use xlink:href="#ArialMT-74" x="194.53125"/>
       <use xlink:href="#ArialMT-69" x="222.314453"/>
       <use xlink:href="#ArialMT-63" x="244.53125"/>
       <use xlink:href="#ArialMT-69" x="294.53125"/>
       <use xlink:href="#ArialMT-74" x="316.748047"/>
       <use xlink:href="#ArialMT-79" x="344.53125"/>
      </g>
     </g>
    </g>
    <g id="xtick_5">
     <g id="text_5">
      <!-- Functional -->
      <g style="fill: #4a4a5a" transform="translate(83.920082 185.808927) scale(0.1 -0.1)">
       <defs>
        <path id="ArialMT-46" d="M 525 0 
L 525 4581 
L 3616 4581 
L 3616 4041 
L 1131 4041 
L 1131 2622 
L 3281 2622 
L 3281 2081 
L 1131 2081 
L 1131 0 
L 525 0 
z
" transform="scale(0.015625)"/>
       </defs>
       <use xlink:href="#ArialMT-46"/>
       <use xlink:href="#ArialMT-75" x="61.083984"/>
       <use xlink:href="#ArialMT-6e" x="116.699219"/>
       <use xlink:href="#ArialMT-63" x="172.314453"/>
       <use xlink:href="#ArialMT-74" x="222.314453"/>
       <use xlink:href="#ArialMT-69" x="250.097656"/>
       <use xlink:href="#ArialMT-6f" x="272.314453"/>
       <use xlink:href="#ArialMT-6e" x="327.929688"/>
       <use xlink:href="#ArialMT-61" x="383.544922"/>
       <use xlink:href="#ArialMT-6c" x="439.160156"/>
      </g>
      <!-- Accuracy -->
      <g style="fill: #4a4a5a" transform="translate(86.426332 196.385802) scale(0.1 -0.1)">
       <use xlink:href="#ArialMT-41"/>
       <use xlink:href="#ArialMT-63" x="66.699219"/>
       <use xlink:href="#ArialMT-63" x="116.699219"/>
       <use xlink:href="#ArialMT-75" x="166.699219"/>
       <use xlink:href="#ArialMT-72" x="222.314453"/>
       <use xlink:href="#ArialMT-61" x="255.615234"/>
       <use xlink:href="#ArialMT-63" x="311.230469"/>
       <use xlink:href="#ArialMT-79" x="361.230469"/>
      </g>
     </g>
    </g>
    <g id="xtick_6">
     <g id="text_6">
      <!-- Neuro- -->
      <g style="fill: #4a4a5a" transform="translate(30.478951 374.302656) scale(0.1 -0.1)">
       <defs>
        <path id="ArialMT-2d" d="M 203 1375 
L 203 1941 
L 1931 1941 
L 1931 1375 
L 203 1375 
z
" transform="scale(0.015625)"/>
       </defs>
       <use xlink:href="#ArialMT-4e"/>
       <use xlink:href="#ArialMT-65" x="72.216797"/>
       <use xlink:href="#ArialMT-75" x="127.832031"/>
       <use xlink:href="#ArialMT-72" x="183.447266"/>
       <use xlink:href="#ArialMT-6f" x="216.748047"/>
       <use xlink:href="#ArialMT-2d" x="272.363281"/>
      </g>
      <!-- modulation -->
      <g style="fill: #4a4a5a" transform="translate(21.302388 384.879531) scale(0.1 -0.1)">
       <defs>
        <path id="ArialMT-6d" d="M 422 0 
L 422 3319 
L 925 3319 
L 925 2853 
Q 1081 3097 1340 3245 
Q 1600 3394 1931 3394 
Q 2300 3394 2536 3241 
Q 2772 3088 2869 2813 
Q 3263 3394 3894 3394 
Q 4388 3394 4653 3120 
Q 4919 2847 4919 2278 
L 4919 0 
L 4359 0 
L 4359 2091 
Q 4359 2428 4304 2576 
Q 4250 2725 4106 2815 
Q 3963 2906 3769 2906 
Q 3419 2906 3187 2673 
Q 2956 2441 2956 1928 
L 2956 0 
L 2394 0 
L 2394 2156 
Q 2394 2531 2256 2718 
Q 2119 2906 1806 2906 
Q 1569 2906 1367 2781 
Q 1166 2656 1075 2415 
Q 984 2175 984 1722 
L 984 0 
L 422 0 
z
" transform="scale(0.015625)"/>
        <path id="ArialMT-64" d="M 2575 0 
L 2575 419 
Q 2259 -75 1647 -75 
Q 1250 -75 917 144 
Q 584 363 401 755 
Q 219 1147 219 1656 
Q 219 2153 384 2558 
Q 550 2963 881 3178 
Q 1213 3394 1622 3394 
Q 1922 3394 2156 3267 
Q 2391 3141 2538 2938 
L 2538 4581 
L 3097 4581 
L 3097 0 
L 2575 0 
z
M 797 1656 
Q 797 1019 1065 703 
Q 1334 388 1700 388 
Q 2069 388 2326 689 
Q 2584 991 2584 1609 
Q 2584 2291 2321 2609 
Q 2059 2928 1675 2928 
Q 1300 2928 1048 2622 
Q 797 2316 797 1656 
z
" transform="scale(0.015625)"/>
       </defs>
       <use xlink:href="#ArialMT-6d"/>
       <use xlink:href="#ArialMT-6f" x="83.300781"/>
       <use xlink:href="#ArialMT-64" x="138.916016"/>
       <use xlink:href="#ArialMT-75" x="194.53125"/>
       <use xlink:href="#ArialMT-6c" x="250.146484"/>
       <use xlink:href="#ArialMT-61" x="272.363281"/>
       <use xlink:href="#ArialMT-74" x="327.978516"/>
       <use xlink:href="#ArialMT-69" x="355.761719"/>
       <use xlink:href="#ArialMT-6f" x="377.978516"/>
       <use xlink:href="#ArialMT-6e" x="433.59375"/>
      </g>
     </g>
    </g>
    <g id="xtick_7">
     <g id="text_7">
      <!-- Temporal -->
      <g style="fill: #4a4a5a" transform="translate(86.427113 562.737791) scale(0.1 -0.1)">
       <use xlink:href="#ArialMT-54"/>
       <use xlink:href="#ArialMT-65" x="49.958984"/>
       <use xlink:href="#ArialMT-6d" x="105.574219"/>
       <use xlink:href="#ArialMT-70" x="188.875"/>
       <use xlink:href="#ArialMT-6f" x="244.490234"/>
       <use xlink:href="#ArialMT-72" x="300.105469"/>
       <use xlink:href="#ArialMT-61" x="333.40625"/>
       <use xlink:href="#ArialMT-6c" x="389.021484"/>
      </g>
      <!-- Resolution -->
      <g style="fill: #4a4a5a" transform="translate(83.36305 573.314666) scale(0.1 -0.1)">
       <defs>
        <path id="ArialMT-52" d="M 503 0 
L 503 4581 
L 2534 4581 
Q 3147 4581 3465 4457 
Q 3784 4334 3975 4021 
Q 4166 3709 4166 3331 
Q 4166 2844 3850 2509 
Q 3534 2175 2875 2084 
Q 3116 1969 3241 1856 
Q 3506 1613 3744 1247 
L 4541 0 
L 3778 0 
L 3172 953 
Q 2906 1366 2734 1584 
Q 2563 1803 2427 1890 
Q 2291 1978 2150 2013 
Q 2047 2034 1813 2034 
L 1109 2034 
L 1109 0 
L 503 0 
z
M 1109 2559 
L 2413 2559 
Q 2828 2559 3062 2645 
Q 3297 2731 3419 2920 
Q 3541 3109 3541 3331 
Q 3541 3656 3305 3865 
Q 3069 4075 2559 4075 
L 1109 4075 
L 1109 2559 
z
" transform="scale(0.015625)"/>
       </defs>
       <use xlink:href="#ArialMT-52"/>
       <use xlink:href="#ArialMT-65" x="72.216797"/>
       <use xlink:href="#ArialMT-73" x="127.832031"/>
       <use xlink:href="#ArialMT-6f" x="177.832031"/>
       <use xlink:href="#ArialMT-6c" x="233.447266"/>
       <use xlink:href="#ArialMT-75" x="255.664062"/>
       <use xlink:href="#ArialMT-74" x="311.279297"/>
       <use xlink:href="#ArialMT-69" x="339.0625"/>
       <use xlink:href="#ArialMT-6f" x="361.279297"/>
       <use xlink:href="#ArialMT-6e" x="416.894531"/>
      </g>
     </g>
    </g>
    <g id="xtick_8">
     <g id="text_8">
      <!-- Behavior -->
      <g style="fill: #4a4a5a" transform="translate(247.546957 684.485547) scale(0.1 -0.1)">
       <defs>
        <path id="ArialMT-42" d="M 469 0 
L 469 4581 
L 2188 4581 
Q 2713 4581 3030 4442 
Q 3347 4303 3526 4014 
Q 3706 3725 3706 3409 
Q 3706 3116 3547 2856 
Q 3388 2597 3066 2438 
Q 3481 2316 3704 2022 
Q 3928 1728 3928 1328 
Q 3928 1006 3792 729 
Q 3656 453 3456 303 
Q 3256 153 2954 76 
Q 2653 0 2216 0 
L 469 0 
z
M 1075 2656 
L 2066 2656 
Q 2469 2656 2644 2709 
Q 2875 2778 2992 2937 
Q 3109 3097 3109 3338 
Q 3109 3566 3000 3739 
Q 2891 3913 2687 3977 
Q 2484 4041 1991 4041 
L 1075 4041 
L 1075 2656 
z
M 1075 541 
L 2216 541 
Q 2509 541 2628 563 
Q 2838 600 2978 687 
Q 3119 775 3209 942 
Q 3300 1109 3300 1328 
Q 3300 1584 3169 1773 
Q 3038 1963 2805 2039 
Q 2572 2116 2134 2116 
L 1075 2116 
L 1075 541 
z
" transform="scale(0.015625)"/>
        <path id="ArialMT-68" d="M 422 0 
L 422 4581 
L 984 4581 
L 984 2938 
Q 1378 3394 1978 3394 
Q 2347 3394 2619 3248 
Q 2891 3103 3008 2847 
Q 3125 2591 3125 2103 
L 3125 0 
L 2563 0 
L 2563 2103 
Q 2563 2525 2380 2717 
Q 2197 2909 1863 2909 
Q 1613 2909 1392 2779 
Q 1172 2650 1078 2428 
Q 984 2206 984 1816 
L 984 0 
L 422 0 
z
" transform="scale(0.015625)"/>
       </defs>
       <use xlink:href="#ArialMT-42"/>
       <use xlink:href="#ArialMT-65" x="66.699219"/>
       <use xlink:href="#ArialMT-68" x="122.314453"/>
       <use xlink:href="#ArialMT-61" x="177.929688"/>
       <use xlink:href="#ArialMT-76" x="233.544922"/>
       <use xlink:href="#ArialMT-69" x="283.544922"/>
       <use xlink:href="#ArialMT-6f" x="305.761719"/>
       <use xlink:href="#ArialMT-72" x="361.376953"/>
      </g>
     </g>
    </g>
    <g id="xtick_9">
     <g id="text_9">
      <!-- Personality -->
      <g style="fill: #4a4a5a" transform="translate(440.679383 684.426953) scale(0.1 -0.1)">
       <use xlink:href="#ArialMT-50"/>
       <use xlink:href="#ArialMT-65" x="66.699219"/>
       <use xlink:href="#ArialMT-72" x="122.314453"/>
       <use xlink:href="#ArialMT-73" x="155.615234"/>
       <use xlink:href="#ArialMT-6f" x="205.615234"/>
       <use xlink:href="#ArialMT-6e" x="261.230469"/>
       <use xlink:href="#ArialMT-61" x="316.845703"/>
       <use xlink:href="#ArialMT-6c" x="372.460938"/>
       <use xlink:href="#ArialMT-69" x="394.677734"/>
       <use xlink:href="#ArialMT-74" x="416.894531"/>
       <use xlink:href="#ArialMT-79" x="444.677734"/>
      </g>
     </g>
    </g>
    <g id="xtick_10">
     <g id="text_10">
      <!-- Learning -->
      <g style="fill: #4a4a5a" transform="translate(606.246102 567.967635) scale(0.1 -0.1)">
       <defs>
        <path id="ArialMT-4c" d="M 469 0 
L 469 4581 
L 1075 4581 
L 1075 541 
L 3331 541 
L 3331 0 
L 469 0 
z
" transform="scale(0.015625)"/>
        <path id="ArialMT-67" d="M 319 -275 
L 866 -356 
Q 900 -609 1056 -725 
Q 1266 -881 1628 -881 
Q 2019 -881 2231 -725 
Q 2444 -569 2519 -288 
Q 2563 -116 2559 434 
Q 2191 0 1641 0 
Q 956 0 581 494 
Q 206 988 206 1678 
Q 206 2153 378 2554 
Q 550 2956 876 3175 
Q 1203 3394 1644 3394 
Q 2231 3394 2613 2919 
L 2613 3319 
L 3131 3319 
L 3131 450 
Q 3131 -325 2973 -648 
Q 2816 -972 2473 -1159 
Q 2131 -1347 1631 -1347 
Q 1038 -1347 672 -1080 
Q 306 -813 319 -275 
z
M 784 1719 
Q 784 1066 1043 766 
Q 1303 466 1694 466 
Q 2081 466 2343 764 
Q 2606 1063 2606 1700 
Q 2606 2309 2336 2618 
Q 2066 2928 1684 2928 
Q 1309 2928 1046 2623 
Q 784 2319 784 1719 
z
" transform="scale(0.015625)"/>
       </defs>
       <use xlink:href="#ArialMT-4c"/>
       <use xlink:href="#ArialMT-65" x="55.615234"/>
       <use xlink:href="#ArialMT-61" x="111.230469"/>
       <use xlink:href="#ArialMT-72" x="166.845703"/>
       <use xlink:href="#ArialMT-6e" x="200.146484"/>
       <use xlink:href="#ArialMT-69" x="255.761719"/>
       <use xlink:href="#ArialMT-6e" x="277.978516"/>
       <use xlink:href="#ArialMT-67" x="333.59375"/>
      </g>
     </g>
    </g>
   </g>
   <g id="matplotlib.axis_2"/>
   <g id="patch_3">
    <path d="M 366.345982 377.005937 
C 366.345982 377.005937 366.345982 377.005937 366.345982 377.005937 
C 366.345982 377.005937 366.345982 377.005937 366.345982 377.005937 
L 366.345982 377.005937 
C 366.345982 377.005937 366.345982 377.005937 366.345982 377.005937 
C 366.345982 377.005937 366.345982 377.005937 366.345982 377.005937 
z
" clip-path="url(#p357ab249b3)" style="fill: #4a90a4; opacity: 0.330567"/>
   </g>
   <g id="patch_4">
    <path d="M 366.345982 377.005937 
C 366.345982 377.005937 366.345982 377.005937 366.345982 377.005937 
C 366.345982 377.005937 366.345982 377.005937 366.345982 377.005937 
L 464.618638 241.74523 
C 478.812167 252.057433 491.294487 264.539753 501.606689 278.733281 
C 511.918892 292.92681 519.933034 308.655451 525.35448 325.340945 
z
" clip-path="url(#p357ab249b3)" style="fill: #4a90a4; opacity: 0.330567"/>
   </g>
   <g id="patch_5">
    <path d="M 366.345982 377.005937 
C 366.345982 377.005937 366.345982 377.005937 366.345982 377.005937 
C 366.345982 377.005937 366.345982 377.005937 366.345982 377.005937 
L 366.345982 377.005937 
C 366.345982 377.005937 366.345982 377.005937 366.345982 377.005937 
C 366.345982 377.005937 366.345982 377.005937 366.345982 377.005937 
z
" clip-path="url(#p357ab249b3)" style="fill: #4a90a4; opacity: 0.330567"/>
   </g>
   <g id="patch_6">
    <path d="M 366.345982 377.005937 
C 366.345982 377.005937 366.345982 377.005937 366.345982 377.005937 
C 366.345982 377.005937 366.345982 377.005937 366.345982 377.005937 
L 366.345982 377.005937 
C 366.345982 377.005937 366.345982 377.005937 366.345982 377.005937 
C 366.345982 377.005937 366.345982 377.005937 366.345982 377.005937 
z
" clip-path="url(#p357ab249b3)" style="fill: #4a90a4; opacity: 0.330567"/>
   </g>
   <g id="patch_7">
    <path d="M 366.345982 377.005937 
C 366.345982 377.005937 366.345982 377.005937 366.345982 377.005937 
C 366.345982 377.005937 366.345982 377.005937 366.345982 377.005937 
L 286.841733 351.173441 
C 289.552456 342.830694 293.559527 334.966374 298.715629 327.869609 
C 303.87173 320.772845 310.11289 314.531685 317.209654 309.375584 
z
" clip-path="url(#p357ab249b3)" style="fill: #4a90a4; opacity: 0.330567"/>
   </g>
   <g id="patch_8">
    <path d="M 366.345982 377.005937 
C 366.345982 377.005937 366.345982 377.005937 366.345982 377.005937 
C 366.345982 377.005937 366.345982 377.005937 366.345982 377.005937 
L 366.345982 377.005937 
C 366.345982 377.005937 366.345982 377.005937 366.345982 377.005937 
C 366.345982 377.005937 366.345982 377.005937 366.345982 377.005937 
z
" clip-path="url(#p357ab249b3)" style="fill: #4a90a4; opacity: 0.330567"/>
   </g>
   <g id="patch_9">
    <path d="M 366.345982 377.005937 
C 366.345982 377.005937 366.345982 377.005937 366.345982 377.005937 
C 366.345982 377.005937 366.345982 377.005937 366.345982 377.005937 
L 317.209654 444.636291 
C 310.11289 439.48019 303.87173 433.23903 298.715629 426.142266 
C 293.559527 419.045501 289.552456 411.181181 286.841733 402.838434 
z
" clip-path="url(#p357ab249b3)" style="fill: #4a90a4; opacity: 0.330567"/>
   </g>
   <g id="patch_10">
    <path d="M 366.345982 377.005937 
C 366.345982 377.005937 366.345982 377.005937 366.345982 377.005937 
C 366.345982 377.005937 366.345982 377.005937 366.345982 377.005937 
L 366.345982 377.005937 
C 366.345982 377.005937 366.345982 377.005937 366.345982 377.005937 
C 366.345982 377.005937 366.345982 377.005937 366.345982 377.005937 
z
" clip-path="url(#p357ab249b3)" style="fill: #4a90a4; opacity: 0.330567"/>
   </g>
   <g id="patch_11">
    <path d="M 366.345982 377.005937 
C 366.345982 377.005937 366.345982 377.005937 366.345982 377.005937 
C 366.345982 377.005937 366.345982 377.005937 366.345982 377.005937 
L 366.345982 377.005937 
C 366.345982 377.005937 366.345982 377.005937 366.345982 377.005937 
C 366.345982 377.005937 366.345982 377.005937 366.345982 377.005937 
z
" clip-path="url(#p357ab249b3)" style="fill: #4a90a4; opacity: 0.330567"/>
   </g>
   <g id="patch_12">
    <path d="M 366.345982 377.005937 
C 366.345982 377.005937 366.345982 377.005937 366.345982 377.005937 
C 366.345982 377.005937 366.345982 377.005937 366.345982 377.005937 
L 366.345982 377.005937 
C 366.345982 377.005937 366.345982 377.005937 366.345982 377.005937 
C 366.345982 377.005937 366.345982 377.005937 366.345982 377.005937 
z
" clip-path="url(#p357ab249b3)" style="fill: #4a90a4; opacity: 0.330567"/>
   </g>
   <g id="patch_13">
    <path d="M 366.345982 377.005937 
C 366.345982 377.005937 366.345982 377.005937 366.345982 377.005937 
C 366.345982 377.005937 366.345982 377.005937 366.345982 377.005937 
L 525.35448 325.340945 
C 530.775925 342.026439 533.537411 359.461771 533.537411 377.005937 
C 533.537411 394.550104 530.775925 411.985436 525.35448 428.67093 
z
" clip-path="url(#p357ab249b3)" style="fill: #4a90a4; opacity: 0.330567"/>
   </g>
   <g id="patch_14">
    <path d="M 366.345982 377.005937 
C 366.345982 377.005937 366.345982 377.005937 366.345982 377.005937 
C 366.345982 377.005937 366.345982 377.005937 366.345982 377.005937 
L 415.48231 309.375584 
C 422.579075 314.531685 428.820234 320.772845 433.976336 327.869609 
C 439.132437 334.966374 443.139508 342.830694 445.850231 351.173441 
z
" clip-path="url(#p357ab249b3)" style="fill: #4a90a4; opacity: 0.330567"/>
   </g>
   <g id="patch_15">
    <path d="M 366.345982 377.005937 
C 366.345982 377.005937 366.345982 377.005937 366.345982 377.005937 
C 366.345982 377.005937 366.345982 377.005937 366.345982 377.005937 
L 366.345982 209.814509 
C 383.890149 209.814509 401.325481 212.575994 418.010975 217.99744 
C 434.696469 223.418886 450.425109 231.433028 464.618638 241.74523 
z
" clip-path="url(#p357ab249b3)" style="fill: #4a90a4; opacity: 0.330567"/>
   </g>
   <g id="patch_16">
    <path d="M 366.345982 377.005937 
C 366.345982 377.005937 366.345982 377.005937 366.345982 377.005937 
C 366.345982 377.005937 366.345982 377.005937 366.345982 377.005937 
L 366.345982 377.005937 
C 366.345982 377.005937 366.345982 377.005937 366.345982 377.005937 
C 366.345982 377.005937 366.345982 377.005937 366.345982 377.005937 
z
" clip-path="url(#p357ab249b3)" style="fill: #4a90a4; opacity: 0.330567"/>
   </g>
   <g id="patch_17">
    <path d="M 366.345982 377.005937 
C 366.345982 377.005937 366.345982 377.005937 366.345982 377.005937 
C 366.345982 377.005937 366.345982 377.005937 366.345982 377.005937 
L 286.841733 351.173441 
C 289.552456 342.830694 293.559527 334.966374 298.715629 327.869609 
C 303.87173 320.772845 310.11289 314.531685 317.209654 309.375584 
z
" clip-path="url(#p357ab249b3)" style="fill: #4a90a4; opacity: 0.330567"/>
   </g>
   <g id="patch_18">
    <path d="M 366.345982 377.005937 
C 366.345982 377.005937 366.345982 377.005937 366.345982 377.005937 
C 366.345982 377.005937 366.345982 377.005937 366.345982 377.005937 
L 366.345982 377.005937 
C 366.345982 377.005937 366.345982 377.005937 366.345982 377.005937 
C 366.345982 377.005937 366.345982 377.005937 366.345982 377.005937 
z
" clip-path="url(#p357ab249b3)" style="fill: #4a90a4; opacity: 0.330567"/>
   </g>
   <g id="patch_19">
    <path d="M 366.345982 377.005937 
C 366.345982 377.005937 366.345982 377.005937 366.345982 377.005937 
C 366.345982 377.005937 366.345982 377.005937 366.345982 377.005937 
L 268.073326 512.266645 
C 253.879797 501.954442 241.397478 489.472122 231.085275 475.278594 
C 220.773073 461.085065 212.75893 445.356424 207.337485 428.67093 
z
" clip-path="url(#p357ab249b3)" style="fill: #4a90a4; opacity: 0.330567"/>
   </g>
   <g id="patch_20">
    <path d="M 366.345982 377.005937 
C 366.345982 377.005937 366.345982 377.005937 366.345982 377.005937 
C 366.345982 377.005937 366.345982 377.005937 366.345982 377.005937 
L 366.345982 544.197366 
C 348.801815 544.197366 331.366483 541.435881 314.680989 536.014435 
C 297.995495 530.592989 282.266855 522.578847 268.073326 512.266645 
z
" clip-path="url(#p357ab249b3)" style="fill: #4a90a4; opacity: 0.330567"/>
   </g>
   <g id="patch_21">
    <path d="M 366.345982 377.005937 
C 366.345982 377.005937 366.345982 377.005937 366.345982 377.005937 
C 366.345982 377.005937 366.345982 377.005937 366.345982 377.005937 
L 366.345982 377.005937 
C 366.345982 377.005937 366.345982 377.005937 366.345982 377.005937 
C 366.345982 377.005937 366.345982 377.005937 366.345982 377.005937 
z
" clip-path="url(#p357ab249b3)" style="fill: #4a90a4; opacity: 0.330567"/>
   </g>
   <g id="patch_22">
    <path d="M 366.345982 377.005937 
C 366.345982 377.005937 366.345982 377.005937 366.345982 377.005937 
C 366.345982 377.005937 366.345982 377.005937 366.345982 377.005937 
L 366.345982 377.005937 
C 366.345982 377.005937 366.345982 377.005937 366.345982 377.005937 
C 366.345982 377.005937 366.345982 377.005937 366.345982 377.005937 
z
" clip-path="url(#p357ab249b3)" style="fill: #4a90a4; opacity: 0.330567"/>
   </g>
   <g id="patch_23">
    <path d="M 366.345982 377.005937 
C 366.345982 377.005937 366.345982 377.005937 366.345982 377.005937 
C 366.345982 377.005937 366.345982 377.005937 366.345982 377.005937 
L 604.858729 299.508448 
C 612.990897 324.536689 617.133125 350.689688 617.133125 377.005937 
C 617.133125 403.322187 612.990897 429.475186 604.858729 454.503427 
z
" clip-path="url(#p357ab249b3)" style="fill: #4a90a4; opacity: 0.330567"/>
   </g>
   <g id="patch_24">
    <path d="M 366.345982 377.005937 
C 366.345982 377.005937 366.345982 377.005937 366.345982 377.005937 
C 366.345982 377.005937 366.345982 377.005937 366.345982 377.005937 
L 415.48231 309.375584 
C 422.579075 314.531685 428.820234 320.772845 433.976336 327.869609 
C 439.132437 334.966374 443.139508 342.830694 445.850231 351.173441 
z
" clip-path="url(#p357ab249b3)" style="fill: #4a90a4; opacity: 0.330567"/>
   </g>
   <g id="patch_25">
    <path d="M 366.345982 377.005937 
C 366.345982 377.005937 366.345982 377.005937 366.345982 377.005937 
C 366.345982 377.005937 366.345982 377.005937 366.345982 377.005937 
L 366.345982 209.814509 
C 383.890149 209.814509 401.325481 212.575994 418.010975 217.99744 
C 434.696469 223.418886 450.425109 231.433028 464.618638 241.74523 
z
" clip-path="url(#p357ab249b3)" style="fill: #4a90a4; opacity: 0.330567"/>
   </g>
   <g id="patch_26">
    <path d="M 366.345982 377.005937 
C 366.345982 377.005937 366.345982 377.005937 366.345982 377.005937 
C 366.345982 377.005937 366.345982 377.005937 366.345982 377.005937 
L 366.345982 377.005937 
C 366.345982 377.005937 366.345982 377.005937 366.345982 377.005937 
C 366.345982 377.005937 366.345982 377.005937 366.345982 377.005937 
z
" clip-path="url(#p357ab249b3)" style="fill: #4a90a4; opacity: 0.330567"/>
   </g>
   <g id="patch_27">
    <path d="M 366.345982 377.005937 
C 366.345982 377.005937 366.345982 377.005937 366.345982 377.005937 
C 366.345982 377.005937 366.345982 377.005937 366.345982 377.005937 
L 286.841733 351.173441 
C 289.552456 342.830694 293.559527 334.966374 298.715629 327.869609 
C 303.87173 320.772845 310.11289 314.531685 317.209654 309.375584 
z
" clip-path="url(#p357ab249b3)" style="fill: #4a90a4; opacity: 0.330567"/>
   </g>
   <g id="patch_28">
    <path d="M 366.345982 377.005937 
C 366.345982 377.005937 366.345982 377.005937 366.345982 377.005937 
C 366.345982 377.005937 366.345982 377.005937 366.345982 377.005937 
L 366.345982 377.005937 
C 366.345982 377.005937 366.345982 377.005937 366.345982 377.005937 
C 366.345982 377.005937 366.345982 377.005937 366.345982 377.005937 
z
" clip-path="url(#p357ab249b3)" style="fill: #4a90a4; opacity: 0.330567"/>
   </g>
   <g id="patch_29">
    <path d="M 366.345982 377.005937 
C 366.345982 377.005937 366.345982 377.005937 366.345982 377.005937 
C 366.345982 377.005937 366.345982 377.005937 366.345982 377.005937 
L 317.209654 444.636291 
C 310.11289 439.48019 303.87173 433.23903 298.715629 426.142266 
C 293.559527 419.045501 289.552456 411.181181 286.841733 402.838434 
z
" clip-path="url(#p357ab249b3)" style="fill: #4a90a4; opacity: 0.330567"/>
   </g>
   <g id="patch_30">
    <path d="M 366.345982 377.005937 
C 366.345982 377.005937 366.345982 377.005937 366.345982 377.005937 
C 366.345982 377.005937 366.345982 377.005937 366.345982 377.005937 
L 366.345982 544.197366 
C 348.801815 544.197366 331.366483 541.435881 314.680989 536.014435 
C 297.995495 530.592989 282.266855 522.578847 268.073326 512.266645 
z
" clip-path="url(#p357ab249b3)" style="fill: #4a90a4; opacity: 0.330567"/>
   </g>
   <g id="patch_31">
    <path d="M 366.345982 377.005937 
C 366.345982 377.005937 366.345982 377.005937 366.345982 377.005937 
C 366.345982 377.005937 366.345982 377.005937 366.345982 377.005937 
L 366.345982 377.005937 
C 366.345982 377.005937 366.345982 377.005937 366.345982 377.005937 
C 366.345982 377.005937 366.345982 377.005937 366.345982 377.005937 
z
" clip-path="url(#p357ab249b3)" style="fill: #4a90a4; opacity: 0.330567"/>
   </g>
   <g id="patch_32">
    <path d="M 366.345982 377.005937 
C 366.345982 377.005937 366.345982 377.005937 366.345982 377.005937 
C 366.345982 377.005937 366.345982 377.005937 366.345982 377.005937 
L 366.345982 377.005937 
C 366.345982 377.005937 366.345982 377.005937 366.345982 377.005937 
C 366.345982 377.005937 366.345982 377.005937 366.345982 377.005937 
z
" clip-path="url(#p357ab249b3)" style="fill: #4a90a4; opacity: 0.330567"/>
   </g>
   <g id="line2d_1">
    <path d="M 366.345982 377.005937 
L 366.345982 377.005937 
L 366.345982 377.005937 
L 366.345982 377.005937 
L 366.345982 377.005937 
L 366.345982 377.005937 
L 366.345982 377.005937 
L 366.345982 377.005937 
L 366.345982 377.005937 
L 366.345982 377.005937 
L 366.345982 377.005937 
L 366.345982 377.005937 
L 366.345982 377.005937 
L 366.345982 377.005937 
L 366.345982 377.005937 
L 366.345982 377.005937 
L 366.345982 377.005937 
L 366.345982 377.005937 
L 366.345982 377.005937 
L 366.345982 377.005937 
L 366.345982 377.005937 
L 366.345982 377.005937 
L 366.345982 377.005937 
L 366.345982 377.005937 
L 366.345982 377.005937 
L 366.345982 377.005937 
L 366.345982 377.005937 
L 366.345982 377.005937 
L 366.345982 377.005937 
L 366.345982 377.005937 
L 366.345982 377.005937 
L 366.345982 377.005937 
L 366.345982 377.005937 
L 366.345982 377.005937 
L 366.345982 377.005937 
L 366.345982 377.005937 
L 366.345982 377.005937 
L 366.345982 377.005937 
L 366.345982 377.005937 
L 366.345982 377.005937 
L 366.345982 377.005937 
L 366.345982 377.005937 
L 366.345982 377.005937 
L 366.345982 377.005937 
L 366.345982 377.005937 
L 366.345982 377.005937 
L 366.345982 377.005937 
L 366.345982 377.005937 
L 366.345982 377.005937 
L 366.345982 377.005937 
L 366.345982 377.005937 
L 366.345982 377.005937 
L 366.345982 377.005937 
L 366.345982 377.005937 
L 366.345982 377.005937 
L 366.345982 377.005937 
L 366.345982 377.005937 
L 366.345982 377.005937 
L 366.345982 377.005937 
L 366.345982 377.005937 
L 366.345982 377.005937 
L 366.345982 377.005937 
L 366.345982 377.005937 
L 366.345982 377.005937 
L 366.345982 377.005937 
L 366.345982 377.005937 
L 366.345982 377.005937 
L 366.345982 377.005937 
L 366.345982 377.005937 
L 366.345982 377.005937 
L 366.345982 377.005937 
L 366.345982 377.005937 
L 366.345982 377.005937 
L 366.345982 377.005937 
L 366.345982 377.005937 
L 366.345982 377.005937 
L 366.345982 377.005937 
L 366.345982 377.005937 
L 366.345982 377.005937 
L 366.345982 377.005937 
L 366.345982 377.005937 
L 366.345982 377.005937 
L 366.345982 377.005937 
L 366.345982 377.005937 
L 366.345982 377.005937 
L 366.345982 377.005937 
L 366.345982 377.005937 
L 366.345982 377.005937 
L 366.345982 377.005937 
L 366.345982 377.005937 
L 366.345982 377.005937 
L 366.345982 377.005937 
L 366.345982 377.005937 
L 366.345982 377.005937 
L 366.345982 377.005937 
L 366.345982 377.005937 
L 366.345982 377.005937 
L 366.345982 377.005937 
L 366.345982 377.005937 
L 366.345982 377.005937 
" clip-path="url(#p357ab249b3)" style="fill: none; stroke: #e8e5e1; stroke-opacity: 0.7; stroke-width: 0.5; stroke-linecap: round"/>
   </g>
   <g id="line2d_2">
    <path d="M 449.941696 377.005937 
L 449.773391 371.70397 
L 449.269153 366.423351 
L 448.431013 361.185345 
L 447.262345 356.011042 
L 445.767856 350.921279 
L 443.953563 345.936549 
L 441.826771 341.076925 
L 439.396045 336.361974 
L 436.671172 331.810682 
L 433.663125 327.441376 
L 430.384015 323.271648 
L 426.847046 319.31829 
L 423.066461 315.597219 
L 419.057483 312.123419 
L 414.836254 308.910879 
L 410.419772 305.972533 
L 405.82582 303.320214 
L 401.072897 300.964601 
L 396.180141 298.91518 
L 391.167253 297.180203 
L 386.054419 295.766655 
L 380.862226 294.68023 
L 375.611581 293.925301 
L 370.323626 293.504909 
L 365.019656 293.420746 
L 359.721025 293.67315 
L 354.449072 294.261107 
L 349.225022 295.182248 
L 344.069913 296.432864 
L 339.004502 298.007919 
L 334.049185 299.901071 
L 329.223916 302.104698 
L 324.548125 304.609925 
L 320.040639 307.406666 
L 315.719608 310.483658 
L 311.602431 313.828512 
L 307.705688 317.427759 
L 304.045068 321.266907 
L 300.635312 325.330496 
L 297.49015 329.602163 
L 294.622246 334.064709 
L 292.043148 338.700164 
L 289.763241 343.489863 
L 287.791706 348.414519 
L 286.136482 353.454303 
L 284.804232 358.588921 
L 283.800323 363.797698 
L 283.128796 369.05966 
L 282.792355 374.353618 
L 282.792355 379.658257 
L 283.128796 384.952215 
L 283.800323 390.214177 
L 284.804232 395.422954 
L 286.136482 400.557572 
L 287.791706 405.597356 
L 289.763241 410.522012 
L 292.043148 415.311711 
L 294.622246 419.947166 
L 297.49015 424.409712 
L 300.635312 428.681379 
L 304.045068 432.744968 
L 307.705688 436.584116 
L 311.602431 440.183363 
L 315.719608 443.528217 
L 320.040639 446.605209 
L 324.548125 449.40195 
L 329.223916 451.907177 
L 334.049185 454.110804 
L 339.004502 456.003956 
L 344.069913 457.579011 
L 349.225022 458.829627 
L 354.449072 459.750768 
L 359.721025 460.338725 
L 365.019656 460.591129 
L 370.323626 460.506966 
L 375.611581 460.086574 
L 380.862226 459.331645 
L 386.054419 458.24522 
L 391.167253 456.831672 
L 396.180141 455.096695 
L 401.072897 453.047274 
L 405.82582 450.691661 
L 410.419772 448.039342 
L 414.836254 445.100996 
L 419.057483 441.888456 
L 423.066461 438.414656 
L 426.847046 434.693585 
L 430.384015 430.740227 
L 433.663125 426.570499 
L 436.671172 422.201193 
L 439.396045 417.649901 
L 441.826771 412.93495 
L 443.953563 408.075326 
L 445.767856 403.090596 
L 447.262345 398.000833 
L 448.431013 392.82653 
L 449.269153 387.588524 
L 449.773391 382.307905 
L 449.941696 377.005937 
" clip-path="url(#p357ab249b3)" style="fill: none; stroke: #e8e5e1; stroke-opacity: 0.7; stroke-width: 0.5; stroke-linecap: round"/>
   </g>
   <g id="line2d_3">
    <path d="M 533.537411 377.005937 
L 533.2008 366.402002 
L 532.192324 355.840764 
L 530.516044 345.364752 
L 528.178708 335.016147 
L 525.18973 324.83662 
L 521.561143 314.867161 
L 517.30756 305.147912 
L 512.446108 295.718011 
L 506.996362 286.615427 
L 500.980267 277.876814 
L 494.422047 269.537359 
L 487.34811 261.630642 
L 479.78694 254.1885 
L 471.768983 247.240901 
L 463.326526 240.81582 
L 454.493561 234.939129 
L 445.305658 229.63449 
L 435.799812 224.923265 
L 426.014299 220.824422 
L 415.988524 217.354468 
L 405.762855 214.527373 
L 395.378469 212.354522 
L 384.877179 210.844665 
L 374.301271 210.00388 
L 363.693329 209.835554 
L 353.096069 210.340363 
L 342.552161 211.516277 
L 332.104063 213.358558 
L 321.793845 215.85979 
L 311.663022 219.009901 
L 301.752389 222.796205 
L 292.101851 227.203458 
L 282.750268 232.213913 
L 273.735295 237.807394 
L 265.093233 243.961379 
L 256.858881 250.651087 
L 249.065394 257.849581 
L 241.744154 265.527876 
L 234.924642 273.655054 
L 228.634318 282.198389 
L 222.89851 291.123481 
L 217.740314 300.394391 
L 213.1805 309.973789 
L 209.23743 319.823101 
L 205.926981 329.902669 
L 203.262483 340.171905 
L 201.254664 350.589458 
L 199.911609 361.113382 
L 199.238727 371.701299 
L 199.238727 382.310576 
L 199.911609 392.898493 
L 201.254664 403.422417 
L 203.262483 413.83997 
L 205.926981 424.109206 
L 209.23743 434.188774 
L 213.1805 444.038086 
L 217.740314 453.617484 
L 222.89851 462.888394 
L 228.634318 471.813486 
L 234.924642 480.356821 
L 241.744154 488.483999 
L 249.065394 496.162294 
L 256.858881 503.360788 
L 265.093233 510.050496 
L 273.735295 516.204481 
L 282.750268 521.797962 
L 292.101851 526.808417 
L 301.752389 531.21567 
L 311.663022 535.001974 
L 321.793845 538.152085 
L 332.104063 540.653317 
L 342.552161 542.495598 
L 353.096069 543.671512 
L 363.693329 544.176321 
L 374.301271 544.007995 
L 384.877179 543.16721 
L 395.378469 541.657353 
L 405.762855 539.484502 
L 415.988524 536.657407 
L 426.014299 533.187453 
L 435.799812 529.08861 
L 445.305658 524.377385 
L 454.493561 519.072746 
L 463.326526 513.196055 
L 471.768983 506.770974 
L 479.78694 499.823375 
L 487.34811 492.381233 
L 494.422047 484.474516 
L 500.980267 476.135061 
L 506.996362 467.396448 
L 512.446108 458.293864 
L 517.30756 448.863963 
L 521.561143 439.144714 
L 525.18973 429.175255 
L 528.178708 418.995728 
L 530.516044 408.647123 
L 532.192324 398.171111 
L 533.2008 387.609873 
L 533.537411 377.005937 
" clip-path="url(#p357ab249b3)" style="fill: none; stroke: #e8e5e1; stroke-opacity: 0.7; stroke-width: 0.5; stroke-linecap: round"/>
   </g>
   <g id="line2d_4">
    <path d="M 617.133125 377.005937 
L 616.628209 361.100034 
L 615.115495 345.258178 
L 612.601075 329.544159 
L 609.095071 314.021251 
L 604.611603 298.751961 
L 599.168724 283.797772 
L 592.788349 269.218899 
L 585.496171 255.074047 
L 577.321552 241.420172 
L 568.297409 228.312252 
L 558.460079 215.803069 
L 547.849174 203.942994 
L 536.507419 192.779782 
L 524.480484 182.358383 
L 511.816797 172.720762 
L 498.567351 163.905725 
L 484.785496 155.948767 
L 470.526726 148.881928 
L 455.848458 142.733665 
L 440.809795 137.528733 
L 425.471292 133.288091 
L 409.894712 130.028815 
L 394.142778 127.764029 
L 378.278915 126.502851 
L 362.367002 126.250362 
L 346.471112 127.007576 
L 330.65525 128.771446 
L 314.983103 131.534869 
L 299.517776 135.286716 
L 284.321542 140.011882 
L 269.455592 145.691339 
L 254.979785 152.302219 
L 240.952411 159.817901 
L 227.429952 168.208122 
L 214.466859 177.439099 
L 202.11533 187.473661 
L 190.425099 198.271403 
L 179.44324 209.788845 
L 169.213972 221.979612 
L 159.778486 234.794614 
L 151.174773 248.182252 
L 143.43748 262.088617 
L 136.59776 276.457714 
L 130.683155 291.231683 
L 125.717481 306.351035 
L 121.720733 321.754888 
L 118.709005 337.381219 
L 116.694423 353.167104 
L 115.6851 369.04898 
L 115.6851 384.962895 
L 116.694423 400.844771 
L 118.709005 416.630656 
L 121.720733 432.256987 
L 125.717481 447.66084 
L 130.683155 462.780192 
L 136.59776 477.554161 
L 143.43748 491.923258 
L 151.174773 505.829623 
L 159.778486 519.217261 
L 169.213972 532.032263 
L 179.44324 544.22303 
L 190.425099 555.740472 
L 202.11533 566.538214 
L 214.466859 576.572776 
L 227.429952 585.803753 
L 240.952411 594.193974 
L 254.979785 601.709656 
L 269.455592 608.320536 
L 284.321542 613.999993 
L 299.517776 618.725159 
L 314.983103 622.477006 
L 330.65525 625.240429 
L 346.471112 627.004299 
L 362.367002 627.761513 
L 378.278915 627.509024 
L 394.142778 626.247846 
L 409.894712 623.98306 
L 425.471292 620.723784 
L 440.809795 616.483142 
L 455.848458 611.27821 
L 470.526726 605.129947 
L 484.785496 598.063108 
L 498.567351 590.10615 
L 511.816797 581.291113 
L 524.480484 571.653492 
L 536.507419 561.232093 
L 547.849174 550.068881 
L 558.460079 538.208806 
L 568.297409 525.699623 
L 577.321552 512.591703 
L 585.496171 498.937828 
L 592.788349 484.792976 
L 599.168724 470.214103 
L 604.611603 455.259914 
L 609.095071 439.990624 
L 612.601075 424.467716 
L 615.115495 408.753697 
L 616.628209 392.911841 
L 617.133125 377.005937 
" clip-path="url(#p357ab249b3)" style="fill: none; stroke: #e8e5e1; stroke-opacity: 0.7; stroke-width: 0.5; stroke-linecap: round"/>
   </g>
   <g id="line2d_5">
    <path d="M 366.345982 377.005937 
L 644.610853 467.419675 
" clip-path="url(#p357ab249b3)" style="fill: none; stroke: #e8e5e1; stroke-opacity: 0.7; stroke-width: 0.5; stroke-linecap: round"/>
   </g>
   <g id="line2d_6">
    <path d="M 366.345982 377.005937 
L 644.610853 286.5922 
" clip-path="url(#p357ab249b3)" style="fill: none; stroke: #e8e5e1; stroke-opacity: 0.7; stroke-width: 0.5; stroke-linecap: round"/>
   </g>
   <g id="line2d_7">
    <path d="M 366.345982 377.005937 
L 538.32313 140.2997 
" clip-path="url(#p357ab249b3)" style="fill: none; stroke: #e8e5e1; stroke-opacity: 0.7; stroke-width: 0.5; stroke-linecap: round"/>
   </g>
   <g id="line2d_8">
    <path d="M 366.345982 377.005937 
L 366.345982 84.420937 
" clip-path="url(#p357ab249b3)" style="fill: none; stroke: #e8e5e1; stroke-opacity: 0.7; stroke-width: 0.5; stroke-linecap: round"/>
   </g>
   <g id="line2d_9">
    <path d="M 366.345982 377.005937 
L 194.368834 140.2997 
" clip-path="url(#p357ab249b3)" style="fill: none; stroke: #e8e5e1; stroke-opacity: 0.7; stroke-width: 0.5; stroke-linecap: round"/>
   </g>
   <g id="line2d_10">
    <path d="M 366.345982 377.005937 
L 88.081111 286.5922 
" clip-path="url(#p357ab249b3)" style="fill: none; stroke: #e8e5e1; stroke-opacity: 0.7; stroke-width: 0.5; stroke-linecap: round"/>
   </g>
   <g id="line2d_11">
    <path d="M 366.345982 377.005937 
L 88.081111 467.419675 
" clip-path="url(#p357ab249b3)" style="fill: none; stroke: #e8e5e1; stroke-opacity: 0.7; stroke-width: 0.5; stroke-linecap: round"/>
   </g>
   <g id="line2d_12">
    <path d="M 366.345982 377.005937 
L 194.368834 613.712175 
" clip-path="url(#p357ab249b3)" style="fill: none; stroke: #e8e5e1; stroke-opacity: 0.7; stroke-width: 0.5; stroke-linecap: round"/>
   </g>
   <g id="line2d_13">
    <path d="M 366.345982 377.005937 
L 366.345982 669.590937 
" clip-path="url(#p357ab249b3)" style="fill: none; stroke: #e8e5e1; stroke-opacity: 0.7; stroke-width: 0.5; stroke-linecap: round"/>
   </g>
   <g id="line2d_14">
    <path d="M 366.345982 377.005937 
L 538.32313 613.712175 
" clip-path="url(#p357ab249b3)" style="fill: none; stroke: #e8e5e1; stroke-opacity: 0.7; stroke-width: 0.5; stroke-linecap: round"/>
   </g>
   <g id="text_11">
    <g id="patch_33">
     <path d="M 447.439275 382.921328 
L 452.444118 382.921328 
Q 454.244118 382.921328 454.244118 381.121328 
L 454.244118 372.890547 
Q 454.244118 371.090547 452.444118 371.090547 
L 447.439275 371.090547 
Q 445.639275 371.090547 445.639275 372.890547 
L 445.639275 381.121328 
Q 445.639275 382.921328 447.439275 382.921328 
z
" style="fill: #ffffff; opacity: 0.8"/>
    </g>
    <!-- 1 -->
    <g style="fill: #787470" transform="translate(447.439275 379.332578) scale(0.09 -0.09)">
     <defs>
      <path id="ArialMT-31" d="M 2384 0 
L 1822 0 
L 1822 3584 
Q 1619 3391 1289 3197 
Q 959 3003 697 2906 
L 697 3450 
Q 1169 3672 1522 3987 
Q 1875 4303 2022 4600 
L 2384 4600 
L 2384 0 
z
" transform="scale(0.015625)"/>
     </defs>
     <use xlink:href="#ArialMT-31"/>
    </g>
   </g>
   <g id="text_12">
    <g id="patch_34">
     <path d="M 531.034989 382.921328 
L 536.039833 382.921328 
Q 537.839833 382.921328 537.839833 381.121328 
L 537.839833 372.890547 
Q 537.839833 371.090547 536.039833 371.090547 
L 531.034989 371.090547 
Q 529.234989 371.090547 529.234989 372.890547 
L 529.234989 381.121328 
Q 529.234989 382.921328 531.034989 382.921328 
z
" style="fill: #ffffff; opacity: 0.8"/>
    </g>
    <!-- 2 -->
    <g style="fill: #787470" transform="translate(531.034989 379.332578) scale(0.09 -0.09)">
     <defs>
      <path id="ArialMT-32" d="M 3222 541 
L 3222 0 
L 194 0 
Q 188 203 259 391 
Q 375 700 629 1000 
Q 884 1300 1366 1694 
Q 2113 2306 2375 2664 
Q 2638 3022 2638 3341 
Q 2638 3675 2398 3904 
Q 2159 4134 1775 4134 
Q 1369 4134 1125 3890 
Q 881 3647 878 3216 
L 300 3275 
Q 359 3922 746 4261 
Q 1134 4600 1788 4600 
Q 2447 4600 2831 4234 
Q 3216 3869 3216 3328 
Q 3216 3053 3103 2787 
Q 2991 2522 2730 2228 
Q 2469 1934 1863 1422 
Q 1356 997 1212 845 
Q 1069 694 975 541 
L 3222 541 
z
" transform="scale(0.015625)"/>
     </defs>
     <use xlink:href="#ArialMT-32"/>
    </g>
   </g>
   <g id="text_13">
    <g id="patch_35">
     <path d="M 614.630703 382.921328 
L 619.635547 382.921328 
Q 621.435547 382.921328 621.435547 381.121328 
L 621.435547 372.890547 
Q 621.435547 371.090547 619.635547 371.090547 
L 614.630703 371.090547 
Q 612.830703 371.090547 612.830703 372.890547 
L 612.830703 381.121328 
Q 612.830703 382.921328 614.630703 382.921328 
z
" style="fill: #ffffff; opacity: 0.8"/>
    </g>
    <!-- 3 -->
    <g style="fill: #787470" transform="translate(614.630703 379.332578) scale(0.09 -0.09)">
     <defs>
      <path id="ArialMT-33" d="M 269 1209 
L 831 1284 
Q 928 806 1161 595 
Q 1394 384 1728 384 
Q 2125 384 2398 659 
Q 2672 934 2672 1341 
Q 2672 1728 2419 1979 
Q 2166 2231 1775 2231 
Q 1616 2231 1378 2169 
L 1441 2663 
Q 1497 2656 1531 2656 
Q 1891 2656 2178 2843 
Q 2466 3031 2466 3422 
Q 2466 3731 2256 3934 
Q 2047 4138 1716 4138 
Q 1388 4138 1169 3931 
Q 950 3725 888 3313 
L 325 3413 
Q 428 3978 793 4289 
Q 1159 4600 1703 4600 
Q 2078 4600 2393 4439 
Q 2709 4278 2876 4000 
Q 3044 3722 3044 3409 
Q 3044 3113 2884 2869 
Q 2725 2625 2413 2481 
Q 2819 2388 3044 2092 
Q 3269 1797 3269 1353 
Q 3269 753 2831 336 
Q 2394 -81 1725 -81 
Q 1122 -81 723 278 
Q 325 638 269 1209 
z
" transform="scale(0.015625)"/>
     </defs>
     <use xlink:href="#ArialMT-33"/>
    </g>
   </g>
   <g id="text_14">
    <g id="patch_36">
     <path d="M 685.390089 383.064062 
L 716.067589 383.064062 
Q 718.467589 383.064062 718.467589 380.664062 
L 718.467589 373.347812 
Q 718.467589 370.947812 716.067589 370.947812 
L 685.390089 370.947812 
Q 682.990089 370.947812 682.990089 373.347812 
L 682.990089 380.664062 
Q 682.990089 383.064062 685.390089 383.064062 
z
" style="fill: #e8e5e1; opacity: 0.9; stroke: #d8d4cf; stroke-linejoin: miter"/>
    </g>
    <!-- Max: 3.0 -->
    <g style="fill: #4a4a5a" transform="translate(685.390089 379.074062) scale(0.08 -0.08)">
     <defs>
      <path id="ArialMT-4d" d="M 475 0 
L 475 4581 
L 1388 4581 
L 2472 1338 
Q 2622 884 2691 659 
Q 2769 909 2934 1394 
L 4031 4581 
L 4847 4581 
L 4847 0 
L 4263 0 
L 4263 3834 
L 2931 0 
L 2384 0 
L 1059 3900 
L 1059 0 
L 475 0 
z
" transform="scale(0.015625)"/>
      <path id="ArialMT-78" d="M 47 0 
L 1259 1725 
L 138 3319 
L 841 3319 
L 1350 2541 
Q 1494 2319 1581 2169 
Q 1719 2375 1834 2534 
L 2394 3319 
L 3066 3319 
L 1919 1756 
L 3153 0 
L 2463 0 
L 1781 1031 
L 1600 1309 
L 728 0 
L 47 0 
z
" transform="scale(0.015625)"/>
      <path id="ArialMT-3a" d="M 578 2678 
L 578 3319 
L 1219 3319 
L 1219 2678 
L 578 2678 
z
M 578 0 
L 578 641 
L 1219 641 
L 1219 0 
L 578 0 
z
" transform="scale(0.015625)"/>
      <path id="ArialMT-2e" d="M 581 0 
L 581 641 
L 1222 641 
L 1222 0 
L 581 0 
z
" transform="scale(0.015625)"/>
      <path id="ArialMT-30" d="M 266 2259 
Q 266 3072 433 3567 
Q 600 4063 929 4331 
Q 1259 4600 1759 4600 
Q 2128 4600 2406 4451 
Q 2684 4303 2865 4023 
Q 3047 3744 3150 3342 
Q 3253 2941 3253 2259 
Q 3253 1453 3087 958 
Q 2922 463 2592 192 
Q 2263 -78 1759 -78 
Q 1097 -78 719 397 
Q 266 969 266 2259 
z
M 844 2259 
Q 844 1131 1108 757 
Q 1372 384 1759 384 
Q 2147 384 2411 759 
Q 2675 1134 2675 2259 
Q 2675 3391 2411 3762 
Q 2147 4134 1753 4134 
Q 1366 4134 1134 3806 
Q 844 3388 844 2259 
z
" transform="scale(0.015625)"/>
     </defs>
     <use xlink:href="#ArialMT-4d"/>
     <use xlink:href="#ArialMT-61" x="83.300781"/>
     <use xlink:href="#ArialMT-78" x="138.916016"/>
     <use xlink:href="#ArialMT-3a" x="188.916016"/>
     <use xlink:href="#ArialMT-20" x="216.699219"/>
     <use xlink:href="#ArialMT-33" x="244.482422"/>
     <use xlink:href="#ArialMT-2e" x="300.097656"/>
     <use xlink:href="#ArialMT-30" x="327.880859"/>
    </g>
   </g>
   <g id="text_15">
    <g id="patch_37">
     <path d="M 621.528646 186.51875 
L 652.206146 186.51875 
Q 654.606146 186.51875 654.606146 184.11875 
L 654.606146 176.8025 
Q 654.606146 174.4025 652.206146 174.4025 
L 621.528646 174.4025 
Q 619.128646 174.4025 619.128646 176.8025 
L 619.128646 184.11875 
Q 619.128646 186.51875 621.528646 186.51875 
z
" style="fill: #e8e5e1; opacity: 0.9; stroke: #d8d4cf; stroke-linejoin: miter"/>
    </g>
    <!-- Max: 2.0 -->
    <g style="fill: #4a4a5a" transform="translate(621.528646 182.52875) scale(0.08 -0.08)">
     <use xlink:href="#ArialMT-4d"/>
     <use xlink:href="#ArialMT-61" x="83.300781"/>
     <use xlink:href="#ArialMT-78" x="138.916016"/>
     <use xlink:href="#ArialMT-3a" x="188.916016"/>
     <use xlink:href="#ArialMT-20" x="216.699219"/>
     <use xlink:href="#ArialMT-32" x="244.482422"/>
     <use xlink:href="#ArialMT-2e" x="300.097656"/>
     <use xlink:href="#ArialMT-30" x="327.880859"/>
    </g>
   </g>
   <g id="text_16">
    <g id="patch_38">
     <path d="M 454.337218 65.047067 
L 485.014718 65.047067 
Q 487.414718 65.047067 487.414718 62.647067 
L 487.414718 55.330817 
Q 487.414718 52.930817 485.014718 52.930817 
L 454.337218 52.930817 
Q 451.937218 52.930817 451.937218 55.330817 
L 451.937218 62.647067 
Q 451.937218 65.047067 454.337218 65.047067 
z
" style="fill: #e8e5e1; opacity: 0.9; stroke: #d8d4cf; stroke-linejoin: miter"/>
    </g>
    <!-- Max: 2.0 -->
    <g style="fill: #4a4a5a" transform="translate(454.337218 61.057067) scale(0.08 -0.08)">
     <use xlink:href="#ArialMT-4d"/>
     <use xlink:href="#ArialMT-61" x="83.300781"/>
     <use xlink:href="#ArialMT-78" x="138.916016"/>
     <use xlink:href="#ArialMT-3a" x="188.916016"/>
     <use xlink:href="#ArialMT-20" x="216.699219"/>
     <use xlink:href="#ArialMT-32" x="244.482422"/>
     <use xlink:href="#ArialMT-2e" x="300.097656"/>
     <use xlink:href="#ArialMT-30" x="327.880859"/>
    </g>
   </g>
   <g id="text_17">
    <g id="patch_39">
     <path d="M 245.452872 65.047067 
L 280.579122 65.047067 
Q 282.979122 65.047067 282.979122 62.647067 
L 282.979122 55.330817 
Q 282.979122 52.930817 280.579122 52.930817 
L 245.452872 52.930817 
Q 243.052872 52.930817 243.052872 55.330817 
L 243.052872 62.647067 
Q 243.052872 65.047067 245.452872 65.047067 
z
" style="fill: #e8e5e1; opacity: 0.9; stroke: #d8d4cf; stroke-linejoin: miter"/>
    </g>
    <!-- Max: 0.00 -->
    <g style="fill: #4a4a5a" transform="translate(245.452872 61.057067) scale(0.08 -0.08)">
     <use xlink:href="#ArialMT-4d"/>
     <use xlink:href="#ArialMT-61" x="83.300781"/>
     <use xlink:href="#ArialMT-78" x="138.916016"/>
     <use xlink:href="#ArialMT-3a" x="188.916016"/>
     <use xlink:href="#ArialMT-20" x="216.699219"/>
     <use xlink:href="#ArialMT-30" x="244.482422"/>
     <use xlink:href="#ArialMT-2e" x="300.097656"/>
     <use xlink:href="#ArialMT-30" x="327.880859"/>
     <use xlink:href="#ArialMT-30" x="383.496094"/>
    </g>
   </g>
   <g id="text_18">
    <g id="patch_40">
     <path d="M 80.485818 186.51875 
L 111.163318 186.51875 
Q 113.563318 186.51875 113.563318 184.11875 
L 113.563318 176.8025 
Q 113.563318 174.4025 111.163318 174.4025 
L 80.485818 174.4025 
Q 78.085818 174.4025 78.085818 176.8025 
L 78.085818 184.11875 
Q 78.085818 186.51875 80.485818 186.51875 
z
" style="fill: #e8e5e1; opacity: 0.9; stroke: #d8d4cf; stroke-linejoin: miter"/>
    </g>
    <!-- Max: 1.0 -->
    <g style="fill: #4a4a5a" transform="translate(80.485818 182.52875) scale(0.08 -0.08)">
     <use xlink:href="#ArialMT-4d"/>
     <use xlink:href="#ArialMT-61" x="83.300781"/>
     <use xlink:href="#ArialMT-78" x="138.916016"/>
     <use xlink:href="#ArialMT-3a" x="188.916016"/>
     <use xlink:href="#ArialMT-20" x="216.699219"/>
     <use xlink:href="#ArialMT-31" x="244.482422"/>
     <use xlink:href="#ArialMT-2e" x="300.097656"/>
     <use xlink:href="#ArialMT-30" x="327.880859"/>
    </g>
   </g>
   <g id="text_19">
    <g id="patch_41">
     <path d="M 14.4 383.064062 
L 49.52625 383.064062 
Q 51.92625 383.064062 51.92625 380.664062 
L 51.92625 373.347812 
Q 51.92625 370.947812 49.52625 370.947812 
L 14.4 370.947812 
Q 12 370.947812 12 373.347812 
L 12 380.664062 
Q 12 383.064062 14.4 383.064062 
z
" style="fill: #e8e5e1; opacity: 0.9; stroke: #d8d4cf; stroke-linejoin: miter"/>
    </g>
    <!-- Max: 0.00 -->
    <g style="fill: #4a4a5a" transform="translate(14.4 379.074062) scale(0.08 -0.08)">
     <use xlink:href="#ArialMT-4d"/>
     <use xlink:href="#ArialMT-61" x="83.300781"/>
     <use xlink:href="#ArialMT-78" x="138.916016"/>
     <use xlink:href="#ArialMT-3a" x="188.916016"/>
     <use xlink:href="#ArialMT-20" x="216.699219"/>
     <use xlink:href="#ArialMT-30" x="244.482422"/>
     <use xlink:href="#ArialMT-2e" x="300.097656"/>
     <use xlink:href="#ArialMT-30" x="327.880859"/>
     <use xlink:href="#ArialMT-30" x="383.496094"/>
    </g>
   </g>
   <g id="text_20">
    <g id="patch_42">
     <path d="M 80.485818 579.609375 
L 111.163318 579.609375 
Q 113.563318 579.609375 113.563318 577.209375 
L 113.563318 569.893125 
Q 113.563318 567.493125 111.163318 567.493125 
L 80.485818 567.493125 
Q 78.085818 567.493125 78.085818 569.893125 
L 78.085818 577.209375 
Q 78.085818 579.609375 80.485818 579.609375 
z
" style="fill: #e8e5e1; opacity: 0.9; stroke: #d8d4cf; stroke-linejoin: miter"/>
    </g>
    <!-- Max: 2.0 -->
    <g style="fill: #4a4a5a" transform="translate(80.485818 575.619375) scale(0.08 -0.08)">
     <use xlink:href="#ArialMT-4d"/>
     <use xlink:href="#ArialMT-61" x="83.300781"/>
     <use xlink:href="#ArialMT-78" x="138.916016"/>
     <use xlink:href="#ArialMT-3a" x="188.916016"/>
     <use xlink:href="#ArialMT-20" x="216.699219"/>
     <use xlink:href="#ArialMT-32" x="244.482422"/>
     <use xlink:href="#ArialMT-2e" x="300.097656"/>
     <use xlink:href="#ArialMT-30" x="327.880859"/>
    </g>
   </g>
   <g id="text_21">
    <g id="patch_43">
     <path d="M 247.677247 701.081058 
L 278.354747 701.081058 
Q 280.754747 701.081058 280.754747 698.681058 
L 280.754747 691.364808 
Q 280.754747 688.964808 278.354747 688.964808 
L 247.677247 688.964808 
Q 245.277247 688.964808 245.277247 691.364808 
L 245.277247 698.681058 
Q 245.277247 701.081058 247.677247 701.081058 
z
" style="fill: #e8e5e1; opacity: 0.9; stroke: #d8d4cf; stroke-linejoin: miter"/>
    </g>
    <!-- Max: 2.0 -->
    <g style="fill: #4a4a5a" transform="translate(247.677247 697.091058) scale(0.08 -0.08)">
     <use xlink:href="#ArialMT-4d"/>
     <use xlink:href="#ArialMT-61" x="83.300781"/>
     <use xlink:href="#ArialMT-78" x="138.916016"/>
     <use xlink:href="#ArialMT-3a" x="188.916016"/>
     <use xlink:href="#ArialMT-20" x="216.699219"/>
     <use xlink:href="#ArialMT-32" x="244.482422"/>
     <use xlink:href="#ArialMT-2e" x="300.097656"/>
     <use xlink:href="#ArialMT-30" x="327.880859"/>
    </g>
   </g>
   <g id="text_22">
    <g id="patch_44">
     <path d="M 452.112843 701.081058 
L 487.239093 701.081058 
Q 489.639093 701.081058 489.639093 698.681058 
L 489.639093 691.364808 
Q 489.639093 688.964808 487.239093 688.964808 
L 452.112843 688.964808 
Q 449.712843 688.964808 449.712843 691.364808 
L 449.712843 698.681058 
Q 449.712843 701.081058 452.112843 701.081058 
z
" style="fill: #e8e5e1; opacity: 0.9; stroke: #d8d4cf; stroke-linejoin: miter"/>
    </g>
    <!-- Max: 0.00 -->
    <g style="fill: #4a4a5a" transform="translate(452.112843 697.091058) scale(0.08 -0.08)">
     <use xlink:href="#ArialMT-4d"/>
     <use xlink:href="#ArialMT-61" x="83.300781"/>
     <use xlink:href="#ArialMT-78" x="138.916016"/>
     <use xlink:href="#ArialMT-3a" x="188.916016"/>
     <use xlink:href="#ArialMT-20" x="216.699219"/>
     <use xlink:href="#ArialMT-30" x="244.482422"/>
     <use xlink:href="#ArialMT-2e" x="300.097656"/>
     <use xlink:href="#ArialMT-30" x="327.880859"/>
     <use xlink:href="#ArialMT-30" x="383.496094"/>
    </g>
   </g>
   <g id="text_23">
    <g id="patch_45">
     <path d="M 619.304271 579.609375 
L 654.430521 579.609375 
Q 656.830521 579.609375 656.830521 577.209375 
L 656.830521 569.893125 
Q 656.830521 567.493125 654.430521 567.493125 
L 619.304271 567.493125 
Q 616.904271 567.493125 616.904271 569.893125 
L 616.904271 577.209375 
Q 616.904271 579.609375 619.304271 579.609375 
z
" style="fill: #e8e5e1; opacity: 0.9; stroke: #d8d4cf; stroke-linejoin: miter"/>
    </g>
    <!-- Max: 0.00 -->
    <g style="fill: #4a4a5a" transform="translate(619.304271 575.619375) scale(0.08 -0.08)">
     <use xlink:href="#ArialMT-4d"/>
     <use xlink:href="#ArialMT-61" x="83.300781"/>
     <use xlink:href="#ArialMT-78" x="138.916016"/>
     <use xlink:href="#ArialMT-3a" x="188.916016"/>
     <use xlink:href="#ArialMT-20" x="216.699219"/>
     <use xlink:href="#ArialMT-30" x="244.482422"/>
     <use xlink:href="#ArialMT-2e" x="300.097656"/>
     <use xlink:href="#ArialMT-30" x="327.880859"/>
     <use xlink:href="#ArialMT-30" x="383.496094"/>
    </g>
   </g>
   <g id="text_24">
    <!-- Zebrafish - Simulation Characteristics -->
    <g style="fill: #3a3a48" transform="translate(240.319732 24.420937) scale(0.14 -0.14)">
     <defs>
      <path id="Arial-BoldMT-5a" d="M 69 0 
L 69 834 
L 2475 3806 
L 341 3806 
L 341 4581 
L 3694 4581 
L 3694 3863 
L 1184 772 
L 3791 772 
L 3791 0 
L 69 0 
z
" transform="scale(0.015625)"/>
      <path id="Arial-BoldMT-65" d="M 2381 1056 
L 3256 909 
Q 3088 428 2723 176 
Q 2359 -75 1813 -75 
Q 947 -75 531 491 
Q 203 944 203 1634 
Q 203 2459 634 2926 
Q 1066 3394 1725 3394 
Q 2466 3394 2894 2905 
Q 3322 2416 3303 1406 
L 1103 1406 
Q 1113 1016 1316 798 
Q 1519 581 1822 581 
Q 2028 581 2168 693 
Q 2309 806 2381 1056 
z
M 2431 1944 
Q 2422 2325 2234 2523 
Q 2047 2722 1778 2722 
Q 1491 2722 1303 2513 
Q 1116 2303 1119 1944 
L 2431 1944 
z
" transform="scale(0.015625)"/>
      <path id="Arial-BoldMT-62" d="M 422 0 
L 422 4581 
L 1300 4581 
L 1300 2931 
Q 1706 3394 2263 3394 
Q 2869 3394 3266 2955 
Q 3663 2516 3663 1694 
Q 3663 844 3258 384 
Q 2853 -75 2275 -75 
Q 1991 -75 1714 67 
Q 1438 209 1238 488 
L 1238 0 
L 422 0 
z
M 1294 1731 
Q 1294 1216 1456 969 
Q 1684 619 2063 619 
Q 2353 619 2558 867 
Q 2763 1116 2763 1650 
Q 2763 2219 2556 2470 
Q 2350 2722 2028 2722 
Q 1713 2722 1503 2476 
Q 1294 2231 1294 1731 
z
" transform="scale(0.015625)"/>
      <path id="Arial-BoldMT-72" d="M 1300 0 
L 422 0 
L 422 3319 
L 1238 3319 
L 1238 2847 
Q 1447 3181 1614 3287 
Q 1781 3394 1994 3394 
Q 2294 3394 2572 3228 
L 2300 2463 
Q 2078 2606 1888 2606 
Q 1703 2606 1575 2504 
Q 1447 2403 1373 2137 
Q 1300 1872 1300 1025 
L 1300 0 
z
" transform="scale(0.015625)"/>
      <path id="Arial-BoldMT-61" d="M 1116 2306 
L 319 2450 
Q 453 2931 781 3162 
Q 1109 3394 1756 3394 
Q 2344 3394 2631 3255 
Q 2919 3116 3036 2902 
Q 3153 2688 3153 2116 
L 3144 1091 
Q 3144 653 3186 445 
Q 3228 238 3344 0 
L 2475 0 
Q 2441 88 2391 259 
Q 2369 338 2359 363 
Q 2134 144 1878 34 
Q 1622 -75 1331 -75 
Q 819 -75 523 203 
Q 228 481 228 906 
Q 228 1188 362 1408 
Q 497 1628 739 1745 
Q 981 1863 1438 1950 
Q 2053 2066 2291 2166 
L 2291 2253 
Q 2291 2506 2166 2614 
Q 2041 2722 1694 2722 
Q 1459 2722 1328 2630 
Q 1197 2538 1116 2306 
z
M 2291 1594 
Q 2122 1538 1756 1459 
Q 1391 1381 1278 1306 
Q 1106 1184 1106 997 
Q 1106 813 1243 678 
Q 1381 544 1594 544 
Q 1831 544 2047 700 
Q 2206 819 2256 991 
Q 2291 1103 2291 1419 
L 2291 1594 
z
" transform="scale(0.015625)"/>
      <path id="Arial-BoldMT-66" d="M 75 3319 
L 563 3319 
L 563 3569 
Q 563 3988 652 4194 
Q 741 4400 980 4529 
Q 1219 4659 1584 4659 
Q 1959 4659 2319 4547 
L 2200 3934 
Q 1991 3984 1797 3984 
Q 1606 3984 1523 3895 
Q 1441 3806 1441 3553 
L 1441 3319 
L 2097 3319 
L 2097 2628 
L 1441 2628 
L 1441 0 
L 563 0 
L 563 2628 
L 75 2628 
L 75 3319 
z
" transform="scale(0.015625)"/>
      <path id="Arial-BoldMT-69" d="M 459 3769 
L 459 4581 
L 1338 4581 
L 1338 3769 
L 459 3769 
z
M 459 0 
L 459 3319 
L 1338 3319 
L 1338 0 
L 459 0 
z
" transform="scale(0.015625)"/>
      <path id="Arial-BoldMT-73" d="M 150 947 
L 1031 1081 
Q 1088 825 1259 692 
Q 1431 559 1741 559 
Q 2081 559 2253 684 
Q 2369 772 2369 919 
Q 2369 1019 2306 1084 
Q 2241 1147 2013 1200 
Q 950 1434 666 1628 
Q 272 1897 272 2375 
Q 272 2806 612 3100 
Q 953 3394 1669 3394 
Q 2350 3394 2681 3172 
Q 3013 2950 3138 2516 
L 2309 2363 
Q 2256 2556 2107 2659 
Q 1959 2763 1684 2763 
Q 1338 2763 1188 2666 
Q 1088 2597 1088 2488 
Q 1088 2394 1175 2328 
Q 1294 2241 1995 2081 
Q 2697 1922 2975 1691 
Q 3250 1456 3250 1038 
Q 3250 581 2869 253 
Q 2488 -75 1741 -75 
Q 1063 -75 667 200 
Q 272 475 150 947 
z
" transform="scale(0.015625)"/>
      <path id="Arial-BoldMT-68" d="M 1334 4581 
L 1334 2897 
Q 1759 3394 2350 3394 
Q 2653 3394 2897 3281 
Q 3141 3169 3264 2994 
Q 3388 2819 3433 2606 
Q 3478 2394 3478 1947 
L 3478 0 
L 2600 0 
L 2600 1753 
Q 2600 2275 2550 2415 
Q 2500 2556 2373 2639 
Q 2247 2722 2056 2722 
Q 1838 2722 1666 2615 
Q 1494 2509 1414 2295 
Q 1334 2081 1334 1663 
L 1334 0 
L 456 0 
L 456 4581 
L 1334 4581 
z
" transform="scale(0.015625)"/>
      <path id="Arial-BoldMT-20" transform="scale(0.015625)"/>
      <path id="Arial-BoldMT-2d" d="M 359 1222 
L 359 2100 
L 2084 2100 
L 2084 1222 
L 359 1222 
z
" transform="scale(0.015625)"/>
      <path id="Arial-BoldMT-53" d="M 231 1491 
L 1131 1578 
Q 1213 1125 1461 912 
Q 1709 700 2131 700 
Q 2578 700 2804 889 
Q 3031 1078 3031 1331 
Q 3031 1494 2936 1608 
Q 2841 1722 2603 1806 
Q 2441 1863 1863 2006 
Q 1119 2191 819 2459 
Q 397 2838 397 3381 
Q 397 3731 595 4036 
Q 794 4341 1167 4500 
Q 1541 4659 2069 4659 
Q 2931 4659 3367 4281 
Q 3803 3903 3825 3272 
L 2900 3231 
Q 2841 3584 2645 3739 
Q 2450 3894 2059 3894 
Q 1656 3894 1428 3728 
Q 1281 3622 1281 3444 
Q 1281 3281 1419 3166 
Q 1594 3019 2269 2859 
Q 2944 2700 3267 2529 
Q 3591 2359 3773 2064 
Q 3956 1769 3956 1334 
Q 3956 941 3737 597 
Q 3519 253 3119 86 
Q 2719 -81 2122 -81 
Q 1253 -81 787 320 
Q 322 722 231 1491 
z
" transform="scale(0.015625)"/>
      <path id="Arial-BoldMT-6d" d="M 394 3319 
L 1203 3319 
L 1203 2866 
Q 1638 3394 2238 3394 
Q 2556 3394 2790 3262 
Q 3025 3131 3175 2866 
Q 3394 3131 3647 3262 
Q 3900 3394 4188 3394 
Q 4553 3394 4806 3245 
Q 5059 3097 5184 2809 
Q 5275 2597 5275 2122 
L 5275 0 
L 4397 0 
L 4397 1897 
Q 4397 2391 4306 2534 
Q 4184 2722 3931 2722 
Q 3747 2722 3584 2609 
Q 3422 2497 3350 2280 
Q 3278 2063 3278 1594 
L 3278 0 
L 2400 0 
L 2400 1819 
Q 2400 2303 2353 2443 
Q 2306 2584 2207 2653 
Q 2109 2722 1941 2722 
Q 1738 2722 1575 2612 
Q 1413 2503 1342 2297 
Q 1272 2091 1272 1613 
L 1272 0 
L 394 0 
L 394 3319 
z
" transform="scale(0.015625)"/>
      <path id="Arial-BoldMT-75" d="M 2644 0 
L 2644 497 
Q 2463 231 2167 78 
Q 1872 -75 1544 -75 
Q 1209 -75 943 72 
Q 678 219 559 484 
Q 441 750 441 1219 
L 441 3319 
L 1319 3319 
L 1319 1794 
Q 1319 1094 1367 936 
Q 1416 778 1544 686 
Q 1672 594 1869 594 
Q 2094 594 2272 717 
Q 2450 841 2515 1023 
Q 2581 1206 2581 1919 
L 2581 3319 
L 3459 3319 
L 3459 0 
L 2644 0 
z
" transform="scale(0.015625)"/>
      <path id="Arial-BoldMT-6c" d="M 459 0 
L 459 4581 
L 1338 4581 
L 1338 0 
L 459 0 
z
" transform="scale(0.015625)"/>
      <path id="Arial-BoldMT-74" d="M 1981 3319 
L 1981 2619 
L 1381 2619 
L 1381 1281 
Q 1381 875 1398 808 
Q 1416 741 1477 697 
Q 1538 653 1625 653 
Q 1747 653 1978 738 
L 2053 56 
Q 1747 -75 1359 -75 
Q 1122 -75 931 4 
Q 741 84 652 211 
Q 563 338 528 553 
Q 500 706 500 1172 
L 500 2619 
L 97 2619 
L 97 3319 
L 500 3319 
L 500 3978 
L 1381 4491 
L 1381 3319 
L 1981 3319 
z
" transform="scale(0.015625)"/>
      <path id="Arial-BoldMT-6f" d="M 256 1706 
Q 256 2144 472 2553 
Q 688 2963 1083 3178 
Q 1478 3394 1966 3394 
Q 2719 3394 3200 2905 
Q 3681 2416 3681 1669 
Q 3681 916 3195 420 
Q 2709 -75 1972 -75 
Q 1516 -75 1102 131 
Q 688 338 472 736 
Q 256 1134 256 1706 
z
M 1156 1659 
Q 1156 1166 1390 903 
Q 1625 641 1969 641 
Q 2313 641 2545 903 
Q 2778 1166 2778 1666 
Q 2778 2153 2545 2415 
Q 2313 2678 1969 2678 
Q 1625 2678 1390 2415 
Q 1156 2153 1156 1659 
z
" transform="scale(0.015625)"/>
      <path id="Arial-BoldMT-6e" d="M 3478 0 
L 2600 0 
L 2600 1694 
Q 2600 2231 2544 2389 
Q 2488 2547 2361 2634 
Q 2234 2722 2056 2722 
Q 1828 2722 1647 2597 
Q 1466 2472 1398 2265 
Q 1331 2059 1331 1503 
L 1331 0 
L 453 0 
L 453 3319 
L 1269 3319 
L 1269 2831 
Q 1703 3394 2363 3394 
Q 2653 3394 2893 3289 
Q 3134 3184 3257 3021 
Q 3381 2859 3429 2653 
Q 3478 2447 3478 2063 
L 3478 0 
z
" transform="scale(0.015625)"/>
      <path id="Arial-BoldMT-43" d="M 3397 1684 
L 4294 1400 
Q 4088 650 3608 286 
Q 3128 -78 2391 -78 
Q 1478 -78 890 545 
Q 303 1169 303 2250 
Q 303 3394 893 4026 
Q 1484 4659 2447 4659 
Q 3288 4659 3813 4163 
Q 4125 3869 4281 3319 
L 3366 3100 
Q 3284 3456 3026 3662 
Q 2769 3869 2400 3869 
Q 1891 3869 1573 3503 
Q 1256 3138 1256 2319 
Q 1256 1450 1568 1081 
Q 1881 713 2381 713 
Q 2750 713 3015 947 
Q 3281 1181 3397 1684 
z
" transform="scale(0.015625)"/>
      <path id="Arial-BoldMT-63" d="M 3353 2338 
L 2488 2181 
Q 2444 2441 2289 2572 
Q 2134 2703 1888 2703 
Q 1559 2703 1364 2476 
Q 1169 2250 1169 1719 
Q 1169 1128 1367 884 
Q 1566 641 1900 641 
Q 2150 641 2309 783 
Q 2469 925 2534 1272 
L 3397 1125 
Q 3263 531 2881 228 
Q 2500 -75 1859 -75 
Q 1131 -75 698 384 
Q 266 844 266 1656 
Q 266 2478 700 2936 
Q 1134 3394 1875 3394 
Q 2481 3394 2839 3133 
Q 3197 2872 3353 2338 
z
" transform="scale(0.015625)"/>
     </defs>
     <use xlink:href="#Arial-BoldMT-5a"/>
     <use xlink:href="#Arial-BoldMT-65" x="61.083984"/>
     <use xlink:href="#Arial-BoldMT-62" x="116.699219"/>
     <use xlink:href="#Arial-BoldMT-72" x="177.783203"/>
     <use xlink:href="#Arial-BoldMT-61" x="216.699219"/>
     <use xlink:href="#Arial-BoldMT-66" x="272.314453"/>
     <use xlink:href="#Arial-BoldMT-69" x="305.615234"/>
     <use xlink:href="#Arial-BoldMT-73" x="333.398438"/>
     <use xlink:href="#Arial-BoldMT-68" x="389.013672"/>
     <use xlink:href="#Arial-BoldMT-20" x="450.097656"/>
     <use xlink:href="#Arial-BoldMT-2d" x="477.880859"/>
     <use xlink:href="#Arial-BoldMT-20" x="511.181641"/>
     <use xlink:href="#Arial-BoldMT-53" x="538.964844"/>
     <use xlink:href="#Arial-BoldMT-69" x="605.664062"/>
     <use xlink:href="#Arial-BoldMT-6d" x="633.447266"/>
     <use xlink:href="#Arial-BoldMT-75" x="722.363281"/>
     <use xlink:href="#Arial-BoldMT-6c" x="783.447266"/>
     <use xlink:href="#Arial-BoldMT-61" x="811.230469"/>
     <use xlink:href="#Arial-BoldMT-74" x="866.845703"/>
     <use xlink:href="#Arial-BoldMT-69" x="900.146484"/>
     <use xlink:href="#Arial-BoldMT-6f" x="927.929688"/>
     <use xlink:href="#Arial-BoldMT-6e" x="989.013672"/>
     <use xlink:href="#Arial-BoldMT-20" x="1050.097656"/>
     <use xlink:href="#Arial-BoldMT-43" x="1077.880859"/>
     <use xlink:href="#Arial-BoldMT-68" x="1150.097656"/>
     <use xlink:href="#Arial-BoldMT-61" x="1211.181641"/>
     <use xlink:href="#Arial-BoldMT-72" x="1266.796875"/>
     <use xlink:href="#Arial-BoldMT-61" x="1305.712891"/>
     <use xlink:href="#Arial-BoldMT-63" x="1361.328125"/>
     <use xlink:href="#Arial-BoldMT-74" x="1416.943359"/>
     <use xlink:href="#Arial-BoldMT-65" x="1450.244141"/>
     <use xlink:href="#Arial-BoldMT-72" x="1505.859375"/>
     <use xlink:href="#Arial-BoldMT-69" x="1544.775391"/>
     <use xlink:href="#Arial-BoldMT-73" x="1572.558594"/>
     <use xlink:href="#Arial-BoldMT-74" x="1628.173828"/>
     <use xlink:href="#Arial-BoldMT-69" x="1661.474609"/>
     <use xlink:href="#Arial-BoldMT-63" x="1689.257812"/>
     <use xlink:href="#Arial-BoldMT-73" x="1744.873047"/>
    </g>
   </g>
  </g>
  <g id="text_25">
   <!-- Zanichelli, Schons et al, State of Brain Emulation Report 2025 -->
   <g style="fill: #787470" transform="translate(526.432388 706.98204) scale(0.07 -0.07)">
    <defs>
     <path id="Arial-ItalicMT-5a" d="M 156 0 
L 216 459 
L 2509 3200 
L 2984 3775 
Q 3128 3950 3263 4097 
Q 2972 4063 2856 4063 
L 2706 4066 
L 2525 4063 
L 2347 4059 
L 806 4059 
L 916 4581 
L 4075 4581 
L 4022 4103 
L 1563 1181 
Q 1109 641 988 503 
Q 1125 522 1166 522 
L 3663 522 
L 3553 0 
L 156 0 
z
" transform="scale(0.015625)"/>
     <path id="Arial-ItalicMT-61" d="M 2450 413 
Q 2156 159 1884 42 
Q 1613 -75 1303 -75 
Q 844 -75 562 195 
Q 281 466 281 888 
Q 281 1166 407 1380 
Q 534 1594 743 1723 
Q 953 1853 1256 1909 
Q 1447 1947 1980 1969 
Q 2513 1991 2744 2081 
Q 2809 2313 2809 2466 
Q 2809 2663 2666 2775 
Q 2469 2931 2091 2931 
Q 1734 2931 1507 2773 
Q 1281 2616 1178 2325 
L 606 2375 
Q 781 2869 1161 3131 
Q 1541 3394 2119 3394 
Q 2734 3394 3094 3100 
Q 3369 2881 3369 2531 
Q 3369 2266 3291 1916 
L 3106 1091 
Q 3019 697 3019 450 
Q 3019 294 3088 0 
L 2516 0 
Q 2469 163 2450 413 
z
M 2659 1681 
Q 2541 1634 2405 1609 
Q 2269 1584 1950 1556 
Q 1456 1513 1253 1445 
Q 1050 1378 947 1231 
Q 844 1084 844 906 
Q 844 669 1008 516 
Q 1172 363 1475 363 
Q 1756 363 2015 511 
Q 2275 659 2425 925 
Q 2575 1191 2659 1681 
z
" transform="scale(0.015625)"/>
     <path id="Arial-ItalicMT-6e" d="M 213 0 
L 906 3319 
L 1419 3319 
L 1297 2741 
Q 1631 3081 1922 3237 
Q 2213 3394 2516 3394 
Q 2919 3394 3148 3175 
Q 3378 2956 3378 2591 
Q 3378 2406 3297 2009 
L 2875 0 
L 2309 0 
L 2750 2103 
Q 2816 2409 2816 2556 
Q 2816 2722 2702 2825 
Q 2588 2928 2372 2928 
Q 1938 2928 1598 2615 
Q 1259 2303 1100 1544 
L 778 0 
L 213 0 
z
" transform="scale(0.015625)"/>
     <path id="Arial-ItalicMT-69" d="M 1016 3941 
L 1150 4581 
L 1713 4581 
L 1578 3941 
L 1016 3941 
z
M 191 0 
L 884 3319 
L 1450 3319 
L 756 0 
L 191 0 
z
" transform="scale(0.015625)"/>
     <path id="Arial-ItalicMT-63" d="M 2503 1209 
L 3069 1150 
Q 2856 528 2464 226 
Q 2072 -75 1572 -75 
Q 1031 -75 695 275 
Q 359 625 359 1253 
Q 359 1797 575 2322 
Q 791 2847 1192 3120 
Q 1594 3394 2109 3394 
Q 2644 3394 2956 3092 
Q 3269 2791 3269 2294 
L 2713 2256 
Q 2709 2572 2529 2750 
Q 2350 2928 2056 2928 
Q 1716 2928 1466 2712 
Q 1216 2497 1073 2058 
Q 931 1619 931 1213 
Q 931 788 1118 575 
Q 1306 363 1581 363 
Q 1856 363 2107 572 
Q 2359 781 2503 1209 
z
" transform="scale(0.015625)"/>
     <path id="Arial-ItalicMT-68" d="M 213 0 
L 1169 4581 
L 1734 4581 
L 1369 2822 
Q 1684 3128 1956 3261 
Q 2228 3394 2516 3394 
Q 2928 3394 3156 3176 
Q 3384 2959 3384 2603 
Q 3384 2428 3284 1959 
L 2875 0 
L 2309 0 
L 2731 2009 
Q 2822 2447 2822 2559 
Q 2822 2722 2709 2825 
Q 2597 2928 2384 2928 
Q 2078 2928 1800 2767 
Q 1522 2606 1364 2326 
Q 1206 2047 1075 1425 
L 778 0 
L 213 0 
z
" transform="scale(0.015625)"/>
     <path id="Arial-ItalicMT-65" d="M 2650 1128 
L 3200 1072 
Q 3081 663 2654 294 
Q 2228 -75 1638 -75 
Q 1269 -75 961 95 
Q 653 266 492 591 
Q 331 916 331 1331 
Q 331 1875 582 2386 
Q 834 2897 1234 3145 
Q 1634 3394 2100 3394 
Q 2694 3394 3048 3025 
Q 3403 2656 3403 2019 
Q 3403 1775 3359 1519 
L 916 1519 
Q 903 1422 903 1344 
Q 903 878 1117 633 
Q 1331 388 1641 388 
Q 1931 388 2212 578 
Q 2494 769 2650 1128 
z
M 1006 1950 
L 2869 1950 
Q 2872 2038 2872 2075 
Q 2872 2500 2659 2726 
Q 2447 2953 2113 2953 
Q 1750 2953 1451 2703 
Q 1153 2453 1006 1950 
z
" transform="scale(0.015625)"/>
     <path id="Arial-ItalicMT-6c" d="M 169 0 
L 1125 4581 
L 1691 4581 
L 734 0 
L 169 0 
z
" transform="scale(0.015625)"/>
     <path id="Arial-ItalicMT-2c" d="M 347 0 
L 481 641 
L 1125 641 
L 1009 81 
Q 903 -422 679 -656 
Q 456 -891 153 -925 
L 206 -678 
Q 578 -575 697 0 
L 347 0 
z
" transform="scale(0.015625)"/>
     <path id="Arial-ItalicMT-20" transform="scale(0.015625)"/>
     <path id="Arial-ItalicMT-53" d="M 450 1481 
L 1050 1538 
L 1044 1378 
Q 1044 1113 1166 892 
Q 1288 672 1569 551 
Q 1850 431 2238 431 
Q 2788 431 3077 672 
Q 3366 913 3366 1222 
Q 3366 1438 3213 1616 
Q 3056 1791 2359 2091 
Q 1819 2325 1622 2450 
Q 1313 2653 1166 2892 
Q 1019 3131 1019 3438 
Q 1019 3791 1212 4075 
Q 1406 4359 1779 4509 
Q 2153 4659 2622 4659 
Q 3181 4659 3565 4471 
Q 3950 4284 4123 3971 
Q 4297 3659 4297 3375 
Q 4297 3347 4294 3281 
L 3703 3234 
Q 3703 3428 3669 3538 
Q 3606 3728 3475 3859 
Q 3344 3991 3114 4070 
Q 2884 4150 2600 4150 
Q 2100 4150 1822 3925 
Q 1609 3753 1609 3469 
Q 1609 3300 1696 3167 
Q 1784 3034 2013 2906 
Q 2175 2816 2784 2547 
Q 3278 2328 3466 2203 
Q 3716 2038 3850 1802 
Q 3984 1566 3984 1266 
Q 3984 894 3757 580 
Q 3531 266 3131 94 
Q 2731 -78 2216 -78 
Q 1438 -78 945 261 
Q 453 600 450 1481 
z
" transform="scale(0.015625)"/>
     <path id="Arial-ItalicMT-6f" d="M 313 1259 
Q 313 2231 884 2869 
Q 1356 3394 2122 3394 
Q 2722 3394 3089 3019 
Q 3456 2644 3456 2006 
Q 3456 1434 3225 942 
Q 2994 450 2567 187 
Q 2141 -75 1669 -75 
Q 1281 -75 964 90 
Q 647 256 480 559 
Q 313 863 313 1259 
z
M 878 1316 
Q 878 847 1103 605 
Q 1328 363 1675 363 
Q 1856 363 2034 436 
Q 2213 509 2366 659 
Q 2519 809 2626 1001 
Q 2734 1194 2800 1416 
Q 2897 1725 2897 2009 
Q 2897 2459 2670 2707 
Q 2444 2956 2100 2956 
Q 1834 2956 1615 2829 
Q 1397 2703 1220 2459 
Q 1044 2216 961 1892 
Q 878 1569 878 1316 
z
" transform="scale(0.015625)"/>
     <path id="Arial-ItalicMT-73" d="M 266 1134 
L 831 1169 
Q 831 925 906 753 
Q 981 581 1182 472 
Q 1384 363 1653 363 
Q 2028 363 2215 513 
Q 2403 663 2403 866 
Q 2403 1013 2291 1144 
Q 2175 1275 1726 1467 
Q 1278 1659 1153 1738 
Q 944 1866 837 2039 
Q 731 2213 731 2438 
Q 731 2831 1043 3112 
Q 1356 3394 1919 3394 
Q 2544 3394 2870 3105 
Q 3197 2816 3209 2344 
L 2656 2306 
Q 2644 2606 2444 2781 
Q 2244 2956 1878 2956 
Q 1584 2956 1421 2822 
Q 1259 2688 1259 2531 
Q 1259 2375 1400 2256 
Q 1494 2175 1884 2006 
Q 2534 1725 2703 1563 
Q 2972 1303 2972 931 
Q 2972 684 2820 446 
Q 2669 209 2358 67 
Q 2047 -75 1625 -75 
Q 1050 -75 647 209 
Q 244 494 266 1134 
z
" transform="scale(0.015625)"/>
     <path id="Arial-ItalicMT-74" d="M 1534 459 
L 1441 -3 
Q 1238 -56 1047 -56 
Q 709 -56 509 109 
Q 359 234 359 450 
Q 359 559 441 953 
L 844 2881 
L 397 2881 
L 488 3319 
L 934 3319 
L 1106 4134 
L 1753 4525 
L 1500 3319 
L 2056 3319 
L 1963 2881 
L 1409 2881 
L 1025 1047 
Q 953 697 953 628 
Q 953 528 1011 475 
Q 1069 422 1200 422 
Q 1388 422 1534 459 
z
" transform="scale(0.015625)"/>
     <path id="Arial-ItalicMT-66" d="M 291 0 
L 894 2881 
L 388 2881 
L 478 3319 
L 984 3319 
L 1081 3791 
Q 1156 4144 1236 4300 
Q 1316 4456 1495 4557 
Q 1675 4659 1984 4659 
Q 2200 4659 2609 4569 
L 2506 4075 
Q 2219 4150 2025 4150 
Q 1859 4150 1773 4067 
Q 1688 3984 1625 3675 
L 1550 3319 
L 2181 3319 
L 2091 2881 
L 1459 2881 
L 856 0 
L 291 0 
z
" transform="scale(0.015625)"/>
     <path id="Arial-ItalicMT-42" d="M 278 0 
L 1238 4581 
L 2656 4581 
Q 3044 4581 3231 4550 
Q 3538 4497 3748 4364 
Q 3959 4231 4075 4001 
Q 4191 3772 4191 3494 
Q 4191 3116 3983 2828 
Q 3775 2541 3347 2391 
Q 3719 2269 3903 2023 
Q 4088 1778 4088 1450 
Q 4088 1072 3870 725 
Q 3653 378 3295 189 
Q 2938 0 2497 0 
L 278 0 
z
M 1441 2625 
L 2369 2625 
Q 3034 2625 3326 2837 
Q 3619 3050 3619 3456 
Q 3619 3650 3528 3790 
Q 3438 3931 3286 3995 
Q 3134 4059 2716 4059 
L 1741 4059 
L 1441 2625 
z
M 1000 519 
L 2044 519 
Q 2459 519 2603 547 
Q 2894 597 3075 717 
Q 3256 838 3359 1034 
Q 3463 1231 3463 1447 
Q 3463 1769 3261 1936 
Q 3059 2103 2494 2103 
L 1331 2103 
L 1000 519 
z
" transform="scale(0.015625)"/>
     <path id="Arial-ItalicMT-72" d="M 213 0 
L 906 3319 
L 1406 3319 
L 1266 2641 
Q 1522 3025 1767 3209 
Q 2013 3394 2269 3394 
Q 2438 3394 2684 3272 
L 2453 2747 
Q 2306 2853 2131 2853 
Q 1834 2853 1521 2522 
Q 1209 2191 1031 1331 
L 750 0 
L 213 0 
z
" transform="scale(0.015625)"/>
     <path id="Arial-ItalicMT-45" d="M 288 0 
L 1247 4581 
L 4553 4581 
L 4444 4059 
L 1750 4059 
L 1450 2634 
L 4075 2634 
L 3966 2113 
L 1341 2113 
L 1009 519 
L 3894 519 
L 3784 0 
L 288 0 
z
" transform="scale(0.015625)"/>
     <path id="Arial-ItalicMT-6d" d="M 209 0 
L 903 3319 
L 1469 3319 
L 1353 2772 
Q 1669 3125 1917 3259 
Q 2166 3394 2456 3394 
Q 2766 3394 2973 3230 
Q 3181 3066 3247 2772 
Q 3500 3084 3779 3239 
Q 4059 3394 4369 3394 
Q 4784 3394 4992 3197 
Q 5200 3000 5200 2644 
Q 5200 2491 5128 2138 
L 4681 0 
L 4116 0 
L 4572 2194 
Q 4631 2463 4631 2578 
Q 4631 2741 4528 2834 
Q 4425 2928 4238 2928 
Q 3984 2928 3721 2775 
Q 3459 2622 3314 2373 
Q 3169 2125 3059 1609 
L 2722 0 
L 2156 0 
L 2625 2241 
Q 2675 2469 2675 2566 
Q 2675 2728 2573 2828 
Q 2472 2928 2309 2928 
Q 2069 2928 1805 2775 
Q 1541 2622 1375 2348 
Q 1209 2075 1103 1569 
L 775 0 
L 209 0 
z
" transform="scale(0.015625)"/>
     <path id="Arial-ItalicMT-75" d="M 2478 600 
Q 1881 -75 1256 -75 
Q 872 -75 636 145 
Q 400 366 400 684 
Q 400 894 506 1403 
L 906 3319 
L 1472 3319 
L 1028 1197 
Q 972 931 972 784 
Q 972 597 1086 492 
Q 1200 388 1422 388 
Q 1659 388 1886 503 
Q 2113 619 2277 816 
Q 2441 1013 2544 1281 
Q 2613 1453 2703 1884 
L 3003 3319 
L 3569 3319 
L 2875 0 
L 2353 0 
L 2478 600 
z
" transform="scale(0.015625)"/>
     <path id="Arial-ItalicMT-52" d="M 300 0 
L 1259 4581 
L 3181 4581 
Q 3750 4581 4044 4486 
Q 4338 4391 4505 4128 
Q 4672 3866 4672 3466 
Q 4672 2906 4306 2537 
Q 3941 2169 3125 2059 
Q 3375 1875 3503 1697 
Q 3791 1294 3966 863 
L 4316 0 
L 3631 0 
L 3303 853 
Q 3125 1316 2897 1653 
Q 2741 1888 2578 1961 
Q 2416 2034 2050 2034 
L 1338 2034 
L 913 0 
L 300 0 
z
M 1441 2531 
L 2288 2531 
Q 2875 2531 3053 2547 
Q 3400 2581 3622 2703 
Q 3844 2825 3966 3031 
Q 4088 3238 4088 3475 
Q 4088 3675 3997 3823 
Q 3906 3972 3759 4025 
Q 3613 4078 3259 4078 
L 1766 4078 
L 1441 2531 
z
" transform="scale(0.015625)"/>
     <path id="Arial-ItalicMT-70" d="M -66 -1272 
L 894 3319 
L 1416 3319 
L 1319 2856 
Q 1609 3159 1839 3276 
Q 2069 3394 2325 3394 
Q 2800 3394 3112 3048 
Q 3425 2703 3425 2059 
Q 3425 1541 3253 1114 
Q 3081 688 2831 428 
Q 2581 169 2325 47 
Q 2069 -75 1800 -75 
Q 1203 -75 875 531 
L 500 -1272 
L -66 -1272 
z
M 1053 1356 
Q 1053 984 1106 841 
Q 1184 638 1362 513 
Q 1541 388 1775 388 
Q 2263 388 2563 936 
Q 2863 1484 2863 2056 
Q 2863 2478 2661 2708 
Q 2459 2938 2159 2938 
Q 1944 2938 1759 2823 
Q 1575 2709 1417 2482 
Q 1259 2256 1156 1928 
Q 1053 1600 1053 1356 
z
" transform="scale(0.015625)"/>
     <path id="Arial-ItalicMT-32" d="M 375 0 
Q 463 409 617 686 
Q 772 963 1028 1211 
Q 1284 1459 2016 2044 
Q 2459 2397 2622 2566 
Q 2856 2809 2963 3044 
Q 3034 3203 3034 3391 
Q 3034 3706 2811 3926 
Q 2588 4147 2263 4147 
Q 1941 4147 1700 3923 
Q 1459 3700 1356 3206 
L 803 3288 
Q 884 3897 1276 4248 
Q 1669 4600 2253 4600 
Q 2644 4600 2961 4437 
Q 3278 4275 3437 3981 
Q 3597 3688 3597 3375 
Q 3597 2919 3272 2497 
Q 3072 2234 2097 1463 
Q 1678 1131 1473 918 
Q 1269 706 1166 519 
L 3216 519 
L 3106 0 
L 375 0 
z
" transform="scale(0.015625)"/>
     <path id="Arial-ItalicMT-30" d="M 453 1503 
Q 453 2084 626 2684 
Q 800 3284 1012 3643 
Q 1225 4003 1453 4206 
Q 1681 4409 1901 4504 
Q 2122 4600 2391 4600 
Q 2916 4600 3267 4209 
Q 3619 3819 3619 3081 
Q 3619 2322 3375 1578 
Q 3088 697 2575 256 
Q 2181 -78 1678 -78 
Q 1163 -78 808 326 
Q 453 731 453 1503 
z
M 1000 1359 
Q 1000 938 1141 700 
Q 1331 372 1706 372 
Q 2034 372 2303 669 
Q 2691 1088 2886 1895 
Q 3081 2703 3081 3216 
Q 3081 3709 2892 3928 
Q 2703 4147 2394 4147 
Q 2169 4147 1973 4031 
Q 1778 3916 1600 3634 
Q 1347 3238 1159 2447 
Q 1000 1772 1000 1359 
z
" transform="scale(0.015625)"/>
     <path id="Arial-ItalicMT-35" d="M 447 1309 
L 1022 1366 
Q 1016 1244 1016 1219 
Q 1016 1013 1120 803 
Q 1225 594 1404 483 
Q 1584 372 1784 372 
Q 2047 372 2319 553 
Q 2591 734 2759 1081 
Q 2928 1428 2928 1769 
Q 2928 2153 2701 2384 
Q 2475 2616 2106 2616 
Q 1859 2616 1639 2497 
Q 1419 2378 1228 2141 
L 734 2175 
L 1425 4519 
L 3663 4519 
L 3553 4000 
L 1813 4000 
L 1469 2834 
Q 1663 2975 1867 3045 
Q 2072 3116 2288 3116 
Q 2813 3116 3150 2769 
Q 3488 2422 3488 1819 
Q 3488 1291 3256 845 
Q 3025 400 2620 161 
Q 2216 -78 1747 -78 
Q 1353 -78 1050 100 
Q 747 278 595 590 
Q 444 903 444 1216 
Q 444 1247 447 1309 
z
" transform="scale(0.015625)"/>
    </defs>
    <use xlink:href="#Arial-ItalicMT-5a"/>
    <use xlink:href="#Arial-ItalicMT-61" x="61.083984"/>
    <use xlink:href="#Arial-ItalicMT-6e" x="116.699219"/>
    <use xlink:href="#Arial-ItalicMT-69" x="172.314453"/>
    <use xlink:href="#Arial-ItalicMT-63" x="194.53125"/>
    <use xlink:href="#Arial-ItalicMT-68" x="244.53125"/>
    <use xlink:href="#Arial-ItalicMT-65" x="300.146484"/>
    <use xlink:href="#Arial-ItalicMT-6c" x="355.761719"/>
    <use xlink:href="#Arial-ItalicMT-6c" x="377.978516"/>
    <use xlink:href="#Arial-ItalicMT-69" x="400.195312"/>
    <use xlink:href="#Arial-ItalicMT-2c" x="422.412109"/>
    <use xlink:href="#Arial-ItalicMT-20" x="450.195312"/>
    <use xlink:href="#Arial-ItalicMT-53" x="477.978516"/>
    <use xlink:href="#Arial-ItalicMT-63" x="544.677734"/>
    <use xlink:href="#Arial-ItalicMT-68" x="594.677734"/>
    <use xlink:href="#Arial-ItalicMT-6f" x="650.292969"/>
    <use xlink:href="#Arial-ItalicMT-6e" x="705.908203"/>
    <use xlink:href="#Arial-ItalicMT-73" x="761.523438"/>
    <use xlink:href="#Arial-ItalicMT-20" x="811.523438"/>
    <use xlink:href="#Arial-ItalicMT-65" x="839.306641"/>
    <use xlink:href="#Arial-ItalicMT-74" x="894.921875"/>
    <use xlink:href="#Arial-ItalicMT-20" x="922.705078"/>
    <use xlink:href="#Arial-ItalicMT-61" x="950.488281"/>
    <use xlink:href="#Arial-ItalicMT-6c" x="1006.103516"/>
    <use xlink:href="#Arial-ItalicMT-2c" x="1028.320312"/>
    <use xlink:href="#Arial-ItalicMT-20" x="1056.103516"/>
    <use xlink:href="#Arial-ItalicMT-53" x="1083.886719"/>
    <use xlink:href="#Arial-ItalicMT-74" x="1150.585938"/>
    <use xlink:href="#Arial-ItalicMT-61" x="1178.369141"/>
    <use xlink:href="#Arial-ItalicMT-74" x="1233.984375"/>
    <use xlink:href="#Arial-ItalicMT-65" x="1261.767578"/>
    <use xlink:href="#Arial-ItalicMT-20" x="1317.382812"/>
    <use xlink:href="#Arial-ItalicMT-6f" x="1345.166016"/>
    <use xlink:href="#Arial-ItalicMT-66" x="1400.78125"/>
    <use xlink:href="#Arial-ItalicMT-20" x="1428.564453"/>
    <use xlink:href="#Arial-ItalicMT-42" x="1456.347656"/>
    <use xlink:href="#Arial-ItalicMT-72" x="1523.046875"/>
    <use xlink:href="#Arial-ItalicMT-61" x="1556.347656"/>
    <use xlink:href="#Arial-ItalicMT-69" x="1611.962891"/>
    <use xlink:href="#Arial-ItalicMT-6e" x="1634.179688"/>
    <use xlink:href="#Arial-ItalicMT-20" x="1689.794922"/>
    <use xlink:href="#Arial-ItalicMT-45" x="1717.578125"/>
    <use xlink:href="#Arial-ItalicMT-6d" x="1784.277344"/>
    <use xlink:href="#Arial-ItalicMT-75" x="1867.578125"/>
    <use xlink:href="#Arial-ItalicMT-6c" x="1923.193359"/>
    <use xlink:href="#Arial-ItalicMT-61" x="1945.410156"/>
    <use xlink:href="#Arial-ItalicMT-74" x="2001.025391"/>
    <use xlink:href="#Arial-ItalicMT-69" x="2028.808594"/>
    <use xlink:href="#Arial-ItalicMT-6f" x="2051.025391"/>
    <use xlink:href="#Arial-ItalicMT-6e" x="2106.640625"/>
    <use xlink:href="#Arial-ItalicMT-20" x="2162.255859"/>
    <use xlink:href="#Arial-ItalicMT-52" x="2190.039062"/>
    <use xlink:href="#Arial-ItalicMT-65" x="2262.255859"/>
    <use xlink:href="#Arial-ItalicMT-70" x="2317.871094"/>
    <use xlink:href="#Arial-ItalicMT-6f" x="2373.486328"/>
    <use xlink:href="#Arial-ItalicMT-72" x="2429.101562"/>
    <use xlink:href="#Arial-ItalicMT-74" x="2462.402344"/>
    <use xlink:href="#Arial-ItalicMT-20" x="2490.185547"/>
    <use xlink:href="#Arial-ItalicMT-32" x="2517.96875"/>
    <use xlink:href="#Arial-ItalicMT-30" x="2573.583984"/>
    <use xlink:href="#Arial-ItalicMT-32" x="2629.199219"/>
    <use xlink:href="#Arial-ItalicMT-35" x="2684.814453"/>
   </g>
  </g>
 </g>
 <defs>
  <clipPath id="p357ab249b3">
   <path d="M 658.930982 377.005937 
C 658.930982 338.584027 651.362704 300.535722 636.659275 265.038505 
C 621.955847 229.541289 600.403213 197.285493 573.23482 170.1171 
C 546.066426 142.948707 513.810631 121.396073 478.313414 106.692644 
C 442.816198 91.989216 404.767892 84.420937 366.345982 84.420937 
C 327.924072 84.420937 289.875766 91.989216 254.37855 106.692644 
C 218.881334 121.396073 186.625538 142.948707 159.457145 170.1171 
C 132.288751 197.285493 110.736118 229.541289 96.032689 265.038505 
C 81.329261 300.535722 73.760982 338.584027 73.760982 377.005937 
C 73.760982 415.427848 81.329261 453.476153 96.032689 488.97337 
C 110.736118 524.470586 132.288751 556.726382 159.457145 583.894775 
C 186.625538 611.063168 218.881334 632.615802 254.37855 647.319231 
C 289.875766 662.022659 327.924072 669.590937 366.345982 669.590937 
C 404.767892 669.590937 442.816198 662.022659 478.313414 647.319231 
C 513.810631 632.615802 546.066426 611.063168 573.23482 583.894775 
C 600.403213 556.726382 621.955847 524.470586 636.659275 488.97337 
C 651.362704 453.476153 658.930982 415.427848 658.930982 377.005937 
M 366.345982 377.005937 
C 366.345982 377.005937 366.345982 377.005937 366.345982 377.005937 
C 366.345982 377.005937 366.345982 377.005937 366.345982 377.005937 
C 366.345982 377.005937 366.345982 377.005937 366.345982 377.005937 
C 366.345982 377.005937 366.345982 377.005937 366.345982 377.005937 
C 366.345982 377.005937 366.345982 377.005937 366.345982 377.005937 
C 366.345982 377.005937 366.345982 377.005937 366.345982 377.005937 
C 366.345982 377.005937 366.345982 377.005937 366.345982 377.005937 
C 366.345982 377.005937 366.345982 377.005937 366.345982 377.005937 
C 366.345982 377.005937 366.345982 377.005937 366.345982 377.005937 
C 366.345982 377.005937 366.345982 377.005937 366.345982 377.005937 
C 366.345982 377.005937 366.345982 377.005937 366.345982 377.005937 
C 366.345982 377.005937 366.345982 377.005937 366.345982 377.005937 
C 366.345982 377.005937 366.345982 377.005937 366.345982 377.005937 
C 366.345982 377.005937 366.345982 377.005937 366.345982 377.005937 
C 366.345982 377.005937 366.345982 377.005937 366.345982 377.005937 
C 366.345982 377.005937 366.345982 377.005937 366.345982 377.005937 
z
"/>
  </clipPath>
 </defs>
</svg>
