<?xml version="1.0" encoding="utf-8" standalone="no"?>
<!DOCTYPE svg PUBLIC "-//W3C//DTD SVG 1.1//EN"
  "http://www.w3.org/Graphics/SVG/1.1/DTD/svg11.dtd">
<svg xmlns:xlink="http://www.w3.org/1999/xlink" width="891.115812pt" height="563.751563pt" viewBox="0 0 891.115812 563.751563" xmlns="http://www.w3.org/2000/svg" version="1.1">
 <metadata>
  <rdf:RDF xmlns:dc="http://purl.org/dc/elements/1.1/" xmlns:cc="http://creativecommons.org/ns#" xmlns:rdf="http://www.w3.org/1999/02/22-rdf-syntax-ns#">
   <cc:Work>
    <dc:type rdf:resource="http://purl.org/dc/dcmitype/StillImage"/>
    <dc:date>2026-01-20T21:23:36.942256</dc:date>
    <dc:format>image/svg+xml</dc:format>
    <dc:creator>
     <cc:Agent>
      <dc:title>Matplotlib v3.9.4, https://matplotlib.org/</dc:title>
     </cc:Agent>
    </dc:creator>
   </cc:Work>
  </rdf:RDF>
 </metadata>
 <defs>
  <style type="text/css">*{stroke-linejoin: round; stroke-linecap: butt}</style>
 </defs>
 <g id="figure_1">
  <g id="patch_1">
   <path d="M 0 563.751563 
L 891.115813 563.751563 
L 891.115813 0 
L 0 0 
z
" style="fill: #ffffff"/>
  </g>
  <g id="axes_1">
   <g id="patch_2">
    <path d="M 132.235813 516.231563 
L 650.635812 516.231563 
L 650.635812 32.391562 
L 132.235813 32.391562 
z
" style="fill: #fafaf8"/>
   </g>
   <g id="matplotlib.axis_1">
    <g id="xtick_1">
     <g id="text_1">
      <!-- Compute (FLOP/s) -->
      <g style="fill: #4a4a5a" transform="translate(105.455699 528.474688) scale(0.12 -0.12)">
       <defs>
        <path id="ArialMT-43" d="M 3763 1606 
L 4369 1453 
Q 4178 706 3683 314 
Q 3188 -78 2472 -78 
Q 1731 -78 1267 223 
Q 803 525 561 1097 
Q 319 1669 319 2325 
Q 319 3041 592 3573 
Q 866 4106 1370 4382 
Q 1875 4659 2481 4659 
Q 3169 4659 3637 4309 
Q 4106 3959 4291 3325 
L 3694 3184 
Q 3534 3684 3231 3912 
Q 2928 4141 2469 4141 
Q 1941 4141 1586 3887 
Q 1231 3634 1087 3207 
Q 944 2781 944 2328 
Q 944 1744 1114 1308 
Q 1284 872 1643 656 
Q 2003 441 2422 441 
Q 2931 441 3284 734 
Q 3638 1028 3763 1606 
z
" transform="scale(0.015625)"/>
        <path id="ArialMT-6f" d="M 213 1659 
Q 213 2581 725 3025 
Q 1153 3394 1769 3394 
Q 2453 3394 2887 2945 
Q 3322 2497 3322 1706 
Q 3322 1066 3130 698 
Q 2938 331 2570 128 
Q 2203 -75 1769 -75 
Q 1072 -75 642 372 
Q 213 819 213 1659 
z
M 791 1659 
Q 791 1022 1069 705 
Q 1347 388 1769 388 
Q 2188 388 2466 706 
Q 2744 1025 2744 1678 
Q 2744 2294 2464 2611 
Q 2184 2928 1769 2928 
Q 1347 2928 1069 2612 
Q 791 2297 791 1659 
z
" transform="scale(0.015625)"/>
        <path id="ArialMT-6d" d="M 422 0 
L 422 3319 
L 925 3319 
L 925 2853 
Q 1081 3097 1340 3245 
Q 1600 3394 1931 3394 
Q 2300 3394 2536 3241 
Q 2772 3088 2869 2813 
Q 3263 3394 3894 3394 
Q 4388 3394 4653 3120 
Q 4919 2847 4919 2278 
L 4919 0 
L 4359 0 
L 4359 2091 
Q 4359 2428 4304 2576 
Q 4250 2725 4106 2815 
Q 3963 2906 3769 2906 
Q 3419 2906 3187 2673 
Q 2956 2441 2956 1928 
L 2956 0 
L 2394 0 
L 2394 2156 
Q 2394 2531 2256 2718 
Q 2119 2906 1806 2906 
Q 1569 2906 1367 2781 
Q 1166 2656 1075 2415 
Q 984 2175 984 1722 
L 984 0 
L 422 0 
z
" transform="scale(0.015625)"/>
        <path id="ArialMT-70" d="M 422 -1272 
L 422 3319 
L 934 3319 
L 934 2888 
Q 1116 3141 1344 3267 
Q 1572 3394 1897 3394 
Q 2322 3394 2647 3175 
Q 2972 2956 3137 2557 
Q 3303 2159 3303 1684 
Q 3303 1175 3120 767 
Q 2938 359 2589 142 
Q 2241 -75 1856 -75 
Q 1575 -75 1351 44 
Q 1128 163 984 344 
L 984 -1272 
L 422 -1272 
z
M 931 1641 
Q 931 1000 1190 694 
Q 1450 388 1819 388 
Q 2194 388 2461 705 
Q 2728 1022 2728 1688 
Q 2728 2322 2467 2637 
Q 2206 2953 1844 2953 
Q 1484 2953 1207 2617 
Q 931 2281 931 1641 
z
" transform="scale(0.015625)"/>
        <path id="ArialMT-75" d="M 2597 0 
L 2597 488 
Q 2209 -75 1544 -75 
Q 1250 -75 995 37 
Q 741 150 617 320 
Q 494 491 444 738 
Q 409 903 409 1263 
L 409 3319 
L 972 3319 
L 972 1478 
Q 972 1038 1006 884 
Q 1059 663 1231 536 
Q 1403 409 1656 409 
Q 1909 409 2131 539 
Q 2353 669 2445 892 
Q 2538 1116 2538 1541 
L 2538 3319 
L 3100 3319 
L 3100 0 
L 2597 0 
z
" transform="scale(0.015625)"/>
        <path id="ArialMT-74" d="M 1650 503 
L 1731 6 
Q 1494 -44 1306 -44 
Q 1000 -44 831 53 
Q 663 150 594 308 
Q 525 466 525 972 
L 525 2881 
L 113 2881 
L 113 3319 
L 525 3319 
L 525 4141 
L 1084 4478 
L 1084 3319 
L 1650 3319 
L 1650 2881 
L 1084 2881 
L 1084 941 
Q 1084 700 1114 631 
Q 1144 563 1211 522 
Q 1278 481 1403 481 
Q 1497 481 1650 503 
z
" transform="scale(0.015625)"/>
        <path id="ArialMT-65" d="M 2694 1069 
L 3275 997 
Q 3138 488 2766 206 
Q 2394 -75 1816 -75 
Q 1088 -75 661 373 
Q 234 822 234 1631 
Q 234 2469 665 2931 
Q 1097 3394 1784 3394 
Q 2450 3394 2872 2941 
Q 3294 2488 3294 1666 
Q 3294 1616 3291 1516 
L 816 1516 
Q 847 969 1125 678 
Q 1403 388 1819 388 
Q 2128 388 2347 550 
Q 2566 713 2694 1069 
z
M 847 1978 
L 2700 1978 
Q 2663 2397 2488 2606 
Q 2219 2931 1791 2931 
Q 1403 2931 1139 2672 
Q 875 2413 847 1978 
z
" transform="scale(0.015625)"/>
        <path id="ArialMT-20" transform="scale(0.015625)"/>
        <path id="ArialMT-28" d="M 1497 -1347 
Q 1031 -759 709 28 
Q 388 816 388 1659 
Q 388 2403 628 3084 
Q 909 3875 1497 4659 
L 1900 4659 
Q 1522 4009 1400 3731 
Q 1209 3300 1100 2831 
Q 966 2247 966 1656 
Q 966 153 1900 -1347 
L 1497 -1347 
z
" transform="scale(0.015625)"/>
        <path id="ArialMT-46" d="M 525 0 
L 525 4581 
L 3616 4581 
L 3616 4041 
L 1131 4041 
L 1131 2622 
L 3281 2622 
L 3281 2081 
L 1131 2081 
L 1131 0 
L 525 0 
z
" transform="scale(0.015625)"/>
        <path id="ArialMT-4c" d="M 469 0 
L 469 4581 
L 1075 4581 
L 1075 541 
L 3331 541 
L 3331 0 
L 469 0 
z
" transform="scale(0.015625)"/>
        <path id="ArialMT-4f" d="M 309 2231 
Q 309 3372 921 4017 
Q 1534 4663 2503 4663 
Q 3138 4663 3647 4359 
Q 4156 4056 4423 3514 
Q 4691 2972 4691 2284 
Q 4691 1588 4409 1038 
Q 4128 488 3612 205 
Q 3097 -78 2500 -78 
Q 1853 -78 1343 234 
Q 834 547 571 1087 
Q 309 1628 309 2231 
z
M 934 2222 
Q 934 1394 1379 917 
Q 1825 441 2497 441 
Q 3181 441 3623 922 
Q 4066 1403 4066 2288 
Q 4066 2847 3877 3264 
Q 3688 3681 3323 3911 
Q 2959 4141 2506 4141 
Q 1863 4141 1398 3698 
Q 934 3256 934 2222 
z
" transform="scale(0.015625)"/>
        <path id="ArialMT-50" d="M 494 0 
L 494 4581 
L 2222 4581 
Q 2678 4581 2919 4538 
Q 3256 4481 3484 4323 
Q 3713 4166 3852 3881 
Q 3991 3597 3991 3256 
Q 3991 2672 3619 2267 
Q 3247 1863 2275 1863 
L 1100 1863 
L 1100 0 
L 494 0 
z
M 1100 2403 
L 2284 2403 
Q 2872 2403 3119 2622 
Q 3366 2841 3366 3238 
Q 3366 3525 3220 3729 
Q 3075 3934 2838 4000 
Q 2684 4041 2272 4041 
L 1100 4041 
L 1100 2403 
z
" transform="scale(0.015625)"/>
        <path id="ArialMT-2f" d="M 0 -78 
L 1328 4659 
L 1778 4659 
L 453 -78 
L 0 -78 
z
" transform="scale(0.015625)"/>
        <path id="ArialMT-73" d="M 197 991 
L 753 1078 
Q 800 744 1014 566 
Q 1228 388 1613 388 
Q 2000 388 2187 545 
Q 2375 703 2375 916 
Q 2375 1106 2209 1216 
Q 2094 1291 1634 1406 
Q 1016 1563 777 1677 
Q 538 1791 414 1992 
Q 291 2194 291 2438 
Q 291 2659 392 2848 
Q 494 3038 669 3163 
Q 800 3259 1026 3326 
Q 1253 3394 1513 3394 
Q 1903 3394 2198 3281 
Q 2494 3169 2634 2976 
Q 2775 2784 2828 2463 
L 2278 2388 
Q 2241 2644 2061 2787 
Q 1881 2931 1553 2931 
Q 1166 2931 1000 2803 
Q 834 2675 834 2503 
Q 834 2394 903 2306 
Q 972 2216 1119 2156 
Q 1203 2125 1616 2013 
Q 2213 1853 2448 1751 
Q 2684 1650 2818 1456 
Q 2953 1263 2953 975 
Q 2953 694 2789 445 
Q 2625 197 2315 61 
Q 2006 -75 1616 -75 
Q 969 -75 630 194 
Q 291 463 197 991 
z
" transform="scale(0.015625)"/>
        <path id="ArialMT-29" d="M 791 -1347 
L 388 -1347 
Q 1322 153 1322 1656 
Q 1322 2244 1188 2822 
Q 1081 3291 891 3722 
Q 769 4003 388 4659 
L 791 4659 
Q 1378 3875 1659 3084 
Q 1900 2403 1900 1659 
Q 1900 816 1576 28 
Q 1253 -759 791 -1347 
z
" transform="scale(0.015625)"/>
       </defs>
       <use xlink:href="#ArialMT-43"/>
       <use xlink:href="#ArialMT-6f" x="72.216797"/>
       <use xlink:href="#ArialMT-6d" x="127.832031"/>
       <use xlink:href="#ArialMT-70" x="211.132812"/>
       <use xlink:href="#ArialMT-75" x="266.748047"/>
       <use xlink:href="#ArialMT-74" x="322.363281"/>
       <use xlink:href="#ArialMT-65" x="350.146484"/>
       <use xlink:href="#ArialMT-20" x="405.761719"/>
       <use xlink:href="#ArialMT-28" x="433.544922"/>
       <use xlink:href="#ArialMT-46" x="466.845703"/>
       <use xlink:href="#ArialMT-4c" x="527.929688"/>
       <use xlink:href="#ArialMT-4f" x="583.544922"/>
       <use xlink:href="#ArialMT-50" x="661.328125"/>
       <use xlink:href="#ArialMT-2f" x="728.027344"/>
       <use xlink:href="#ArialMT-73" x="755.810547"/>
       <use xlink:href="#ArialMT-29" x="805.810547"/>
      </g>
     </g>
    </g>
    <g id="xtick_2">
     <g id="text_2">
      <!-- Storage (bytes) -->
      <g style="fill: #4a4a5a" transform="translate(586.056551 528.467188) scale(0.12 -0.12)">
       <defs>
        <path id="ArialMT-53" d="M 288 1472 
L 859 1522 
Q 900 1178 1048 958 
Q 1197 738 1509 602 
Q 1822 466 2213 466 
Q 2559 466 2825 569 
Q 3091 672 3220 851 
Q 3350 1031 3350 1244 
Q 3350 1459 3225 1620 
Q 3100 1781 2813 1891 
Q 2628 1963 1997 2114 
Q 1366 2266 1113 2400 
Q 784 2572 623 2826 
Q 463 3081 463 3397 
Q 463 3744 659 4045 
Q 856 4347 1234 4503 
Q 1613 4659 2075 4659 
Q 2584 4659 2973 4495 
Q 3363 4331 3572 4012 
Q 3781 3694 3797 3291 
L 3216 3247 
Q 3169 3681 2898 3903 
Q 2628 4125 2100 4125 
Q 1550 4125 1298 3923 
Q 1047 3722 1047 3438 
Q 1047 3191 1225 3031 
Q 1400 2872 2139 2705 
Q 2878 2538 3153 2413 
Q 3553 2228 3743 1945 
Q 3934 1663 3934 1294 
Q 3934 928 3725 604 
Q 3516 281 3123 101 
Q 2731 -78 2241 -78 
Q 1619 -78 1198 103 
Q 778 284 539 648 
Q 300 1013 288 1472 
z
" transform="scale(0.015625)"/>
        <path id="ArialMT-72" d="M 416 0 
L 416 3319 
L 922 3319 
L 922 2816 
Q 1116 3169 1280 3281 
Q 1444 3394 1641 3394 
Q 1925 3394 2219 3213 
L 2025 2691 
Q 1819 2813 1613 2813 
Q 1428 2813 1281 2702 
Q 1134 2591 1072 2394 
Q 978 2094 978 1738 
L 978 0 
L 416 0 
z
" transform="scale(0.015625)"/>
        <path id="ArialMT-61" d="M 2588 409 
Q 2275 144 1986 34 
Q 1697 -75 1366 -75 
Q 819 -75 525 192 
Q 231 459 231 875 
Q 231 1119 342 1320 
Q 453 1522 633 1644 
Q 813 1766 1038 1828 
Q 1203 1872 1538 1913 
Q 2219 1994 2541 2106 
Q 2544 2222 2544 2253 
Q 2544 2597 2384 2738 
Q 2169 2928 1744 2928 
Q 1347 2928 1158 2789 
Q 969 2650 878 2297 
L 328 2372 
Q 403 2725 575 2942 
Q 747 3159 1072 3276 
Q 1397 3394 1825 3394 
Q 2250 3394 2515 3294 
Q 2781 3194 2906 3042 
Q 3031 2891 3081 2659 
Q 3109 2516 3109 2141 
L 3109 1391 
Q 3109 606 3145 398 
Q 3181 191 3288 0 
L 2700 0 
Q 2613 175 2588 409 
z
M 2541 1666 
Q 2234 1541 1622 1453 
Q 1275 1403 1131 1340 
Q 988 1278 909 1158 
Q 831 1038 831 891 
Q 831 666 1001 516 
Q 1172 366 1500 366 
Q 1825 366 2078 508 
Q 2331 650 2450 897 
Q 2541 1088 2541 1459 
L 2541 1666 
z
" transform="scale(0.015625)"/>
        <path id="ArialMT-67" d="M 319 -275 
L 866 -356 
Q 900 -609 1056 -725 
Q 1266 -881 1628 -881 
Q 2019 -881 2231 -725 
Q 2444 -569 2519 -288 
Q 2563 -116 2559 434 
Q 2191 0 1641 0 
Q 956 0 581 494 
Q 206 988 206 1678 
Q 206 2153 378 2554 
Q 550 2956 876 3175 
Q 1203 3394 1644 3394 
Q 2231 3394 2613 2919 
L 2613 3319 
L 3131 3319 
L 3131 450 
Q 3131 -325 2973 -648 
Q 2816 -972 2473 -1159 
Q 2131 -1347 1631 -1347 
Q 1038 -1347 672 -1080 
Q 306 -813 319 -275 
z
M 784 1719 
Q 784 1066 1043 766 
Q 1303 466 1694 466 
Q 2081 466 2343 764 
Q 2606 1063 2606 1700 
Q 2606 2309 2336 2618 
Q 2066 2928 1684 2928 
Q 1309 2928 1046 2623 
Q 784 2319 784 1719 
z
" transform="scale(0.015625)"/>
        <path id="ArialMT-62" d="M 941 0 
L 419 0 
L 419 4581 
L 981 4581 
L 981 2947 
Q 1338 3394 1891 3394 
Q 2197 3394 2470 3270 
Q 2744 3147 2920 2923 
Q 3097 2700 3197 2384 
Q 3297 2069 3297 1709 
Q 3297 856 2875 390 
Q 2453 -75 1863 -75 
Q 1275 -75 941 416 
L 941 0 
z
M 934 1684 
Q 934 1088 1097 822 
Q 1363 388 1816 388 
Q 2184 388 2453 708 
Q 2722 1028 2722 1663 
Q 2722 2313 2464 2622 
Q 2206 2931 1841 2931 
Q 1472 2931 1203 2611 
Q 934 2291 934 1684 
z
" transform="scale(0.015625)"/>
        <path id="ArialMT-79" d="M 397 -1278 
L 334 -750 
Q 519 -800 656 -800 
Q 844 -800 956 -737 
Q 1069 -675 1141 -563 
Q 1194 -478 1313 -144 
Q 1328 -97 1363 -6 
L 103 3319 
L 709 3319 
L 1400 1397 
Q 1534 1031 1641 628 
Q 1738 1016 1872 1384 
L 2581 3319 
L 3144 3319 
L 1881 -56 
Q 1678 -603 1566 -809 
Q 1416 -1088 1222 -1217 
Q 1028 -1347 759 -1347 
Q 597 -1347 397 -1278 
z
" transform="scale(0.015625)"/>
       </defs>
       <use xlink:href="#ArialMT-53"/>
       <use xlink:href="#ArialMT-74" x="66.699219"/>
       <use xlink:href="#ArialMT-6f" x="94.482422"/>
       <use xlink:href="#ArialMT-72" x="150.097656"/>
       <use xlink:href="#ArialMT-61" x="183.398438"/>
       <use xlink:href="#ArialMT-67" x="239.013672"/>
       <use xlink:href="#ArialMT-65" x="294.628906"/>
       <use xlink:href="#ArialMT-20" x="350.244141"/>
       <use xlink:href="#ArialMT-28" x="378.027344"/>
       <use xlink:href="#ArialMT-62" x="411.328125"/>
       <use xlink:href="#ArialMT-79" x="466.943359"/>
       <use xlink:href="#ArialMT-74" x="516.943359"/>
       <use xlink:href="#ArialMT-65" x="544.726562"/>
       <use xlink:href="#ArialMT-73" x="600.341797"/>
       <use xlink:href="#ArialMT-29" x="650.341797"/>
      </g>
     </g>
    </g>
   </g>
   <g id="matplotlib.axis_2">
    <g id="ytick_1">
     <g id="line2d_1">
      <path d="M 132.235813 487.770386 
L 650.635812 487.770386 
" clip-path="url(#p9fc199b92e)" style="fill: none; stroke: #e8e5e1; stroke-opacity: 0.8; stroke-linecap: round"/>
     </g>
     <g id="text_3">
      <!-- $10^{6}$ -->
      <g style="fill: #4a4a5a" transform="translate(103.375813 491.792261) scale(0.11 -0.11)">
       <defs>
        <path id="DejaVuSans-31" d="M 794 531 
L 1825 531 
L 1825 4091 
L 703 3866 
L 703 4441 
L 1819 4666 
L 2450 4666 
L 2450 531 
L 3481 531 
L 3481 0 
L 794 0 
L 794 531 
z
" transform="scale(0.015625)"/>
        <path id="DejaVuSans-30" d="M 2034 4250 
Q 1547 4250 1301 3770 
Q 1056 3291 1056 2328 
Q 1056 1369 1301 889 
Q 1547 409 2034 409 
Q 2525 409 2770 889 
Q 3016 1369 3016 2328 
Q 3016 3291 2770 3770 
Q 2525 4250 2034 4250 
z
M 2034 4750 
Q 2819 4750 3233 4129 
Q 3647 3509 3647 2328 
Q 3647 1150 3233 529 
Q 2819 -91 2034 -91 
Q 1250 -91 836 529 
Q 422 1150 422 2328 
Q 422 3509 836 4129 
Q 1250 4750 2034 4750 
z
" transform="scale(0.015625)"/>
        <path id="DejaVuSans-36" d="M 2113 2584 
Q 1688 2584 1439 2293 
Q 1191 2003 1191 1497 
Q 1191 994 1439 701 
Q 1688 409 2113 409 
Q 2538 409 2786 701 
Q 3034 994 3034 1497 
Q 3034 2003 2786 2293 
Q 2538 2584 2113 2584 
z
M 3366 4563 
L 3366 3988 
Q 3128 4100 2886 4159 
Q 2644 4219 2406 4219 
Q 1781 4219 1451 3797 
Q 1122 3375 1075 2522 
Q 1259 2794 1537 2939 
Q 1816 3084 2150 3084 
Q 2853 3084 3261 2657 
Q 3669 2231 3669 1497 
Q 3669 778 3244 343 
Q 2819 -91 2113 -91 
Q 1303 -91 875 529 
Q 447 1150 447 2328 
Q 447 3434 972 4092 
Q 1497 4750 2381 4750 
Q 2619 4750 2861 4703 
Q 3103 4656 3366 4563 
z
" transform="scale(0.015625)"/>
       </defs>
       <use xlink:href="#DejaVuSans-31" transform="translate(0 0.765625)"/>
       <use xlink:href="#DejaVuSans-30" transform="translate(63.623047 0.765625)"/>
       <use xlink:href="#DejaVuSans-36" transform="translate(128.203125 39.046875) scale(0.7)"/>
      </g>
     </g>
    </g>
    <g id="ytick_2">
     <g id="line2d_2">
      <path d="M 132.235813 402.386857 
L 650.635812 402.386857 
" clip-path="url(#p9fc199b92e)" style="fill: none; stroke: #e8e5e1; stroke-opacity: 0.8; stroke-linecap: round"/>
     </g>
     <g id="text_4">
      <!-- $10^{9}$ -->
      <g style="fill: #4a4a5a" transform="translate(103.375813 406.408732) scale(0.11 -0.11)">
       <defs>
        <path id="DejaVuSans-39" d="M 703 97 
L 703 672 
Q 941 559 1184 500 
Q 1428 441 1663 441 
Q 2288 441 2617 861 
Q 2947 1281 2994 2138 
Q 2813 1869 2534 1725 
Q 2256 1581 1919 1581 
Q 1219 1581 811 2004 
Q 403 2428 403 3163 
Q 403 3881 828 4315 
Q 1253 4750 1959 4750 
Q 2769 4750 3195 4129 
Q 3622 3509 3622 2328 
Q 3622 1225 3098 567 
Q 2575 -91 1691 -91 
Q 1453 -91 1209 -44 
Q 966 3 703 97 
z
M 1959 2075 
Q 2384 2075 2632 2365 
Q 2881 2656 2881 3163 
Q 2881 3666 2632 3958 
Q 2384 4250 1959 4250 
Q 1534 4250 1286 3958 
Q 1038 3666 1038 3163 
Q 1038 2656 1286 2365 
Q 1534 2075 1959 2075 
z
" transform="scale(0.015625)"/>
       </defs>
       <use xlink:href="#DejaVuSans-31" transform="translate(0 0.765625)"/>
       <use xlink:href="#DejaVuSans-30" transform="translate(63.623047 0.765625)"/>
       <use xlink:href="#DejaVuSans-39" transform="translate(128.203125 39.046875) scale(0.7)"/>
      </g>
     </g>
    </g>
    <g id="ytick_3">
     <g id="line2d_3">
      <path d="M 132.235813 317.003327 
L 650.635812 317.003327 
" clip-path="url(#p9fc199b92e)" style="fill: none; stroke: #e8e5e1; stroke-opacity: 0.8; stroke-linecap: round"/>
     </g>
     <g id="text_5">
      <!-- $10^{12}$ -->
      <g style="fill: #4a4a5a" transform="translate(98.425813 321.025202) scale(0.11 -0.11)">
       <defs>
        <path id="DejaVuSans-32" d="M 1228 531 
L 3431 531 
L 3431 0 
L 469 0 
L 469 531 
Q 828 903 1448 1529 
Q 2069 2156 2228 2338 
Q 2531 2678 2651 2914 
Q 2772 3150 2772 3378 
Q 2772 3750 2511 3984 
Q 2250 4219 1831 4219 
Q 1534 4219 1204 4116 
Q 875 4013 500 3803 
L 500 4441 
Q 881 4594 1212 4672 
Q 1544 4750 1819 4750 
Q 2544 4750 2975 4387 
Q 3406 4025 3406 3419 
Q 3406 3131 3298 2873 
Q 3191 2616 2906 2266 
Q 2828 2175 2409 1742 
Q 1991 1309 1228 531 
z
" transform="scale(0.015625)"/>
       </defs>
       <use xlink:href="#DejaVuSans-31" transform="translate(0 0.765625)"/>
       <use xlink:href="#DejaVuSans-30" transform="translate(63.623047 0.765625)"/>
       <use xlink:href="#DejaVuSans-31" transform="translate(128.203125 39.046875) scale(0.7)"/>
       <use xlink:href="#DejaVuSans-32" transform="translate(172.739258 39.046875) scale(0.7)"/>
      </g>
     </g>
    </g>
    <g id="ytick_4">
     <g id="line2d_4">
      <path d="M 132.235813 231.619798 
L 650.635812 231.619798 
" clip-path="url(#p9fc199b92e)" style="fill: none; stroke: #e8e5e1; stroke-opacity: 0.8; stroke-linecap: round"/>
     </g>
     <g id="text_6">
      <!-- $10^{15}$ -->
      <g style="fill: #4a4a5a" transform="translate(98.425813 235.586673) scale(0.11 -0.11)">
       <defs>
        <path id="DejaVuSans-35" d="M 691 4666 
L 3169 4666 
L 3169 4134 
L 1269 4134 
L 1269 2991 
Q 1406 3038 1543 3061 
Q 1681 3084 1819 3084 
Q 2600 3084 3056 2656 
Q 3513 2228 3513 1497 
Q 3513 744 3044 326 
Q 2575 -91 1722 -91 
Q 1428 -91 1123 -41 
Q 819 9 494 109 
L 494 744 
Q 775 591 1075 516 
Q 1375 441 1709 441 
Q 2250 441 2565 725 
Q 2881 1009 2881 1497 
Q 2881 1984 2565 2268 
Q 2250 2553 1709 2553 
Q 1456 2553 1204 2497 
Q 953 2441 691 2322 
L 691 4666 
z
" transform="scale(0.015625)"/>
       </defs>
       <use xlink:href="#DejaVuSans-31" transform="translate(0 0.684375)"/>
       <use xlink:href="#DejaVuSans-30" transform="translate(63.623047 0.684375)"/>
       <use xlink:href="#DejaVuSans-31" transform="translate(128.203125 38.965625) scale(0.7)"/>
       <use xlink:href="#DejaVuSans-35" transform="translate(172.739258 38.965625) scale(0.7)"/>
      </g>
     </g>
    </g>
    <g id="ytick_5">
     <g id="line2d_5">
      <path d="M 132.235813 146.236268 
L 650.635812 146.236268 
" clip-path="url(#p9fc199b92e)" style="fill: none; stroke: #e8e5e1; stroke-opacity: 0.8; stroke-linecap: round"/>
     </g>
     <g id="text_7">
      <!-- $10^{18}$ -->
      <g style="fill: #4a4a5a" transform="translate(98.425813 150.258143) scale(0.11 -0.11)">
       <defs>
        <path id="DejaVuSans-38" d="M 2034 2216 
Q 1584 2216 1326 1975 
Q 1069 1734 1069 1313 
Q 1069 891 1326 650 
Q 1584 409 2034 409 
Q 2484 409 2743 651 
Q 3003 894 3003 1313 
Q 3003 1734 2745 1975 
Q 2488 2216 2034 2216 
z
M 1403 2484 
Q 997 2584 770 2862 
Q 544 3141 544 3541 
Q 544 4100 942 4425 
Q 1341 4750 2034 4750 
Q 2731 4750 3128 4425 
Q 3525 4100 3525 3541 
Q 3525 3141 3298 2862 
Q 3072 2584 2669 2484 
Q 3125 2378 3379 2068 
Q 3634 1759 3634 1313 
Q 3634 634 3220 271 
Q 2806 -91 2034 -91 
Q 1263 -91 848 271 
Q 434 634 434 1313 
Q 434 1759 690 2068 
Q 947 2378 1403 2484 
z
M 1172 3481 
Q 1172 3119 1398 2916 
Q 1625 2713 2034 2713 
Q 2441 2713 2670 2916 
Q 2900 3119 2900 3481 
Q 2900 3844 2670 4047 
Q 2441 4250 2034 4250 
Q 1625 4250 1398 4047 
Q 1172 3844 1172 3481 
z
" transform="scale(0.015625)"/>
       </defs>
       <use xlink:href="#DejaVuSans-31" transform="translate(0 0.765625)"/>
       <use xlink:href="#DejaVuSans-30" transform="translate(63.623047 0.765625)"/>
       <use xlink:href="#DejaVuSans-31" transform="translate(128.203125 39.046875) scale(0.7)"/>
       <use xlink:href="#DejaVuSans-38" transform="translate(172.739258 39.046875) scale(0.7)"/>
      </g>
     </g>
    </g>
    <g id="ytick_6">
     <g id="line2d_6">
      <path d="M 132.235813 60.852739 
L 650.635812 60.852739 
" clip-path="url(#p9fc199b92e)" style="fill: none; stroke: #e8e5e1; stroke-opacity: 0.8; stroke-linecap: round"/>
     </g>
     <g id="text_8">
      <!-- $10^{21}$ -->
      <g style="fill: #4a4a5a" transform="translate(98.425813 64.874614) scale(0.11 -0.11)">
       <use xlink:href="#DejaVuSans-31" transform="translate(0 0.765625)"/>
       <use xlink:href="#DejaVuSans-30" transform="translate(63.623047 0.765625)"/>
       <use xlink:href="#DejaVuSans-32" transform="translate(128.203125 39.046875) scale(0.7)"/>
       <use xlink:href="#DejaVuSans-31" transform="translate(172.739258 39.046875) scale(0.7)"/>
      </g>
     </g>
    </g>
   </g>
   <g id="patch_3">
    <path d="M 155.799449 470.150261 
L 155.799449 401.783784 
L 627.072176 500.606284 
L 627.072176 509.967027 
z
" clip-path="url(#p9fc199b92e)" style="fill: #c7bddc; opacity: 0.6; stroke: #d8d4cf; stroke-linejoin: miter"/>
   </g>
   <g id="patch_4">
    <path d="M 155.799449 372.974401 
L 155.799449 325.302011 
L 627.072176 404.037376 
L 627.072176 412.732839 
z
" clip-path="url(#p9fc199b92e)" style="fill: #e8d4a8; opacity: 0.6; stroke: #d8d4cf; stroke-linejoin: miter"/>
   </g>
   <g id="patch_5">
    <path d="M 155.799449 276.265031 
L 155.799449 246.096242 
L 627.072176 307.427287 
L 627.072176 316.052048 
z
" clip-path="url(#p9fc199b92e)" style="fill: #a8c9d4; opacity: 0.6; stroke: #d8d4cf; stroke-linejoin: miter"/>
   </g>
   <g id="patch_6">
    <path d="M 155.799449 188.032106 
L 155.799449 176.461494 
L 627.072176 219.206096 
L 627.072176 227.819123 
z
" clip-path="url(#p9fc199b92e)" style="fill: #d4b8a8; opacity: 0.6; stroke: #d8d4cf; stroke-linejoin: miter"/>
   </g>
   <g id="line2d_7">
    <path d="M 155.799449 292.26397 
L 627.072176 354.536753 
" clip-path="url(#p9fc199b92e)" style="fill: none; stroke: #d4a84b; stroke-width: 2.5; stroke-linecap: round"/>
    <defs>
     <path id="md7557e4dbf" d="M 0 3 
C 0.795609 3 1.55874 2.683901 2.12132 2.12132 
C 2.683901 1.55874 3 0.795609 3 0 
C 3 -0.795609 2.683901 -1.55874 2.12132 -2.12132 
C 1.55874 -2.683901 0.795609 -3 0 -3 
C -0.795609 -3 -1.55874 -2.683901 -2.12132 -2.12132 
C -2.683901 -1.55874 -3 -0.795609 -3 0 
C -3 0.795609 -2.683901 1.55874 -2.12132 2.12132 
C -1.55874 2.683901 -0.795609 3 0 3 
z
" style="stroke: #ffffff; stroke-width: 1.5"/>
    </defs>
    <g clip-path="url(#p9fc199b92e)">
     <use xlink:href="#md7557e4dbf" x="155.799449" y="292.26397" style="fill: #d4a84b; stroke: #ffffff; stroke-width: 1.5"/>
     <use xlink:href="#md7557e4dbf" x="627.072176" y="354.536753" style="fill: #d4a84b; stroke: #ffffff; stroke-width: 1.5"/>
    </g>
   </g>
   <g id="line2d_8">
    <path d="M 155.799449 276.265031 
L 627.072176 337.530848 
" clip-path="url(#p9fc199b92e)" style="fill: none; stroke: #4a90a4; stroke-width: 2.5; stroke-linecap: round"/>
    <defs>
     <path id="m6f0279ee87" d="M 0 3 
C 0.795609 3 1.55874 2.683901 2.12132 2.12132 
C 2.683901 1.55874 3 0.795609 3 0 
C 3 -0.795609 2.683901 -1.55874 2.12132 -2.12132 
C 1.55874 -2.683901 0.795609 -3 0 -3 
C -0.795609 -3 -1.55874 -2.683901 -2.12132 -2.12132 
C -2.683901 -1.55874 -3 -0.795609 -3 0 
C -3 0.795609 -2.683901 1.55874 -2.12132 2.12132 
C -1.55874 2.683901 -0.795609 3 0 3 
z
" style="stroke: #ffffff; stroke-width: 1.5"/>
    </defs>
    <g clip-path="url(#p9fc199b92e)">
     <use xlink:href="#m6f0279ee87" x="155.799449" y="276.265031" style="fill: #4a90a4; stroke: #ffffff; stroke-width: 1.5"/>
     <use xlink:href="#m6f0279ee87" x="627.072176" y="337.530848" style="fill: #4a90a4; stroke: #ffffff; stroke-width: 1.5"/>
    </g>
   </g>
   <g id="line2d_9">
    <path d="M 155.799449 246.096242 
L 627.072176 348.222677 
" clip-path="url(#p9fc199b92e)" style="fill: none; stroke: #6b6080; stroke-width: 2.5; stroke-linecap: round"/>
    <defs>
     <path id="mb07faf4684" d="M 0 3 
C 0.795609 3 1.55874 2.683901 2.12132 2.12132 
C 2.683901 1.55874 3 0.795609 3 0 
C 3 -0.795609 2.683901 -1.55874 2.12132 -2.12132 
C 1.55874 -2.683901 0.795609 -3 0 -3 
C -0.795609 -3 -1.55874 -2.683901 -2.12132 -2.12132 
C -2.683901 -1.55874 -3 -0.795609 -3 0 
C -3 0.795609 -2.683901 1.55874 -2.12132 2.12132 
C -1.55874 2.683901 -0.795609 3 0 3 
z
" style="stroke: #ffffff; stroke-width: 1.5"/>
    </defs>
    <g clip-path="url(#p9fc199b92e)">
     <use xlink:href="#mb07faf4684" x="155.799449" y="246.096242" style="fill: #6b6080; stroke: #ffffff; stroke-width: 1.5"/>
     <use xlink:href="#mb07faf4684" x="627.072176" y="348.222677" style="fill: #6b6080; stroke: #ffffff; stroke-width: 1.5"/>
    </g>
   </g>
   <g id="line2d_10">
    <path d="M 155.799449 233.774898 
L 627.072176 346.229317 
" clip-path="url(#p9fc199b92e)" style="fill: none; stroke: #8b7355; stroke-width: 2.5; stroke-linecap: round"/>
    <defs>
     <path id="mfc0a11abd7" d="M 0 3 
C 0.795609 3 1.55874 2.683901 2.12132 2.12132 
C 2.683901 1.55874 3 0.795609 3 0 
C 3 -0.795609 2.683901 -1.55874 2.12132 -2.12132 
C 1.55874 -2.683901 0.795609 -3 0 -3 
C -0.795609 -3 -1.55874 -2.683901 -2.12132 -2.12132 
C -2.683901 -1.55874 -3 -0.795609 -3 0 
C -3 0.795609 -2.683901 1.55874 -2.12132 2.12132 
C -1.55874 2.683901 -0.795609 3 0 3 
z
" style="stroke: #ffffff; stroke-width: 1.5"/>
    </defs>
    <g clip-path="url(#p9fc199b92e)">
     <use xlink:href="#mfc0a11abd7" x="155.799449" y="233.774898" style="fill: #8b7355; stroke: #ffffff; stroke-width: 1.5"/>
     <use xlink:href="#mfc0a11abd7" x="627.072176" y="346.229317" style="fill: #8b7355; stroke: #ffffff; stroke-width: 1.5"/>
    </g>
   </g>
   <g id="line2d_11">
    <path d="M 155.799449 163.371604 
L 627.072176 255.921998 
" clip-path="url(#p9fc199b92e)" style="fill: none; stroke: #5c8b6b; stroke-width: 2.5; stroke-linecap: round"/>
    <defs>
     <path id="m427f35ab4b" d="M 0 3 
C 0.795609 3 1.55874 2.683901 2.12132 2.12132 
C 2.683901 1.55874 3 0.795609 3 0 
C 3 -0.795609 2.683901 -1.55874 2.12132 -2.12132 
C 1.55874 -2.683901 0.795609 -3 0 -3 
C -0.795609 -3 -1.55874 -2.683901 -2.12132 -2.12132 
C -2.683901 -1.55874 -3 -0.795609 -3 0 
C -3 0.795609 -2.683901 1.55874 -2.12132 2.12132 
C -1.55874 2.683901 -0.795609 3 0 3 
z
" style="stroke: #ffffff; stroke-width: 1.5"/>
    </defs>
    <g clip-path="url(#p9fc199b92e)">
     <use xlink:href="#m427f35ab4b" x="155.799449" y="163.371604" style="fill: #5c8b6b; stroke: #ffffff; stroke-width: 1.5"/>
     <use xlink:href="#m427f35ab4b" x="627.072176" y="255.921998" style="fill: #5c8b6b; stroke: #ffffff; stroke-width: 1.5"/>
    </g>
   </g>
   <g id="line2d_12">
    <path d="M 155.799449 195.893266 
L 627.072176 312.844351 
" clip-path="url(#p9fc199b92e)" style="fill: none; stroke: #2ecc71; stroke-width: 2.5; stroke-linecap: round"/>
    <defs>
     <path id="m90e5b6d57c" d="M 0 3 
C 0.795609 3 1.55874 2.683901 2.12132 2.12132 
C 2.683901 1.55874 3 0.795609 3 0 
C 3 -0.795609 2.683901 -1.55874 2.12132 -2.12132 
C 1.55874 -2.683901 0.795609 -3 0 -3 
C -0.795609 -3 -1.55874 -2.683901 -2.12132 -2.12132 
C -2.683901 -1.55874 -3 -0.795609 -3 0 
C -3 0.795609 -2.683901 1.55874 -2.12132 2.12132 
C -1.55874 2.683901 -0.795609 3 0 3 
z
" style="stroke: #ffffff; stroke-width: 1.5"/>
    </defs>
    <g clip-path="url(#p9fc199b92e)">
     <use xlink:href="#m90e5b6d57c" x="155.799449" y="195.893266" style="fill: #2ecc71; stroke: #ffffff; stroke-width: 1.5"/>
     <use xlink:href="#m90e5b6d57c" x="627.072176" y="312.844351" style="fill: #2ecc71; stroke: #ffffff; stroke-width: 1.5"/>
    </g>
   </g>
   <g id="line2d_13">
    <path d="M 155.799449 329.979687 
L 627.072176 397.375092 
" clip-path="url(#p9fc199b92e)" style="fill: none; stroke: #8c564b; stroke-width: 2.5; stroke-linecap: round"/>
    <defs>
     <path id="m1da99cf83d" d="M 0 3 
C 0.795609 3 1.55874 2.683901 2.12132 2.12132 
C 2.683901 1.55874 3 0.795609 3 0 
C 3 -0.795609 2.683901 -1.55874 2.12132 -2.12132 
C 1.55874 -2.683901 0.795609 -3 0 -3 
C -0.795609 -3 -1.55874 -2.683901 -2.12132 -2.12132 
C -2.683901 -1.55874 -3 -0.795609 -3 0 
C -3 0.795609 -2.683901 1.55874 -2.12132 2.12132 
C -1.55874 2.683901 -0.795609 3 0 3 
z
" style="stroke: #ffffff; stroke-width: 1.5"/>
    </defs>
    <g clip-path="url(#p9fc199b92e)">
     <use xlink:href="#m1da99cf83d" x="155.799449" y="329.979687" style="fill: #8c564b; stroke: #ffffff; stroke-width: 1.5"/>
     <use xlink:href="#m1da99cf83d" x="627.072176" y="397.375092" style="fill: #8c564b; stroke: #ffffff; stroke-width: 1.5"/>
    </g>
   </g>
   <g id="line2d_14">
    <path d="M 155.799449 516.231563 
L 155.799449 32.391562 
" clip-path="url(#p9fc199b92e)" style="fill: none; stroke: #d8d4cf; stroke-width: 1.5; stroke-linecap: round"/>
   </g>
   <g id="line2d_15">
    <path d="M 627.072176 516.231563 
L 627.072176 32.391562 
" clip-path="url(#p9fc199b92e)" style="fill: none; stroke: #d8d4cf; stroke-width: 1.5; stroke-linecap: round"/>
   </g>
   <g id="text_9">
    <g id="patch_7">
     <path d="M 61.103125 462.857632 
L 108.907813 462.857632 
Q 112.407813 462.857632 112.407813 459.357632 
L 112.407813 449.973257 
Q 112.407813 446.473257 108.907813 446.473257 
L 61.103125 446.473257 
Q 57.603125 446.473257 57.603125 449.973257 
L 57.603125 459.357632 
Q 57.603125 462.857632 61.103125 462.857632 
z
" style="fill: #c7bddc; opacity: 0.85; stroke: #d8d4cf; stroke-linejoin: miter"/>
    </g>
    <!-- C. elegans -->
    <g style="fill: #4a4a5a" transform="translate(61.103125 457.252945) scale(0.1 -0.1)">
     <defs>
      <path id="ArialMT-2e" d="M 581 0 
L 581 641 
L 1222 641 
L 1222 0 
L 581 0 
z
" transform="scale(0.015625)"/>
      <path id="ArialMT-6c" d="M 409 0 
L 409 4581 
L 972 4581 
L 972 0 
L 409 0 
z
" transform="scale(0.015625)"/>
      <path id="ArialMT-6e" d="M 422 0 
L 422 3319 
L 928 3319 
L 928 2847 
Q 1294 3394 1984 3394 
Q 2284 3394 2536 3286 
Q 2788 3178 2913 3003 
Q 3038 2828 3088 2588 
Q 3119 2431 3119 2041 
L 3119 0 
L 2556 0 
L 2556 2019 
Q 2556 2363 2490 2533 
Q 2425 2703 2258 2804 
Q 2091 2906 1866 2906 
Q 1506 2906 1245 2678 
Q 984 2450 984 1813 
L 984 0 
L 422 0 
z
" transform="scale(0.015625)"/>
     </defs>
     <use xlink:href="#ArialMT-43"/>
     <use xlink:href="#ArialMT-2e" x="72.216797"/>
     <use xlink:href="#ArialMT-20" x="100"/>
     <use xlink:href="#ArialMT-65" x="127.783203"/>
     <use xlink:href="#ArialMT-6c" x="183.398438"/>
     <use xlink:href="#ArialMT-65" x="205.615234"/>
     <use xlink:href="#ArialMT-67" x="261.230469"/>
     <use xlink:href="#ArialMT-61" x="316.845703"/>
     <use xlink:href="#ArialMT-6e" x="372.460938"/>
     <use xlink:href="#ArialMT-73" x="428.076172"/>
    </g>
   </g>
   <g id="text_10">
    <g id="patch_8">
     <path d="M 7.2 344.07915 
L 108.907813 344.07915 
Q 112.407813 344.07915 112.407813 340.57915 
L 112.407813 331.311963 
Q 112.407813 327.811963 108.907813 327.811963 
L 7.2 327.811963 
Q 3.7 327.811963 3.7 331.311963 
L 3.7 340.57915 
Q 3.7 344.07915 7.2 344.07915 
z
" style="fill: #e8d4a8; opacity: 0.85; stroke: #d8d4cf; stroke-linejoin: miter"/>
    </g>
    <!-- Drosophila &amp; Zebrafish -->
    <g style="fill: #4a4a5a" transform="translate(7.2 338.59165) scale(0.1 -0.1)">
     <defs>
      <path id="ArialMT-44" d="M 494 0 
L 494 4581 
L 2072 4581 
Q 2606 4581 2888 4516 
Q 3281 4425 3559 4188 
Q 3922 3881 4101 3404 
Q 4281 2928 4281 2316 
Q 4281 1794 4159 1391 
Q 4038 988 3847 723 
Q 3656 459 3429 307 
Q 3203 156 2883 78 
Q 2563 0 2147 0 
L 494 0 
z
M 1100 541 
L 2078 541 
Q 2531 541 2789 625 
Q 3047 709 3200 863 
Q 3416 1078 3536 1442 
Q 3656 1806 3656 2325 
Q 3656 3044 3420 3430 
Q 3184 3816 2847 3947 
Q 2603 4041 2063 4041 
L 1100 4041 
L 1100 541 
z
" transform="scale(0.015625)"/>
      <path id="ArialMT-68" d="M 422 0 
L 422 4581 
L 984 4581 
L 984 2938 
Q 1378 3394 1978 3394 
Q 2347 3394 2619 3248 
Q 2891 3103 3008 2847 
Q 3125 2591 3125 2103 
L 3125 0 
L 2563 0 
L 2563 2103 
Q 2563 2525 2380 2717 
Q 2197 2909 1863 2909 
Q 1613 2909 1392 2779 
Q 1172 2650 1078 2428 
Q 984 2206 984 1816 
L 984 0 
L 422 0 
z
" transform="scale(0.015625)"/>
      <path id="ArialMT-69" d="M 425 3934 
L 425 4581 
L 988 4581 
L 988 3934 
L 425 3934 
z
M 425 0 
L 425 3319 
L 988 3319 
L 988 0 
L 425 0 
z
" transform="scale(0.015625)"/>
      <path id="ArialMT-26" d="M 3041 541 
Q 2763 231 2434 76 
Q 2106 -78 1725 -78 
Q 1022 -78 609 397 
Q 275 784 275 1263 
Q 275 1688 548 2030 
Q 822 2372 1366 2631 
Q 1056 2988 953 3209 
Q 850 3431 850 3638 
Q 850 4050 1173 4354 
Q 1497 4659 1988 4659 
Q 2456 4659 2754 4371 
Q 3053 4084 3053 3681 
Q 3053 3028 2188 2566 
L 3009 1519 
Q 3150 1794 3228 2156 
L 3813 2031 
Q 3663 1431 3406 1044 
Q 3722 625 4122 341 
L 3744 -106 
Q 3403 113 3041 541 
z
M 1897 2928 
Q 2263 3144 2370 3306 
Q 2478 3469 2478 3666 
Q 2478 3900 2329 4048 
Q 2181 4197 1959 4197 
Q 1731 4197 1579 4050 
Q 1428 3903 1428 3691 
Q 1428 3584 1483 3467 
Q 1538 3350 1647 3219 
L 1897 2928 
z
M 2688 984 
L 1656 2263 
Q 1200 1991 1040 1758 
Q 881 1525 881 1297 
Q 881 1019 1103 719 
Q 1325 419 1731 419 
Q 1984 419 2254 576 
Q 2525 734 2688 984 
z
" transform="scale(0.015625)"/>
      <path id="ArialMT-5a" d="M 128 0 
L 128 563 
L 2475 3497 
Q 2725 3809 2950 4041 
L 394 4041 
L 394 4581 
L 3675 4581 
L 3675 4041 
L 1103 863 
L 825 541 
L 3750 541 
L 3750 0 
L 128 0 
z
" transform="scale(0.015625)"/>
      <path id="ArialMT-66" d="M 556 0 
L 556 2881 
L 59 2881 
L 59 3319 
L 556 3319 
L 556 3672 
Q 556 4006 616 4169 
Q 697 4388 901 4523 
Q 1106 4659 1475 4659 
Q 1713 4659 2000 4603 
L 1916 4113 
Q 1741 4144 1584 4144 
Q 1328 4144 1222 4034 
Q 1116 3925 1116 3625 
L 1116 3319 
L 1763 3319 
L 1763 2881 
L 1116 2881 
L 1116 0 
L 556 0 
z
" transform="scale(0.015625)"/>
     </defs>
     <use xlink:href="#ArialMT-44"/>
     <use xlink:href="#ArialMT-72" x="72.216797"/>
     <use xlink:href="#ArialMT-6f" x="105.517578"/>
     <use xlink:href="#ArialMT-73" x="161.132812"/>
     <use xlink:href="#ArialMT-6f" x="211.132812"/>
     <use xlink:href="#ArialMT-70" x="266.748047"/>
     <use xlink:href="#ArialMT-68" x="322.363281"/>
     <use xlink:href="#ArialMT-69" x="377.978516"/>
     <use xlink:href="#ArialMT-6c" x="400.195312"/>
     <use xlink:href="#ArialMT-61" x="422.412109"/>
     <use xlink:href="#ArialMT-20" x="478.027344"/>
     <use xlink:href="#ArialMT-26" x="505.810547"/>
     <use xlink:href="#ArialMT-20" x="572.509766"/>
     <use xlink:href="#ArialMT-5a" x="600.292969"/>
     <use xlink:href="#ArialMT-65" x="661.376953"/>
     <use xlink:href="#ArialMT-62" x="716.992188"/>
     <use xlink:href="#ArialMT-72" x="772.607422"/>
     <use xlink:href="#ArialMT-61" x="805.908203"/>
     <use xlink:href="#ArialMT-66" x="861.523438"/>
     <use xlink:href="#ArialMT-69" x="889.306641"/>
     <use xlink:href="#ArialMT-73" x="911.523438"/>
     <use xlink:href="#ArialMT-68" x="961.523438"/>
    </g>
   </g>
   <g id="text_11">
    <g id="patch_9">
     <path d="M 78.895313 285.388248 
L 108.907813 285.388248 
Q 112.407813 285.388248 112.407813 281.888248 
L 112.407813 272.742936 
Q 112.407813 269.242936 108.907813 269.242936 
L 78.895313 269.242936 
Q 75.395313 269.242936 75.395313 272.742936 
L 75.395313 281.888248 
Q 75.395313 285.388248 78.895313 285.388248 
z
" style="fill: #a8c9d4; opacity: 0.85; stroke: #d8d4cf; stroke-linejoin: miter"/>
    </g>
    <!-- Mouse -->
    <g style="fill: #4a4a5a" transform="translate(78.895313 279.900748) scale(0.1 -0.1)">
     <defs>
      <path id="ArialMT-4d" d="M 475 0 
L 475 4581 
L 1388 4581 
L 2472 1338 
Q 2622 884 2691 659 
Q 2769 909 2934 1394 
L 4031 4581 
L 4847 4581 
L 4847 0 
L 4263 0 
L 4263 3834 
L 2931 0 
L 2384 0 
L 1059 3900 
L 1059 0 
L 475 0 
z
" transform="scale(0.015625)"/>
     </defs>
     <use xlink:href="#ArialMT-4d"/>
     <use xlink:href="#ArialMT-6f" x="83.300781"/>
     <use xlink:href="#ArialMT-75" x="138.916016"/>
     <use xlink:href="#ArialMT-73" x="194.53125"/>
     <use xlink:href="#ArialMT-65" x="244.53125"/>
    </g>
   </g>
   <g id="text_12">
    <g id="patch_10">
     <path d="M 76.673438 204.427659 
L 108.907813 204.427659 
Q 112.407813 204.427659 112.407813 200.927659 
L 112.407813 191.782347 
Q 112.407813 188.282347 108.907813 188.282347 
L 76.673438 188.282347 
Q 73.173438 188.282347 73.173438 191.782347 
L 73.173438 200.927659 
Q 73.173438 204.427659 76.673438 204.427659 
z
" style="fill: #d4b8a8; opacity: 0.85; stroke: #d8d4cf; stroke-linejoin: miter"/>
    </g>
    <!-- Human -->
    <g style="fill: #4a4a5a" transform="translate(76.673438 198.940159) scale(0.1 -0.1)">
     <defs>
      <path id="ArialMT-48" d="M 513 0 
L 513 4581 
L 1119 4581 
L 1119 2700 
L 3500 2700 
L 3500 4581 
L 4106 4581 
L 4106 0 
L 3500 0 
L 3500 2159 
L 1119 2159 
L 1119 0 
L 513 0 
z
" transform="scale(0.015625)"/>
     </defs>
     <use xlink:href="#ArialMT-48"/>
     <use xlink:href="#ArialMT-75" x="72.216797"/>
     <use xlink:href="#ArialMT-6d" x="127.832031"/>
     <use xlink:href="#ArialMT-61" x="211.132812"/>
     <use xlink:href="#ArialMT-6e" x="266.748047"/>
    </g>
   </g>
   <g id="text_13">
    <!-- Computer Systems vs Organism Simulation Requirements (Event-Driven) -->
    <g style="fill: #3a3a48" transform="translate(147.165344 17.391562) scale(0.14 -0.14)">
     <defs>
      <path id="Arial-BoldMT-43" d="M 3397 1684 
L 4294 1400 
Q 4088 650 3608 286 
Q 3128 -78 2391 -78 
Q 1478 -78 890 545 
Q 303 1169 303 2250 
Q 303 3394 893 4026 
Q 1484 4659 2447 4659 
Q 3288 4659 3813 4163 
Q 4125 3869 4281 3319 
L 3366 3100 
Q 3284 3456 3026 3662 
Q 2769 3869 2400 3869 
Q 1891 3869 1573 3503 
Q 1256 3138 1256 2319 
Q 1256 1450 1568 1081 
Q 1881 713 2381 713 
Q 2750 713 3015 947 
Q 3281 1181 3397 1684 
z
" transform="scale(0.015625)"/>
      <path id="Arial-BoldMT-6f" d="M 256 1706 
Q 256 2144 472 2553 
Q 688 2963 1083 3178 
Q 1478 3394 1966 3394 
Q 2719 3394 3200 2905 
Q 3681 2416 3681 1669 
Q 3681 916 3195 420 
Q 2709 -75 1972 -75 
Q 1516 -75 1102 131 
Q 688 338 472 736 
Q 256 1134 256 1706 
z
M 1156 1659 
Q 1156 1166 1390 903 
Q 1625 641 1969 641 
Q 2313 641 2545 903 
Q 2778 1166 2778 1666 
Q 2778 2153 2545 2415 
Q 2313 2678 1969 2678 
Q 1625 2678 1390 2415 
Q 1156 2153 1156 1659 
z
" transform="scale(0.015625)"/>
      <path id="Arial-BoldMT-6d" d="M 394 3319 
L 1203 3319 
L 1203 2866 
Q 1638 3394 2238 3394 
Q 2556 3394 2790 3262 
Q 3025 3131 3175 2866 
Q 3394 3131 3647 3262 
Q 3900 3394 4188 3394 
Q 4553 3394 4806 3245 
Q 5059 3097 5184 2809 
Q 5275 2597 5275 2122 
L 5275 0 
L 4397 0 
L 4397 1897 
Q 4397 2391 4306 2534 
Q 4184 2722 3931 2722 
Q 3747 2722 3584 2609 
Q 3422 2497 3350 2280 
Q 3278 2063 3278 1594 
L 3278 0 
L 2400 0 
L 2400 1819 
Q 2400 2303 2353 2443 
Q 2306 2584 2207 2653 
Q 2109 2722 1941 2722 
Q 1738 2722 1575 2612 
Q 1413 2503 1342 2297 
Q 1272 2091 1272 1613 
L 1272 0 
L 394 0 
L 394 3319 
z
" transform="scale(0.015625)"/>
      <path id="Arial-BoldMT-70" d="M 434 3319 
L 1253 3319 
L 1253 2831 
Q 1413 3081 1684 3237 
Q 1956 3394 2288 3394 
Q 2866 3394 3269 2941 
Q 3672 2488 3672 1678 
Q 3672 847 3265 386 
Q 2859 -75 2281 -75 
Q 2006 -75 1782 34 
Q 1559 144 1313 409 
L 1313 -1263 
L 434 -1263 
L 434 3319 
z
M 1303 1716 
Q 1303 1156 1525 889 
Q 1747 622 2066 622 
Q 2372 622 2575 867 
Q 2778 1113 2778 1672 
Q 2778 2194 2568 2447 
Q 2359 2700 2050 2700 
Q 1728 2700 1515 2451 
Q 1303 2203 1303 1716 
z
" transform="scale(0.015625)"/>
      <path id="Arial-BoldMT-75" d="M 2644 0 
L 2644 497 
Q 2463 231 2167 78 
Q 1872 -75 1544 -75 
Q 1209 -75 943 72 
Q 678 219 559 484 
Q 441 750 441 1219 
L 441 3319 
L 1319 3319 
L 1319 1794 
Q 1319 1094 1367 936 
Q 1416 778 1544 686 
Q 1672 594 1869 594 
Q 2094 594 2272 717 
Q 2450 841 2515 1023 
Q 2581 1206 2581 1919 
L 2581 3319 
L 3459 3319 
L 3459 0 
L 2644 0 
z
" transform="scale(0.015625)"/>
      <path id="Arial-BoldMT-74" d="M 1981 3319 
L 1981 2619 
L 1381 2619 
L 1381 1281 
Q 1381 875 1398 808 
Q 1416 741 1477 697 
Q 1538 653 1625 653 
Q 1747 653 1978 738 
L 2053 56 
Q 1747 -75 1359 -75 
Q 1122 -75 931 4 
Q 741 84 652 211 
Q 563 338 528 553 
Q 500 706 500 1172 
L 500 2619 
L 97 2619 
L 97 3319 
L 500 3319 
L 500 3978 
L 1381 4491 
L 1381 3319 
L 1981 3319 
z
" transform="scale(0.015625)"/>
      <path id="Arial-BoldMT-65" d="M 2381 1056 
L 3256 909 
Q 3088 428 2723 176 
Q 2359 -75 1813 -75 
Q 947 -75 531 491 
Q 203 944 203 1634 
Q 203 2459 634 2926 
Q 1066 3394 1725 3394 
Q 2466 3394 2894 2905 
Q 3322 2416 3303 1406 
L 1103 1406 
Q 1113 1016 1316 798 
Q 1519 581 1822 581 
Q 2028 581 2168 693 
Q 2309 806 2381 1056 
z
M 2431 1944 
Q 2422 2325 2234 2523 
Q 2047 2722 1778 2722 
Q 1491 2722 1303 2513 
Q 1116 2303 1119 1944 
L 2431 1944 
z
" transform="scale(0.015625)"/>
      <path id="Arial-BoldMT-72" d="M 1300 0 
L 422 0 
L 422 3319 
L 1238 3319 
L 1238 2847 
Q 1447 3181 1614 3287 
Q 1781 3394 1994 3394 
Q 2294 3394 2572 3228 
L 2300 2463 
Q 2078 2606 1888 2606 
Q 1703 2606 1575 2504 
Q 1447 2403 1373 2137 
Q 1300 1872 1300 1025 
L 1300 0 
z
" transform="scale(0.015625)"/>
      <path id="Arial-BoldMT-20" transform="scale(0.015625)"/>
      <path id="Arial-BoldMT-53" d="M 231 1491 
L 1131 1578 
Q 1213 1125 1461 912 
Q 1709 700 2131 700 
Q 2578 700 2804 889 
Q 3031 1078 3031 1331 
Q 3031 1494 2936 1608 
Q 2841 1722 2603 1806 
Q 2441 1863 1863 2006 
Q 1119 2191 819 2459 
Q 397 2838 397 3381 
Q 397 3731 595 4036 
Q 794 4341 1167 4500 
Q 1541 4659 2069 4659 
Q 2931 4659 3367 4281 
Q 3803 3903 3825 3272 
L 2900 3231 
Q 2841 3584 2645 3739 
Q 2450 3894 2059 3894 
Q 1656 3894 1428 3728 
Q 1281 3622 1281 3444 
Q 1281 3281 1419 3166 
Q 1594 3019 2269 2859 
Q 2944 2700 3267 2529 
Q 3591 2359 3773 2064 
Q 3956 1769 3956 1334 
Q 3956 941 3737 597 
Q 3519 253 3119 86 
Q 2719 -81 2122 -81 
Q 1253 -81 787 320 
Q 322 722 231 1491 
z
" transform="scale(0.015625)"/>
      <path id="Arial-BoldMT-79" d="M 44 3319 
L 978 3319 
L 1772 963 
L 2547 3319 
L 3456 3319 
L 2284 125 
L 2075 -453 
Q 1959 -744 1854 -897 
Q 1750 -1050 1614 -1145 
Q 1478 -1241 1279 -1294 
Q 1081 -1347 831 -1347 
Q 578 -1347 334 -1294 
L 256 -606 
Q 463 -647 628 -647 
Q 934 -647 1081 -467 
Q 1228 -288 1306 -9 
L 44 3319 
z
" transform="scale(0.015625)"/>
      <path id="Arial-BoldMT-73" d="M 150 947 
L 1031 1081 
Q 1088 825 1259 692 
Q 1431 559 1741 559 
Q 2081 559 2253 684 
Q 2369 772 2369 919 
Q 2369 1019 2306 1084 
Q 2241 1147 2013 1200 
Q 950 1434 666 1628 
Q 272 1897 272 2375 
Q 272 2806 612 3100 
Q 953 3394 1669 3394 
Q 2350 3394 2681 3172 
Q 3013 2950 3138 2516 
L 2309 2363 
Q 2256 2556 2107 2659 
Q 1959 2763 1684 2763 
Q 1338 2763 1188 2666 
Q 1088 2597 1088 2488 
Q 1088 2394 1175 2328 
Q 1294 2241 1995 2081 
Q 2697 1922 2975 1691 
Q 3250 1456 3250 1038 
Q 3250 581 2869 253 
Q 2488 -75 1741 -75 
Q 1063 -75 667 200 
Q 272 475 150 947 
z
" transform="scale(0.015625)"/>
      <path id="Arial-BoldMT-76" d="M 1372 0 
L 34 3319 
L 956 3319 
L 1581 1625 
L 1763 1059 
Q 1834 1275 1853 1344 
Q 1897 1484 1947 1625 
L 2578 3319 
L 3481 3319 
L 2163 0 
L 1372 0 
z
" transform="scale(0.015625)"/>
      <path id="Arial-BoldMT-4f" d="M 278 2263 
Q 278 2963 488 3438 
Q 644 3788 914 4066 
Q 1184 4344 1506 4478 
Q 1934 4659 2494 4659 
Q 3506 4659 4114 4031 
Q 4722 3403 4722 2284 
Q 4722 1175 4119 548 
Q 3516 -78 2506 -78 
Q 1484 -78 881 545 
Q 278 1169 278 2263 
z
M 1231 2294 
Q 1231 1516 1590 1114 
Q 1950 713 2503 713 
Q 3056 713 3411 1111 
Q 3766 1509 3766 2306 
Q 3766 3094 3420 3481 
Q 3075 3869 2503 3869 
Q 1931 3869 1581 3476 
Q 1231 3084 1231 2294 
z
" transform="scale(0.015625)"/>
      <path id="Arial-BoldMT-67" d="M 378 -219 
L 1381 -341 
Q 1406 -516 1497 -581 
Q 1622 -675 1891 -675 
Q 2234 -675 2406 -572 
Q 2522 -503 2581 -350 
Q 2622 -241 2622 53 
L 2622 538 
Q 2228 0 1628 0 
Q 959 0 569 566 
Q 263 1013 263 1678 
Q 263 2513 664 2953 
Q 1066 3394 1663 3394 
Q 2278 3394 2678 2853 
L 2678 3319 
L 3500 3319 
L 3500 341 
Q 3500 -247 3403 -537 
Q 3306 -828 3131 -993 
Q 2956 -1159 2664 -1253 
Q 2372 -1347 1925 -1347 
Q 1081 -1347 728 -1058 
Q 375 -769 375 -325 
Q 375 -281 378 -219 
z
M 1163 1728 
Q 1163 1200 1367 954 
Q 1572 709 1872 709 
Q 2194 709 2416 961 
Q 2638 1213 2638 1706 
Q 2638 2222 2425 2472 
Q 2213 2722 1888 2722 
Q 1572 2722 1367 2476 
Q 1163 2231 1163 1728 
z
" transform="scale(0.015625)"/>
      <path id="Arial-BoldMT-61" d="M 1116 2306 
L 319 2450 
Q 453 2931 781 3162 
Q 1109 3394 1756 3394 
Q 2344 3394 2631 3255 
Q 2919 3116 3036 2902 
Q 3153 2688 3153 2116 
L 3144 1091 
Q 3144 653 3186 445 
Q 3228 238 3344 0 
L 2475 0 
Q 2441 88 2391 259 
Q 2369 338 2359 363 
Q 2134 144 1878 34 
Q 1622 -75 1331 -75 
Q 819 -75 523 203 
Q 228 481 228 906 
Q 228 1188 362 1408 
Q 497 1628 739 1745 
Q 981 1863 1438 1950 
Q 2053 2066 2291 2166 
L 2291 2253 
Q 2291 2506 2166 2614 
Q 2041 2722 1694 2722 
Q 1459 2722 1328 2630 
Q 1197 2538 1116 2306 
z
M 2291 1594 
Q 2122 1538 1756 1459 
Q 1391 1381 1278 1306 
Q 1106 1184 1106 997 
Q 1106 813 1243 678 
Q 1381 544 1594 544 
Q 1831 544 2047 700 
Q 2206 819 2256 991 
Q 2291 1103 2291 1419 
L 2291 1594 
z
" transform="scale(0.015625)"/>
      <path id="Arial-BoldMT-6e" d="M 3478 0 
L 2600 0 
L 2600 1694 
Q 2600 2231 2544 2389 
Q 2488 2547 2361 2634 
Q 2234 2722 2056 2722 
Q 1828 2722 1647 2597 
Q 1466 2472 1398 2265 
Q 1331 2059 1331 1503 
L 1331 0 
L 453 0 
L 453 3319 
L 1269 3319 
L 1269 2831 
Q 1703 3394 2363 3394 
Q 2653 3394 2893 3289 
Q 3134 3184 3257 3021 
Q 3381 2859 3429 2653 
Q 3478 2447 3478 2063 
L 3478 0 
z
" transform="scale(0.015625)"/>
      <path id="Arial-BoldMT-69" d="M 459 3769 
L 459 4581 
L 1338 4581 
L 1338 3769 
L 459 3769 
z
M 459 0 
L 459 3319 
L 1338 3319 
L 1338 0 
L 459 0 
z
" transform="scale(0.015625)"/>
      <path id="Arial-BoldMT-6c" d="M 459 0 
L 459 4581 
L 1338 4581 
L 1338 0 
L 459 0 
z
" transform="scale(0.015625)"/>
      <path id="Arial-BoldMT-52" d="M 469 0 
L 469 4581 
L 2416 4581 
Q 3150 4581 3483 4457 
Q 3816 4334 4016 4018 
Q 4216 3703 4216 3297 
Q 4216 2781 3912 2445 
Q 3609 2109 3006 2022 
Q 3306 1847 3501 1637 
Q 3697 1428 4028 894 
L 4588 0 
L 3481 0 
L 2813 997 
Q 2456 1531 2325 1670 
Q 2194 1809 2047 1861 
Q 1900 1913 1581 1913 
L 1394 1913 
L 1394 0 
L 469 0 
z
M 1394 2644 
L 2078 2644 
Q 2744 2644 2909 2700 
Q 3075 2756 3169 2893 
Q 3263 3031 3263 3238 
Q 3263 3469 3139 3611 
Q 3016 3753 2791 3791 
Q 2678 3806 2116 3806 
L 1394 3806 
L 1394 2644 
z
" transform="scale(0.015625)"/>
      <path id="Arial-BoldMT-71" d="M 2628 -1263 
L 2628 406 
Q 2456 184 2200 54 
Q 1944 -75 1647 -75 
Q 1081 -75 716 350 
Q 284 847 284 1697 
Q 284 2497 689 2945 
Q 1094 3394 1694 3394 
Q 2025 3394 2267 3253 
Q 2509 3113 2697 2828 
L 2697 3319 
L 3506 3319 
L 3506 -1263 
L 2628 -1263 
z
M 2656 1700 
Q 2656 2209 2448 2457 
Q 2241 2706 1928 2706 
Q 1609 2706 1395 2453 
Q 1181 2200 1181 1650 
Q 1181 1103 1387 861 
Q 1594 619 1897 619 
Q 2200 619 2428 891 
Q 2656 1163 2656 1700 
z
" transform="scale(0.015625)"/>
      <path id="Arial-BoldMT-28" d="M 1916 -1347 
L 1313 -1347 
Q 834 -625 584 153 
Q 334 931 334 1659 
Q 334 2563 644 3369 
Q 913 4069 1325 4659 
L 1925 4659 
Q 1497 3713 1336 3048 
Q 1175 2384 1175 1641 
Q 1175 1128 1270 590 
Q 1366 53 1531 -431 
Q 1641 -750 1916 -1347 
z
" transform="scale(0.015625)"/>
      <path id="Arial-BoldMT-45" d="M 466 0 
L 466 4581 
L 3863 4581 
L 3863 3806 
L 1391 3806 
L 1391 2791 
L 3691 2791 
L 3691 2019 
L 1391 2019 
L 1391 772 
L 3950 772 
L 3950 0 
L 466 0 
z
" transform="scale(0.015625)"/>
      <path id="Arial-BoldMT-2d" d="M 359 1222 
L 359 2100 
L 2084 2100 
L 2084 1222 
L 359 1222 
z
" transform="scale(0.015625)"/>
      <path id="Arial-BoldMT-44" d="M 463 4581 
L 2153 4581 
Q 2725 4581 3025 4494 
Q 3428 4375 3715 4072 
Q 4003 3769 4153 3330 
Q 4303 2891 4303 2247 
Q 4303 1681 4163 1272 
Q 3991 772 3672 463 
Q 3431 228 3022 97 
Q 2716 0 2203 0 
L 463 0 
L 463 4581 
z
M 1388 3806 
L 1388 772 
L 2078 772 
Q 2466 772 2638 816 
Q 2863 872 3011 1006 
Q 3159 1141 3253 1448 
Q 3347 1756 3347 2288 
Q 3347 2819 3253 3103 
Q 3159 3388 2990 3547 
Q 2822 3706 2563 3763 
Q 2369 3806 1803 3806 
L 1388 3806 
z
" transform="scale(0.015625)"/>
      <path id="Arial-BoldMT-29" d="M 216 -1347 
Q 475 -791 581 -494 
Q 688 -197 778 190 
Q 869 578 912 926 
Q 956 1275 956 1641 
Q 956 2384 797 3048 
Q 638 3713 209 4659 
L 806 4659 
Q 1278 3988 1539 3234 
Q 1800 2481 1800 1706 
Q 1800 1053 1594 306 
Q 1359 -531 822 -1347 
L 216 -1347 
z
" transform="scale(0.015625)"/>
     </defs>
     <use xlink:href="#Arial-BoldMT-43"/>
     <use xlink:href="#Arial-BoldMT-6f" x="72.216797"/>
     <use xlink:href="#Arial-BoldMT-6d" x="133.300781"/>
     <use xlink:href="#Arial-BoldMT-70" x="222.216797"/>
     <use xlink:href="#Arial-BoldMT-75" x="283.300781"/>
     <use xlink:href="#Arial-BoldMT-74" x="344.384766"/>
     <use xlink:href="#Arial-BoldMT-65" x="377.685547"/>
     <use xlink:href="#Arial-BoldMT-72" x="433.300781"/>
     <use xlink:href="#Arial-BoldMT-20" x="472.216797"/>
     <use xlink:href="#Arial-BoldMT-53" x="500"/>
     <use xlink:href="#Arial-BoldMT-79" x="566.699219"/>
     <use xlink:href="#Arial-BoldMT-73" x="622.314453"/>
     <use xlink:href="#Arial-BoldMT-74" x="677.929688"/>
     <use xlink:href="#Arial-BoldMT-65" x="711.230469"/>
     <use xlink:href="#Arial-BoldMT-6d" x="766.845703"/>
     <use xlink:href="#Arial-BoldMT-73" x="855.761719"/>
     <use xlink:href="#Arial-BoldMT-20" x="911.376953"/>
     <use xlink:href="#Arial-BoldMT-76" x="939.160156"/>
     <use xlink:href="#Arial-BoldMT-73" x="994.775391"/>
     <use xlink:href="#Arial-BoldMT-20" x="1050.390625"/>
     <use xlink:href="#Arial-BoldMT-4f" x="1078.173828"/>
     <use xlink:href="#Arial-BoldMT-72" x="1155.957031"/>
     <use xlink:href="#Arial-BoldMT-67" x="1194.873047"/>
     <use xlink:href="#Arial-BoldMT-61" x="1255.957031"/>
     <use xlink:href="#Arial-BoldMT-6e" x="1311.572266"/>
     <use xlink:href="#Arial-BoldMT-69" x="1372.65625"/>
     <use xlink:href="#Arial-BoldMT-73" x="1400.439453"/>
     <use xlink:href="#Arial-BoldMT-6d" x="1456.054688"/>
     <use xlink:href="#Arial-BoldMT-20" x="1544.970703"/>
     <use xlink:href="#Arial-BoldMT-53" x="1572.753906"/>
     <use xlink:href="#Arial-BoldMT-69" x="1639.453125"/>
     <use xlink:href="#Arial-BoldMT-6d" x="1667.236328"/>
     <use xlink:href="#Arial-BoldMT-75" x="1756.152344"/>
     <use xlink:href="#Arial-BoldMT-6c" x="1817.236328"/>
     <use xlink:href="#Arial-BoldMT-61" x="1845.019531"/>
     <use xlink:href="#Arial-BoldMT-74" x="1900.634766"/>
     <use xlink:href="#Arial-BoldMT-69" x="1933.935547"/>
     <use xlink:href="#Arial-BoldMT-6f" x="1961.71875"/>
     <use xlink:href="#Arial-BoldMT-6e" x="2022.802734"/>
     <use xlink:href="#Arial-BoldMT-20" x="2083.886719"/>
     <use xlink:href="#Arial-BoldMT-52" x="2111.669922"/>
     <use xlink:href="#Arial-BoldMT-65" x="2183.886719"/>
     <use xlink:href="#Arial-BoldMT-71" x="2239.501953"/>
     <use xlink:href="#Arial-BoldMT-75" x="2300.585938"/>
     <use xlink:href="#Arial-BoldMT-69" x="2361.669922"/>
     <use xlink:href="#Arial-BoldMT-72" x="2389.453125"/>
     <use xlink:href="#Arial-BoldMT-65" x="2428.369141"/>
     <use xlink:href="#Arial-BoldMT-6d" x="2483.984375"/>
     <use xlink:href="#Arial-BoldMT-65" x="2572.900391"/>
     <use xlink:href="#Arial-BoldMT-6e" x="2628.515625"/>
     <use xlink:href="#Arial-BoldMT-74" x="2689.599609"/>
     <use xlink:href="#Arial-BoldMT-73" x="2722.900391"/>
     <use xlink:href="#Arial-BoldMT-20" x="2778.515625"/>
     <use xlink:href="#Arial-BoldMT-28" x="2806.298828"/>
     <use xlink:href="#Arial-BoldMT-45" x="2839.599609"/>
     <use xlink:href="#Arial-BoldMT-76" x="2906.298828"/>
     <use xlink:href="#Arial-BoldMT-65" x="2961.914062"/>
     <use xlink:href="#Arial-BoldMT-6e" x="3017.529297"/>
     <use xlink:href="#Arial-BoldMT-74" x="3078.613281"/>
     <use xlink:href="#Arial-BoldMT-2d" x="3111.914062"/>
     <use xlink:href="#Arial-BoldMT-44" x="3145.214844"/>
     <use xlink:href="#Arial-BoldMT-72" x="3217.431641"/>
     <use xlink:href="#Arial-BoldMT-69" x="3256.347656"/>
     <use xlink:href="#Arial-BoldMT-76" x="3284.130859"/>
     <use xlink:href="#Arial-BoldMT-65" x="3339.746094"/>
     <use xlink:href="#Arial-BoldMT-6e" x="3395.361328"/>
     <use xlink:href="#Arial-BoldMT-29" x="3456.445312"/>
    </g>
   </g>
   <g id="legend_1">
    <g id="patch_11">
     <path d="M 667.303812 143.491406 
L 811.350219 143.491406 
Q 813.150219 143.491406 813.150219 141.691406 
L 813.150219 38.691562 
Q 813.150219 36.891562 811.350219 36.891562 
L 667.303812 36.891562 
Q 665.503812 36.891562 665.503812 38.691562 
L 665.503812 141.691406 
Q 665.503812 143.491406 667.303812 143.491406 
z
" style="fill: #ffffff; opacity: 0.95; stroke: #e8e5e1; stroke-linejoin: miter"/>
    </g>
    <g id="text_14">
     <!-- Computer Systems -->
     <g style="fill: #3a3a48" transform="translate(696.816859 51.37125) scale(0.1 -0.1)">
      <use xlink:href="#ArialMT-43"/>
      <use xlink:href="#ArialMT-6f" x="72.216797"/>
      <use xlink:href="#ArialMT-6d" x="127.832031"/>
      <use xlink:href="#ArialMT-70" x="211.132812"/>
      <use xlink:href="#ArialMT-75" x="266.748047"/>
      <use xlink:href="#ArialMT-74" x="322.363281"/>
      <use xlink:href="#ArialMT-65" x="350.146484"/>
      <use xlink:href="#ArialMT-72" x="405.761719"/>
      <use xlink:href="#ArialMT-20" x="439.0625"/>
      <use xlink:href="#ArialMT-53" x="466.845703"/>
      <use xlink:href="#ArialMT-79" x="533.544922"/>
      <use xlink:href="#ArialMT-73" x="583.544922"/>
      <use xlink:href="#ArialMT-74" x="633.544922"/>
      <use xlink:href="#ArialMT-65" x="661.328125"/>
      <use xlink:href="#ArialMT-6d" x="716.943359"/>
      <use xlink:href="#ArialMT-73" x="800.244141"/>
     </g>
    </g>
    <g id="line2d_16">
     <path d="M 672.703812 60.367969 
L 681.703812 60.367969 
L 690.703812 60.367969 
" style="fill: none; stroke: #d4a84b; stroke-width: 2.5; stroke-linecap: round"/>
     <g>
      <use xlink:href="#md7557e4dbf" x="681.703812" y="60.367969" style="fill: #d4a84b; stroke: #ffffff; stroke-width: 1.5"/>
     </g>
    </g>
    <g id="text_15">
     <!-- MacBook Pro 2024 M4 Pro -->
     <g style="fill: #4a4a5a" transform="translate(697.903812 63.517969) scale(0.09 -0.09)">
      <defs>
       <path id="ArialMT-63" d="M 2588 1216 
L 3141 1144 
Q 3050 572 2676 248 
Q 2303 -75 1759 -75 
Q 1078 -75 664 370 
Q 250 816 250 1647 
Q 250 2184 428 2587 
Q 606 2991 970 3192 
Q 1334 3394 1763 3394 
Q 2303 3394 2647 3120 
Q 2991 2847 3088 2344 
L 2541 2259 
Q 2463 2594 2264 2762 
Q 2066 2931 1784 2931 
Q 1359 2931 1093 2626 
Q 828 2322 828 1663 
Q 828 994 1084 691 
Q 1341 388 1753 388 
Q 2084 388 2306 591 
Q 2528 794 2588 1216 
z
" transform="scale(0.015625)"/>
       <path id="ArialMT-42" d="M 469 0 
L 469 4581 
L 2188 4581 
Q 2713 4581 3030 4442 
Q 3347 4303 3526 4014 
Q 3706 3725 3706 3409 
Q 3706 3116 3547 2856 
Q 3388 2597 3066 2438 
Q 3481 2316 3704 2022 
Q 3928 1728 3928 1328 
Q 3928 1006 3792 729 
Q 3656 453 3456 303 
Q 3256 153 2954 76 
Q 2653 0 2216 0 
L 469 0 
z
M 1075 2656 
L 2066 2656 
Q 2469 2656 2644 2709 
Q 2875 2778 2992 2937 
Q 3109 3097 3109 3338 
Q 3109 3566 3000 3739 
Q 2891 3913 2687 3977 
Q 2484 4041 1991 4041 
L 1075 4041 
L 1075 2656 
z
M 1075 541 
L 2216 541 
Q 2509 541 2628 563 
Q 2838 600 2978 687 
Q 3119 775 3209 942 
Q 3300 1109 3300 1328 
Q 3300 1584 3169 1773 
Q 3038 1963 2805 2039 
Q 2572 2116 2134 2116 
L 1075 2116 
L 1075 541 
z
" transform="scale(0.015625)"/>
       <path id="ArialMT-6b" d="M 425 0 
L 425 4581 
L 988 4581 
L 988 1969 
L 2319 3319 
L 3047 3319 
L 1778 2088 
L 3175 0 
L 2481 0 
L 1384 1697 
L 988 1316 
L 988 0 
L 425 0 
z
" transform="scale(0.015625)"/>
       <path id="ArialMT-32" d="M 3222 541 
L 3222 0 
L 194 0 
Q 188 203 259 391 
Q 375 700 629 1000 
Q 884 1300 1366 1694 
Q 2113 2306 2375 2664 
Q 2638 3022 2638 3341 
Q 2638 3675 2398 3904 
Q 2159 4134 1775 4134 
Q 1369 4134 1125 3890 
Q 881 3647 878 3216 
L 300 3275 
Q 359 3922 746 4261 
Q 1134 4600 1788 4600 
Q 2447 4600 2831 4234 
Q 3216 3869 3216 3328 
Q 3216 3053 3103 2787 
Q 2991 2522 2730 2228 
Q 2469 1934 1863 1422 
Q 1356 997 1212 845 
Q 1069 694 975 541 
L 3222 541 
z
" transform="scale(0.015625)"/>
       <path id="ArialMT-30" d="M 266 2259 
Q 266 3072 433 3567 
Q 600 4063 929 4331 
Q 1259 4600 1759 4600 
Q 2128 4600 2406 4451 
Q 2684 4303 2865 4023 
Q 3047 3744 3150 3342 
Q 3253 2941 3253 2259 
Q 3253 1453 3087 958 
Q 2922 463 2592 192 
Q 2263 -78 1759 -78 
Q 1097 -78 719 397 
Q 266 969 266 2259 
z
M 844 2259 
Q 844 1131 1108 757 
Q 1372 384 1759 384 
Q 2147 384 2411 759 
Q 2675 1134 2675 2259 
Q 2675 3391 2411 3762 
Q 2147 4134 1753 4134 
Q 1366 4134 1134 3806 
Q 844 3388 844 2259 
z
" transform="scale(0.015625)"/>
       <path id="ArialMT-34" d="M 2069 0 
L 2069 1097 
L 81 1097 
L 81 1613 
L 2172 4581 
L 2631 4581 
L 2631 1613 
L 3250 1613 
L 3250 1097 
L 2631 1097 
L 2631 0 
L 2069 0 
z
M 2069 1613 
L 2069 3678 
L 634 1613 
L 2069 1613 
z
" transform="scale(0.015625)"/>
      </defs>
      <use xlink:href="#ArialMT-4d"/>
      <use xlink:href="#ArialMT-61" x="83.300781"/>
      <use xlink:href="#ArialMT-63" x="138.916016"/>
      <use xlink:href="#ArialMT-42" x="188.916016"/>
      <use xlink:href="#ArialMT-6f" x="255.615234"/>
      <use xlink:href="#ArialMT-6f" x="311.230469"/>
      <use xlink:href="#ArialMT-6b" x="366.845703"/>
      <use xlink:href="#ArialMT-20" x="416.845703"/>
      <use xlink:href="#ArialMT-50" x="444.628906"/>
      <use xlink:href="#ArialMT-72" x="511.328125"/>
      <use xlink:href="#ArialMT-6f" x="544.628906"/>
      <use xlink:href="#ArialMT-20" x="600.244141"/>
      <use xlink:href="#ArialMT-32" x="628.027344"/>
      <use xlink:href="#ArialMT-30" x="683.642578"/>
      <use xlink:href="#ArialMT-32" x="739.257812"/>
      <use xlink:href="#ArialMT-34" x="794.873047"/>
      <use xlink:href="#ArialMT-20" x="850.488281"/>
      <use xlink:href="#ArialMT-4d" x="878.271484"/>
      <use xlink:href="#ArialMT-34" x="961.572266"/>
      <use xlink:href="#ArialMT-20" x="1017.1875"/>
      <use xlink:href="#ArialMT-50" x="1044.970703"/>
      <use xlink:href="#ArialMT-72" x="1111.669922"/>
      <use xlink:href="#ArialMT-6f" x="1144.970703"/>
     </g>
    </g>
    <g id="line2d_17">
     <path d="M 672.703812 72.19875 
L 681.703812 72.19875 
L 690.703812 72.19875 
" style="fill: none; stroke: #4a90a4; stroke-width: 2.5; stroke-linecap: round"/>
     <g>
      <use xlink:href="#m6f0279ee87" x="681.703812" y="72.19875" style="fill: #4a90a4; stroke: #ffffff; stroke-width: 1.5"/>
     </g>
    </g>
    <g id="text_16">
     <!-- Mac Studio M2 Ultra -->
     <g style="fill: #4a4a5a" transform="translate(697.903812 75.34875) scale(0.09 -0.09)">
      <defs>
       <path id="ArialMT-64" d="M 2575 0 
L 2575 419 
Q 2259 -75 1647 -75 
Q 1250 -75 917 144 
Q 584 363 401 755 
Q 219 1147 219 1656 
Q 219 2153 384 2558 
Q 550 2963 881 3178 
Q 1213 3394 1622 3394 
Q 1922 3394 2156 3267 
Q 2391 3141 2538 2938 
L 2538 4581 
L 3097 4581 
L 3097 0 
L 2575 0 
z
M 797 1656 
Q 797 1019 1065 703 
Q 1334 388 1700 388 
Q 2069 388 2326 689 
Q 2584 991 2584 1609 
Q 2584 2291 2321 2609 
Q 2059 2928 1675 2928 
Q 1300 2928 1048 2622 
Q 797 2316 797 1656 
z
" transform="scale(0.015625)"/>
       <path id="ArialMT-55" d="M 3500 4581 
L 4106 4581 
L 4106 1934 
Q 4106 1244 3950 837 
Q 3794 431 3386 176 
Q 2978 -78 2316 -78 
Q 1672 -78 1262 144 
Q 853 366 678 786 
Q 503 1206 503 1934 
L 503 4581 
L 1109 4581 
L 1109 1938 
Q 1109 1341 1220 1058 
Q 1331 775 1601 622 
Q 1872 469 2263 469 
Q 2931 469 3215 772 
Q 3500 1075 3500 1938 
L 3500 4581 
z
" transform="scale(0.015625)"/>
      </defs>
      <use xlink:href="#ArialMT-4d"/>
      <use xlink:href="#ArialMT-61" x="83.300781"/>
      <use xlink:href="#ArialMT-63" x="138.916016"/>
      <use xlink:href="#ArialMT-20" x="188.916016"/>
      <use xlink:href="#ArialMT-53" x="216.699219"/>
      <use xlink:href="#ArialMT-74" x="283.398438"/>
      <use xlink:href="#ArialMT-75" x="311.181641"/>
      <use xlink:href="#ArialMT-64" x="366.796875"/>
      <use xlink:href="#ArialMT-69" x="422.412109"/>
      <use xlink:href="#ArialMT-6f" x="444.628906"/>
      <use xlink:href="#ArialMT-20" x="500.244141"/>
      <use xlink:href="#ArialMT-4d" x="528.027344"/>
      <use xlink:href="#ArialMT-32" x="611.328125"/>
      <use xlink:href="#ArialMT-20" x="666.943359"/>
      <use xlink:href="#ArialMT-55" x="694.726562"/>
      <use xlink:href="#ArialMT-6c" x="766.943359"/>
      <use xlink:href="#ArialMT-74" x="789.160156"/>
      <use xlink:href="#ArialMT-72" x="816.943359"/>
      <use xlink:href="#ArialMT-61" x="850.244141"/>
     </g>
    </g>
    <g id="line2d_18">
     <path d="M 672.703812 84.029531 
L 681.703812 84.029531 
L 690.703812 84.029531 
" style="fill: none; stroke: #6b6080; stroke-width: 2.5; stroke-linecap: round"/>
     <g>
      <use xlink:href="#mb07faf4684" x="681.703812" y="84.029531" style="fill: #6b6080; stroke: #ffffff; stroke-width: 1.5"/>
     </g>
    </g>
    <g id="text_17">
     <!-- NVIDIA A100 SXM 80GB -->
     <g style="fill: #4a4a5a" transform="translate(697.903812 87.179531) scale(0.09 -0.09)">
      <defs>
       <path id="ArialMT-4e" d="M 488 0 
L 488 4581 
L 1109 4581 
L 3516 984 
L 3516 4581 
L 4097 4581 
L 4097 0 
L 3475 0 
L 1069 3600 
L 1069 0 
L 488 0 
z
" transform="scale(0.015625)"/>
       <path id="ArialMT-56" d="M 1803 0 
L 28 4581 
L 684 4581 
L 1875 1253 
Q 2019 853 2116 503 
Q 2222 878 2363 1253 
L 3600 4581 
L 4219 4581 
L 2425 0 
L 1803 0 
z
" transform="scale(0.015625)"/>
       <path id="ArialMT-49" d="M 597 0 
L 597 4581 
L 1203 4581 
L 1203 0 
L 597 0 
z
" transform="scale(0.015625)"/>
       <path id="ArialMT-41" d="M -9 0 
L 1750 4581 
L 2403 4581 
L 4278 0 
L 3588 0 
L 3053 1388 
L 1138 1388 
L 634 0 
L -9 0 
z
M 1313 1881 
L 2866 1881 
L 2388 3150 
Q 2169 3728 2063 4100 
Q 1975 3659 1816 3225 
L 1313 1881 
z
" transform="scale(0.015625)"/>
       <path id="ArialMT-31" d="M 2384 0 
L 1822 0 
L 1822 3584 
Q 1619 3391 1289 3197 
Q 959 3003 697 2906 
L 697 3450 
Q 1169 3672 1522 3987 
Q 1875 4303 2022 4600 
L 2384 4600 
L 2384 0 
z
" transform="scale(0.015625)"/>
       <path id="ArialMT-58" d="M 28 0 
L 1800 2388 
L 238 4581 
L 959 4581 
L 1791 3406 
Q 2050 3041 2159 2844 
Q 2313 3094 2522 3366 
L 3444 4581 
L 4103 4581 
L 2494 2422 
L 4228 0 
L 3478 0 
L 2325 1634 
Q 2228 1775 2125 1941 
Q 1972 1691 1906 1597 
L 756 0 
L 28 0 
z
" transform="scale(0.015625)"/>
       <path id="ArialMT-38" d="M 1131 2484 
Q 781 2613 612 2850 
Q 444 3088 444 3419 
Q 444 3919 803 4259 
Q 1163 4600 1759 4600 
Q 2359 4600 2725 4251 
Q 3091 3903 3091 3403 
Q 3091 3084 2923 2848 
Q 2756 2613 2416 2484 
Q 2838 2347 3058 2040 
Q 3278 1734 3278 1309 
Q 3278 722 2862 322 
Q 2447 -78 1769 -78 
Q 1091 -78 675 323 
Q 259 725 259 1325 
Q 259 1772 486 2073 
Q 713 2375 1131 2484 
z
M 1019 3438 
Q 1019 3113 1228 2906 
Q 1438 2700 1772 2700 
Q 2097 2700 2305 2904 
Q 2513 3109 2513 3406 
Q 2513 3716 2298 3927 
Q 2084 4138 1766 4138 
Q 1444 4138 1231 3931 
Q 1019 3725 1019 3438 
z
M 838 1322 
Q 838 1081 952 856 
Q 1066 631 1291 507 
Q 1516 384 1775 384 
Q 2178 384 2440 643 
Q 2703 903 2703 1303 
Q 2703 1709 2433 1975 
Q 2163 2241 1756 2241 
Q 1359 2241 1098 1978 
Q 838 1716 838 1322 
z
" transform="scale(0.015625)"/>
       <path id="ArialMT-47" d="M 2638 1797 
L 2638 2334 
L 4578 2338 
L 4578 638 
Q 4131 281 3656 101 
Q 3181 -78 2681 -78 
Q 2006 -78 1454 211 
Q 903 500 622 1047 
Q 341 1594 341 2269 
Q 341 2938 620 3517 
Q 900 4097 1425 4378 
Q 1950 4659 2634 4659 
Q 3131 4659 3532 4498 
Q 3934 4338 4162 4050 
Q 4391 3763 4509 3300 
L 3963 3150 
Q 3859 3500 3706 3700 
Q 3553 3900 3268 4020 
Q 2984 4141 2638 4141 
Q 2222 4141 1919 4014 
Q 1616 3888 1430 3681 
Q 1244 3475 1141 3228 
Q 966 2803 966 2306 
Q 966 1694 1177 1281 
Q 1388 869 1791 669 
Q 2194 469 2647 469 
Q 3041 469 3416 620 
Q 3791 772 3984 944 
L 3984 1797 
L 2638 1797 
z
" transform="scale(0.015625)"/>
      </defs>
      <use xlink:href="#ArialMT-4e"/>
      <use xlink:href="#ArialMT-56" x="72.216797"/>
      <use xlink:href="#ArialMT-49" x="138.916016"/>
      <use xlink:href="#ArialMT-44" x="166.699219"/>
      <use xlink:href="#ArialMT-49" x="238.916016"/>
      <use xlink:href="#ArialMT-41" x="266.699219"/>
      <use xlink:href="#ArialMT-20" x="327.898438"/>
      <use xlink:href="#ArialMT-41" x="350.181641"/>
      <use xlink:href="#ArialMT-31" x="416.880859"/>
      <use xlink:href="#ArialMT-30" x="472.496094"/>
      <use xlink:href="#ArialMT-30" x="528.111328"/>
      <use xlink:href="#ArialMT-20" x="583.726562"/>
      <use xlink:href="#ArialMT-53" x="611.509766"/>
      <use xlink:href="#ArialMT-58" x="678.208984"/>
      <use xlink:href="#ArialMT-4d" x="744.908203"/>
      <use xlink:href="#ArialMT-20" x="828.208984"/>
      <use xlink:href="#ArialMT-38" x="855.992188"/>
      <use xlink:href="#ArialMT-30" x="911.607422"/>
      <use xlink:href="#ArialMT-47" x="967.222656"/>
      <use xlink:href="#ArialMT-42" x="1045.005859"/>
     </g>
    </g>
    <g id="line2d_19">
     <path d="M 672.703812 95.860312 
L 681.703812 95.860312 
L 690.703812 95.860312 
" style="fill: none; stroke: #8b7355; stroke-width: 2.5; stroke-linecap: round"/>
     <g>
      <use xlink:href="#mfc0a11abd7" x="681.703812" y="95.860312" style="fill: #8b7355; stroke: #ffffff; stroke-width: 1.5"/>
     </g>
    </g>
    <g id="text_18">
     <!-- NVIDIA H100 NVL -->
     <g style="fill: #4a4a5a" transform="translate(697.903812 99.010312) scale(0.09 -0.09)">
      <use xlink:href="#ArialMT-4e"/>
      <use xlink:href="#ArialMT-56" x="72.216797"/>
      <use xlink:href="#ArialMT-49" x="138.916016"/>
      <use xlink:href="#ArialMT-44" x="166.699219"/>
      <use xlink:href="#ArialMT-49" x="238.916016"/>
      <use xlink:href="#ArialMT-41" x="266.699219"/>
      <use xlink:href="#ArialMT-20" x="327.898438"/>
      <use xlink:href="#ArialMT-48" x="355.681641"/>
      <use xlink:href="#ArialMT-31" x="427.898438"/>
      <use xlink:href="#ArialMT-30" x="483.513672"/>
      <use xlink:href="#ArialMT-30" x="539.128906"/>
      <use xlink:href="#ArialMT-20" x="594.744141"/>
      <use xlink:href="#ArialMT-4e" x="622.527344"/>
      <use xlink:href="#ArialMT-56" x="694.744141"/>
      <use xlink:href="#ArialMT-4c" x="761.443359"/>
     </g>
    </g>
    <g id="line2d_20">
     <path d="M 672.703812 107.691094 
L 681.703812 107.691094 
L 690.703812 107.691094 
" style="fill: none; stroke: #5c8b6b; stroke-width: 2.5; stroke-linecap: round"/>
     <g>
      <use xlink:href="#m427f35ab4b" x="681.703812" y="107.691094" style="fill: #5c8b6b; stroke: #ffffff; stroke-width: 1.5"/>
     </g>
    </g>
    <g id="text_19">
     <!-- NVIDIA DGX GH200 -->
     <g style="fill: #4a4a5a" transform="translate(697.903812 110.841094) scale(0.09 -0.09)">
      <use xlink:href="#ArialMT-4e"/>
      <use xlink:href="#ArialMT-56" x="72.216797"/>
      <use xlink:href="#ArialMT-49" x="138.916016"/>
      <use xlink:href="#ArialMT-44" x="166.699219"/>
      <use xlink:href="#ArialMT-49" x="238.916016"/>
      <use xlink:href="#ArialMT-41" x="266.699219"/>
      <use xlink:href="#ArialMT-20" x="327.898438"/>
      <use xlink:href="#ArialMT-44" x="355.681641"/>
      <use xlink:href="#ArialMT-47" x="427.898438"/>
      <use xlink:href="#ArialMT-58" x="505.681641"/>
      <use xlink:href="#ArialMT-20" x="572.380859"/>
      <use xlink:href="#ArialMT-47" x="600.164062"/>
      <use xlink:href="#ArialMT-48" x="677.947266"/>
      <use xlink:href="#ArialMT-32" x="750.164062"/>
      <use xlink:href="#ArialMT-30" x="805.779297"/>
      <use xlink:href="#ArialMT-30" x="861.394531"/>
     </g>
    </g>
    <g id="line2d_21">
     <path d="M 672.703812 119.521875 
L 681.703812 119.521875 
L 690.703812 119.521875 
" style="fill: none; stroke: #2ecc71; stroke-width: 2.5; stroke-linecap: round"/>
     <g>
      <use xlink:href="#m90e5b6d57c" x="681.703812" y="119.521875" style="fill: #2ecc71; stroke: #ffffff; stroke-width: 1.5"/>
     </g>
    </g>
    <g id="text_20">
     <!-- NVIDIA HGX B200 -->
     <g style="fill: #4a4a5a" transform="translate(697.903812 122.671875) scale(0.09 -0.09)">
      <use xlink:href="#ArialMT-4e"/>
      <use xlink:href="#ArialMT-56" x="72.216797"/>
      <use xlink:href="#ArialMT-49" x="138.916016"/>
      <use xlink:href="#ArialMT-44" x="166.699219"/>
      <use xlink:href="#ArialMT-49" x="238.916016"/>
      <use xlink:href="#ArialMT-41" x="266.699219"/>
      <use xlink:href="#ArialMT-20" x="327.898438"/>
      <use xlink:href="#ArialMT-48" x="355.681641"/>
      <use xlink:href="#ArialMT-47" x="427.898438"/>
      <use xlink:href="#ArialMT-58" x="505.681641"/>
      <use xlink:href="#ArialMT-20" x="572.380859"/>
      <use xlink:href="#ArialMT-42" x="600.164062"/>
      <use xlink:href="#ArialMT-32" x="666.863281"/>
      <use xlink:href="#ArialMT-30" x="722.478516"/>
      <use xlink:href="#ArialMT-30" x="778.09375"/>
     </g>
    </g>
    <g id="line2d_22">
     <path d="M 672.703812 131.352656 
L 681.703812 131.352656 
L 690.703812 131.352656 
" style="fill: none; stroke: #8c564b; stroke-width: 2.5; stroke-linecap: round"/>
     <g>
      <use xlink:href="#m1da99cf83d" x="681.703812" y="131.352656" style="fill: #8c564b; stroke: #ffffff; stroke-width: 1.5"/>
     </g>
    </g>
    <g id="text_21">
     <!-- NVIDIA Tesla C870 -->
     <g style="fill: #4a4a5a" transform="translate(697.903812 134.502656) scale(0.09 -0.09)">
      <defs>
       <path id="ArialMT-54" d="M 1659 0 
L 1659 4041 
L 150 4041 
L 150 4581 
L 3781 4581 
L 3781 4041 
L 2266 4041 
L 2266 0 
L 1659 0 
z
" transform="scale(0.015625)"/>
       <path id="ArialMT-37" d="M 303 3981 
L 303 4522 
L 3269 4522 
L 3269 4084 
Q 2831 3619 2401 2847 
Q 1972 2075 1738 1259 
Q 1569 684 1522 0 
L 944 0 
Q 953 541 1156 1306 
Q 1359 2072 1739 2783 
Q 2119 3494 2547 3981 
L 303 3981 
z
" transform="scale(0.015625)"/>
      </defs>
      <use xlink:href="#ArialMT-4e"/>
      <use xlink:href="#ArialMT-56" x="72.216797"/>
      <use xlink:href="#ArialMT-49" x="138.916016"/>
      <use xlink:href="#ArialMT-44" x="166.699219"/>
      <use xlink:href="#ArialMT-49" x="238.916016"/>
      <use xlink:href="#ArialMT-41" x="266.699219"/>
      <use xlink:href="#ArialMT-20" x="327.898438"/>
      <use xlink:href="#ArialMT-54" x="353.931641"/>
      <use xlink:href="#ArialMT-65" x="403.890625"/>
      <use xlink:href="#ArialMT-73" x="459.505859"/>
      <use xlink:href="#ArialMT-6c" x="509.505859"/>
      <use xlink:href="#ArialMT-61" x="531.722656"/>
      <use xlink:href="#ArialMT-20" x="587.337891"/>
      <use xlink:href="#ArialMT-43" x="615.121094"/>
      <use xlink:href="#ArialMT-38" x="687.337891"/>
      <use xlink:href="#ArialMT-37" x="742.953125"/>
      <use xlink:href="#ArialMT-30" x="798.568359"/>
     </g>
    </g>
   </g>
  </g>
  <g id="text_22">
   <!-- Zanichelli, Schons et al, State of Brain Emulation Report 2025 -->
   <g style="fill: #787470" transform="translate(692.097219 555.160313) scale(0.07 -0.07)">
    <defs>
     <path id="Arial-ItalicMT-5a" d="M 156 0 
L 216 459 
L 2509 3200 
L 2984 3775 
Q 3128 3950 3263 4097 
Q 2972 4063 2856 4063 
L 2706 4066 
L 2525 4063 
L 2347 4059 
L 806 4059 
L 916 4581 
L 4075 4581 
L 4022 4103 
L 1563 1181 
Q 1109 641 988 503 
Q 1125 522 1166 522 
L 3663 522 
L 3553 0 
L 156 0 
z
" transform="scale(0.015625)"/>
     <path id="Arial-ItalicMT-61" d="M 2450 413 
Q 2156 159 1884 42 
Q 1613 -75 1303 -75 
Q 844 -75 562 195 
Q 281 466 281 888 
Q 281 1166 407 1380 
Q 534 1594 743 1723 
Q 953 1853 1256 1909 
Q 1447 1947 1980 1969 
Q 2513 1991 2744 2081 
Q 2809 2313 2809 2466 
Q 2809 2663 2666 2775 
Q 2469 2931 2091 2931 
Q 1734 2931 1507 2773 
Q 1281 2616 1178 2325 
L 606 2375 
Q 781 2869 1161 3131 
Q 1541 3394 2119 3394 
Q 2734 3394 3094 3100 
Q 3369 2881 3369 2531 
Q 3369 2266 3291 1916 
L 3106 1091 
Q 3019 697 3019 450 
Q 3019 294 3088 0 
L 2516 0 
Q 2469 163 2450 413 
z
M 2659 1681 
Q 2541 1634 2405 1609 
Q 2269 1584 1950 1556 
Q 1456 1513 1253 1445 
Q 1050 1378 947 1231 
Q 844 1084 844 906 
Q 844 669 1008 516 
Q 1172 363 1475 363 
Q 1756 363 2015 511 
Q 2275 659 2425 925 
Q 2575 1191 2659 1681 
z
" transform="scale(0.015625)"/>
     <path id="Arial-ItalicMT-6e" d="M 213 0 
L 906 3319 
L 1419 3319 
L 1297 2741 
Q 1631 3081 1922 3237 
Q 2213 3394 2516 3394 
Q 2919 3394 3148 3175 
Q 3378 2956 3378 2591 
Q 3378 2406 3297 2009 
L 2875 0 
L 2309 0 
L 2750 2103 
Q 2816 2409 2816 2556 
Q 2816 2722 2702 2825 
Q 2588 2928 2372 2928 
Q 1938 2928 1598 2615 
Q 1259 2303 1100 1544 
L 778 0 
L 213 0 
z
" transform="scale(0.015625)"/>
     <path id="Arial-ItalicMT-69" d="M 1016 3941 
L 1150 4581 
L 1713 4581 
L 1578 3941 
L 1016 3941 
z
M 191 0 
L 884 3319 
L 1450 3319 
L 756 0 
L 191 0 
z
" transform="scale(0.015625)"/>
     <path id="Arial-ItalicMT-63" d="M 2503 1209 
L 3069 1150 
Q 2856 528 2464 226 
Q 2072 -75 1572 -75 
Q 1031 -75 695 275 
Q 359 625 359 1253 
Q 359 1797 575 2322 
Q 791 2847 1192 3120 
Q 1594 3394 2109 3394 
Q 2644 3394 2956 3092 
Q 3269 2791 3269 2294 
L 2713 2256 
Q 2709 2572 2529 2750 
Q 2350 2928 2056 2928 
Q 1716 2928 1466 2712 
Q 1216 2497 1073 2058 
Q 931 1619 931 1213 
Q 931 788 1118 575 
Q 1306 363 1581 363 
Q 1856 363 2107 572 
Q 2359 781 2503 1209 
z
" transform="scale(0.015625)"/>
     <path id="Arial-ItalicMT-68" d="M 213 0 
L 1169 4581 
L 1734 4581 
L 1369 2822 
Q 1684 3128 1956 3261 
Q 2228 3394 2516 3394 
Q 2928 3394 3156 3176 
Q 3384 2959 3384 2603 
Q 3384 2428 3284 1959 
L 2875 0 
L 2309 0 
L 2731 2009 
Q 2822 2447 2822 2559 
Q 2822 2722 2709 2825 
Q 2597 2928 2384 2928 
Q 2078 2928 1800 2767 
Q 1522 2606 1364 2326 
Q 1206 2047 1075 1425 
L 778 0 
L 213 0 
z
" transform="scale(0.015625)"/>
     <path id="Arial-ItalicMT-65" d="M 2650 1128 
L 3200 1072 
Q 3081 663 2654 294 
Q 2228 -75 1638 -75 
Q 1269 -75 961 95 
Q 653 266 492 591 
Q 331 916 331 1331 
Q 331 1875 582 2386 
Q 834 2897 1234 3145 
Q 1634 3394 2100 3394 
Q 2694 3394 3048 3025 
Q 3403 2656 3403 2019 
Q 3403 1775 3359 1519 
L 916 1519 
Q 903 1422 903 1344 
Q 903 878 1117 633 
Q 1331 388 1641 388 
Q 1931 388 2212 578 
Q 2494 769 2650 1128 
z
M 1006 1950 
L 2869 1950 
Q 2872 2038 2872 2075 
Q 2872 2500 2659 2726 
Q 2447 2953 2113 2953 
Q 1750 2953 1451 2703 
Q 1153 2453 1006 1950 
z
" transform="scale(0.015625)"/>
     <path id="Arial-ItalicMT-6c" d="M 169 0 
L 1125 4581 
L 1691 4581 
L 734 0 
L 169 0 
z
" transform="scale(0.015625)"/>
     <path id="Arial-ItalicMT-2c" d="M 347 0 
L 481 641 
L 1125 641 
L 1009 81 
Q 903 -422 679 -656 
Q 456 -891 153 -925 
L 206 -678 
Q 578 -575 697 0 
L 347 0 
z
" transform="scale(0.015625)"/>
     <path id="Arial-ItalicMT-20" transform="scale(0.015625)"/>
     <path id="Arial-ItalicMT-53" d="M 450 1481 
L 1050 1538 
L 1044 1378 
Q 1044 1113 1166 892 
Q 1288 672 1569 551 
Q 1850 431 2238 431 
Q 2788 431 3077 672 
Q 3366 913 3366 1222 
Q 3366 1438 3213 1616 
Q 3056 1791 2359 2091 
Q 1819 2325 1622 2450 
Q 1313 2653 1166 2892 
Q 1019 3131 1019 3438 
Q 1019 3791 1212 4075 
Q 1406 4359 1779 4509 
Q 2153 4659 2622 4659 
Q 3181 4659 3565 4471 
Q 3950 4284 4123 3971 
Q 4297 3659 4297 3375 
Q 4297 3347 4294 3281 
L 3703 3234 
Q 3703 3428 3669 3538 
Q 3606 3728 3475 3859 
Q 3344 3991 3114 4070 
Q 2884 4150 2600 4150 
Q 2100 4150 1822 3925 
Q 1609 3753 1609 3469 
Q 1609 3300 1696 3167 
Q 1784 3034 2013 2906 
Q 2175 2816 2784 2547 
Q 3278 2328 3466 2203 
Q 3716 2038 3850 1802 
Q 3984 1566 3984 1266 
Q 3984 894 3757 580 
Q 3531 266 3131 94 
Q 2731 -78 2216 -78 
Q 1438 -78 945 261 
Q 453 600 450 1481 
z
" transform="scale(0.015625)"/>
     <path id="Arial-ItalicMT-6f" d="M 313 1259 
Q 313 2231 884 2869 
Q 1356 3394 2122 3394 
Q 2722 3394 3089 3019 
Q 3456 2644 3456 2006 
Q 3456 1434 3225 942 
Q 2994 450 2567 187 
Q 2141 -75 1669 -75 
Q 1281 -75 964 90 
Q 647 256 480 559 
Q 313 863 313 1259 
z
M 878 1316 
Q 878 847 1103 605 
Q 1328 363 1675 363 
Q 1856 363 2034 436 
Q 2213 509 2366 659 
Q 2519 809 2626 1001 
Q 2734 1194 2800 1416 
Q 2897 1725 2897 2009 
Q 2897 2459 2670 2707 
Q 2444 2956 2100 2956 
Q 1834 2956 1615 2829 
Q 1397 2703 1220 2459 
Q 1044 2216 961 1892 
Q 878 1569 878 1316 
z
" transform="scale(0.015625)"/>
     <path id="Arial-ItalicMT-73" d="M 266 1134 
L 831 1169 
Q 831 925 906 753 
Q 981 581 1182 472 
Q 1384 363 1653 363 
Q 2028 363 2215 513 
Q 2403 663 2403 866 
Q 2403 1013 2291 1144 
Q 2175 1275 1726 1467 
Q 1278 1659 1153 1738 
Q 944 1866 837 2039 
Q 731 2213 731 2438 
Q 731 2831 1043 3112 
Q 1356 3394 1919 3394 
Q 2544 3394 2870 3105 
Q 3197 2816 3209 2344 
L 2656 2306 
Q 2644 2606 2444 2781 
Q 2244 2956 1878 2956 
Q 1584 2956 1421 2822 
Q 1259 2688 1259 2531 
Q 1259 2375 1400 2256 
Q 1494 2175 1884 2006 
Q 2534 1725 2703 1563 
Q 2972 1303 2972 931 
Q 2972 684 2820 446 
Q 2669 209 2358 67 
Q 2047 -75 1625 -75 
Q 1050 -75 647 209 
Q 244 494 266 1134 
z
" transform="scale(0.015625)"/>
     <path id="Arial-ItalicMT-74" d="M 1534 459 
L 1441 -3 
Q 1238 -56 1047 -56 
Q 709 -56 509 109 
Q 359 234 359 450 
Q 359 559 441 953 
L 844 2881 
L 397 2881 
L 488 3319 
L 934 3319 
L 1106 4134 
L 1753 4525 
L 1500 3319 
L 2056 3319 
L 1963 2881 
L 1409 2881 
L 1025 1047 
Q 953 697 953 628 
Q 953 528 1011 475 
Q 1069 422 1200 422 
Q 1388 422 1534 459 
z
" transform="scale(0.015625)"/>
     <path id="Arial-ItalicMT-66" d="M 291 0 
L 894 2881 
L 388 2881 
L 478 3319 
L 984 3319 
L 1081 3791 
Q 1156 4144 1236 4300 
Q 1316 4456 1495 4557 
Q 1675 4659 1984 4659 
Q 2200 4659 2609 4569 
L 2506 4075 
Q 2219 4150 2025 4150 
Q 1859 4150 1773 4067 
Q 1688 3984 1625 3675 
L 1550 3319 
L 2181 3319 
L 2091 2881 
L 1459 2881 
L 856 0 
L 291 0 
z
" transform="scale(0.015625)"/>
     <path id="Arial-ItalicMT-42" d="M 278 0 
L 1238 4581 
L 2656 4581 
Q 3044 4581 3231 4550 
Q 3538 4497 3748 4364 
Q 3959 4231 4075 4001 
Q 4191 3772 4191 3494 
Q 4191 3116 3983 2828 
Q 3775 2541 3347 2391 
Q 3719 2269 3903 2023 
Q 4088 1778 4088 1450 
Q 4088 1072 3870 725 
Q 3653 378 3295 189 
Q 2938 0 2497 0 
L 278 0 
z
M 1441 2625 
L 2369 2625 
Q 3034 2625 3326 2837 
Q 3619 3050 3619 3456 
Q 3619 3650 3528 3790 
Q 3438 3931 3286 3995 
Q 3134 4059 2716 4059 
L 1741 4059 
L 1441 2625 
z
M 1000 519 
L 2044 519 
Q 2459 519 2603 547 
Q 2894 597 3075 717 
Q 3256 838 3359 1034 
Q 3463 1231 3463 1447 
Q 3463 1769 3261 1936 
Q 3059 2103 2494 2103 
L 1331 2103 
L 1000 519 
z
" transform="scale(0.015625)"/>
     <path id="Arial-ItalicMT-72" d="M 213 0 
L 906 3319 
L 1406 3319 
L 1266 2641 
Q 1522 3025 1767 3209 
Q 2013 3394 2269 3394 
Q 2438 3394 2684 3272 
L 2453 2747 
Q 2306 2853 2131 2853 
Q 1834 2853 1521 2522 
Q 1209 2191 1031 1331 
L 750 0 
L 213 0 
z
" transform="scale(0.015625)"/>
     <path id="Arial-ItalicMT-45" d="M 288 0 
L 1247 4581 
L 4553 4581 
L 4444 4059 
L 1750 4059 
L 1450 2634 
L 4075 2634 
L 3966 2113 
L 1341 2113 
L 1009 519 
L 3894 519 
L 3784 0 
L 288 0 
z
" transform="scale(0.015625)"/>
     <path id="Arial-ItalicMT-6d" d="M 209 0 
L 903 3319 
L 1469 3319 
L 1353 2772 
Q 1669 3125 1917 3259 
Q 2166 3394 2456 3394 
Q 2766 3394 2973 3230 
Q 3181 3066 3247 2772 
Q 3500 3084 3779 3239 
Q 4059 3394 4369 3394 
Q 4784 3394 4992 3197 
Q 5200 3000 5200 2644 
Q 5200 2491 5128 2138 
L 4681 0 
L 4116 0 
L 4572 2194 
Q 4631 2463 4631 2578 
Q 4631 2741 4528 2834 
Q 4425 2928 4238 2928 
Q 3984 2928 3721 2775 
Q 3459 2622 3314 2373 
Q 3169 2125 3059 1609 
L 2722 0 
L 2156 0 
L 2625 2241 
Q 2675 2469 2675 2566 
Q 2675 2728 2573 2828 
Q 2472 2928 2309 2928 
Q 2069 2928 1805 2775 
Q 1541 2622 1375 2348 
Q 1209 2075 1103 1569 
L 775 0 
L 209 0 
z
" transform="scale(0.015625)"/>
     <path id="Arial-ItalicMT-75" d="M 2478 600 
Q 1881 -75 1256 -75 
Q 872 -75 636 145 
Q 400 366 400 684 
Q 400 894 506 1403 
L 906 3319 
L 1472 3319 
L 1028 1197 
Q 972 931 972 784 
Q 972 597 1086 492 
Q 1200 388 1422 388 
Q 1659 388 1886 503 
Q 2113 619 2277 816 
Q 2441 1013 2544 1281 
Q 2613 1453 2703 1884 
L 3003 3319 
L 3569 3319 
L 2875 0 
L 2353 0 
L 2478 600 
z
" transform="scale(0.015625)"/>
     <path id="Arial-ItalicMT-52" d="M 300 0 
L 1259 4581 
L 3181 4581 
Q 3750 4581 4044 4486 
Q 4338 4391 4505 4128 
Q 4672 3866 4672 3466 
Q 4672 2906 4306 2537 
Q 3941 2169 3125 2059 
Q 3375 1875 3503 1697 
Q 3791 1294 3966 863 
L 4316 0 
L 3631 0 
L 3303 853 
Q 3125 1316 2897 1653 
Q 2741 1888 2578 1961 
Q 2416 2034 2050 2034 
L 1338 2034 
L 913 0 
L 300 0 
z
M 1441 2531 
L 2288 2531 
Q 2875 2531 3053 2547 
Q 3400 2581 3622 2703 
Q 3844 2825 3966 3031 
Q 4088 3238 4088 3475 
Q 4088 3675 3997 3823 
Q 3906 3972 3759 4025 
Q 3613 4078 3259 4078 
L 1766 4078 
L 1441 2531 
z
" transform="scale(0.015625)"/>
     <path id="Arial-ItalicMT-70" d="M -66 -1272 
L 894 3319 
L 1416 3319 
L 1319 2856 
Q 1609 3159 1839 3276 
Q 2069 3394 2325 3394 
Q 2800 3394 3112 3048 
Q 3425 2703 3425 2059 
Q 3425 1541 3253 1114 
Q 3081 688 2831 428 
Q 2581 169 2325 47 
Q 2069 -75 1800 -75 
Q 1203 -75 875 531 
L 500 -1272 
L -66 -1272 
z
M 1053 1356 
Q 1053 984 1106 841 
Q 1184 638 1362 513 
Q 1541 388 1775 388 
Q 2263 388 2563 936 
Q 2863 1484 2863 2056 
Q 2863 2478 2661 2708 
Q 2459 2938 2159 2938 
Q 1944 2938 1759 2823 
Q 1575 2709 1417 2482 
Q 1259 2256 1156 1928 
Q 1053 1600 1053 1356 
z
" transform="scale(0.015625)"/>
     <path id="Arial-ItalicMT-32" d="M 375 0 
Q 463 409 617 686 
Q 772 963 1028 1211 
Q 1284 1459 2016 2044 
Q 2459 2397 2622 2566 
Q 2856 2809 2963 3044 
Q 3034 3203 3034 3391 
Q 3034 3706 2811 3926 
Q 2588 4147 2263 4147 
Q 1941 4147 1700 3923 
Q 1459 3700 1356 3206 
L 803 3288 
Q 884 3897 1276 4248 
Q 1669 4600 2253 4600 
Q 2644 4600 2961 4437 
Q 3278 4275 3437 3981 
Q 3597 3688 3597 3375 
Q 3597 2919 3272 2497 
Q 3072 2234 2097 1463 
Q 1678 1131 1473 918 
Q 1269 706 1166 519 
L 3216 519 
L 3106 0 
L 375 0 
z
" transform="scale(0.015625)"/>
     <path id="Arial-ItalicMT-30" d="M 453 1503 
Q 453 2084 626 2684 
Q 800 3284 1012 3643 
Q 1225 4003 1453 4206 
Q 1681 4409 1901 4504 
Q 2122 4600 2391 4600 
Q 2916 4600 3267 4209 
Q 3619 3819 3619 3081 
Q 3619 2322 3375 1578 
Q 3088 697 2575 256 
Q 2181 -78 1678 -78 
Q 1163 -78 808 326 
Q 453 731 453 1503 
z
M 1000 1359 
Q 1000 938 1141 700 
Q 1331 372 1706 372 
Q 2034 372 2303 669 
Q 2691 1088 2886 1895 
Q 3081 2703 3081 3216 
Q 3081 3709 2892 3928 
Q 2703 4147 2394 4147 
Q 2169 4147 1973 4031 
Q 1778 3916 1600 3634 
Q 1347 3238 1159 2447 
Q 1000 1772 1000 1359 
z
" transform="scale(0.015625)"/>
     <path id="Arial-ItalicMT-35" d="M 447 1309 
L 1022 1366 
Q 1016 1244 1016 1219 
Q 1016 1013 1120 803 
Q 1225 594 1404 483 
Q 1584 372 1784 372 
Q 2047 372 2319 553 
Q 2591 734 2759 1081 
Q 2928 1428 2928 1769 
Q 2928 2153 2701 2384 
Q 2475 2616 2106 2616 
Q 1859 2616 1639 2497 
Q 1419 2378 1228 2141 
L 734 2175 
L 1425 4519 
L 3663 4519 
L 3553 4000 
L 1813 4000 
L 1469 2834 
Q 1663 2975 1867 3045 
Q 2072 3116 2288 3116 
Q 2813 3116 3150 2769 
Q 3488 2422 3488 1819 
Q 3488 1291 3256 845 
Q 3025 400 2620 161 
Q 2216 -78 1747 -78 
Q 1353 -78 1050 100 
Q 747 278 595 590 
Q 444 903 444 1216 
Q 444 1247 447 1309 
z
" transform="scale(0.015625)"/>
    </defs>
    <use xlink:href="#Arial-ItalicMT-5a"/>
    <use xlink:href="#Arial-ItalicMT-61" x="61.083984"/>
    <use xlink:href="#Arial-ItalicMT-6e" x="116.699219"/>
    <use xlink:href="#Arial-ItalicMT-69" x="172.314453"/>
    <use xlink:href="#Arial-ItalicMT-63" x="194.53125"/>
    <use xlink:href="#Arial-ItalicMT-68" x="244.53125"/>
    <use xlink:href="#Arial-ItalicMT-65" x="300.146484"/>
    <use xlink:href="#Arial-ItalicMT-6c" x="355.761719"/>
    <use xlink:href="#Arial-ItalicMT-6c" x="377.978516"/>
    <use xlink:href="#Arial-ItalicMT-69" x="400.195312"/>
    <use xlink:href="#Arial-ItalicMT-2c" x="422.412109"/>
    <use xlink:href="#Arial-ItalicMT-20" x="450.195312"/>
    <use xlink:href="#Arial-ItalicMT-53" x="477.978516"/>
    <use xlink:href="#Arial-ItalicMT-63" x="544.677734"/>
    <use xlink:href="#Arial-ItalicMT-68" x="594.677734"/>
    <use xlink:href="#Arial-ItalicMT-6f" x="650.292969"/>
    <use xlink:href="#Arial-ItalicMT-6e" x="705.908203"/>
    <use xlink:href="#Arial-ItalicMT-73" x="761.523438"/>
    <use xlink:href="#Arial-ItalicMT-20" x="811.523438"/>
    <use xlink:href="#Arial-ItalicMT-65" x="839.306641"/>
    <use xlink:href="#Arial-ItalicMT-74" x="894.921875"/>
    <use xlink:href="#Arial-ItalicMT-20" x="922.705078"/>
    <use xlink:href="#Arial-ItalicMT-61" x="950.488281"/>
    <use xlink:href="#Arial-ItalicMT-6c" x="1006.103516"/>
    <use xlink:href="#Arial-ItalicMT-2c" x="1028.320312"/>
    <use xlink:href="#Arial-ItalicMT-20" x="1056.103516"/>
    <use xlink:href="#Arial-ItalicMT-53" x="1083.886719"/>
    <use xlink:href="#Arial-ItalicMT-74" x="1150.585938"/>
    <use xlink:href="#Arial-ItalicMT-61" x="1178.369141"/>
    <use xlink:href="#Arial-ItalicMT-74" x="1233.984375"/>
    <use xlink:href="#Arial-ItalicMT-65" x="1261.767578"/>
    <use xlink:href="#Arial-ItalicMT-20" x="1317.382812"/>
    <use xlink:href="#Arial-ItalicMT-6f" x="1345.166016"/>
    <use xlink:href="#Arial-ItalicMT-66" x="1400.78125"/>
    <use xlink:href="#Arial-ItalicMT-20" x="1428.564453"/>
    <use xlink:href="#Arial-ItalicMT-42" x="1456.347656"/>
    <use xlink:href="#Arial-ItalicMT-72" x="1523.046875"/>
    <use xlink:href="#Arial-ItalicMT-61" x="1556.347656"/>
    <use xlink:href="#Arial-ItalicMT-69" x="1611.962891"/>
    <use xlink:href="#Arial-ItalicMT-6e" x="1634.179688"/>
    <use xlink:href="#Arial-ItalicMT-20" x="1689.794922"/>
    <use xlink:href="#Arial-ItalicMT-45" x="1717.578125"/>
    <use xlink:href="#Arial-ItalicMT-6d" x="1784.277344"/>
    <use xlink:href="#Arial-ItalicMT-75" x="1867.578125"/>
    <use xlink:href="#Arial-ItalicMT-6c" x="1923.193359"/>
    <use xlink:href="#Arial-ItalicMT-61" x="1945.410156"/>
    <use xlink:href="#Arial-ItalicMT-74" x="2001.025391"/>
    <use xlink:href="#Arial-ItalicMT-69" x="2028.808594"/>
    <use xlink:href="#Arial-ItalicMT-6f" x="2051.025391"/>
    <use xlink:href="#Arial-ItalicMT-6e" x="2106.640625"/>
    <use xlink:href="#Arial-ItalicMT-20" x="2162.255859"/>
    <use xlink:href="#Arial-ItalicMT-52" x="2190.039062"/>
    <use xlink:href="#Arial-ItalicMT-65" x="2262.255859"/>
    <use xlink:href="#Arial-ItalicMT-70" x="2317.871094"/>
    <use xlink:href="#Arial-ItalicMT-6f" x="2373.486328"/>
    <use xlink:href="#Arial-ItalicMT-72" x="2429.101562"/>
    <use xlink:href="#Arial-ItalicMT-74" x="2462.402344"/>
    <use xlink:href="#Arial-ItalicMT-20" x="2490.185547"/>
    <use xlink:href="#Arial-ItalicMT-32" x="2517.96875"/>
    <use xlink:href="#Arial-ItalicMT-30" x="2573.583984"/>
    <use xlink:href="#Arial-ItalicMT-32" x="2629.199219"/>
    <use xlink:href="#Arial-ItalicMT-35" x="2684.814453"/>
   </g>
  </g>
 </g>
 <defs>
  <clipPath id="p9fc199b92e">
   <rect x="132.235813" y="32.391562" width="518.4" height="483.84"/>
  </clipPath>
 </defs>
</svg>
