<?xml version="1.0" encoding="utf-8" standalone="no"?>
<!DOCTYPE svg PUBLIC "-//W3C//DTD SVG 1.1//EN"
  "http://www.w3.org/Graphics/SVG/1.1/DTD/svg11.dtd">
<svg xmlns:xlink="http://www.w3.org/1999/xlink" width="999.619375pt" height="742.422656pt" viewBox="0 0 999.619375 742.422656" xmlns="http://www.w3.org/2000/svg" version="1.1">
 <metadata>
  <rdf:RDF xmlns:dc="http://purl.org/dc/elements/1.1/" xmlns:cc="http://creativecommons.org/ns#" xmlns:rdf="http://www.w3.org/1999/02/22-rdf-syntax-ns#">
   <cc:Work>
    <dc:type rdf:resource="http://purl.org/dc/dcmitype/StillImage"/>
    <dc:date>2026-01-23T13:10:03.713723</dc:date>
    <dc:format>image/svg+xml</dc:format>
    <dc:creator>
     <cc:Agent>
      <dc:title>Matplotlib v3.9.4, https://matplotlib.org/</dc:title>
     </cc:Agent>
    </dc:creator>
   </cc:Work>
  </rdf:RDF>
 </metadata>
 <defs>
  <style type="text/css">*{stroke-linejoin: round; stroke-linecap: butt}</style>
 </defs>
 <g id="figure_1">
  <g id="patch_1">
   <path d="M 0 742.422656 
L 999.619375 742.422656 
L 999.619375 0 
L 0 0 
z
" style="fill: #ffffff"/>
  </g>
  <g id="axes_1">
   <g id="patch_2">
    <path d="M 71.719375 667.235625 
L 977.359375 667.235625 
L 977.359375 27.935625 
L 71.719375 27.935625 
z
" style="fill: #fafaf8"/>
   </g>
   <g id="matplotlib.axis_1">
    <g id="xtick_1">
     <g id="text_1">
      <!-- 1980 -->
      <g style="fill: #4a4a5a" transform="translate(59.485313 684.609219) scale(0.11 -0.11)">
       <defs>
        <path id="ArialMT-31" d="M 2384 0 
L 1822 0 
L 1822 3584 
Q 1619 3391 1289 3197 
Q 959 3003 697 2906 
L 697 3450 
Q 1169 3672 1522 3987 
Q 1875 4303 2022 4600 
L 2384 4600 
L 2384 0 
z
" transform="scale(0.015625)"/>
        <path id="ArialMT-39" d="M 350 1059 
L 891 1109 
Q 959 728 1153 556 
Q 1347 384 1650 384 
Q 1909 384 2104 503 
Q 2300 622 2425 820 
Q 2550 1019 2634 1356 
Q 2719 1694 2719 2044 
Q 2719 2081 2716 2156 
Q 2547 1888 2255 1720 
Q 1963 1553 1622 1553 
Q 1053 1553 659 1965 
Q 266 2378 266 3053 
Q 266 3750 677 4175 
Q 1088 4600 1706 4600 
Q 2153 4600 2523 4359 
Q 2894 4119 3086 3673 
Q 3278 3228 3278 2384 
Q 3278 1506 3087 986 
Q 2897 466 2520 194 
Q 2144 -78 1638 -78 
Q 1100 -78 759 220 
Q 419 519 350 1059 
z
M 2653 3081 
Q 2653 3566 2395 3850 
Q 2138 4134 1775 4134 
Q 1400 4134 1122 3828 
Q 844 3522 844 3034 
Q 844 2597 1108 2323 
Q 1372 2050 1759 2050 
Q 2150 2050 2401 2323 
Q 2653 2597 2653 3081 
z
" transform="scale(0.015625)"/>
        <path id="ArialMT-38" d="M 1131 2484 
Q 781 2613 612 2850 
Q 444 3088 444 3419 
Q 444 3919 803 4259 
Q 1163 4600 1759 4600 
Q 2359 4600 2725 4251 
Q 3091 3903 3091 3403 
Q 3091 3084 2923 2848 
Q 2756 2613 2416 2484 
Q 2838 2347 3058 2040 
Q 3278 1734 3278 1309 
Q 3278 722 2862 322 
Q 2447 -78 1769 -78 
Q 1091 -78 675 323 
Q 259 725 259 1325 
Q 259 1772 486 2073 
Q 713 2375 1131 2484 
z
M 1019 3438 
Q 1019 3113 1228 2906 
Q 1438 2700 1772 2700 
Q 2097 2700 2305 2904 
Q 2513 3109 2513 3406 
Q 2513 3716 2298 3927 
Q 2084 4138 1766 4138 
Q 1444 4138 1231 3931 
Q 1019 3725 1019 3438 
z
M 838 1322 
Q 838 1081 952 856 
Q 1066 631 1291 507 
Q 1516 384 1775 384 
Q 2178 384 2440 643 
Q 2703 903 2703 1303 
Q 2703 1709 2433 1975 
Q 2163 2241 1756 2241 
Q 1359 2241 1098 1978 
Q 838 1716 838 1322 
z
" transform="scale(0.015625)"/>
        <path id="ArialMT-30" d="M 266 2259 
Q 266 3072 433 3567 
Q 600 4063 929 4331 
Q 1259 4600 1759 4600 
Q 2128 4600 2406 4451 
Q 2684 4303 2865 4023 
Q 3047 3744 3150 3342 
Q 3253 2941 3253 2259 
Q 3253 1453 3087 958 
Q 2922 463 2592 192 
Q 2263 -78 1759 -78 
Q 1097 -78 719 397 
Q 266 969 266 2259 
z
M 844 2259 
Q 844 1131 1108 757 
Q 1372 384 1759 384 
Q 2147 384 2411 759 
Q 2675 1134 2675 2259 
Q 2675 3391 2411 3762 
Q 2147 4134 1753 4134 
Q 1366 4134 1134 3806 
Q 844 3388 844 2259 
z
" transform="scale(0.015625)"/>
       </defs>
       <use xlink:href="#ArialMT-31"/>
       <use xlink:href="#ArialMT-39" x="55.615234"/>
       <use xlink:href="#ArialMT-38" x="111.230469"/>
       <use xlink:href="#ArialMT-30" x="166.845703"/>
      </g>
     </g>
    </g>
    <g id="xtick_2">
     <g id="text_2">
      <!-- 1990 -->
      <g style="fill: #4a4a5a" transform="translate(188.862455 684.609219) scale(0.11 -0.11)">
       <use xlink:href="#ArialMT-31"/>
       <use xlink:href="#ArialMT-39" x="55.615234"/>
       <use xlink:href="#ArialMT-39" x="111.230469"/>
       <use xlink:href="#ArialMT-30" x="166.845703"/>
      </g>
     </g>
    </g>
    <g id="xtick_3">
     <g id="text_3">
      <!-- 2000 -->
      <g style="fill: #4a4a5a" transform="translate(318.239598 684.609219) scale(0.11 -0.11)">
       <defs>
        <path id="ArialMT-32" d="M 3222 541 
L 3222 0 
L 194 0 
Q 188 203 259 391 
Q 375 700 629 1000 
Q 884 1300 1366 1694 
Q 2113 2306 2375 2664 
Q 2638 3022 2638 3341 
Q 2638 3675 2398 3904 
Q 2159 4134 1775 4134 
Q 1369 4134 1125 3890 
Q 881 3647 878 3216 
L 300 3275 
Q 359 3922 746 4261 
Q 1134 4600 1788 4600 
Q 2447 4600 2831 4234 
Q 3216 3869 3216 3328 
Q 3216 3053 3103 2787 
Q 2991 2522 2730 2228 
Q 2469 1934 1863 1422 
Q 1356 997 1212 845 
Q 1069 694 975 541 
L 3222 541 
z
" transform="scale(0.015625)"/>
       </defs>
       <use xlink:href="#ArialMT-32"/>
       <use xlink:href="#ArialMT-30" x="55.615234"/>
       <use xlink:href="#ArialMT-30" x="111.230469"/>
       <use xlink:href="#ArialMT-30" x="166.845703"/>
      </g>
     </g>
    </g>
    <g id="xtick_4">
     <g id="text_4">
      <!-- 2010 -->
      <g style="fill: #4a4a5a" transform="translate(447.616741 684.609219) scale(0.11 -0.11)">
       <use xlink:href="#ArialMT-32"/>
       <use xlink:href="#ArialMT-30" x="55.615234"/>
       <use xlink:href="#ArialMT-31" x="111.230469"/>
       <use xlink:href="#ArialMT-30" x="166.845703"/>
      </g>
     </g>
    </g>
    <g id="xtick_5">
     <g id="text_5">
      <!-- 2020 -->
      <g style="fill: #4a4a5a" transform="translate(576.993884 684.609219) scale(0.11 -0.11)">
       <use xlink:href="#ArialMT-32"/>
       <use xlink:href="#ArialMT-30" x="55.615234"/>
       <use xlink:href="#ArialMT-32" x="111.230469"/>
       <use xlink:href="#ArialMT-30" x="166.845703"/>
      </g>
     </g>
    </g>
    <g id="xtick_6">
     <g id="text_6">
      <!-- 2030 -->
      <g style="fill: #4a4a5a" transform="translate(706.371027 684.609219) scale(0.11 -0.11)">
       <defs>
        <path id="ArialMT-33" d="M 269 1209 
L 831 1284 
Q 928 806 1161 595 
Q 1394 384 1728 384 
Q 2125 384 2398 659 
Q 2672 934 2672 1341 
Q 2672 1728 2419 1979 
Q 2166 2231 1775 2231 
Q 1616 2231 1378 2169 
L 1441 2663 
Q 1497 2656 1531 2656 
Q 1891 2656 2178 2843 
Q 2466 3031 2466 3422 
Q 2466 3731 2256 3934 
Q 2047 4138 1716 4138 
Q 1388 4138 1169 3931 
Q 950 3725 888 3313 
L 325 3413 
Q 428 3978 793 4289 
Q 1159 4600 1703 4600 
Q 2078 4600 2393 4439 
Q 2709 4278 2876 4000 
Q 3044 3722 3044 3409 
Q 3044 3113 2884 2869 
Q 2725 2625 2413 2481 
Q 2819 2388 3044 2092 
Q 3269 1797 3269 1353 
Q 3269 753 2831 336 
Q 2394 -81 1725 -81 
Q 1122 -81 723 278 
Q 325 638 269 1209 
z
" transform="scale(0.015625)"/>
       </defs>
       <use xlink:href="#ArialMT-32"/>
       <use xlink:href="#ArialMT-30" x="55.615234"/>
       <use xlink:href="#ArialMT-33" x="111.230469"/>
       <use xlink:href="#ArialMT-30" x="166.845703"/>
      </g>
     </g>
    </g>
    <g id="xtick_7">
     <g id="text_7">
      <!-- 2040 -->
      <g style="fill: #4a4a5a" transform="translate(835.74817 684.609219) scale(0.11 -0.11)">
       <defs>
        <path id="ArialMT-34" d="M 2069 0 
L 2069 1097 
L 81 1097 
L 81 1613 
L 2172 4581 
L 2631 4581 
L 2631 1613 
L 3250 1613 
L 3250 1097 
L 2631 1097 
L 2631 0 
L 2069 0 
z
M 2069 1613 
L 2069 3678 
L 634 1613 
L 2069 1613 
z
" transform="scale(0.015625)"/>
       </defs>
       <use xlink:href="#ArialMT-32"/>
       <use xlink:href="#ArialMT-30" x="55.615234"/>
       <use xlink:href="#ArialMT-34" x="111.230469"/>
       <use xlink:href="#ArialMT-30" x="166.845703"/>
      </g>
     </g>
    </g>
    <g id="xtick_8">
     <g id="text_8">
      <!-- 2050 -->
      <g style="fill: #4a4a5a" transform="translate(965.125312 684.609219) scale(0.11 -0.11)">
       <defs>
        <path id="ArialMT-35" d="M 266 1200 
L 856 1250 
Q 922 819 1161 601 
Q 1400 384 1738 384 
Q 2144 384 2425 690 
Q 2706 997 2706 1503 
Q 2706 1984 2436 2262 
Q 2166 2541 1728 2541 
Q 1456 2541 1237 2417 
Q 1019 2294 894 2097 
L 366 2166 
L 809 4519 
L 3088 4519 
L 3088 3981 
L 1259 3981 
L 1013 2750 
Q 1425 3038 1878 3038 
Q 2478 3038 2890 2622 
Q 3303 2206 3303 1553 
Q 3303 931 2941 478 
Q 2500 -78 1738 -78 
Q 1113 -78 717 272 
Q 322 622 266 1200 
z
" transform="scale(0.015625)"/>
       </defs>
       <use xlink:href="#ArialMT-32"/>
       <use xlink:href="#ArialMT-30" x="55.615234"/>
       <use xlink:href="#ArialMT-35" x="111.230469"/>
       <use xlink:href="#ArialMT-30" x="166.845703"/>
      </g>
     </g>
    </g>
    <g id="text_9">
     <!-- Year -->
     <g style="fill: #4a4a5a" transform="translate(512.41375 699.384844) scale(0.12 -0.12)">
      <defs>
       <path id="ArialMT-59" d="M 1784 0 
L 1784 1941 
L 19 4581 
L 756 4581 
L 1659 3200 
Q 1909 2813 2125 2425 
Q 2331 2784 2625 3234 
L 3513 4581 
L 4219 4581 
L 2391 1941 
L 2391 0 
L 1784 0 
z
" transform="scale(0.015625)"/>
       <path id="ArialMT-65" d="M 2694 1069 
L 3275 997 
Q 3138 488 2766 206 
Q 2394 -75 1816 -75 
Q 1088 -75 661 373 
Q 234 822 234 1631 
Q 234 2469 665 2931 
Q 1097 3394 1784 3394 
Q 2450 3394 2872 2941 
Q 3294 2488 3294 1666 
Q 3294 1616 3291 1516 
L 816 1516 
Q 847 969 1125 678 
Q 1403 388 1819 388 
Q 2128 388 2347 550 
Q 2566 713 2694 1069 
z
M 847 1978 
L 2700 1978 
Q 2663 2397 2488 2606 
Q 2219 2931 1791 2931 
Q 1403 2931 1139 2672 
Q 875 2413 847 1978 
z
" transform="scale(0.015625)"/>
       <path id="ArialMT-61" d="M 2588 409 
Q 2275 144 1986 34 
Q 1697 -75 1366 -75 
Q 819 -75 525 192 
Q 231 459 231 875 
Q 231 1119 342 1320 
Q 453 1522 633 1644 
Q 813 1766 1038 1828 
Q 1203 1872 1538 1913 
Q 2219 1994 2541 2106 
Q 2544 2222 2544 2253 
Q 2544 2597 2384 2738 
Q 2169 2928 1744 2928 
Q 1347 2928 1158 2789 
Q 969 2650 878 2297 
L 328 2372 
Q 403 2725 575 2942 
Q 747 3159 1072 3276 
Q 1397 3394 1825 3394 
Q 2250 3394 2515 3294 
Q 2781 3194 2906 3042 
Q 3031 2891 3081 2659 
Q 3109 2516 3109 2141 
L 3109 1391 
Q 3109 606 3145 398 
Q 3181 191 3288 0 
L 2700 0 
Q 2613 175 2588 409 
z
M 2541 1666 
Q 2234 1541 1622 1453 
Q 1275 1403 1131 1340 
Q 988 1278 909 1158 
Q 831 1038 831 891 
Q 831 666 1001 516 
Q 1172 366 1500 366 
Q 1825 366 2078 508 
Q 2331 650 2450 897 
Q 2541 1088 2541 1459 
L 2541 1666 
z
" transform="scale(0.015625)"/>
       <path id="ArialMT-72" d="M 416 0 
L 416 3319 
L 922 3319 
L 922 2816 
Q 1116 3169 1280 3281 
Q 1444 3394 1641 3394 
Q 1925 3394 2219 3213 
L 2025 2691 
Q 1819 2813 1613 2813 
Q 1428 2813 1281 2702 
Q 1134 2591 1072 2394 
Q 978 2094 978 1738 
L 978 0 
L 416 0 
z
" transform="scale(0.015625)"/>
      </defs>
      <use xlink:href="#ArialMT-59"/>
      <use xlink:href="#ArialMT-65" x="57.574219"/>
      <use xlink:href="#ArialMT-61" x="113.189453"/>
      <use xlink:href="#ArialMT-72" x="168.804688"/>
     </g>
    </g>
   </g>
   <g id="matplotlib.axis_2">
    <g id="ytick_1">
     <g id="text_10">
      <!-- $0.01 -->
      <g style="fill: #4a4a5a" transform="translate(34.695312 643.679782) scale(0.11 -0.11)">
       <defs>
        <path id="ArialMT-24" d="M 1594 -659 
L 1594 -97 
Q 1172 -44 908 92 
Q 644 228 451 531 
Q 259 834 228 1272 
L 794 1378 
Q 859 925 1025 713 
Q 1263 413 1594 378 
L 1594 2169 
Q 1247 2234 884 2438 
Q 616 2588 470 2853 
Q 325 3119 325 3456 
Q 325 4056 750 4428 
Q 1034 4678 1594 4734 
L 1594 5003 
L 1925 5003 
L 1925 4734 
Q 2416 4688 2703 4447 
Q 3072 4141 3147 3606 
L 2566 3519 
Q 2516 3850 2358 4026 
Q 2200 4203 1925 4259 
L 1925 2638 
Q 2350 2531 2488 2472 
Q 2750 2356 2915 2190 
Q 3081 2025 3170 1797 
Q 3259 1569 3259 1303 
Q 3259 719 2887 328 
Q 2516 -63 1925 -91 
L 1925 -659 
L 1594 -659 
z
M 1594 4266 
Q 1266 4216 1077 4003 
Q 888 3791 888 3500 
Q 888 3213 1048 3019 
Q 1209 2825 1594 2709 
L 1594 4266 
z
M 1925 378 
Q 2253 419 2467 662 
Q 2681 906 2681 1266 
Q 2681 1572 2529 1758 
Q 2378 1944 1925 2091 
L 1925 378 
z
" transform="scale(0.015625)"/>
        <path id="ArialMT-2e" d="M 581 0 
L 581 641 
L 1222 641 
L 1222 0 
L 581 0 
z
" transform="scale(0.015625)"/>
       </defs>
       <use xlink:href="#ArialMT-24"/>
       <use xlink:href="#ArialMT-30" x="55.615234"/>
       <use xlink:href="#ArialMT-2e" x="111.230469"/>
       <use xlink:href="#ArialMT-30" x="139.013672"/>
       <use xlink:href="#ArialMT-31" x="194.628906"/>
      </g>
     </g>
    </g>
    <g id="ytick_2">
     <g id="text_11">
      <!-- $0.1 -->
      <g style="fill: #4a4a5a" transform="translate(40.812344 552.351211) scale(0.11 -0.11)">
       <use xlink:href="#ArialMT-24"/>
       <use xlink:href="#ArialMT-30" x="55.615234"/>
       <use xlink:href="#ArialMT-2e" x="111.230469"/>
       <use xlink:href="#ArialMT-31" x="139.013672"/>
      </g>
     </g>
    </g>
    <g id="ytick_3">
     <g id="text_12">
      <!-- $1 -->
      <g style="fill: #4a4a5a" transform="translate(49.985312 461.02264) scale(0.11 -0.11)">
       <use xlink:href="#ArialMT-24"/>
       <use xlink:href="#ArialMT-31" x="55.615234"/>
      </g>
     </g>
    </g>
    <g id="ytick_4">
     <g id="text_13">
      <!-- $10 -->
      <g style="fill: #4a4a5a" transform="translate(43.868281 369.694068) scale(0.11 -0.11)">
       <use xlink:href="#ArialMT-24"/>
       <use xlink:href="#ArialMT-31" x="55.615234"/>
       <use xlink:href="#ArialMT-30" x="111.230469"/>
      </g>
     </g>
    </g>
    <g id="ytick_5">
     <g id="text_14">
      <!-- $100 -->
      <g style="fill: #4a4a5a" transform="translate(37.75125 278.365497) scale(0.11 -0.11)">
       <use xlink:href="#ArialMT-24"/>
       <use xlink:href="#ArialMT-31" x="55.615234"/>
       <use xlink:href="#ArialMT-30" x="111.230469"/>
       <use xlink:href="#ArialMT-30" x="166.845703"/>
      </g>
     </g>
    </g>
    <g id="ytick_6">
     <g id="text_15">
      <!-- $1,000 -->
      <g style="fill: #4a4a5a" transform="translate(28.578281 187.08505) scale(0.11 -0.11)">
       <defs>
        <path id="ArialMT-2c" d="M 569 0 
L 569 641 
L 1209 641 
L 1209 0 
Q 1209 -353 1084 -570 
Q 959 -788 688 -906 
L 531 -666 
Q 709 -588 793 -436 
Q 878 -284 888 0 
L 569 0 
z
" transform="scale(0.015625)"/>
       </defs>
       <use xlink:href="#ArialMT-24"/>
       <use xlink:href="#ArialMT-31" x="55.615234"/>
       <use xlink:href="#ArialMT-2c" x="111.230469"/>
       <use xlink:href="#ArialMT-30" x="139.013672"/>
       <use xlink:href="#ArialMT-30" x="194.628906"/>
       <use xlink:href="#ArialMT-30" x="250.244141"/>
      </g>
     </g>
    </g>
    <g id="ytick_7">
     <g id="text_16">
      <!-- $10,000 -->
      <g style="fill: #4a4a5a" transform="translate(22.46125 95.756479) scale(0.11 -0.11)">
       <use xlink:href="#ArialMT-24"/>
       <use xlink:href="#ArialMT-31" x="55.615234"/>
       <use xlink:href="#ArialMT-30" x="111.230469"/>
       <use xlink:href="#ArialMT-2c" x="166.845703"/>
       <use xlink:href="#ArialMT-30" x="194.628906"/>
       <use xlink:href="#ArialMT-30" x="250.244141"/>
       <use xlink:href="#ArialMT-30" x="305.859375"/>
      </g>
     </g>
    </g>
    <g id="ytick_8"/>
    <g id="ytick_9"/>
    <g id="ytick_10"/>
    <g id="ytick_11"/>
    <g id="ytick_12"/>
    <g id="ytick_13"/>
    <g id="ytick_14"/>
    <g id="ytick_15"/>
    <g id="ytick_16"/>
    <g id="ytick_17"/>
    <g id="ytick_18"/>
    <g id="ytick_19"/>
    <g id="ytick_20"/>
    <g id="ytick_21"/>
    <g id="ytick_22"/>
    <g id="ytick_23"/>
    <g id="ytick_24"/>
    <g id="ytick_25"/>
    <g id="ytick_26"/>
    <g id="ytick_27"/>
    <g id="ytick_28"/>
    <g id="ytick_29"/>
    <g id="ytick_30"/>
    <g id="ytick_31"/>
    <g id="ytick_32"/>
    <g id="ytick_33"/>
    <g id="ytick_34"/>
    <g id="ytick_35"/>
    <g id="ytick_36"/>
    <g id="ytick_37"/>
    <g id="ytick_38"/>
    <g id="ytick_39"/>
    <g id="ytick_40"/>
    <g id="ytick_41"/>
    <g id="ytick_42"/>
    <g id="ytick_43"/>
    <g id="ytick_44"/>
    <g id="ytick_45"/>
    <g id="ytick_46"/>
    <g id="ytick_47"/>
    <g id="ytick_48"/>
    <g id="ytick_49"/>
    <g id="ytick_50"/>
    <g id="ytick_51"/>
    <g id="ytick_52"/>
    <g id="ytick_53"/>
    <g id="ytick_54"/>
    <g id="ytick_55"/>
    <g id="ytick_56"/>
    <g id="ytick_57"/>
    <g id="ytick_58"/>
    <g id="ytick_59"/>
    <g id="ytick_60"/>
    <g id="ytick_61"/>
    <g id="ytick_62"/>
    <g id="ytick_63"/>
    <g id="ytick_64"/>
    <g id="text_17">
     <!-- Cost per neuron (USD) -->
     <g style="fill: #4a4a5a" transform="translate(15.935625 408.938437) rotate(-90) scale(0.12 -0.12)">
      <defs>
       <path id="ArialMT-43" d="M 3763 1606 
L 4369 1453 
Q 4178 706 3683 314 
Q 3188 -78 2472 -78 
Q 1731 -78 1267 223 
Q 803 525 561 1097 
Q 319 1669 319 2325 
Q 319 3041 592 3573 
Q 866 4106 1370 4382 
Q 1875 4659 2481 4659 
Q 3169 4659 3637 4309 
Q 4106 3959 4291 3325 
L 3694 3184 
Q 3534 3684 3231 3912 
Q 2928 4141 2469 4141 
Q 1941 4141 1586 3887 
Q 1231 3634 1087 3207 
Q 944 2781 944 2328 
Q 944 1744 1114 1308 
Q 1284 872 1643 656 
Q 2003 441 2422 441 
Q 2931 441 3284 734 
Q 3638 1028 3763 1606 
z
" transform="scale(0.015625)"/>
       <path id="ArialMT-6f" d="M 213 1659 
Q 213 2581 725 3025 
Q 1153 3394 1769 3394 
Q 2453 3394 2887 2945 
Q 3322 2497 3322 1706 
Q 3322 1066 3130 698 
Q 2938 331 2570 128 
Q 2203 -75 1769 -75 
Q 1072 -75 642 372 
Q 213 819 213 1659 
z
M 791 1659 
Q 791 1022 1069 705 
Q 1347 388 1769 388 
Q 2188 388 2466 706 
Q 2744 1025 2744 1678 
Q 2744 2294 2464 2611 
Q 2184 2928 1769 2928 
Q 1347 2928 1069 2612 
Q 791 2297 791 1659 
z
" transform="scale(0.015625)"/>
       <path id="ArialMT-73" d="M 197 991 
L 753 1078 
Q 800 744 1014 566 
Q 1228 388 1613 388 
Q 2000 388 2187 545 
Q 2375 703 2375 916 
Q 2375 1106 2209 1216 
Q 2094 1291 1634 1406 
Q 1016 1563 777 1677 
Q 538 1791 414 1992 
Q 291 2194 291 2438 
Q 291 2659 392 2848 
Q 494 3038 669 3163 
Q 800 3259 1026 3326 
Q 1253 3394 1513 3394 
Q 1903 3394 2198 3281 
Q 2494 3169 2634 2976 
Q 2775 2784 2828 2463 
L 2278 2388 
Q 2241 2644 2061 2787 
Q 1881 2931 1553 2931 
Q 1166 2931 1000 2803 
Q 834 2675 834 2503 
Q 834 2394 903 2306 
Q 972 2216 1119 2156 
Q 1203 2125 1616 2013 
Q 2213 1853 2448 1751 
Q 2684 1650 2818 1456 
Q 2953 1263 2953 975 
Q 2953 694 2789 445 
Q 2625 197 2315 61 
Q 2006 -75 1616 -75 
Q 969 -75 630 194 
Q 291 463 197 991 
z
" transform="scale(0.015625)"/>
       <path id="ArialMT-74" d="M 1650 503 
L 1731 6 
Q 1494 -44 1306 -44 
Q 1000 -44 831 53 
Q 663 150 594 308 
Q 525 466 525 972 
L 525 2881 
L 113 2881 
L 113 3319 
L 525 3319 
L 525 4141 
L 1084 4478 
L 1084 3319 
L 1650 3319 
L 1650 2881 
L 1084 2881 
L 1084 941 
Q 1084 700 1114 631 
Q 1144 563 1211 522 
Q 1278 481 1403 481 
Q 1497 481 1650 503 
z
" transform="scale(0.015625)"/>
       <path id="ArialMT-20" transform="scale(0.015625)"/>
       <path id="ArialMT-70" d="M 422 -1272 
L 422 3319 
L 934 3319 
L 934 2888 
Q 1116 3141 1344 3267 
Q 1572 3394 1897 3394 
Q 2322 3394 2647 3175 
Q 2972 2956 3137 2557 
Q 3303 2159 3303 1684 
Q 3303 1175 3120 767 
Q 2938 359 2589 142 
Q 2241 -75 1856 -75 
Q 1575 -75 1351 44 
Q 1128 163 984 344 
L 984 -1272 
L 422 -1272 
z
M 931 1641 
Q 931 1000 1190 694 
Q 1450 388 1819 388 
Q 2194 388 2461 705 
Q 2728 1022 2728 1688 
Q 2728 2322 2467 2637 
Q 2206 2953 1844 2953 
Q 1484 2953 1207 2617 
Q 931 2281 931 1641 
z
" transform="scale(0.015625)"/>
       <path id="ArialMT-6e" d="M 422 0 
L 422 3319 
L 928 3319 
L 928 2847 
Q 1294 3394 1984 3394 
Q 2284 3394 2536 3286 
Q 2788 3178 2913 3003 
Q 3038 2828 3088 2588 
Q 3119 2431 3119 2041 
L 3119 0 
L 2556 0 
L 2556 2019 
Q 2556 2363 2490 2533 
Q 2425 2703 2258 2804 
Q 2091 2906 1866 2906 
Q 1506 2906 1245 2678 
Q 984 2450 984 1813 
L 984 0 
L 422 0 
z
" transform="scale(0.015625)"/>
       <path id="ArialMT-75" d="M 2597 0 
L 2597 488 
Q 2209 -75 1544 -75 
Q 1250 -75 995 37 
Q 741 150 617 320 
Q 494 491 444 738 
Q 409 903 409 1263 
L 409 3319 
L 972 3319 
L 972 1478 
Q 972 1038 1006 884 
Q 1059 663 1231 536 
Q 1403 409 1656 409 
Q 1909 409 2131 539 
Q 2353 669 2445 892 
Q 2538 1116 2538 1541 
L 2538 3319 
L 3100 3319 
L 3100 0 
L 2597 0 
z
" transform="scale(0.015625)"/>
       <path id="ArialMT-28" d="M 1497 -1347 
Q 1031 -759 709 28 
Q 388 816 388 1659 
Q 388 2403 628 3084 
Q 909 3875 1497 4659 
L 1900 4659 
Q 1522 4009 1400 3731 
Q 1209 3300 1100 2831 
Q 966 2247 966 1656 
Q 966 153 1900 -1347 
L 1497 -1347 
z
" transform="scale(0.015625)"/>
       <path id="ArialMT-55" d="M 3500 4581 
L 4106 4581 
L 4106 1934 
Q 4106 1244 3950 837 
Q 3794 431 3386 176 
Q 2978 -78 2316 -78 
Q 1672 -78 1262 144 
Q 853 366 678 786 
Q 503 1206 503 1934 
L 503 4581 
L 1109 4581 
L 1109 1938 
Q 1109 1341 1220 1058 
Q 1331 775 1601 622 
Q 1872 469 2263 469 
Q 2931 469 3215 772 
Q 3500 1075 3500 1938 
L 3500 4581 
z
" transform="scale(0.015625)"/>
       <path id="ArialMT-53" d="M 288 1472 
L 859 1522 
Q 900 1178 1048 958 
Q 1197 738 1509 602 
Q 1822 466 2213 466 
Q 2559 466 2825 569 
Q 3091 672 3220 851 
Q 3350 1031 3350 1244 
Q 3350 1459 3225 1620 
Q 3100 1781 2813 1891 
Q 2628 1963 1997 2114 
Q 1366 2266 1113 2400 
Q 784 2572 623 2826 
Q 463 3081 463 3397 
Q 463 3744 659 4045 
Q 856 4347 1234 4503 
Q 1613 4659 2075 4659 
Q 2584 4659 2973 4495 
Q 3363 4331 3572 4012 
Q 3781 3694 3797 3291 
L 3216 3247 
Q 3169 3681 2898 3903 
Q 2628 4125 2100 4125 
Q 1550 4125 1298 3923 
Q 1047 3722 1047 3438 
Q 1047 3191 1225 3031 
Q 1400 2872 2139 2705 
Q 2878 2538 3153 2413 
Q 3553 2228 3743 1945 
Q 3934 1663 3934 1294 
Q 3934 928 3725 604 
Q 3516 281 3123 101 
Q 2731 -78 2241 -78 
Q 1619 -78 1198 103 
Q 778 284 539 648 
Q 300 1013 288 1472 
z
" transform="scale(0.015625)"/>
       <path id="ArialMT-44" d="M 494 0 
L 494 4581 
L 2072 4581 
Q 2606 4581 2888 4516 
Q 3281 4425 3559 4188 
Q 3922 3881 4101 3404 
Q 4281 2928 4281 2316 
Q 4281 1794 4159 1391 
Q 4038 988 3847 723 
Q 3656 459 3429 307 
Q 3203 156 2883 78 
Q 2563 0 2147 0 
L 494 0 
z
M 1100 541 
L 2078 541 
Q 2531 541 2789 625 
Q 3047 709 3200 863 
Q 3416 1078 3536 1442 
Q 3656 1806 3656 2325 
Q 3656 3044 3420 3430 
Q 3184 3816 2847 3947 
Q 2603 4041 2063 4041 
L 1100 4041 
L 1100 541 
z
" transform="scale(0.015625)"/>
       <path id="ArialMT-29" d="M 791 -1347 
L 388 -1347 
Q 1322 153 1322 1656 
Q 1322 2244 1188 2822 
Q 1081 3291 891 3722 
Q 769 4003 388 4659 
L 791 4659 
Q 1378 3875 1659 3084 
Q 1900 2403 1900 1659 
Q 1900 816 1576 28 
Q 1253 -759 791 -1347 
z
" transform="scale(0.015625)"/>
      </defs>
      <use xlink:href="#ArialMT-43"/>
      <use xlink:href="#ArialMT-6f" x="72.216797"/>
      <use xlink:href="#ArialMT-73" x="127.832031"/>
      <use xlink:href="#ArialMT-74" x="177.832031"/>
      <use xlink:href="#ArialMT-20" x="205.615234"/>
      <use xlink:href="#ArialMT-70" x="233.398438"/>
      <use xlink:href="#ArialMT-65" x="289.013672"/>
      <use xlink:href="#ArialMT-72" x="344.628906"/>
      <use xlink:href="#ArialMT-20" x="377.929688"/>
      <use xlink:href="#ArialMT-6e" x="405.712891"/>
      <use xlink:href="#ArialMT-65" x="461.328125"/>
      <use xlink:href="#ArialMT-75" x="516.943359"/>
      <use xlink:href="#ArialMT-72" x="572.558594"/>
      <use xlink:href="#ArialMT-6f" x="605.859375"/>
      <use xlink:href="#ArialMT-6e" x="661.474609"/>
      <use xlink:href="#ArialMT-20" x="717.089844"/>
      <use xlink:href="#ArialMT-28" x="744.873047"/>
      <use xlink:href="#ArialMT-55" x="778.173828"/>
      <use xlink:href="#ArialMT-53" x="850.390625"/>
      <use xlink:href="#ArialMT-44" x="917.089844"/>
      <use xlink:href="#ArialMT-29" x="989.306641"/>
     </g>
    </g>
   </g>
   <g id="line2d_1">
    <path d="M 71.719375 365.757271 
L 977.359375 365.757271 
" clip-path="url(#p19623d6527)" style="fill: none; stroke-dasharray: 7.4,3.2; stroke-dashoffset: 0; stroke: #d4a84b; stroke-opacity: 0.8; stroke-width: 2"/>
   </g>
   <g id="line2d_2">
    <path d="M 71.719375 548.414414 
L 977.359375 548.414414 
" clip-path="url(#p19623d6527)" style="fill: none; stroke-dasharray: 7.4,3.2; stroke-dashoffset: 0; stroke: #d4a84b; stroke-opacity: 0.8; stroke-width: 2"/>
   </g>
   <g id="line2d_3">
    <path d="M 71.719375 639.742986 
L 977.359375 639.742986 
" clip-path="url(#p19623d6527)" style="fill: none; stroke-dasharray: 7.4,3.2; stroke-dashoffset: 0; stroke: #d4a84b; stroke-opacity: 0.8; stroke-width: 2"/>
   </g>
   <g id="patch_3">
    <path d="M 71.719375 667.235625 
L 71.719375 27.935625 
" style="fill: none; stroke: #d8d4cf; stroke-width: 1.25; stroke-linejoin: miter; stroke-linecap: square"/>
   </g>
   <g id="patch_4">
    <path d="M 71.719375 667.235625 
L 977.359375 667.235625 
" style="fill: none; stroke: #d8d4cf; stroke-width: 1.25; stroke-linejoin: miter; stroke-linecap: square"/>
   </g>
   <g id="PathCollection_1">
    <defs>
     <path id="mf4103ba895" d="M -5.477226 5.477226 
L 5.477226 5.477226 
L 5.477226 -5.477226 
L -5.477226 -5.477226 
z
" style="stroke: #4a4a5a; stroke-width: 1.5"/>
    </defs>
    <g clip-path="url(#p19623d6527)">
     <use xlink:href="#mf4103ba895" x="149.345661" y="71.774671" style="fill: #4a90a4; stroke: #4a4a5a; stroke-width: 1.5"/>
    </g>
   </g>
   <g id="PathCollection_2">
    <defs>
     <path id="m632ea51676" d="M 0 5.477226 
C 1.452577 5.477226 2.845856 4.900111 3.872983 3.872983 
C 4.900111 2.845856 5.477226 1.452577 5.477226 0 
C 5.477226 -1.452577 4.900111 -2.845856 3.872983 -3.872983 
C 2.845856 -4.900111 1.452577 -5.477226 0 -5.477226 
C -1.452577 -5.477226 -2.845856 -4.900111 -3.872983 -3.872983 
C -4.900111 -2.845856 -5.477226 -1.452577 -5.477226 0 
C -5.477226 1.452577 -4.900111 2.845856 -3.872983 3.872983 
C -2.845856 4.900111 -1.452577 5.477226 0 5.477226 
z
" style="stroke: #4a4a5a; stroke-width: 1.5"/>
    </defs>
    <g clip-path="url(#p19623d6527)">
     <use xlink:href="#m632ea51676" x="563.352518" y="244.252482" style="fill: #d4a84b; stroke: #4a4a5a; stroke-width: 1.5"/>
    </g>
   </g>
   <g id="PathCollection_3">
    <g clip-path="url(#p19623d6527)">
     <use xlink:href="#m632ea51676" x="602.165661" y="274.4287" style="fill: #d4a84b; stroke: #4a4a5a; stroke-width: 1.5"/>
    </g>
   </g>
   <g id="PathCollection_4">
    <g clip-path="url(#p19623d6527)">
     <use xlink:href="#mf4103ba895" x="640.978804" y="323.527123" style="fill: #4a90a4; stroke: #4a4a5a; stroke-width: 1.5"/>
    </g>
   </g>
   <g id="PathCollection_5">
    <g clip-path="url(#p19623d6527)">
     <use xlink:href="#mf4103ba895" x="628.041089" y="229.945508" style="fill: #4a90a4; stroke: #4a4a5a; stroke-width: 1.5"/>
    </g>
   </g>
   <g id="PathCollection_6">
    <g clip-path="url(#p19623d6527)">
     <use xlink:href="#mf4103ba895" x="653.916518" y="277.735906" style="fill: #4a90a4; stroke: #4a4a5a; stroke-width: 1.5"/>
    </g>
   </g>
   <g id="PathCollection_7">
    <defs>
     <path id="m60a785f121" d="M -0 7.745967 
L 7.745967 0 
L 0 -7.745967 
L -7.745967 -0 
z
" style="stroke: #4a4a5a; stroke-width: 1.5"/>
    </defs>
    <g clip-path="url(#p19623d6527)">
     <use xlink:href="#m60a785f121" x="718.605089" y="376.330492" style="fill: #2ecc71; stroke: #4a4a5a; stroke-width: 1.5"/>
    </g>
   </g>
   <g id="PathCollection_8">
    <g clip-path="url(#p19623d6527)">
     <use xlink:href="#m60a785f121" x="718.605089" y="412.467204" style="fill: #2ecc71; stroke: #4a4a5a; stroke-width: 1.5"/>
    </g>
   </g>
   <g id="PathCollection_9">
    <g clip-path="url(#p19623d6527)">
     <use xlink:href="#m60a785f121" x="718.605089" y="426.540659" style="fill: #2ecc71; stroke: #4a4a5a; stroke-width: 1.5"/>
    </g>
   </g>
   <g id="text_18">
    <!-- Mouse connectome for $1B -->
    <g style="fill: #4a4a5a" transform="translate(97.594804 353.37755) scale(0.1 -0.1)">
     <defs>
      <path id="Arial-BoldMT-4d" d="M 453 0 
L 453 4581 
L 1838 4581 
L 2669 1456 
L 3491 4581 
L 4878 4581 
L 4878 0 
L 4019 0 
L 4019 3606 
L 3109 0 
L 2219 0 
L 1313 3606 
L 1313 0 
L 453 0 
z
" transform="scale(0.015625)"/>
      <path id="Arial-BoldMT-6f" d="M 256 1706 
Q 256 2144 472 2553 
Q 688 2963 1083 3178 
Q 1478 3394 1966 3394 
Q 2719 3394 3200 2905 
Q 3681 2416 3681 1669 
Q 3681 916 3195 420 
Q 2709 -75 1972 -75 
Q 1516 -75 1102 131 
Q 688 338 472 736 
Q 256 1134 256 1706 
z
M 1156 1659 
Q 1156 1166 1390 903 
Q 1625 641 1969 641 
Q 2313 641 2545 903 
Q 2778 1166 2778 1666 
Q 2778 2153 2545 2415 
Q 2313 2678 1969 2678 
Q 1625 2678 1390 2415 
Q 1156 2153 1156 1659 
z
" transform="scale(0.015625)"/>
      <path id="Arial-BoldMT-75" d="M 2644 0 
L 2644 497 
Q 2463 231 2167 78 
Q 1872 -75 1544 -75 
Q 1209 -75 943 72 
Q 678 219 559 484 
Q 441 750 441 1219 
L 441 3319 
L 1319 3319 
L 1319 1794 
Q 1319 1094 1367 936 
Q 1416 778 1544 686 
Q 1672 594 1869 594 
Q 2094 594 2272 717 
Q 2450 841 2515 1023 
Q 2581 1206 2581 1919 
L 2581 3319 
L 3459 3319 
L 3459 0 
L 2644 0 
z
" transform="scale(0.015625)"/>
      <path id="Arial-BoldMT-73" d="M 150 947 
L 1031 1081 
Q 1088 825 1259 692 
Q 1431 559 1741 559 
Q 2081 559 2253 684 
Q 2369 772 2369 919 
Q 2369 1019 2306 1084 
Q 2241 1147 2013 1200 
Q 950 1434 666 1628 
Q 272 1897 272 2375 
Q 272 2806 612 3100 
Q 953 3394 1669 3394 
Q 2350 3394 2681 3172 
Q 3013 2950 3138 2516 
L 2309 2363 
Q 2256 2556 2107 2659 
Q 1959 2763 1684 2763 
Q 1338 2763 1188 2666 
Q 1088 2597 1088 2488 
Q 1088 2394 1175 2328 
Q 1294 2241 1995 2081 
Q 2697 1922 2975 1691 
Q 3250 1456 3250 1038 
Q 3250 581 2869 253 
Q 2488 -75 1741 -75 
Q 1063 -75 667 200 
Q 272 475 150 947 
z
" transform="scale(0.015625)"/>
      <path id="Arial-BoldMT-65" d="M 2381 1056 
L 3256 909 
Q 3088 428 2723 176 
Q 2359 -75 1813 -75 
Q 947 -75 531 491 
Q 203 944 203 1634 
Q 203 2459 634 2926 
Q 1066 3394 1725 3394 
Q 2466 3394 2894 2905 
Q 3322 2416 3303 1406 
L 1103 1406 
Q 1113 1016 1316 798 
Q 1519 581 1822 581 
Q 2028 581 2168 693 
Q 2309 806 2381 1056 
z
M 2431 1944 
Q 2422 2325 2234 2523 
Q 2047 2722 1778 2722 
Q 1491 2722 1303 2513 
Q 1116 2303 1119 1944 
L 2431 1944 
z
" transform="scale(0.015625)"/>
      <path id="Arial-BoldMT-20" transform="scale(0.015625)"/>
      <path id="Arial-BoldMT-63" d="M 3353 2338 
L 2488 2181 
Q 2444 2441 2289 2572 
Q 2134 2703 1888 2703 
Q 1559 2703 1364 2476 
Q 1169 2250 1169 1719 
Q 1169 1128 1367 884 
Q 1566 641 1900 641 
Q 2150 641 2309 783 
Q 2469 925 2534 1272 
L 3397 1125 
Q 3263 531 2881 228 
Q 2500 -75 1859 -75 
Q 1131 -75 698 384 
Q 266 844 266 1656 
Q 266 2478 700 2936 
Q 1134 3394 1875 3394 
Q 2481 3394 2839 3133 
Q 3197 2872 3353 2338 
z
" transform="scale(0.015625)"/>
      <path id="Arial-BoldMT-6e" d="M 3478 0 
L 2600 0 
L 2600 1694 
Q 2600 2231 2544 2389 
Q 2488 2547 2361 2634 
Q 2234 2722 2056 2722 
Q 1828 2722 1647 2597 
Q 1466 2472 1398 2265 
Q 1331 2059 1331 1503 
L 1331 0 
L 453 0 
L 453 3319 
L 1269 3319 
L 1269 2831 
Q 1703 3394 2363 3394 
Q 2653 3394 2893 3289 
Q 3134 3184 3257 3021 
Q 3381 2859 3429 2653 
Q 3478 2447 3478 2063 
L 3478 0 
z
" transform="scale(0.015625)"/>
      <path id="Arial-BoldMT-74" d="M 1981 3319 
L 1981 2619 
L 1381 2619 
L 1381 1281 
Q 1381 875 1398 808 
Q 1416 741 1477 697 
Q 1538 653 1625 653 
Q 1747 653 1978 738 
L 2053 56 
Q 1747 -75 1359 -75 
Q 1122 -75 931 4 
Q 741 84 652 211 
Q 563 338 528 553 
Q 500 706 500 1172 
L 500 2619 
L 97 2619 
L 97 3319 
L 500 3319 
L 500 3978 
L 1381 4491 
L 1381 3319 
L 1981 3319 
z
" transform="scale(0.015625)"/>
      <path id="Arial-BoldMT-6d" d="M 394 3319 
L 1203 3319 
L 1203 2866 
Q 1638 3394 2238 3394 
Q 2556 3394 2790 3262 
Q 3025 3131 3175 2866 
Q 3394 3131 3647 3262 
Q 3900 3394 4188 3394 
Q 4553 3394 4806 3245 
Q 5059 3097 5184 2809 
Q 5275 2597 5275 2122 
L 5275 0 
L 4397 0 
L 4397 1897 
Q 4397 2391 4306 2534 
Q 4184 2722 3931 2722 
Q 3747 2722 3584 2609 
Q 3422 2497 3350 2280 
Q 3278 2063 3278 1594 
L 3278 0 
L 2400 0 
L 2400 1819 
Q 2400 2303 2353 2443 
Q 2306 2584 2207 2653 
Q 2109 2722 1941 2722 
Q 1738 2722 1575 2612 
Q 1413 2503 1342 2297 
Q 1272 2091 1272 1613 
L 1272 0 
L 394 0 
L 394 3319 
z
" transform="scale(0.015625)"/>
      <path id="Arial-BoldMT-66" d="M 75 3319 
L 563 3319 
L 563 3569 
Q 563 3988 652 4194 
Q 741 4400 980 4529 
Q 1219 4659 1584 4659 
Q 1959 4659 2319 4547 
L 2200 3934 
Q 1991 3984 1797 3984 
Q 1606 3984 1523 3895 
Q 1441 3806 1441 3553 
L 1441 3319 
L 2097 3319 
L 2097 2628 
L 1441 2628 
L 1441 0 
L 563 0 
L 563 2628 
L 75 2628 
L 75 3319 
z
" transform="scale(0.015625)"/>
      <path id="Arial-BoldMT-72" d="M 1300 0 
L 422 0 
L 422 3319 
L 1238 3319 
L 1238 2847 
Q 1447 3181 1614 3287 
Q 1781 3394 1994 3394 
Q 2294 3394 2572 3228 
L 2300 2463 
Q 2078 2606 1888 2606 
Q 1703 2606 1575 2504 
Q 1447 2403 1373 2137 
Q 1300 1872 1300 1025 
L 1300 0 
z
" transform="scale(0.015625)"/>
      <path id="Arial-BoldMT-24" d="M 1528 678 
L 1528 1988 
Q 916 2163 630 2517 
Q 344 2872 344 3378 
Q 344 3891 667 4239 
Q 991 4588 1528 4641 
L 1528 4950 
L 1981 4950 
L 1981 4641 
Q 2478 4581 2772 4301 
Q 3066 4022 3147 3553 
L 2356 3450 
Q 2284 3819 1981 3950 
L 1981 2728 
Q 2731 2525 3003 2201 
Q 3275 1878 3275 1372 
Q 3275 806 2933 418 
Q 2591 31 1981 -56 
L 1981 -641 
L 1528 -641 
L 1528 -72 
Q 988 -6 650 331 
Q 313 669 219 1284 
L 1034 1372 
Q 1084 1122 1221 940 
Q 1359 759 1528 678 
z
M 1528 3959 
Q 1344 3897 1234 3747 
Q 1125 3597 1125 3416 
Q 1125 3250 1225 3108 
Q 1325 2966 1528 2878 
L 1528 3959 
z
M 1981 634 
Q 2216 678 2362 851 
Q 2509 1025 2509 1259 
Q 2509 1469 2386 1620 
Q 2263 1772 1981 1853 
L 1981 634 
z
" transform="scale(0.015625)"/>
      <path id="Arial-BoldMT-31" d="M 2519 0 
L 1641 0 
L 1641 3309 
Q 1159 2859 506 2644 
L 506 3441 
Q 850 3553 1253 3867 
Q 1656 4181 1806 4600 
L 2519 4600 
L 2519 0 
z
" transform="scale(0.015625)"/>
      <path id="Arial-BoldMT-42" d="M 469 4581 
L 2300 4581 
Q 2844 4581 3111 4536 
Q 3378 4491 3589 4347 
Q 3800 4203 3940 3964 
Q 4081 3725 4081 3428 
Q 4081 3106 3907 2837 
Q 3734 2569 3438 2434 
Q 3856 2313 4081 2019 
Q 4306 1725 4306 1328 
Q 4306 1016 4161 720 
Q 4016 425 3764 248 
Q 3513 72 3144 31 
Q 2913 6 2028 0 
L 469 0 
L 469 4581 
z
M 1394 3819 
L 1394 2759 
L 2000 2759 
Q 2541 2759 2672 2775 
Q 2909 2803 3045 2939 
Q 3181 3075 3181 3297 
Q 3181 3509 3064 3642 
Q 2947 3775 2716 3803 
Q 2578 3819 1925 3819 
L 1394 3819 
z
M 1394 1997 
L 1394 772 
L 2250 772 
Q 2750 772 2884 800 
Q 3091 838 3220 983 
Q 3350 1128 3350 1372 
Q 3350 1578 3250 1722 
Q 3150 1866 2961 1931 
Q 2772 1997 2141 1997 
L 1394 1997 
z
" transform="scale(0.015625)"/>
     </defs>
     <use xlink:href="#Arial-BoldMT-4d"/>
     <use xlink:href="#Arial-BoldMT-6f" x="83.300781"/>
     <use xlink:href="#Arial-BoldMT-75" x="144.384766"/>
     <use xlink:href="#Arial-BoldMT-73" x="205.46875"/>
     <use xlink:href="#Arial-BoldMT-65" x="261.083984"/>
     <use xlink:href="#Arial-BoldMT-20" x="316.699219"/>
     <use xlink:href="#Arial-BoldMT-63" x="344.482422"/>
     <use xlink:href="#Arial-BoldMT-6f" x="400.097656"/>
     <use xlink:href="#Arial-BoldMT-6e" x="461.181641"/>
     <use xlink:href="#Arial-BoldMT-6e" x="522.265625"/>
     <use xlink:href="#Arial-BoldMT-65" x="583.349609"/>
     <use xlink:href="#Arial-BoldMT-63" x="638.964844"/>
     <use xlink:href="#Arial-BoldMT-74" x="694.580078"/>
     <use xlink:href="#Arial-BoldMT-6f" x="727.880859"/>
     <use xlink:href="#Arial-BoldMT-6d" x="788.964844"/>
     <use xlink:href="#Arial-BoldMT-65" x="877.880859"/>
     <use xlink:href="#Arial-BoldMT-20" x="933.496094"/>
     <use xlink:href="#Arial-BoldMT-66" x="961.279297"/>
     <use xlink:href="#Arial-BoldMT-6f" x="994.580078"/>
     <use xlink:href="#Arial-BoldMT-72" x="1055.664062"/>
     <use xlink:href="#Arial-BoldMT-20" x="1094.580078"/>
     <use xlink:href="#Arial-BoldMT-24" x="1122.363281"/>
     <use xlink:href="#Arial-BoldMT-31" x="1177.978516"/>
     <use xlink:href="#Arial-BoldMT-42" x="1233.59375"/>
    </g>
   </g>
   <g id="text_19">
    <!-- Human connectome for $10B -->
    <g style="fill: #4a4a5a" transform="translate(97.594804 536.034693) scale(0.1 -0.1)">
     <defs>
      <path id="Arial-BoldMT-48" d="M 469 0 
L 469 4581 
L 1394 4581 
L 1394 2778 
L 3206 2778 
L 3206 4581 
L 4131 4581 
L 4131 0 
L 3206 0 
L 3206 2003 
L 1394 2003 
L 1394 0 
L 469 0 
z
" transform="scale(0.015625)"/>
      <path id="Arial-BoldMT-61" d="M 1116 2306 
L 319 2450 
Q 453 2931 781 3162 
Q 1109 3394 1756 3394 
Q 2344 3394 2631 3255 
Q 2919 3116 3036 2902 
Q 3153 2688 3153 2116 
L 3144 1091 
Q 3144 653 3186 445 
Q 3228 238 3344 0 
L 2475 0 
Q 2441 88 2391 259 
Q 2369 338 2359 363 
Q 2134 144 1878 34 
Q 1622 -75 1331 -75 
Q 819 -75 523 203 
Q 228 481 228 906 
Q 228 1188 362 1408 
Q 497 1628 739 1745 
Q 981 1863 1438 1950 
Q 2053 2066 2291 2166 
L 2291 2253 
Q 2291 2506 2166 2614 
Q 2041 2722 1694 2722 
Q 1459 2722 1328 2630 
Q 1197 2538 1116 2306 
z
M 2291 1594 
Q 2122 1538 1756 1459 
Q 1391 1381 1278 1306 
Q 1106 1184 1106 997 
Q 1106 813 1243 678 
Q 1381 544 1594 544 
Q 1831 544 2047 700 
Q 2206 819 2256 991 
Q 2291 1103 2291 1419 
L 2291 1594 
z
" transform="scale(0.015625)"/>
      <path id="Arial-BoldMT-30" d="M 1756 4600 
Q 2422 4600 2797 4125 
Q 3244 3563 3244 2259 
Q 3244 959 2794 391 
Q 2422 -78 1756 -78 
Q 1088 -78 678 436 
Q 269 950 269 2269 
Q 269 3563 719 4131 
Q 1091 4600 1756 4600 
z
M 1756 3872 
Q 1597 3872 1472 3770 
Q 1347 3669 1278 3406 
Q 1188 3066 1188 2259 
Q 1188 1453 1269 1151 
Q 1350 850 1473 750 
Q 1597 650 1756 650 
Q 1916 650 2041 751 
Q 2166 853 2234 1116 
Q 2325 1453 2325 2259 
Q 2325 3066 2244 3367 
Q 2163 3669 2039 3770 
Q 1916 3872 1756 3872 
z
" transform="scale(0.015625)"/>
     </defs>
     <use xlink:href="#Arial-BoldMT-48"/>
     <use xlink:href="#Arial-BoldMT-75" x="72.216797"/>
     <use xlink:href="#Arial-BoldMT-6d" x="133.300781"/>
     <use xlink:href="#Arial-BoldMT-61" x="222.216797"/>
     <use xlink:href="#Arial-BoldMT-6e" x="277.832031"/>
     <use xlink:href="#Arial-BoldMT-20" x="338.916016"/>
     <use xlink:href="#Arial-BoldMT-63" x="366.699219"/>
     <use xlink:href="#Arial-BoldMT-6f" x="422.314453"/>
     <use xlink:href="#Arial-BoldMT-6e" x="483.398438"/>
     <use xlink:href="#Arial-BoldMT-6e" x="544.482422"/>
     <use xlink:href="#Arial-BoldMT-65" x="605.566406"/>
     <use xlink:href="#Arial-BoldMT-63" x="661.181641"/>
     <use xlink:href="#Arial-BoldMT-74" x="716.796875"/>
     <use xlink:href="#Arial-BoldMT-6f" x="750.097656"/>
     <use xlink:href="#Arial-BoldMT-6d" x="811.181641"/>
     <use xlink:href="#Arial-BoldMT-65" x="900.097656"/>
     <use xlink:href="#Arial-BoldMT-20" x="955.712891"/>
     <use xlink:href="#Arial-BoldMT-66" x="983.496094"/>
     <use xlink:href="#Arial-BoldMT-6f" x="1016.796875"/>
     <use xlink:href="#Arial-BoldMT-72" x="1077.880859"/>
     <use xlink:href="#Arial-BoldMT-20" x="1116.796875"/>
     <use xlink:href="#Arial-BoldMT-24" x="1144.580078"/>
     <use xlink:href="#Arial-BoldMT-31" x="1200.195312"/>
     <use xlink:href="#Arial-BoldMT-30" x="1255.810547"/>
     <use xlink:href="#Arial-BoldMT-42" x="1311.425781"/>
    </g>
   </g>
   <g id="text_20">
    <!-- Human connectome for $1B -->
    <g style="fill: #4a4a5a" transform="translate(97.594804 627.363264) scale(0.1 -0.1)">
     <use xlink:href="#Arial-BoldMT-48"/>
     <use xlink:href="#Arial-BoldMT-75" x="72.216797"/>
     <use xlink:href="#Arial-BoldMT-6d" x="133.300781"/>
     <use xlink:href="#Arial-BoldMT-61" x="222.216797"/>
     <use xlink:href="#Arial-BoldMT-6e" x="277.832031"/>
     <use xlink:href="#Arial-BoldMT-20" x="338.916016"/>
     <use xlink:href="#Arial-BoldMT-63" x="366.699219"/>
     <use xlink:href="#Arial-BoldMT-6f" x="422.314453"/>
     <use xlink:href="#Arial-BoldMT-6e" x="483.398438"/>
     <use xlink:href="#Arial-BoldMT-6e" x="544.482422"/>
     <use xlink:href="#Arial-BoldMT-65" x="605.566406"/>
     <use xlink:href="#Arial-BoldMT-63" x="661.181641"/>
     <use xlink:href="#Arial-BoldMT-74" x="716.796875"/>
     <use xlink:href="#Arial-BoldMT-6f" x="750.097656"/>
     <use xlink:href="#Arial-BoldMT-6d" x="811.181641"/>
     <use xlink:href="#Arial-BoldMT-65" x="900.097656"/>
     <use xlink:href="#Arial-BoldMT-20" x="955.712891"/>
     <use xlink:href="#Arial-BoldMT-66" x="983.496094"/>
     <use xlink:href="#Arial-BoldMT-6f" x="1016.796875"/>
     <use xlink:href="#Arial-BoldMT-72" x="1077.880859"/>
     <use xlink:href="#Arial-BoldMT-20" x="1116.796875"/>
     <use xlink:href="#Arial-BoldMT-24" x="1144.580078"/>
     <use xlink:href="#Arial-BoldMT-31" x="1200.195312"/>
     <use xlink:href="#Arial-BoldMT-42" x="1255.810547"/>
    </g>
   </g>
   <g id="text_21">
    <!-- Cost per neuron over time -->
    <g style="fill: #3a3a48" transform="translate(449.862812 15.935625) scale(0.12 -0.12)">
     <defs>
      <path id="Arial-BoldMT-43" d="M 3397 1684 
L 4294 1400 
Q 4088 650 3608 286 
Q 3128 -78 2391 -78 
Q 1478 -78 890 545 
Q 303 1169 303 2250 
Q 303 3394 893 4026 
Q 1484 4659 2447 4659 
Q 3288 4659 3813 4163 
Q 4125 3869 4281 3319 
L 3366 3100 
Q 3284 3456 3026 3662 
Q 2769 3869 2400 3869 
Q 1891 3869 1573 3503 
Q 1256 3138 1256 2319 
Q 1256 1450 1568 1081 
Q 1881 713 2381 713 
Q 2750 713 3015 947 
Q 3281 1181 3397 1684 
z
" transform="scale(0.015625)"/>
      <path id="Arial-BoldMT-70" d="M 434 3319 
L 1253 3319 
L 1253 2831 
Q 1413 3081 1684 3237 
Q 1956 3394 2288 3394 
Q 2866 3394 3269 2941 
Q 3672 2488 3672 1678 
Q 3672 847 3265 386 
Q 2859 -75 2281 -75 
Q 2006 -75 1782 34 
Q 1559 144 1313 409 
L 1313 -1263 
L 434 -1263 
L 434 3319 
z
M 1303 1716 
Q 1303 1156 1525 889 
Q 1747 622 2066 622 
Q 2372 622 2575 867 
Q 2778 1113 2778 1672 
Q 2778 2194 2568 2447 
Q 2359 2700 2050 2700 
Q 1728 2700 1515 2451 
Q 1303 2203 1303 1716 
z
" transform="scale(0.015625)"/>
      <path id="Arial-BoldMT-76" d="M 1372 0 
L 34 3319 
L 956 3319 
L 1581 1625 
L 1763 1059 
Q 1834 1275 1853 1344 
Q 1897 1484 1947 1625 
L 2578 3319 
L 3481 3319 
L 2163 0 
L 1372 0 
z
" transform="scale(0.015625)"/>
      <path id="Arial-BoldMT-69" d="M 459 3769 
L 459 4581 
L 1338 4581 
L 1338 3769 
L 459 3769 
z
M 459 0 
L 459 3319 
L 1338 3319 
L 1338 0 
L 459 0 
z
" transform="scale(0.015625)"/>
     </defs>
     <use xlink:href="#Arial-BoldMT-43"/>
     <use xlink:href="#Arial-BoldMT-6f" x="72.216797"/>
     <use xlink:href="#Arial-BoldMT-73" x="133.300781"/>
     <use xlink:href="#Arial-BoldMT-74" x="188.916016"/>
     <use xlink:href="#Arial-BoldMT-20" x="222.216797"/>
     <use xlink:href="#Arial-BoldMT-70" x="250"/>
     <use xlink:href="#Arial-BoldMT-65" x="311.083984"/>
     <use xlink:href="#Arial-BoldMT-72" x="366.699219"/>
     <use xlink:href="#Arial-BoldMT-20" x="405.615234"/>
     <use xlink:href="#Arial-BoldMT-6e" x="433.398438"/>
     <use xlink:href="#Arial-BoldMT-65" x="494.482422"/>
     <use xlink:href="#Arial-BoldMT-75" x="550.097656"/>
     <use xlink:href="#Arial-BoldMT-72" x="611.181641"/>
     <use xlink:href="#Arial-BoldMT-6f" x="650.097656"/>
     <use xlink:href="#Arial-BoldMT-6e" x="711.181641"/>
     <use xlink:href="#Arial-BoldMT-20" x="772.265625"/>
     <use xlink:href="#Arial-BoldMT-6f" x="800.048828"/>
     <use xlink:href="#Arial-BoldMT-76" x="861.132812"/>
     <use xlink:href="#Arial-BoldMT-65" x="916.748047"/>
     <use xlink:href="#Arial-BoldMT-72" x="972.363281"/>
     <use xlink:href="#Arial-BoldMT-20" x="1011.279297"/>
     <use xlink:href="#Arial-BoldMT-74" x="1039.0625"/>
     <use xlink:href="#Arial-BoldMT-69" x="1072.363281"/>
     <use xlink:href="#Arial-BoldMT-6d" x="1100.146484"/>
     <use xlink:href="#Arial-BoldMT-65" x="1189.0625"/>
    </g>
   </g>
   <g id="patch_5">
    <path d="M 271.631134 111.594715 
Q 215.153469 81.314123 151.329386 72.057066 
" style="fill: none; stroke: #787470; stroke-width: 0.5; stroke-linecap: round"/>
   </g>
   <g id="text_22">
    <!-- C. elegans (White et al 1986) -->
    <g style="fill: #4a4a5a" transform="translate(226.971946 121.592946) scale(0.09 -0.09)">
     <defs>
      <path id="ArialMT-6c" d="M 409 0 
L 409 4581 
L 972 4581 
L 972 0 
L 409 0 
z
" transform="scale(0.015625)"/>
      <path id="ArialMT-67" d="M 319 -275 
L 866 -356 
Q 900 -609 1056 -725 
Q 1266 -881 1628 -881 
Q 2019 -881 2231 -725 
Q 2444 -569 2519 -288 
Q 2563 -116 2559 434 
Q 2191 0 1641 0 
Q 956 0 581 494 
Q 206 988 206 1678 
Q 206 2153 378 2554 
Q 550 2956 876 3175 
Q 1203 3394 1644 3394 
Q 2231 3394 2613 2919 
L 2613 3319 
L 3131 3319 
L 3131 450 
Q 3131 -325 2973 -648 
Q 2816 -972 2473 -1159 
Q 2131 -1347 1631 -1347 
Q 1038 -1347 672 -1080 
Q 306 -813 319 -275 
z
M 784 1719 
Q 784 1066 1043 766 
Q 1303 466 1694 466 
Q 2081 466 2343 764 
Q 2606 1063 2606 1700 
Q 2606 2309 2336 2618 
Q 2066 2928 1684 2928 
Q 1309 2928 1046 2623 
Q 784 2319 784 1719 
z
" transform="scale(0.015625)"/>
      <path id="ArialMT-57" d="M 1294 0 
L 78 4581 
L 700 4581 
L 1397 1578 
Q 1509 1106 1591 641 
Q 1766 1375 1797 1488 
L 2669 4581 
L 3400 4581 
L 4056 2263 
Q 4303 1400 4413 641 
Q 4500 1075 4641 1638 
L 5359 4581 
L 5969 4581 
L 4713 0 
L 4128 0 
L 3163 3491 
Q 3041 3928 3019 4028 
Q 2947 3713 2884 3491 
L 1913 0 
L 1294 0 
z
" transform="scale(0.015625)"/>
      <path id="ArialMT-68" d="M 422 0 
L 422 4581 
L 984 4581 
L 984 2938 
Q 1378 3394 1978 3394 
Q 2347 3394 2619 3248 
Q 2891 3103 3008 2847 
Q 3125 2591 3125 2103 
L 3125 0 
L 2563 0 
L 2563 2103 
Q 2563 2525 2380 2717 
Q 2197 2909 1863 2909 
Q 1613 2909 1392 2779 
Q 1172 2650 1078 2428 
Q 984 2206 984 1816 
L 984 0 
L 422 0 
z
" transform="scale(0.015625)"/>
      <path id="ArialMT-69" d="M 425 3934 
L 425 4581 
L 988 4581 
L 988 3934 
L 425 3934 
z
M 425 0 
L 425 3319 
L 988 3319 
L 988 0 
L 425 0 
z
" transform="scale(0.015625)"/>
      <path id="ArialMT-36" d="M 3184 3459 
L 2625 3416 
Q 2550 3747 2413 3897 
Q 2184 4138 1850 4138 
Q 1581 4138 1378 3988 
Q 1113 3794 959 3422 
Q 806 3050 800 2363 
Q 1003 2672 1297 2822 
Q 1591 2972 1913 2972 
Q 2475 2972 2870 2558 
Q 3266 2144 3266 1488 
Q 3266 1056 3080 686 
Q 2894 316 2569 119 
Q 2244 -78 1831 -78 
Q 1128 -78 684 439 
Q 241 956 241 2144 
Q 241 3472 731 4075 
Q 1159 4600 1884 4600 
Q 2425 4600 2770 4297 
Q 3116 3994 3184 3459 
z
M 888 1484 
Q 888 1194 1011 928 
Q 1134 663 1356 523 
Q 1578 384 1822 384 
Q 2178 384 2434 671 
Q 2691 959 2691 1453 
Q 2691 1928 2437 2201 
Q 2184 2475 1800 2475 
Q 1419 2475 1153 2201 
Q 888 1928 888 1484 
z
" transform="scale(0.015625)"/>
     </defs>
     <use xlink:href="#ArialMT-43"/>
     <use xlink:href="#ArialMT-2e" x="72.216797"/>
     <use xlink:href="#ArialMT-20" x="100"/>
     <use xlink:href="#ArialMT-65" x="127.783203"/>
     <use xlink:href="#ArialMT-6c" x="183.398438"/>
     <use xlink:href="#ArialMT-65" x="205.615234"/>
     <use xlink:href="#ArialMT-67" x="261.230469"/>
     <use xlink:href="#ArialMT-61" x="316.845703"/>
     <use xlink:href="#ArialMT-6e" x="372.460938"/>
     <use xlink:href="#ArialMT-73" x="428.076172"/>
     <use xlink:href="#ArialMT-20" x="478.076172"/>
     <use xlink:href="#ArialMT-28" x="505.859375"/>
     <use xlink:href="#ArialMT-57" x="539.160156"/>
     <use xlink:href="#ArialMT-68" x="633.544922"/>
     <use xlink:href="#ArialMT-69" x="689.160156"/>
     <use xlink:href="#ArialMT-74" x="711.376953"/>
     <use xlink:href="#ArialMT-65" x="739.160156"/>
     <use xlink:href="#ArialMT-20" x="794.775391"/>
     <use xlink:href="#ArialMT-65" x="822.558594"/>
     <use xlink:href="#ArialMT-74" x="878.173828"/>
     <use xlink:href="#ArialMT-20" x="905.957031"/>
     <use xlink:href="#ArialMT-61" x="933.740234"/>
     <use xlink:href="#ArialMT-6c" x="989.355469"/>
     <use xlink:href="#ArialMT-20" x="1011.572266"/>
     <use xlink:href="#ArialMT-31" x="1039.355469"/>
     <use xlink:href="#ArialMT-39" x="1094.970703"/>
     <use xlink:href="#ArialMT-38" x="1150.585938"/>
     <use xlink:href="#ArialMT-36" x="1206.201172"/>
     <use xlink:href="#ArialMT-29" x="1261.816406"/>
    </g>
   </g>
   <g id="patch_6">
    <path d="M 474.349866 215.867486 
Q 515.442903 236.50345 561.377114 243.93916 
" style="fill: none; stroke: #787470; stroke-width: 0.5; stroke-linecap: round"/>
   </g>
   <g id="text_23">
    <!-- Fruitfly Zheng et al, 2018 -->
    <g style="fill: #4a4a5a" transform="translate(395.162232 200.811867) scale(0.09 -0.09)">
     <defs>
      <path id="ArialMT-46" d="M 525 0 
L 525 4581 
L 3616 4581 
L 3616 4041 
L 1131 4041 
L 1131 2622 
L 3281 2622 
L 3281 2081 
L 1131 2081 
L 1131 0 
L 525 0 
z
" transform="scale(0.015625)"/>
      <path id="ArialMT-66" d="M 556 0 
L 556 2881 
L 59 2881 
L 59 3319 
L 556 3319 
L 556 3672 
Q 556 4006 616 4169 
Q 697 4388 901 4523 
Q 1106 4659 1475 4659 
Q 1713 4659 2000 4603 
L 1916 4113 
Q 1741 4144 1584 4144 
Q 1328 4144 1222 4034 
Q 1116 3925 1116 3625 
L 1116 3319 
L 1763 3319 
L 1763 2881 
L 1116 2881 
L 1116 0 
L 556 0 
z
" transform="scale(0.015625)"/>
      <path id="ArialMT-79" d="M 397 -1278 
L 334 -750 
Q 519 -800 656 -800 
Q 844 -800 956 -737 
Q 1069 -675 1141 -563 
Q 1194 -478 1313 -144 
Q 1328 -97 1363 -6 
L 103 3319 
L 709 3319 
L 1400 1397 
Q 1534 1031 1641 628 
Q 1738 1016 1872 1384 
L 2581 3319 
L 3144 3319 
L 1881 -56 
Q 1678 -603 1566 -809 
Q 1416 -1088 1222 -1217 
Q 1028 -1347 759 -1347 
Q 597 -1347 397 -1278 
z
" transform="scale(0.015625)"/>
      <path id="ArialMT-5a" d="M 128 0 
L 128 563 
L 2475 3497 
Q 2725 3809 2950 4041 
L 394 4041 
L 394 4581 
L 3675 4581 
L 3675 4041 
L 1103 863 
L 825 541 
L 3750 541 
L 3750 0 
L 128 0 
z
" transform="scale(0.015625)"/>
     </defs>
     <use xlink:href="#ArialMT-46"/>
     <use xlink:href="#ArialMT-72" x="61.083984"/>
     <use xlink:href="#ArialMT-75" x="94.384766"/>
     <use xlink:href="#ArialMT-69" x="150"/>
     <use xlink:href="#ArialMT-74" x="172.216797"/>
     <use xlink:href="#ArialMT-66" x="200"/>
     <use xlink:href="#ArialMT-6c" x="227.783203"/>
     <use xlink:href="#ArialMT-79" x="250"/>
     <use xlink:href="#ArialMT-20" x="300"/>
     <use xlink:href="#ArialMT-5a" x="327.783203"/>
     <use xlink:href="#ArialMT-68" x="388.867188"/>
     <use xlink:href="#ArialMT-65" x="444.482422"/>
     <use xlink:href="#ArialMT-6e" x="500.097656"/>
     <use xlink:href="#ArialMT-67" x="555.712891"/>
     <use xlink:href="#ArialMT-20" x="611.328125"/>
     <use xlink:href="#ArialMT-65" x="639.111328"/>
     <use xlink:href="#ArialMT-74" x="694.726562"/>
     <use xlink:href="#ArialMT-20" x="722.509766"/>
     <use xlink:href="#ArialMT-61" x="750.292969"/>
     <use xlink:href="#ArialMT-6c" x="805.908203"/>
     <use xlink:href="#ArialMT-2c" x="828.125"/>
     <use xlink:href="#ArialMT-20" x="855.908203"/>
     <use xlink:href="#ArialMT-32" x="883.691406"/>
     <use xlink:href="#ArialMT-30" x="939.306641"/>
     <use xlink:href="#ArialMT-31" x="994.921875"/>
     <use xlink:href="#ArialMT-38" x="1050.537109"/>
    </g>
    <!-- (Murthy, Seung, et al., 2024) -->
    <g style="fill: #4a4a5a" transform="translate(395.162232 210.568148) scale(0.09 -0.09)">
     <defs>
      <path id="ArialMT-4d" d="M 475 0 
L 475 4581 
L 1388 4581 
L 2472 1338 
Q 2622 884 2691 659 
Q 2769 909 2934 1394 
L 4031 4581 
L 4847 4581 
L 4847 0 
L 4263 0 
L 4263 3834 
L 2931 0 
L 2384 0 
L 1059 3900 
L 1059 0 
L 475 0 
z
" transform="scale(0.015625)"/>
     </defs>
     <use xlink:href="#ArialMT-28"/>
     <use xlink:href="#ArialMT-4d" x="33.300781"/>
     <use xlink:href="#ArialMT-75" x="116.601562"/>
     <use xlink:href="#ArialMT-72" x="172.216797"/>
     <use xlink:href="#ArialMT-74" x="205.517578"/>
     <use xlink:href="#ArialMT-68" x="233.300781"/>
     <use xlink:href="#ArialMT-79" x="288.916016"/>
     <use xlink:href="#ArialMT-2c" x="331.541016"/>
     <use xlink:href="#ArialMT-20" x="359.324219"/>
     <use xlink:href="#ArialMT-53" x="387.107422"/>
     <use xlink:href="#ArialMT-65" x="453.806641"/>
     <use xlink:href="#ArialMT-75" x="509.421875"/>
     <use xlink:href="#ArialMT-6e" x="565.037109"/>
     <use xlink:href="#ArialMT-67" x="620.652344"/>
     <use xlink:href="#ArialMT-2c" x="676.267578"/>
     <use xlink:href="#ArialMT-20" x="704.050781"/>
     <use xlink:href="#ArialMT-65" x="731.833984"/>
     <use xlink:href="#ArialMT-74" x="787.449219"/>
     <use xlink:href="#ArialMT-20" x="815.232422"/>
     <use xlink:href="#ArialMT-61" x="843.015625"/>
     <use xlink:href="#ArialMT-6c" x="898.630859"/>
     <use xlink:href="#ArialMT-2e" x="920.847656"/>
     <use xlink:href="#ArialMT-2c" x="948.630859"/>
     <use xlink:href="#ArialMT-20" x="976.414062"/>
     <use xlink:href="#ArialMT-32" x="1004.197266"/>
     <use xlink:href="#ArialMT-30" x="1059.8125"/>
     <use xlink:href="#ArialMT-32" x="1115.427734"/>
     <use xlink:href="#ArialMT-34" x="1171.042969"/>
     <use xlink:href="#ArialMT-29" x="1226.658203"/>
    </g>
   </g>
   <g id="patch_7">
    <path d="M 438.476294 298.148017 
Q 520.404397 298.235584 600.245062 274.991314 
" style="fill: none; stroke: #787470; stroke-width: 0.5; stroke-linecap: round"/>
   </g>
   <g id="text_24">
    <!-- Zebrafish (Svara et al., 2022) -->
    <g style="fill: #4a4a5a" transform="translate(317.428188 297.018579) scale(0.09 -0.09)">
     <defs>
      <path id="ArialMT-62" d="M 941 0 
L 419 0 
L 419 4581 
L 981 4581 
L 981 2947 
Q 1338 3394 1891 3394 
Q 2197 3394 2470 3270 
Q 2744 3147 2920 2923 
Q 3097 2700 3197 2384 
Q 3297 2069 3297 1709 
Q 3297 856 2875 390 
Q 2453 -75 1863 -75 
Q 1275 -75 941 416 
L 941 0 
z
M 934 1684 
Q 934 1088 1097 822 
Q 1363 388 1816 388 
Q 2184 388 2453 708 
Q 2722 1028 2722 1663 
Q 2722 2313 2464 2622 
Q 2206 2931 1841 2931 
Q 1472 2931 1203 2611 
Q 934 2291 934 1684 
z
" transform="scale(0.015625)"/>
      <path id="ArialMT-76" d="M 1344 0 
L 81 3319 
L 675 3319 
L 1388 1331 
Q 1503 1009 1600 663 
Q 1675 925 1809 1294 
L 2547 3319 
L 3125 3319 
L 1869 0 
L 1344 0 
z
" transform="scale(0.015625)"/>
     </defs>
     <use xlink:href="#ArialMT-5a"/>
     <use xlink:href="#ArialMT-65" x="61.083984"/>
     <use xlink:href="#ArialMT-62" x="116.699219"/>
     <use xlink:href="#ArialMT-72" x="172.314453"/>
     <use xlink:href="#ArialMT-61" x="205.615234"/>
     <use xlink:href="#ArialMT-66" x="261.230469"/>
     <use xlink:href="#ArialMT-69" x="289.013672"/>
     <use xlink:href="#ArialMT-73" x="311.230469"/>
     <use xlink:href="#ArialMT-68" x="361.230469"/>
     <use xlink:href="#ArialMT-20" x="416.845703"/>
     <use xlink:href="#ArialMT-28" x="444.628906"/>
     <use xlink:href="#ArialMT-53" x="477.929688"/>
     <use xlink:href="#ArialMT-76" x="544.628906"/>
     <use xlink:href="#ArialMT-61" x="594.628906"/>
     <use xlink:href="#ArialMT-72" x="650.244141"/>
     <use xlink:href="#ArialMT-61" x="683.544922"/>
     <use xlink:href="#ArialMT-20" x="739.160156"/>
     <use xlink:href="#ArialMT-65" x="766.943359"/>
     <use xlink:href="#ArialMT-74" x="822.558594"/>
     <use xlink:href="#ArialMT-20" x="850.341797"/>
     <use xlink:href="#ArialMT-61" x="878.125"/>
     <use xlink:href="#ArialMT-6c" x="933.740234"/>
     <use xlink:href="#ArialMT-2e" x="955.957031"/>
     <use xlink:href="#ArialMT-2c" x="983.740234"/>
     <use xlink:href="#ArialMT-20" x="1011.523438"/>
     <use xlink:href="#ArialMT-32" x="1039.306641"/>
     <use xlink:href="#ArialMT-30" x="1094.921875"/>
     <use xlink:href="#ArialMT-32" x="1150.537109"/>
     <use xlink:href="#ArialMT-32" x="1206.152344"/>
     <use xlink:href="#ArialMT-29" x="1261.767578"/>
    </g>
   </g>
   <g id="patch_8">
    <path d="M 755.965042 331.087043 
Q 700.401575 318.260341 642.972765 323.345227 
" style="fill: none; stroke: #787470; stroke-width: 0.5; stroke-linecap: round"/>
   </g>
   <g id="text_25">
    <!-- Mouse (NIH, 2024) -->
    <g style="fill: #4a4a5a" transform="translate(744.480518 340.593382) scale(0.09 -0.09)">
     <defs>
      <path id="ArialMT-4e" d="M 488 0 
L 488 4581 
L 1109 4581 
L 3516 984 
L 3516 4581 
L 4097 4581 
L 4097 0 
L 3475 0 
L 1069 3600 
L 1069 0 
L 488 0 
z
" transform="scale(0.015625)"/>
      <path id="ArialMT-49" d="M 597 0 
L 597 4581 
L 1203 4581 
L 1203 0 
L 597 0 
z
" transform="scale(0.015625)"/>
      <path id="ArialMT-48" d="M 513 0 
L 513 4581 
L 1119 4581 
L 1119 2700 
L 3500 2700 
L 3500 4581 
L 4106 4581 
L 4106 0 
L 3500 0 
L 3500 2159 
L 1119 2159 
L 1119 0 
L 513 0 
z
" transform="scale(0.015625)"/>
     </defs>
     <use xlink:href="#ArialMT-4d"/>
     <use xlink:href="#ArialMT-6f" x="83.300781"/>
     <use xlink:href="#ArialMT-75" x="138.916016"/>
     <use xlink:href="#ArialMT-73" x="194.53125"/>
     <use xlink:href="#ArialMT-65" x="244.53125"/>
     <use xlink:href="#ArialMT-20" x="300.146484"/>
     <use xlink:href="#ArialMT-28" x="327.929688"/>
     <use xlink:href="#ArialMT-4e" x="361.230469"/>
     <use xlink:href="#ArialMT-49" x="433.447266"/>
     <use xlink:href="#ArialMT-48" x="461.230469"/>
     <use xlink:href="#ArialMT-2c" x="533.447266"/>
     <use xlink:href="#ArialMT-20" x="561.230469"/>
     <use xlink:href="#ArialMT-32" x="589.013672"/>
     <use xlink:href="#ArialMT-30" x="644.628906"/>
     <use xlink:href="#ArialMT-32" x="700.244141"/>
     <use xlink:href="#ArialMT-34" x="755.859375"/>
     <use xlink:href="#ArialMT-29" x="811.474609"/>
    </g>
   </g>
   <g id="patch_9">
    <path d="M 739.979066 209.42039 
Q 684.211076 212.461536 629.951445 229.346587 
" style="fill: none; stroke: #787470; stroke-width: 0.5; stroke-linecap: round"/>
   </g>
   <g id="text_26">
    <!-- Wellcome EM (10nm isotropic) -->
    <g style="fill: #4a4a5a" transform="translate(744.480518 208.043377) scale(0.09 -0.09)">
     <defs>
      <path id="ArialMT-63" d="M 2588 1216 
L 3141 1144 
Q 3050 572 2676 248 
Q 2303 -75 1759 -75 
Q 1078 -75 664 370 
Q 250 816 250 1647 
Q 250 2184 428 2587 
Q 606 2991 970 3192 
Q 1334 3394 1763 3394 
Q 2303 3394 2647 3120 
Q 2991 2847 3088 2344 
L 2541 2259 
Q 2463 2594 2264 2762 
Q 2066 2931 1784 2931 
Q 1359 2931 1093 2626 
Q 828 2322 828 1663 
Q 828 994 1084 691 
Q 1341 388 1753 388 
Q 2084 388 2306 591 
Q 2528 794 2588 1216 
z
" transform="scale(0.015625)"/>
      <path id="ArialMT-6d" d="M 422 0 
L 422 3319 
L 925 3319 
L 925 2853 
Q 1081 3097 1340 3245 
Q 1600 3394 1931 3394 
Q 2300 3394 2536 3241 
Q 2772 3088 2869 2813 
Q 3263 3394 3894 3394 
Q 4388 3394 4653 3120 
Q 4919 2847 4919 2278 
L 4919 0 
L 4359 0 
L 4359 2091 
Q 4359 2428 4304 2576 
Q 4250 2725 4106 2815 
Q 3963 2906 3769 2906 
Q 3419 2906 3187 2673 
Q 2956 2441 2956 1928 
L 2956 0 
L 2394 0 
L 2394 2156 
Q 2394 2531 2256 2718 
Q 2119 2906 1806 2906 
Q 1569 2906 1367 2781 
Q 1166 2656 1075 2415 
Q 984 2175 984 1722 
L 984 0 
L 422 0 
z
" transform="scale(0.015625)"/>
      <path id="ArialMT-45" d="M 506 0 
L 506 4581 
L 3819 4581 
L 3819 4041 
L 1113 4041 
L 1113 2638 
L 3647 2638 
L 3647 2100 
L 1113 2100 
L 1113 541 
L 3925 541 
L 3925 0 
L 506 0 
z
" transform="scale(0.015625)"/>
     </defs>
     <use xlink:href="#ArialMT-57"/>
     <use xlink:href="#ArialMT-65" x="92.634766"/>
     <use xlink:href="#ArialMT-6c" x="148.25"/>
     <use xlink:href="#ArialMT-6c" x="170.466797"/>
     <use xlink:href="#ArialMT-63" x="192.683594"/>
     <use xlink:href="#ArialMT-6f" x="242.683594"/>
     <use xlink:href="#ArialMT-6d" x="298.298828"/>
     <use xlink:href="#ArialMT-65" x="381.599609"/>
     <use xlink:href="#ArialMT-20" x="437.214844"/>
     <use xlink:href="#ArialMT-45" x="464.998047"/>
     <use xlink:href="#ArialMT-4d" x="531.697266"/>
     <use xlink:href="#ArialMT-20" x="614.998047"/>
     <use xlink:href="#ArialMT-28" x="642.78125"/>
     <use xlink:href="#ArialMT-31" x="676.082031"/>
     <use xlink:href="#ArialMT-30" x="731.697266"/>
     <use xlink:href="#ArialMT-6e" x="787.3125"/>
     <use xlink:href="#ArialMT-6d" x="842.927734"/>
     <use xlink:href="#ArialMT-20" x="926.228516"/>
     <use xlink:href="#ArialMT-69" x="954.011719"/>
     <use xlink:href="#ArialMT-73" x="976.228516"/>
     <use xlink:href="#ArialMT-6f" x="1026.228516"/>
     <use xlink:href="#ArialMT-74" x="1081.84375"/>
     <use xlink:href="#ArialMT-72" x="1109.626953"/>
     <use xlink:href="#ArialMT-6f" x="1142.927734"/>
     <use xlink:href="#ArialMT-70" x="1198.542969"/>
     <use xlink:href="#ArialMT-69" x="1254.158203"/>
     <use xlink:href="#ArialMT-63" x="1276.375"/>
     <use xlink:href="#ArialMT-29" x="1326.375"/>
    </g>
    <!-- with proof-reading -->
    <g style="fill: #4a4a5a" transform="translate(744.480518 217.799658) scale(0.09 -0.09)">
     <defs>
      <path id="ArialMT-77" d="M 1034 0 
L 19 3319 
L 600 3319 
L 1128 1403 
L 1325 691 
Q 1338 744 1497 1375 
L 2025 3319 
L 2603 3319 
L 3100 1394 
L 3266 759 
L 3456 1400 
L 4025 3319 
L 4572 3319 
L 3534 0 
L 2950 0 
L 2422 1988 
L 2294 2553 
L 1622 0 
L 1034 0 
z
" transform="scale(0.015625)"/>
      <path id="ArialMT-2d" d="M 203 1375 
L 203 1941 
L 1931 1941 
L 1931 1375 
L 203 1375 
z
" transform="scale(0.015625)"/>
      <path id="ArialMT-64" d="M 2575 0 
L 2575 419 
Q 2259 -75 1647 -75 
Q 1250 -75 917 144 
Q 584 363 401 755 
Q 219 1147 219 1656 
Q 219 2153 384 2558 
Q 550 2963 881 3178 
Q 1213 3394 1622 3394 
Q 1922 3394 2156 3267 
Q 2391 3141 2538 2938 
L 2538 4581 
L 3097 4581 
L 3097 0 
L 2575 0 
z
M 797 1656 
Q 797 1019 1065 703 
Q 1334 388 1700 388 
Q 2069 388 2326 689 
Q 2584 991 2584 1609 
Q 2584 2291 2321 2609 
Q 2059 2928 1675 2928 
Q 1300 2928 1048 2622 
Q 797 2316 797 1656 
z
" transform="scale(0.015625)"/>
     </defs>
     <use xlink:href="#ArialMT-77"/>
     <use xlink:href="#ArialMT-69" x="72.216797"/>
     <use xlink:href="#ArialMT-74" x="94.433594"/>
     <use xlink:href="#ArialMT-68" x="122.216797"/>
     <use xlink:href="#ArialMT-20" x="177.832031"/>
     <use xlink:href="#ArialMT-70" x="205.615234"/>
     <use xlink:href="#ArialMT-72" x="261.230469"/>
     <use xlink:href="#ArialMT-6f" x="294.53125"/>
     <use xlink:href="#ArialMT-6f" x="350.146484"/>
     <use xlink:href="#ArialMT-66" x="405.761719"/>
     <use xlink:href="#ArialMT-2d" x="433.544922"/>
     <use xlink:href="#ArialMT-72" x="466.845703"/>
     <use xlink:href="#ArialMT-65" x="500.146484"/>
     <use xlink:href="#ArialMT-61" x="555.761719"/>
     <use xlink:href="#ArialMT-64" x="611.376953"/>
     <use xlink:href="#ArialMT-69" x="666.992188"/>
     <use xlink:href="#ArialMT-6e" x="689.208984"/>
     <use xlink:href="#ArialMT-67" x="744.824219"/>
    </g>
   </g>
   <g id="patch_10">
    <path d="M 739.983149 262.573011 
Q 697.436394 264.89001 655.835706 277.164204 
" style="fill: none; stroke: #787470; stroke-width: 0.5; stroke-linecap: round"/>
   </g>
   <g id="text_27">
    <!-- 15nm isotropic with current -->
    <g style="fill: #4a4a5a" transform="translate(744.480518 261.484276) scale(0.09 -0.09)">
     <use xlink:href="#ArialMT-31"/>
     <use xlink:href="#ArialMT-35" x="55.615234"/>
     <use xlink:href="#ArialMT-6e" x="111.230469"/>
     <use xlink:href="#ArialMT-6d" x="166.845703"/>
     <use xlink:href="#ArialMT-20" x="250.146484"/>
     <use xlink:href="#ArialMT-69" x="277.929688"/>
     <use xlink:href="#ArialMT-73" x="300.146484"/>
     <use xlink:href="#ArialMT-6f" x="350.146484"/>
     <use xlink:href="#ArialMT-74" x="405.761719"/>
     <use xlink:href="#ArialMT-72" x="433.544922"/>
     <use xlink:href="#ArialMT-6f" x="466.845703"/>
     <use xlink:href="#ArialMT-70" x="522.460938"/>
     <use xlink:href="#ArialMT-69" x="578.076172"/>
     <use xlink:href="#ArialMT-63" x="600.292969"/>
     <use xlink:href="#ArialMT-20" x="650.292969"/>
     <use xlink:href="#ArialMT-77" x="678.076172"/>
     <use xlink:href="#ArialMT-69" x="750.292969"/>
     <use xlink:href="#ArialMT-74" x="772.509766"/>
     <use xlink:href="#ArialMT-68" x="800.292969"/>
     <use xlink:href="#ArialMT-20" x="855.908203"/>
     <use xlink:href="#ArialMT-63" x="883.691406"/>
     <use xlink:href="#ArialMT-75" x="933.691406"/>
     <use xlink:href="#ArialMT-72" x="989.306641"/>
     <use xlink:href="#ArialMT-72" x="1022.607422"/>
     <use xlink:href="#ArialMT-65" x="1055.908203"/>
     <use xlink:href="#ArialMT-6e" x="1111.523438"/>
     <use xlink:href="#ArialMT-74" x="1167.138672"/>
    </g>
    <!-- proofreading (EM) -->
    <g style="fill: #4a4a5a" transform="translate(744.480518 271.135088) scale(0.09 -0.09)">
     <use xlink:href="#ArialMT-70"/>
     <use xlink:href="#ArialMT-72" x="55.615234"/>
     <use xlink:href="#ArialMT-6f" x="88.916016"/>
     <use xlink:href="#ArialMT-6f" x="144.53125"/>
     <use xlink:href="#ArialMT-66" x="200.146484"/>
     <use xlink:href="#ArialMT-72" x="227.929688"/>
     <use xlink:href="#ArialMT-65" x="261.230469"/>
     <use xlink:href="#ArialMT-61" x="316.845703"/>
     <use xlink:href="#ArialMT-64" x="372.460938"/>
     <use xlink:href="#ArialMT-69" x="428.076172"/>
     <use xlink:href="#ArialMT-6e" x="450.292969"/>
     <use xlink:href="#ArialMT-67" x="505.908203"/>
     <use xlink:href="#ArialMT-20" x="561.523438"/>
     <use xlink:href="#ArialMT-28" x="589.306641"/>
     <use xlink:href="#ArialMT-45" x="622.607422"/>
     <use xlink:href="#ArialMT-4d" x="689.306641"/>
     <use xlink:href="#ArialMT-29" x="772.607422"/>
    </g>
   </g>
   <g id="patch_11">
    <path d="M 663.590029 361.943435 
Q 688.982943 372.381789 716.620714 376.074418 
" style="fill: none; stroke: #787470; stroke-width: 0.5; stroke-linecap: round"/>
   </g>
   <g id="text_28">
    <!-- 1000x less proofreading: -->
    <g style="fill: #4a4a5a" transform="translate(589.227946 347.228233) scale(0.09 -0.09)">
     <defs>
      <path id="ArialMT-78" d="M 47 0 
L 1259 1725 
L 138 3319 
L 841 3319 
L 1350 2541 
Q 1494 2319 1581 2169 
Q 1719 2375 1834 2534 
L 2394 3319 
L 3066 3319 
L 1919 1756 
L 3153 0 
L 2463 0 
L 1781 1031 
L 1600 1309 
L 728 0 
L 47 0 
z
" transform="scale(0.015625)"/>
      <path id="ArialMT-3a" d="M 578 2678 
L 578 3319 
L 1219 3319 
L 1219 2678 
L 578 2678 
z
M 578 0 
L 578 641 
L 1219 641 
L 1219 0 
L 578 0 
z
" transform="scale(0.015625)"/>
     </defs>
     <use xlink:href="#ArialMT-31"/>
     <use xlink:href="#ArialMT-30" x="55.615234"/>
     <use xlink:href="#ArialMT-30" x="111.230469"/>
     <use xlink:href="#ArialMT-30" x="166.845703"/>
     <use xlink:href="#ArialMT-78" x="222.460938"/>
     <use xlink:href="#ArialMT-20" x="272.460938"/>
     <use xlink:href="#ArialMT-6c" x="300.244141"/>
     <use xlink:href="#ArialMT-65" x="322.460938"/>
     <use xlink:href="#ArialMT-73" x="378.076172"/>
     <use xlink:href="#ArialMT-73" x="428.076172"/>
     <use xlink:href="#ArialMT-20" x="478.076172"/>
     <use xlink:href="#ArialMT-70" x="505.859375"/>
     <use xlink:href="#ArialMT-72" x="561.474609"/>
     <use xlink:href="#ArialMT-6f" x="594.775391"/>
     <use xlink:href="#ArialMT-6f" x="650.390625"/>
     <use xlink:href="#ArialMT-66" x="706.005859"/>
     <use xlink:href="#ArialMT-72" x="733.789062"/>
     <use xlink:href="#ArialMT-65" x="767.089844"/>
     <use xlink:href="#ArialMT-61" x="822.705078"/>
     <use xlink:href="#ArialMT-64" x="878.320312"/>
     <use xlink:href="#ArialMT-69" x="933.935547"/>
     <use xlink:href="#ArialMT-6e" x="956.152344"/>
     <use xlink:href="#ArialMT-67" x="1011.767578"/>
     <use xlink:href="#ArialMT-3a" x="1067.382812"/>
    </g>
    <!-- EM 10nm isotropic -->
    <g style="fill: #4a4a5a" transform="translate(589.227946 356.884952) scale(0.09 -0.09)">
     <use xlink:href="#ArialMT-45"/>
     <use xlink:href="#ArialMT-4d" x="66.699219"/>
     <use xlink:href="#ArialMT-20" x="150"/>
     <use xlink:href="#ArialMT-31" x="177.783203"/>
     <use xlink:href="#ArialMT-30" x="233.398438"/>
     <use xlink:href="#ArialMT-6e" x="289.013672"/>
     <use xlink:href="#ArialMT-6d" x="344.628906"/>
     <use xlink:href="#ArialMT-20" x="427.929688"/>
     <use xlink:href="#ArialMT-69" x="455.712891"/>
     <use xlink:href="#ArialMT-73" x="477.929688"/>
     <use xlink:href="#ArialMT-6f" x="527.929688"/>
     <use xlink:href="#ArialMT-74" x="583.544922"/>
     <use xlink:href="#ArialMT-72" x="611.328125"/>
     <use xlink:href="#ArialMT-6f" x="644.628906"/>
     <use xlink:href="#ArialMT-70" x="700.244141"/>
     <use xlink:href="#ArialMT-69" x="755.859375"/>
     <use xlink:href="#ArialMT-63" x="778.076172"/>
    </g>
   </g>
   <g id="patch_12">
    <path d="M 836.911766 428.925234 
Q 780.385595 411.975464 720.605531 412.446573 
" style="fill: none; stroke: #787470; stroke-width: 0.5; stroke-linecap: round"/>
   </g>
   <g id="text_29">
    <!-- 1000x less proofreading: -->
    <g style="fill: #4a4a5a" transform="translate(822.106804 438.556805) scale(0.09 -0.09)">
     <use xlink:href="#ArialMT-31"/>
     <use xlink:href="#ArialMT-30" x="55.615234"/>
     <use xlink:href="#ArialMT-30" x="111.230469"/>
     <use xlink:href="#ArialMT-30" x="166.845703"/>
     <use xlink:href="#ArialMT-78" x="222.460938"/>
     <use xlink:href="#ArialMT-20" x="272.460938"/>
     <use xlink:href="#ArialMT-6c" x="300.244141"/>
     <use xlink:href="#ArialMT-65" x="322.460938"/>
     <use xlink:href="#ArialMT-73" x="378.076172"/>
     <use xlink:href="#ArialMT-73" x="428.076172"/>
     <use xlink:href="#ArialMT-20" x="478.076172"/>
     <use xlink:href="#ArialMT-70" x="505.859375"/>
     <use xlink:href="#ArialMT-72" x="561.474609"/>
     <use xlink:href="#ArialMT-6f" x="594.775391"/>
     <use xlink:href="#ArialMT-6f" x="650.390625"/>
     <use xlink:href="#ArialMT-66" x="706.005859"/>
     <use xlink:href="#ArialMT-72" x="733.789062"/>
     <use xlink:href="#ArialMT-65" x="767.089844"/>
     <use xlink:href="#ArialMT-61" x="822.705078"/>
     <use xlink:href="#ArialMT-64" x="878.320312"/>
     <use xlink:href="#ArialMT-69" x="933.935547"/>
     <use xlink:href="#ArialMT-6e" x="956.152344"/>
     <use xlink:href="#ArialMT-67" x="1011.767578"/>
     <use xlink:href="#ArialMT-3a" x="1067.382812"/>
    </g>
    <!-- EM 15nm isotropic -->
    <g style="fill: #4a4a5a" transform="translate(822.106804 448.213523) scale(0.09 -0.09)">
     <use xlink:href="#ArialMT-45"/>
     <use xlink:href="#ArialMT-4d" x="66.699219"/>
     <use xlink:href="#ArialMT-20" x="150"/>
     <use xlink:href="#ArialMT-31" x="177.783203"/>
     <use xlink:href="#ArialMT-35" x="233.398438"/>
     <use xlink:href="#ArialMT-6e" x="289.013672"/>
     <use xlink:href="#ArialMT-6d" x="344.628906"/>
     <use xlink:href="#ArialMT-20" x="427.929688"/>
     <use xlink:href="#ArialMT-69" x="455.712891"/>
     <use xlink:href="#ArialMT-73" x="477.929688"/>
     <use xlink:href="#ArialMT-6f" x="527.929688"/>
     <use xlink:href="#ArialMT-74" x="583.544922"/>
     <use xlink:href="#ArialMT-72" x="611.328125"/>
     <use xlink:href="#ArialMT-6f" x="644.628906"/>
     <use xlink:href="#ArialMT-70" x="700.244141"/>
     <use xlink:href="#ArialMT-69" x="755.859375"/>
     <use xlink:href="#ArialMT-63" x="778.076172"/>
    </g>
   </g>
   <g id="patch_13">
    <path d="M 603.754874 414.111361 
Q 658.868035 428.570854 716.607419 426.61327 
" style="fill: none; stroke: #787470; stroke-width: 0.5; stroke-linecap: round"/>
   </g>
   <g id="text_30">
    <!-- 1000x less proofreading: -->
    <g style="fill: #4a4a5a" transform="translate(516.546344 399.653689) scale(0.09 -0.09)">
     <use xlink:href="#ArialMT-31"/>
     <use xlink:href="#ArialMT-30" x="55.615234"/>
     <use xlink:href="#ArialMT-30" x="111.230469"/>
     <use xlink:href="#ArialMT-30" x="166.845703"/>
     <use xlink:href="#ArialMT-78" x="222.460938"/>
     <use xlink:href="#ArialMT-20" x="272.460938"/>
     <use xlink:href="#ArialMT-6c" x="300.244141"/>
     <use xlink:href="#ArialMT-65" x="322.460938"/>
     <use xlink:href="#ArialMT-73" x="378.076172"/>
     <use xlink:href="#ArialMT-73" x="428.076172"/>
     <use xlink:href="#ArialMT-20" x="478.076172"/>
     <use xlink:href="#ArialMT-70" x="505.859375"/>
     <use xlink:href="#ArialMT-72" x="561.474609"/>
     <use xlink:href="#ArialMT-6f" x="594.775391"/>
     <use xlink:href="#ArialMT-6f" x="650.390625"/>
     <use xlink:href="#ArialMT-66" x="706.005859"/>
     <use xlink:href="#ArialMT-72" x="733.789062"/>
     <use xlink:href="#ArialMT-65" x="767.089844"/>
     <use xlink:href="#ArialMT-61" x="822.705078"/>
     <use xlink:href="#ArialMT-64" x="878.320312"/>
     <use xlink:href="#ArialMT-69" x="933.935547"/>
     <use xlink:href="#ArialMT-6e" x="956.152344"/>
     <use xlink:href="#ArialMT-67" x="1011.767578"/>
     <use xlink:href="#ArialMT-3a" x="1067.382812"/>
    </g>
    <!-- ExM 15nm isotropic -->
    <g style="fill: #4a4a5a" transform="translate(536.080563 409.310408) scale(0.09 -0.09)">
     <use xlink:href="#ArialMT-45"/>
     <use xlink:href="#ArialMT-78" x="66.699219"/>
     <use xlink:href="#ArialMT-4d" x="116.699219"/>
     <use xlink:href="#ArialMT-20" x="200"/>
     <use xlink:href="#ArialMT-31" x="227.783203"/>
     <use xlink:href="#ArialMT-35" x="283.398438"/>
     <use xlink:href="#ArialMT-6e" x="339.013672"/>
     <use xlink:href="#ArialMT-6d" x="394.628906"/>
     <use xlink:href="#ArialMT-20" x="477.929688"/>
     <use xlink:href="#ArialMT-69" x="505.712891"/>
     <use xlink:href="#ArialMT-73" x="527.929688"/>
     <use xlink:href="#ArialMT-6f" x="577.929688"/>
     <use xlink:href="#ArialMT-74" x="633.544922"/>
     <use xlink:href="#ArialMT-72" x="661.328125"/>
     <use xlink:href="#ArialMT-6f" x="694.628906"/>
     <use xlink:href="#ArialMT-70" x="750.244141"/>
     <use xlink:href="#ArialMT-69" x="805.859375"/>
     <use xlink:href="#ArialMT-63" x="828.076172"/>
    </g>
   </g>
   <g id="legend_1">
    <g id="patch_14">
     <path d="M 882.128594 99.059062 
L 969.659375 99.059062 
Q 971.859375 99.059062 971.859375 96.859062 
L 971.859375 35.635625 
Q 971.859375 33.435625 969.659375 33.435625 
L 882.128594 33.435625 
Q 879.928594 33.435625 879.928594 35.635625 
L 879.928594 96.859062 
Q 879.928594 99.059062 882.128594 99.059062 
z
" style="fill: #ffffff; opacity: 0.9; stroke: #e8e5e1; stroke-linejoin: miter"/>
    </g>
    <g id="text_31">
     <!-- Type -->
     <g style="fill: #4a4a5a" transform="translate(912.886172 47.525) scale(0.12 -0.12)">
      <defs>
       <path id="ArialMT-54" d="M 1659 0 
L 1659 4041 
L 150 4041 
L 150 4581 
L 3781 4581 
L 3781 4041 
L 2266 4041 
L 2266 0 
L 1659 0 
z
" transform="scale(0.015625)"/>
      </defs>
      <use xlink:href="#ArialMT-54"/>
      <use xlink:href="#ArialMT-79" x="55.583984"/>
      <use xlink:href="#ArialMT-70" x="105.583984"/>
      <use xlink:href="#ArialMT-65" x="161.199219"/>
     </g>
    </g>
    <g id="line2d_4">
     <path d="M 885.428594 58.474219 
L 896.428594 58.474219 
L 907.428594 58.474219 
" style="fill: none; stroke: #ffffff; stroke-width: 1.5; stroke-linecap: round"/>
     <defs>
      <path id="mcdae9f6590" d="M 0 5 
C 1.326016 5 2.597899 4.473168 3.535534 3.535534 
C 4.473168 2.597899 5 1.326016 5 0 
C 5 -1.326016 4.473168 -2.597899 3.535534 -3.535534 
C 2.597899 -4.473168 1.326016 -5 0 -5 
C -1.326016 -5 -2.597899 -4.473168 -3.535534 -3.535534 
C -4.473168 -2.597899 -5 -1.326016 -5 0 
C -5 1.326016 -4.473168 2.597899 -3.535534 3.535534 
C -2.597899 4.473168 -1.326016 5 0 5 
z
" style="stroke: #4a4a5a; stroke-width: 1.5"/>
     </defs>
     <g>
      <use xlink:href="#mcdae9f6590" x="896.428594" y="58.474219" style="fill: #d4a84b; stroke: #4a4a5a; stroke-width: 1.5"/>
     </g>
    </g>
    <g id="text_32">
     <!-- Budget -->
     <g style="fill: #4a4a5a" transform="translate(916.228594 62.324219) scale(0.11 -0.11)">
      <defs>
       <path id="ArialMT-42" d="M 469 0 
L 469 4581 
L 2188 4581 
Q 2713 4581 3030 4442 
Q 3347 4303 3526 4014 
Q 3706 3725 3706 3409 
Q 3706 3116 3547 2856 
Q 3388 2597 3066 2438 
Q 3481 2316 3704 2022 
Q 3928 1728 3928 1328 
Q 3928 1006 3792 729 
Q 3656 453 3456 303 
Q 3256 153 2954 76 
Q 2653 0 2216 0 
L 469 0 
z
M 1075 2656 
L 2066 2656 
Q 2469 2656 2644 2709 
Q 2875 2778 2992 2937 
Q 3109 3097 3109 3338 
Q 3109 3566 3000 3739 
Q 2891 3913 2687 3977 
Q 2484 4041 1991 4041 
L 1075 4041 
L 1075 2656 
z
M 1075 541 
L 2216 541 
Q 2509 541 2628 563 
Q 2838 600 2978 687 
Q 3119 775 3209 942 
Q 3300 1109 3300 1328 
Q 3300 1584 3169 1773 
Q 3038 1963 2805 2039 
Q 2572 2116 2134 2116 
L 1075 2116 
L 1075 541 
z
" transform="scale(0.015625)"/>
      </defs>
      <use xlink:href="#ArialMT-42"/>
      <use xlink:href="#ArialMT-75" x="66.699219"/>
      <use xlink:href="#ArialMT-64" x="122.314453"/>
      <use xlink:href="#ArialMT-67" x="177.929688"/>
      <use xlink:href="#ArialMT-65" x="233.544922"/>
      <use xlink:href="#ArialMT-74" x="289.160156"/>
     </g>
    </g>
    <g id="line2d_5">
     <path d="M 885.428594 73.062969 
L 896.428594 73.062969 
L 907.428594 73.062969 
" style="fill: none; stroke: #ffffff; stroke-width: 1.5; stroke-linecap: round"/>
     <defs>
      <path id="maabd4ea15f" d="M -5 5 
L 5 5 
L 5 -5 
L -5 -5 
z
" style="stroke: #4a4a5a; stroke-width: 1.5; stroke-linejoin: miter"/>
     </defs>
     <g>
      <use xlink:href="#maabd4ea15f" x="896.428594" y="73.062969" style="fill: #4a90a4; stroke: #4a4a5a; stroke-width: 1.5; stroke-linejoin: miter"/>
     </g>
    </g>
    <g id="text_33">
     <!-- Estimate -->
     <g style="fill: #4a4a5a" transform="translate(916.228594 76.912969) scale(0.11 -0.11)">
      <use xlink:href="#ArialMT-45"/>
      <use xlink:href="#ArialMT-73" x="66.699219"/>
      <use xlink:href="#ArialMT-74" x="116.699219"/>
      <use xlink:href="#ArialMT-69" x="144.482422"/>
      <use xlink:href="#ArialMT-6d" x="166.699219"/>
      <use xlink:href="#ArialMT-61" x="250"/>
      <use xlink:href="#ArialMT-74" x="305.615234"/>
      <use xlink:href="#ArialMT-65" x="333.398438"/>
     </g>
    </g>
    <g id="line2d_6">
     <path d="M 885.428594 87.522812 
L 896.428594 87.522812 
L 907.428594 87.522812 
" style="fill: none; stroke: #ffffff; stroke-width: 1.5; stroke-linecap: round"/>
     <defs>
      <path id="m58d38ca6fd" d="M -0 7.071068 
L 7.071068 0 
L 0 -7.071068 
L -7.071068 -0 
z
" style="stroke: #4a4a5a; stroke-width: 1.5; stroke-linejoin: miter"/>
     </defs>
     <g>
      <use xlink:href="#m58d38ca6fd" x="896.428594" y="87.522812" style="fill: #2ecc71; stroke: #4a4a5a; stroke-width: 1.5; stroke-linejoin: miter"/>
     </g>
    </g>
    <g id="text_34">
     <!-- Illustration -->
     <g style="fill: #4a4a5a" transform="translate(916.228594 91.372812) scale(0.11 -0.11)">
      <use xlink:href="#ArialMT-49"/>
      <use xlink:href="#ArialMT-6c" x="27.783203"/>
      <use xlink:href="#ArialMT-6c" x="50"/>
      <use xlink:href="#ArialMT-75" x="72.216797"/>
      <use xlink:href="#ArialMT-73" x="127.832031"/>
      <use xlink:href="#ArialMT-74" x="177.832031"/>
      <use xlink:href="#ArialMT-72" x="205.615234"/>
      <use xlink:href="#ArialMT-61" x="238.916016"/>
      <use xlink:href="#ArialMT-74" x="294.53125"/>
      <use xlink:href="#ArialMT-69" x="322.314453"/>
      <use xlink:href="#ArialMT-6f" x="344.53125"/>
      <use xlink:href="#ArialMT-6e" x="400.146484"/>
     </g>
    </g>
   </g>
  </g>
  <g id="text_35">
   <!-- Zanichelli &amp; Schons et al., State of Brain Emulation Report 2025 -->
   <g style="fill: #787470" transform="translate(793.986875 733.831406) scale(0.07 -0.07)">
    <defs>
     <path id="Arial-ItalicMT-5a" d="M 156 0 
L 216 459 
L 2509 3200 
L 2984 3775 
Q 3128 3950 3263 4097 
Q 2972 4063 2856 4063 
L 2706 4066 
L 2525 4063 
L 2347 4059 
L 806 4059 
L 916 4581 
L 4075 4581 
L 4022 4103 
L 1563 1181 
Q 1109 641 988 503 
Q 1125 522 1166 522 
L 3663 522 
L 3553 0 
L 156 0 
z
" transform="scale(0.015625)"/>
     <path id="Arial-ItalicMT-61" d="M 2450 413 
Q 2156 159 1884 42 
Q 1613 -75 1303 -75 
Q 844 -75 562 195 
Q 281 466 281 888 
Q 281 1166 407 1380 
Q 534 1594 743 1723 
Q 953 1853 1256 1909 
Q 1447 1947 1980 1969 
Q 2513 1991 2744 2081 
Q 2809 2313 2809 2466 
Q 2809 2663 2666 2775 
Q 2469 2931 2091 2931 
Q 1734 2931 1507 2773 
Q 1281 2616 1178 2325 
L 606 2375 
Q 781 2869 1161 3131 
Q 1541 3394 2119 3394 
Q 2734 3394 3094 3100 
Q 3369 2881 3369 2531 
Q 3369 2266 3291 1916 
L 3106 1091 
Q 3019 697 3019 450 
Q 3019 294 3088 0 
L 2516 0 
Q 2469 163 2450 413 
z
M 2659 1681 
Q 2541 1634 2405 1609 
Q 2269 1584 1950 1556 
Q 1456 1513 1253 1445 
Q 1050 1378 947 1231 
Q 844 1084 844 906 
Q 844 669 1008 516 
Q 1172 363 1475 363 
Q 1756 363 2015 511 
Q 2275 659 2425 925 
Q 2575 1191 2659 1681 
z
" transform="scale(0.015625)"/>
     <path id="Arial-ItalicMT-6e" d="M 213 0 
L 906 3319 
L 1419 3319 
L 1297 2741 
Q 1631 3081 1922 3237 
Q 2213 3394 2516 3394 
Q 2919 3394 3148 3175 
Q 3378 2956 3378 2591 
Q 3378 2406 3297 2009 
L 2875 0 
L 2309 0 
L 2750 2103 
Q 2816 2409 2816 2556 
Q 2816 2722 2702 2825 
Q 2588 2928 2372 2928 
Q 1938 2928 1598 2615 
Q 1259 2303 1100 1544 
L 778 0 
L 213 0 
z
" transform="scale(0.015625)"/>
     <path id="Arial-ItalicMT-69" d="M 1016 3941 
L 1150 4581 
L 1713 4581 
L 1578 3941 
L 1016 3941 
z
M 191 0 
L 884 3319 
L 1450 3319 
L 756 0 
L 191 0 
z
" transform="scale(0.015625)"/>
     <path id="Arial-ItalicMT-63" d="M 2503 1209 
L 3069 1150 
Q 2856 528 2464 226 
Q 2072 -75 1572 -75 
Q 1031 -75 695 275 
Q 359 625 359 1253 
Q 359 1797 575 2322 
Q 791 2847 1192 3120 
Q 1594 3394 2109 3394 
Q 2644 3394 2956 3092 
Q 3269 2791 3269 2294 
L 2713 2256 
Q 2709 2572 2529 2750 
Q 2350 2928 2056 2928 
Q 1716 2928 1466 2712 
Q 1216 2497 1073 2058 
Q 931 1619 931 1213 
Q 931 788 1118 575 
Q 1306 363 1581 363 
Q 1856 363 2107 572 
Q 2359 781 2503 1209 
z
" transform="scale(0.015625)"/>
     <path id="Arial-ItalicMT-68" d="M 213 0 
L 1169 4581 
L 1734 4581 
L 1369 2822 
Q 1684 3128 1956 3261 
Q 2228 3394 2516 3394 
Q 2928 3394 3156 3176 
Q 3384 2959 3384 2603 
Q 3384 2428 3284 1959 
L 2875 0 
L 2309 0 
L 2731 2009 
Q 2822 2447 2822 2559 
Q 2822 2722 2709 2825 
Q 2597 2928 2384 2928 
Q 2078 2928 1800 2767 
Q 1522 2606 1364 2326 
Q 1206 2047 1075 1425 
L 778 0 
L 213 0 
z
" transform="scale(0.015625)"/>
     <path id="Arial-ItalicMT-65" d="M 2650 1128 
L 3200 1072 
Q 3081 663 2654 294 
Q 2228 -75 1638 -75 
Q 1269 -75 961 95 
Q 653 266 492 591 
Q 331 916 331 1331 
Q 331 1875 582 2386 
Q 834 2897 1234 3145 
Q 1634 3394 2100 3394 
Q 2694 3394 3048 3025 
Q 3403 2656 3403 2019 
Q 3403 1775 3359 1519 
L 916 1519 
Q 903 1422 903 1344 
Q 903 878 1117 633 
Q 1331 388 1641 388 
Q 1931 388 2212 578 
Q 2494 769 2650 1128 
z
M 1006 1950 
L 2869 1950 
Q 2872 2038 2872 2075 
Q 2872 2500 2659 2726 
Q 2447 2953 2113 2953 
Q 1750 2953 1451 2703 
Q 1153 2453 1006 1950 
z
" transform="scale(0.015625)"/>
     <path id="Arial-ItalicMT-6c" d="M 169 0 
L 1125 4581 
L 1691 4581 
L 734 0 
L 169 0 
z
" transform="scale(0.015625)"/>
     <path id="Arial-ItalicMT-20" transform="scale(0.015625)"/>
     <path id="Arial-ItalicMT-26" d="M 3175 447 
Q 2784 128 2506 14 
Q 2228 -100 1891 -100 
Q 1266 -100 884 267 
Q 503 634 503 1191 
Q 503 1553 645 1831 
Q 788 2109 1069 2334 
Q 1284 2503 1706 2694 
Q 1544 3053 1509 3175 
Q 1466 3350 1466 3550 
Q 1466 3813 1612 4083 
Q 1759 4353 2028 4506 
Q 2297 4659 2613 4659 
Q 3053 4659 3323 4403 
Q 3594 4147 3594 3781 
Q 3594 3472 3362 3167 
Q 3131 2863 2453 2522 
Q 2863 1781 3241 1306 
Q 3469 1584 3675 1959 
L 4169 1706 
Q 3963 1272 3597 856 
Q 3800 597 4125 231 
L 3700 -109 
Q 3381 163 3175 447 
z
M 2247 2944 
Q 2706 3178 2903 3425 
Q 3041 3594 3041 3769 
Q 3041 3953 2914 4079 
Q 2788 4206 2606 4206 
Q 2388 4206 2220 4029 
Q 2053 3853 2053 3609 
Q 2053 3313 2247 2944 
z
M 2847 881 
Q 2263 1647 1938 2253 
Q 1513 2053 1331 1866 
Q 1078 1603 1078 1256 
Q 1078 900 1320 654 
Q 1563 409 1913 409 
Q 2384 409 2847 881 
z
" transform="scale(0.015625)"/>
     <path id="Arial-ItalicMT-53" d="M 450 1481 
L 1050 1538 
L 1044 1378 
Q 1044 1113 1166 892 
Q 1288 672 1569 551 
Q 1850 431 2238 431 
Q 2788 431 3077 672 
Q 3366 913 3366 1222 
Q 3366 1438 3213 1616 
Q 3056 1791 2359 2091 
Q 1819 2325 1622 2450 
Q 1313 2653 1166 2892 
Q 1019 3131 1019 3438 
Q 1019 3791 1212 4075 
Q 1406 4359 1779 4509 
Q 2153 4659 2622 4659 
Q 3181 4659 3565 4471 
Q 3950 4284 4123 3971 
Q 4297 3659 4297 3375 
Q 4297 3347 4294 3281 
L 3703 3234 
Q 3703 3428 3669 3538 
Q 3606 3728 3475 3859 
Q 3344 3991 3114 4070 
Q 2884 4150 2600 4150 
Q 2100 4150 1822 3925 
Q 1609 3753 1609 3469 
Q 1609 3300 1696 3167 
Q 1784 3034 2013 2906 
Q 2175 2816 2784 2547 
Q 3278 2328 3466 2203 
Q 3716 2038 3850 1802 
Q 3984 1566 3984 1266 
Q 3984 894 3757 580 
Q 3531 266 3131 94 
Q 2731 -78 2216 -78 
Q 1438 -78 945 261 
Q 453 600 450 1481 
z
" transform="scale(0.015625)"/>
     <path id="Arial-ItalicMT-6f" d="M 313 1259 
Q 313 2231 884 2869 
Q 1356 3394 2122 3394 
Q 2722 3394 3089 3019 
Q 3456 2644 3456 2006 
Q 3456 1434 3225 942 
Q 2994 450 2567 187 
Q 2141 -75 1669 -75 
Q 1281 -75 964 90 
Q 647 256 480 559 
Q 313 863 313 1259 
z
M 878 1316 
Q 878 847 1103 605 
Q 1328 363 1675 363 
Q 1856 363 2034 436 
Q 2213 509 2366 659 
Q 2519 809 2626 1001 
Q 2734 1194 2800 1416 
Q 2897 1725 2897 2009 
Q 2897 2459 2670 2707 
Q 2444 2956 2100 2956 
Q 1834 2956 1615 2829 
Q 1397 2703 1220 2459 
Q 1044 2216 961 1892 
Q 878 1569 878 1316 
z
" transform="scale(0.015625)"/>
     <path id="Arial-ItalicMT-73" d="M 266 1134 
L 831 1169 
Q 831 925 906 753 
Q 981 581 1182 472 
Q 1384 363 1653 363 
Q 2028 363 2215 513 
Q 2403 663 2403 866 
Q 2403 1013 2291 1144 
Q 2175 1275 1726 1467 
Q 1278 1659 1153 1738 
Q 944 1866 837 2039 
Q 731 2213 731 2438 
Q 731 2831 1043 3112 
Q 1356 3394 1919 3394 
Q 2544 3394 2870 3105 
Q 3197 2816 3209 2344 
L 2656 2306 
Q 2644 2606 2444 2781 
Q 2244 2956 1878 2956 
Q 1584 2956 1421 2822 
Q 1259 2688 1259 2531 
Q 1259 2375 1400 2256 
Q 1494 2175 1884 2006 
Q 2534 1725 2703 1563 
Q 2972 1303 2972 931 
Q 2972 684 2820 446 
Q 2669 209 2358 67 
Q 2047 -75 1625 -75 
Q 1050 -75 647 209 
Q 244 494 266 1134 
z
" transform="scale(0.015625)"/>
     <path id="Arial-ItalicMT-74" d="M 1534 459 
L 1441 -3 
Q 1238 -56 1047 -56 
Q 709 -56 509 109 
Q 359 234 359 450 
Q 359 559 441 953 
L 844 2881 
L 397 2881 
L 488 3319 
L 934 3319 
L 1106 4134 
L 1753 4525 
L 1500 3319 
L 2056 3319 
L 1963 2881 
L 1409 2881 
L 1025 1047 
Q 953 697 953 628 
Q 953 528 1011 475 
Q 1069 422 1200 422 
Q 1388 422 1534 459 
z
" transform="scale(0.015625)"/>
     <path id="Arial-ItalicMT-2e" d="M 369 0 
L 503 641 
L 1144 641 
L 1006 0 
L 369 0 
z
" transform="scale(0.015625)"/>
     <path id="Arial-ItalicMT-2c" d="M 347 0 
L 481 641 
L 1125 641 
L 1009 81 
Q 903 -422 679 -656 
Q 456 -891 153 -925 
L 206 -678 
Q 578 -575 697 0 
L 347 0 
z
" transform="scale(0.015625)"/>
     <path id="Arial-ItalicMT-66" d="M 291 0 
L 894 2881 
L 388 2881 
L 478 3319 
L 984 3319 
L 1081 3791 
Q 1156 4144 1236 4300 
Q 1316 4456 1495 4557 
Q 1675 4659 1984 4659 
Q 2200 4659 2609 4569 
L 2506 4075 
Q 2219 4150 2025 4150 
Q 1859 4150 1773 4067 
Q 1688 3984 1625 3675 
L 1550 3319 
L 2181 3319 
L 2091 2881 
L 1459 2881 
L 856 0 
L 291 0 
z
" transform="scale(0.015625)"/>
     <path id="Arial-ItalicMT-42" d="M 278 0 
L 1238 4581 
L 2656 4581 
Q 3044 4581 3231 4550 
Q 3538 4497 3748 4364 
Q 3959 4231 4075 4001 
Q 4191 3772 4191 3494 
Q 4191 3116 3983 2828 
Q 3775 2541 3347 2391 
Q 3719 2269 3903 2023 
Q 4088 1778 4088 1450 
Q 4088 1072 3870 725 
Q 3653 378 3295 189 
Q 2938 0 2497 0 
L 278 0 
z
M 1441 2625 
L 2369 2625 
Q 3034 2625 3326 2837 
Q 3619 3050 3619 3456 
Q 3619 3650 3528 3790 
Q 3438 3931 3286 3995 
Q 3134 4059 2716 4059 
L 1741 4059 
L 1441 2625 
z
M 1000 519 
L 2044 519 
Q 2459 519 2603 547 
Q 2894 597 3075 717 
Q 3256 838 3359 1034 
Q 3463 1231 3463 1447 
Q 3463 1769 3261 1936 
Q 3059 2103 2494 2103 
L 1331 2103 
L 1000 519 
z
" transform="scale(0.015625)"/>
     <path id="Arial-ItalicMT-72" d="M 213 0 
L 906 3319 
L 1406 3319 
L 1266 2641 
Q 1522 3025 1767 3209 
Q 2013 3394 2269 3394 
Q 2438 3394 2684 3272 
L 2453 2747 
Q 2306 2853 2131 2853 
Q 1834 2853 1521 2522 
Q 1209 2191 1031 1331 
L 750 0 
L 213 0 
z
" transform="scale(0.015625)"/>
     <path id="Arial-ItalicMT-45" d="M 288 0 
L 1247 4581 
L 4553 4581 
L 4444 4059 
L 1750 4059 
L 1450 2634 
L 4075 2634 
L 3966 2113 
L 1341 2113 
L 1009 519 
L 3894 519 
L 3784 0 
L 288 0 
z
" transform="scale(0.015625)"/>
     <path id="Arial-ItalicMT-6d" d="M 209 0 
L 903 3319 
L 1469 3319 
L 1353 2772 
Q 1669 3125 1917 3259 
Q 2166 3394 2456 3394 
Q 2766 3394 2973 3230 
Q 3181 3066 3247 2772 
Q 3500 3084 3779 3239 
Q 4059 3394 4369 3394 
Q 4784 3394 4992 3197 
Q 5200 3000 5200 2644 
Q 5200 2491 5128 2138 
L 4681 0 
L 4116 0 
L 4572 2194 
Q 4631 2463 4631 2578 
Q 4631 2741 4528 2834 
Q 4425 2928 4238 2928 
Q 3984 2928 3721 2775 
Q 3459 2622 3314 2373 
Q 3169 2125 3059 1609 
L 2722 0 
L 2156 0 
L 2625 2241 
Q 2675 2469 2675 2566 
Q 2675 2728 2573 2828 
Q 2472 2928 2309 2928 
Q 2069 2928 1805 2775 
Q 1541 2622 1375 2348 
Q 1209 2075 1103 1569 
L 775 0 
L 209 0 
z
" transform="scale(0.015625)"/>
     <path id="Arial-ItalicMT-75" d="M 2478 600 
Q 1881 -75 1256 -75 
Q 872 -75 636 145 
Q 400 366 400 684 
Q 400 894 506 1403 
L 906 3319 
L 1472 3319 
L 1028 1197 
Q 972 931 972 784 
Q 972 597 1086 492 
Q 1200 388 1422 388 
Q 1659 388 1886 503 
Q 2113 619 2277 816 
Q 2441 1013 2544 1281 
Q 2613 1453 2703 1884 
L 3003 3319 
L 3569 3319 
L 2875 0 
L 2353 0 
L 2478 600 
z
" transform="scale(0.015625)"/>
     <path id="Arial-ItalicMT-52" d="M 300 0 
L 1259 4581 
L 3181 4581 
Q 3750 4581 4044 4486 
Q 4338 4391 4505 4128 
Q 4672 3866 4672 3466 
Q 4672 2906 4306 2537 
Q 3941 2169 3125 2059 
Q 3375 1875 3503 1697 
Q 3791 1294 3966 863 
L 4316 0 
L 3631 0 
L 3303 853 
Q 3125 1316 2897 1653 
Q 2741 1888 2578 1961 
Q 2416 2034 2050 2034 
L 1338 2034 
L 913 0 
L 300 0 
z
M 1441 2531 
L 2288 2531 
Q 2875 2531 3053 2547 
Q 3400 2581 3622 2703 
Q 3844 2825 3966 3031 
Q 4088 3238 4088 3475 
Q 4088 3675 3997 3823 
Q 3906 3972 3759 4025 
Q 3613 4078 3259 4078 
L 1766 4078 
L 1441 2531 
z
" transform="scale(0.015625)"/>
     <path id="Arial-ItalicMT-70" d="M -66 -1272 
L 894 3319 
L 1416 3319 
L 1319 2856 
Q 1609 3159 1839 3276 
Q 2069 3394 2325 3394 
Q 2800 3394 3112 3048 
Q 3425 2703 3425 2059 
Q 3425 1541 3253 1114 
Q 3081 688 2831 428 
Q 2581 169 2325 47 
Q 2069 -75 1800 -75 
Q 1203 -75 875 531 
L 500 -1272 
L -66 -1272 
z
M 1053 1356 
Q 1053 984 1106 841 
Q 1184 638 1362 513 
Q 1541 388 1775 388 
Q 2263 388 2563 936 
Q 2863 1484 2863 2056 
Q 2863 2478 2661 2708 
Q 2459 2938 2159 2938 
Q 1944 2938 1759 2823 
Q 1575 2709 1417 2482 
Q 1259 2256 1156 1928 
Q 1053 1600 1053 1356 
z
" transform="scale(0.015625)"/>
     <path id="Arial-ItalicMT-32" d="M 375 0 
Q 463 409 617 686 
Q 772 963 1028 1211 
Q 1284 1459 2016 2044 
Q 2459 2397 2622 2566 
Q 2856 2809 2963 3044 
Q 3034 3203 3034 3391 
Q 3034 3706 2811 3926 
Q 2588 4147 2263 4147 
Q 1941 4147 1700 3923 
Q 1459 3700 1356 3206 
L 803 3288 
Q 884 3897 1276 4248 
Q 1669 4600 2253 4600 
Q 2644 4600 2961 4437 
Q 3278 4275 3437 3981 
Q 3597 3688 3597 3375 
Q 3597 2919 3272 2497 
Q 3072 2234 2097 1463 
Q 1678 1131 1473 918 
Q 1269 706 1166 519 
L 3216 519 
L 3106 0 
L 375 0 
z
" transform="scale(0.015625)"/>
     <path id="Arial-ItalicMT-30" d="M 453 1503 
Q 453 2084 626 2684 
Q 800 3284 1012 3643 
Q 1225 4003 1453 4206 
Q 1681 4409 1901 4504 
Q 2122 4600 2391 4600 
Q 2916 4600 3267 4209 
Q 3619 3819 3619 3081 
Q 3619 2322 3375 1578 
Q 3088 697 2575 256 
Q 2181 -78 1678 -78 
Q 1163 -78 808 326 
Q 453 731 453 1503 
z
M 1000 1359 
Q 1000 938 1141 700 
Q 1331 372 1706 372 
Q 2034 372 2303 669 
Q 2691 1088 2886 1895 
Q 3081 2703 3081 3216 
Q 3081 3709 2892 3928 
Q 2703 4147 2394 4147 
Q 2169 4147 1973 4031 
Q 1778 3916 1600 3634 
Q 1347 3238 1159 2447 
Q 1000 1772 1000 1359 
z
" transform="scale(0.015625)"/>
     <path id="Arial-ItalicMT-35" d="M 447 1309 
L 1022 1366 
Q 1016 1244 1016 1219 
Q 1016 1013 1120 803 
Q 1225 594 1404 483 
Q 1584 372 1784 372 
Q 2047 372 2319 553 
Q 2591 734 2759 1081 
Q 2928 1428 2928 1769 
Q 2928 2153 2701 2384 
Q 2475 2616 2106 2616 
Q 1859 2616 1639 2497 
Q 1419 2378 1228 2141 
L 734 2175 
L 1425 4519 
L 3663 4519 
L 3553 4000 
L 1813 4000 
L 1469 2834 
Q 1663 2975 1867 3045 
Q 2072 3116 2288 3116 
Q 2813 3116 3150 2769 
Q 3488 2422 3488 1819 
Q 3488 1291 3256 845 
Q 3025 400 2620 161 
Q 2216 -78 1747 -78 
Q 1353 -78 1050 100 
Q 747 278 595 590 
Q 444 903 444 1216 
Q 444 1247 447 1309 
z
" transform="scale(0.015625)"/>
    </defs>
    <use xlink:href="#Arial-ItalicMT-5a"/>
    <use xlink:href="#Arial-ItalicMT-61" x="61.083984"/>
    <use xlink:href="#Arial-ItalicMT-6e" x="116.699219"/>
    <use xlink:href="#Arial-ItalicMT-69" x="172.314453"/>
    <use xlink:href="#Arial-ItalicMT-63" x="194.53125"/>
    <use xlink:href="#Arial-ItalicMT-68" x="244.53125"/>
    <use xlink:href="#Arial-ItalicMT-65" x="300.146484"/>
    <use xlink:href="#Arial-ItalicMT-6c" x="355.761719"/>
    <use xlink:href="#Arial-ItalicMT-6c" x="377.978516"/>
    <use xlink:href="#Arial-ItalicMT-69" x="400.195312"/>
    <use xlink:href="#Arial-ItalicMT-20" x="422.412109"/>
    <use xlink:href="#Arial-ItalicMT-26" x="450.195312"/>
    <use xlink:href="#Arial-ItalicMT-20" x="516.894531"/>
    <use xlink:href="#Arial-ItalicMT-53" x="544.677734"/>
    <use xlink:href="#Arial-ItalicMT-63" x="611.376953"/>
    <use xlink:href="#Arial-ItalicMT-68" x="661.376953"/>
    <use xlink:href="#Arial-ItalicMT-6f" x="716.992188"/>
    <use xlink:href="#Arial-ItalicMT-6e" x="772.607422"/>
    <use xlink:href="#Arial-ItalicMT-73" x="828.222656"/>
    <use xlink:href="#Arial-ItalicMT-20" x="878.222656"/>
    <use xlink:href="#Arial-ItalicMT-65" x="906.005859"/>
    <use xlink:href="#Arial-ItalicMT-74" x="961.621094"/>
    <use xlink:href="#Arial-ItalicMT-20" x="989.404297"/>
    <use xlink:href="#Arial-ItalicMT-61" x="1017.1875"/>
    <use xlink:href="#Arial-ItalicMT-6c" x="1072.802734"/>
    <use xlink:href="#Arial-ItalicMT-2e" x="1095.019531"/>
    <use xlink:href="#Arial-ItalicMT-2c" x="1122.802734"/>
    <use xlink:href="#Arial-ItalicMT-20" x="1150.585938"/>
    <use xlink:href="#Arial-ItalicMT-53" x="1178.369141"/>
    <use xlink:href="#Arial-ItalicMT-74" x="1245.068359"/>
    <use xlink:href="#Arial-ItalicMT-61" x="1272.851562"/>
    <use xlink:href="#Arial-ItalicMT-74" x="1328.466797"/>
    <use xlink:href="#Arial-ItalicMT-65" x="1356.25"/>
    <use xlink:href="#Arial-ItalicMT-20" x="1411.865234"/>
    <use xlink:href="#Arial-ItalicMT-6f" x="1439.648438"/>
    <use xlink:href="#Arial-ItalicMT-66" x="1495.263672"/>
    <use xlink:href="#Arial-ItalicMT-20" x="1523.046875"/>
    <use xlink:href="#Arial-ItalicMT-42" x="1550.830078"/>
    <use xlink:href="#Arial-ItalicMT-72" x="1617.529297"/>
    <use xlink:href="#Arial-ItalicMT-61" x="1650.830078"/>
    <use xlink:href="#Arial-ItalicMT-69" x="1706.445312"/>
    <use xlink:href="#Arial-ItalicMT-6e" x="1728.662109"/>
    <use xlink:href="#Arial-ItalicMT-20" x="1784.277344"/>
    <use xlink:href="#Arial-ItalicMT-45" x="1812.060547"/>
    <use xlink:href="#Arial-ItalicMT-6d" x="1878.759766"/>
    <use xlink:href="#Arial-ItalicMT-75" x="1962.060547"/>
    <use xlink:href="#Arial-ItalicMT-6c" x="2017.675781"/>
    <use xlink:href="#Arial-ItalicMT-61" x="2039.892578"/>
    <use xlink:href="#Arial-ItalicMT-74" x="2095.507812"/>
    <use xlink:href="#Arial-ItalicMT-69" x="2123.291016"/>
    <use xlink:href="#Arial-ItalicMT-6f" x="2145.507812"/>
    <use xlink:href="#Arial-ItalicMT-6e" x="2201.123047"/>
    <use xlink:href="#Arial-ItalicMT-20" x="2256.738281"/>
    <use xlink:href="#Arial-ItalicMT-52" x="2284.521484"/>
    <use xlink:href="#Arial-ItalicMT-65" x="2356.738281"/>
    <use xlink:href="#Arial-ItalicMT-70" x="2412.353516"/>
    <use xlink:href="#Arial-ItalicMT-6f" x="2467.96875"/>
    <use xlink:href="#Arial-ItalicMT-72" x="2523.583984"/>
    <use xlink:href="#Arial-ItalicMT-74" x="2556.884766"/>
    <use xlink:href="#Arial-ItalicMT-20" x="2584.667969"/>
    <use xlink:href="#Arial-ItalicMT-32" x="2612.451172"/>
    <use xlink:href="#Arial-ItalicMT-30" x="2668.066406"/>
    <use xlink:href="#Arial-ItalicMT-32" x="2723.681641"/>
    <use xlink:href="#Arial-ItalicMT-35" x="2779.296875"/>
   </g>
  </g>
 </g>
 <defs>
  <clipPath id="p19623d6527">
   <rect x="71.719375" y="27.935625" width="905.64" height="639.3"/>
  </clipPath>
 </defs>
</svg>
