<?xml version="1.0" encoding="utf-8" standalone="no"?>
<!DOCTYPE svg PUBLIC "-//W3C//DTD SVG 1.1//EN"
  "http://www.w3.org/Graphics/SVG/1.1/DTD/svg11.dtd">
<svg xmlns:xlink="http://www.w3.org/1999/xlink" width="856.849233pt" height="641.671719pt" viewBox="0 0 856.849233 641.671719" xmlns="http://www.w3.org/2000/svg" version="1.1">
 <metadata>
  <rdf:RDF xmlns:dc="http://purl.org/dc/elements/1.1/" xmlns:cc="http://creativecommons.org/ns#" xmlns:rdf="http://www.w3.org/1999/02/22-rdf-syntax-ns#">
   <cc:Work>
    <dc:type rdf:resource="http://purl.org/dc/dcmitype/StillImage"/>
    <dc:date>2026-01-19T20:24:25.403576</dc:date>
    <dc:format>image/svg+xml</dc:format>
    <dc:creator>
     <cc:Agent>
      <dc:title>Matplotlib v3.9.4, https://matplotlib.org/</dc:title>
     </cc:Agent>
    </dc:creator>
   </cc:Work>
  </rdf:RDF>
 </metadata>
 <defs>
  <style type="text/css">*{stroke-linejoin: round; stroke-linecap: butt}</style>
 </defs>
 <g id="figure_1">
  <g id="patch_1">
   <path d="M 0 641.671719 
L 856.849233 641.671719 
L 856.849233 0 
L 0 0 
z
" style="fill: #ffffff"/>
  </g>
  <g id="axes_1">
   <g id="patch_2">
    <path d="M 38.48 608.891719 
L 845.329233 608.891719 
L 845.329233 12.816875 
L 38.48 12.816875 
z
" style="fill: #fafaf8"/>
   </g>
   <g id="PolyCollection_1">
    <defs>
     <path id="m5742e6fbe5" d="M 75.154965 -200.034224 
L 75.154965 -160.159467 
L 82.934503 -161.825621 
L 90.714041 -163.491775 
L 98.493579 -165.15793 
L 106.273117 -166.824084 
L 114.052655 -168.490238 
L 121.832193 -170.156393 
L 129.611732 -171.822547 
L 137.39127 -173.488701 
L 145.170808 -175.154856 
L 152.950346 -176.82101 
L 160.729884 -178.487164 
L 168.509422 -180.153318 
L 176.28896 -181.819473 
L 184.068498 -183.485627 
L 191.848036 -185.151781 
L 199.627574 -186.817936 
L 207.407112 -188.48409 
L 215.18665 -190.150244 
L 222.966188 -191.816398 
L 230.745726 -193.482553 
L 238.525264 -195.148707 
L 246.304802 -196.814861 
L 254.08434 -198.481016 
L 261.863879 -200.14717 
L 269.643417 -201.813324 
L 277.422955 -203.479479 
L 285.202493 -205.145633 
L 292.982031 -206.811787 
L 300.761569 -208.477941 
L 308.541107 -210.144096 
L 316.320645 -211.81025 
L 324.100183 -213.476404 
L 331.879721 -215.142559 
L 339.659259 -216.808713 
L 347.438797 -218.474867 
L 355.218335 -220.141022 
L 362.997873 -221.807176 
L 370.777411 -223.47333 
L 378.556949 -225.139484 
L 386.336487 -226.805639 
L 394.116025 -228.471793 
L 401.895564 -230.137947 
L 409.675102 -231.804102 
L 417.45464 -233.470256 
L 425.234178 -235.13641 
L 433.013716 -236.802565 
L 440.793254 -238.468719 
L 448.572792 -240.134873 
L 456.35233 -241.801027 
L 464.131868 -243.467182 
L 471.911406 -245.133336 
L 479.690944 -246.79949 
L 487.470482 -248.465645 
L 495.25002 -250.131799 
L 503.029558 -251.797953 
L 510.809096 -253.464108 
L 518.588634 -255.130262 
L 526.368172 -256.796416 
L 534.147711 -258.46257 
L 541.927249 -260.128725 
L 549.706787 -261.794879 
L 557.486325 -263.461033 
L 565.265863 -265.127188 
L 573.045401 -266.793342 
L 580.824939 -268.459496 
L 588.604477 -270.125651 
L 596.384015 -271.791805 
L 604.163553 -273.457959 
L 611.943091 -275.124113 
L 619.722629 -276.790268 
L 627.502167 -278.456422 
L 635.281705 -280.122576 
L 643.061243 -281.788731 
L 650.840781 -283.454885 
L 658.620319 -285.121039 
L 666.399857 -286.787193 
L 674.179396 -288.453348 
L 681.958934 -290.119502 
L 689.738472 -291.785656 
L 697.51801 -293.451811 
L 705.297548 -295.117965 
L 713.077086 -296.784119 
L 720.856624 -298.450274 
L 728.636162 -300.116428 
L 736.4157 -301.782582 
L 744.195238 -303.448736 
L 751.974776 -305.114891 
L 759.754314 -306.781045 
L 767.533852 -308.447199 
L 775.31339 -310.113354 
L 783.092928 -311.779508 
L 790.872466 -313.445662 
L 798.652004 -315.111817 
L 806.431543 -316.777971 
L 814.211081 -318.444125 
L 821.990619 -320.110279 
L 829.770157 -321.776434 
L 837.549695 -323.442588 
L 845.329233 -325.108742 
L 845.329233 -364.9835 
L 845.329233 -364.9835 
L 837.549695 -363.317345 
L 829.770157 -361.651191 
L 821.990619 -359.985037 
L 814.211081 -358.318882 
L 806.431543 -356.652728 
L 798.652004 -354.986574 
L 790.872466 -353.32042 
L 783.092928 -351.654265 
L 775.31339 -349.988111 
L 767.533852 -348.321957 
L 759.754314 -346.655802 
L 751.974776 -344.989648 
L 744.195238 -343.323494 
L 736.4157 -341.657339 
L 728.636162 -339.991185 
L 720.856624 -338.325031 
L 713.077086 -336.658877 
L 705.297548 -334.992722 
L 697.51801 -333.326568 
L 689.738472 -331.660414 
L 681.958934 -329.994259 
L 674.179396 -328.328105 
L 666.399857 -326.661951 
L 658.620319 -324.995796 
L 650.840781 -323.329642 
L 643.061243 -321.663488 
L 635.281705 -319.997334 
L 627.502167 -318.331179 
L 619.722629 -316.665025 
L 611.943091 -314.998871 
L 604.163553 -313.332716 
L 596.384015 -311.666562 
L 588.604477 -310.000408 
L 580.824939 -308.334253 
L 573.045401 -306.668099 
L 565.265863 -305.001945 
L 557.486325 -303.335791 
L 549.706787 -301.669636 
L 541.927249 -300.003482 
L 534.147711 -298.337328 
L 526.368172 -296.671173 
L 518.588634 -295.005019 
L 510.809096 -293.338865 
L 503.029558 -291.67271 
L 495.25002 -290.006556 
L 487.470482 -288.340402 
L 479.690944 -286.674248 
L 471.911406 -285.008093 
L 464.131868 -283.341939 
L 456.35233 -281.675785 
L 448.572792 -280.00963 
L 440.793254 -278.343476 
L 433.013716 -276.677322 
L 425.234178 -275.011167 
L 417.45464 -273.345013 
L 409.675102 -271.678859 
L 401.895564 -270.012705 
L 394.116025 -268.34655 
L 386.336487 -266.680396 
L 378.556949 -265.014242 
L 370.777411 -263.348087 
L 362.997873 -261.681933 
L 355.218335 -260.015779 
L 347.438797 -258.349625 
L 339.659259 -256.68347 
L 331.879721 -255.017316 
L 324.100183 -253.351162 
L 316.320645 -251.685007 
L 308.541107 -250.018853 
L 300.761569 -248.352699 
L 292.982031 -246.686544 
L 285.202493 -245.02039 
L 277.422955 -243.354236 
L 269.643417 -241.688082 
L 261.863879 -240.021927 
L 254.08434 -238.355773 
L 246.304802 -236.689619 
L 238.525264 -235.023464 
L 230.745726 -233.35731 
L 222.966188 -231.691156 
L 215.18665 -230.025001 
L 207.407112 -228.358847 
L 199.627574 -226.692693 
L 191.848036 -225.026539 
L 184.068498 -223.360384 
L 176.28896 -221.69423 
L 168.509422 -220.028076 
L 160.729884 -218.361921 
L 152.950346 -216.695767 
L 145.170808 -215.029613 
L 137.39127 -213.363458 
L 129.611732 -211.697304 
L 121.832193 -210.03115 
L 114.052655 -208.364996 
L 106.273117 -206.698841 
L 98.493579 -205.032687 
L 90.714041 -203.366533 
L 82.934503 -201.700378 
L 75.154965 -200.034224 
z
" style="stroke: #2e8b57; stroke-opacity: 0.15"/>
    </defs>
    <g clip-path="url(#pc20d8162a3)">
     <use xlink:href="#m5742e6fbe5" x="0" y="641.671719" style="fill: #2e8b57; fill-opacity: 0.15; stroke: #2e8b57; stroke-opacity: 0.15"/>
    </g>
   </g>
   <g id="PolyCollection_2">
    <defs>
     <path id="m01dd6ecb99" d="M 75.154965 -168.190424 
L 75.154965 -128.315667 
L 82.934503 -129.596787 
L 90.714041 -130.877908 
L 98.493579 -132.159029 
L 106.273117 -133.440149 
L 114.052655 -134.72127 
L 121.832193 -136.002391 
L 129.611732 -137.283511 
L 137.39127 -138.564632 
L 145.170808 -139.845753 
L 152.950346 -141.126873 
L 160.729884 -142.407994 
L 168.509422 -143.689115 
L 176.28896 -144.970235 
L 184.068498 -146.251356 
L 191.848036 -147.532477 
L 199.627574 -148.813597 
L 207.407112 -150.094718 
L 215.18665 -151.375839 
L 222.966188 -152.65696 
L 230.745726 -153.93808 
L 238.525264 -155.219201 
L 246.304802 -156.500322 
L 254.08434 -157.781442 
L 261.863879 -159.062563 
L 269.643417 -160.343684 
L 277.422955 -161.624804 
L 285.202493 -162.905925 
L 292.982031 -164.187046 
L 300.761569 -165.468166 
L 308.541107 -166.749287 
L 316.320645 -168.030408 
L 324.100183 -169.311528 
L 331.879721 -170.592649 
L 339.659259 -171.87377 
L 347.438797 -173.15489 
L 355.218335 -174.436011 
L 362.997873 -175.717132 
L 370.777411 -176.998252 
L 378.556949 -178.279373 
L 386.336487 -179.560494 
L 394.116025 -180.841614 
L 401.895564 -182.122735 
L 409.675102 -183.403856 
L 417.45464 -184.684976 
L 425.234178 -185.966097 
L 433.013716 -187.247218 
L 440.793254 -188.528338 
L 448.572792 -189.809459 
L 456.35233 -191.09058 
L 464.131868 -192.3717 
L 471.911406 -193.652821 
L 479.690944 -194.933942 
L 487.470482 -196.215062 
L 495.25002 -197.496183 
L 503.029558 -198.777304 
L 510.809096 -200.058424 
L 518.588634 -201.339545 
L 526.368172 -202.620666 
L 534.147711 -203.901786 
L 541.927249 -205.182907 
L 549.706787 -206.464028 
L 557.486325 -207.745148 
L 565.265863 -209.026269 
L 573.045401 -210.30739 
L 580.824939 -211.58851 
L 588.604477 -212.869631 
L 596.384015 -214.150752 
L 604.163553 -215.431872 
L 611.943091 -216.712993 
L 619.722629 -217.994114 
L 627.502167 -219.275234 
L 635.281705 -220.556355 
L 643.061243 -221.837476 
L 650.840781 -223.118596 
L 658.620319 -224.399717 
L 666.399857 -225.680838 
L 674.179396 -226.961958 
L 681.958934 -228.243079 
L 689.738472 -229.5242 
L 697.51801 -230.80532 
L 705.297548 -232.086441 
L 713.077086 -233.367562 
L 720.856624 -234.648682 
L 728.636162 -235.929803 
L 736.4157 -237.210924 
L 744.195238 -238.492044 
L 751.974776 -239.773165 
L 759.754314 -241.054286 
L 767.533852 -242.335406 
L 775.31339 -243.616527 
L 783.092928 -244.897648 
L 790.872466 -246.178768 
L 798.652004 -247.459889 
L 806.431543 -248.74101 
L 814.211081 -250.02213 
L 821.990619 -251.303251 
L 829.770157 -252.584372 
L 837.549695 -253.865492 
L 845.329233 -255.146613 
L 845.329233 -295.02137 
L 845.329233 -295.02137 
L 837.549695 -293.74025 
L 829.770157 -292.459129 
L 821.990619 -291.178008 
L 814.211081 -289.896888 
L 806.431543 -288.615767 
L 798.652004 -287.334646 
L 790.872466 -286.053526 
L 783.092928 -284.772405 
L 775.31339 -283.491284 
L 767.533852 -282.210164 
L 759.754314 -280.929043 
L 751.974776 -279.647922 
L 744.195238 -278.366802 
L 736.4157 -277.085681 
L 728.636162 -275.80456 
L 720.856624 -274.52344 
L 713.077086 -273.242319 
L 705.297548 -271.961198 
L 697.51801 -270.680078 
L 689.738472 -269.398957 
L 681.958934 -268.117836 
L 674.179396 -266.836716 
L 666.399857 -265.555595 
L 658.620319 -264.274474 
L 650.840781 -262.993354 
L 643.061243 -261.712233 
L 635.281705 -260.431112 
L 627.502167 -259.149992 
L 619.722629 -257.868871 
L 611.943091 -256.58775 
L 604.163553 -255.30663 
L 596.384015 -254.025509 
L 588.604477 -252.744388 
L 580.824939 -251.463268 
L 573.045401 -250.182147 
L 565.265863 -248.901026 
L 557.486325 -247.619906 
L 549.706787 -246.338785 
L 541.927249 -245.057664 
L 534.147711 -243.776544 
L 526.368172 -242.495423 
L 518.588634 -241.214302 
L 510.809096 -239.933182 
L 503.029558 -238.652061 
L 495.25002 -237.37094 
L 487.470482 -236.08982 
L 479.690944 -234.808699 
L 471.911406 -233.527578 
L 464.131868 -232.246457 
L 456.35233 -230.965337 
L 448.572792 -229.684216 
L 440.793254 -228.403095 
L 433.013716 -227.121975 
L 425.234178 -225.840854 
L 417.45464 -224.559733 
L 409.675102 -223.278613 
L 401.895564 -221.997492 
L 394.116025 -220.716371 
L 386.336487 -219.435251 
L 378.556949 -218.15413 
L 370.777411 -216.873009 
L 362.997873 -215.591889 
L 355.218335 -214.310768 
L 347.438797 -213.029647 
L 339.659259 -211.748527 
L 331.879721 -210.467406 
L 324.100183 -209.186285 
L 316.320645 -207.905165 
L 308.541107 -206.624044 
L 300.761569 -205.342923 
L 292.982031 -204.061803 
L 285.202493 -202.780682 
L 277.422955 -201.499561 
L 269.643417 -200.218441 
L 261.863879 -198.93732 
L 254.08434 -197.656199 
L 246.304802 -196.375079 
L 238.525264 -195.093958 
L 230.745726 -193.812837 
L 222.966188 -192.531717 
L 215.18665 -191.250596 
L 207.407112 -189.969475 
L 199.627574 -188.688355 
L 191.848036 -187.407234 
L 184.068498 -186.126113 
L 176.28896 -184.844993 
L 168.509422 -183.563872 
L 160.729884 -182.282751 
L 152.950346 -181.001631 
L 145.170808 -179.72051 
L 137.39127 -178.439389 
L 129.611732 -177.158269 
L 121.832193 -175.877148 
L 114.052655 -174.596027 
L 106.273117 -173.314907 
L 98.493579 -172.033786 
L 90.714041 -170.752665 
L 82.934503 -169.471545 
L 75.154965 -168.190424 
z
" style="stroke: #9370db; stroke-opacity: 0.15"/>
    </defs>
    <g clip-path="url(#pc20d8162a3)">
     <use xlink:href="#m01dd6ecb99" x="0" y="641.671719" style="fill: #9370db; fill-opacity: 0.15; stroke: #9370db; stroke-opacity: 0.15"/>
    </g>
   </g>
   <g id="matplotlib.axis_1">
    <g id="xtick_1">
     <g id="line2d_1">
      <path d="M 75.154965 608.891719 
L 75.154965 12.816875 
" clip-path="url(#pc20d8162a3)" style="fill: none; stroke: #e8e5e1; stroke-opacity: 0.3; stroke-linecap: round"/>
     </g>
     <g id="text_1">
      <!-- 2005.0 -->
      <g style="fill: #4a4a5a" transform="translate(58.334418 626.265313) scale(0.11 -0.11)">
       <defs>
        <path id="ArialMT-32" d="M 3222 541 
L 3222 0 
L 194 0 
Q 188 203 259 391 
Q 375 700 629 1000 
Q 884 1300 1366 1694 
Q 2113 2306 2375 2664 
Q 2638 3022 2638 3341 
Q 2638 3675 2398 3904 
Q 2159 4134 1775 4134 
Q 1369 4134 1125 3890 
Q 881 3647 878 3216 
L 300 3275 
Q 359 3922 746 4261 
Q 1134 4600 1788 4600 
Q 2447 4600 2831 4234 
Q 3216 3869 3216 3328 
Q 3216 3053 3103 2787 
Q 2991 2522 2730 2228 
Q 2469 1934 1863 1422 
Q 1356 997 1212 845 
Q 1069 694 975 541 
L 3222 541 
z
" transform="scale(0.015625)"/>
        <path id="ArialMT-30" d="M 266 2259 
Q 266 3072 433 3567 
Q 600 4063 929 4331 
Q 1259 4600 1759 4600 
Q 2128 4600 2406 4451 
Q 2684 4303 2865 4023 
Q 3047 3744 3150 3342 
Q 3253 2941 3253 2259 
Q 3253 1453 3087 958 
Q 2922 463 2592 192 
Q 2263 -78 1759 -78 
Q 1097 -78 719 397 
Q 266 969 266 2259 
z
M 844 2259 
Q 844 1131 1108 757 
Q 1372 384 1759 384 
Q 2147 384 2411 759 
Q 2675 1134 2675 2259 
Q 2675 3391 2411 3762 
Q 2147 4134 1753 4134 
Q 1366 4134 1134 3806 
Q 844 3388 844 2259 
z
" transform="scale(0.015625)"/>
        <path id="ArialMT-35" d="M 266 1200 
L 856 1250 
Q 922 819 1161 601 
Q 1400 384 1738 384 
Q 2144 384 2425 690 
Q 2706 997 2706 1503 
Q 2706 1984 2436 2262 
Q 2166 2541 1728 2541 
Q 1456 2541 1237 2417 
Q 1019 2294 894 2097 
L 366 2166 
L 809 4519 
L 3088 4519 
L 3088 3981 
L 1259 3981 
L 1013 2750 
Q 1425 3038 1878 3038 
Q 2478 3038 2890 2622 
Q 3303 2206 3303 1553 
Q 3303 931 2941 478 
Q 2500 -78 1738 -78 
Q 1113 -78 717 272 
Q 322 622 266 1200 
z
" transform="scale(0.015625)"/>
        <path id="ArialMT-2e" d="M 581 0 
L 581 641 
L 1222 641 
L 1222 0 
L 581 0 
z
" transform="scale(0.015625)"/>
       </defs>
       <use xlink:href="#ArialMT-32"/>
       <use xlink:href="#ArialMT-30" x="55.615234"/>
       <use xlink:href="#ArialMT-30" x="111.230469"/>
       <use xlink:href="#ArialMT-35" x="166.845703"/>
       <use xlink:href="#ArialMT-2e" x="222.460938"/>
       <use xlink:href="#ArialMT-30" x="250.244141"/>
      </g>
     </g>
    </g>
    <g id="xtick_2">
     <g id="line2d_2">
      <path d="M 166.842378 608.891719 
L 166.842378 12.816875 
" clip-path="url(#pc20d8162a3)" style="fill: none; stroke: #e8e5e1; stroke-opacity: 0.3; stroke-linecap: round"/>
     </g>
     <g id="text_2">
      <!-- 2007.5 -->
      <g style="fill: #4a4a5a" transform="translate(150.021831 626.265313) scale(0.11 -0.11)">
       <defs>
        <path id="ArialMT-37" d="M 303 3981 
L 303 4522 
L 3269 4522 
L 3269 4084 
Q 2831 3619 2401 2847 
Q 1972 2075 1738 1259 
Q 1569 684 1522 0 
L 944 0 
Q 953 541 1156 1306 
Q 1359 2072 1739 2783 
Q 2119 3494 2547 3981 
L 303 3981 
z
" transform="scale(0.015625)"/>
       </defs>
       <use xlink:href="#ArialMT-32"/>
       <use xlink:href="#ArialMT-30" x="55.615234"/>
       <use xlink:href="#ArialMT-30" x="111.230469"/>
       <use xlink:href="#ArialMT-37" x="166.845703"/>
       <use xlink:href="#ArialMT-2e" x="222.460938"/>
       <use xlink:href="#ArialMT-35" x="250.244141"/>
      </g>
     </g>
    </g>
    <g id="xtick_3">
     <g id="line2d_3">
      <path d="M 258.529791 608.891719 
L 258.529791 12.816875 
" clip-path="url(#pc20d8162a3)" style="fill: none; stroke: #e8e5e1; stroke-opacity: 0.3; stroke-linecap: round"/>
     </g>
     <g id="text_3">
      <!-- 2010.0 -->
      <g style="fill: #4a4a5a" transform="translate(241.709244 626.265313) scale(0.11 -0.11)">
       <defs>
        <path id="ArialMT-31" d="M 2384 0 
L 1822 0 
L 1822 3584 
Q 1619 3391 1289 3197 
Q 959 3003 697 2906 
L 697 3450 
Q 1169 3672 1522 3987 
Q 1875 4303 2022 4600 
L 2384 4600 
L 2384 0 
z
" transform="scale(0.015625)"/>
       </defs>
       <use xlink:href="#ArialMT-32"/>
       <use xlink:href="#ArialMT-30" x="55.615234"/>
       <use xlink:href="#ArialMT-31" x="111.230469"/>
       <use xlink:href="#ArialMT-30" x="166.845703"/>
       <use xlink:href="#ArialMT-2e" x="222.460938"/>
       <use xlink:href="#ArialMT-30" x="250.244141"/>
      </g>
     </g>
    </g>
    <g id="xtick_4">
     <g id="line2d_4">
      <path d="M 350.217204 608.891719 
L 350.217204 12.816875 
" clip-path="url(#pc20d8162a3)" style="fill: none; stroke: #e8e5e1; stroke-opacity: 0.3; stroke-linecap: round"/>
     </g>
     <g id="text_4">
      <!-- 2012.5 -->
      <g style="fill: #4a4a5a" transform="translate(333.396657 626.265313) scale(0.11 -0.11)">
       <use xlink:href="#ArialMT-32"/>
       <use xlink:href="#ArialMT-30" x="55.615234"/>
       <use xlink:href="#ArialMT-31" x="111.230469"/>
       <use xlink:href="#ArialMT-32" x="166.845703"/>
       <use xlink:href="#ArialMT-2e" x="222.460938"/>
       <use xlink:href="#ArialMT-35" x="250.244141"/>
      </g>
     </g>
    </g>
    <g id="xtick_5">
     <g id="line2d_5">
      <path d="M 441.904616 608.891719 
L 441.904616 12.816875 
" clip-path="url(#pc20d8162a3)" style="fill: none; stroke: #e8e5e1; stroke-opacity: 0.3; stroke-linecap: round"/>
     </g>
     <g id="text_5">
      <!-- 2015.0 -->
      <g style="fill: #4a4a5a" transform="translate(425.08407 626.265313) scale(0.11 -0.11)">
       <use xlink:href="#ArialMT-32"/>
       <use xlink:href="#ArialMT-30" x="55.615234"/>
       <use xlink:href="#ArialMT-31" x="111.230469"/>
       <use xlink:href="#ArialMT-35" x="166.845703"/>
       <use xlink:href="#ArialMT-2e" x="222.460938"/>
       <use xlink:href="#ArialMT-30" x="250.244141"/>
      </g>
     </g>
    </g>
    <g id="xtick_6">
     <g id="line2d_6">
      <path d="M 533.592029 608.891719 
L 533.592029 12.816875 
" clip-path="url(#pc20d8162a3)" style="fill: none; stroke: #e8e5e1; stroke-opacity: 0.3; stroke-linecap: round"/>
     </g>
     <g id="text_6">
      <!-- 2017.5 -->
      <g style="fill: #4a4a5a" transform="translate(516.771482 626.265313) scale(0.11 -0.11)">
       <use xlink:href="#ArialMT-32"/>
       <use xlink:href="#ArialMT-30" x="55.615234"/>
       <use xlink:href="#ArialMT-31" x="111.230469"/>
       <use xlink:href="#ArialMT-37" x="166.845703"/>
       <use xlink:href="#ArialMT-2e" x="222.460938"/>
       <use xlink:href="#ArialMT-35" x="250.244141"/>
      </g>
     </g>
    </g>
    <g id="xtick_7">
     <g id="line2d_7">
      <path d="M 625.279442 608.891719 
L 625.279442 12.816875 
" clip-path="url(#pc20d8162a3)" style="fill: none; stroke: #e8e5e1; stroke-opacity: 0.3; stroke-linecap: round"/>
     </g>
     <g id="text_7">
      <!-- 2020.0 -->
      <g style="fill: #4a4a5a" transform="translate(608.458895 626.265313) scale(0.11 -0.11)">
       <use xlink:href="#ArialMT-32"/>
       <use xlink:href="#ArialMT-30" x="55.615234"/>
       <use xlink:href="#ArialMT-32" x="111.230469"/>
       <use xlink:href="#ArialMT-30" x="166.845703"/>
       <use xlink:href="#ArialMT-2e" x="222.460938"/>
       <use xlink:href="#ArialMT-30" x="250.244141"/>
      </g>
     </g>
    </g>
    <g id="xtick_8">
     <g id="line2d_8">
      <path d="M 716.966855 608.891719 
L 716.966855 12.816875 
" clip-path="url(#pc20d8162a3)" style="fill: none; stroke: #e8e5e1; stroke-opacity: 0.3; stroke-linecap: round"/>
     </g>
     <g id="text_8">
      <!-- 2022.5 -->
      <g style="fill: #4a4a5a" transform="translate(700.146308 626.265313) scale(0.11 -0.11)">
       <use xlink:href="#ArialMT-32"/>
       <use xlink:href="#ArialMT-30" x="55.615234"/>
       <use xlink:href="#ArialMT-32" x="111.230469"/>
       <use xlink:href="#ArialMT-32" x="166.845703"/>
       <use xlink:href="#ArialMT-2e" x="222.460938"/>
       <use xlink:href="#ArialMT-35" x="250.244141"/>
      </g>
     </g>
    </g>
    <g id="xtick_9">
     <g id="line2d_9">
      <path d="M 808.654268 608.891719 
L 808.654268 12.816875 
" clip-path="url(#pc20d8162a3)" style="fill: none; stroke: #e8e5e1; stroke-opacity: 0.3; stroke-linecap: round"/>
     </g>
     <g id="text_9">
      <!-- 2025.0 -->
      <g style="fill: #4a4a5a" transform="translate(791.833721 626.265313) scale(0.11 -0.11)">
       <use xlink:href="#ArialMT-32"/>
       <use xlink:href="#ArialMT-30" x="55.615234"/>
       <use xlink:href="#ArialMT-32" x="111.230469"/>
       <use xlink:href="#ArialMT-35" x="166.845703"/>
       <use xlink:href="#ArialMT-2e" x="222.460938"/>
       <use xlink:href="#ArialMT-30" x="250.244141"/>
      </g>
     </g>
    </g>
   </g>
   <g id="matplotlib.axis_2">
    <g id="ytick_1">
     <g id="line2d_10">
      <path d="M 38.48 608.891719 
L 845.329233 608.891719 
" clip-path="url(#pc20d8162a3)" style="fill: none; stroke: #e8e5e1; stroke-opacity: 0.3; stroke-linecap: round"/>
     </g>
     <g id="text_10">
      <!-- $\mathdefault{10^{-2}}$ -->
      <g style="fill: #4a4a5a" transform="translate(7.2 614.563594) scale(0.11 -0.11)">
       <defs>
        <path id="ArialMT-2212" d="M 3381 1997 
L 356 1997 
L 356 2522 
L 3381 2522 
L 3381 1997 
z
" transform="scale(0.015625)"/>
       </defs>
       <use xlink:href="#ArialMT-31" transform="translate(0 0.99375)"/>
       <use xlink:href="#ArialMT-30" transform="translate(55.615234 0.99375)"/>
       <use xlink:href="#ArialMT-2212" transform="translate(112.972813 70.6875) scale(0.7)"/>
       <use xlink:href="#ArialMT-32" transform="translate(153.851719 70.6875) scale(0.7)"/>
      </g>
     </g>
    </g>
    <g id="ytick_2">
     <g id="line2d_11">
      <path d="M 38.48 542.661181 
L 845.329233 542.661181 
" clip-path="url(#pc20d8162a3)" style="fill: none; stroke: #e8e5e1; stroke-opacity: 0.3; stroke-linecap: round"/>
     </g>
     <g id="text_11">
      <!-- $\mathdefault{10^{-1}}$ -->
      <g style="fill: #4a4a5a" transform="translate(7.2 548.333056) scale(0.11 -0.11)">
       <use xlink:href="#ArialMT-31" transform="translate(0 0.99375)"/>
       <use xlink:href="#ArialMT-30" transform="translate(55.615234 0.99375)"/>
       <use xlink:href="#ArialMT-2212" transform="translate(112.972813 70.6875) scale(0.7)"/>
       <use xlink:href="#ArialMT-31" transform="translate(153.851719 70.6875) scale(0.7)"/>
      </g>
     </g>
    </g>
    <g id="ytick_3">
     <g id="line2d_12">
      <path d="M 38.48 476.430642 
L 845.329233 476.430642 
" clip-path="url(#pc20d8162a3)" style="fill: none; stroke: #e8e5e1; stroke-opacity: 0.3; stroke-linecap: round"/>
     </g>
     <g id="text_12">
      <!-- $\mathdefault{10^{0}}$ -->
      <g style="fill: #4a4a5a" transform="translate(11.71 482.102517) scale(0.11 -0.11)">
       <use xlink:href="#ArialMT-31" transform="translate(0 0.99375)"/>
       <use xlink:href="#ArialMT-30" transform="translate(55.615234 0.99375)"/>
       <use xlink:href="#ArialMT-30" transform="translate(112.972813 70.6875) scale(0.7)"/>
      </g>
     </g>
    </g>
    <g id="ytick_4">
     <g id="line2d_13">
      <path d="M 38.48 410.200104 
L 845.329233 410.200104 
" clip-path="url(#pc20d8162a3)" style="fill: none; stroke: #e8e5e1; stroke-opacity: 0.3; stroke-linecap: round"/>
     </g>
     <g id="text_13">
      <!-- $\mathdefault{10^{1}}$ -->
      <g style="fill: #4a4a5a" transform="translate(11.71 415.871979) scale(0.11 -0.11)">
       <use xlink:href="#ArialMT-31" transform="translate(0 0.99375)"/>
       <use xlink:href="#ArialMT-30" transform="translate(55.615234 0.99375)"/>
       <use xlink:href="#ArialMT-31" transform="translate(112.972813 70.6875) scale(0.7)"/>
      </g>
     </g>
    </g>
    <g id="ytick_5">
     <g id="line2d_14">
      <path d="M 38.48 343.969566 
L 845.329233 343.969566 
" clip-path="url(#pc20d8162a3)" style="fill: none; stroke: #e8e5e1; stroke-opacity: 0.3; stroke-linecap: round"/>
     </g>
     <g id="text_14">
      <!-- $\mathdefault{10^{2}}$ -->
      <g style="fill: #4a4a5a" transform="translate(11.71 349.641441) scale(0.11 -0.11)">
       <use xlink:href="#ArialMT-31" transform="translate(0 0.99375)"/>
       <use xlink:href="#ArialMT-30" transform="translate(55.615234 0.99375)"/>
       <use xlink:href="#ArialMT-32" transform="translate(112.972813 70.6875) scale(0.7)"/>
      </g>
     </g>
    </g>
    <g id="ytick_6">
     <g id="line2d_15">
      <path d="M 38.48 277.739028 
L 845.329233 277.739028 
" clip-path="url(#pc20d8162a3)" style="fill: none; stroke: #e8e5e1; stroke-opacity: 0.3; stroke-linecap: round"/>
     </g>
     <g id="text_15">
      <!-- $\mathdefault{10^{3}}$ -->
      <g style="fill: #4a4a5a" transform="translate(11.71 283.410903) scale(0.11 -0.11)">
       <defs>
        <path id="ArialMT-33" d="M 269 1209 
L 831 1284 
Q 928 806 1161 595 
Q 1394 384 1728 384 
Q 2125 384 2398 659 
Q 2672 934 2672 1341 
Q 2672 1728 2419 1979 
Q 2166 2231 1775 2231 
Q 1616 2231 1378 2169 
L 1441 2663 
Q 1497 2656 1531 2656 
Q 1891 2656 2178 2843 
Q 2466 3031 2466 3422 
Q 2466 3731 2256 3934 
Q 2047 4138 1716 4138 
Q 1388 4138 1169 3931 
Q 950 3725 888 3313 
L 325 3413 
Q 428 3978 793 4289 
Q 1159 4600 1703 4600 
Q 2078 4600 2393 4439 
Q 2709 4278 2876 4000 
Q 3044 3722 3044 3409 
Q 3044 3113 2884 2869 
Q 2725 2625 2413 2481 
Q 2819 2388 3044 2092 
Q 3269 1797 3269 1353 
Q 3269 753 2831 336 
Q 2394 -81 1725 -81 
Q 1122 -81 723 278 
Q 325 638 269 1209 
z
" transform="scale(0.015625)"/>
       </defs>
       <use xlink:href="#ArialMT-31" transform="translate(0 0.99375)"/>
       <use xlink:href="#ArialMT-30" transform="translate(55.615234 0.99375)"/>
       <use xlink:href="#ArialMT-33" transform="translate(112.972813 70.6875) scale(0.7)"/>
      </g>
     </g>
    </g>
    <g id="ytick_7">
     <g id="line2d_16">
      <path d="M 38.48 211.50849 
L 845.329233 211.50849 
" clip-path="url(#pc20d8162a3)" style="fill: none; stroke: #e8e5e1; stroke-opacity: 0.3; stroke-linecap: round"/>
     </g>
     <g id="text_16">
      <!-- $\mathdefault{10^{4}}$ -->
      <g style="fill: #4a4a5a" transform="translate(11.71 217.125365) scale(0.11 -0.11)">
       <defs>
        <path id="ArialMT-34" d="M 2069 0 
L 2069 1097 
L 81 1097 
L 81 1613 
L 2172 4581 
L 2631 4581 
L 2631 1613 
L 3250 1613 
L 3250 1097 
L 2631 1097 
L 2631 0 
L 2069 0 
z
M 2069 1613 
L 2069 3678 
L 634 1613 
L 2069 1613 
z
" transform="scale(0.015625)"/>
       </defs>
       <use xlink:href="#ArialMT-31" transform="translate(0 0.201563)"/>
       <use xlink:href="#ArialMT-30" transform="translate(55.615234 0.201563)"/>
       <use xlink:href="#ArialMT-34" transform="translate(112.972813 69.895313) scale(0.7)"/>
      </g>
     </g>
    </g>
    <g id="ytick_8">
     <g id="line2d_17">
      <path d="M 38.48 145.277951 
L 845.329233 145.277951 
" clip-path="url(#pc20d8162a3)" style="fill: none; stroke: #e8e5e1; stroke-opacity: 0.3; stroke-linecap: round"/>
     </g>
     <g id="text_17">
      <!-- $\mathdefault{10^{5}}$ -->
      <g style="fill: #4a4a5a" transform="translate(11.71 150.894826) scale(0.11 -0.11)">
       <use xlink:href="#ArialMT-31" transform="translate(0 0.879688)"/>
       <use xlink:href="#ArialMT-30" transform="translate(55.615234 0.879688)"/>
       <use xlink:href="#ArialMT-35" transform="translate(112.972813 70.573438) scale(0.7)"/>
      </g>
     </g>
    </g>
    <g id="ytick_9">
     <g id="line2d_18">
      <path d="M 38.48 79.047413 
L 845.329233 79.047413 
" clip-path="url(#pc20d8162a3)" style="fill: none; stroke: #e8e5e1; stroke-opacity: 0.3; stroke-linecap: round"/>
     </g>
     <g id="text_18">
      <!-- $\mathdefault{10^{6}}$ -->
      <g style="fill: #4a4a5a" transform="translate(11.71 84.719288) scale(0.11 -0.11)">
       <defs>
        <path id="ArialMT-36" d="M 3184 3459 
L 2625 3416 
Q 2550 3747 2413 3897 
Q 2184 4138 1850 4138 
Q 1581 4138 1378 3988 
Q 1113 3794 959 3422 
Q 806 3050 800 2363 
Q 1003 2672 1297 2822 
Q 1591 2972 1913 2972 
Q 2475 2972 2870 2558 
Q 3266 2144 3266 1488 
Q 3266 1056 3080 686 
Q 2894 316 2569 119 
Q 2244 -78 1831 -78 
Q 1128 -78 684 439 
Q 241 956 241 2144 
Q 241 3472 731 4075 
Q 1159 4600 1884 4600 
Q 2425 4600 2770 4297 
Q 3116 3994 3184 3459 
z
M 888 1484 
Q 888 1194 1011 928 
Q 1134 663 1356 523 
Q 1578 384 1822 384 
Q 2178 384 2434 671 
Q 2691 959 2691 1453 
Q 2691 1928 2437 2201 
Q 2184 2475 1800 2475 
Q 1419 2475 1153 2201 
Q 888 1928 888 1484 
z
" transform="scale(0.015625)"/>
       </defs>
       <use xlink:href="#ArialMT-31" transform="translate(0 0.99375)"/>
       <use xlink:href="#ArialMT-30" transform="translate(55.615234 0.99375)"/>
       <use xlink:href="#ArialMT-36" transform="translate(112.972813 70.6875) scale(0.7)"/>
      </g>
     </g>
    </g>
    <g id="ytick_10">
     <g id="line2d_19">
      <path d="M 38.48 12.816875 
L 845.329233 12.816875 
" clip-path="url(#pc20d8162a3)" style="fill: none; stroke: #e8e5e1; stroke-opacity: 0.3; stroke-linecap: round"/>
     </g>
     <g id="text_19">
      <!-- $\mathdefault{10^{7}}$ -->
      <g style="fill: #4a4a5a" transform="translate(11.71 18.43375) scale(0.11 -0.11)">
       <use xlink:href="#ArialMT-31" transform="translate(0 0.846875)"/>
       <use xlink:href="#ArialMT-30" transform="translate(55.615234 0.846875)"/>
       <use xlink:href="#ArialMT-37" transform="translate(112.972813 70.540625) scale(0.7)"/>
      </g>
     </g>
    </g>
    <g id="ytick_11"/>
    <g id="ytick_12"/>
    <g id="ytick_13"/>
    <g id="ytick_14"/>
    <g id="ytick_15"/>
    <g id="ytick_16"/>
    <g id="ytick_17"/>
    <g id="ytick_18"/>
    <g id="ytick_19"/>
    <g id="ytick_20"/>
    <g id="ytick_21"/>
    <g id="ytick_22"/>
    <g id="ytick_23"/>
    <g id="ytick_24"/>
    <g id="ytick_25"/>
    <g id="ytick_26"/>
    <g id="ytick_27"/>
    <g id="ytick_28"/>
    <g id="ytick_29"/>
    <g id="ytick_30"/>
    <g id="ytick_31"/>
    <g id="ytick_32"/>
    <g id="ytick_33"/>
    <g id="ytick_34"/>
    <g id="ytick_35"/>
    <g id="ytick_36"/>
    <g id="ytick_37"/>
    <g id="ytick_38"/>
    <g id="ytick_39"/>
    <g id="ytick_40"/>
    <g id="ytick_41"/>
    <g id="ytick_42"/>
    <g id="ytick_43"/>
    <g id="ytick_44"/>
    <g id="ytick_45"/>
    <g id="ytick_46"/>
    <g id="ytick_47"/>
    <g id="ytick_48"/>
    <g id="ytick_49"/>
    <g id="ytick_50"/>
    <g id="ytick_51"/>
    <g id="ytick_52"/>
    <g id="ytick_53"/>
    <g id="ytick_54"/>
    <g id="ytick_55"/>
    <g id="ytick_56"/>
    <g id="ytick_57"/>
    <g id="ytick_58"/>
    <g id="ytick_59"/>
    <g id="ytick_60"/>
    <g id="ytick_61"/>
    <g id="ytick_62"/>
    <g id="ytick_63"/>
    <g id="ytick_64"/>
    <g id="ytick_65"/>
    <g id="ytick_66"/>
    <g id="ytick_67"/>
    <g id="ytick_68"/>
    <g id="ytick_69"/>
    <g id="ytick_70"/>
    <g id="ytick_71"/>
    <g id="ytick_72"/>
    <g id="ytick_73"/>
    <g id="ytick_74"/>
    <g id="ytick_75"/>
    <g id="ytick_76"/>
    <g id="ytick_77"/>
    <g id="ytick_78"/>
    <g id="ytick_79"/>
    <g id="ytick_80"/>
    <g id="ytick_81"/>
    <g id="ytick_82"/>
   </g>
   <g id="line2d_20">
    <path d="M 75.154965 334.360015 
L 82.934503 330.959005 
L 90.714041 327.557995 
L 98.493579 324.156985 
L 106.273117 320.755975 
L 114.052655 317.354965 
L 121.832193 313.953955 
L 129.611732 310.552945 
L 137.39127 307.151935 
L 145.170808 303.750925 
L 152.950346 300.349916 
L 160.729884 296.948906 
L 168.509422 293.547896 
L 176.28896 290.146886 
L 184.068498 286.745876 
L 191.848036 283.344866 
L 199.627574 279.943856 
L 207.407112 276.542846 
L 215.18665 273.141836 
L 222.966188 269.740826 
L 230.745726 266.339816 
L 238.525264 262.938807 
L 246.304802 259.537797 
L 254.08434 256.136787 
L 261.863879 252.735777 
L 269.643417 249.334767 
L 277.422955 245.933757 
L 285.202493 242.532747 
L 292.982031 239.131737 
L 300.761569 235.730727 
L 308.541107 232.329717 
L 316.320645 228.928707 
L 324.100183 225.527698 
L 331.879721 222.126688 
L 339.659259 218.725678 
L 347.438797 215.324668 
L 355.218335 211.923658 
L 362.997873 208.522648 
L 370.777411 205.121638 
L 378.556949 201.720628 
L 386.336487 198.319618 
L 394.116025 194.918608 
L 401.895564 191.517598 
L 409.675102 188.116589 
L 417.45464 184.715579 
L 425.234178 181.314569 
L 433.013716 177.913559 
L 440.793254 174.512549 
L 448.572792 171.111539 
L 456.35233 167.710529 
L 464.131868 164.309519 
L 471.911406 160.908509 
L 479.690944 157.507499 
L 487.470482 154.106489 
L 495.25002 150.705479 
L 503.029558 147.30447 
L 510.809096 143.90346 
L 518.588634 140.50245 
L 526.368172 137.10144 
L 534.147711 133.70043 
L 541.927249 130.29942 
L 549.706787 126.89841 
L 557.486325 123.4974 
L 565.265863 120.09639 
L 573.045401 116.69538 
L 580.824939 113.29437 
L 588.604477 109.893361 
L 596.384015 106.492351 
L 604.163553 103.091341 
L 611.943091 99.690331 
L 619.722629 96.289321 
L 627.502167 92.888311 
L 635.281705 89.487301 
L 643.061243 86.086291 
L 650.840781 82.685281 
L 658.620319 79.284271 
L 666.399857 75.883261 
L 674.179396 72.482252 
L 681.958934 69.081242 
L 689.738472 65.680232 
L 697.51801 62.279222 
L 705.297548 58.878212 
L 713.077086 55.477202 
L 720.856624 52.076192 
L 728.636162 48.675182 
L 736.4157 45.274172 
L 744.195238 41.873162 
L 751.974776 38.472152 
L 759.754314 35.071143 
L 767.533852 31.670133 
L 775.31339 28.269123 
L 783.092928 24.868113 
L 790.872466 21.467103 
L 798.652004 18.066093 
L 806.431543 14.665083 
L 814.211081 11.264073 
L 821.990619 7.863063 
L 829.770157 4.462053 
L 837.549695 1.061043 
L 842.264167 -1 
" clip-path="url(#pc20d8162a3)" style="fill: none; stroke: #4a4a4a; stroke-opacity: 0.7; stroke-width: 3; stroke-linecap: round"/>
   </g>
   <g id="line2d_21">
    <path d="M 75.154965 461.574873 
L 82.934503 459.908719 
L 90.714041 458.242565 
L 98.493579 456.57641 
L 106.273117 454.910256 
L 114.052655 453.244102 
L 121.832193 451.577948 
L 129.611732 449.911793 
L 137.39127 448.245639 
L 145.170808 446.579485 
L 152.950346 444.91333 
L 160.729884 443.247176 
L 168.509422 441.581022 
L 176.28896 439.914867 
L 184.068498 438.248713 
L 191.848036 436.582559 
L 199.627574 434.916405 
L 207.407112 433.25025 
L 215.18665 431.584096 
L 222.966188 429.917942 
L 230.745726 428.251787 
L 238.525264 426.585633 
L 246.304802 424.919479 
L 254.08434 423.253324 
L 261.863879 421.58717 
L 269.643417 419.921016 
L 277.422955 418.254862 
L 285.202493 416.588707 
L 292.982031 414.922553 
L 300.761569 413.256399 
L 308.541107 411.590244 
L 316.320645 409.92409 
L 324.100183 408.257936 
L 331.879721 406.591781 
L 339.659259 404.925627 
L 347.438797 403.259473 
L 355.218335 401.593319 
L 362.997873 399.927164 
L 370.777411 398.26101 
L 378.556949 396.594856 
L 386.336487 394.928701 
L 394.116025 393.262547 
L 401.895564 391.596393 
L 409.675102 389.930238 
L 417.45464 388.264084 
L 425.234178 386.59793 
L 433.013716 384.931776 
L 440.793254 383.265621 
L 448.572792 381.599467 
L 456.35233 379.933313 
L 464.131868 378.267158 
L 471.911406 376.601004 
L 479.690944 374.93485 
L 487.470482 373.268695 
L 495.25002 371.602541 
L 503.029558 369.936387 
L 510.809096 368.270233 
L 518.588634 366.604078 
L 526.368172 364.937924 
L 534.147711 363.27177 
L 541.927249 361.605615 
L 549.706787 359.939461 
L 557.486325 358.273307 
L 565.265863 356.607153 
L 573.045401 354.940998 
L 580.824939 353.274844 
L 588.604477 351.60869 
L 596.384015 349.942535 
L 604.163553 348.276381 
L 611.943091 346.610227 
L 619.722629 344.944072 
L 627.502167 343.277918 
L 635.281705 341.611764 
L 643.061243 339.94561 
L 650.840781 338.279455 
L 658.620319 336.613301 
L 666.399857 334.947147 
L 674.179396 333.280992 
L 681.958934 331.614838 
L 689.738472 329.948684 
L 697.51801 328.282529 
L 705.297548 326.616375 
L 713.077086 324.950221 
L 720.856624 323.284067 
L 728.636162 321.617912 
L 736.4157 319.951758 
L 744.195238 318.285604 
L 751.974776 316.619449 
L 759.754314 314.953295 
L 767.533852 313.287141 
L 775.31339 311.620986 
L 783.092928 309.954832 
L 790.872466 308.288678 
L 798.652004 306.622524 
L 806.431543 304.956369 
L 814.211081 303.290215 
L 821.990619 301.624061 
L 829.770157 299.957906 
L 837.549695 298.291752 
L 845.329233 296.625598 
" clip-path="url(#pc20d8162a3)" style="fill: none; stroke: #2e8b57; stroke-opacity: 0.5; stroke-width: 3; stroke-linecap: round"/>
   </g>
   <g id="line2d_22">
    <path d="M 75.154965 493.418673 
L 82.934503 492.137553 
L 90.714041 490.856432 
L 98.493579 489.575311 
L 106.273117 488.294191 
L 114.052655 487.01307 
L 121.832193 485.731949 
L 129.611732 484.450829 
L 137.39127 483.169708 
L 145.170808 481.888587 
L 152.950346 480.607467 
L 160.729884 479.326346 
L 168.509422 478.045225 
L 176.28896 476.764105 
L 184.068498 475.482984 
L 191.848036 474.201863 
L 199.627574 472.920743 
L 207.407112 471.639622 
L 215.18665 470.358501 
L 222.966188 469.077381 
L 230.745726 467.79626 
L 238.525264 466.515139 
L 246.304802 465.234019 
L 254.08434 463.952898 
L 261.863879 462.671777 
L 269.643417 461.390657 
L 277.422955 460.109536 
L 285.202493 458.828415 
L 292.982031 457.547295 
L 300.761569 456.266174 
L 308.541107 454.985053 
L 316.320645 453.703933 
L 324.100183 452.422812 
L 331.879721 451.141691 
L 339.659259 449.860571 
L 347.438797 448.57945 
L 355.218335 447.298329 
L 362.997873 446.017209 
L 370.777411 444.736088 
L 378.556949 443.454967 
L 386.336487 442.173847 
L 394.116025 440.892726 
L 401.895564 439.611605 
L 409.675102 438.330485 
L 417.45464 437.049364 
L 425.234178 435.768243 
L 433.013716 434.487123 
L 440.793254 433.206002 
L 448.572792 431.924881 
L 456.35233 430.643761 
L 464.131868 429.36264 
L 471.911406 428.081519 
L 479.690944 426.800399 
L 487.470482 425.519278 
L 495.25002 424.238157 
L 503.029558 422.957037 
L 510.809096 421.675916 
L 518.588634 420.394795 
L 526.368172 419.113675 
L 534.147711 417.832554 
L 541.927249 416.551433 
L 549.706787 415.270313 
L 557.486325 413.989192 
L 565.265863 412.708071 
L 573.045401 411.426951 
L 580.824939 410.14583 
L 588.604477 408.864709 
L 596.384015 407.583589 
L 604.163553 406.302468 
L 611.943091 405.021347 
L 619.722629 403.740226 
L 627.502167 402.459106 
L 635.281705 401.177985 
L 643.061243 399.896864 
L 650.840781 398.615744 
L 658.620319 397.334623 
L 666.399857 396.053502 
L 674.179396 394.772382 
L 681.958934 393.491261 
L 689.738472 392.21014 
L 697.51801 390.92902 
L 705.297548 389.647899 
L 713.077086 388.366778 
L 720.856624 387.085658 
L 728.636162 385.804537 
L 736.4157 384.523416 
L 744.195238 383.242296 
L 751.974776 381.961175 
L 759.754314 380.680054 
L 767.533852 379.398934 
L 775.31339 378.117813 
L 783.092928 376.836692 
L 790.872466 375.555572 
L 798.652004 374.274451 
L 806.431543 372.99333 
L 814.211081 371.71221 
L 821.990619 370.431089 
L 829.770157 369.149968 
L 837.549695 367.868848 
L 845.329233 366.587727 
" clip-path="url(#pc20d8162a3)" style="fill: none; stroke: #9370db; stroke-opacity: 0.5; stroke-width: 3; stroke-linecap: round"/>
   </g>
   <g id="patch_3">
    <path d="M 38.48 608.891719 
L 38.48 12.816875 
" style="fill: none; stroke: #d8d4cf; stroke-width: 1.25; stroke-linejoin: miter; stroke-linecap: square"/>
   </g>
   <g id="patch_4">
    <path d="M 845.329233 608.891719 
L 845.329233 12.816875 
" style="fill: none; stroke: #d8d4cf; stroke-width: 1.25; stroke-linejoin: miter; stroke-linecap: square"/>
   </g>
   <g id="patch_5">
    <path d="M 38.48 608.891719 
L 845.329233 608.891719 
" style="fill: none; stroke: #d8d4cf; stroke-width: 1.25; stroke-linejoin: miter; stroke-linecap: square"/>
   </g>
   <g id="patch_6">
    <path d="M 38.48 12.816875 
L 845.329233 12.816875 
" style="fill: none; stroke: #d8d4cf; stroke-width: 1.25; stroke-linejoin: miter; stroke-linecap: square"/>
   </g>
   <g id="text_20">
    <!-- Pentium 4 -->
    <g style="fill: #4a4a4a" transform="translate(54.895121 337.66483) scale(0.09 -0.09)">
     <defs>
      <path id="ArialMT-50" d="M 494 0 
L 494 4581 
L 2222 4581 
Q 2678 4581 2919 4538 
Q 3256 4481 3484 4323 
Q 3713 4166 3852 3881 
Q 3991 3597 3991 3256 
Q 3991 2672 3619 2267 
Q 3247 1863 2275 1863 
L 1100 1863 
L 1100 0 
L 494 0 
z
M 1100 2403 
L 2284 2403 
Q 2872 2403 3119 2622 
Q 3366 2841 3366 3238 
Q 3366 3525 3220 3729 
Q 3075 3934 2838 4000 
Q 2684 4041 2272 4041 
L 1100 4041 
L 1100 2403 
z
" transform="scale(0.015625)"/>
      <path id="ArialMT-65" d="M 2694 1069 
L 3275 997 
Q 3138 488 2766 206 
Q 2394 -75 1816 -75 
Q 1088 -75 661 373 
Q 234 822 234 1631 
Q 234 2469 665 2931 
Q 1097 3394 1784 3394 
Q 2450 3394 2872 2941 
Q 3294 2488 3294 1666 
Q 3294 1616 3291 1516 
L 816 1516 
Q 847 969 1125 678 
Q 1403 388 1819 388 
Q 2128 388 2347 550 
Q 2566 713 2694 1069 
z
M 847 1978 
L 2700 1978 
Q 2663 2397 2488 2606 
Q 2219 2931 1791 2931 
Q 1403 2931 1139 2672 
Q 875 2413 847 1978 
z
" transform="scale(0.015625)"/>
      <path id="ArialMT-6e" d="M 422 0 
L 422 3319 
L 928 3319 
L 928 2847 
Q 1294 3394 1984 3394 
Q 2284 3394 2536 3286 
Q 2788 3178 2913 3003 
Q 3038 2828 3088 2588 
Q 3119 2431 3119 2041 
L 3119 0 
L 2556 0 
L 2556 2019 
Q 2556 2363 2490 2533 
Q 2425 2703 2258 2804 
Q 2091 2906 1866 2906 
Q 1506 2906 1245 2678 
Q 984 2450 984 1813 
L 984 0 
L 422 0 
z
" transform="scale(0.015625)"/>
      <path id="ArialMT-74" d="M 1650 503 
L 1731 6 
Q 1494 -44 1306 -44 
Q 1000 -44 831 53 
Q 663 150 594 308 
Q 525 466 525 972 
L 525 2881 
L 113 2881 
L 113 3319 
L 525 3319 
L 525 4141 
L 1084 4478 
L 1084 3319 
L 1650 3319 
L 1650 2881 
L 1084 2881 
L 1084 941 
Q 1084 700 1114 631 
Q 1144 563 1211 522 
Q 1278 481 1403 481 
Q 1497 481 1650 503 
z
" transform="scale(0.015625)"/>
      <path id="ArialMT-69" d="M 425 3934 
L 425 4581 
L 988 4581 
L 988 3934 
L 425 3934 
z
M 425 0 
L 425 3319 
L 988 3319 
L 988 0 
L 425 0 
z
" transform="scale(0.015625)"/>
      <path id="ArialMT-75" d="M 2597 0 
L 2597 488 
Q 2209 -75 1544 -75 
Q 1250 -75 995 37 
Q 741 150 617 320 
Q 494 491 444 738 
Q 409 903 409 1263 
L 409 3319 
L 972 3319 
L 972 1478 
Q 972 1038 1006 884 
Q 1059 663 1231 536 
Q 1403 409 1656 409 
Q 1909 409 2131 539 
Q 2353 669 2445 892 
Q 2538 1116 2538 1541 
L 2538 3319 
L 3100 3319 
L 3100 0 
L 2597 0 
z
" transform="scale(0.015625)"/>
      <path id="ArialMT-6d" d="M 422 0 
L 422 3319 
L 925 3319 
L 925 2853 
Q 1081 3097 1340 3245 
Q 1600 3394 1931 3394 
Q 2300 3394 2536 3241 
Q 2772 3088 2869 2813 
Q 3263 3394 3894 3394 
Q 4388 3394 4653 3120 
Q 4919 2847 4919 2278 
L 4919 0 
L 4359 0 
L 4359 2091 
Q 4359 2428 4304 2576 
Q 4250 2725 4106 2815 
Q 3963 2906 3769 2906 
Q 3419 2906 3187 2673 
Q 2956 2441 2956 1928 
L 2956 0 
L 2394 0 
L 2394 2156 
Q 2394 2531 2256 2718 
Q 2119 2906 1806 2906 
Q 1569 2906 1367 2781 
Q 1166 2656 1075 2415 
Q 984 2175 984 1722 
L 984 0 
L 422 0 
z
" transform="scale(0.015625)"/>
      <path id="ArialMT-20" transform="scale(0.015625)"/>
     </defs>
     <use xlink:href="#ArialMT-50"/>
     <use xlink:href="#ArialMT-65" x="66.699219"/>
     <use xlink:href="#ArialMT-6e" x="122.314453"/>
     <use xlink:href="#ArialMT-74" x="177.929688"/>
     <use xlink:href="#ArialMT-69" x="205.712891"/>
     <use xlink:href="#ArialMT-75" x="227.929688"/>
     <use xlink:href="#ArialMT-6d" x="283.544922"/>
     <use xlink:href="#ArialMT-20" x="366.845703"/>
     <use xlink:href="#ArialMT-34" x="394.628906"/>
    </g>
   </g>
   <g id="text_21">
    <!-- GTX 580 -->
    <g style="fill: #4a4a4a" transform="translate(240.522056 216.866372) scale(0.09 -0.09)">
     <defs>
      <path id="ArialMT-47" d="M 2638 1797 
L 2638 2334 
L 4578 2338 
L 4578 638 
Q 4131 281 3656 101 
Q 3181 -78 2681 -78 
Q 2006 -78 1454 211 
Q 903 500 622 1047 
Q 341 1594 341 2269 
Q 341 2938 620 3517 
Q 900 4097 1425 4378 
Q 1950 4659 2634 4659 
Q 3131 4659 3532 4498 
Q 3934 4338 4162 4050 
Q 4391 3763 4509 3300 
L 3963 3150 
Q 3859 3500 3706 3700 
Q 3553 3900 3268 4020 
Q 2984 4141 2638 4141 
Q 2222 4141 1919 4014 
Q 1616 3888 1430 3681 
Q 1244 3475 1141 3228 
Q 966 2803 966 2306 
Q 966 1694 1177 1281 
Q 1388 869 1791 669 
Q 2194 469 2647 469 
Q 3041 469 3416 620 
Q 3791 772 3984 944 
L 3984 1797 
L 2638 1797 
z
" transform="scale(0.015625)"/>
      <path id="ArialMT-54" d="M 1659 0 
L 1659 4041 
L 150 4041 
L 150 4581 
L 3781 4581 
L 3781 4041 
L 2266 4041 
L 2266 0 
L 1659 0 
z
" transform="scale(0.015625)"/>
      <path id="ArialMT-58" d="M 28 0 
L 1800 2388 
L 238 4581 
L 959 4581 
L 1791 3406 
Q 2050 3041 2159 2844 
Q 2313 3094 2522 3366 
L 3444 4581 
L 4103 4581 
L 2494 2422 
L 4228 0 
L 3478 0 
L 2325 1634 
Q 2228 1775 2125 1941 
Q 1972 1691 1906 1597 
L 756 0 
L 28 0 
z
" transform="scale(0.015625)"/>
      <path id="ArialMT-38" d="M 1131 2484 
Q 781 2613 612 2850 
Q 444 3088 444 3419 
Q 444 3919 803 4259 
Q 1163 4600 1759 4600 
Q 2359 4600 2725 4251 
Q 3091 3903 3091 3403 
Q 3091 3084 2923 2848 
Q 2756 2613 2416 2484 
Q 2838 2347 3058 2040 
Q 3278 1734 3278 1309 
Q 3278 722 2862 322 
Q 2447 -78 1769 -78 
Q 1091 -78 675 323 
Q 259 725 259 1325 
Q 259 1772 486 2073 
Q 713 2375 1131 2484 
z
M 1019 3438 
Q 1019 3113 1228 2906 
Q 1438 2700 1772 2700 
Q 2097 2700 2305 2904 
Q 2513 3109 2513 3406 
Q 2513 3716 2298 3927 
Q 2084 4138 1766 4138 
Q 1444 4138 1231 3931 
Q 1019 3725 1019 3438 
z
M 838 1322 
Q 838 1081 952 856 
Q 1066 631 1291 507 
Q 1516 384 1775 384 
Q 2178 384 2440 643 
Q 2703 903 2703 1303 
Q 2703 1709 2433 1975 
Q 2163 2241 1756 2241 
Q 1359 2241 1098 1978 
Q 838 1716 838 1322 
z
" transform="scale(0.015625)"/>
     </defs>
     <use xlink:href="#ArialMT-47"/>
     <use xlink:href="#ArialMT-54" x="77.783203"/>
     <use xlink:href="#ArialMT-58" x="138.867188"/>
     <use xlink:href="#ArialMT-20" x="205.566406"/>
     <use xlink:href="#ArialMT-35" x="233.349609"/>
     <use xlink:href="#ArialMT-38" x="288.964844"/>
     <use xlink:href="#ArialMT-30" x="344.580078"/>
    </g>
   </g>
   <g id="text_22">
    <!-- K40 -->
    <g style="fill: #4a4a4a" transform="translate(397.223167 190.510591) scale(0.09 -0.09)">
     <defs>
      <path id="ArialMT-4b" d="M 469 0 
L 469 4581 
L 1075 4581 
L 1075 2309 
L 3350 4581 
L 4172 4581 
L 2250 2725 
L 4256 0 
L 3456 0 
L 1825 2319 
L 1075 1588 
L 1075 0 
L 469 0 
z
" transform="scale(0.015625)"/>
     </defs>
     <use xlink:href="#ArialMT-4b"/>
     <use xlink:href="#ArialMT-34" x="66.699219"/>
     <use xlink:href="#ArialMT-30" x="122.314453"/>
    </g>
   </g>
   <g id="text_23">
    <!-- KNL -->
    <g style="fill: #4a4a4a" transform="translate(469.825675 179.494372) scale(0.09 -0.09)">
     <defs>
      <path id="ArialMT-4e" d="M 488 0 
L 488 4581 
L 1109 4581 
L 3516 984 
L 3516 4581 
L 4097 4581 
L 4097 0 
L 3475 0 
L 1069 3600 
L 1069 0 
L 488 0 
z
" transform="scale(0.015625)"/>
      <path id="ArialMT-4c" d="M 469 0 
L 469 4581 
L 1075 4581 
L 1075 541 
L 3331 541 
L 3331 0 
L 469 0 
z
" transform="scale(0.015625)"/>
     </defs>
     <use xlink:href="#ArialMT-4b"/>
     <use xlink:href="#ArialMT-4e" x="66.699219"/>
     <use xlink:href="#ArialMT-4c" x="138.916016"/>
    </g>
   </g>
   <g id="text_24">
    <!-- TPUv3 -->
    <g style="fill: #4a4a4a" transform="translate(538.17709 94.664536) scale(0.09 -0.09)">
     <defs>
      <path id="ArialMT-55" d="M 3500 4581 
L 4106 4581 
L 4106 1934 
Q 4106 1244 3950 837 
Q 3794 431 3386 176 
Q 2978 -78 2316 -78 
Q 1672 -78 1262 144 
Q 853 366 678 786 
Q 503 1206 503 1934 
L 503 4581 
L 1109 4581 
L 1109 1938 
Q 1109 1341 1220 1058 
Q 1331 775 1601 622 
Q 1872 469 2263 469 
Q 2931 469 3215 772 
Q 3500 1075 3500 1938 
L 3500 4581 
z
" transform="scale(0.015625)"/>
      <path id="ArialMT-76" d="M 1344 0 
L 81 3319 
L 675 3319 
L 1388 1331 
Q 1503 1009 1600 663 
Q 1675 925 1809 1294 
L 2547 3319 
L 3125 3319 
L 1869 0 
L 1344 0 
z
" transform="scale(0.015625)"/>
     </defs>
     <use xlink:href="#ArialMT-54"/>
     <use xlink:href="#ArialMT-50" x="61.083984"/>
     <use xlink:href="#ArialMT-55" x="127.783203"/>
     <use xlink:href="#ArialMT-76" x="200"/>
     <use xlink:href="#ArialMT-33" x="250"/>
    </g>
   </g>
   <g id="text_25">
    <!-- A100 -->
    <g style="fill: #4a4a4a" transform="translate(614.770536 63.293731) scale(0.09 -0.09)">
     <defs>
      <path id="ArialMT-41" d="M -9 0 
L 1750 4581 
L 2403 4581 
L 4278 0 
L 3588 0 
L 3053 1388 
L 1138 1388 
L 634 0 
L -9 0 
z
M 1313 1881 
L 2866 1881 
L 2388 3150 
Q 2169 3728 2063 4100 
Q 1975 3659 1816 3225 
L 1313 1881 
z
" transform="scale(0.015625)"/>
     </defs>
     <use xlink:href="#ArialMT-41"/>
     <use xlink:href="#ArialMT-31" x="66.699219"/>
     <use xlink:href="#ArialMT-30" x="122.314453"/>
     <use xlink:href="#ArialMT-30" x="177.929688"/>
    </g>
   </g>
   <g id="text_26">
    <!-- H100 -->
    <g style="fill: #4a4a4a" transform="translate(687.872263 49.774755) scale(0.09 -0.09)">
     <defs>
      <path id="ArialMT-48" d="M 513 0 
L 513 4581 
L 1119 4581 
L 1119 2700 
L 3500 2700 
L 3500 4581 
L 4106 4581 
L 4106 0 
L 3500 0 
L 3500 2159 
L 1119 2159 
L 1119 0 
L 513 0 
z
" transform="scale(0.015625)"/>
     </defs>
     <use xlink:href="#ArialMT-48"/>
     <use xlink:href="#ArialMT-31" x="72.216797"/>
     <use xlink:href="#ArialMT-30" x="127.832031"/>
     <use xlink:href="#ArialMT-30" x="183.447266"/>
    </g>
   </g>
   <g id="text_27">
    <!-- Gaudi 2 -->
    <g style="fill: #4a4a4a" transform="translate(698.629372 84.776444) scale(0.09 -0.09)">
     <defs>
      <path id="ArialMT-61" d="M 2588 409 
Q 2275 144 1986 34 
Q 1697 -75 1366 -75 
Q 819 -75 525 192 
Q 231 459 231 875 
Q 231 1119 342 1320 
Q 453 1522 633 1644 
Q 813 1766 1038 1828 
Q 1203 1872 1538 1913 
Q 2219 1994 2541 2106 
Q 2544 2222 2544 2253 
Q 2544 2597 2384 2738 
Q 2169 2928 1744 2928 
Q 1347 2928 1158 2789 
Q 969 2650 878 2297 
L 328 2372 
Q 403 2725 575 2942 
Q 747 3159 1072 3276 
Q 1397 3394 1825 3394 
Q 2250 3394 2515 3294 
Q 2781 3194 2906 3042 
Q 3031 2891 3081 2659 
Q 3109 2516 3109 2141 
L 3109 1391 
Q 3109 606 3145 398 
Q 3181 191 3288 0 
L 2700 0 
Q 2613 175 2588 409 
z
M 2541 1666 
Q 2234 1541 1622 1453 
Q 1275 1403 1131 1340 
Q 988 1278 909 1158 
Q 831 1038 831 891 
Q 831 666 1001 516 
Q 1172 366 1500 366 
Q 1825 366 2078 508 
Q 2331 650 2450 897 
Q 2541 1088 2541 1459 
L 2541 1666 
z
" transform="scale(0.015625)"/>
      <path id="ArialMT-64" d="M 2575 0 
L 2575 419 
Q 2259 -75 1647 -75 
Q 1250 -75 917 144 
Q 584 363 401 755 
Q 219 1147 219 1656 
Q 219 2153 384 2558 
Q 550 2963 881 3178 
Q 1213 3394 1622 3394 
Q 1922 3394 2156 3267 
Q 2391 3141 2538 2938 
L 2538 4581 
L 3097 4581 
L 3097 0 
L 2575 0 
z
M 797 1656 
Q 797 1019 1065 703 
Q 1334 388 1700 388 
Q 2069 388 2326 689 
Q 2584 991 2584 1609 
Q 2584 2291 2321 2609 
Q 2059 2928 1675 2928 
Q 1300 2928 1048 2622 
Q 797 2316 797 1656 
z
" transform="scale(0.015625)"/>
     </defs>
     <use xlink:href="#ArialMT-47"/>
     <use xlink:href="#ArialMT-61" x="77.783203"/>
     <use xlink:href="#ArialMT-75" x="133.398438"/>
     <use xlink:href="#ArialMT-64" x="189.013672"/>
     <use xlink:href="#ArialMT-69" x="244.628906"/>
     <use xlink:href="#ArialMT-20" x="266.845703"/>
     <use xlink:href="#ArialMT-32" x="294.628906"/>
    </g>
   </g>
   <g id="text_28">
    <!-- B200 -->
    <g style="fill: #4a4a4a" transform="translate(761.470396 26.449517) scale(0.09 -0.09)">
     <defs>
      <path id="ArialMT-42" d="M 469 0 
L 469 4581 
L 2188 4581 
Q 2713 4581 3030 4442 
Q 3347 4303 3526 4014 
Q 3706 3725 3706 3409 
Q 3706 3116 3547 2856 
Q 3388 2597 3066 2438 
Q 3481 2316 3704 2022 
Q 3928 1728 3928 1328 
Q 3928 1006 3792 729 
Q 3656 453 3456 303 
Q 3256 153 2954 76 
Q 2653 0 2216 0 
L 469 0 
z
M 1075 2656 
L 2066 2656 
Q 2469 2656 2644 2709 
Q 2875 2778 2992 2937 
Q 3109 3097 3109 3338 
Q 3109 3566 3000 3739 
Q 2891 3913 2687 3977 
Q 2484 4041 1991 4041 
L 1075 4041 
L 1075 2656 
z
M 1075 541 
L 2216 541 
Q 2509 541 2628 563 
Q 2838 600 2978 687 
Q 3119 775 3209 942 
Q 3300 1109 3300 1328 
Q 3300 1584 3169 1773 
Q 3038 1963 2805 2039 
Q 2572 2116 2134 2116 
L 1075 2116 
L 1075 541 
z
" transform="scale(0.015625)"/>
     </defs>
     <use xlink:href="#ArialMT-42"/>
     <use xlink:href="#ArialMT-32" x="66.699219"/>
     <use xlink:href="#ArialMT-30" x="122.314453"/>
     <use xlink:href="#ArialMT-30" x="177.929688"/>
    </g>
   </g>
   <g id="text_29">
    <!-- GDDR4 -->
    <g style="fill: #2e8b57" transform="translate(132.752786 450.188527) scale(0.09 -0.09)">
     <defs>
      <path id="ArialMT-44" d="M 494 0 
L 494 4581 
L 2072 4581 
Q 2606 4581 2888 4516 
Q 3281 4425 3559 4188 
Q 3922 3881 4101 3404 
Q 4281 2928 4281 2316 
Q 4281 1794 4159 1391 
Q 4038 988 3847 723 
Q 3656 459 3429 307 
Q 3203 156 2883 78 
Q 2563 0 2147 0 
L 494 0 
z
M 1100 541 
L 2078 541 
Q 2531 541 2789 625 
Q 3047 709 3200 863 
Q 3416 1078 3536 1442 
Q 3656 1806 3656 2325 
Q 3656 3044 3420 3430 
Q 3184 3816 2847 3947 
Q 2603 4041 2063 4041 
L 1100 4041 
L 1100 541 
z
" transform="scale(0.015625)"/>
      <path id="ArialMT-52" d="M 503 0 
L 503 4581 
L 2534 4581 
Q 3147 4581 3465 4457 
Q 3784 4334 3975 4021 
Q 4166 3709 4166 3331 
Q 4166 2844 3850 2509 
Q 3534 2175 2875 2084 
Q 3116 1969 3241 1856 
Q 3506 1613 3744 1247 
L 4541 0 
L 3778 0 
L 3172 953 
Q 2906 1366 2734 1584 
Q 2563 1803 2427 1890 
Q 2291 1978 2150 2013 
Q 2047 2034 1813 2034 
L 1109 2034 
L 1109 0 
L 503 0 
z
M 1109 2559 
L 2413 2559 
Q 2828 2559 3062 2645 
Q 3297 2731 3419 2920 
Q 3541 3109 3541 3331 
Q 3541 3656 3305 3865 
Q 3069 4075 2559 4075 
L 1109 4075 
L 1109 2559 
z
" transform="scale(0.015625)"/>
     </defs>
     <use xlink:href="#ArialMT-47"/>
     <use xlink:href="#ArialMT-44" x="77.783203"/>
     <use xlink:href="#ArialMT-44" x="150"/>
     <use xlink:href="#ArialMT-52" x="222.216797"/>
     <use xlink:href="#ArialMT-34" x="294.433594"/>
    </g>
   </g>
   <g id="text_30">
    <!-- GDDR5 -->
    <g style="fill: #2e8b57" transform="translate(242.777681 400.864825) scale(0.09 -0.09)">
     <use xlink:href="#ArialMT-47"/>
     <use xlink:href="#ArialMT-44" x="77.783203"/>
     <use xlink:href="#ArialMT-44" x="150"/>
     <use xlink:href="#ArialMT-52" x="222.216797"/>
     <use xlink:href="#ArialMT-35" x="294.433594"/>
    </g>
   </g>
   <g id="text_31">
    <!-- HBM -->
    <g style="fill: #2e8b57" transform="translate(431.904773 369.264827) scale(0.09 -0.09)">
     <defs>
      <path id="ArialMT-4d" d="M 475 0 
L 475 4581 
L 1388 4581 
L 2472 1338 
Q 2622 884 2691 659 
Q 2769 909 2934 1394 
L 4031 4581 
L 4847 4581 
L 4847 0 
L 4263 0 
L 4263 3834 
L 2931 0 
L 2384 0 
L 1059 3900 
L 1059 0 
L 475 0 
z
" transform="scale(0.015625)"/>
     </defs>
     <use xlink:href="#ArialMT-48"/>
     <use xlink:href="#ArialMT-42" x="72.216797"/>
     <use xlink:href="#ArialMT-4d" x="138.916016"/>
    </g>
   </g>
   <g id="text_32">
    <!-- HBM 2 -->
    <g style="fill: #2e8b57" transform="translate(538.17709 344.893527) scale(0.09 -0.09)">
     <use xlink:href="#ArialMT-48"/>
     <use xlink:href="#ArialMT-42" x="72.216797"/>
     <use xlink:href="#ArialMT-4d" x="138.916016"/>
     <use xlink:href="#ArialMT-20" x="222.216797"/>
     <use xlink:href="#ArialMT-32" x="250"/>
    </g>
   </g>
   <g id="text_33">
    <!-- HBM 3 -->
    <g style="fill: #2e8b57" transform="translate(648.201985 329.39007) scale(0.09 -0.09)">
     <use xlink:href="#ArialMT-48"/>
     <use xlink:href="#ArialMT-42" x="72.216797"/>
     <use xlink:href="#ArialMT-4d" x="138.916016"/>
     <use xlink:href="#ArialMT-20" x="222.216797"/>
     <use xlink:href="#ArialMT-33" x="250"/>
    </g>
   </g>
   <g id="text_34">
    <!-- HBM3E -->
    <g style="fill: #2e8b57" transform="translate(756.475396 308.278505) scale(0.09 -0.09)">
     <defs>
      <path id="ArialMT-45" d="M 506 0 
L 506 4581 
L 3819 4581 
L 3819 4041 
L 1113 4041 
L 1113 2638 
L 3647 2638 
L 3647 2100 
L 1113 2100 
L 1113 541 
L 3925 541 
L 3925 0 
L 506 0 
z
" transform="scale(0.015625)"/>
     </defs>
     <use xlink:href="#ArialMT-48"/>
     <use xlink:href="#ArialMT-42" x="72.216797"/>
     <use xlink:href="#ArialMT-4d" x="138.916016"/>
     <use xlink:href="#ArialMT-33" x="222.216797"/>
     <use xlink:href="#ArialMT-45" x="277.832031"/>
    </g>
   </g>
   <g id="text_35">
    <!-- PCIe 2.0 -->
    <g style="fill: #9370db" transform="translate(130.995677 461.851146) scale(0.09 -0.09)">
     <defs>
      <path id="ArialMT-43" d="M 3763 1606 
L 4369 1453 
Q 4178 706 3683 314 
Q 3188 -78 2472 -78 
Q 1731 -78 1267 223 
Q 803 525 561 1097 
Q 319 1669 319 2325 
Q 319 3041 592 3573 
Q 866 4106 1370 4382 
Q 1875 4659 2481 4659 
Q 3169 4659 3637 4309 
Q 4106 3959 4291 3325 
L 3694 3184 
Q 3534 3684 3231 3912 
Q 2928 4141 2469 4141 
Q 1941 4141 1586 3887 
Q 1231 3634 1087 3207 
Q 944 2781 944 2328 
Q 944 1744 1114 1308 
Q 1284 872 1643 656 
Q 2003 441 2422 441 
Q 2931 441 3284 734 
Q 3638 1028 3763 1606 
z
" transform="scale(0.015625)"/>
      <path id="ArialMT-49" d="M 597 0 
L 597 4581 
L 1203 4581 
L 1203 0 
L 597 0 
z
" transform="scale(0.015625)"/>
     </defs>
     <use xlink:href="#ArialMT-50"/>
     <use xlink:href="#ArialMT-43" x="66.699219"/>
     <use xlink:href="#ArialMT-49" x="138.916016"/>
     <use xlink:href="#ArialMT-65" x="166.699219"/>
     <use xlink:href="#ArialMT-20" x="222.314453"/>
     <use xlink:href="#ArialMT-32" x="250.097656"/>
     <use xlink:href="#ArialMT-2e" x="305.712891"/>
     <use xlink:href="#ArialMT-30" x="333.496094"/>
    </g>
   </g>
   <g id="text_36">
    <!-- PCIe 3.0 -->
    <g style="fill: #9370db" transform="translate(277.695537 447.157984) scale(0.09 -0.09)">
     <use xlink:href="#ArialMT-50"/>
     <use xlink:href="#ArialMT-43" x="66.699219"/>
     <use xlink:href="#ArialMT-49" x="138.916016"/>
     <use xlink:href="#ArialMT-65" x="166.699219"/>
     <use xlink:href="#ArialMT-20" x="222.314453"/>
     <use xlink:href="#ArialMT-33" x="250.097656"/>
     <use xlink:href="#ArialMT-2e" x="305.712891"/>
     <use xlink:href="#ArialMT-30" x="333.496094"/>
    </g>
   </g>
   <g id="text_37">
    <!-- NVLink 1.0 -->
    <g style="fill: #9370db" transform="translate(456.568253 435.495365) scale(0.09 -0.09)">
     <defs>
      <path id="ArialMT-56" d="M 1803 0 
L 28 4581 
L 684 4581 
L 1875 1253 
Q 2019 853 2116 503 
Q 2222 878 2363 1253 
L 3600 4581 
L 4219 4581 
L 2425 0 
L 1803 0 
z
" transform="scale(0.015625)"/>
      <path id="ArialMT-6b" d="M 425 0 
L 425 4581 
L 988 4581 
L 988 1969 
L 2319 3319 
L 3047 3319 
L 1778 2088 
L 3175 0 
L 2481 0 
L 1384 1697 
L 988 1316 
L 988 0 
L 425 0 
z
" transform="scale(0.015625)"/>
     </defs>
     <use xlink:href="#ArialMT-4e"/>
     <use xlink:href="#ArialMT-56" x="72.216797"/>
     <use xlink:href="#ArialMT-4c" x="138.916016"/>
     <use xlink:href="#ArialMT-69" x="194.53125"/>
     <use xlink:href="#ArialMT-6e" x="216.748047"/>
     <use xlink:href="#ArialMT-6b" x="272.363281"/>
     <use xlink:href="#ArialMT-20" x="322.363281"/>
     <use xlink:href="#ArialMT-31" x="350.146484"/>
     <use xlink:href="#ArialMT-2e" x="405.761719"/>
     <use xlink:href="#ArialMT-30" x="433.544922"/>
    </g>
   </g>
   <g id="text_38">
    <!-- PCIe 5.0 -->
    <g style="fill: #9370db" transform="translate(571.095258 407.283227) scale(0.09 -0.09)">
     <use xlink:href="#ArialMT-50"/>
     <use xlink:href="#ArialMT-43" x="66.699219"/>
     <use xlink:href="#ArialMT-49" x="138.916016"/>
     <use xlink:href="#ArialMT-65" x="166.699219"/>
     <use xlink:href="#ArialMT-20" x="222.314453"/>
     <use xlink:href="#ArialMT-35" x="250.097656"/>
     <use xlink:href="#ArialMT-2e" x="305.712891"/>
     <use xlink:href="#ArialMT-30" x="333.496094"/>
    </g>
   </g>
   <g id="text_39">
    <!-- NVLink 4.0 -->
    <g style="fill: #9370db" transform="translate(749.967974 354.571665) scale(0.09 -0.09)">
     <use xlink:href="#ArialMT-4e"/>
     <use xlink:href="#ArialMT-56" x="72.216797"/>
     <use xlink:href="#ArialMT-4c" x="138.916016"/>
     <use xlink:href="#ArialMT-69" x="194.53125"/>
     <use xlink:href="#ArialMT-6e" x="216.748047"/>
     <use xlink:href="#ArialMT-6b" x="272.363281"/>
     <use xlink:href="#ArialMT-20" x="322.363281"/>
     <use xlink:href="#ArialMT-34" x="350.146484"/>
     <use xlink:href="#ArialMT-2e" x="405.761719"/>
     <use xlink:href="#ArialMT-30" x="433.544922"/>
    </g>
   </g>
   <g id="text_40">
    <!-- HW FLOPS: -->
    <g style="fill: #4a4a4a" transform="translate(54.616985 33.327747) scale(0.12 -0.12)">
     <defs>
      <path id="Arial-BoldMT-48" d="M 469 0 
L 469 4581 
L 1394 4581 
L 1394 2778 
L 3206 2778 
L 3206 4581 
L 4131 4581 
L 4131 0 
L 3206 0 
L 3206 2003 
L 1394 2003 
L 1394 0 
L 469 0 
z
" transform="scale(0.015625)"/>
      <path id="Arial-BoldMT-57" d="M 1116 0 
L 22 4581 
L 969 4581 
L 1659 1434 
L 2497 4581 
L 3597 4581 
L 4400 1381 
L 5103 4581 
L 6034 4581 
L 4922 0 
L 3941 0 
L 3028 3425 
L 2119 0 
L 1116 0 
z
" transform="scale(0.015625)"/>
      <path id="Arial-BoldMT-20" transform="scale(0.015625)"/>
      <path id="Arial-BoldMT-46" d="M 472 0 
L 472 4581 
L 3613 4581 
L 3613 3806 
L 1397 3806 
L 1397 2722 
L 3309 2722 
L 3309 1947 
L 1397 1947 
L 1397 0 
L 472 0 
z
" transform="scale(0.015625)"/>
      <path id="Arial-BoldMT-4c" d="M 491 0 
L 491 4544 
L 1416 4544 
L 1416 772 
L 3716 772 
L 3716 0 
L 491 0 
z
" transform="scale(0.015625)"/>
      <path id="Arial-BoldMT-4f" d="M 278 2263 
Q 278 2963 488 3438 
Q 644 3788 914 4066 
Q 1184 4344 1506 4478 
Q 1934 4659 2494 4659 
Q 3506 4659 4114 4031 
Q 4722 3403 4722 2284 
Q 4722 1175 4119 548 
Q 3516 -78 2506 -78 
Q 1484 -78 881 545 
Q 278 1169 278 2263 
z
M 1231 2294 
Q 1231 1516 1590 1114 
Q 1950 713 2503 713 
Q 3056 713 3411 1111 
Q 3766 1509 3766 2306 
Q 3766 3094 3420 3481 
Q 3075 3869 2503 3869 
Q 1931 3869 1581 3476 
Q 1231 3084 1231 2294 
z
" transform="scale(0.015625)"/>
      <path id="Arial-BoldMT-50" d="M 466 0 
L 466 4581 
L 1950 4581 
Q 2794 4581 3050 4513 
Q 3444 4409 3709 4064 
Q 3975 3719 3975 3172 
Q 3975 2750 3822 2462 
Q 3669 2175 3433 2011 
Q 3197 1847 2953 1794 
Q 2622 1728 1994 1728 
L 1391 1728 
L 1391 0 
L 466 0 
z
M 1391 3806 
L 1391 2506 
L 1897 2506 
Q 2444 2506 2628 2578 
Q 2813 2650 2917 2803 
Q 3022 2956 3022 3159 
Q 3022 3409 2875 3571 
Q 2728 3734 2503 3775 
Q 2338 3806 1838 3806 
L 1391 3806 
z
" transform="scale(0.015625)"/>
      <path id="Arial-BoldMT-53" d="M 231 1491 
L 1131 1578 
Q 1213 1125 1461 912 
Q 1709 700 2131 700 
Q 2578 700 2804 889 
Q 3031 1078 3031 1331 
Q 3031 1494 2936 1608 
Q 2841 1722 2603 1806 
Q 2441 1863 1863 2006 
Q 1119 2191 819 2459 
Q 397 2838 397 3381 
Q 397 3731 595 4036 
Q 794 4341 1167 4500 
Q 1541 4659 2069 4659 
Q 2931 4659 3367 4281 
Q 3803 3903 3825 3272 
L 2900 3231 
Q 2841 3584 2645 3739 
Q 2450 3894 2059 3894 
Q 1656 3894 1428 3728 
Q 1281 3622 1281 3444 
Q 1281 3281 1419 3166 
Q 1594 3019 2269 2859 
Q 2944 2700 3267 2529 
Q 3591 2359 3773 2064 
Q 3956 1769 3956 1334 
Q 3956 941 3737 597 
Q 3519 253 3119 86 
Q 2719 -81 2122 -81 
Q 1253 -81 787 320 
Q 322 722 231 1491 
z
" transform="scale(0.015625)"/>
      <path id="Arial-BoldMT-3a" d="M 628 2441 
L 628 3319 
L 1506 3319 
L 1506 2441 
L 628 2441 
z
M 628 0 
L 628 878 
L 1506 878 
L 1506 0 
L 628 0 
z
" transform="scale(0.015625)"/>
     </defs>
     <use xlink:href="#Arial-BoldMT-48"/>
     <use xlink:href="#Arial-BoldMT-57" x="72.216797"/>
     <use xlink:href="#Arial-BoldMT-20" x="166.601562"/>
     <use xlink:href="#Arial-BoldMT-46" x="194.384766"/>
     <use xlink:href="#Arial-BoldMT-4c" x="255.46875"/>
     <use xlink:href="#Arial-BoldMT-4f" x="316.552734"/>
     <use xlink:href="#Arial-BoldMT-50" x="394.335938"/>
     <use xlink:href="#Arial-BoldMT-53" x="461.035156"/>
     <use xlink:href="#Arial-BoldMT-3a" x="527.734375"/>
    </g>
   </g>
   <g id="text_41">
    <!-- 69450x / 20 yrs (3.0x/2yrs) -->
    <g style="fill: #4a4a4a" transform="translate(183.712862 33.473997) scale(0.12 -0.12)">
     <defs>
      <path id="ArialMT-39" d="M 350 1059 
L 891 1109 
Q 959 728 1153 556 
Q 1347 384 1650 384 
Q 1909 384 2104 503 
Q 2300 622 2425 820 
Q 2550 1019 2634 1356 
Q 2719 1694 2719 2044 
Q 2719 2081 2716 2156 
Q 2547 1888 2255 1720 
Q 1963 1553 1622 1553 
Q 1053 1553 659 1965 
Q 266 2378 266 3053 
Q 266 3750 677 4175 
Q 1088 4600 1706 4600 
Q 2153 4600 2523 4359 
Q 2894 4119 3086 3673 
Q 3278 3228 3278 2384 
Q 3278 1506 3087 986 
Q 2897 466 2520 194 
Q 2144 -78 1638 -78 
Q 1100 -78 759 220 
Q 419 519 350 1059 
z
M 2653 3081 
Q 2653 3566 2395 3850 
Q 2138 4134 1775 4134 
Q 1400 4134 1122 3828 
Q 844 3522 844 3034 
Q 844 2597 1108 2323 
Q 1372 2050 1759 2050 
Q 2150 2050 2401 2323 
Q 2653 2597 2653 3081 
z
" transform="scale(0.015625)"/>
      <path id="ArialMT-78" d="M 47 0 
L 1259 1725 
L 138 3319 
L 841 3319 
L 1350 2541 
Q 1494 2319 1581 2169 
Q 1719 2375 1834 2534 
L 2394 3319 
L 3066 3319 
L 1919 1756 
L 3153 0 
L 2463 0 
L 1781 1031 
L 1600 1309 
L 728 0 
L 47 0 
z
" transform="scale(0.015625)"/>
      <path id="ArialMT-2f" d="M 0 -78 
L 1328 4659 
L 1778 4659 
L 453 -78 
L 0 -78 
z
" transform="scale(0.015625)"/>
      <path id="ArialMT-79" d="M 397 -1278 
L 334 -750 
Q 519 -800 656 -800 
Q 844 -800 956 -737 
Q 1069 -675 1141 -563 
Q 1194 -478 1313 -144 
Q 1328 -97 1363 -6 
L 103 3319 
L 709 3319 
L 1400 1397 
Q 1534 1031 1641 628 
Q 1738 1016 1872 1384 
L 2581 3319 
L 3144 3319 
L 1881 -56 
Q 1678 -603 1566 -809 
Q 1416 -1088 1222 -1217 
Q 1028 -1347 759 -1347 
Q 597 -1347 397 -1278 
z
" transform="scale(0.015625)"/>
      <path id="ArialMT-72" d="M 416 0 
L 416 3319 
L 922 3319 
L 922 2816 
Q 1116 3169 1280 3281 
Q 1444 3394 1641 3394 
Q 1925 3394 2219 3213 
L 2025 2691 
Q 1819 2813 1613 2813 
Q 1428 2813 1281 2702 
Q 1134 2591 1072 2394 
Q 978 2094 978 1738 
L 978 0 
L 416 0 
z
" transform="scale(0.015625)"/>
      <path id="ArialMT-73" d="M 197 991 
L 753 1078 
Q 800 744 1014 566 
Q 1228 388 1613 388 
Q 2000 388 2187 545 
Q 2375 703 2375 916 
Q 2375 1106 2209 1216 
Q 2094 1291 1634 1406 
Q 1016 1563 777 1677 
Q 538 1791 414 1992 
Q 291 2194 291 2438 
Q 291 2659 392 2848 
Q 494 3038 669 3163 
Q 800 3259 1026 3326 
Q 1253 3394 1513 3394 
Q 1903 3394 2198 3281 
Q 2494 3169 2634 2976 
Q 2775 2784 2828 2463 
L 2278 2388 
Q 2241 2644 2061 2787 
Q 1881 2931 1553 2931 
Q 1166 2931 1000 2803 
Q 834 2675 834 2503 
Q 834 2394 903 2306 
Q 972 2216 1119 2156 
Q 1203 2125 1616 2013 
Q 2213 1853 2448 1751 
Q 2684 1650 2818 1456 
Q 2953 1263 2953 975 
Q 2953 694 2789 445 
Q 2625 197 2315 61 
Q 2006 -75 1616 -75 
Q 969 -75 630 194 
Q 291 463 197 991 
z
" transform="scale(0.015625)"/>
      <path id="ArialMT-28" d="M 1497 -1347 
Q 1031 -759 709 28 
Q 388 816 388 1659 
Q 388 2403 628 3084 
Q 909 3875 1497 4659 
L 1900 4659 
Q 1522 4009 1400 3731 
Q 1209 3300 1100 2831 
Q 966 2247 966 1656 
Q 966 153 1900 -1347 
L 1497 -1347 
z
" transform="scale(0.015625)"/>
      <path id="ArialMT-29" d="M 791 -1347 
L 388 -1347 
Q 1322 153 1322 1656 
Q 1322 2244 1188 2822 
Q 1081 3291 891 3722 
Q 769 4003 388 4659 
L 791 4659 
Q 1378 3875 1659 3084 
Q 1900 2403 1900 1659 
Q 1900 816 1576 28 
Q 1253 -759 791 -1347 
z
" transform="scale(0.015625)"/>
     </defs>
     <use xlink:href="#ArialMT-36"/>
     <use xlink:href="#ArialMT-39" x="55.615234"/>
     <use xlink:href="#ArialMT-34" x="111.230469"/>
     <use xlink:href="#ArialMT-35" x="166.845703"/>
     <use xlink:href="#ArialMT-30" x="222.460938"/>
     <use xlink:href="#ArialMT-78" x="278.076172"/>
     <use xlink:href="#ArialMT-20" x="328.076172"/>
     <use xlink:href="#ArialMT-2f" x="355.859375"/>
     <use xlink:href="#ArialMT-20" x="383.642578"/>
     <use xlink:href="#ArialMT-32" x="411.425781"/>
     <use xlink:href="#ArialMT-30" x="467.041016"/>
     <use xlink:href="#ArialMT-20" x="522.65625"/>
     <use xlink:href="#ArialMT-79" x="550.439453"/>
     <use xlink:href="#ArialMT-72" x="600.439453"/>
     <use xlink:href="#ArialMT-73" x="633.740234"/>
     <use xlink:href="#ArialMT-20" x="683.740234"/>
     <use xlink:href="#ArialMT-28" x="711.523438"/>
     <use xlink:href="#ArialMT-33" x="744.824219"/>
     <use xlink:href="#ArialMT-2e" x="800.439453"/>
     <use xlink:href="#ArialMT-30" x="828.222656"/>
     <use xlink:href="#ArialMT-78" x="883.837891"/>
     <use xlink:href="#ArialMT-2f" x="933.837891"/>
     <use xlink:href="#ArialMT-32" x="961.621094"/>
     <use xlink:href="#ArialMT-79" x="1017.236328"/>
     <use xlink:href="#ArialMT-72" x="1067.236328"/>
     <use xlink:href="#ArialMT-73" x="1100.537109"/>
     <use xlink:href="#ArialMT-29" x="1150.537109"/>
    </g>
   </g>
   <g id="text_42">
    <!-- DRAM BW: -->
    <g style="fill: #2e8b57" transform="translate(54.616985 63.131489) scale(0.12 -0.12)">
     <defs>
      <path id="Arial-BoldMT-44" d="M 463 4581 
L 2153 4581 
Q 2725 4581 3025 4494 
Q 3428 4375 3715 4072 
Q 4003 3769 4153 3330 
Q 4303 2891 4303 2247 
Q 4303 1681 4163 1272 
Q 3991 772 3672 463 
Q 3431 228 3022 97 
Q 2716 0 2203 0 
L 463 0 
L 463 4581 
z
M 1388 3806 
L 1388 772 
L 2078 772 
Q 2466 772 2638 816 
Q 2863 872 3011 1006 
Q 3159 1141 3253 1448 
Q 3347 1756 3347 2288 
Q 3347 2819 3253 3103 
Q 3159 3388 2990 3547 
Q 2822 3706 2563 3763 
Q 2369 3806 1803 3806 
L 1388 3806 
z
" transform="scale(0.015625)"/>
      <path id="Arial-BoldMT-52" d="M 469 0 
L 469 4581 
L 2416 4581 
Q 3150 4581 3483 4457 
Q 3816 4334 4016 4018 
Q 4216 3703 4216 3297 
Q 4216 2781 3912 2445 
Q 3609 2109 3006 2022 
Q 3306 1847 3501 1637 
Q 3697 1428 4028 894 
L 4588 0 
L 3481 0 
L 2813 997 
Q 2456 1531 2325 1670 
Q 2194 1809 2047 1861 
Q 1900 1913 1581 1913 
L 1394 1913 
L 1394 0 
L 469 0 
z
M 1394 2644 
L 2078 2644 
Q 2744 2644 2909 2700 
Q 3075 2756 3169 2893 
Q 3263 3031 3263 3238 
Q 3263 3469 3139 3611 
Q 3016 3753 2791 3791 
Q 2678 3806 2116 3806 
L 1394 3806 
L 1394 2644 
z
" transform="scale(0.015625)"/>
      <path id="Arial-BoldMT-41" d="M 4597 0 
L 3591 0 
L 3191 1041 
L 1359 1041 
L 981 0 
L 0 0 
L 1784 4581 
L 2763 4581 
L 4597 0 
z
M 2894 1813 
L 2263 3513 
L 1644 1813 
L 2894 1813 
z
" transform="scale(0.015625)"/>
      <path id="Arial-BoldMT-4d" d="M 453 0 
L 453 4581 
L 1838 4581 
L 2669 1456 
L 3491 4581 
L 4878 4581 
L 4878 0 
L 4019 0 
L 4019 3606 
L 3109 0 
L 2219 0 
L 1313 3606 
L 1313 0 
L 453 0 
z
" transform="scale(0.015625)"/>
      <path id="Arial-BoldMT-42" d="M 469 4581 
L 2300 4581 
Q 2844 4581 3111 4536 
Q 3378 4491 3589 4347 
Q 3800 4203 3940 3964 
Q 4081 3725 4081 3428 
Q 4081 3106 3907 2837 
Q 3734 2569 3438 2434 
Q 3856 2313 4081 2019 
Q 4306 1725 4306 1328 
Q 4306 1016 4161 720 
Q 4016 425 3764 248 
Q 3513 72 3144 31 
Q 2913 6 2028 0 
L 469 0 
L 469 4581 
z
M 1394 3819 
L 1394 2759 
L 2000 2759 
Q 2541 2759 2672 2775 
Q 2909 2803 3045 2939 
Q 3181 3075 3181 3297 
Q 3181 3509 3064 3642 
Q 2947 3775 2716 3803 
Q 2578 3819 1925 3819 
L 1394 3819 
z
M 1394 1997 
L 1394 772 
L 2250 772 
Q 2750 772 2884 800 
Q 3091 838 3220 983 
Q 3350 1128 3350 1372 
Q 3350 1578 3250 1722 
Q 3150 1866 2961 1931 
Q 2772 1997 2141 1997 
L 1394 1997 
z
" transform="scale(0.015625)"/>
     </defs>
     <use xlink:href="#Arial-BoldMT-44"/>
     <use xlink:href="#Arial-BoldMT-52" x="72.216797"/>
     <use xlink:href="#Arial-BoldMT-41" x="144.433594"/>
     <use xlink:href="#Arial-BoldMT-4d" x="216.650391"/>
     <use xlink:href="#Arial-BoldMT-20" x="299.951172"/>
     <use xlink:href="#Arial-BoldMT-42" x="327.734375"/>
     <use xlink:href="#Arial-BoldMT-57" x="399.951172"/>
     <use xlink:href="#Arial-BoldMT-3a" x="492.585938"/>
    </g>
   </g>
   <g id="text_43">
    <!-- 235x / 20 yrs (1.7x/2yrs) -->
    <g style="fill: #2e8b57" transform="translate(183.712862 63.277739) scale(0.12 -0.12)">
     <use xlink:href="#ArialMT-32"/>
     <use xlink:href="#ArialMT-33" x="55.615234"/>
     <use xlink:href="#ArialMT-35" x="111.230469"/>
     <use xlink:href="#ArialMT-78" x="166.845703"/>
     <use xlink:href="#ArialMT-20" x="216.845703"/>
     <use xlink:href="#ArialMT-2f" x="244.628906"/>
     <use xlink:href="#ArialMT-20" x="272.412109"/>
     <use xlink:href="#ArialMT-32" x="300.195312"/>
     <use xlink:href="#ArialMT-30" x="355.810547"/>
     <use xlink:href="#ArialMT-20" x="411.425781"/>
     <use xlink:href="#ArialMT-79" x="439.208984"/>
     <use xlink:href="#ArialMT-72" x="489.208984"/>
     <use xlink:href="#ArialMT-73" x="522.509766"/>
     <use xlink:href="#ArialMT-20" x="572.509766"/>
     <use xlink:href="#ArialMT-28" x="600.292969"/>
     <use xlink:href="#ArialMT-31" x="633.59375"/>
     <use xlink:href="#ArialMT-2e" x="689.208984"/>
     <use xlink:href="#ArialMT-37" x="716.992188"/>
     <use xlink:href="#ArialMT-78" x="772.607422"/>
     <use xlink:href="#ArialMT-2f" x="822.607422"/>
     <use xlink:href="#ArialMT-32" x="850.390625"/>
     <use xlink:href="#ArialMT-79" x="906.005859"/>
     <use xlink:href="#ArialMT-72" x="956.005859"/>
     <use xlink:href="#ArialMT-73" x="989.306641"/>
     <use xlink:href="#ArialMT-29" x="1039.306641"/>
    </g>
   </g>
   <g id="text_44">
    <!-- Interconnect BW: -->
    <g style="fill: #9370db" transform="translate(54.616985 92.935231) scale(0.12 -0.12)">
     <defs>
      <path id="Arial-BoldMT-49" d="M 438 0 
L 438 4581 
L 1363 4581 
L 1363 0 
L 438 0 
z
" transform="scale(0.015625)"/>
      <path id="Arial-BoldMT-6e" d="M 3478 0 
L 2600 0 
L 2600 1694 
Q 2600 2231 2544 2389 
Q 2488 2547 2361 2634 
Q 2234 2722 2056 2722 
Q 1828 2722 1647 2597 
Q 1466 2472 1398 2265 
Q 1331 2059 1331 1503 
L 1331 0 
L 453 0 
L 453 3319 
L 1269 3319 
L 1269 2831 
Q 1703 3394 2363 3394 
Q 2653 3394 2893 3289 
Q 3134 3184 3257 3021 
Q 3381 2859 3429 2653 
Q 3478 2447 3478 2063 
L 3478 0 
z
" transform="scale(0.015625)"/>
      <path id="Arial-BoldMT-74" d="M 1981 3319 
L 1981 2619 
L 1381 2619 
L 1381 1281 
Q 1381 875 1398 808 
Q 1416 741 1477 697 
Q 1538 653 1625 653 
Q 1747 653 1978 738 
L 2053 56 
Q 1747 -75 1359 -75 
Q 1122 -75 931 4 
Q 741 84 652 211 
Q 563 338 528 553 
Q 500 706 500 1172 
L 500 2619 
L 97 2619 
L 97 3319 
L 500 3319 
L 500 3978 
L 1381 4491 
L 1381 3319 
L 1981 3319 
z
" transform="scale(0.015625)"/>
      <path id="Arial-BoldMT-65" d="M 2381 1056 
L 3256 909 
Q 3088 428 2723 176 
Q 2359 -75 1813 -75 
Q 947 -75 531 491 
Q 203 944 203 1634 
Q 203 2459 634 2926 
Q 1066 3394 1725 3394 
Q 2466 3394 2894 2905 
Q 3322 2416 3303 1406 
L 1103 1406 
Q 1113 1016 1316 798 
Q 1519 581 1822 581 
Q 2028 581 2168 693 
Q 2309 806 2381 1056 
z
M 2431 1944 
Q 2422 2325 2234 2523 
Q 2047 2722 1778 2722 
Q 1491 2722 1303 2513 
Q 1116 2303 1119 1944 
L 2431 1944 
z
" transform="scale(0.015625)"/>
      <path id="Arial-BoldMT-72" d="M 1300 0 
L 422 0 
L 422 3319 
L 1238 3319 
L 1238 2847 
Q 1447 3181 1614 3287 
Q 1781 3394 1994 3394 
Q 2294 3394 2572 3228 
L 2300 2463 
Q 2078 2606 1888 2606 
Q 1703 2606 1575 2504 
Q 1447 2403 1373 2137 
Q 1300 1872 1300 1025 
L 1300 0 
z
" transform="scale(0.015625)"/>
      <path id="Arial-BoldMT-63" d="M 3353 2338 
L 2488 2181 
Q 2444 2441 2289 2572 
Q 2134 2703 1888 2703 
Q 1559 2703 1364 2476 
Q 1169 2250 1169 1719 
Q 1169 1128 1367 884 
Q 1566 641 1900 641 
Q 2150 641 2309 783 
Q 2469 925 2534 1272 
L 3397 1125 
Q 3263 531 2881 228 
Q 2500 -75 1859 -75 
Q 1131 -75 698 384 
Q 266 844 266 1656 
Q 266 2478 700 2936 
Q 1134 3394 1875 3394 
Q 2481 3394 2839 3133 
Q 3197 2872 3353 2338 
z
" transform="scale(0.015625)"/>
      <path id="Arial-BoldMT-6f" d="M 256 1706 
Q 256 2144 472 2553 
Q 688 2963 1083 3178 
Q 1478 3394 1966 3394 
Q 2719 3394 3200 2905 
Q 3681 2416 3681 1669 
Q 3681 916 3195 420 
Q 2709 -75 1972 -75 
Q 1516 -75 1102 131 
Q 688 338 472 736 
Q 256 1134 256 1706 
z
M 1156 1659 
Q 1156 1166 1390 903 
Q 1625 641 1969 641 
Q 2313 641 2545 903 
Q 2778 1166 2778 1666 
Q 2778 2153 2545 2415 
Q 2313 2678 1969 2678 
Q 1625 2678 1390 2415 
Q 1156 2153 1156 1659 
z
" transform="scale(0.015625)"/>
     </defs>
     <use xlink:href="#Arial-BoldMT-49"/>
     <use xlink:href="#Arial-BoldMT-6e" x="27.783203"/>
     <use xlink:href="#Arial-BoldMT-74" x="88.867188"/>
     <use xlink:href="#Arial-BoldMT-65" x="122.167969"/>
     <use xlink:href="#Arial-BoldMT-72" x="177.783203"/>
     <use xlink:href="#Arial-BoldMT-63" x="216.699219"/>
     <use xlink:href="#Arial-BoldMT-6f" x="272.314453"/>
     <use xlink:href="#Arial-BoldMT-6e" x="333.398438"/>
     <use xlink:href="#Arial-BoldMT-6e" x="394.482422"/>
     <use xlink:href="#Arial-BoldMT-65" x="455.566406"/>
     <use xlink:href="#Arial-BoldMT-63" x="511.181641"/>
     <use xlink:href="#Arial-BoldMT-74" x="566.796875"/>
     <use xlink:href="#Arial-BoldMT-20" x="600.097656"/>
     <use xlink:href="#Arial-BoldMT-42" x="627.880859"/>
     <use xlink:href="#Arial-BoldMT-57" x="700.097656"/>
     <use xlink:href="#Arial-BoldMT-3a" x="792.732422"/>
    </g>
   </g>
   <g id="text_45">
    <!-- 67x / 20 yrs (1.5x/2yrs) -->
    <g style="fill: #9370db" transform="translate(183.712862 93.081481) scale(0.12 -0.12)">
     <use xlink:href="#ArialMT-36"/>
     <use xlink:href="#ArialMT-37" x="55.615234"/>
     <use xlink:href="#ArialMT-78" x="111.230469"/>
     <use xlink:href="#ArialMT-20" x="161.230469"/>
     <use xlink:href="#ArialMT-2f" x="189.013672"/>
     <use xlink:href="#ArialMT-20" x="216.796875"/>
     <use xlink:href="#ArialMT-32" x="244.580078"/>
     <use xlink:href="#ArialMT-30" x="300.195312"/>
     <use xlink:href="#ArialMT-20" x="355.810547"/>
     <use xlink:href="#ArialMT-79" x="383.59375"/>
     <use xlink:href="#ArialMT-72" x="433.59375"/>
     <use xlink:href="#ArialMT-73" x="466.894531"/>
     <use xlink:href="#ArialMT-20" x="516.894531"/>
     <use xlink:href="#ArialMT-28" x="544.677734"/>
     <use xlink:href="#ArialMT-31" x="577.978516"/>
     <use xlink:href="#ArialMT-2e" x="633.59375"/>
     <use xlink:href="#ArialMT-35" x="661.376953"/>
     <use xlink:href="#ArialMT-78" x="716.992188"/>
     <use xlink:href="#ArialMT-2f" x="766.992188"/>
     <use xlink:href="#ArialMT-32" x="794.775391"/>
     <use xlink:href="#ArialMT-79" x="850.390625"/>
     <use xlink:href="#ArialMT-72" x="900.390625"/>
     <use xlink:href="#ArialMT-73" x="933.691406"/>
     <use xlink:href="#ArialMT-29" x="983.691406"/>
    </g>
   </g>
   <g id="PathCollection_1">
    <defs>
     <path id="m226df506bb" d="M 0 4.472136 
C 1.186024 4.472136 2.323632 4.000923 3.162278 3.162278 
C 4.000923 2.323632 4.472136 1.186024 4.472136 0 
C 4.472136 -1.186024 4.000923 -2.323632 3.162278 -3.162278 
C 2.323632 -4.000923 1.186024 -4.472136 0 -4.472136 
C -1.186024 -4.472136 -2.323632 -4.000923 -3.162278 -3.162278 
C -4.000923 -2.323632 -4.472136 -1.186024 -4.472136 0 
C -4.472136 1.186024 -4.000923 2.323632 -3.162278 3.162278 
C -2.323632 4.000923 -1.186024 4.472136 0 4.472136 
z
" style="stroke: #4a4a4a"/>
    </defs>
    <g clip-path="url(#pc20d8162a3)">
     <use xlink:href="#m226df506bb" x="75.154965" y="347.000109" style="fill: #4a4a4a; stroke: #4a4a4a"/>
     <use xlink:href="#m226df506bb" x="258.529791" y="226.201652" style="fill: #4a4a4a; stroke: #4a4a4a"/>
     <use xlink:href="#m226df506bb" x="405.229651" y="199.845871" style="fill: #4a4a4a; stroke: #4a4a4a"/>
     <use xlink:href="#m226df506bb" x="478.579582" y="188.829651" style="fill: #4a4a4a; stroke: #4a4a4a"/>
     <use xlink:href="#m226df506bb" x="551.929512" y="103.999815" style="fill: #4a4a4a; stroke: #4a4a4a"/>
     <use xlink:href="#m226df506bb" x="625.279442" y="72.629011" style="fill: #4a4a4a; stroke: #4a4a4a"/>
     <use xlink:href="#m226df506bb" x="698.629372" y="59.110035" style="fill: #4a4a4a; stroke: #4a4a4a"/>
     <use xlink:href="#m226df506bb" x="698.629372" y="76.305953" style="fill: #4a4a4a; stroke: #4a4a4a"/>
     <use xlink:href="#m226df506bb" x="771.979303" y="35.784797" style="fill: #4a4a4a; stroke: #4a4a4a"/>
    </g>
   </g>
   <g id="PathCollection_2">
    <defs>
     <path id="mbdb155bba4" d="M 0 4.472136 
C 1.186024 4.472136 2.323632 4.000923 3.162278 3.162278 
C 4.000923 2.323632 4.472136 1.186024 4.472136 0 
C 4.472136 -1.186024 4.000923 -2.323632 3.162278 -3.162278 
C 2.323632 -4.000923 1.186024 -4.472136 0 -4.472136 
C -1.186024 -4.472136 -2.323632 -4.000923 -3.162278 -3.162278 
C -4.000923 -2.323632 -4.472136 -1.186024 -4.472136 0 
C -4.472136 1.186024 -4.000923 2.323632 -3.162278 3.162278 
C -2.323632 4.000923 -1.186024 4.472136 0 4.472136 
z
" style="stroke: #2e8b57"/>
    </defs>
    <g clip-path="url(#pc20d8162a3)">
     <use xlink:href="#mbdb155bba4" x="148.504895" y="459.523807" style="fill: #2e8b57; stroke: #2e8b57"/>
     <use xlink:href="#mbdb155bba4" x="258.529791" y="410.200104" style="fill: #2e8b57; stroke: #2e8b57"/>
     <use xlink:href="#mbdb155bba4" x="441.904616" y="378.600107" style="fill: #2e8b57; stroke: #2e8b57"/>
     <use xlink:href="#mbdb155bba4" x="551.929512" y="354.228806" style="fill: #2e8b57; stroke: #2e8b57"/>
     <use xlink:href="#mbdb155bba4" x="661.954407" y="338.725349" style="fill: #2e8b57; stroke: #2e8b57"/>
     <use xlink:href="#mbdb155bba4" x="771.979303" y="317.613785" style="fill: #2e8b57; stroke: #2e8b57"/>
    </g>
   </g>
   <g id="PathCollection_3">
    <defs>
     <path id="m9d0f7a640b" d="M 0 4.472136 
C 1.186024 4.472136 2.323632 4.000923 3.162278 3.162278 
C 4.000923 2.323632 4.472136 1.186024 4.472136 0 
C 4.472136 -1.186024 4.000923 -2.323632 3.162278 -3.162278 
C 2.323632 -4.000923 1.186024 -4.472136 0 -4.472136 
C -1.186024 -4.472136 -2.323632 -4.000923 -3.162278 -3.162278 
C -4.000923 -2.323632 -4.472136 -1.186024 -4.472136 0 
C -4.472136 1.186024 -4.000923 2.323632 -3.162278 3.162278 
C -2.323632 4.000923 -1.186024 4.472136 0 4.472136 
z
" style="stroke: #9370db"/>
    </defs>
    <g clip-path="url(#pc20d8162a3)">
     <use xlink:href="#m9d0f7a640b" x="148.504895" y="471.186426" style="fill: #9370db; stroke: #9370db"/>
     <use xlink:href="#m9d0f7a640b" x="295.204756" y="456.493264" style="fill: #9370db; stroke: #9370db"/>
     <use xlink:href="#m9d0f7a640b" x="478.579582" y="444.830645" style="fill: #9370db; stroke: #9370db"/>
     <use xlink:href="#m9d0f7a640b" x="588.604477" y="416.618506" style="fill: #9370db; stroke: #9370db"/>
     <use xlink:href="#m9d0f7a640b" x="771.979303" y="363.906945" style="fill: #9370db; stroke: #9370db"/>
    </g>
   </g>
  </g>
  <g id="text_46">
   <!-- Zanichelli, Schons et al, State of Brain Emulation Report 2025 -->
   <g style="fill: #787470" transform="translate(657.830639 633.080469) scale(0.07 -0.07)">
    <defs>
     <path id="Arial-ItalicMT-5a" d="M 156 0 
L 216 459 
L 2509 3200 
L 2984 3775 
Q 3128 3950 3263 4097 
Q 2972 4063 2856 4063 
L 2706 4066 
L 2525 4063 
L 2347 4059 
L 806 4059 
L 916 4581 
L 4075 4581 
L 4022 4103 
L 1563 1181 
Q 1109 641 988 503 
Q 1125 522 1166 522 
L 3663 522 
L 3553 0 
L 156 0 
z
" transform="scale(0.015625)"/>
     <path id="Arial-ItalicMT-61" d="M 2450 413 
Q 2156 159 1884 42 
Q 1613 -75 1303 -75 
Q 844 -75 562 195 
Q 281 466 281 888 
Q 281 1166 407 1380 
Q 534 1594 743 1723 
Q 953 1853 1256 1909 
Q 1447 1947 1980 1969 
Q 2513 1991 2744 2081 
Q 2809 2313 2809 2466 
Q 2809 2663 2666 2775 
Q 2469 2931 2091 2931 
Q 1734 2931 1507 2773 
Q 1281 2616 1178 2325 
L 606 2375 
Q 781 2869 1161 3131 
Q 1541 3394 2119 3394 
Q 2734 3394 3094 3100 
Q 3369 2881 3369 2531 
Q 3369 2266 3291 1916 
L 3106 1091 
Q 3019 697 3019 450 
Q 3019 294 3088 0 
L 2516 0 
Q 2469 163 2450 413 
z
M 2659 1681 
Q 2541 1634 2405 1609 
Q 2269 1584 1950 1556 
Q 1456 1513 1253 1445 
Q 1050 1378 947 1231 
Q 844 1084 844 906 
Q 844 669 1008 516 
Q 1172 363 1475 363 
Q 1756 363 2015 511 
Q 2275 659 2425 925 
Q 2575 1191 2659 1681 
z
" transform="scale(0.015625)"/>
     <path id="Arial-ItalicMT-6e" d="M 213 0 
L 906 3319 
L 1419 3319 
L 1297 2741 
Q 1631 3081 1922 3237 
Q 2213 3394 2516 3394 
Q 2919 3394 3148 3175 
Q 3378 2956 3378 2591 
Q 3378 2406 3297 2009 
L 2875 0 
L 2309 0 
L 2750 2103 
Q 2816 2409 2816 2556 
Q 2816 2722 2702 2825 
Q 2588 2928 2372 2928 
Q 1938 2928 1598 2615 
Q 1259 2303 1100 1544 
L 778 0 
L 213 0 
z
" transform="scale(0.015625)"/>
     <path id="Arial-ItalicMT-69" d="M 1016 3941 
L 1150 4581 
L 1713 4581 
L 1578 3941 
L 1016 3941 
z
M 191 0 
L 884 3319 
L 1450 3319 
L 756 0 
L 191 0 
z
" transform="scale(0.015625)"/>
     <path id="Arial-ItalicMT-63" d="M 2503 1209 
L 3069 1150 
Q 2856 528 2464 226 
Q 2072 -75 1572 -75 
Q 1031 -75 695 275 
Q 359 625 359 1253 
Q 359 1797 575 2322 
Q 791 2847 1192 3120 
Q 1594 3394 2109 3394 
Q 2644 3394 2956 3092 
Q 3269 2791 3269 2294 
L 2713 2256 
Q 2709 2572 2529 2750 
Q 2350 2928 2056 2928 
Q 1716 2928 1466 2712 
Q 1216 2497 1073 2058 
Q 931 1619 931 1213 
Q 931 788 1118 575 
Q 1306 363 1581 363 
Q 1856 363 2107 572 
Q 2359 781 2503 1209 
z
" transform="scale(0.015625)"/>
     <path id="Arial-ItalicMT-68" d="M 213 0 
L 1169 4581 
L 1734 4581 
L 1369 2822 
Q 1684 3128 1956 3261 
Q 2228 3394 2516 3394 
Q 2928 3394 3156 3176 
Q 3384 2959 3384 2603 
Q 3384 2428 3284 1959 
L 2875 0 
L 2309 0 
L 2731 2009 
Q 2822 2447 2822 2559 
Q 2822 2722 2709 2825 
Q 2597 2928 2384 2928 
Q 2078 2928 1800 2767 
Q 1522 2606 1364 2326 
Q 1206 2047 1075 1425 
L 778 0 
L 213 0 
z
" transform="scale(0.015625)"/>
     <path id="Arial-ItalicMT-65" d="M 2650 1128 
L 3200 1072 
Q 3081 663 2654 294 
Q 2228 -75 1638 -75 
Q 1269 -75 961 95 
Q 653 266 492 591 
Q 331 916 331 1331 
Q 331 1875 582 2386 
Q 834 2897 1234 3145 
Q 1634 3394 2100 3394 
Q 2694 3394 3048 3025 
Q 3403 2656 3403 2019 
Q 3403 1775 3359 1519 
L 916 1519 
Q 903 1422 903 1344 
Q 903 878 1117 633 
Q 1331 388 1641 388 
Q 1931 388 2212 578 
Q 2494 769 2650 1128 
z
M 1006 1950 
L 2869 1950 
Q 2872 2038 2872 2075 
Q 2872 2500 2659 2726 
Q 2447 2953 2113 2953 
Q 1750 2953 1451 2703 
Q 1153 2453 1006 1950 
z
" transform="scale(0.015625)"/>
     <path id="Arial-ItalicMT-6c" d="M 169 0 
L 1125 4581 
L 1691 4581 
L 734 0 
L 169 0 
z
" transform="scale(0.015625)"/>
     <path id="Arial-ItalicMT-2c" d="M 347 0 
L 481 641 
L 1125 641 
L 1009 81 
Q 903 -422 679 -656 
Q 456 -891 153 -925 
L 206 -678 
Q 578 -575 697 0 
L 347 0 
z
" transform="scale(0.015625)"/>
     <path id="Arial-ItalicMT-20" transform="scale(0.015625)"/>
     <path id="Arial-ItalicMT-53" d="M 450 1481 
L 1050 1538 
L 1044 1378 
Q 1044 1113 1166 892 
Q 1288 672 1569 551 
Q 1850 431 2238 431 
Q 2788 431 3077 672 
Q 3366 913 3366 1222 
Q 3366 1438 3213 1616 
Q 3056 1791 2359 2091 
Q 1819 2325 1622 2450 
Q 1313 2653 1166 2892 
Q 1019 3131 1019 3438 
Q 1019 3791 1212 4075 
Q 1406 4359 1779 4509 
Q 2153 4659 2622 4659 
Q 3181 4659 3565 4471 
Q 3950 4284 4123 3971 
Q 4297 3659 4297 3375 
Q 4297 3347 4294 3281 
L 3703 3234 
Q 3703 3428 3669 3538 
Q 3606 3728 3475 3859 
Q 3344 3991 3114 4070 
Q 2884 4150 2600 4150 
Q 2100 4150 1822 3925 
Q 1609 3753 1609 3469 
Q 1609 3300 1696 3167 
Q 1784 3034 2013 2906 
Q 2175 2816 2784 2547 
Q 3278 2328 3466 2203 
Q 3716 2038 3850 1802 
Q 3984 1566 3984 1266 
Q 3984 894 3757 580 
Q 3531 266 3131 94 
Q 2731 -78 2216 -78 
Q 1438 -78 945 261 
Q 453 600 450 1481 
z
" transform="scale(0.015625)"/>
     <path id="Arial-ItalicMT-6f" d="M 313 1259 
Q 313 2231 884 2869 
Q 1356 3394 2122 3394 
Q 2722 3394 3089 3019 
Q 3456 2644 3456 2006 
Q 3456 1434 3225 942 
Q 2994 450 2567 187 
Q 2141 -75 1669 -75 
Q 1281 -75 964 90 
Q 647 256 480 559 
Q 313 863 313 1259 
z
M 878 1316 
Q 878 847 1103 605 
Q 1328 363 1675 363 
Q 1856 363 2034 436 
Q 2213 509 2366 659 
Q 2519 809 2626 1001 
Q 2734 1194 2800 1416 
Q 2897 1725 2897 2009 
Q 2897 2459 2670 2707 
Q 2444 2956 2100 2956 
Q 1834 2956 1615 2829 
Q 1397 2703 1220 2459 
Q 1044 2216 961 1892 
Q 878 1569 878 1316 
z
" transform="scale(0.015625)"/>
     <path id="Arial-ItalicMT-73" d="M 266 1134 
L 831 1169 
Q 831 925 906 753 
Q 981 581 1182 472 
Q 1384 363 1653 363 
Q 2028 363 2215 513 
Q 2403 663 2403 866 
Q 2403 1013 2291 1144 
Q 2175 1275 1726 1467 
Q 1278 1659 1153 1738 
Q 944 1866 837 2039 
Q 731 2213 731 2438 
Q 731 2831 1043 3112 
Q 1356 3394 1919 3394 
Q 2544 3394 2870 3105 
Q 3197 2816 3209 2344 
L 2656 2306 
Q 2644 2606 2444 2781 
Q 2244 2956 1878 2956 
Q 1584 2956 1421 2822 
Q 1259 2688 1259 2531 
Q 1259 2375 1400 2256 
Q 1494 2175 1884 2006 
Q 2534 1725 2703 1563 
Q 2972 1303 2972 931 
Q 2972 684 2820 446 
Q 2669 209 2358 67 
Q 2047 -75 1625 -75 
Q 1050 -75 647 209 
Q 244 494 266 1134 
z
" transform="scale(0.015625)"/>
     <path id="Arial-ItalicMT-74" d="M 1534 459 
L 1441 -3 
Q 1238 -56 1047 -56 
Q 709 -56 509 109 
Q 359 234 359 450 
Q 359 559 441 953 
L 844 2881 
L 397 2881 
L 488 3319 
L 934 3319 
L 1106 4134 
L 1753 4525 
L 1500 3319 
L 2056 3319 
L 1963 2881 
L 1409 2881 
L 1025 1047 
Q 953 697 953 628 
Q 953 528 1011 475 
Q 1069 422 1200 422 
Q 1388 422 1534 459 
z
" transform="scale(0.015625)"/>
     <path id="Arial-ItalicMT-66" d="M 291 0 
L 894 2881 
L 388 2881 
L 478 3319 
L 984 3319 
L 1081 3791 
Q 1156 4144 1236 4300 
Q 1316 4456 1495 4557 
Q 1675 4659 1984 4659 
Q 2200 4659 2609 4569 
L 2506 4075 
Q 2219 4150 2025 4150 
Q 1859 4150 1773 4067 
Q 1688 3984 1625 3675 
L 1550 3319 
L 2181 3319 
L 2091 2881 
L 1459 2881 
L 856 0 
L 291 0 
z
" transform="scale(0.015625)"/>
     <path id="Arial-ItalicMT-42" d="M 278 0 
L 1238 4581 
L 2656 4581 
Q 3044 4581 3231 4550 
Q 3538 4497 3748 4364 
Q 3959 4231 4075 4001 
Q 4191 3772 4191 3494 
Q 4191 3116 3983 2828 
Q 3775 2541 3347 2391 
Q 3719 2269 3903 2023 
Q 4088 1778 4088 1450 
Q 4088 1072 3870 725 
Q 3653 378 3295 189 
Q 2938 0 2497 0 
L 278 0 
z
M 1441 2625 
L 2369 2625 
Q 3034 2625 3326 2837 
Q 3619 3050 3619 3456 
Q 3619 3650 3528 3790 
Q 3438 3931 3286 3995 
Q 3134 4059 2716 4059 
L 1741 4059 
L 1441 2625 
z
M 1000 519 
L 2044 519 
Q 2459 519 2603 547 
Q 2894 597 3075 717 
Q 3256 838 3359 1034 
Q 3463 1231 3463 1447 
Q 3463 1769 3261 1936 
Q 3059 2103 2494 2103 
L 1331 2103 
L 1000 519 
z
" transform="scale(0.015625)"/>
     <path id="Arial-ItalicMT-72" d="M 213 0 
L 906 3319 
L 1406 3319 
L 1266 2641 
Q 1522 3025 1767 3209 
Q 2013 3394 2269 3394 
Q 2438 3394 2684 3272 
L 2453 2747 
Q 2306 2853 2131 2853 
Q 1834 2853 1521 2522 
Q 1209 2191 1031 1331 
L 750 0 
L 213 0 
z
" transform="scale(0.015625)"/>
     <path id="Arial-ItalicMT-45" d="M 288 0 
L 1247 4581 
L 4553 4581 
L 4444 4059 
L 1750 4059 
L 1450 2634 
L 4075 2634 
L 3966 2113 
L 1341 2113 
L 1009 519 
L 3894 519 
L 3784 0 
L 288 0 
z
" transform="scale(0.015625)"/>
     <path id="Arial-ItalicMT-6d" d="M 209 0 
L 903 3319 
L 1469 3319 
L 1353 2772 
Q 1669 3125 1917 3259 
Q 2166 3394 2456 3394 
Q 2766 3394 2973 3230 
Q 3181 3066 3247 2772 
Q 3500 3084 3779 3239 
Q 4059 3394 4369 3394 
Q 4784 3394 4992 3197 
Q 5200 3000 5200 2644 
Q 5200 2491 5128 2138 
L 4681 0 
L 4116 0 
L 4572 2194 
Q 4631 2463 4631 2578 
Q 4631 2741 4528 2834 
Q 4425 2928 4238 2928 
Q 3984 2928 3721 2775 
Q 3459 2622 3314 2373 
Q 3169 2125 3059 1609 
L 2722 0 
L 2156 0 
L 2625 2241 
Q 2675 2469 2675 2566 
Q 2675 2728 2573 2828 
Q 2472 2928 2309 2928 
Q 2069 2928 1805 2775 
Q 1541 2622 1375 2348 
Q 1209 2075 1103 1569 
L 775 0 
L 209 0 
z
" transform="scale(0.015625)"/>
     <path id="Arial-ItalicMT-75" d="M 2478 600 
Q 1881 -75 1256 -75 
Q 872 -75 636 145 
Q 400 366 400 684 
Q 400 894 506 1403 
L 906 3319 
L 1472 3319 
L 1028 1197 
Q 972 931 972 784 
Q 972 597 1086 492 
Q 1200 388 1422 388 
Q 1659 388 1886 503 
Q 2113 619 2277 816 
Q 2441 1013 2544 1281 
Q 2613 1453 2703 1884 
L 3003 3319 
L 3569 3319 
L 2875 0 
L 2353 0 
L 2478 600 
z
" transform="scale(0.015625)"/>
     <path id="Arial-ItalicMT-52" d="M 300 0 
L 1259 4581 
L 3181 4581 
Q 3750 4581 4044 4486 
Q 4338 4391 4505 4128 
Q 4672 3866 4672 3466 
Q 4672 2906 4306 2537 
Q 3941 2169 3125 2059 
Q 3375 1875 3503 1697 
Q 3791 1294 3966 863 
L 4316 0 
L 3631 0 
L 3303 853 
Q 3125 1316 2897 1653 
Q 2741 1888 2578 1961 
Q 2416 2034 2050 2034 
L 1338 2034 
L 913 0 
L 300 0 
z
M 1441 2531 
L 2288 2531 
Q 2875 2531 3053 2547 
Q 3400 2581 3622 2703 
Q 3844 2825 3966 3031 
Q 4088 3238 4088 3475 
Q 4088 3675 3997 3823 
Q 3906 3972 3759 4025 
Q 3613 4078 3259 4078 
L 1766 4078 
L 1441 2531 
z
" transform="scale(0.015625)"/>
     <path id="Arial-ItalicMT-70" d="M -66 -1272 
L 894 3319 
L 1416 3319 
L 1319 2856 
Q 1609 3159 1839 3276 
Q 2069 3394 2325 3394 
Q 2800 3394 3112 3048 
Q 3425 2703 3425 2059 
Q 3425 1541 3253 1114 
Q 3081 688 2831 428 
Q 2581 169 2325 47 
Q 2069 -75 1800 -75 
Q 1203 -75 875 531 
L 500 -1272 
L -66 -1272 
z
M 1053 1356 
Q 1053 984 1106 841 
Q 1184 638 1362 513 
Q 1541 388 1775 388 
Q 2263 388 2563 936 
Q 2863 1484 2863 2056 
Q 2863 2478 2661 2708 
Q 2459 2938 2159 2938 
Q 1944 2938 1759 2823 
Q 1575 2709 1417 2482 
Q 1259 2256 1156 1928 
Q 1053 1600 1053 1356 
z
" transform="scale(0.015625)"/>
     <path id="Arial-ItalicMT-32" d="M 375 0 
Q 463 409 617 686 
Q 772 963 1028 1211 
Q 1284 1459 2016 2044 
Q 2459 2397 2622 2566 
Q 2856 2809 2963 3044 
Q 3034 3203 3034 3391 
Q 3034 3706 2811 3926 
Q 2588 4147 2263 4147 
Q 1941 4147 1700 3923 
Q 1459 3700 1356 3206 
L 803 3288 
Q 884 3897 1276 4248 
Q 1669 4600 2253 4600 
Q 2644 4600 2961 4437 
Q 3278 4275 3437 3981 
Q 3597 3688 3597 3375 
Q 3597 2919 3272 2497 
Q 3072 2234 2097 1463 
Q 1678 1131 1473 918 
Q 1269 706 1166 519 
L 3216 519 
L 3106 0 
L 375 0 
z
" transform="scale(0.015625)"/>
     <path id="Arial-ItalicMT-30" d="M 453 1503 
Q 453 2084 626 2684 
Q 800 3284 1012 3643 
Q 1225 4003 1453 4206 
Q 1681 4409 1901 4504 
Q 2122 4600 2391 4600 
Q 2916 4600 3267 4209 
Q 3619 3819 3619 3081 
Q 3619 2322 3375 1578 
Q 3088 697 2575 256 
Q 2181 -78 1678 -78 
Q 1163 -78 808 326 
Q 453 731 453 1503 
z
M 1000 1359 
Q 1000 938 1141 700 
Q 1331 372 1706 372 
Q 2034 372 2303 669 
Q 2691 1088 2886 1895 
Q 3081 2703 3081 3216 
Q 3081 3709 2892 3928 
Q 2703 4147 2394 4147 
Q 2169 4147 1973 4031 
Q 1778 3916 1600 3634 
Q 1347 3238 1159 2447 
Q 1000 1772 1000 1359 
z
" transform="scale(0.015625)"/>
     <path id="Arial-ItalicMT-35" d="M 447 1309 
L 1022 1366 
Q 1016 1244 1016 1219 
Q 1016 1013 1120 803 
Q 1225 594 1404 483 
Q 1584 372 1784 372 
Q 2047 372 2319 553 
Q 2591 734 2759 1081 
Q 2928 1428 2928 1769 
Q 2928 2153 2701 2384 
Q 2475 2616 2106 2616 
Q 1859 2616 1639 2497 
Q 1419 2378 1228 2141 
L 734 2175 
L 1425 4519 
L 3663 4519 
L 3553 4000 
L 1813 4000 
L 1469 2834 
Q 1663 2975 1867 3045 
Q 2072 3116 2288 3116 
Q 2813 3116 3150 2769 
Q 3488 2422 3488 1819 
Q 3488 1291 3256 845 
Q 3025 400 2620 161 
Q 2216 -78 1747 -78 
Q 1353 -78 1050 100 
Q 747 278 595 590 
Q 444 903 444 1216 
Q 444 1247 447 1309 
z
" transform="scale(0.015625)"/>
    </defs>
    <use xlink:href="#Arial-ItalicMT-5a"/>
    <use xlink:href="#Arial-ItalicMT-61" x="61.083984"/>
    <use xlink:href="#Arial-ItalicMT-6e" x="116.699219"/>
    <use xlink:href="#Arial-ItalicMT-69" x="172.314453"/>
    <use xlink:href="#Arial-ItalicMT-63" x="194.53125"/>
    <use xlink:href="#Arial-ItalicMT-68" x="244.53125"/>
    <use xlink:href="#Arial-ItalicMT-65" x="300.146484"/>
    <use xlink:href="#Arial-ItalicMT-6c" x="355.761719"/>
    <use xlink:href="#Arial-ItalicMT-6c" x="377.978516"/>
    <use xlink:href="#Arial-ItalicMT-69" x="400.195312"/>
    <use xlink:href="#Arial-ItalicMT-2c" x="422.412109"/>
    <use xlink:href="#Arial-ItalicMT-20" x="450.195312"/>
    <use xlink:href="#Arial-ItalicMT-53" x="477.978516"/>
    <use xlink:href="#Arial-ItalicMT-63" x="544.677734"/>
    <use xlink:href="#Arial-ItalicMT-68" x="594.677734"/>
    <use xlink:href="#Arial-ItalicMT-6f" x="650.292969"/>
    <use xlink:href="#Arial-ItalicMT-6e" x="705.908203"/>
    <use xlink:href="#Arial-ItalicMT-73" x="761.523438"/>
    <use xlink:href="#Arial-ItalicMT-20" x="811.523438"/>
    <use xlink:href="#Arial-ItalicMT-65" x="839.306641"/>
    <use xlink:href="#Arial-ItalicMT-74" x="894.921875"/>
    <use xlink:href="#Arial-ItalicMT-20" x="922.705078"/>
    <use xlink:href="#Arial-ItalicMT-61" x="950.488281"/>
    <use xlink:href="#Arial-ItalicMT-6c" x="1006.103516"/>
    <use xlink:href="#Arial-ItalicMT-2c" x="1028.320312"/>
    <use xlink:href="#Arial-ItalicMT-20" x="1056.103516"/>
    <use xlink:href="#Arial-ItalicMT-53" x="1083.886719"/>
    <use xlink:href="#Arial-ItalicMT-74" x="1150.585938"/>
    <use xlink:href="#Arial-ItalicMT-61" x="1178.369141"/>
    <use xlink:href="#Arial-ItalicMT-74" x="1233.984375"/>
    <use xlink:href="#Arial-ItalicMT-65" x="1261.767578"/>
    <use xlink:href="#Arial-ItalicMT-20" x="1317.382812"/>
    <use xlink:href="#Arial-ItalicMT-6f" x="1345.166016"/>
    <use xlink:href="#Arial-ItalicMT-66" x="1400.78125"/>
    <use xlink:href="#Arial-ItalicMT-20" x="1428.564453"/>
    <use xlink:href="#Arial-ItalicMT-42" x="1456.347656"/>
    <use xlink:href="#Arial-ItalicMT-72" x="1523.046875"/>
    <use xlink:href="#Arial-ItalicMT-61" x="1556.347656"/>
    <use xlink:href="#Arial-ItalicMT-69" x="1611.962891"/>
    <use xlink:href="#Arial-ItalicMT-6e" x="1634.179688"/>
    <use xlink:href="#Arial-ItalicMT-20" x="1689.794922"/>
    <use xlink:href="#Arial-ItalicMT-45" x="1717.578125"/>
    <use xlink:href="#Arial-ItalicMT-6d" x="1784.277344"/>
    <use xlink:href="#Arial-ItalicMT-75" x="1867.578125"/>
    <use xlink:href="#Arial-ItalicMT-6c" x="1923.193359"/>
    <use xlink:href="#Arial-ItalicMT-61" x="1945.410156"/>
    <use xlink:href="#Arial-ItalicMT-74" x="2001.025391"/>
    <use xlink:href="#Arial-ItalicMT-69" x="2028.808594"/>
    <use xlink:href="#Arial-ItalicMT-6f" x="2051.025391"/>
    <use xlink:href="#Arial-ItalicMT-6e" x="2106.640625"/>
    <use xlink:href="#Arial-ItalicMT-20" x="2162.255859"/>
    <use xlink:href="#Arial-ItalicMT-52" x="2190.039062"/>
    <use xlink:href="#Arial-ItalicMT-65" x="2262.255859"/>
    <use xlink:href="#Arial-ItalicMT-70" x="2317.871094"/>
    <use xlink:href="#Arial-ItalicMT-6f" x="2373.486328"/>
    <use xlink:href="#Arial-ItalicMT-72" x="2429.101562"/>
    <use xlink:href="#Arial-ItalicMT-74" x="2462.402344"/>
    <use xlink:href="#Arial-ItalicMT-20" x="2490.185547"/>
    <use xlink:href="#Arial-ItalicMT-32" x="2517.96875"/>
    <use xlink:href="#Arial-ItalicMT-30" x="2573.583984"/>
    <use xlink:href="#Arial-ItalicMT-32" x="2629.199219"/>
    <use xlink:href="#Arial-ItalicMT-35" x="2684.814453"/>
   </g>
  </g>
 </g>
 <defs>
  <clipPath id="pc20d8162a3">
   <rect x="38.48" y="12.816875" width="806.849233" height="596.074844"/>
  </clipPath>
 </defs>
</svg>
