<?xml version="1.0" encoding="utf-8" standalone="no"?>
<!DOCTYPE svg PUBLIC "-//W3C//DTD SVG 1.1//EN"
  "http://www.w3.org/Graphics/SVG/1.1/DTD/svg11.dtd">
<svg xmlns:xlink="http://www.w3.org/1999/xlink" width="714.302031pt" height="357.935625pt" viewBox="0 0 714.302031 357.935625" xmlns="http://www.w3.org/2000/svg" version="1.1">
 <metadata>
  <rdf:RDF xmlns:dc="http://purl.org/dc/elements/1.1/" xmlns:cc="http://creativecommons.org/ns#" xmlns:rdf="http://www.w3.org/1999/02/22-rdf-syntax-ns#">
   <cc:Work>
    <dc:type rdf:resource="http://purl.org/dc/dcmitype/StillImage"/>
    <dc:date>2026-01-19T20:24:20.089170</dc:date>
    <dc:format>image/svg+xml</dc:format>
    <dc:creator>
     <cc:Agent>
      <dc:title>Matplotlib v3.9.4, https://matplotlib.org/</dc:title>
     </cc:Agent>
    </dc:creator>
   </cc:Work>
  </rdf:RDF>
 </metadata>
 <defs>
  <style type="text/css">*{stroke-linejoin: round; stroke-linecap: butt}</style>
 </defs>
 <g id="figure_1">
  <g id="patch_1">
   <path d="M 0 357.935625 
L 714.302031 357.935625 
L 714.302031 0 
L 0 0 
z
" style="fill: #ffffff"/>
  </g>
  <g id="axes_1">
   <g id="patch_2">
    <path d="M 53.222031 300.385312 
L 701.342031 300.385312 
L 701.342031 27.935625 
L 53.222031 27.935625 
z
" style="fill: #fafaf8"/>
   </g>
   <g id="matplotlib.axis_1">
    <g id="xtick_1">
     <g id="line2d_1">
      <path d="M 108.263493 300.385312 
L 108.263493 27.935625 
" clip-path="url(#p2204e8b2f4)" style="fill: none; stroke: #e8e5e1; stroke-linecap: round"/>
     </g>
     <g id="text_1">
      <!-- $\mathdefault{10^{-2}}$ -->
      <g style="fill: #4a4a5a" transform="translate(97.373493 321.229062) scale(0.11 -0.11)">
       <defs>
        <path id="ArialMT-31" d="M 2384 0 
L 1822 0 
L 1822 3584 
Q 1619 3391 1289 3197 
Q 959 3003 697 2906 
L 697 3450 
Q 1169 3672 1522 3987 
Q 1875 4303 2022 4600 
L 2384 4600 
L 2384 0 
z
" transform="scale(0.015625)"/>
        <path id="ArialMT-30" d="M 266 2259 
Q 266 3072 433 3567 
Q 600 4063 929 4331 
Q 1259 4600 1759 4600 
Q 2128 4600 2406 4451 
Q 2684 4303 2865 4023 
Q 3047 3744 3150 3342 
Q 3253 2941 3253 2259 
Q 3253 1453 3087 958 
Q 2922 463 2592 192 
Q 2263 -78 1759 -78 
Q 1097 -78 719 397 
Q 266 969 266 2259 
z
M 844 2259 
Q 844 1131 1108 757 
Q 1372 384 1759 384 
Q 2147 384 2411 759 
Q 2675 1134 2675 2259 
Q 2675 3391 2411 3762 
Q 2147 4134 1753 4134 
Q 1366 4134 1134 3806 
Q 844 3388 844 2259 
z
" transform="scale(0.015625)"/>
        <path id="ArialMT-2212" d="M 3381 1997 
L 356 1997 
L 356 2522 
L 3381 2522 
L 3381 1997 
z
" transform="scale(0.015625)"/>
        <path id="ArialMT-32" d="M 3222 541 
L 3222 0 
L 194 0 
Q 188 203 259 391 
Q 375 700 629 1000 
Q 884 1300 1366 1694 
Q 2113 2306 2375 2664 
Q 2638 3022 2638 3341 
Q 2638 3675 2398 3904 
Q 2159 4134 1775 4134 
Q 1369 4134 1125 3890 
Q 881 3647 878 3216 
L 300 3275 
Q 359 3922 746 4261 
Q 1134 4600 1788 4600 
Q 2447 4600 2831 4234 
Q 3216 3869 3216 3328 
Q 3216 3053 3103 2787 
Q 2991 2522 2730 2228 
Q 2469 1934 1863 1422 
Q 1356 997 1212 845 
Q 1069 694 975 541 
L 3222 541 
z
" transform="scale(0.015625)"/>
       </defs>
       <use xlink:href="#ArialMT-31" transform="translate(0 0.99375)"/>
       <use xlink:href="#ArialMT-30" transform="translate(55.615234 0.99375)"/>
       <use xlink:href="#ArialMT-2212" transform="translate(112.972813 70.6875) scale(0.7)"/>
       <use xlink:href="#ArialMT-32" transform="translate(153.851719 70.6875) scale(0.7)"/>
      </g>
     </g>
    </g>
    <g id="xtick_2">
     <g id="line2d_2">
      <path d="M 215.50404 300.385312 
L 215.50404 27.935625 
" clip-path="url(#p2204e8b2f4)" style="fill: none; stroke: #e8e5e1; stroke-linecap: round"/>
     </g>
     <g id="text_2">
      <!-- $\mathdefault{10^{0}}$ -->
      <g style="fill: #4a4a5a" transform="translate(206.86904 321.229062) scale(0.11 -0.11)">
       <use xlink:href="#ArialMT-31" transform="translate(0 0.99375)"/>
       <use xlink:href="#ArialMT-30" transform="translate(55.615234 0.99375)"/>
       <use xlink:href="#ArialMT-30" transform="translate(112.972813 70.6875) scale(0.7)"/>
      </g>
     </g>
    </g>
    <g id="xtick_3">
     <g id="line2d_3">
      <path d="M 322.744587 300.385312 
L 322.744587 27.935625 
" clip-path="url(#p2204e8b2f4)" style="fill: none; stroke: #e8e5e1; stroke-linecap: round"/>
     </g>
     <g id="text_3">
      <!-- $\mathdefault{10^{2}}$ -->
      <g style="fill: #4a4a5a" transform="translate(314.109587 321.229062) scale(0.11 -0.11)">
       <use xlink:href="#ArialMT-31" transform="translate(0 0.99375)"/>
       <use xlink:href="#ArialMT-30" transform="translate(55.615234 0.99375)"/>
       <use xlink:href="#ArialMT-32" transform="translate(112.972813 70.6875) scale(0.7)"/>
      </g>
     </g>
    </g>
    <g id="xtick_4">
     <g id="line2d_4">
      <path d="M 429.985134 300.385312 
L 429.985134 27.935625 
" clip-path="url(#p2204e8b2f4)" style="fill: none; stroke: #e8e5e1; stroke-linecap: round"/>
     </g>
     <g id="text_4">
      <!-- $\mathdefault{10^{4}}$ -->
      <g style="fill: #4a4a5a" transform="translate(421.350134 321.119062) scale(0.11 -0.11)">
       <defs>
        <path id="ArialMT-34" d="M 2069 0 
L 2069 1097 
L 81 1097 
L 81 1613 
L 2172 4581 
L 2631 4581 
L 2631 1613 
L 3250 1613 
L 3250 1097 
L 2631 1097 
L 2631 0 
L 2069 0 
z
M 2069 1613 
L 2069 3678 
L 634 1613 
L 2069 1613 
z
" transform="scale(0.015625)"/>
       </defs>
       <use xlink:href="#ArialMT-31" transform="translate(0 0.201563)"/>
       <use xlink:href="#ArialMT-30" transform="translate(55.615234 0.201563)"/>
       <use xlink:href="#ArialMT-34" transform="translate(112.972813 69.895313) scale(0.7)"/>
      </g>
     </g>
    </g>
    <g id="xtick_5">
     <g id="line2d_5">
      <path d="M 537.22568 300.385312 
L 537.22568 27.935625 
" clip-path="url(#p2204e8b2f4)" style="fill: none; stroke: #e8e5e1; stroke-linecap: round"/>
     </g>
     <g id="text_5">
      <!-- $\mathdefault{10^{6}}$ -->
      <g style="fill: #4a4a5a" transform="translate(528.59068 321.229062) scale(0.11 -0.11)">
       <defs>
        <path id="ArialMT-36" d="M 3184 3459 
L 2625 3416 
Q 2550 3747 2413 3897 
Q 2184 4138 1850 4138 
Q 1581 4138 1378 3988 
Q 1113 3794 959 3422 
Q 806 3050 800 2363 
Q 1003 2672 1297 2822 
Q 1591 2972 1913 2972 
Q 2475 2972 2870 2558 
Q 3266 2144 3266 1488 
Q 3266 1056 3080 686 
Q 2894 316 2569 119 
Q 2244 -78 1831 -78 
Q 1128 -78 684 439 
Q 241 956 241 2144 
Q 241 3472 731 4075 
Q 1159 4600 1884 4600 
Q 2425 4600 2770 4297 
Q 3116 3994 3184 3459 
z
M 888 1484 
Q 888 1194 1011 928 
Q 1134 663 1356 523 
Q 1578 384 1822 384 
Q 2178 384 2434 671 
Q 2691 959 2691 1453 
Q 2691 1928 2437 2201 
Q 2184 2475 1800 2475 
Q 1419 2475 1153 2201 
Q 888 1928 888 1484 
z
" transform="scale(0.015625)"/>
       </defs>
       <use xlink:href="#ArialMT-31" transform="translate(0 0.99375)"/>
       <use xlink:href="#ArialMT-30" transform="translate(55.615234 0.99375)"/>
       <use xlink:href="#ArialMT-36" transform="translate(112.972813 70.6875) scale(0.7)"/>
      </g>
     </g>
    </g>
    <g id="xtick_6">
     <g id="line2d_6">
      <path d="M 644.466227 300.385312 
L 644.466227 27.935625 
" clip-path="url(#p2204e8b2f4)" style="fill: none; stroke: #e8e5e1; stroke-linecap: round"/>
     </g>
     <g id="text_6">
      <!-- $\mathdefault{10^{8}}$ -->
      <g style="fill: #4a4a5a" transform="translate(635.831227 321.229062) scale(0.11 -0.11)">
       <defs>
        <path id="ArialMT-38" d="M 1131 2484 
Q 781 2613 612 2850 
Q 444 3088 444 3419 
Q 444 3919 803 4259 
Q 1163 4600 1759 4600 
Q 2359 4600 2725 4251 
Q 3091 3903 3091 3403 
Q 3091 3084 2923 2848 
Q 2756 2613 2416 2484 
Q 2838 2347 3058 2040 
Q 3278 1734 3278 1309 
Q 3278 722 2862 322 
Q 2447 -78 1769 -78 
Q 1091 -78 675 323 
Q 259 725 259 1325 
Q 259 1772 486 2073 
Q 713 2375 1131 2484 
z
M 1019 3438 
Q 1019 3113 1228 2906 
Q 1438 2700 1772 2700 
Q 2097 2700 2305 2904 
Q 2513 3109 2513 3406 
Q 2513 3716 2298 3927 
Q 2084 4138 1766 4138 
Q 1444 4138 1231 3931 
Q 1019 3725 1019 3438 
z
M 838 1322 
Q 838 1081 952 856 
Q 1066 631 1291 507 
Q 1516 384 1775 384 
Q 2178 384 2440 643 
Q 2703 903 2703 1303 
Q 2703 1709 2433 1975 
Q 2163 2241 1756 2241 
Q 1359 2241 1098 1978 
Q 838 1716 838 1322 
z
" transform="scale(0.015625)"/>
       </defs>
       <use xlink:href="#ArialMT-31" transform="translate(0 0.99375)"/>
       <use xlink:href="#ArialMT-30" transform="translate(55.615234 0.99375)"/>
       <use xlink:href="#ArialMT-38" transform="translate(112.972813 70.6875) scale(0.7)"/>
      </g>
     </g>
    </g>
    <g id="text_7">
     <!-- Budget (Million $) -->
     <g style="fill: #4a4a5a" transform="translate(330.597344 336.795937) scale(0.12 -0.12)">
      <defs>
       <path id="ArialMT-42" d="M 469 0 
L 469 4581 
L 2188 4581 
Q 2713 4581 3030 4442 
Q 3347 4303 3526 4014 
Q 3706 3725 3706 3409 
Q 3706 3116 3547 2856 
Q 3388 2597 3066 2438 
Q 3481 2316 3704 2022 
Q 3928 1728 3928 1328 
Q 3928 1006 3792 729 
Q 3656 453 3456 303 
Q 3256 153 2954 76 
Q 2653 0 2216 0 
L 469 0 
z
M 1075 2656 
L 2066 2656 
Q 2469 2656 2644 2709 
Q 2875 2778 2992 2937 
Q 3109 3097 3109 3338 
Q 3109 3566 3000 3739 
Q 2891 3913 2687 3977 
Q 2484 4041 1991 4041 
L 1075 4041 
L 1075 2656 
z
M 1075 541 
L 2216 541 
Q 2509 541 2628 563 
Q 2838 600 2978 687 
Q 3119 775 3209 942 
Q 3300 1109 3300 1328 
Q 3300 1584 3169 1773 
Q 3038 1963 2805 2039 
Q 2572 2116 2134 2116 
L 1075 2116 
L 1075 541 
z
" transform="scale(0.015625)"/>
       <path id="ArialMT-75" d="M 2597 0 
L 2597 488 
Q 2209 -75 1544 -75 
Q 1250 -75 995 37 
Q 741 150 617 320 
Q 494 491 444 738 
Q 409 903 409 1263 
L 409 3319 
L 972 3319 
L 972 1478 
Q 972 1038 1006 884 
Q 1059 663 1231 536 
Q 1403 409 1656 409 
Q 1909 409 2131 539 
Q 2353 669 2445 892 
Q 2538 1116 2538 1541 
L 2538 3319 
L 3100 3319 
L 3100 0 
L 2597 0 
z
" transform="scale(0.015625)"/>
       <path id="ArialMT-64" d="M 2575 0 
L 2575 419 
Q 2259 -75 1647 -75 
Q 1250 -75 917 144 
Q 584 363 401 755 
Q 219 1147 219 1656 
Q 219 2153 384 2558 
Q 550 2963 881 3178 
Q 1213 3394 1622 3394 
Q 1922 3394 2156 3267 
Q 2391 3141 2538 2938 
L 2538 4581 
L 3097 4581 
L 3097 0 
L 2575 0 
z
M 797 1656 
Q 797 1019 1065 703 
Q 1334 388 1700 388 
Q 2069 388 2326 689 
Q 2584 991 2584 1609 
Q 2584 2291 2321 2609 
Q 2059 2928 1675 2928 
Q 1300 2928 1048 2622 
Q 797 2316 797 1656 
z
" transform="scale(0.015625)"/>
       <path id="ArialMT-67" d="M 319 -275 
L 866 -356 
Q 900 -609 1056 -725 
Q 1266 -881 1628 -881 
Q 2019 -881 2231 -725 
Q 2444 -569 2519 -288 
Q 2563 -116 2559 434 
Q 2191 0 1641 0 
Q 956 0 581 494 
Q 206 988 206 1678 
Q 206 2153 378 2554 
Q 550 2956 876 3175 
Q 1203 3394 1644 3394 
Q 2231 3394 2613 2919 
L 2613 3319 
L 3131 3319 
L 3131 450 
Q 3131 -325 2973 -648 
Q 2816 -972 2473 -1159 
Q 2131 -1347 1631 -1347 
Q 1038 -1347 672 -1080 
Q 306 -813 319 -275 
z
M 784 1719 
Q 784 1066 1043 766 
Q 1303 466 1694 466 
Q 2081 466 2343 764 
Q 2606 1063 2606 1700 
Q 2606 2309 2336 2618 
Q 2066 2928 1684 2928 
Q 1309 2928 1046 2623 
Q 784 2319 784 1719 
z
" transform="scale(0.015625)"/>
       <path id="ArialMT-65" d="M 2694 1069 
L 3275 997 
Q 3138 488 2766 206 
Q 2394 -75 1816 -75 
Q 1088 -75 661 373 
Q 234 822 234 1631 
Q 234 2469 665 2931 
Q 1097 3394 1784 3394 
Q 2450 3394 2872 2941 
Q 3294 2488 3294 1666 
Q 3294 1616 3291 1516 
L 816 1516 
Q 847 969 1125 678 
Q 1403 388 1819 388 
Q 2128 388 2347 550 
Q 2566 713 2694 1069 
z
M 847 1978 
L 2700 1978 
Q 2663 2397 2488 2606 
Q 2219 2931 1791 2931 
Q 1403 2931 1139 2672 
Q 875 2413 847 1978 
z
" transform="scale(0.015625)"/>
       <path id="ArialMT-74" d="M 1650 503 
L 1731 6 
Q 1494 -44 1306 -44 
Q 1000 -44 831 53 
Q 663 150 594 308 
Q 525 466 525 972 
L 525 2881 
L 113 2881 
L 113 3319 
L 525 3319 
L 525 4141 
L 1084 4478 
L 1084 3319 
L 1650 3319 
L 1650 2881 
L 1084 2881 
L 1084 941 
Q 1084 700 1114 631 
Q 1144 563 1211 522 
Q 1278 481 1403 481 
Q 1497 481 1650 503 
z
" transform="scale(0.015625)"/>
       <path id="ArialMT-20" transform="scale(0.015625)"/>
       <path id="ArialMT-28" d="M 1497 -1347 
Q 1031 -759 709 28 
Q 388 816 388 1659 
Q 388 2403 628 3084 
Q 909 3875 1497 4659 
L 1900 4659 
Q 1522 4009 1400 3731 
Q 1209 3300 1100 2831 
Q 966 2247 966 1656 
Q 966 153 1900 -1347 
L 1497 -1347 
z
" transform="scale(0.015625)"/>
       <path id="ArialMT-4d" d="M 475 0 
L 475 4581 
L 1388 4581 
L 2472 1338 
Q 2622 884 2691 659 
Q 2769 909 2934 1394 
L 4031 4581 
L 4847 4581 
L 4847 0 
L 4263 0 
L 4263 3834 
L 2931 0 
L 2384 0 
L 1059 3900 
L 1059 0 
L 475 0 
z
" transform="scale(0.015625)"/>
       <path id="ArialMT-69" d="M 425 3934 
L 425 4581 
L 988 4581 
L 988 3934 
L 425 3934 
z
M 425 0 
L 425 3319 
L 988 3319 
L 988 0 
L 425 0 
z
" transform="scale(0.015625)"/>
       <path id="ArialMT-6c" d="M 409 0 
L 409 4581 
L 972 4581 
L 972 0 
L 409 0 
z
" transform="scale(0.015625)"/>
       <path id="ArialMT-6f" d="M 213 1659 
Q 213 2581 725 3025 
Q 1153 3394 1769 3394 
Q 2453 3394 2887 2945 
Q 3322 2497 3322 1706 
Q 3322 1066 3130 698 
Q 2938 331 2570 128 
Q 2203 -75 1769 -75 
Q 1072 -75 642 372 
Q 213 819 213 1659 
z
M 791 1659 
Q 791 1022 1069 705 
Q 1347 388 1769 388 
Q 2188 388 2466 706 
Q 2744 1025 2744 1678 
Q 2744 2294 2464 2611 
Q 2184 2928 1769 2928 
Q 1347 2928 1069 2612 
Q 791 2297 791 1659 
z
" transform="scale(0.015625)"/>
       <path id="ArialMT-6e" d="M 422 0 
L 422 3319 
L 928 3319 
L 928 2847 
Q 1294 3394 1984 3394 
Q 2284 3394 2536 3286 
Q 2788 3178 2913 3003 
Q 3038 2828 3088 2588 
Q 3119 2431 3119 2041 
L 3119 0 
L 2556 0 
L 2556 2019 
Q 2556 2363 2490 2533 
Q 2425 2703 2258 2804 
Q 2091 2906 1866 2906 
Q 1506 2906 1245 2678 
Q 984 2450 984 1813 
L 984 0 
L 422 0 
z
" transform="scale(0.015625)"/>
       <path id="ArialMT-24" d="M 1594 -659 
L 1594 -97 
Q 1172 -44 908 92 
Q 644 228 451 531 
Q 259 834 228 1272 
L 794 1378 
Q 859 925 1025 713 
Q 1263 413 1594 378 
L 1594 2169 
Q 1247 2234 884 2438 
Q 616 2588 470 2853 
Q 325 3119 325 3456 
Q 325 4056 750 4428 
Q 1034 4678 1594 4734 
L 1594 5003 
L 1925 5003 
L 1925 4734 
Q 2416 4688 2703 4447 
Q 3072 4141 3147 3606 
L 2566 3519 
Q 2516 3850 2358 4026 
Q 2200 4203 1925 4259 
L 1925 2638 
Q 2350 2531 2488 2472 
Q 2750 2356 2915 2190 
Q 3081 2025 3170 1797 
Q 3259 1569 3259 1303 
Q 3259 719 2887 328 
Q 2516 -63 1925 -91 
L 1925 -659 
L 1594 -659 
z
M 1594 4266 
Q 1266 4216 1077 4003 
Q 888 3791 888 3500 
Q 888 3213 1048 3019 
Q 1209 2825 1594 2709 
L 1594 4266 
z
M 1925 378 
Q 2253 419 2467 662 
Q 2681 906 2681 1266 
Q 2681 1572 2529 1758 
Q 2378 1944 1925 2091 
L 1925 378 
z
" transform="scale(0.015625)"/>
       <path id="ArialMT-29" d="M 791 -1347 
L 388 -1347 
Q 1322 153 1322 1656 
Q 1322 2244 1188 2822 
Q 1081 3291 891 3722 
Q 769 4003 388 4659 
L 791 4659 
Q 1378 3875 1659 3084 
Q 1900 2403 1900 1659 
Q 1900 816 1576 28 
Q 1253 -759 791 -1347 
z
" transform="scale(0.015625)"/>
      </defs>
      <use xlink:href="#ArialMT-42"/>
      <use xlink:href="#ArialMT-75" x="66.699219"/>
      <use xlink:href="#ArialMT-64" x="122.314453"/>
      <use xlink:href="#ArialMT-67" x="177.929688"/>
      <use xlink:href="#ArialMT-65" x="233.544922"/>
      <use xlink:href="#ArialMT-74" x="289.160156"/>
      <use xlink:href="#ArialMT-20" x="316.943359"/>
      <use xlink:href="#ArialMT-28" x="344.726562"/>
      <use xlink:href="#ArialMT-4d" x="378.027344"/>
      <use xlink:href="#ArialMT-69" x="461.328125"/>
      <use xlink:href="#ArialMT-6c" x="483.544922"/>
      <use xlink:href="#ArialMT-6c" x="505.761719"/>
      <use xlink:href="#ArialMT-69" x="527.978516"/>
      <use xlink:href="#ArialMT-6f" x="550.195312"/>
      <use xlink:href="#ArialMT-6e" x="605.810547"/>
      <use xlink:href="#ArialMT-20" x="661.425781"/>
      <use xlink:href="#ArialMT-24" x="689.208984"/>
      <use xlink:href="#ArialMT-29" x="744.824219"/>
     </g>
    </g>
   </g>
   <g id="matplotlib.axis_2">
    <g id="ytick_1">
     <g id="line2d_7">
      <path d="M 53.222031 300.385312 
L 701.342031 300.385312 
" clip-path="url(#p2204e8b2f4)" style="fill: none; stroke: #e8e5e1; stroke-linecap: round"/>
     </g>
     <g id="text_8">
      <!-- 0.00 -->
      <g style="fill: #4a4a5a" transform="translate(22.315 304.322109) scale(0.11 -0.11)">
       <defs>
        <path id="ArialMT-2e" d="M 581 0 
L 581 641 
L 1222 641 
L 1222 0 
L 581 0 
z
" transform="scale(0.015625)"/>
       </defs>
       <use xlink:href="#ArialMT-30"/>
       <use xlink:href="#ArialMT-2e" x="55.615234"/>
       <use xlink:href="#ArialMT-30" x="83.398438"/>
       <use xlink:href="#ArialMT-30" x="139.013672"/>
      </g>
     </g>
    </g>
    <g id="ytick_2">
     <g id="line2d_8">
      <path d="M 53.222031 264.614814 
L 701.342031 264.614814 
" clip-path="url(#p2204e8b2f4)" style="fill: none; stroke: #e8e5e1; stroke-linecap: round"/>
     </g>
     <g id="text_9">
      <!-- 0.25 -->
      <g style="fill: #4a4a5a" transform="translate(22.315 268.551611) scale(0.11 -0.11)">
       <defs>
        <path id="ArialMT-35" d="M 266 1200 
L 856 1250 
Q 922 819 1161 601 
Q 1400 384 1738 384 
Q 2144 384 2425 690 
Q 2706 997 2706 1503 
Q 2706 1984 2436 2262 
Q 2166 2541 1728 2541 
Q 1456 2541 1237 2417 
Q 1019 2294 894 2097 
L 366 2166 
L 809 4519 
L 3088 4519 
L 3088 3981 
L 1259 3981 
L 1013 2750 
Q 1425 3038 1878 3038 
Q 2478 3038 2890 2622 
Q 3303 2206 3303 1553 
Q 3303 931 2941 478 
Q 2500 -78 1738 -78 
Q 1113 -78 717 272 
Q 322 622 266 1200 
z
" transform="scale(0.015625)"/>
       </defs>
       <use xlink:href="#ArialMT-30"/>
       <use xlink:href="#ArialMT-2e" x="55.615234"/>
       <use xlink:href="#ArialMT-32" x="83.398438"/>
       <use xlink:href="#ArialMT-35" x="139.013672"/>
      </g>
     </g>
    </g>
    <g id="ytick_3">
     <g id="line2d_9">
      <path d="M 53.222031 228.844316 
L 701.342031 228.844316 
" clip-path="url(#p2204e8b2f4)" style="fill: none; stroke: #e8e5e1; stroke-linecap: round"/>
     </g>
     <g id="text_10">
      <!-- 0.50 -->
      <g style="fill: #4a4a5a" transform="translate(22.315 232.781113) scale(0.11 -0.11)">
       <use xlink:href="#ArialMT-30"/>
       <use xlink:href="#ArialMT-2e" x="55.615234"/>
       <use xlink:href="#ArialMT-35" x="83.398438"/>
       <use xlink:href="#ArialMT-30" x="139.013672"/>
      </g>
     </g>
    </g>
    <g id="ytick_4">
     <g id="line2d_10">
      <path d="M 53.222031 193.073818 
L 701.342031 193.073818 
" clip-path="url(#p2204e8b2f4)" style="fill: none; stroke: #e8e5e1; stroke-linecap: round"/>
     </g>
     <g id="text_11">
      <!-- 0.75 -->
      <g style="fill: #4a4a5a" transform="translate(22.315 197.010615) scale(0.11 -0.11)">
       <defs>
        <path id="ArialMT-37" d="M 303 3981 
L 303 4522 
L 3269 4522 
L 3269 4084 
Q 2831 3619 2401 2847 
Q 1972 2075 1738 1259 
Q 1569 684 1522 0 
L 944 0 
Q 953 541 1156 1306 
Q 1359 2072 1739 2783 
Q 2119 3494 2547 3981 
L 303 3981 
z
" transform="scale(0.015625)"/>
       </defs>
       <use xlink:href="#ArialMT-30"/>
       <use xlink:href="#ArialMT-2e" x="55.615234"/>
       <use xlink:href="#ArialMT-37" x="83.398438"/>
       <use xlink:href="#ArialMT-35" x="139.013672"/>
      </g>
     </g>
    </g>
    <g id="ytick_5">
     <g id="line2d_11">
      <path d="M 53.222031 157.30332 
L 701.342031 157.30332 
" clip-path="url(#p2204e8b2f4)" style="fill: none; stroke: #e8e5e1; stroke-linecap: round"/>
     </g>
     <g id="text_12">
      <!-- 1.00 -->
      <g style="fill: #4a4a5a" transform="translate(22.315 161.240116) scale(0.11 -0.11)">
       <use xlink:href="#ArialMT-31"/>
       <use xlink:href="#ArialMT-2e" x="55.615234"/>
       <use xlink:href="#ArialMT-30" x="83.398438"/>
       <use xlink:href="#ArialMT-30" x="139.013672"/>
      </g>
     </g>
    </g>
    <g id="ytick_6">
     <g id="line2d_12">
      <path d="M 53.222031 121.532821 
L 701.342031 121.532821 
" clip-path="url(#p2204e8b2f4)" style="fill: none; stroke: #e8e5e1; stroke-linecap: round"/>
     </g>
     <g id="text_13">
      <!-- 1.25 -->
      <g style="fill: #4a4a5a" transform="translate(22.315 125.469618) scale(0.11 -0.11)">
       <use xlink:href="#ArialMT-31"/>
       <use xlink:href="#ArialMT-2e" x="55.615234"/>
       <use xlink:href="#ArialMT-32" x="83.398438"/>
       <use xlink:href="#ArialMT-35" x="139.013672"/>
      </g>
     </g>
    </g>
    <g id="ytick_7">
     <g id="line2d_13">
      <path d="M 53.222031 85.762323 
L 701.342031 85.762323 
" clip-path="url(#p2204e8b2f4)" style="fill: none; stroke: #e8e5e1; stroke-linecap: round"/>
     </g>
     <g id="text_14">
      <!-- 1.50 -->
      <g style="fill: #4a4a5a" transform="translate(22.315 89.69912) scale(0.11 -0.11)">
       <use xlink:href="#ArialMT-31"/>
       <use xlink:href="#ArialMT-2e" x="55.615234"/>
       <use xlink:href="#ArialMT-35" x="83.398438"/>
       <use xlink:href="#ArialMT-30" x="139.013672"/>
      </g>
     </g>
    </g>
    <g id="ytick_8">
     <g id="line2d_14">
      <path d="M 53.222031 49.991825 
L 701.342031 49.991825 
" clip-path="url(#p2204e8b2f4)" style="fill: none; stroke: #e8e5e1; stroke-linecap: round"/>
     </g>
     <g id="text_15">
      <!-- 1.75 -->
      <g style="fill: #4a4a5a" transform="translate(22.315 53.928622) scale(0.11 -0.11)">
       <use xlink:href="#ArialMT-31"/>
       <use xlink:href="#ArialMT-2e" x="55.615234"/>
       <use xlink:href="#ArialMT-37" x="83.398438"/>
       <use xlink:href="#ArialMT-35" x="139.013672"/>
      </g>
     </g>
    </g>
    <g id="text_16">
     <!-- Density -->
     <g style="fill: #4a4a5a" transform="translate(15.789375 184.166719) rotate(-90) scale(0.12 -0.12)">
      <defs>
       <path id="ArialMT-44" d="M 494 0 
L 494 4581 
L 2072 4581 
Q 2606 4581 2888 4516 
Q 3281 4425 3559 4188 
Q 3922 3881 4101 3404 
Q 4281 2928 4281 2316 
Q 4281 1794 4159 1391 
Q 4038 988 3847 723 
Q 3656 459 3429 307 
Q 3203 156 2883 78 
Q 2563 0 2147 0 
L 494 0 
z
M 1100 541 
L 2078 541 
Q 2531 541 2789 625 
Q 3047 709 3200 863 
Q 3416 1078 3536 1442 
Q 3656 1806 3656 2325 
Q 3656 3044 3420 3430 
Q 3184 3816 2847 3947 
Q 2603 4041 2063 4041 
L 1100 4041 
L 1100 541 
z
" transform="scale(0.015625)"/>
       <path id="ArialMT-73" d="M 197 991 
L 753 1078 
Q 800 744 1014 566 
Q 1228 388 1613 388 
Q 2000 388 2187 545 
Q 2375 703 2375 916 
Q 2375 1106 2209 1216 
Q 2094 1291 1634 1406 
Q 1016 1563 777 1677 
Q 538 1791 414 1992 
Q 291 2194 291 2438 
Q 291 2659 392 2848 
Q 494 3038 669 3163 
Q 800 3259 1026 3326 
Q 1253 3394 1513 3394 
Q 1903 3394 2198 3281 
Q 2494 3169 2634 2976 
Q 2775 2784 2828 2463 
L 2278 2388 
Q 2241 2644 2061 2787 
Q 1881 2931 1553 2931 
Q 1166 2931 1000 2803 
Q 834 2675 834 2503 
Q 834 2394 903 2306 
Q 972 2216 1119 2156 
Q 1203 2125 1616 2013 
Q 2213 1853 2448 1751 
Q 2684 1650 2818 1456 
Q 2953 1263 2953 975 
Q 2953 694 2789 445 
Q 2625 197 2315 61 
Q 2006 -75 1616 -75 
Q 969 -75 630 194 
Q 291 463 197 991 
z
" transform="scale(0.015625)"/>
       <path id="ArialMT-79" d="M 397 -1278 
L 334 -750 
Q 519 -800 656 -800 
Q 844 -800 956 -737 
Q 1069 -675 1141 -563 
Q 1194 -478 1313 -144 
Q 1328 -97 1363 -6 
L 103 3319 
L 709 3319 
L 1400 1397 
Q 1534 1031 1641 628 
Q 1738 1016 1872 1384 
L 2581 3319 
L 3144 3319 
L 1881 -56 
Q 1678 -603 1566 -809 
Q 1416 -1088 1222 -1217 
Q 1028 -1347 759 -1347 
Q 597 -1347 397 -1278 
z
" transform="scale(0.015625)"/>
      </defs>
      <use xlink:href="#ArialMT-44"/>
      <use xlink:href="#ArialMT-65" x="72.216797"/>
      <use xlink:href="#ArialMT-6e" x="127.832031"/>
      <use xlink:href="#ArialMT-73" x="183.447266"/>
      <use xlink:href="#ArialMT-69" x="233.447266"/>
      <use xlink:href="#ArialMT-74" x="255.664062"/>
      <use xlink:href="#ArialMT-79" x="283.447266"/>
     </g>
    </g>
   </g>
   <g id="PolyCollection_1">
    <defs>
     <path id="m2e6f07651f" d="M 82.682031 -57.57225 
L 82.682031 -57.550312 
L 85.471393 -57.550312 
L 88.260755 -57.550312 
L 91.050117 -57.550312 
L 93.839479 -57.550312 
L 96.628841 -57.550312 
L 99.418203 -57.550312 
L 102.207565 -57.550312 
L 104.996927 -57.550312 
L 107.786289 -57.550312 
L 110.575651 -57.550312 
L 113.365013 -57.550312 
L 116.154375 -57.550312 
L 118.943737 -57.550312 
L 121.733099 -57.550312 
L 124.522461 -57.550312 
L 127.311823 -57.550312 
L 130.101185 -57.550312 
L 132.890547 -57.550312 
L 135.679909 -57.550312 
L 138.469271 -57.550312 
L 141.258633 -57.550312 
L 144.047995 -57.550312 
L 146.837357 -57.550312 
L 149.626719 -57.550312 
L 152.416081 -57.550312 
L 155.205443 -57.550312 
L 157.994805 -57.550312 
L 160.784167 -57.550312 
L 163.573529 -57.550312 
L 166.362891 -57.550312 
L 169.152253 -57.550312 
L 171.941615 -57.550312 
L 174.730977 -57.550312 
L 177.520339 -57.550312 
L 180.309701 -57.550312 
L 183.099063 -57.550312 
L 185.888425 -57.550312 
L 188.677787 -57.550312 
L 191.467149 -57.550312 
L 194.256511 -57.550312 
L 197.045873 -57.550312 
L 199.835235 -57.550312 
L 202.624597 -57.550312 
L 205.413959 -57.550312 
L 208.203321 -57.550312 
L 210.992683 -57.550312 
L 213.782045 -57.550312 
L 216.571407 -57.550312 
L 219.360769 -57.550312 
L 222.150131 -57.550312 
L 224.939493 -57.550312 
L 227.728855 -57.550312 
L 230.518217 -57.550312 
L 233.307579 -57.550312 
L 236.096941 -57.550312 
L 238.886303 -57.550312 
L 241.675665 -57.550312 
L 244.465027 -57.550312 
L 247.254389 -57.550312 
L 250.043751 -57.550312 
L 252.833113 -57.550312 
L 255.622475 -57.550312 
L 258.411837 -57.550312 
L 261.201199 -57.550312 
L 263.990561 -57.550312 
L 266.779923 -57.550312 
L 269.569285 -57.550312 
L 272.358647 -57.550312 
L 275.148009 -57.550312 
L 277.937371 -57.550312 
L 280.726733 -57.550312 
L 283.516095 -57.550312 
L 286.305457 -57.550312 
L 289.094819 -57.550312 
L 291.884181 -57.550312 
L 294.673543 -57.550312 
L 297.462905 -57.550312 
L 300.252267 -57.550312 
L 303.041629 -57.550312 
L 305.830991 -57.550312 
L 308.620353 -57.550312 
L 311.409715 -57.550312 
L 314.199077 -57.550312 
L 316.988439 -57.550312 
L 319.777801 -57.550312 
L 322.567163 -57.550312 
L 325.356525 -57.550312 
L 328.145887 -57.550312 
L 330.935249 -57.550312 
L 333.724611 -57.550312 
L 336.513973 -57.550312 
L 339.303335 -57.550312 
L 342.092697 -57.550312 
L 344.882059 -57.550312 
L 347.671421 -57.550312 
L 350.460783 -57.550312 
L 353.250145 -57.550312 
L 356.039507 -57.550312 
L 358.828869 -57.550312 
L 361.618231 -57.550312 
L 364.407593 -57.550312 
L 367.196955 -57.550312 
L 369.986317 -57.550312 
L 372.775679 -57.550312 
L 375.565041 -57.550312 
L 378.354403 -57.550312 
L 381.143764 -57.550312 
L 383.933126 -57.550312 
L 386.722488 -57.550312 
L 389.51185 -57.550312 
L 392.301212 -57.550312 
L 395.090574 -57.550312 
L 397.879936 -57.550312 
L 400.669298 -57.550312 
L 403.45866 -57.550312 
L 406.248022 -57.550312 
L 409.037384 -57.550312 
L 411.826746 -57.550312 
L 414.616108 -57.550312 
L 417.40547 -57.550312 
L 420.194832 -57.550312 
L 422.984194 -57.550312 
L 425.773556 -57.550312 
L 428.562918 -57.550312 
L 431.35228 -57.550312 
L 434.141642 -57.550312 
L 436.931004 -57.550312 
L 439.720366 -57.550312 
L 442.509728 -57.550312 
L 445.29909 -57.550312 
L 448.088452 -57.550312 
L 450.877814 -57.550312 
L 453.667176 -57.550312 
L 456.456538 -57.550312 
L 459.2459 -57.550312 
L 462.035262 -57.550312 
L 464.824624 -57.550312 
L 467.613986 -57.550312 
L 470.403348 -57.550312 
L 473.19271 -57.550312 
L 475.982072 -57.550312 
L 478.771434 -57.550312 
L 481.560796 -57.550312 
L 484.350158 -57.550312 
L 487.13952 -57.550312 
L 489.928882 -57.550312 
L 492.718244 -57.550312 
L 495.507606 -57.550312 
L 498.296968 -57.550312 
L 501.08633 -57.550312 
L 503.875692 -57.550312 
L 506.665054 -57.550312 
L 509.454416 -57.550312 
L 512.243778 -57.550312 
L 515.03314 -57.550312 
L 517.822502 -57.550312 
L 520.611864 -57.550312 
L 523.401226 -57.550312 
L 526.190588 -57.550312 
L 528.97995 -57.550312 
L 531.769312 -57.550312 
L 534.558674 -57.550312 
L 537.348036 -57.550312 
L 540.137398 -57.550312 
L 542.92676 -57.550312 
L 545.716122 -57.550312 
L 548.505484 -57.550312 
L 551.294846 -57.550312 
L 554.084208 -57.550312 
L 556.87357 -57.550312 
L 559.662932 -57.550312 
L 562.452294 -57.550312 
L 565.241656 -57.550312 
L 568.031018 -57.550312 
L 570.82038 -57.550312 
L 573.609742 -57.550312 
L 576.399104 -57.550312 
L 579.188466 -57.550312 
L 581.977828 -57.550312 
L 584.76719 -57.550312 
L 587.556552 -57.550312 
L 590.345914 -57.550312 
L 593.135276 -57.550312 
L 595.924638 -57.550312 
L 598.714 -57.550312 
L 601.503362 -57.550312 
L 604.292724 -57.550312 
L 607.082086 -57.550312 
L 609.871448 -57.550312 
L 612.66081 -57.550312 
L 615.450172 -57.550312 
L 618.239534 -57.550312 
L 621.028896 -57.550312 
L 623.818258 -57.550312 
L 626.60762 -57.550312 
L 629.396982 -57.550312 
L 632.186344 -57.550312 
L 634.975706 -57.550312 
L 637.765068 -57.550312 
L 637.765068 -57.578987 
L 637.765068 -57.578987 
L 634.975706 -57.586334 
L 632.186344 -57.595354 
L 629.396982 -57.606374 
L 626.60762 -57.619773 
L 623.818258 -57.635982 
L 621.028896 -57.655497 
L 618.239534 -57.678877 
L 615.450172 -57.706753 
L 612.66081 -57.739828 
L 609.871448 -57.778884 
L 607.082086 -57.824783 
L 604.292724 -57.878468 
L 601.503362 -57.940964 
L 598.714 -58.013375 
L 595.924638 -58.096884 
L 593.135276 -58.192746 
L 590.345914 -58.302286 
L 587.556552 -58.426886 
L 584.76719 -58.567976 
L 581.977828 -58.727029 
L 579.188466 -58.905537 
L 576.399104 -59.105007 
L 573.609742 -59.326937 
L 570.82038 -59.572803 
L 568.031018 -59.84404 
L 565.241656 -60.142022 
L 562.452294 -60.468045 
L 559.662932 -60.823308 
L 556.87357 -61.208891 
L 554.084208 -61.625742 
L 551.294846 -62.074653 
L 548.505484 -62.556251 
L 545.716122 -63.070976 
L 542.92676 -63.619069 
L 540.137398 -64.200559 
L 537.348036 -64.815247 
L 534.558674 -65.4627 
L 531.769312 -66.142233 
L 528.97995 -66.852906 
L 526.190588 -67.593506 
L 523.401226 -68.362547 
L 520.611864 -69.158252 
L 517.822502 -69.978552 
L 515.03314 -70.821076 
L 512.243778 -71.683148 
L 509.454416 -72.561778 
L 506.665054 -73.453666 
L 503.875692 -74.355203 
L 501.08633 -75.262474 
L 498.296968 -76.171272 
L 495.507606 -77.077114 
L 492.718244 -77.975262 
L 489.928882 -78.860757 
L 487.13952 -79.728457 
L 484.350158 -80.573081 
L 481.560796 -81.389272 
L 478.771434 -82.171652 
L 475.982072 -82.914905 
L 473.19271 -83.613847 
L 470.403348 -84.263518 
L 467.613986 -84.859271 
L 464.824624 -85.396862 
L 462.035262 -85.872544 
L 459.2459 -86.283158 
L 456.456538 -86.626215 
L 453.667176 -86.899976 
L 450.877814 -87.103515 
L 448.088452 -87.236776 
L 445.29909 -87.300607 
L 442.509728 -87.296778 
L 439.720366 -87.227987 
L 436.931004 -87.097834 
L 434.141642 -86.910782 
L 431.35228 -86.672098 
L 428.562918 -86.38777 
L 425.773556 -86.064404 
L 422.984194 -85.709116 
L 420.194832 -85.329397 
L 417.40547 -84.93298 
L 414.616108 -84.527688 
L 411.826746 -84.121289 
L 409.037384 -83.721351 
L 406.248022 -83.335095 
L 403.45866 -82.969262 
L 400.669298 -82.629992 
L 397.879936 -82.322714 
L 395.090574 -82.052057 
L 392.301212 -81.821779 
L 389.51185 -81.634712 
L 386.722488 -81.49274 
L 383.933126 -81.396781 
L 381.143764 -81.346807 
L 378.354403 -81.341868 
L 375.565041 -81.38015 
L 372.775679 -81.459031 
L 369.986317 -81.575169 
L 367.196955 -81.724586 
L 364.407593 -81.90277 
L 361.618231 -82.104779 
L 358.828869 -82.325347 
L 356.039507 -82.558996 
L 353.250145 -82.800141 
L 350.460783 -83.04319 
L 347.671421 -83.282644 
L 344.882059 -83.513181 
L 342.092697 -83.729742 
L 339.303335 -83.927592 
L 336.513973 -84.102387 
L 333.724611 -84.250213 
L 330.935249 -84.367628 
L 328.145887 -84.451683 
L 325.356525 -84.499935 
L 322.567163 -84.510454 
L 319.777801 -84.481812 
L 316.988439 -84.413074 
L 314.199077 -84.303772 
L 311.409715 -84.153884 
L 308.620353 -83.963794 
L 305.830991 -83.734263 
L 303.041629 -83.466391 
L 300.252267 -83.161572 
L 297.462905 -82.821465 
L 294.673543 -82.447943 
L 291.884181 -82.043067 
L 289.094819 -81.60904 
L 286.305457 -81.148179 
L 283.516095 -80.662881 
L 280.726733 -80.155588 
L 277.937371 -79.628769 
L 275.148009 -79.084883 
L 272.358647 -78.526363 
L 269.569285 -77.95559 
L 266.779923 -77.374873 
L 263.990561 -76.786431 
L 261.201199 -76.19238 
L 258.411837 -75.594712 
L 255.622475 -74.995291 
L 252.833113 -74.395838 
L 250.043751 -73.797925 
L 247.254389 -73.202974 
L 244.465027 -72.612254 
L 241.675665 -72.026884 
L 238.886303 -71.447836 
L 236.096941 -70.875947 
L 233.307579 -70.31193 
L 230.518217 -69.756382 
L 227.728855 -69.209806 
L 224.939493 -68.672623 
L 222.150131 -68.145192 
L 219.360769 -67.627826 
L 216.571407 -67.120809 
L 213.782045 -66.624412 
L 210.992683 -66.138905 
L 208.203321 -65.664572 
L 205.413959 -65.201715 
L 202.624597 -64.750662 
L 199.835235 -64.311771 
L 197.045873 -63.885423 
L 194.256511 -63.472026 
L 191.467149 -63.072004 
L 188.677787 -62.685789 
L 185.888425 -62.313809 
L 183.099063 -61.95648 
L 180.309701 -61.614192 
L 177.520339 -61.287293 
L 174.730977 -60.976081 
L 171.941615 -60.680793 
L 169.152253 -60.401591 
L 166.362891 -60.138559 
L 163.573529 -59.891695 
L 160.784167 -59.660908 
L 157.994805 -59.446014 
L 155.205443 -59.246741 
L 152.416081 -59.062731 
L 149.626719 -58.893542 
L 146.837357 -58.738661 
L 144.047995 -58.597506 
L 141.258633 -58.469439 
L 138.469271 -58.353776 
L 135.679909 -58.249796 
L 132.890547 -58.156755 
L 130.101185 -58.073891 
L 127.311823 -58.000441 
L 124.522461 -57.935646 
L 121.733099 -57.878759 
L 118.943737 -57.829057 
L 116.154375 -57.785842 
L 113.365013 -57.74845 
L 110.575651 -57.716256 
L 107.786289 -57.688672 
L 104.996927 -57.665155 
L 102.207565 -57.645205 
L 99.418203 -57.628364 
L 96.628841 -57.614219 
L 93.839479 -57.602397 
L 91.050117 -57.592566 
L 88.260755 -57.584432 
L 85.471393 -57.577735 
L 82.682031 -57.57225 
z
" style="stroke: #e8e5e1"/>
    </defs>
    <g clip-path="url(#p2204e8b2f4)">
     <use xlink:href="#m2e6f07651f" x="0" y="357.935625" style="fill: #e8e5e1; fill-opacity: 0.5; stroke: #e8e5e1"/>
    </g>
   </g>
   <g id="line2d_15">
    <path d="M 288.629533 300.046404 
L 302.110777 299.653537 
L 311.740237 299.171398 
L 321.369697 298.443348 
L 329.073264 297.629928 
L 336.776832 296.564781 
L 342.554508 295.576355 
L 348.332184 294.409272 
L 354.10986 293.052912 
L 359.887536 291.501692 
L 365.665211 289.756272 
L 371.442887 287.824532 
L 379.146455 284.98736 
L 386.850023 281.906916 
L 398.405375 277.014069 
L 411.886618 271.307677 
L 419.590186 268.256025 
L 427.293754 265.474511 
L 433.07143 263.609036 
L 438.849105 261.956107 
L 444.626781 260.527807 
L 450.404457 259.328623 
L 456.182133 258.356852 
L 461.959809 257.606537 
L 467.737485 257.069682 
L 473.515161 256.738426 
L 479.292836 256.606916 
L 485.070512 256.672598 
L 490.848188 256.936765 
L 496.625864 257.404279 
L 502.40354 258.082515 
L 508.181216 258.979659 
L 513.958891 260.102596 
L 519.736567 261.454681 
L 525.514243 263.033679 
L 531.291919 264.830155 
L 537.069595 266.826523 
L 544.773163 269.753401 
L 554.402622 273.719057 
L 577.513326 283.472917 
L 585.216894 286.440624 
L 592.920461 289.132449 
L 598.698137 290.94123 
L 604.475813 292.557596 
L 610.253489 293.978574 
L 616.031165 295.207792 
L 621.808841 296.254334 
L 629.512408 297.38889 
L 637.215976 298.261254 
L 644.919544 298.914027 
L 654.549004 299.485409 
L 666.104355 299.909811 
L 671.882031 300.046404 
L 671.882031 300.046404 
" clip-path="url(#p2204e8b2f4)" style="fill: none; stroke: #d4a84b; stroke-width: 1.5; stroke-linecap: round"/>
   </g>
   <g id="line2d_16">
    <path d="M 331.602881 300.047209 
L 339.949489 299.693495 
L 346.904996 299.186884 
L 352.469402 298.581835 
L 358.033807 297.744593 
L 362.207111 296.932704 
L 366.380416 295.939827 
L 370.55372 294.748162 
L 374.727024 293.344917 
L 378.900328 291.724308 
L 383.073632 289.889384 
L 387.246937 287.853428 
L 392.811342 284.869543 
L 399.766849 280.834034 
L 413.677863 272.63316 
L 419.242269 269.639092 
L 424.806674 266.93468 
L 430.37108 264.536348 
L 435.935486 262.40002 
L 455.410905 255.286433 
L 460.975311 252.821527 
L 466.539716 250.047862 
L 473.495223 246.262015 
L 481.841832 241.737406 
L 486.015136 239.750767 
L 488.797339 238.617972 
L 491.579542 237.68408 
L 494.361744 236.985647 
L 497.143947 236.555398 
L 499.92615 236.420914 
L 502.708353 236.603534 
L 505.490556 237.11749 
L 508.272758 237.96933 
L 511.054961 239.157647 
L 513.837164 240.673113 
L 516.619367 242.498827 
L 519.40157 244.61093 
L 522.183772 246.979468 
L 526.357077 250.935471 
L 530.530381 255.255916 
L 537.485888 262.879222 
L 544.441395 270.477763 
L 548.614699 274.794401 
L 552.788003 278.816409 
L 556.961307 282.47982 
L 561.134612 285.745221 
L 563.916814 287.69199 
L 566.699017 289.454199 
L 569.48122 291.03538 
L 572.263423 292.441931 
L 576.436727 294.243863 
L 580.610031 295.709081 
L 584.783335 296.878788 
L 588.95664 297.795846 
L 593.129944 298.502125 
L 598.694349 299.182707 
L 604.258755 299.637964 
L 608.432059 299.871497 
L 608.432059 299.871497 
" clip-path="url(#p2204e8b2f4)" style="fill: none; stroke: #4a90a4; stroke-width: 1.5; stroke-linecap: round"/>
   </g>
   <g id="line2d_17">
    <path d="M 437.445907 298.92627 
L 439.235302 298.100276 
L 440.577348 297.23493 
L 441.919395 296.098413 
L 443.261441 294.627692 
L 444.603488 292.752686 
L 445.945534 290.397963 
L 447.28758 287.485344 
L 448.629627 283.937453 
L 449.971673 279.682155 
L 451.31372 274.657716 
L 452.655766 268.818421 
L 453.997812 262.140227 
L 455.787208 251.940344 
L 457.576603 240.351702 
L 459.813347 224.22937 
L 462.944788 199.769217 
L 466.970928 168.511141 
L 469.207672 152.956244 
L 470.997067 142.05889 
L 472.339113 134.942825 
L 473.68116 128.79382 
L 475.023206 123.631185 
L 476.365252 119.447587 
L 477.707299 116.217392 
L 478.601996 114.576663 
L 479.496694 113.333937 
L 480.391392 112.480065 
L 481.286089 112.008084 
L 482.180787 111.913898 
L 483.075484 112.196667 
L 483.970182 112.85889 
L 484.86488 113.906163 
L 485.759577 115.346644 
L 486.654275 117.190242 
L 487.548972 119.447587 
L 488.891019 123.631185 
L 490.233065 128.79382 
L 491.575112 134.942825 
L 492.917158 142.05889 
L 494.706553 152.956244 
L 496.495948 165.254247 
L 499.180041 185.583782 
L 505.442924 234.095222 
L 507.679668 249.167383 
L 509.469064 259.727369 
L 511.258459 268.818421 
L 512.600505 274.657716 
L 513.942552 279.682155 
L 515.284598 283.937453 
L 516.626644 287.485344 
L 517.968691 290.397963 
L 519.310737 292.752686 
L 520.652784 294.627692 
L 521.99483 296.098413 
L 523.336877 297.23493 
L 524.678923 298.100276 
L 526.468318 298.92627 
L 526.468318 298.92627 
" clip-path="url(#p2204e8b2f4)" style="fill: none; stroke: #6b6080; stroke-width: 1.5; stroke-linecap: round"/>
   </g>
   <g id="line2d_18">
    <path d="M 423.999334 299.088343 
L 426.012336 298.354101 
L 427.522088 297.584878 
L 429.031839 296.574607 
L 430.54159 295.267256 
L 432.051342 293.600528 
L 433.561093 291.50737 
L 435.070845 288.918288 
L 436.580596 285.764502 
L 438.090348 281.981887 
L 439.600099 277.515569 
L 441.109851 272.32491 
L 442.619602 266.388538 
L 444.129353 259.708979 
L 446.142355 249.703256 
L 448.155357 238.588079 
L 451.17486 220.403509 
L 457.717116 180.264771 
L 459.730118 169.332845 
L 461.74312 159.645983 
L 463.252872 153.320379 
L 464.762623 147.854413 
L 466.272375 143.265249 
L 467.782126 139.546371 
L 468.788627 137.539774 
L 469.795128 135.900965 
L 470.801629 134.620494 
L 471.80813 133.689554 
L 472.814631 133.100892 
L 473.821132 132.849533 
L 474.827633 132.933257 
L 475.834134 133.352809 
L 476.840635 134.111832 
L 477.847136 135.216515 
L 478.853637 136.67499 
L 479.860137 138.496511 
L 480.866638 140.690461 
L 482.37639 144.697537 
L 483.886141 149.579277 
L 485.395893 155.335045 
L 486.905644 161.93846 
L 488.918646 171.959001 
L 490.931648 183.159885 
L 493.951151 201.468766 
L 499.990157 238.588079 
L 502.506409 252.316393 
L 504.519411 262.016815 
L 506.532413 270.429384 
L 508.042164 275.867331 
L 509.551916 280.57143 
L 511.061667 284.576447 
L 512.571419 287.933075 
L 514.08117 290.702891 
L 515.590922 292.953598 
L 517.100673 294.754842 
L 518.610424 296.17479 
L 520.120176 297.277531 
L 521.629927 298.121304 
L 523.642929 298.931237 
L 524.14618 299.088343 
L 524.14618 299.088343 
" clip-path="url(#p2204e8b2f4)" style="fill: none; stroke: #8b7355; stroke-width: 1.5; stroke-linecap: round"/>
   </g>
   <g id="line2d_19">
    <path d="M 401.188128 299.474897 
L 403.34198 298.839411 
L 404.957369 298.13103 
L 406.572757 297.153502 
L 408.188146 295.830159 
L 409.265072 294.712755 
L 410.341998 293.374282 
L 411.418923 291.784979 
L 412.495849 289.914437 
L 413.572775 287.732441 
L 415.188164 283.812614 
L 416.803553 279.040719 
L 418.418941 273.352242 
L 420.03433 266.71532 
L 421.649719 259.140945 
L 423.80357 247.699457 
L 425.957422 235.014442 
L 433.495903 188.957885 
L 435.111291 180.671093 
L 436.72668 173.530451 
L 437.803606 169.490389 
L 438.880532 166.061635 
L 439.957458 163.254345 
L 441.034383 161.060608 
L 442.111309 159.454974 
L 443.188235 158.395807 
L 444.265161 157.827408 
L 445.342087 157.682822 
L 446.419013 157.887182 
L 447.495938 158.361421 
L 449.111327 159.406028 
L 453.957493 162.86753 
L 455.572882 163.677616 
L 457.726734 164.451837 
L 460.957511 165.542947 
L 462.034437 166.107762 
L 463.111363 166.879472 
L 464.188288 167.921562 
L 465.265214 169.2928 
L 466.34214 171.044377 
L 467.419066 173.217484 
L 468.495992 175.841424 
L 469.572918 178.932306 
L 471.188306 184.445246 
L 472.803695 190.960045 
L 474.419084 198.361388 
L 476.572935 209.310078 
L 480.342176 229.98329 
L 483.572953 247.353879 
L 485.726805 257.91986 
L 487.880656 267.29426 
L 489.496045 273.433108 
L 491.111434 278.77533 
L 492.726823 283.331182 
L 494.342211 287.139957 
L 495.9576 290.262417 
L 497.572989 292.773201 
L 499.188378 294.753862 
L 500.803766 296.286963 
L 502.419155 297.451497 
L 504.034544 298.319666 
L 505.649932 298.954952 
L 507.803784 299.531571 
L 508.342247 299.638399 
L 508.342247 299.638399 
" clip-path="url(#p2204e8b2f4)" style="fill: none; stroke: #5c8b6b; stroke-width: 1.5; stroke-linecap: round"/>
   </g>
   <g id="line2d_20">
    <path d="M 384.265264 299.594339 
L 386.725666 299.082588 
L 388.570967 298.52665 
L 390.416269 297.775746 
L 392.261571 296.779685 
L 394.106872 295.482252 
L 395.952174 293.822917 
L 397.797476 291.739464 
L 399.642777 289.171539 
L 401.488079 286.06499 
L 403.33338 282.37675 
L 405.178682 278.079858 
L 407.023984 273.168102 
L 408.869285 267.65971 
L 411.329688 259.46845 
L 413.79009 250.478624 
L 417.480693 236.062774 
L 423.016598 214.40833 
L 426.092101 203.418909 
L 428.552503 195.511387 
L 431.012905 188.497466 
L 432.858207 183.839281 
L 434.703508 179.687797 
L 436.54881 176.024874 
L 438.394111 172.831789 
L 440.239413 170.096439 
L 442.084715 167.819106 
L 443.930016 166.016116 
L 445.160217 165.093535 
L 446.390418 164.410358 
L 447.62062 163.983325 
L 448.850821 163.831304 
L 450.081022 163.974505 
L 451.311223 164.4336 
L 452.541424 165.228745 
L 453.771625 166.37858 
L 455.001826 167.899226 
L 456.232027 169.80332 
L 457.462228 172.099135 
L 458.692429 174.789818 
L 460.537731 179.55884 
L 462.383033 185.173815 
L 464.228334 191.566899 
L 466.688736 201.125079 
L 469.764239 214.282474 
L 478.375647 252.067747 
L 480.836049 261.525695 
L 482.681351 267.916761 
L 484.526652 273.641352 
L 486.371954 278.67427 
L 488.217255 283.018003 
L 490.062557 286.698691 
L 491.907859 289.761115 
L 493.75316 292.263276 
L 495.598462 294.271063 
L 497.443764 295.853434 
L 499.289065 297.07839 
L 501.134367 298.009898 
L 502.979668 298.705778 
L 505.440071 299.353214 
L 506.670272 299.584799 
L 506.670272 299.584799 
" clip-path="url(#p2204e8b2f4)" style="fill: none; stroke: #6b6080; stroke-width: 1.5; stroke-linecap: round"/>
   </g>
   <g id="line2d_21">
    <path d="M 400.016412 299.262911 
L 401.148997 298.689193 
L 402.281582 297.866773 
L 403.414167 296.710093 
L 404.546752 295.113962 
L 405.679337 292.952893 
L 406.811922 290.081978 
L 407.944507 286.339807 
L 409.077092 281.553835 
L 410.209676 275.548476 
L 411.342261 268.155963 
L 412.474846 259.229734 
L 413.607431 248.659753 
L 415.117544 231.920316 
L 416.627658 212.226824 
L 418.515299 183.997883 
L 421.535525 133.997196 
L 423.800695 97.442885 
L 425.310808 76.181467 
L 426.443393 62.877681 
L 427.575978 52.413397 
L 428.331035 47.215612 
L 429.086091 43.539711 
L 429.46362 42.288817 
L 429.841148 41.433609 
L 430.218676 40.97446 
L 430.596205 40.90942 
L 430.973733 41.234199 
L 431.351261 41.942188 
L 431.72879 43.024491 
L 432.483846 46.265413 
L 433.238903 50.8429 
L 434.371488 59.891848 
L 435.504073 71.027576 
L 437.391714 92.39044 
L 440.411941 127.050641 
L 441.922054 141.994346 
L 443.432167 154.512189 
L 444.564752 162.304287 
L 445.697337 168.913244 
L 447.20745 176.383181 
L 451.73779 197.233255 
L 453.247903 205.721766 
L 455.135544 217.894494 
L 457.778242 236.843668 
L 460.798469 258.160703 
L 462.68611 269.698833 
L 464.196223 277.462207 
L 465.328808 282.357034 
L 466.461393 286.466632 
L 467.593978 289.837313 
L 468.726563 292.539376 
L 469.859148 294.657313 
L 470.991733 296.281091 
L 472.124318 297.49917 
L 473.256903 298.393465 
L 474.389488 299.036224 
L 475.144544 299.355643 
L 475.144544 299.355643 
" clip-path="url(#p2204e8b2f4)" style="fill: none; stroke: #a99bbd; stroke-width: 1.5; stroke-linecap: round"/>
   </g>
   <g id="line2d_22">
    <path d="M 115.951627 300.340143 
L 131.451085 300.16722 
L 141.138246 299.879285 
L 148.887975 299.46569 
L 156.637704 298.819354 
L 162.450001 298.145086 
L 168.262298 297.287261 
L 174.074595 296.237984 
L 179.886891 295.002713 
L 187.63662 293.10231 
L 197.323782 290.435917 
L 218.635536 284.197203 
L 230.26013 280.653574 
L 238.009859 278.066745 
L 245.759588 275.196825 
L 253.509317 272.035909 
L 265.133911 266.967714 
L 274.821072 262.793008 
L 282.570801 259.682341 
L 290.32053 256.857402 
L 296.132827 254.956696 
L 301.945123 253.280322 
L 307.75742 251.886685 
L 311.632285 251.153718 
L 315.507149 250.608546 
L 319.382014 250.276962 
L 323.256878 250.181004 
L 327.131743 250.336405 
L 331.006607 250.750791 
L 334.881472 251.422879 
L 338.756336 252.342725 
L 342.631201 253.492877 
L 346.506065 254.85014 
L 350.38093 256.38757 
L 356.193226 258.968419 
L 362.005523 261.792297 
L 371.692684 266.790367 
L 385.25471 273.781004 
L 393.004439 277.500581 
L 400.754168 280.916092 
L 408.503897 284.019476 
L 416.253626 286.848026 
L 424.003355 289.446119 
L 431.753084 291.8289 
L 439.502813 293.96915 
L 445.31511 295.382792 
L 451.127407 296.606953 
L 456.939704 297.627901 
L 462.752 298.444936 
L 468.564297 299.070848 
L 476.314026 299.649779 
L 484.063755 300.002348 
L 495.688349 300.26003 
L 501.500645 300.318045 
L 501.500645 300.318045 
" clip-path="url(#p2204e8b2f4)" style="fill: none; stroke: #c7bddc; stroke-width: 1.5; stroke-linecap: round"/>
   </g>
   <g id="patch_3">
    <path d="M 53.222031 300.385312 
L 53.222031 27.935625 
" style="fill: none; stroke: #d8d4cf; stroke-width: 1.25; stroke-linejoin: miter; stroke-linecap: square"/>
   </g>
   <g id="patch_4">
    <path d="M 701.342031 300.385312 
L 701.342031 27.935625 
" style="fill: none; stroke: #d8d4cf; stroke-width: 1.25; stroke-linejoin: miter; stroke-linecap: square"/>
   </g>
   <g id="patch_5">
    <path d="M 53.222031 300.385312 
L 701.342031 300.385312 
" style="fill: none; stroke: #d8d4cf; stroke-width: 1.25; stroke-linejoin: miter; stroke-linecap: square"/>
   </g>
   <g id="patch_6">
    <path d="M 53.222031 27.935625 
L 701.342031 27.935625 
" style="fill: none; stroke: #d8d4cf; stroke-width: 1.25; stroke-linejoin: miter; stroke-linecap: square"/>
   </g>
   <g id="text_17">
    <!-- Budget Distributions by Category -->
    <g style="fill: #3a3a48" transform="translate(281.616719 15.935625) scale(0.12 -0.12)">
     <defs>
      <path id="Arial-BoldMT-42" d="M 469 4581 
L 2300 4581 
Q 2844 4581 3111 4536 
Q 3378 4491 3589 4347 
Q 3800 4203 3940 3964 
Q 4081 3725 4081 3428 
Q 4081 3106 3907 2837 
Q 3734 2569 3438 2434 
Q 3856 2313 4081 2019 
Q 4306 1725 4306 1328 
Q 4306 1016 4161 720 
Q 4016 425 3764 248 
Q 3513 72 3144 31 
Q 2913 6 2028 0 
L 469 0 
L 469 4581 
z
M 1394 3819 
L 1394 2759 
L 2000 2759 
Q 2541 2759 2672 2775 
Q 2909 2803 3045 2939 
Q 3181 3075 3181 3297 
Q 3181 3509 3064 3642 
Q 2947 3775 2716 3803 
Q 2578 3819 1925 3819 
L 1394 3819 
z
M 1394 1997 
L 1394 772 
L 2250 772 
Q 2750 772 2884 800 
Q 3091 838 3220 983 
Q 3350 1128 3350 1372 
Q 3350 1578 3250 1722 
Q 3150 1866 2961 1931 
Q 2772 1997 2141 1997 
L 1394 1997 
z
" transform="scale(0.015625)"/>
      <path id="Arial-BoldMT-75" d="M 2644 0 
L 2644 497 
Q 2463 231 2167 78 
Q 1872 -75 1544 -75 
Q 1209 -75 943 72 
Q 678 219 559 484 
Q 441 750 441 1219 
L 441 3319 
L 1319 3319 
L 1319 1794 
Q 1319 1094 1367 936 
Q 1416 778 1544 686 
Q 1672 594 1869 594 
Q 2094 594 2272 717 
Q 2450 841 2515 1023 
Q 2581 1206 2581 1919 
L 2581 3319 
L 3459 3319 
L 3459 0 
L 2644 0 
z
" transform="scale(0.015625)"/>
      <path id="Arial-BoldMT-64" d="M 3503 0 
L 2688 0 
L 2688 488 
Q 2484 203 2207 64 
Q 1931 -75 1650 -75 
Q 1078 -75 670 386 
Q 263 847 263 1672 
Q 263 2516 659 2955 
Q 1056 3394 1663 3394 
Q 2219 3394 2625 2931 
L 2625 4581 
L 3503 4581 
L 3503 0 
z
M 1159 1731 
Q 1159 1200 1306 963 
Q 1519 619 1900 619 
Q 2203 619 2415 876 
Q 2628 1134 2628 1647 
Q 2628 2219 2422 2470 
Q 2216 2722 1894 2722 
Q 1581 2722 1370 2473 
Q 1159 2225 1159 1731 
z
" transform="scale(0.015625)"/>
      <path id="Arial-BoldMT-67" d="M 378 -219 
L 1381 -341 
Q 1406 -516 1497 -581 
Q 1622 -675 1891 -675 
Q 2234 -675 2406 -572 
Q 2522 -503 2581 -350 
Q 2622 -241 2622 53 
L 2622 538 
Q 2228 0 1628 0 
Q 959 0 569 566 
Q 263 1013 263 1678 
Q 263 2513 664 2953 
Q 1066 3394 1663 3394 
Q 2278 3394 2678 2853 
L 2678 3319 
L 3500 3319 
L 3500 341 
Q 3500 -247 3403 -537 
Q 3306 -828 3131 -993 
Q 2956 -1159 2664 -1253 
Q 2372 -1347 1925 -1347 
Q 1081 -1347 728 -1058 
Q 375 -769 375 -325 
Q 375 -281 378 -219 
z
M 1163 1728 
Q 1163 1200 1367 954 
Q 1572 709 1872 709 
Q 2194 709 2416 961 
Q 2638 1213 2638 1706 
Q 2638 2222 2425 2472 
Q 2213 2722 1888 2722 
Q 1572 2722 1367 2476 
Q 1163 2231 1163 1728 
z
" transform="scale(0.015625)"/>
      <path id="Arial-BoldMT-65" d="M 2381 1056 
L 3256 909 
Q 3088 428 2723 176 
Q 2359 -75 1813 -75 
Q 947 -75 531 491 
Q 203 944 203 1634 
Q 203 2459 634 2926 
Q 1066 3394 1725 3394 
Q 2466 3394 2894 2905 
Q 3322 2416 3303 1406 
L 1103 1406 
Q 1113 1016 1316 798 
Q 1519 581 1822 581 
Q 2028 581 2168 693 
Q 2309 806 2381 1056 
z
M 2431 1944 
Q 2422 2325 2234 2523 
Q 2047 2722 1778 2722 
Q 1491 2722 1303 2513 
Q 1116 2303 1119 1944 
L 2431 1944 
z
" transform="scale(0.015625)"/>
      <path id="Arial-BoldMT-74" d="M 1981 3319 
L 1981 2619 
L 1381 2619 
L 1381 1281 
Q 1381 875 1398 808 
Q 1416 741 1477 697 
Q 1538 653 1625 653 
Q 1747 653 1978 738 
L 2053 56 
Q 1747 -75 1359 -75 
Q 1122 -75 931 4 
Q 741 84 652 211 
Q 563 338 528 553 
Q 500 706 500 1172 
L 500 2619 
L 97 2619 
L 97 3319 
L 500 3319 
L 500 3978 
L 1381 4491 
L 1381 3319 
L 1981 3319 
z
" transform="scale(0.015625)"/>
      <path id="Arial-BoldMT-20" transform="scale(0.015625)"/>
      <path id="Arial-BoldMT-44" d="M 463 4581 
L 2153 4581 
Q 2725 4581 3025 4494 
Q 3428 4375 3715 4072 
Q 4003 3769 4153 3330 
Q 4303 2891 4303 2247 
Q 4303 1681 4163 1272 
Q 3991 772 3672 463 
Q 3431 228 3022 97 
Q 2716 0 2203 0 
L 463 0 
L 463 4581 
z
M 1388 3806 
L 1388 772 
L 2078 772 
Q 2466 772 2638 816 
Q 2863 872 3011 1006 
Q 3159 1141 3253 1448 
Q 3347 1756 3347 2288 
Q 3347 2819 3253 3103 
Q 3159 3388 2990 3547 
Q 2822 3706 2563 3763 
Q 2369 3806 1803 3806 
L 1388 3806 
z
" transform="scale(0.015625)"/>
      <path id="Arial-BoldMT-69" d="M 459 3769 
L 459 4581 
L 1338 4581 
L 1338 3769 
L 459 3769 
z
M 459 0 
L 459 3319 
L 1338 3319 
L 1338 0 
L 459 0 
z
" transform="scale(0.015625)"/>
      <path id="Arial-BoldMT-73" d="M 150 947 
L 1031 1081 
Q 1088 825 1259 692 
Q 1431 559 1741 559 
Q 2081 559 2253 684 
Q 2369 772 2369 919 
Q 2369 1019 2306 1084 
Q 2241 1147 2013 1200 
Q 950 1434 666 1628 
Q 272 1897 272 2375 
Q 272 2806 612 3100 
Q 953 3394 1669 3394 
Q 2350 3394 2681 3172 
Q 3013 2950 3138 2516 
L 2309 2363 
Q 2256 2556 2107 2659 
Q 1959 2763 1684 2763 
Q 1338 2763 1188 2666 
Q 1088 2597 1088 2488 
Q 1088 2394 1175 2328 
Q 1294 2241 1995 2081 
Q 2697 1922 2975 1691 
Q 3250 1456 3250 1038 
Q 3250 581 2869 253 
Q 2488 -75 1741 -75 
Q 1063 -75 667 200 
Q 272 475 150 947 
z
" transform="scale(0.015625)"/>
      <path id="Arial-BoldMT-72" d="M 1300 0 
L 422 0 
L 422 3319 
L 1238 3319 
L 1238 2847 
Q 1447 3181 1614 3287 
Q 1781 3394 1994 3394 
Q 2294 3394 2572 3228 
L 2300 2463 
Q 2078 2606 1888 2606 
Q 1703 2606 1575 2504 
Q 1447 2403 1373 2137 
Q 1300 1872 1300 1025 
L 1300 0 
z
" transform="scale(0.015625)"/>
      <path id="Arial-BoldMT-62" d="M 422 0 
L 422 4581 
L 1300 4581 
L 1300 2931 
Q 1706 3394 2263 3394 
Q 2869 3394 3266 2955 
Q 3663 2516 3663 1694 
Q 3663 844 3258 384 
Q 2853 -75 2275 -75 
Q 1991 -75 1714 67 
Q 1438 209 1238 488 
L 1238 0 
L 422 0 
z
M 1294 1731 
Q 1294 1216 1456 969 
Q 1684 619 2063 619 
Q 2353 619 2558 867 
Q 2763 1116 2763 1650 
Q 2763 2219 2556 2470 
Q 2350 2722 2028 2722 
Q 1713 2722 1503 2476 
Q 1294 2231 1294 1731 
z
" transform="scale(0.015625)"/>
      <path id="Arial-BoldMT-6f" d="M 256 1706 
Q 256 2144 472 2553 
Q 688 2963 1083 3178 
Q 1478 3394 1966 3394 
Q 2719 3394 3200 2905 
Q 3681 2416 3681 1669 
Q 3681 916 3195 420 
Q 2709 -75 1972 -75 
Q 1516 -75 1102 131 
Q 688 338 472 736 
Q 256 1134 256 1706 
z
M 1156 1659 
Q 1156 1166 1390 903 
Q 1625 641 1969 641 
Q 2313 641 2545 903 
Q 2778 1166 2778 1666 
Q 2778 2153 2545 2415 
Q 2313 2678 1969 2678 
Q 1625 2678 1390 2415 
Q 1156 2153 1156 1659 
z
" transform="scale(0.015625)"/>
      <path id="Arial-BoldMT-6e" d="M 3478 0 
L 2600 0 
L 2600 1694 
Q 2600 2231 2544 2389 
Q 2488 2547 2361 2634 
Q 2234 2722 2056 2722 
Q 1828 2722 1647 2597 
Q 1466 2472 1398 2265 
Q 1331 2059 1331 1503 
L 1331 0 
L 453 0 
L 453 3319 
L 1269 3319 
L 1269 2831 
Q 1703 3394 2363 3394 
Q 2653 3394 2893 3289 
Q 3134 3184 3257 3021 
Q 3381 2859 3429 2653 
Q 3478 2447 3478 2063 
L 3478 0 
z
" transform="scale(0.015625)"/>
      <path id="Arial-BoldMT-79" d="M 44 3319 
L 978 3319 
L 1772 963 
L 2547 3319 
L 3456 3319 
L 2284 125 
L 2075 -453 
Q 1959 -744 1854 -897 
Q 1750 -1050 1614 -1145 
Q 1478 -1241 1279 -1294 
Q 1081 -1347 831 -1347 
Q 578 -1347 334 -1294 
L 256 -606 
Q 463 -647 628 -647 
Q 934 -647 1081 -467 
Q 1228 -288 1306 -9 
L 44 3319 
z
" transform="scale(0.015625)"/>
      <path id="Arial-BoldMT-43" d="M 3397 1684 
L 4294 1400 
Q 4088 650 3608 286 
Q 3128 -78 2391 -78 
Q 1478 -78 890 545 
Q 303 1169 303 2250 
Q 303 3394 893 4026 
Q 1484 4659 2447 4659 
Q 3288 4659 3813 4163 
Q 4125 3869 4281 3319 
L 3366 3100 
Q 3284 3456 3026 3662 
Q 2769 3869 2400 3869 
Q 1891 3869 1573 3503 
Q 1256 3138 1256 2319 
Q 1256 1450 1568 1081 
Q 1881 713 2381 713 
Q 2750 713 3015 947 
Q 3281 1181 3397 1684 
z
" transform="scale(0.015625)"/>
      <path id="Arial-BoldMT-61" d="M 1116 2306 
L 319 2450 
Q 453 2931 781 3162 
Q 1109 3394 1756 3394 
Q 2344 3394 2631 3255 
Q 2919 3116 3036 2902 
Q 3153 2688 3153 2116 
L 3144 1091 
Q 3144 653 3186 445 
Q 3228 238 3344 0 
L 2475 0 
Q 2441 88 2391 259 
Q 2369 338 2359 363 
Q 2134 144 1878 34 
Q 1622 -75 1331 -75 
Q 819 -75 523 203 
Q 228 481 228 906 
Q 228 1188 362 1408 
Q 497 1628 739 1745 
Q 981 1863 1438 1950 
Q 2053 2066 2291 2166 
L 2291 2253 
Q 2291 2506 2166 2614 
Q 2041 2722 1694 2722 
Q 1459 2722 1328 2630 
Q 1197 2538 1116 2306 
z
M 2291 1594 
Q 2122 1538 1756 1459 
Q 1391 1381 1278 1306 
Q 1106 1184 1106 997 
Q 1106 813 1243 678 
Q 1381 544 1594 544 
Q 1831 544 2047 700 
Q 2206 819 2256 991 
Q 2291 1103 2291 1419 
L 2291 1594 
z
" transform="scale(0.015625)"/>
     </defs>
     <use xlink:href="#Arial-BoldMT-42"/>
     <use xlink:href="#Arial-BoldMT-75" x="72.216797"/>
     <use xlink:href="#Arial-BoldMT-64" x="133.300781"/>
     <use xlink:href="#Arial-BoldMT-67" x="194.384766"/>
     <use xlink:href="#Arial-BoldMT-65" x="255.46875"/>
     <use xlink:href="#Arial-BoldMT-74" x="311.083984"/>
     <use xlink:href="#Arial-BoldMT-20" x="344.384766"/>
     <use xlink:href="#Arial-BoldMT-44" x="372.167969"/>
     <use xlink:href="#Arial-BoldMT-69" x="444.384766"/>
     <use xlink:href="#Arial-BoldMT-73" x="472.167969"/>
     <use xlink:href="#Arial-BoldMT-74" x="527.783203"/>
     <use xlink:href="#Arial-BoldMT-72" x="561.083984"/>
     <use xlink:href="#Arial-BoldMT-69" x="600"/>
     <use xlink:href="#Arial-BoldMT-62" x="627.783203"/>
     <use xlink:href="#Arial-BoldMT-75" x="688.867188"/>
     <use xlink:href="#Arial-BoldMT-74" x="749.951172"/>
     <use xlink:href="#Arial-BoldMT-69" x="783.251953"/>
     <use xlink:href="#Arial-BoldMT-6f" x="811.035156"/>
     <use xlink:href="#Arial-BoldMT-6e" x="872.119141"/>
     <use xlink:href="#Arial-BoldMT-73" x="933.203125"/>
     <use xlink:href="#Arial-BoldMT-20" x="988.818359"/>
     <use xlink:href="#Arial-BoldMT-62" x="1016.601562"/>
     <use xlink:href="#Arial-BoldMT-79" x="1077.685547"/>
     <use xlink:href="#Arial-BoldMT-20" x="1133.300781"/>
     <use xlink:href="#Arial-BoldMT-43" x="1161.083984"/>
     <use xlink:href="#Arial-BoldMT-61" x="1233.300781"/>
     <use xlink:href="#Arial-BoldMT-74" x="1288.916016"/>
     <use xlink:href="#Arial-BoldMT-65" x="1322.216797"/>
     <use xlink:href="#Arial-BoldMT-67" x="1377.832031"/>
     <use xlink:href="#Arial-BoldMT-6f" x="1438.916016"/>
     <use xlink:href="#Arial-BoldMT-72" x="1500"/>
     <use xlink:href="#Arial-BoldMT-79" x="1538.916016"/>
    </g>
   </g>
   <g id="legend_1">
    <g id="patch_7">
     <path d="M 591.445156 170.566094 
L 693.642031 170.566094 
Q 695.842031 170.566094 695.842031 168.366094 
L 695.842031 35.635625 
Q 695.842031 33.435625 693.642031 33.435625 
L 591.445156 33.435625 
Q 589.245156 33.435625 589.245156 35.635625 
L 589.245156 168.366094 
Q 589.245156 170.566094 591.445156 170.566094 
z
" style="fill: #ffffff; opacity: 0.9; stroke: #e8e5e1; stroke-linejoin: miter"/>
    </g>
    <g id="patch_8">
     <path d="M 594.745156 46.809219 
L 616.745156 46.809219 
L 616.745156 39.109219 
L 594.745156 39.109219 
z
" style="fill: #e8e5e1; fill-opacity: 0.5; stroke: #e8e5e1; stroke-linejoin: miter"/>
    </g>
    <g id="text_18">
     <!-- All projects -->
     <g style="fill: #4a4a5a" transform="translate(625.545156 46.809219) scale(0.11 -0.11)">
      <defs>
       <path id="ArialMT-41" d="M -9 0 
L 1750 4581 
L 2403 4581 
L 4278 0 
L 3588 0 
L 3053 1388 
L 1138 1388 
L 634 0 
L -9 0 
z
M 1313 1881 
L 2866 1881 
L 2388 3150 
Q 2169 3728 2063 4100 
Q 1975 3659 1816 3225 
L 1313 1881 
z
" transform="scale(0.015625)"/>
       <path id="ArialMT-70" d="M 422 -1272 
L 422 3319 
L 934 3319 
L 934 2888 
Q 1116 3141 1344 3267 
Q 1572 3394 1897 3394 
Q 2322 3394 2647 3175 
Q 2972 2956 3137 2557 
Q 3303 2159 3303 1684 
Q 3303 1175 3120 767 
Q 2938 359 2589 142 
Q 2241 -75 1856 -75 
Q 1575 -75 1351 44 
Q 1128 163 984 344 
L 984 -1272 
L 422 -1272 
z
M 931 1641 
Q 931 1000 1190 694 
Q 1450 388 1819 388 
Q 2194 388 2461 705 
Q 2728 1022 2728 1688 
Q 2728 2322 2467 2637 
Q 2206 2953 1844 2953 
Q 1484 2953 1207 2617 
Q 931 2281 931 1641 
z
" transform="scale(0.015625)"/>
       <path id="ArialMT-72" d="M 416 0 
L 416 3319 
L 922 3319 
L 922 2816 
Q 1116 3169 1280 3281 
Q 1444 3394 1641 3394 
Q 1925 3394 2219 3213 
L 2025 2691 
Q 1819 2813 1613 2813 
Q 1428 2813 1281 2702 
Q 1134 2591 1072 2394 
Q 978 2094 978 1738 
L 978 0 
L 416 0 
z
" transform="scale(0.015625)"/>
       <path id="ArialMT-6a" d="M 419 3928 
L 419 4581 
L 981 4581 
L 981 3928 
L 419 3928 
z
M -294 -1288 
L -188 -809 
Q -19 -853 78 -853 
Q 250 -853 334 -739 
Q 419 -625 419 -169 
L 419 3319 
L 981 3319 
L 981 -181 
Q 981 -794 822 -1034 
Q 619 -1347 147 -1347 
Q -81 -1347 -294 -1288 
z
" transform="scale(0.015625)"/>
       <path id="ArialMT-63" d="M 2588 1216 
L 3141 1144 
Q 3050 572 2676 248 
Q 2303 -75 1759 -75 
Q 1078 -75 664 370 
Q 250 816 250 1647 
Q 250 2184 428 2587 
Q 606 2991 970 3192 
Q 1334 3394 1763 3394 
Q 2303 3394 2647 3120 
Q 2991 2847 3088 2344 
L 2541 2259 
Q 2463 2594 2264 2762 
Q 2066 2931 1784 2931 
Q 1359 2931 1093 2626 
Q 828 2322 828 1663 
Q 828 994 1084 691 
Q 1341 388 1753 388 
Q 2084 388 2306 591 
Q 2528 794 2588 1216 
z
" transform="scale(0.015625)"/>
      </defs>
      <use xlink:href="#ArialMT-41"/>
      <use xlink:href="#ArialMT-6c" x="66.699219"/>
      <use xlink:href="#ArialMT-6c" x="88.916016"/>
      <use xlink:href="#ArialMT-20" x="111.132812"/>
      <use xlink:href="#ArialMT-70" x="138.916016"/>
      <use xlink:href="#ArialMT-72" x="194.53125"/>
      <use xlink:href="#ArialMT-6f" x="227.832031"/>
      <use xlink:href="#ArialMT-6a" x="283.447266"/>
      <use xlink:href="#ArialMT-65" x="305.664062"/>
      <use xlink:href="#ArialMT-63" x="361.279297"/>
      <use xlink:href="#ArialMT-74" x="411.279297"/>
      <use xlink:href="#ArialMT-73" x="439.0625"/>
     </g>
    </g>
    <g id="line2d_23">
     <path d="M 594.745156 57.547969 
L 605.745156 57.547969 
L 616.745156 57.547969 
" style="fill: none; stroke: #d4a84b; stroke-width: 1.5; stroke-linecap: round"/>
    </g>
    <g id="text_19">
     <!-- Defense -->
     <g style="fill: #4a4a5a" transform="translate(625.545156 61.397969) scale(0.11 -0.11)">
      <defs>
       <path id="ArialMT-66" d="M 556 0 
L 556 2881 
L 59 2881 
L 59 3319 
L 556 3319 
L 556 3672 
Q 556 4006 616 4169 
Q 697 4388 901 4523 
Q 1106 4659 1475 4659 
Q 1713 4659 2000 4603 
L 1916 4113 
Q 1741 4144 1584 4144 
Q 1328 4144 1222 4034 
Q 1116 3925 1116 3625 
L 1116 3319 
L 1763 3319 
L 1763 2881 
L 1116 2881 
L 1116 0 
L 556 0 
z
" transform="scale(0.015625)"/>
      </defs>
      <use xlink:href="#ArialMT-44"/>
      <use xlink:href="#ArialMT-65" x="72.216797"/>
      <use xlink:href="#ArialMT-66" x="127.832031"/>
      <use xlink:href="#ArialMT-65" x="155.615234"/>
      <use xlink:href="#ArialMT-6e" x="211.230469"/>
      <use xlink:href="#ArialMT-73" x="266.845703"/>
      <use xlink:href="#ArialMT-65" x="316.845703"/>
     </g>
    </g>
    <g id="line2d_24">
     <path d="M 594.745156 72.141875 
L 605.745156 72.141875 
L 616.745156 72.141875 
" style="fill: none; stroke: #4a90a4; stroke-width: 1.5; stroke-linecap: round"/>
    </g>
    <g id="text_20">
     <!-- Space -->
     <g style="fill: #4a4a5a" transform="translate(625.545156 75.991875) scale(0.11 -0.11)">
      <defs>
       <path id="ArialMT-53" d="M 288 1472 
L 859 1522 
Q 900 1178 1048 958 
Q 1197 738 1509 602 
Q 1822 466 2213 466 
Q 2559 466 2825 569 
Q 3091 672 3220 851 
Q 3350 1031 3350 1244 
Q 3350 1459 3225 1620 
Q 3100 1781 2813 1891 
Q 2628 1963 1997 2114 
Q 1366 2266 1113 2400 
Q 784 2572 623 2826 
Q 463 3081 463 3397 
Q 463 3744 659 4045 
Q 856 4347 1234 4503 
Q 1613 4659 2075 4659 
Q 2584 4659 2973 4495 
Q 3363 4331 3572 4012 
Q 3781 3694 3797 3291 
L 3216 3247 
Q 3169 3681 2898 3903 
Q 2628 4125 2100 4125 
Q 1550 4125 1298 3923 
Q 1047 3722 1047 3438 
Q 1047 3191 1225 3031 
Q 1400 2872 2139 2705 
Q 2878 2538 3153 2413 
Q 3553 2228 3743 1945 
Q 3934 1663 3934 1294 
Q 3934 928 3725 604 
Q 3516 281 3123 101 
Q 2731 -78 2241 -78 
Q 1619 -78 1198 103 
Q 778 284 539 648 
Q 300 1013 288 1472 
z
" transform="scale(0.015625)"/>
       <path id="ArialMT-61" d="M 2588 409 
Q 2275 144 1986 34 
Q 1697 -75 1366 -75 
Q 819 -75 525 192 
Q 231 459 231 875 
Q 231 1119 342 1320 
Q 453 1522 633 1644 
Q 813 1766 1038 1828 
Q 1203 1872 1538 1913 
Q 2219 1994 2541 2106 
Q 2544 2222 2544 2253 
Q 2544 2597 2384 2738 
Q 2169 2928 1744 2928 
Q 1347 2928 1158 2789 
Q 969 2650 878 2297 
L 328 2372 
Q 403 2725 575 2942 
Q 747 3159 1072 3276 
Q 1397 3394 1825 3394 
Q 2250 3394 2515 3294 
Q 2781 3194 2906 3042 
Q 3031 2891 3081 2659 
Q 3109 2516 3109 2141 
L 3109 1391 
Q 3109 606 3145 398 
Q 3181 191 3288 0 
L 2700 0 
Q 2613 175 2588 409 
z
M 2541 1666 
Q 2234 1541 1622 1453 
Q 1275 1403 1131 1340 
Q 988 1278 909 1158 
Q 831 1038 831 891 
Q 831 666 1001 516 
Q 1172 366 1500 366 
Q 1825 366 2078 508 
Q 2331 650 2450 897 
Q 2541 1088 2541 1459 
L 2541 1666 
z
" transform="scale(0.015625)"/>
      </defs>
      <use xlink:href="#ArialMT-53"/>
      <use xlink:href="#ArialMT-70" x="66.699219"/>
      <use xlink:href="#ArialMT-61" x="122.314453"/>
      <use xlink:href="#ArialMT-63" x="177.929688"/>
      <use xlink:href="#ArialMT-65" x="227.929688"/>
     </g>
    </g>
    <g id="line2d_25">
     <path d="M 594.745156 86.601719 
L 605.745156 86.601719 
L 616.745156 86.601719 
" style="fill: none; stroke: #6b6080; stroke-width: 1.5; stroke-linecap: round"/>
    </g>
    <g id="text_21">
     <!-- Energy -->
     <g style="fill: #4a4a5a" transform="translate(625.545156 90.451719) scale(0.11 -0.11)">
      <defs>
       <path id="ArialMT-45" d="M 506 0 
L 506 4581 
L 3819 4581 
L 3819 4041 
L 1113 4041 
L 1113 2638 
L 3647 2638 
L 3647 2100 
L 1113 2100 
L 1113 541 
L 3925 541 
L 3925 0 
L 506 0 
z
" transform="scale(0.015625)"/>
      </defs>
      <use xlink:href="#ArialMT-45"/>
      <use xlink:href="#ArialMT-6e" x="66.699219"/>
      <use xlink:href="#ArialMT-65" x="122.314453"/>
      <use xlink:href="#ArialMT-72" x="177.929688"/>
      <use xlink:href="#ArialMT-67" x="211.230469"/>
      <use xlink:href="#ArialMT-79" x="266.845703"/>
     </g>
    </g>
    <g id="line2d_26">
     <path d="M 594.745156 101.190469 
L 605.745156 101.190469 
L 616.745156 101.190469 
" style="fill: none; stroke: #8b7355; stroke-width: 1.5; stroke-linecap: round"/>
    </g>
    <g id="text_22">
     <!-- Transport -->
     <g style="fill: #4a4a5a" transform="translate(625.545156 105.040469) scale(0.11 -0.11)">
      <defs>
       <path id="ArialMT-54" d="M 1659 0 
L 1659 4041 
L 150 4041 
L 150 4581 
L 3781 4581 
L 3781 4041 
L 2266 4041 
L 2266 0 
L 1659 0 
z
" transform="scale(0.015625)"/>
      </defs>
      <use xlink:href="#ArialMT-54"/>
      <use xlink:href="#ArialMT-72" x="57.333984"/>
      <use xlink:href="#ArialMT-61" x="90.634766"/>
      <use xlink:href="#ArialMT-6e" x="146.25"/>
      <use xlink:href="#ArialMT-73" x="201.865234"/>
      <use xlink:href="#ArialMT-70" x="251.865234"/>
      <use xlink:href="#ArialMT-6f" x="307.480469"/>
      <use xlink:href="#ArialMT-72" x="363.095703"/>
      <use xlink:href="#ArialMT-74" x="396.396484"/>
     </g>
    </g>
    <g id="line2d_27">
     <path d="M 594.745156 115.650313 
L 605.745156 115.650313 
L 616.745156 115.650313 
" style="fill: none; stroke: #5c8b6b; stroke-width: 1.5; stroke-linecap: round"/>
    </g>
    <g id="text_23">
     <!-- Tech -->
     <g style="fill: #4a4a5a" transform="translate(625.545156 119.500313) scale(0.11 -0.11)">
      <defs>
       <path id="ArialMT-68" d="M 422 0 
L 422 4581 
L 984 4581 
L 984 2938 
Q 1378 3394 1978 3394 
Q 2347 3394 2619 3248 
Q 2891 3103 3008 2847 
Q 3125 2591 3125 2103 
L 3125 0 
L 2563 0 
L 2563 2103 
Q 2563 2525 2380 2717 
Q 2197 2909 1863 2909 
Q 1613 2909 1392 2779 
Q 1172 2650 1078 2428 
Q 984 2206 984 1816 
L 984 0 
L 422 0 
z
" transform="scale(0.015625)"/>
      </defs>
      <use xlink:href="#ArialMT-54"/>
      <use xlink:href="#ArialMT-65" x="49.958984"/>
      <use xlink:href="#ArialMT-63" x="105.574219"/>
      <use xlink:href="#ArialMT-68" x="155.574219"/>
     </g>
    </g>
    <g id="line2d_28">
     <path d="M 594.745156 130.110156 
L 605.745156 130.110156 
L 616.745156 130.110156 
" style="fill: none; stroke: #6b6080; stroke-width: 1.5; stroke-linecap: round"/>
    </g>
    <g id="text_24">
     <!-- Infrastructure -->
     <g style="fill: #4a4a5a" transform="translate(625.545156 133.960156) scale(0.11 -0.11)">
      <defs>
       <path id="ArialMT-49" d="M 597 0 
L 597 4581 
L 1203 4581 
L 1203 0 
L 597 0 
z
" transform="scale(0.015625)"/>
      </defs>
      <use xlink:href="#ArialMT-49"/>
      <use xlink:href="#ArialMT-6e" x="27.783203"/>
      <use xlink:href="#ArialMT-66" x="83.398438"/>
      <use xlink:href="#ArialMT-72" x="111.181641"/>
      <use xlink:href="#ArialMT-61" x="144.482422"/>
      <use xlink:href="#ArialMT-73" x="200.097656"/>
      <use xlink:href="#ArialMT-74" x="250.097656"/>
      <use xlink:href="#ArialMT-72" x="277.880859"/>
      <use xlink:href="#ArialMT-75" x="311.181641"/>
      <use xlink:href="#ArialMT-63" x="366.796875"/>
      <use xlink:href="#ArialMT-74" x="416.796875"/>
      <use xlink:href="#ArialMT-75" x="444.580078"/>
      <use xlink:href="#ArialMT-72" x="500.195312"/>
      <use xlink:href="#ArialMT-65" x="533.496094"/>
     </g>
    </g>
    <g id="line2d_29">
     <path d="M 594.745156 144.57 
L 605.745156 144.57 
L 616.745156 144.57 
" style="fill: none; stroke: #a99bbd; stroke-width: 1.5; stroke-linecap: round"/>
    </g>
    <g id="text_25">
     <!-- Research -->
     <g style="fill: #4a4a5a" transform="translate(625.545156 148.42) scale(0.11 -0.11)">
      <defs>
       <path id="ArialMT-52" d="M 503 0 
L 503 4581 
L 2534 4581 
Q 3147 4581 3465 4457 
Q 3784 4334 3975 4021 
Q 4166 3709 4166 3331 
Q 4166 2844 3850 2509 
Q 3534 2175 2875 2084 
Q 3116 1969 3241 1856 
Q 3506 1613 3744 1247 
L 4541 0 
L 3778 0 
L 3172 953 
Q 2906 1366 2734 1584 
Q 2563 1803 2427 1890 
Q 2291 1978 2150 2013 
Q 2047 2034 1813 2034 
L 1109 2034 
L 1109 0 
L 503 0 
z
M 1109 2559 
L 2413 2559 
Q 2828 2559 3062 2645 
Q 3297 2731 3419 2920 
Q 3541 3109 3541 3331 
Q 3541 3656 3305 3865 
Q 3069 4075 2559 4075 
L 1109 4075 
L 1109 2559 
z
" transform="scale(0.015625)"/>
      </defs>
      <use xlink:href="#ArialMT-52"/>
      <use xlink:href="#ArialMT-65" x="72.216797"/>
      <use xlink:href="#ArialMT-73" x="127.832031"/>
      <use xlink:href="#ArialMT-65" x="177.832031"/>
      <use xlink:href="#ArialMT-61" x="233.447266"/>
      <use xlink:href="#ArialMT-72" x="289.0625"/>
      <use xlink:href="#ArialMT-63" x="322.363281"/>
      <use xlink:href="#ArialMT-68" x="372.363281"/>
     </g>
    </g>
    <g id="line2d_30">
     <path d="M 594.745156 159.029844 
L 605.745156 159.029844 
L 616.745156 159.029844 
" style="fill: none; stroke: #c7bddc; stroke-width: 1.5; stroke-linecap: round"/>
    </g>
    <g id="text_26">
     <!-- Brain -->
     <g style="fill: #4a4a5a" transform="translate(625.545156 162.879844) scale(0.11 -0.11)">
      <use xlink:href="#ArialMT-42"/>
      <use xlink:href="#ArialMT-72" x="66.699219"/>
      <use xlink:href="#ArialMT-61" x="100"/>
      <use xlink:href="#ArialMT-69" x="155.615234"/>
      <use xlink:href="#ArialMT-6e" x="177.832031"/>
     </g>
    </g>
   </g>
  </g>
  <g id="text_27">
   <!-- Zanichelli, Schons et al, State of Brain Emulation Report 2025 -->
   <g style="fill: #787470" transform="translate(515.283437 349.344375) scale(0.07 -0.07)">
    <defs>
     <path id="Arial-ItalicMT-5a" d="M 156 0 
L 216 459 
L 2509 3200 
L 2984 3775 
Q 3128 3950 3263 4097 
Q 2972 4063 2856 4063 
L 2706 4066 
L 2525 4063 
L 2347 4059 
L 806 4059 
L 916 4581 
L 4075 4581 
L 4022 4103 
L 1563 1181 
Q 1109 641 988 503 
Q 1125 522 1166 522 
L 3663 522 
L 3553 0 
L 156 0 
z
" transform="scale(0.015625)"/>
     <path id="Arial-ItalicMT-61" d="M 2450 413 
Q 2156 159 1884 42 
Q 1613 -75 1303 -75 
Q 844 -75 562 195 
Q 281 466 281 888 
Q 281 1166 407 1380 
Q 534 1594 743 1723 
Q 953 1853 1256 1909 
Q 1447 1947 1980 1969 
Q 2513 1991 2744 2081 
Q 2809 2313 2809 2466 
Q 2809 2663 2666 2775 
Q 2469 2931 2091 2931 
Q 1734 2931 1507 2773 
Q 1281 2616 1178 2325 
L 606 2375 
Q 781 2869 1161 3131 
Q 1541 3394 2119 3394 
Q 2734 3394 3094 3100 
Q 3369 2881 3369 2531 
Q 3369 2266 3291 1916 
L 3106 1091 
Q 3019 697 3019 450 
Q 3019 294 3088 0 
L 2516 0 
Q 2469 163 2450 413 
z
M 2659 1681 
Q 2541 1634 2405 1609 
Q 2269 1584 1950 1556 
Q 1456 1513 1253 1445 
Q 1050 1378 947 1231 
Q 844 1084 844 906 
Q 844 669 1008 516 
Q 1172 363 1475 363 
Q 1756 363 2015 511 
Q 2275 659 2425 925 
Q 2575 1191 2659 1681 
z
" transform="scale(0.015625)"/>
     <path id="Arial-ItalicMT-6e" d="M 213 0 
L 906 3319 
L 1419 3319 
L 1297 2741 
Q 1631 3081 1922 3237 
Q 2213 3394 2516 3394 
Q 2919 3394 3148 3175 
Q 3378 2956 3378 2591 
Q 3378 2406 3297 2009 
L 2875 0 
L 2309 0 
L 2750 2103 
Q 2816 2409 2816 2556 
Q 2816 2722 2702 2825 
Q 2588 2928 2372 2928 
Q 1938 2928 1598 2615 
Q 1259 2303 1100 1544 
L 778 0 
L 213 0 
z
" transform="scale(0.015625)"/>
     <path id="Arial-ItalicMT-69" d="M 1016 3941 
L 1150 4581 
L 1713 4581 
L 1578 3941 
L 1016 3941 
z
M 191 0 
L 884 3319 
L 1450 3319 
L 756 0 
L 191 0 
z
" transform="scale(0.015625)"/>
     <path id="Arial-ItalicMT-63" d="M 2503 1209 
L 3069 1150 
Q 2856 528 2464 226 
Q 2072 -75 1572 -75 
Q 1031 -75 695 275 
Q 359 625 359 1253 
Q 359 1797 575 2322 
Q 791 2847 1192 3120 
Q 1594 3394 2109 3394 
Q 2644 3394 2956 3092 
Q 3269 2791 3269 2294 
L 2713 2256 
Q 2709 2572 2529 2750 
Q 2350 2928 2056 2928 
Q 1716 2928 1466 2712 
Q 1216 2497 1073 2058 
Q 931 1619 931 1213 
Q 931 788 1118 575 
Q 1306 363 1581 363 
Q 1856 363 2107 572 
Q 2359 781 2503 1209 
z
" transform="scale(0.015625)"/>
     <path id="Arial-ItalicMT-68" d="M 213 0 
L 1169 4581 
L 1734 4581 
L 1369 2822 
Q 1684 3128 1956 3261 
Q 2228 3394 2516 3394 
Q 2928 3394 3156 3176 
Q 3384 2959 3384 2603 
Q 3384 2428 3284 1959 
L 2875 0 
L 2309 0 
L 2731 2009 
Q 2822 2447 2822 2559 
Q 2822 2722 2709 2825 
Q 2597 2928 2384 2928 
Q 2078 2928 1800 2767 
Q 1522 2606 1364 2326 
Q 1206 2047 1075 1425 
L 778 0 
L 213 0 
z
" transform="scale(0.015625)"/>
     <path id="Arial-ItalicMT-65" d="M 2650 1128 
L 3200 1072 
Q 3081 663 2654 294 
Q 2228 -75 1638 -75 
Q 1269 -75 961 95 
Q 653 266 492 591 
Q 331 916 331 1331 
Q 331 1875 582 2386 
Q 834 2897 1234 3145 
Q 1634 3394 2100 3394 
Q 2694 3394 3048 3025 
Q 3403 2656 3403 2019 
Q 3403 1775 3359 1519 
L 916 1519 
Q 903 1422 903 1344 
Q 903 878 1117 633 
Q 1331 388 1641 388 
Q 1931 388 2212 578 
Q 2494 769 2650 1128 
z
M 1006 1950 
L 2869 1950 
Q 2872 2038 2872 2075 
Q 2872 2500 2659 2726 
Q 2447 2953 2113 2953 
Q 1750 2953 1451 2703 
Q 1153 2453 1006 1950 
z
" transform="scale(0.015625)"/>
     <path id="Arial-ItalicMT-6c" d="M 169 0 
L 1125 4581 
L 1691 4581 
L 734 0 
L 169 0 
z
" transform="scale(0.015625)"/>
     <path id="Arial-ItalicMT-2c" d="M 347 0 
L 481 641 
L 1125 641 
L 1009 81 
Q 903 -422 679 -656 
Q 456 -891 153 -925 
L 206 -678 
Q 578 -575 697 0 
L 347 0 
z
" transform="scale(0.015625)"/>
     <path id="Arial-ItalicMT-20" transform="scale(0.015625)"/>
     <path id="Arial-ItalicMT-53" d="M 450 1481 
L 1050 1538 
L 1044 1378 
Q 1044 1113 1166 892 
Q 1288 672 1569 551 
Q 1850 431 2238 431 
Q 2788 431 3077 672 
Q 3366 913 3366 1222 
Q 3366 1438 3213 1616 
Q 3056 1791 2359 2091 
Q 1819 2325 1622 2450 
Q 1313 2653 1166 2892 
Q 1019 3131 1019 3438 
Q 1019 3791 1212 4075 
Q 1406 4359 1779 4509 
Q 2153 4659 2622 4659 
Q 3181 4659 3565 4471 
Q 3950 4284 4123 3971 
Q 4297 3659 4297 3375 
Q 4297 3347 4294 3281 
L 3703 3234 
Q 3703 3428 3669 3538 
Q 3606 3728 3475 3859 
Q 3344 3991 3114 4070 
Q 2884 4150 2600 4150 
Q 2100 4150 1822 3925 
Q 1609 3753 1609 3469 
Q 1609 3300 1696 3167 
Q 1784 3034 2013 2906 
Q 2175 2816 2784 2547 
Q 3278 2328 3466 2203 
Q 3716 2038 3850 1802 
Q 3984 1566 3984 1266 
Q 3984 894 3757 580 
Q 3531 266 3131 94 
Q 2731 -78 2216 -78 
Q 1438 -78 945 261 
Q 453 600 450 1481 
z
" transform="scale(0.015625)"/>
     <path id="Arial-ItalicMT-6f" d="M 313 1259 
Q 313 2231 884 2869 
Q 1356 3394 2122 3394 
Q 2722 3394 3089 3019 
Q 3456 2644 3456 2006 
Q 3456 1434 3225 942 
Q 2994 450 2567 187 
Q 2141 -75 1669 -75 
Q 1281 -75 964 90 
Q 647 256 480 559 
Q 313 863 313 1259 
z
M 878 1316 
Q 878 847 1103 605 
Q 1328 363 1675 363 
Q 1856 363 2034 436 
Q 2213 509 2366 659 
Q 2519 809 2626 1001 
Q 2734 1194 2800 1416 
Q 2897 1725 2897 2009 
Q 2897 2459 2670 2707 
Q 2444 2956 2100 2956 
Q 1834 2956 1615 2829 
Q 1397 2703 1220 2459 
Q 1044 2216 961 1892 
Q 878 1569 878 1316 
z
" transform="scale(0.015625)"/>
     <path id="Arial-ItalicMT-73" d="M 266 1134 
L 831 1169 
Q 831 925 906 753 
Q 981 581 1182 472 
Q 1384 363 1653 363 
Q 2028 363 2215 513 
Q 2403 663 2403 866 
Q 2403 1013 2291 1144 
Q 2175 1275 1726 1467 
Q 1278 1659 1153 1738 
Q 944 1866 837 2039 
Q 731 2213 731 2438 
Q 731 2831 1043 3112 
Q 1356 3394 1919 3394 
Q 2544 3394 2870 3105 
Q 3197 2816 3209 2344 
L 2656 2306 
Q 2644 2606 2444 2781 
Q 2244 2956 1878 2956 
Q 1584 2956 1421 2822 
Q 1259 2688 1259 2531 
Q 1259 2375 1400 2256 
Q 1494 2175 1884 2006 
Q 2534 1725 2703 1563 
Q 2972 1303 2972 931 
Q 2972 684 2820 446 
Q 2669 209 2358 67 
Q 2047 -75 1625 -75 
Q 1050 -75 647 209 
Q 244 494 266 1134 
z
" transform="scale(0.015625)"/>
     <path id="Arial-ItalicMT-74" d="M 1534 459 
L 1441 -3 
Q 1238 -56 1047 -56 
Q 709 -56 509 109 
Q 359 234 359 450 
Q 359 559 441 953 
L 844 2881 
L 397 2881 
L 488 3319 
L 934 3319 
L 1106 4134 
L 1753 4525 
L 1500 3319 
L 2056 3319 
L 1963 2881 
L 1409 2881 
L 1025 1047 
Q 953 697 953 628 
Q 953 528 1011 475 
Q 1069 422 1200 422 
Q 1388 422 1534 459 
z
" transform="scale(0.015625)"/>
     <path id="Arial-ItalicMT-66" d="M 291 0 
L 894 2881 
L 388 2881 
L 478 3319 
L 984 3319 
L 1081 3791 
Q 1156 4144 1236 4300 
Q 1316 4456 1495 4557 
Q 1675 4659 1984 4659 
Q 2200 4659 2609 4569 
L 2506 4075 
Q 2219 4150 2025 4150 
Q 1859 4150 1773 4067 
Q 1688 3984 1625 3675 
L 1550 3319 
L 2181 3319 
L 2091 2881 
L 1459 2881 
L 856 0 
L 291 0 
z
" transform="scale(0.015625)"/>
     <path id="Arial-ItalicMT-42" d="M 278 0 
L 1238 4581 
L 2656 4581 
Q 3044 4581 3231 4550 
Q 3538 4497 3748 4364 
Q 3959 4231 4075 4001 
Q 4191 3772 4191 3494 
Q 4191 3116 3983 2828 
Q 3775 2541 3347 2391 
Q 3719 2269 3903 2023 
Q 4088 1778 4088 1450 
Q 4088 1072 3870 725 
Q 3653 378 3295 189 
Q 2938 0 2497 0 
L 278 0 
z
M 1441 2625 
L 2369 2625 
Q 3034 2625 3326 2837 
Q 3619 3050 3619 3456 
Q 3619 3650 3528 3790 
Q 3438 3931 3286 3995 
Q 3134 4059 2716 4059 
L 1741 4059 
L 1441 2625 
z
M 1000 519 
L 2044 519 
Q 2459 519 2603 547 
Q 2894 597 3075 717 
Q 3256 838 3359 1034 
Q 3463 1231 3463 1447 
Q 3463 1769 3261 1936 
Q 3059 2103 2494 2103 
L 1331 2103 
L 1000 519 
z
" transform="scale(0.015625)"/>
     <path id="Arial-ItalicMT-72" d="M 213 0 
L 906 3319 
L 1406 3319 
L 1266 2641 
Q 1522 3025 1767 3209 
Q 2013 3394 2269 3394 
Q 2438 3394 2684 3272 
L 2453 2747 
Q 2306 2853 2131 2853 
Q 1834 2853 1521 2522 
Q 1209 2191 1031 1331 
L 750 0 
L 213 0 
z
" transform="scale(0.015625)"/>
     <path id="Arial-ItalicMT-45" d="M 288 0 
L 1247 4581 
L 4553 4581 
L 4444 4059 
L 1750 4059 
L 1450 2634 
L 4075 2634 
L 3966 2113 
L 1341 2113 
L 1009 519 
L 3894 519 
L 3784 0 
L 288 0 
z
" transform="scale(0.015625)"/>
     <path id="Arial-ItalicMT-6d" d="M 209 0 
L 903 3319 
L 1469 3319 
L 1353 2772 
Q 1669 3125 1917 3259 
Q 2166 3394 2456 3394 
Q 2766 3394 2973 3230 
Q 3181 3066 3247 2772 
Q 3500 3084 3779 3239 
Q 4059 3394 4369 3394 
Q 4784 3394 4992 3197 
Q 5200 3000 5200 2644 
Q 5200 2491 5128 2138 
L 4681 0 
L 4116 0 
L 4572 2194 
Q 4631 2463 4631 2578 
Q 4631 2741 4528 2834 
Q 4425 2928 4238 2928 
Q 3984 2928 3721 2775 
Q 3459 2622 3314 2373 
Q 3169 2125 3059 1609 
L 2722 0 
L 2156 0 
L 2625 2241 
Q 2675 2469 2675 2566 
Q 2675 2728 2573 2828 
Q 2472 2928 2309 2928 
Q 2069 2928 1805 2775 
Q 1541 2622 1375 2348 
Q 1209 2075 1103 1569 
L 775 0 
L 209 0 
z
" transform="scale(0.015625)"/>
     <path id="Arial-ItalicMT-75" d="M 2478 600 
Q 1881 -75 1256 -75 
Q 872 -75 636 145 
Q 400 366 400 684 
Q 400 894 506 1403 
L 906 3319 
L 1472 3319 
L 1028 1197 
Q 972 931 972 784 
Q 972 597 1086 492 
Q 1200 388 1422 388 
Q 1659 388 1886 503 
Q 2113 619 2277 816 
Q 2441 1013 2544 1281 
Q 2613 1453 2703 1884 
L 3003 3319 
L 3569 3319 
L 2875 0 
L 2353 0 
L 2478 600 
z
" transform="scale(0.015625)"/>
     <path id="Arial-ItalicMT-52" d="M 300 0 
L 1259 4581 
L 3181 4581 
Q 3750 4581 4044 4486 
Q 4338 4391 4505 4128 
Q 4672 3866 4672 3466 
Q 4672 2906 4306 2537 
Q 3941 2169 3125 2059 
Q 3375 1875 3503 1697 
Q 3791 1294 3966 863 
L 4316 0 
L 3631 0 
L 3303 853 
Q 3125 1316 2897 1653 
Q 2741 1888 2578 1961 
Q 2416 2034 2050 2034 
L 1338 2034 
L 913 0 
L 300 0 
z
M 1441 2531 
L 2288 2531 
Q 2875 2531 3053 2547 
Q 3400 2581 3622 2703 
Q 3844 2825 3966 3031 
Q 4088 3238 4088 3475 
Q 4088 3675 3997 3823 
Q 3906 3972 3759 4025 
Q 3613 4078 3259 4078 
L 1766 4078 
L 1441 2531 
z
" transform="scale(0.015625)"/>
     <path id="Arial-ItalicMT-70" d="M -66 -1272 
L 894 3319 
L 1416 3319 
L 1319 2856 
Q 1609 3159 1839 3276 
Q 2069 3394 2325 3394 
Q 2800 3394 3112 3048 
Q 3425 2703 3425 2059 
Q 3425 1541 3253 1114 
Q 3081 688 2831 428 
Q 2581 169 2325 47 
Q 2069 -75 1800 -75 
Q 1203 -75 875 531 
L 500 -1272 
L -66 -1272 
z
M 1053 1356 
Q 1053 984 1106 841 
Q 1184 638 1362 513 
Q 1541 388 1775 388 
Q 2263 388 2563 936 
Q 2863 1484 2863 2056 
Q 2863 2478 2661 2708 
Q 2459 2938 2159 2938 
Q 1944 2938 1759 2823 
Q 1575 2709 1417 2482 
Q 1259 2256 1156 1928 
Q 1053 1600 1053 1356 
z
" transform="scale(0.015625)"/>
     <path id="Arial-ItalicMT-32" d="M 375 0 
Q 463 409 617 686 
Q 772 963 1028 1211 
Q 1284 1459 2016 2044 
Q 2459 2397 2622 2566 
Q 2856 2809 2963 3044 
Q 3034 3203 3034 3391 
Q 3034 3706 2811 3926 
Q 2588 4147 2263 4147 
Q 1941 4147 1700 3923 
Q 1459 3700 1356 3206 
L 803 3288 
Q 884 3897 1276 4248 
Q 1669 4600 2253 4600 
Q 2644 4600 2961 4437 
Q 3278 4275 3437 3981 
Q 3597 3688 3597 3375 
Q 3597 2919 3272 2497 
Q 3072 2234 2097 1463 
Q 1678 1131 1473 918 
Q 1269 706 1166 519 
L 3216 519 
L 3106 0 
L 375 0 
z
" transform="scale(0.015625)"/>
     <path id="Arial-ItalicMT-30" d="M 453 1503 
Q 453 2084 626 2684 
Q 800 3284 1012 3643 
Q 1225 4003 1453 4206 
Q 1681 4409 1901 4504 
Q 2122 4600 2391 4600 
Q 2916 4600 3267 4209 
Q 3619 3819 3619 3081 
Q 3619 2322 3375 1578 
Q 3088 697 2575 256 
Q 2181 -78 1678 -78 
Q 1163 -78 808 326 
Q 453 731 453 1503 
z
M 1000 1359 
Q 1000 938 1141 700 
Q 1331 372 1706 372 
Q 2034 372 2303 669 
Q 2691 1088 2886 1895 
Q 3081 2703 3081 3216 
Q 3081 3709 2892 3928 
Q 2703 4147 2394 4147 
Q 2169 4147 1973 4031 
Q 1778 3916 1600 3634 
Q 1347 3238 1159 2447 
Q 1000 1772 1000 1359 
z
" transform="scale(0.015625)"/>
     <path id="Arial-ItalicMT-35" d="M 447 1309 
L 1022 1366 
Q 1016 1244 1016 1219 
Q 1016 1013 1120 803 
Q 1225 594 1404 483 
Q 1584 372 1784 372 
Q 2047 372 2319 553 
Q 2591 734 2759 1081 
Q 2928 1428 2928 1769 
Q 2928 2153 2701 2384 
Q 2475 2616 2106 2616 
Q 1859 2616 1639 2497 
Q 1419 2378 1228 2141 
L 734 2175 
L 1425 4519 
L 3663 4519 
L 3553 4000 
L 1813 4000 
L 1469 2834 
Q 1663 2975 1867 3045 
Q 2072 3116 2288 3116 
Q 2813 3116 3150 2769 
Q 3488 2422 3488 1819 
Q 3488 1291 3256 845 
Q 3025 400 2620 161 
Q 2216 -78 1747 -78 
Q 1353 -78 1050 100 
Q 747 278 595 590 
Q 444 903 444 1216 
Q 444 1247 447 1309 
z
" transform="scale(0.015625)"/>
    </defs>
    <use xlink:href="#Arial-ItalicMT-5a"/>
    <use xlink:href="#Arial-ItalicMT-61" x="61.083984"/>
    <use xlink:href="#Arial-ItalicMT-6e" x="116.699219"/>
    <use xlink:href="#Arial-ItalicMT-69" x="172.314453"/>
    <use xlink:href="#Arial-ItalicMT-63" x="194.53125"/>
    <use xlink:href="#Arial-ItalicMT-68" x="244.53125"/>
    <use xlink:href="#Arial-ItalicMT-65" x="300.146484"/>
    <use xlink:href="#Arial-ItalicMT-6c" x="355.761719"/>
    <use xlink:href="#Arial-ItalicMT-6c" x="377.978516"/>
    <use xlink:href="#Arial-ItalicMT-69" x="400.195312"/>
    <use xlink:href="#Arial-ItalicMT-2c" x="422.412109"/>
    <use xlink:href="#Arial-ItalicMT-20" x="450.195312"/>
    <use xlink:href="#Arial-ItalicMT-53" x="477.978516"/>
    <use xlink:href="#Arial-ItalicMT-63" x="544.677734"/>
    <use xlink:href="#Arial-ItalicMT-68" x="594.677734"/>
    <use xlink:href="#Arial-ItalicMT-6f" x="650.292969"/>
    <use xlink:href="#Arial-ItalicMT-6e" x="705.908203"/>
    <use xlink:href="#Arial-ItalicMT-73" x="761.523438"/>
    <use xlink:href="#Arial-ItalicMT-20" x="811.523438"/>
    <use xlink:href="#Arial-ItalicMT-65" x="839.306641"/>
    <use xlink:href="#Arial-ItalicMT-74" x="894.921875"/>
    <use xlink:href="#Arial-ItalicMT-20" x="922.705078"/>
    <use xlink:href="#Arial-ItalicMT-61" x="950.488281"/>
    <use xlink:href="#Arial-ItalicMT-6c" x="1006.103516"/>
    <use xlink:href="#Arial-ItalicMT-2c" x="1028.320312"/>
    <use xlink:href="#Arial-ItalicMT-20" x="1056.103516"/>
    <use xlink:href="#Arial-ItalicMT-53" x="1083.886719"/>
    <use xlink:href="#Arial-ItalicMT-74" x="1150.585938"/>
    <use xlink:href="#Arial-ItalicMT-61" x="1178.369141"/>
    <use xlink:href="#Arial-ItalicMT-74" x="1233.984375"/>
    <use xlink:href="#Arial-ItalicMT-65" x="1261.767578"/>
    <use xlink:href="#Arial-ItalicMT-20" x="1317.382812"/>
    <use xlink:href="#Arial-ItalicMT-6f" x="1345.166016"/>
    <use xlink:href="#Arial-ItalicMT-66" x="1400.78125"/>
    <use xlink:href="#Arial-ItalicMT-20" x="1428.564453"/>
    <use xlink:href="#Arial-ItalicMT-42" x="1456.347656"/>
    <use xlink:href="#Arial-ItalicMT-72" x="1523.046875"/>
    <use xlink:href="#Arial-ItalicMT-61" x="1556.347656"/>
    <use xlink:href="#Arial-ItalicMT-69" x="1611.962891"/>
    <use xlink:href="#Arial-ItalicMT-6e" x="1634.179688"/>
    <use xlink:href="#Arial-ItalicMT-20" x="1689.794922"/>
    <use xlink:href="#Arial-ItalicMT-45" x="1717.578125"/>
    <use xlink:href="#Arial-ItalicMT-6d" x="1784.277344"/>
    <use xlink:href="#Arial-ItalicMT-75" x="1867.578125"/>
    <use xlink:href="#Arial-ItalicMT-6c" x="1923.193359"/>
    <use xlink:href="#Arial-ItalicMT-61" x="1945.410156"/>
    <use xlink:href="#Arial-ItalicMT-74" x="2001.025391"/>
    <use xlink:href="#Arial-ItalicMT-69" x="2028.808594"/>
    <use xlink:href="#Arial-ItalicMT-6f" x="2051.025391"/>
    <use xlink:href="#Arial-ItalicMT-6e" x="2106.640625"/>
    <use xlink:href="#Arial-ItalicMT-20" x="2162.255859"/>
    <use xlink:href="#Arial-ItalicMT-52" x="2190.039062"/>
    <use xlink:href="#Arial-ItalicMT-65" x="2262.255859"/>
    <use xlink:href="#Arial-ItalicMT-70" x="2317.871094"/>
    <use xlink:href="#Arial-ItalicMT-6f" x="2373.486328"/>
    <use xlink:href="#Arial-ItalicMT-72" x="2429.101562"/>
    <use xlink:href="#Arial-ItalicMT-74" x="2462.402344"/>
    <use xlink:href="#Arial-ItalicMT-20" x="2490.185547"/>
    <use xlink:href="#Arial-ItalicMT-32" x="2517.96875"/>
    <use xlink:href="#Arial-ItalicMT-30" x="2573.583984"/>
    <use xlink:href="#Arial-ItalicMT-32" x="2629.199219"/>
    <use xlink:href="#Arial-ItalicMT-35" x="2684.814453"/>
   </g>
  </g>
 </g>
 <defs>
  <clipPath id="p2204e8b2f4">
   <rect x="53.222031" y="27.935625" width="648.12" height="272.449687"/>
  </clipPath>
 </defs>
</svg>
