<?xml version="1.0" encoding="utf-8" standalone="no"?>
<!DOCTYPE svg PUBLIC "-//W3C//DTD SVG 1.1//EN"
  "http://www.w3.org/Graphics/SVG/1.1/DTD/svg11.dtd">
<svg xmlns:xlink="http://www.w3.org/1999/xlink" width="789.74455pt" height="448.9325pt" viewBox="0 0 789.74455 448.9325" xmlns="http://www.w3.org/2000/svg" version="1.1">
 <metadata>
  <rdf:RDF xmlns:dc="http://purl.org/dc/elements/1.1/" xmlns:cc="http://creativecommons.org/ns#" xmlns:rdf="http://www.w3.org/1999/02/22-rdf-syntax-ns#">
   <cc:Work>
    <dc:type rdf:resource="http://purl.org/dc/dcmitype/StillImage"/>
    <dc:date>2026-01-25T04:11:26.403817</dc:date>
    <dc:format>image/svg+xml</dc:format>
    <dc:creator>
     <cc:Agent>
      <dc:title>Matplotlib v3.10.8, https://matplotlib.org/</dc:title>
     </cc:Agent>
    </dc:creator>
   </cc:Work>
  </rdf:RDF>
 </metadata>
 <defs>
  <style type="text/css">*{stroke-linejoin: round; stroke-linecap: butt}</style>
 </defs>
 <g id="figure_1">
  <g id="patch_1">
   <path d="M 0 448.9325 
L 789.74455 448.9325 
L 789.74455 0 
L 0 0 
z
" style="fill: #ffffff"/>
  </g>
  <g id="axes_1">
   <g id="patch_2">
    <path d="M 96.35455 392.337812 
L 625.58855 392.337812 
L 625.58855 37.837812 
L 96.35455 37.837812 
z
" style="fill: #fafaf8"/>
   </g>
   <g id="LineCollection_1">
    <path d="M 127.485962 371.484871 
L 127.485962 58.690754 
" clip-path="url(#pee61bff35c)" style="fill: none; stroke: #e8e5e1"/>
   </g>
   <g id="LineCollection_2">
    <path d="M 283.143021 371.484871 
L 283.143021 58.690754 
" clip-path="url(#pee61bff35c)" style="fill: none; stroke: #e8e5e1"/>
   </g>
   <g id="LineCollection_3">
    <path d="M 438.800079 371.484871 
L 438.800079 58.690754 
" clip-path="url(#pee61bff35c)" style="fill: none; stroke: #e8e5e1"/>
   </g>
   <g id="LineCollection_4">
    <path d="M 594.457138 371.484871 
L 594.457138 58.690754 
" clip-path="url(#pee61bff35c)" style="fill: none; stroke: #e8e5e1"/>
   </g>
   <g id="LineCollection_5">
    <path d="M 127.485962 371.484871 
L 594.457138 371.484871 
" clip-path="url(#pee61bff35c)" style="fill: none; stroke-dasharray: 3.7,1.6; stroke-dashoffset: 0; stroke: #e8e5e1"/>
   </g>
   <g id="LineCollection_6">
    <path d="M 127.485962 267.220165 
L 594.457138 267.220165 
" clip-path="url(#pee61bff35c)" style="fill: none; stroke-dasharray: 3.7,1.6; stroke-dashoffset: 0; stroke: #e8e5e1"/>
   </g>
   <g id="LineCollection_7">
    <path d="M 127.485962 162.95546 
L 594.457138 162.95546 
" clip-path="url(#pee61bff35c)" style="fill: none; stroke-dasharray: 3.7,1.6; stroke-dashoffset: 0; stroke: #e8e5e1"/>
   </g>
   <g id="LineCollection_8">
    <path d="M 127.485962 58.690754 
L 594.457138 58.690754 
" clip-path="url(#pee61bff35c)" style="fill: none; stroke-dasharray: 3.7,1.6; stroke-dashoffset: 0; stroke: #e8e5e1"/>
   </g>
   <g id="matplotlib.axis_1">
    <g id="xtick_1">
     <g id="line2d_1">
      <path d="M 127.485962 392.337812 
L 127.485962 37.837812 
" clip-path="url(#pee61bff35c)" style="fill: none; stroke: #e8e5e1; stroke-linecap: round"/>
     </g>
     <g id="text_1">
      <!-- Resolution -->
      <g style="fill: #4a4a5a" transform="translate(96.135962 410.955937) scale(0.12 -0.12)">
       <defs>
        <path id="DejaVuSans-52" d="M 2841 2188 
Q 3044 2119 3236 1894 
Q 3428 1669 3622 1275 
L 4263 0 
L 3584 0 
L 2988 1197 
Q 2756 1666 2539 1819 
Q 2322 1972 1947 1972 
L 1259 1972 
L 1259 0 
L 628 0 
L 628 4666 
L 2053 4666 
Q 2853 4666 3247 4331 
Q 3641 3997 3641 3322 
Q 3641 2881 3436 2590 
Q 3231 2300 2841 2188 
z
M 1259 4147 
L 1259 2491 
L 2053 2491 
Q 2509 2491 2742 2702 
Q 2975 2913 2975 3322 
Q 2975 3731 2742 3939 
Q 2509 4147 2053 4147 
L 1259 4147 
z
" transform="scale(0.015625)"/>
        <path id="DejaVuSans-65" d="M 3597 1894 
L 3597 1613 
L 953 1613 
Q 991 1019 1311 708 
Q 1631 397 2203 397 
Q 2534 397 2845 478 
Q 3156 559 3463 722 
L 3463 178 
Q 3153 47 2828 -22 
Q 2503 -91 2169 -91 
Q 1331 -91 842 396 
Q 353 884 353 1716 
Q 353 2575 817 3079 
Q 1281 3584 2069 3584 
Q 2775 3584 3186 3129 
Q 3597 2675 3597 1894 
z
M 3022 2063 
Q 3016 2534 2758 2815 
Q 2500 3097 2075 3097 
Q 1594 3097 1305 2825 
Q 1016 2553 972 2059 
L 3022 2063 
z
" transform="scale(0.015625)"/>
        <path id="DejaVuSans-73" d="M 2834 3397 
L 2834 2853 
Q 2591 2978 2328 3040 
Q 2066 3103 1784 3103 
Q 1356 3103 1142 2972 
Q 928 2841 928 2578 
Q 928 2378 1081 2264 
Q 1234 2150 1697 2047 
L 1894 2003 
Q 2506 1872 2764 1633 
Q 3022 1394 3022 966 
Q 3022 478 2636 193 
Q 2250 -91 1575 -91 
Q 1294 -91 989 -36 
Q 684 19 347 128 
L 347 722 
Q 666 556 975 473 
Q 1284 391 1588 391 
Q 1994 391 2212 530 
Q 2431 669 2431 922 
Q 2431 1156 2273 1281 
Q 2116 1406 1581 1522 
L 1381 1569 
Q 847 1681 609 1914 
Q 372 2147 372 2553 
Q 372 3047 722 3315 
Q 1072 3584 1716 3584 
Q 2034 3584 2315 3537 
Q 2597 3491 2834 3397 
z
" transform="scale(0.015625)"/>
        <path id="DejaVuSans-6f" d="M 1959 3097 
Q 1497 3097 1228 2736 
Q 959 2375 959 1747 
Q 959 1119 1226 758 
Q 1494 397 1959 397 
Q 2419 397 2687 759 
Q 2956 1122 2956 1747 
Q 2956 2369 2687 2733 
Q 2419 3097 1959 3097 
z
M 1959 3584 
Q 2709 3584 3137 3096 
Q 3566 2609 3566 1747 
Q 3566 888 3137 398 
Q 2709 -91 1959 -91 
Q 1206 -91 779 398 
Q 353 888 353 1747 
Q 353 2609 779 3096 
Q 1206 3584 1959 3584 
z
" transform="scale(0.015625)"/>
        <path id="DejaVuSans-6c" d="M 603 4863 
L 1178 4863 
L 1178 0 
L 603 0 
L 603 4863 
z
" transform="scale(0.015625)"/>
        <path id="DejaVuSans-75" d="M 544 1381 
L 544 3500 
L 1119 3500 
L 1119 1403 
Q 1119 906 1312 657 
Q 1506 409 1894 409 
Q 2359 409 2629 706 
Q 2900 1003 2900 1516 
L 2900 3500 
L 3475 3500 
L 3475 0 
L 2900 0 
L 2900 538 
Q 2691 219 2414 64 
Q 2138 -91 1772 -91 
Q 1169 -91 856 284 
Q 544 659 544 1381 
z
M 1991 3584 
L 1991 3584 
z
" transform="scale(0.015625)"/>
        <path id="DejaVuSans-74" d="M 1172 4494 
L 1172 3500 
L 2356 3500 
L 2356 3053 
L 1172 3053 
L 1172 1153 
Q 1172 725 1289 603 
Q 1406 481 1766 481 
L 2356 481 
L 2356 0 
L 1766 0 
Q 1100 0 847 248 
Q 594 497 594 1153 
L 594 3053 
L 172 3053 
L 172 3500 
L 594 3500 
L 594 4494 
L 1172 4494 
z
" transform="scale(0.015625)"/>
        <path id="DejaVuSans-69" d="M 603 3500 
L 1178 3500 
L 1178 0 
L 603 0 
L 603 3500 
z
M 603 4863 
L 1178 4863 
L 1178 4134 
L 603 4134 
L 603 4863 
z
" transform="scale(0.015625)"/>
        <path id="DejaVuSans-6e" d="M 3513 2113 
L 3513 0 
L 2938 0 
L 2938 2094 
Q 2938 2591 2744 2837 
Q 2550 3084 2163 3084 
Q 1697 3084 1428 2787 
Q 1159 2491 1159 1978 
L 1159 0 
L 581 0 
L 581 3500 
L 1159 3500 
L 1159 2956 
Q 1366 3272 1645 3428 
Q 1925 3584 2291 3584 
Q 2894 3584 3203 3211 
Q 3513 2838 3513 2113 
z
" transform="scale(0.015625)"/>
       </defs>
       <use xlink:href="#DejaVuSans-52"/>
       <use xlink:href="#DejaVuSans-65" transform="translate(64.982422 0)"/>
       <use xlink:href="#DejaVuSans-73" transform="translate(126.505859 0)"/>
       <use xlink:href="#DejaVuSans-6f" transform="translate(178.605469 0)"/>
       <use xlink:href="#DejaVuSans-6c" transform="translate(239.787109 0)"/>
       <use xlink:href="#DejaVuSans-75" transform="translate(267.570312 0)"/>
       <use xlink:href="#DejaVuSans-74" transform="translate(330.949219 0)"/>
       <use xlink:href="#DejaVuSans-69" transform="translate(370.158203 0)"/>
       <use xlink:href="#DejaVuSans-6f" transform="translate(397.941406 0)"/>
       <use xlink:href="#DejaVuSans-6e" transform="translate(459.123047 0)"/>
      </g>
     </g>
    </g>
    <g id="xtick_2">
     <g id="line2d_2">
      <path d="M 283.143021 392.337812 
L 283.143021 37.837812 
" clip-path="url(#pee61bff35c)" style="fill: none; stroke: #e8e5e1; stroke-linecap: round"/>
     </g>
     <g id="text_2">
      <!-- Speed -->
      <g style="fill: #4a4a5a" transform="translate(264.332083 410.955937) scale(0.12 -0.12)">
       <defs>
        <path id="DejaVuSans-53" d="M 3425 4513 
L 3425 3897 
Q 3066 4069 2747 4153 
Q 2428 4238 2131 4238 
Q 1616 4238 1336 4038 
Q 1056 3838 1056 3469 
Q 1056 3159 1242 3001 
Q 1428 2844 1947 2747 
L 2328 2669 
Q 3034 2534 3370 2195 
Q 3706 1856 3706 1288 
Q 3706 609 3251 259 
Q 2797 -91 1919 -91 
Q 1588 -91 1214 -16 
Q 841 59 441 206 
L 441 856 
Q 825 641 1194 531 
Q 1563 422 1919 422 
Q 2459 422 2753 634 
Q 3047 847 3047 1241 
Q 3047 1584 2836 1778 
Q 2625 1972 2144 2069 
L 1759 2144 
Q 1053 2284 737 2584 
Q 422 2884 422 3419 
Q 422 4038 858 4394 
Q 1294 4750 2059 4750 
Q 2388 4750 2728 4690 
Q 3069 4631 3425 4513 
z
" transform="scale(0.015625)"/>
        <path id="DejaVuSans-70" d="M 1159 525 
L 1159 -1331 
L 581 -1331 
L 581 3500 
L 1159 3500 
L 1159 2969 
Q 1341 3281 1617 3432 
Q 1894 3584 2278 3584 
Q 2916 3584 3314 3078 
Q 3713 2572 3713 1747 
Q 3713 922 3314 415 
Q 2916 -91 2278 -91 
Q 1894 -91 1617 61 
Q 1341 213 1159 525 
z
M 3116 1747 
Q 3116 2381 2855 2742 
Q 2594 3103 2138 3103 
Q 1681 3103 1420 2742 
Q 1159 2381 1159 1747 
Q 1159 1113 1420 752 
Q 1681 391 2138 391 
Q 2594 391 2855 752 
Q 3116 1113 3116 1747 
z
" transform="scale(0.015625)"/>
        <path id="DejaVuSans-64" d="M 2906 2969 
L 2906 4863 
L 3481 4863 
L 3481 0 
L 2906 0 
L 2906 525 
Q 2725 213 2448 61 
Q 2172 -91 1784 -91 
Q 1150 -91 751 415 
Q 353 922 353 1747 
Q 353 2572 751 3078 
Q 1150 3584 1784 3584 
Q 2172 3584 2448 3432 
Q 2725 3281 2906 2969 
z
M 947 1747 
Q 947 1113 1208 752 
Q 1469 391 1925 391 
Q 2381 391 2643 752 
Q 2906 1113 2906 1747 
Q 2906 2381 2643 2742 
Q 2381 3103 1925 3103 
Q 1469 3103 1208 2742 
Q 947 2381 947 1747 
z
" transform="scale(0.015625)"/>
       </defs>
       <use xlink:href="#DejaVuSans-53"/>
       <use xlink:href="#DejaVuSans-70" transform="translate(63.476562 0)"/>
       <use xlink:href="#DejaVuSans-65" transform="translate(126.953125 0)"/>
       <use xlink:href="#DejaVuSans-65" transform="translate(188.476562 0)"/>
       <use xlink:href="#DejaVuSans-64" transform="translate(250 0)"/>
      </g>
     </g>
    </g>
    <g id="xtick_3">
     <g id="line2d_3">
      <path d="M 438.800079 392.337812 
L 438.800079 37.837812 
" clip-path="url(#pee61bff35c)" style="fill: none; stroke: #e8e5e1; stroke-linecap: round"/>
     </g>
     <g id="text_3">
      <!-- Duration -->
      <g style="fill: #4a4a5a" transform="translate(412.741329 410.955937) scale(0.12 -0.12)">
       <defs>
        <path id="DejaVuSans-44" d="M 1259 4147 
L 1259 519 
L 2022 519 
Q 2988 519 3436 956 
Q 3884 1394 3884 2338 
Q 3884 3275 3436 3711 
Q 2988 4147 2022 4147 
L 1259 4147 
z
M 628 4666 
L 1925 4666 
Q 3281 4666 3915 4102 
Q 4550 3538 4550 2338 
Q 4550 1131 3912 565 
Q 3275 0 1925 0 
L 628 0 
L 628 4666 
z
" transform="scale(0.015625)"/>
        <path id="DejaVuSans-72" d="M 2631 2963 
Q 2534 3019 2420 3045 
Q 2306 3072 2169 3072 
Q 1681 3072 1420 2755 
Q 1159 2438 1159 1844 
L 1159 0 
L 581 0 
L 581 3500 
L 1159 3500 
L 1159 2956 
Q 1341 3275 1631 3429 
Q 1922 3584 2338 3584 
Q 2397 3584 2469 3576 
Q 2541 3569 2628 3553 
L 2631 2963 
z
" transform="scale(0.015625)"/>
        <path id="DejaVuSans-61" d="M 2194 1759 
Q 1497 1759 1228 1600 
Q 959 1441 959 1056 
Q 959 750 1161 570 
Q 1363 391 1709 391 
Q 2188 391 2477 730 
Q 2766 1069 2766 1631 
L 2766 1759 
L 2194 1759 
z
M 3341 1997 
L 3341 0 
L 2766 0 
L 2766 531 
Q 2569 213 2275 61 
Q 1981 -91 1556 -91 
Q 1019 -91 701 211 
Q 384 513 384 1019 
Q 384 1609 779 1909 
Q 1175 2209 1959 2209 
L 2766 2209 
L 2766 2266 
Q 2766 2663 2505 2880 
Q 2244 3097 1772 3097 
Q 1472 3097 1187 3025 
Q 903 2953 641 2809 
L 641 3341 
Q 956 3463 1253 3523 
Q 1550 3584 1831 3584 
Q 2591 3584 2966 3190 
Q 3341 2797 3341 1997 
z
" transform="scale(0.015625)"/>
       </defs>
       <use xlink:href="#DejaVuSans-44"/>
       <use xlink:href="#DejaVuSans-75" transform="translate(77.001953 0)"/>
       <use xlink:href="#DejaVuSans-72" transform="translate(140.380859 0)"/>
       <use xlink:href="#DejaVuSans-61" transform="translate(181.494141 0)"/>
       <use xlink:href="#DejaVuSans-74" transform="translate(242.773438 0)"/>
       <use xlink:href="#DejaVuSans-69" transform="translate(281.982422 0)"/>
       <use xlink:href="#DejaVuSans-6f" transform="translate(309.765625 0)"/>
       <use xlink:href="#DejaVuSans-6e" transform="translate(370.947266 0)"/>
      </g>
     </g>
    </g>
    <g id="xtick_4">
     <g id="line2d_4">
      <path d="M 594.457138 392.337812 
L 594.457138 37.837812 
" clip-path="url(#pee61bff35c)" style="fill: none; stroke: #e8e5e1; stroke-linecap: round"/>
     </g>
     <g id="text_4">
      <!-- Volume -->
      <g style="fill: #4a4a5a" transform="translate(572.140888 410.955937) scale(0.12 -0.12)">
       <defs>
        <path id="DejaVuSans-56" d="M 1831 0 
L 50 4666 
L 709 4666 
L 2188 738 
L 3669 4666 
L 4325 4666 
L 2547 0 
L 1831 0 
z
" transform="scale(0.015625)"/>
        <path id="DejaVuSans-6d" d="M 3328 2828 
Q 3544 3216 3844 3400 
Q 4144 3584 4550 3584 
Q 5097 3584 5394 3201 
Q 5691 2819 5691 2113 
L 5691 0 
L 5113 0 
L 5113 2094 
Q 5113 2597 4934 2840 
Q 4756 3084 4391 3084 
Q 3944 3084 3684 2787 
Q 3425 2491 3425 1978 
L 3425 0 
L 2847 0 
L 2847 2094 
Q 2847 2600 2669 2842 
Q 2491 3084 2119 3084 
Q 1678 3084 1418 2786 
Q 1159 2488 1159 1978 
L 1159 0 
L 581 0 
L 581 3500 
L 1159 3500 
L 1159 2956 
Q 1356 3278 1631 3431 
Q 1906 3584 2284 3584 
Q 2666 3584 2933 3390 
Q 3200 3197 3328 2828 
z
" transform="scale(0.015625)"/>
       </defs>
       <use xlink:href="#DejaVuSans-56"/>
       <use xlink:href="#DejaVuSans-6f" transform="translate(60.658203 0)"/>
       <use xlink:href="#DejaVuSans-6c" transform="translate(121.839844 0)"/>
       <use xlink:href="#DejaVuSans-75" transform="translate(149.623047 0)"/>
       <use xlink:href="#DejaVuSans-6d" transform="translate(213.001953 0)"/>
       <use xlink:href="#DejaVuSans-65" transform="translate(310.414062 0)"/>
      </g>
     </g>
    </g>
   </g>
   <g id="matplotlib.axis_2"/>
   <g id="line2d_5">
    <path d="M 127.485962 162.95546 
L 283.143021 162.95546 
L 438.800079 58.690754 
L 594.457138 162.95546 
" clip-path="url(#pee61bff35c)" style="fill: none; stroke: #d4a84b; stroke-width: 2.5; stroke-linecap: round"/>
    <defs>
     <path id="m4f9311ad74" d="M 0 3 
C 0.795609 3 1.55874 2.683901 2.12132 2.12132 
C 2.683901 1.55874 3 0.795609 3 0 
C 3 -0.795609 2.683901 -1.55874 2.12132 -2.12132 
C 1.55874 -2.683901 0.795609 -3 0 -3 
C -0.795609 -3 -1.55874 -2.683901 -2.12132 -2.12132 
C -2.683901 -1.55874 -3 -0.795609 -3 0 
C -3 0.795609 -2.683901 1.55874 -2.12132 2.12132 
C -1.55874 2.683901 -0.795609 3 0 3 
z
" style="stroke: #ffffff; stroke-width: 1.5"/>
    </defs>
    <g clip-path="url(#pee61bff35c)">
     <use xlink:href="#m4f9311ad74" x="127.485962" y="162.95546" style="fill: #d4a84b; stroke: #ffffff; stroke-width: 1.5"/>
     <use xlink:href="#m4f9311ad74" x="283.143021" y="162.95546" style="fill: #d4a84b; stroke: #ffffff; stroke-width: 1.5"/>
     <use xlink:href="#m4f9311ad74" x="438.800079" y="58.690754" style="fill: #d4a84b; stroke: #ffffff; stroke-width: 1.5"/>
     <use xlink:href="#m4f9311ad74" x="594.457138" y="162.95546" style="fill: #d4a84b; stroke: #ffffff; stroke-width: 1.5"/>
    </g>
   </g>
   <g id="line2d_6">
    <path d="M 127.485962 58.690754 
L 283.143021 267.220165 
L 438.800079 267.220165 
L 594.457138 267.220165 
" clip-path="url(#pee61bff35c)" style="fill: none; stroke: #4a90a4; stroke-width: 2.5; stroke-linecap: round"/>
    <defs>
     <path id="m2b73fa8eb2" d="M 0 3 
C 0.795609 3 1.55874 2.683901 2.12132 2.12132 
C 2.683901 1.55874 3 0.795609 3 0 
C 3 -0.795609 2.683901 -1.55874 2.12132 -2.12132 
C 1.55874 -2.683901 0.795609 -3 0 -3 
C -0.795609 -3 -1.55874 -2.683901 -2.12132 -2.12132 
C -2.683901 -1.55874 -3 -0.795609 -3 0 
C -3 0.795609 -2.683901 1.55874 -2.12132 2.12132 
C -1.55874 2.683901 -0.795609 3 0 3 
z
" style="stroke: #ffffff; stroke-width: 1.5"/>
    </defs>
    <g clip-path="url(#pee61bff35c)">
     <use xlink:href="#m2b73fa8eb2" x="127.485962" y="58.690754" style="fill: #4a90a4; stroke: #ffffff; stroke-width: 1.5"/>
     <use xlink:href="#m2b73fa8eb2" x="283.143021" y="267.220165" style="fill: #4a90a4; stroke: #ffffff; stroke-width: 1.5"/>
     <use xlink:href="#m2b73fa8eb2" x="438.800079" y="267.220165" style="fill: #4a90a4; stroke: #ffffff; stroke-width: 1.5"/>
     <use xlink:href="#m2b73fa8eb2" x="594.457138" y="267.220165" style="fill: #4a90a4; stroke: #ffffff; stroke-width: 1.5"/>
    </g>
   </g>
   <g id="line2d_7">
    <path d="M 127.485962 58.690754 
L 283.143021 136.889283 
L 438.800079 319.352518 
L 594.457138 293.286342 
" clip-path="url(#pee61bff35c)" style="fill: none; stroke: #6b6080; stroke-width: 2.5; stroke-linecap: round"/>
    <defs>
     <path id="m42f219c881" d="M 0 3 
C 0.795609 3 1.55874 2.683901 2.12132 2.12132 
C 2.683901 1.55874 3 0.795609 3 0 
C 3 -0.795609 2.683901 -1.55874 2.12132 -2.12132 
C 1.55874 -2.683901 0.795609 -3 0 -3 
C -0.795609 -3 -1.55874 -2.683901 -2.12132 -2.12132 
C -2.683901 -1.55874 -3 -0.795609 -3 0 
C -3 0.795609 -2.683901 1.55874 -2.12132 2.12132 
C -1.55874 2.683901 -0.795609 3 0 3 
z
" style="stroke: #ffffff; stroke-width: 1.5"/>
    </defs>
    <g clip-path="url(#pee61bff35c)">
     <use xlink:href="#m42f219c881" x="127.485962" y="58.690754" style="fill: #6b6080; stroke: #ffffff; stroke-width: 1.5"/>
     <use xlink:href="#m42f219c881" x="283.143021" y="136.889283" style="fill: #6b6080; stroke: #ffffff; stroke-width: 1.5"/>
     <use xlink:href="#m42f219c881" x="438.800079" y="319.352518" style="fill: #6b6080; stroke: #ffffff; stroke-width: 1.5"/>
     <use xlink:href="#m42f219c881" x="594.457138" y="293.286342" style="fill: #6b6080; stroke: #ffffff; stroke-width: 1.5"/>
    </g>
   </g>
   <g id="line2d_8">
    <path d="M 127.485962 58.690754 
L 283.143021 58.690754 
L 438.800079 58.690754 
L 594.457138 319.352518 
" clip-path="url(#pee61bff35c)" style="fill: none; stroke: #8b7355; stroke-width: 2.5; stroke-linecap: round"/>
    <defs>
     <path id="m3827f5ad01" d="M 0 3 
C 0.795609 3 1.55874 2.683901 2.12132 2.12132 
C 2.683901 1.55874 3 0.795609 3 0 
C 3 -0.795609 2.683901 -1.55874 2.12132 -2.12132 
C 1.55874 -2.683901 0.795609 -3 0 -3 
C -0.795609 -3 -1.55874 -2.683901 -2.12132 -2.12132 
C -2.683901 -1.55874 -3 -0.795609 -3 0 
C -3 0.795609 -2.683901 1.55874 -2.12132 2.12132 
C -1.55874 2.683901 -0.795609 3 0 3 
z
" style="stroke: #ffffff; stroke-width: 1.5"/>
    </defs>
    <g clip-path="url(#pee61bff35c)">
     <use xlink:href="#m3827f5ad01" x="127.485962" y="58.690754" style="fill: #8b7355; stroke: #ffffff; stroke-width: 1.5"/>
     <use xlink:href="#m3827f5ad01" x="283.143021" y="58.690754" style="fill: #8b7355; stroke: #ffffff; stroke-width: 1.5"/>
     <use xlink:href="#m3827f5ad01" x="438.800079" y="58.690754" style="fill: #8b7355; stroke: #ffffff; stroke-width: 1.5"/>
     <use xlink:href="#m3827f5ad01" x="594.457138" y="319.352518" style="fill: #8b7355; stroke: #ffffff; stroke-width: 1.5"/>
    </g>
   </g>
   <g id="line2d_9">
    <path d="M 127.485962 371.484871 
L 283.143021 58.690754 
L 438.800079 162.95546 
L 594.457138 110.823107 
" clip-path="url(#pee61bff35c)" style="fill: none; stroke-dasharray: 9.25,4; stroke-dashoffset: 0; stroke: #5c8b6b; stroke-width: 2.5"/>
    <defs>
     <path id="m49b115752e" d="M 0 3 
C 0.795609 3 1.55874 2.683901 2.12132 2.12132 
C 2.683901 1.55874 3 0.795609 3 0 
C 3 -0.795609 2.683901 -1.55874 2.12132 -2.12132 
C 1.55874 -2.683901 0.795609 -3 0 -3 
C -0.795609 -3 -1.55874 -2.683901 -2.12132 -2.12132 
C -2.683901 -1.55874 -3 -0.795609 -3 0 
C -3 0.795609 -2.683901 1.55874 -2.12132 2.12132 
C -1.55874 2.683901 -0.795609 3 0 3 
z
" style="stroke: #ffffff; stroke-width: 1.5"/>
    </defs>
    <g clip-path="url(#pee61bff35c)">
     <use xlink:href="#m49b115752e" x="127.485962" y="371.484871" style="fill: #5c8b6b; stroke: #ffffff; stroke-width: 1.5"/>
     <use xlink:href="#m49b115752e" x="283.143021" y="58.690754" style="fill: #5c8b6b; stroke: #ffffff; stroke-width: 1.5"/>
     <use xlink:href="#m49b115752e" x="438.800079" y="162.95546" style="fill: #5c8b6b; stroke: #ffffff; stroke-width: 1.5"/>
     <use xlink:href="#m49b115752e" x="594.457138" y="110.823107" style="fill: #5c8b6b; stroke: #ffffff; stroke-width: 1.5"/>
    </g>
   </g>
   <g id="line2d_10">
    <path d="M 127.485962 267.220165 
L 283.143021 371.484871 
L 438.800079 162.95546 
L 594.457138 58.690754 
" clip-path="url(#pee61bff35c)" style="fill: none; stroke-dasharray: 9.25,4; stroke-dashoffset: 0; stroke: #6b6080; stroke-width: 2.5"/>
    <defs>
     <path id="m7f3b963029" d="M -3 3 
L 3 3 
L 3 -3 
L -3 -3 
z
" style="stroke: #ffffff; stroke-width: 1.5; stroke-linejoin: miter"/>
    </defs>
    <g clip-path="url(#pee61bff35c)">
     <use xlink:href="#m7f3b963029" x="127.485962" y="267.220165" style="fill: #6b6080; stroke: #ffffff; stroke-width: 1.5; stroke-linejoin: miter"/>
     <use xlink:href="#m7f3b963029" x="283.143021" y="371.484871" style="fill: #6b6080; stroke: #ffffff; stroke-width: 1.5; stroke-linejoin: miter"/>
     <use xlink:href="#m7f3b963029" x="438.800079" y="162.95546" style="fill: #6b6080; stroke: #ffffff; stroke-width: 1.5; stroke-linejoin: miter"/>
     <use xlink:href="#m7f3b963029" x="594.457138" y="58.690754" style="fill: #6b6080; stroke: #ffffff; stroke-width: 1.5; stroke-linejoin: miter"/>
    </g>
   </g>
   <g id="text_5">
    <!-- Millions of cells -->
    <g style="fill: #4a4a5a" transform="translate(54.579375 373.968309) scale(0.09 -0.09)">
     <defs>
      <path id="DejaVuSans-4d" d="M 628 4666 
L 1569 4666 
L 2759 1491 
L 3956 4666 
L 4897 4666 
L 4897 0 
L 4281 0 
L 4281 4097 
L 3078 897 
L 2444 897 
L 1241 4097 
L 1241 0 
L 628 0 
L 628 4666 
z
" transform="scale(0.015625)"/>
      <path id="DejaVuSans-20" transform="scale(0.015625)"/>
      <path id="DejaVuSans-66" d="M 2375 4863 
L 2375 4384 
L 1825 4384 
Q 1516 4384 1395 4259 
Q 1275 4134 1275 3809 
L 1275 3500 
L 2222 3500 
L 2222 3053 
L 1275 3053 
L 1275 0 
L 697 0 
L 697 3053 
L 147 3053 
L 147 3500 
L 697 3500 
L 697 3744 
Q 697 4328 969 4595 
Q 1241 4863 1831 4863 
L 2375 4863 
z
" transform="scale(0.015625)"/>
      <path id="DejaVuSans-63" d="M 3122 3366 
L 3122 2828 
Q 2878 2963 2633 3030 
Q 2388 3097 2138 3097 
Q 1578 3097 1268 2742 
Q 959 2388 959 1747 
Q 959 1106 1268 751 
Q 1578 397 2138 397 
Q 2388 397 2633 464 
Q 2878 531 3122 666 
L 3122 134 
Q 2881 22 2623 -34 
Q 2366 -91 2075 -91 
Q 1284 -91 818 406 
Q 353 903 353 1747 
Q 353 2603 823 3093 
Q 1294 3584 2113 3584 
Q 2378 3584 2631 3529 
Q 2884 3475 3122 3366 
z
" transform="scale(0.015625)"/>
     </defs>
     <use xlink:href="#DejaVuSans-4d"/>
     <use xlink:href="#DejaVuSans-69" transform="translate(86.279297 0)"/>
     <use xlink:href="#DejaVuSans-6c" transform="translate(114.0625 0)"/>
     <use xlink:href="#DejaVuSans-6c" transform="translate(141.845703 0)"/>
     <use xlink:href="#DejaVuSans-69" transform="translate(169.628906 0)"/>
     <use xlink:href="#DejaVuSans-6f" transform="translate(197.412109 0)"/>
     <use xlink:href="#DejaVuSans-6e" transform="translate(258.59375 0)"/>
     <use xlink:href="#DejaVuSans-73" transform="translate(321.972656 0)"/>
     <use xlink:href="#DejaVuSans-20" transform="translate(374.072266 0)"/>
     <use xlink:href="#DejaVuSans-6f" transform="translate(405.859375 0)"/>
     <use xlink:href="#DejaVuSans-66" transform="translate(467.041016 0)"/>
     <use xlink:href="#DejaVuSans-20" transform="translate(502.246094 0)"/>
     <use xlink:href="#DejaVuSans-63" transform="translate(534.033203 0)"/>
     <use xlink:href="#DejaVuSans-65" transform="translate(589.013672 0)"/>
     <use xlink:href="#DejaVuSans-6c" transform="translate(650.537109 0)"/>
     <use xlink:href="#DejaVuSans-6c" transform="translate(678.320312 0)"/>
     <use xlink:href="#DejaVuSans-73" transform="translate(706.103516 0)"/>
    </g>
   </g>
   <g id="text_6">
    <!-- Tens of thousands of cells -->
    <g style="fill: #4a4a5a" transform="translate(7.2 269.703603) scale(0.09 -0.09)">
     <defs>
      <path id="DejaVuSans-54" d="M -19 4666 
L 3928 4666 
L 3928 4134 
L 2272 4134 
L 2272 0 
L 1638 0 
L 1638 4134 
L -19 4134 
L -19 4666 
z
" transform="scale(0.015625)"/>
      <path id="DejaVuSans-68" d="M 3513 2113 
L 3513 0 
L 2938 0 
L 2938 2094 
Q 2938 2591 2744 2837 
Q 2550 3084 2163 3084 
Q 1697 3084 1428 2787 
Q 1159 2491 1159 1978 
L 1159 0 
L 581 0 
L 581 4863 
L 1159 4863 
L 1159 2956 
Q 1366 3272 1645 3428 
Q 1925 3584 2291 3584 
Q 2894 3584 3203 3211 
Q 3513 2838 3513 2113 
z
" transform="scale(0.015625)"/>
     </defs>
     <use xlink:href="#DejaVuSans-54"/>
     <use xlink:href="#DejaVuSans-65" transform="translate(44.083984 0)"/>
     <use xlink:href="#DejaVuSans-6e" transform="translate(105.607422 0)"/>
     <use xlink:href="#DejaVuSans-73" transform="translate(168.986328 0)"/>
     <use xlink:href="#DejaVuSans-20" transform="translate(221.085938 0)"/>
     <use xlink:href="#DejaVuSans-6f" transform="translate(252.873047 0)"/>
     <use xlink:href="#DejaVuSans-66" transform="translate(314.054688 0)"/>
     <use xlink:href="#DejaVuSans-20" transform="translate(349.259766 0)"/>
     <use xlink:href="#DejaVuSans-74" transform="translate(381.046875 0)"/>
     <use xlink:href="#DejaVuSans-68" transform="translate(420.255859 0)"/>
     <use xlink:href="#DejaVuSans-6f" transform="translate(483.634766 0)"/>
     <use xlink:href="#DejaVuSans-75" transform="translate(544.816406 0)"/>
     <use xlink:href="#DejaVuSans-73" transform="translate(608.195312 0)"/>
     <use xlink:href="#DejaVuSans-61" transform="translate(660.294922 0)"/>
     <use xlink:href="#DejaVuSans-6e" transform="translate(721.574219 0)"/>
     <use xlink:href="#DejaVuSans-64" transform="translate(784.953125 0)"/>
     <use xlink:href="#DejaVuSans-73" transform="translate(848.429688 0)"/>
     <use xlink:href="#DejaVuSans-20" transform="translate(900.529297 0)"/>
     <use xlink:href="#DejaVuSans-6f" transform="translate(932.316406 0)"/>
     <use xlink:href="#DejaVuSans-66" transform="translate(993.498047 0)"/>
     <use xlink:href="#DejaVuSans-20" transform="translate(1028.703125 0)"/>
     <use xlink:href="#DejaVuSans-63" transform="translate(1060.490234 0)"/>
     <use xlink:href="#DejaVuSans-65" transform="translate(1115.470703 0)"/>
     <use xlink:href="#DejaVuSans-6c" transform="translate(1176.994141 0)"/>
     <use xlink:href="#DejaVuSans-6c" transform="translate(1204.777344 0)"/>
     <use xlink:href="#DejaVuSans-73" transform="translate(1232.560547 0)"/>
    </g>
   </g>
   <g id="text_7">
    <!-- Thousands of cells -->
    <g style="fill: #4a4a5a" transform="translate(39.524062 165.438897) scale(0.09 -0.09)">
     <use xlink:href="#DejaVuSans-54"/>
     <use xlink:href="#DejaVuSans-68" transform="translate(61.083984 0)"/>
     <use xlink:href="#DejaVuSans-6f" transform="translate(124.462891 0)"/>
     <use xlink:href="#DejaVuSans-75" transform="translate(185.644531 0)"/>
     <use xlink:href="#DejaVuSans-73" transform="translate(249.023438 0)"/>
     <use xlink:href="#DejaVuSans-61" transform="translate(301.123047 0)"/>
     <use xlink:href="#DejaVuSans-6e" transform="translate(362.402344 0)"/>
     <use xlink:href="#DejaVuSans-64" transform="translate(425.78125 0)"/>
     <use xlink:href="#DejaVuSans-73" transform="translate(489.257812 0)"/>
     <use xlink:href="#DejaVuSans-20" transform="translate(541.357422 0)"/>
     <use xlink:href="#DejaVuSans-6f" transform="translate(573.144531 0)"/>
     <use xlink:href="#DejaVuSans-66" transform="translate(634.326172 0)"/>
     <use xlink:href="#DejaVuSans-20" transform="translate(669.53125 0)"/>
     <use xlink:href="#DejaVuSans-63" transform="translate(701.318359 0)"/>
     <use xlink:href="#DejaVuSans-65" transform="translate(756.298828 0)"/>
     <use xlink:href="#DejaVuSans-6c" transform="translate(817.822266 0)"/>
     <use xlink:href="#DejaVuSans-6c" transform="translate(845.605469 0)"/>
     <use xlink:href="#DejaVuSans-73" transform="translate(873.388672 0)"/>
    </g>
   </g>
   <g id="text_8">
    <!-- Single cell -->
    <g style="fill: #4a4a5a" transform="translate(76.799531 61.174191) scale(0.09 -0.09)">
     <defs>
      <path id="DejaVuSans-67" d="M 2906 1791 
Q 2906 2416 2648 2759 
Q 2391 3103 1925 3103 
Q 1463 3103 1205 2759 
Q 947 2416 947 1791 
Q 947 1169 1205 825 
Q 1463 481 1925 481 
Q 2391 481 2648 825 
Q 2906 1169 2906 1791 
z
M 3481 434 
Q 3481 -459 3084 -895 
Q 2688 -1331 1869 -1331 
Q 1566 -1331 1297 -1286 
Q 1028 -1241 775 -1147 
L 775 -588 
Q 1028 -725 1275 -790 
Q 1522 -856 1778 -856 
Q 2344 -856 2625 -561 
Q 2906 -266 2906 331 
L 2906 616 
Q 2728 306 2450 153 
Q 2172 0 1784 0 
Q 1141 0 747 490 
Q 353 981 353 1791 
Q 353 2603 747 3093 
Q 1141 3584 1784 3584 
Q 2172 3584 2450 3431 
Q 2728 3278 2906 2969 
L 2906 3500 
L 3481 3500 
L 3481 434 
z
" transform="scale(0.015625)"/>
     </defs>
     <use xlink:href="#DejaVuSans-53"/>
     <use xlink:href="#DejaVuSans-69" transform="translate(63.476562 0)"/>
     <use xlink:href="#DejaVuSans-6e" transform="translate(91.259766 0)"/>
     <use xlink:href="#DejaVuSans-67" transform="translate(154.638672 0)"/>
     <use xlink:href="#DejaVuSans-6c" transform="translate(218.115234 0)"/>
     <use xlink:href="#DejaVuSans-65" transform="translate(245.898438 0)"/>
     <use xlink:href="#DejaVuSans-20" transform="translate(307.421875 0)"/>
     <use xlink:href="#DejaVuSans-63" transform="translate(339.208984 0)"/>
     <use xlink:href="#DejaVuSans-65" transform="translate(394.189453 0)"/>
     <use xlink:href="#DejaVuSans-6c" transform="translate(455.712891 0)"/>
     <use xlink:href="#DejaVuSans-6c" transform="translate(483.496094 0)"/>
    </g>
   </g>
   <g id="text_9">
    <!-- 1 Hz -->
    <g style="fill: #4a4a5a" transform="translate(258.394871 373.968309) scale(0.09 -0.09)">
     <defs>
      <path id="DejaVuSans-31" d="M 794 531 
L 1825 531 
L 1825 4091 
L 703 3866 
L 703 4441 
L 1819 4666 
L 2450 4666 
L 2450 531 
L 3481 531 
L 3481 0 
L 794 0 
L 794 531 
z
" transform="scale(0.015625)"/>
      <path id="DejaVuSans-48" d="M 628 4666 
L 1259 4666 
L 1259 2753 
L 3553 2753 
L 3553 4666 
L 4184 4666 
L 4184 0 
L 3553 0 
L 3553 2222 
L 1259 2222 
L 1259 0 
L 628 0 
L 628 4666 
z
" transform="scale(0.015625)"/>
      <path id="DejaVuSans-7a" d="M 353 3500 
L 3084 3500 
L 3084 2975 
L 922 459 
L 3084 459 
L 3084 0 
L 275 0 
L 275 525 
L 2438 3041 
L 353 3041 
L 353 3500 
z
" transform="scale(0.015625)"/>
     </defs>
     <use xlink:href="#DejaVuSans-31"/>
     <use xlink:href="#DejaVuSans-20" transform="translate(63.623047 0)"/>
     <use xlink:href="#DejaVuSans-48" transform="translate(95.410156 0)"/>
     <use xlink:href="#DejaVuSans-7a" transform="translate(170.605469 0)"/>
    </g>
   </g>
   <g id="text_10">
    <!-- 10 Hz -->
    <g style="fill: #4a4a5a" transform="translate(252.668621 269.703603) scale(0.09 -0.09)">
     <defs>
      <path id="DejaVuSans-30" d="M 2034 4250 
Q 1547 4250 1301 3770 
Q 1056 3291 1056 2328 
Q 1056 1369 1301 889 
Q 1547 409 2034 409 
Q 2525 409 2770 889 
Q 3016 1369 3016 2328 
Q 3016 3291 2770 3770 
Q 2525 4250 2034 4250 
z
M 2034 4750 
Q 2819 4750 3233 4129 
Q 3647 3509 3647 2328 
Q 3647 1150 3233 529 
Q 2819 -91 2034 -91 
Q 1250 -91 836 529 
Q 422 1150 422 2328 
Q 422 3509 836 4129 
Q 1250 4750 2034 4750 
z
" transform="scale(0.015625)"/>
     </defs>
     <use xlink:href="#DejaVuSans-31"/>
     <use xlink:href="#DejaVuSans-30" transform="translate(63.623047 0)"/>
     <use xlink:href="#DejaVuSans-20" transform="translate(127.246094 0)"/>
     <use xlink:href="#DejaVuSans-48" transform="translate(159.033203 0)"/>
     <use xlink:href="#DejaVuSans-7a" transform="translate(234.228516 0)"/>
    </g>
   </g>
   <g id="text_11">
    <!-- 100 Hz -->
    <g style="fill: #4a4a5a" transform="translate(246.942371 165.438897) scale(0.09 -0.09)">
     <use xlink:href="#DejaVuSans-31"/>
     <use xlink:href="#DejaVuSans-30" transform="translate(63.623047 0)"/>
     <use xlink:href="#DejaVuSans-30" transform="translate(127.246094 0)"/>
     <use xlink:href="#DejaVuSans-20" transform="translate(190.869141 0)"/>
     <use xlink:href="#DejaVuSans-48" transform="translate(222.65625 0)"/>
     <use xlink:href="#DejaVuSans-7a" transform="translate(297.851562 0)"/>
    </g>
   </g>
   <g id="text_12">
    <!-- 1000 Hz -->
    <g style="fill: #4a4a5a" transform="translate(241.216121 61.174191) scale(0.09 -0.09)">
     <use xlink:href="#DejaVuSans-31"/>
     <use xlink:href="#DejaVuSans-30" transform="translate(63.623047 0)"/>
     <use xlink:href="#DejaVuSans-30" transform="translate(127.246094 0)"/>
     <use xlink:href="#DejaVuSans-30" transform="translate(190.869141 0)"/>
     <use xlink:href="#DejaVuSans-20" transform="translate(254.492188 0)"/>
     <use xlink:href="#DejaVuSans-48" transform="translate(286.279297 0)"/>
     <use xlink:href="#DejaVuSans-7a" transform="translate(361.474609 0)"/>
    </g>
   </g>
   <g id="text_13">
    <!-- Seconds -->
    <g style="fill: #4a4a5a" transform="translate(396.317711 373.968309) scale(0.09 -0.09)">
     <use xlink:href="#DejaVuSans-53"/>
     <use xlink:href="#DejaVuSans-65" transform="translate(63.476562 0)"/>
     <use xlink:href="#DejaVuSans-63" transform="translate(125 0)"/>
     <use xlink:href="#DejaVuSans-6f" transform="translate(179.980469 0)"/>
     <use xlink:href="#DejaVuSans-6e" transform="translate(241.162109 0)"/>
     <use xlink:href="#DejaVuSans-64" transform="translate(304.541016 0)"/>
     <use xlink:href="#DejaVuSans-73" transform="translate(368.017578 0)"/>
    </g>
   </g>
   <g id="text_14">
    <!-- Minutes -->
    <g style="fill: #4a4a5a" transform="translate(398.702711 269.703603) scale(0.09 -0.09)">
     <use xlink:href="#DejaVuSans-4d"/>
     <use xlink:href="#DejaVuSans-69" transform="translate(86.279297 0)"/>
     <use xlink:href="#DejaVuSans-6e" transform="translate(114.0625 0)"/>
     <use xlink:href="#DejaVuSans-75" transform="translate(177.441406 0)"/>
     <use xlink:href="#DejaVuSans-74" transform="translate(240.820312 0)"/>
     <use xlink:href="#DejaVuSans-65" transform="translate(280.029297 0)"/>
     <use xlink:href="#DejaVuSans-73" transform="translate(341.552734 0)"/>
    </g>
   </g>
   <g id="text_15">
    <!-- Hours -->
    <g style="fill: #4a4a5a" transform="translate(407.76318 165.438897) scale(0.09 -0.09)">
     <use xlink:href="#DejaVuSans-48"/>
     <use xlink:href="#DejaVuSans-6f" transform="translate(75.195312 0)"/>
     <use xlink:href="#DejaVuSans-75" transform="translate(136.376953 0)"/>
     <use xlink:href="#DejaVuSans-72" transform="translate(199.755859 0)"/>
     <use xlink:href="#DejaVuSans-73" transform="translate(240.869141 0)"/>
    </g>
   </g>
   <g id="text_16">
    <!-- Days -->
    <g style="fill: #4a4a5a" transform="translate(411.669743 61.174191) scale(0.09 -0.09)">
     <defs>
      <path id="DejaVuSans-79" d="M 2059 -325 
Q 1816 -950 1584 -1140 
Q 1353 -1331 966 -1331 
L 506 -1331 
L 506 -850 
L 844 -850 
Q 1081 -850 1212 -737 
Q 1344 -625 1503 -206 
L 1606 56 
L 191 3500 
L 800 3500 
L 1894 763 
L 2988 3500 
L 3597 3500 
L 2059 -325 
z
" transform="scale(0.015625)"/>
     </defs>
     <use xlink:href="#DejaVuSans-44"/>
     <use xlink:href="#DejaVuSans-61" transform="translate(77.001953 0)"/>
     <use xlink:href="#DejaVuSans-79" transform="translate(138.28125 0)"/>
     <use xlink:href="#DejaVuSans-73" transform="translate(197.460938 0)"/>
    </g>
   </g>
   <g id="text_17">
    <!-- 1 µm³ -->
    <g style="fill: #4a4a5a" transform="translate(599.12685 373.968309) scale(0.09 -0.09)">
     <defs>
      <path id="DejaVuSans-b5" d="M 544 -1331 
L 544 3500 
L 1119 3500 
L 1119 1325 
Q 1119 872 1334 640 
Q 1550 409 1972 409 
Q 2434 409 2667 671 
Q 2900 934 2900 1459 
L 2900 3500 
L 3475 3500 
L 3475 806 
Q 3475 619 3529 530 
Q 3584 441 3700 441 
Q 3728 441 3778 458 
Q 3828 475 3916 513 
L 3916 50 
Q 3788 -22 3673 -56 
Q 3559 -91 3450 -91 
Q 3234 -91 3106 31 
Q 2978 153 2931 403 
Q 2775 156 2548 32 
Q 2322 -91 2016 -91 
Q 1697 -91 1473 31 
Q 1250 153 1119 397 
L 1119 -1331 
L 544 -1331 
z
" transform="scale(0.015625)"/>
      <path id="DejaVuSans-b3" d="M 1638 3500 
Q 1925 3444 2083 3273 
Q 2241 3103 2241 2847 
Q 2241 2459 1944 2250 
Q 1647 2041 1094 2041 
Q 916 2041 720 2073 
Q 525 2106 306 2169 
L 306 2547 
Q 469 2463 655 2422 
Q 841 2381 1050 2381 
Q 1391 2381 1578 2504 
Q 1766 2628 1766 2847 
Q 1766 3078 1592 3197 
Q 1419 3316 1081 3316 
L 813 3316 
L 813 3653 
L 1106 3653 
Q 1400 3653 1551 3751 
Q 1703 3850 1703 4038 
Q 1703 4219 1547 4314 
Q 1391 4409 1094 4409 
Q 969 4409 809 4381 
Q 650 4353 397 4281 
L 397 4641 
Q 625 4694 825 4722 
Q 1025 4750 1197 4750 
Q 1647 4750 1911 4565 
Q 2175 4381 2175 4072 
Q 2175 3856 2034 3706 
Q 1894 3556 1638 3500 
z
" transform="scale(0.015625)"/>
     </defs>
     <use xlink:href="#DejaVuSans-31"/>
     <use xlink:href="#DejaVuSans-20" transform="translate(63.623047 0)"/>
     <use xlink:href="#DejaVuSans-b5" transform="translate(95.410156 0)"/>
     <use xlink:href="#DejaVuSans-6d" transform="translate(159.033203 0)"/>
     <use xlink:href="#DejaVuSans-b3" transform="translate(256.445312 0)"/>
    </g>
   </g>
   <g id="text_18">
    <!-- 1 mm³ -->
    <g style="fill: #4a4a5a" transform="translate(599.12685 269.703603) scale(0.09 -0.09)">
     <use xlink:href="#DejaVuSans-31"/>
     <use xlink:href="#DejaVuSans-20" transform="translate(63.623047 0)"/>
     <use xlink:href="#DejaVuSans-6d" transform="translate(95.410156 0)"/>
     <use xlink:href="#DejaVuSans-6d" transform="translate(192.822266 0)"/>
     <use xlink:href="#DejaVuSans-b3" transform="translate(290.234375 0)"/>
    </g>
   </g>
   <g id="text_19">
    <!-- 1 cm³ -->
    <g style="fill: #4a4a5a" transform="translate(599.12685 165.438897) scale(0.09 -0.09)">
     <use xlink:href="#DejaVuSans-31"/>
     <use xlink:href="#DejaVuSans-20" transform="translate(63.623047 0)"/>
     <use xlink:href="#DejaVuSans-63" transform="translate(95.410156 0)"/>
     <use xlink:href="#DejaVuSans-6d" transform="translate(150.390625 0)"/>
     <use xlink:href="#DejaVuSans-b3" transform="translate(247.802734 0)"/>
    </g>
   </g>
   <g id="text_20">
    <!-- 1 dm³ -->
    <g style="fill: #4a4a5a" transform="translate(599.12685 61.174191) scale(0.09 -0.09)">
     <use xlink:href="#DejaVuSans-31"/>
     <use xlink:href="#DejaVuSans-20" transform="translate(63.623047 0)"/>
     <use xlink:href="#DejaVuSans-64" transform="translate(95.410156 0)"/>
     <use xlink:href="#DejaVuSans-6d" transform="translate(158.886719 0)"/>
     <use xlink:href="#DejaVuSans-b3" transform="translate(256.298828 0)"/>
    </g>
   </g>
   <g id="text_21">
    <!-- Brain Tissue Recording Modalities Comparison -->
    <g style="fill: #3a3a48" transform="translate(177.385613 17.837812) scale(0.14 -0.14)">
     <defs>
      <path id="DejaVuSans-Bold-42" d="M 2456 2859 
Q 2741 2859 2887 2984 
Q 3034 3109 3034 3353 
Q 3034 3594 2887 3720 
Q 2741 3847 2456 3847 
L 1791 3847 
L 1791 2859 
L 2456 2859 
z
M 2497 819 
Q 2859 819 3042 972 
Q 3225 1125 3225 1434 
Q 3225 1738 3044 1889 
Q 2863 2041 2497 2041 
L 1791 2041 
L 1791 819 
L 2497 819 
z
M 3616 2497 
Q 4003 2384 4215 2081 
Q 4428 1778 4428 1338 
Q 4428 663 3972 331 
Q 3516 0 2584 0 
L 588 0 
L 588 4666 
L 2394 4666 
Q 3366 4666 3802 4372 
Q 4238 4078 4238 3431 
Q 4238 3091 4078 2852 
Q 3919 2613 3616 2497 
z
" transform="scale(0.015625)"/>
      <path id="DejaVuSans-Bold-72" d="M 3138 2547 
Q 2991 2616 2845 2648 
Q 2700 2681 2553 2681 
Q 2122 2681 1889 2404 
Q 1656 2128 1656 1613 
L 1656 0 
L 538 0 
L 538 3500 
L 1656 3500 
L 1656 2925 
Q 1872 3269 2151 3426 
Q 2431 3584 2822 3584 
Q 2878 3584 2943 3579 
Q 3009 3575 3134 3559 
L 3138 2547 
z
" transform="scale(0.015625)"/>
      <path id="DejaVuSans-Bold-61" d="M 2106 1575 
Q 1756 1575 1579 1456 
Q 1403 1338 1403 1106 
Q 1403 894 1545 773 
Q 1688 653 1941 653 
Q 2256 653 2472 879 
Q 2688 1106 2688 1447 
L 2688 1575 
L 2106 1575 
z
M 3816 1997 
L 3816 0 
L 2688 0 
L 2688 519 
Q 2463 200 2181 54 
Q 1900 -91 1497 -91 
Q 953 -91 614 226 
Q 275 544 275 1050 
Q 275 1666 698 1953 
Q 1122 2241 2028 2241 
L 2688 2241 
L 2688 2328 
Q 2688 2594 2478 2717 
Q 2269 2841 1825 2841 
Q 1466 2841 1156 2769 
Q 847 2697 581 2553 
L 581 3406 
Q 941 3494 1303 3539 
Q 1666 3584 2028 3584 
Q 2975 3584 3395 3211 
Q 3816 2838 3816 1997 
z
" transform="scale(0.015625)"/>
      <path id="DejaVuSans-Bold-69" d="M 538 3500 
L 1656 3500 
L 1656 0 
L 538 0 
L 538 3500 
z
M 538 4863 
L 1656 4863 
L 1656 3950 
L 538 3950 
L 538 4863 
z
" transform="scale(0.015625)"/>
      <path id="DejaVuSans-Bold-6e" d="M 4056 2131 
L 4056 0 
L 2931 0 
L 2931 347 
L 2931 1631 
Q 2931 2084 2911 2256 
Q 2891 2428 2841 2509 
Q 2775 2619 2662 2680 
Q 2550 2741 2406 2741 
Q 2056 2741 1856 2470 
Q 1656 2200 1656 1722 
L 1656 0 
L 538 0 
L 538 3500 
L 1656 3500 
L 1656 2988 
Q 1909 3294 2193 3439 
Q 2478 3584 2822 3584 
Q 3428 3584 3742 3212 
Q 4056 2841 4056 2131 
z
" transform="scale(0.015625)"/>
      <path id="DejaVuSans-Bold-20" transform="scale(0.015625)"/>
      <path id="DejaVuSans-Bold-54" d="M 31 4666 
L 4331 4666 
L 4331 3756 
L 2784 3756 
L 2784 0 
L 1581 0 
L 1581 3756 
L 31 3756 
L 31 4666 
z
" transform="scale(0.015625)"/>
      <path id="DejaVuSans-Bold-73" d="M 3272 3391 
L 3272 2541 
Q 2913 2691 2578 2766 
Q 2244 2841 1947 2841 
Q 1628 2841 1473 2761 
Q 1319 2681 1319 2516 
Q 1319 2381 1436 2309 
Q 1553 2238 1856 2203 
L 2053 2175 
Q 2913 2066 3209 1816 
Q 3506 1566 3506 1031 
Q 3506 472 3093 190 
Q 2681 -91 1863 -91 
Q 1516 -91 1145 -36 
Q 775 19 384 128 
L 384 978 
Q 719 816 1070 734 
Q 1422 653 1784 653 
Q 2113 653 2278 743 
Q 2444 834 2444 1013 
Q 2444 1163 2330 1236 
Q 2216 1309 1875 1350 
L 1678 1375 
Q 931 1469 631 1722 
Q 331 1975 331 2491 
Q 331 3047 712 3315 
Q 1094 3584 1881 3584 
Q 2191 3584 2531 3537 
Q 2872 3491 3272 3391 
z
" transform="scale(0.015625)"/>
      <path id="DejaVuSans-Bold-75" d="M 500 1363 
L 500 3500 
L 1625 3500 
L 1625 3150 
Q 1625 2866 1622 2436 
Q 1619 2006 1619 1863 
Q 1619 1441 1641 1255 
Q 1663 1069 1716 984 
Q 1784 875 1895 815 
Q 2006 756 2150 756 
Q 2500 756 2700 1025 
Q 2900 1294 2900 1772 
L 2900 3500 
L 4019 3500 
L 4019 0 
L 2900 0 
L 2900 506 
Q 2647 200 2364 54 
Q 2081 -91 1741 -91 
Q 1134 -91 817 281 
Q 500 653 500 1363 
z
" transform="scale(0.015625)"/>
      <path id="DejaVuSans-Bold-65" d="M 4031 1759 
L 4031 1441 
L 1416 1441 
Q 1456 1047 1700 850 
Q 1944 653 2381 653 
Q 2734 653 3104 758 
Q 3475 863 3866 1075 
L 3866 213 
Q 3469 63 3072 -14 
Q 2675 -91 2278 -91 
Q 1328 -91 801 392 
Q 275 875 275 1747 
Q 275 2603 792 3093 
Q 1309 3584 2216 3584 
Q 3041 3584 3536 3087 
Q 4031 2591 4031 1759 
z
M 2881 2131 
Q 2881 2450 2695 2645 
Q 2509 2841 2209 2841 
Q 1884 2841 1681 2658 
Q 1478 2475 1428 2131 
L 2881 2131 
z
" transform="scale(0.015625)"/>
      <path id="DejaVuSans-Bold-52" d="M 2297 2597 
Q 2675 2597 2839 2737 
Q 3003 2878 3003 3200 
Q 3003 3519 2839 3656 
Q 2675 3794 2297 3794 
L 1791 3794 
L 1791 2597 
L 2297 2597 
z
M 1791 1766 
L 1791 0 
L 588 0 
L 588 4666 
L 2425 4666 
Q 3347 4666 3776 4356 
Q 4206 4047 4206 3378 
Q 4206 2916 3982 2619 
Q 3759 2322 3309 2181 
Q 3556 2125 3751 1926 
Q 3947 1728 4147 1325 
L 4800 0 
L 3519 0 
L 2950 1159 
Q 2778 1509 2601 1637 
Q 2425 1766 2131 1766 
L 1791 1766 
z
" transform="scale(0.015625)"/>
      <path id="DejaVuSans-Bold-63" d="M 3366 3391 
L 3366 2478 
Q 3138 2634 2908 2709 
Q 2678 2784 2431 2784 
Q 1963 2784 1702 2511 
Q 1441 2238 1441 1747 
Q 1441 1256 1702 982 
Q 1963 709 2431 709 
Q 2694 709 2930 787 
Q 3166 866 3366 1019 
L 3366 103 
Q 3103 6 2833 -42 
Q 2563 -91 2291 -91 
Q 1344 -91 809 395 
Q 275 881 275 1747 
Q 275 2613 809 3098 
Q 1344 3584 2291 3584 
Q 2566 3584 2833 3536 
Q 3100 3488 3366 3391 
z
" transform="scale(0.015625)"/>
      <path id="DejaVuSans-Bold-6f" d="M 2203 2784 
Q 1831 2784 1636 2517 
Q 1441 2250 1441 1747 
Q 1441 1244 1636 976 
Q 1831 709 2203 709 
Q 2569 709 2762 976 
Q 2956 1244 2956 1747 
Q 2956 2250 2762 2517 
Q 2569 2784 2203 2784 
z
M 2203 3584 
Q 3106 3584 3614 3096 
Q 4122 2609 4122 1747 
Q 4122 884 3614 396 
Q 3106 -91 2203 -91 
Q 1297 -91 786 396 
Q 275 884 275 1747 
Q 275 2609 786 3096 
Q 1297 3584 2203 3584 
z
" transform="scale(0.015625)"/>
      <path id="DejaVuSans-Bold-64" d="M 2919 2988 
L 2919 4863 
L 4044 4863 
L 4044 0 
L 2919 0 
L 2919 506 
Q 2688 197 2409 53 
Q 2131 -91 1766 -91 
Q 1119 -91 703 423 
Q 288 938 288 1747 
Q 288 2556 703 3070 
Q 1119 3584 1766 3584 
Q 2128 3584 2408 3439 
Q 2688 3294 2919 2988 
z
M 2181 722 
Q 2541 722 2730 984 
Q 2919 1247 2919 1747 
Q 2919 2247 2730 2509 
Q 2541 2772 2181 2772 
Q 1825 2772 1636 2509 
Q 1447 2247 1447 1747 
Q 1447 1247 1636 984 
Q 1825 722 2181 722 
z
" transform="scale(0.015625)"/>
      <path id="DejaVuSans-Bold-67" d="M 2919 594 
Q 2688 288 2409 144 
Q 2131 0 1766 0 
Q 1125 0 706 504 
Q 288 1009 288 1791 
Q 288 2575 706 3076 
Q 1125 3578 1766 3578 
Q 2131 3578 2409 3434 
Q 2688 3291 2919 2981 
L 2919 3500 
L 4044 3500 
L 4044 353 
Q 4044 -491 3511 -936 
Q 2978 -1381 1966 -1381 
Q 1638 -1381 1331 -1331 
Q 1025 -1281 716 -1178 
L 716 -306 
Q 1009 -475 1290 -558 
Q 1572 -641 1856 -641 
Q 2406 -641 2662 -400 
Q 2919 -159 2919 353 
L 2919 594 
z
M 2181 2772 
Q 1834 2772 1640 2515 
Q 1447 2259 1447 1791 
Q 1447 1309 1634 1061 
Q 1822 813 2181 813 
Q 2531 813 2725 1069 
Q 2919 1325 2919 1791 
Q 2919 2259 2725 2515 
Q 2531 2772 2181 2772 
z
" transform="scale(0.015625)"/>
      <path id="DejaVuSans-Bold-4d" d="M 588 4666 
L 2119 4666 
L 3181 2169 
L 4250 4666 
L 5778 4666 
L 5778 0 
L 4641 0 
L 4641 3413 
L 3566 897 
L 2803 897 
L 1728 3413 
L 1728 0 
L 588 0 
L 588 4666 
z
" transform="scale(0.015625)"/>
      <path id="DejaVuSans-Bold-6c" d="M 538 4863 
L 1656 4863 
L 1656 0 
L 538 0 
L 538 4863 
z
" transform="scale(0.015625)"/>
      <path id="DejaVuSans-Bold-74" d="M 1759 4494 
L 1759 3500 
L 2913 3500 
L 2913 2700 
L 1759 2700 
L 1759 1216 
Q 1759 972 1856 886 
Q 1953 800 2241 800 
L 2816 800 
L 2816 0 
L 1856 0 
Q 1194 0 917 276 
Q 641 553 641 1216 
L 641 2700 
L 84 2700 
L 84 3500 
L 641 3500 
L 641 4494 
L 1759 4494 
z
" transform="scale(0.015625)"/>
      <path id="DejaVuSans-Bold-43" d="M 4288 256 
Q 3956 84 3597 -3 
Q 3238 -91 2847 -91 
Q 1681 -91 1000 561 
Q 319 1213 319 2328 
Q 319 3447 1000 4098 
Q 1681 4750 2847 4750 
Q 3238 4750 3597 4662 
Q 3956 4575 4288 4403 
L 4288 3438 
Q 3953 3666 3628 3772 
Q 3303 3878 2944 3878 
Q 2300 3878 1931 3465 
Q 1563 3053 1563 2328 
Q 1563 1606 1931 1193 
Q 2300 781 2944 781 
Q 3303 781 3628 887 
Q 3953 994 4288 1222 
L 4288 256 
z
" transform="scale(0.015625)"/>
      <path id="DejaVuSans-Bold-6d" d="M 3781 2919 
Q 3994 3244 4286 3414 
Q 4578 3584 4928 3584 
Q 5531 3584 5847 3212 
Q 6163 2841 6163 2131 
L 6163 0 
L 5038 0 
L 5038 1825 
Q 5041 1866 5042 1909 
Q 5044 1953 5044 2034 
Q 5044 2406 4934 2573 
Q 4825 2741 4581 2741 
Q 4263 2741 4089 2478 
Q 3916 2216 3909 1719 
L 3909 0 
L 2784 0 
L 2784 1825 
Q 2784 2406 2684 2573 
Q 2584 2741 2328 2741 
Q 2006 2741 1831 2477 
Q 1656 2213 1656 1722 
L 1656 0 
L 531 0 
L 531 3500 
L 1656 3500 
L 1656 2988 
Q 1863 3284 2130 3434 
Q 2397 3584 2719 3584 
Q 3081 3584 3359 3409 
Q 3638 3234 3781 2919 
z
" transform="scale(0.015625)"/>
      <path id="DejaVuSans-Bold-70" d="M 1656 506 
L 1656 -1331 
L 538 -1331 
L 538 3500 
L 1656 3500 
L 1656 2988 
Q 1888 3294 2169 3439 
Q 2450 3584 2816 3584 
Q 3463 3584 3878 3070 
Q 4294 2556 4294 1747 
Q 4294 938 3878 423 
Q 3463 -91 2816 -91 
Q 2450 -91 2169 54 
Q 1888 200 1656 506 
z
M 2400 2772 
Q 2041 2772 1848 2508 
Q 1656 2244 1656 1747 
Q 1656 1250 1848 986 
Q 2041 722 2400 722 
Q 2759 722 2948 984 
Q 3138 1247 3138 1747 
Q 3138 2247 2948 2509 
Q 2759 2772 2400 2772 
z
" transform="scale(0.015625)"/>
     </defs>
     <use xlink:href="#DejaVuSans-Bold-42"/>
     <use xlink:href="#DejaVuSans-Bold-72" transform="translate(76.220703 0)"/>
     <use xlink:href="#DejaVuSans-Bold-61" transform="translate(125.537109 0)"/>
     <use xlink:href="#DejaVuSans-Bold-69" transform="translate(193.017578 0)"/>
     <use xlink:href="#DejaVuSans-Bold-6e" transform="translate(227.294922 0)"/>
     <use xlink:href="#DejaVuSans-Bold-20" transform="translate(298.486328 0)"/>
     <use xlink:href="#DejaVuSans-Bold-54" transform="translate(333.300781 0)"/>
     <use xlink:href="#DejaVuSans-Bold-69" transform="translate(401.513672 0)"/>
     <use xlink:href="#DejaVuSans-Bold-73" transform="translate(435.791016 0)"/>
     <use xlink:href="#DejaVuSans-Bold-73" transform="translate(495.3125 0)"/>
     <use xlink:href="#DejaVuSans-Bold-75" transform="translate(554.833984 0)"/>
     <use xlink:href="#DejaVuSans-Bold-65" transform="translate(626.025391 0)"/>
     <use xlink:href="#DejaVuSans-Bold-20" transform="translate(693.847656 0)"/>
     <use xlink:href="#DejaVuSans-Bold-52" transform="translate(728.662109 0)"/>
     <use xlink:href="#DejaVuSans-Bold-65" transform="translate(805.664062 0)"/>
     <use xlink:href="#DejaVuSans-Bold-63" transform="translate(873.486328 0)"/>
     <use xlink:href="#DejaVuSans-Bold-6f" transform="translate(932.763672 0)"/>
     <use xlink:href="#DejaVuSans-Bold-72" transform="translate(1001.464844 0)"/>
     <use xlink:href="#DejaVuSans-Bold-64" transform="translate(1050.78125 0)"/>
     <use xlink:href="#DejaVuSans-Bold-69" transform="translate(1122.363281 0)"/>
     <use xlink:href="#DejaVuSans-Bold-6e" transform="translate(1156.640625 0)"/>
     <use xlink:href="#DejaVuSans-Bold-67" transform="translate(1227.832031 0)"/>
     <use xlink:href="#DejaVuSans-Bold-20" transform="translate(1299.414062 0)"/>
     <use xlink:href="#DejaVuSans-Bold-4d" transform="translate(1334.228516 0)"/>
     <use xlink:href="#DejaVuSans-Bold-6f" transform="translate(1433.740234 0)"/>
     <use xlink:href="#DejaVuSans-Bold-64" transform="translate(1502.441406 0)"/>
     <use xlink:href="#DejaVuSans-Bold-61" transform="translate(1574.023438 0)"/>
     <use xlink:href="#DejaVuSans-Bold-6c" transform="translate(1641.503906 0)"/>
     <use xlink:href="#DejaVuSans-Bold-69" transform="translate(1675.78125 0)"/>
     <use xlink:href="#DejaVuSans-Bold-74" transform="translate(1710.058594 0)"/>
     <use xlink:href="#DejaVuSans-Bold-69" transform="translate(1757.861328 0)"/>
     <use xlink:href="#DejaVuSans-Bold-65" transform="translate(1792.138672 0)"/>
     <use xlink:href="#DejaVuSans-Bold-73" transform="translate(1859.960938 0)"/>
     <use xlink:href="#DejaVuSans-Bold-20" transform="translate(1919.482422 0)"/>
     <use xlink:href="#DejaVuSans-Bold-43" transform="translate(1954.296875 0)"/>
     <use xlink:href="#DejaVuSans-Bold-6f" transform="translate(2027.685547 0)"/>
     <use xlink:href="#DejaVuSans-Bold-6d" transform="translate(2096.386719 0)"/>
     <use xlink:href="#DejaVuSans-Bold-70" transform="translate(2200.585938 0)"/>
     <use xlink:href="#DejaVuSans-Bold-61" transform="translate(2272.167969 0)"/>
     <use xlink:href="#DejaVuSans-Bold-72" transform="translate(2339.648438 0)"/>
     <use xlink:href="#DejaVuSans-Bold-69" transform="translate(2388.964844 0)"/>
     <use xlink:href="#DejaVuSans-Bold-73" transform="translate(2423.242188 0)"/>
     <use xlink:href="#DejaVuSans-Bold-6f" transform="translate(2482.763672 0)"/>
     <use xlink:href="#DejaVuSans-Bold-6e" transform="translate(2551.464844 0)"/>
    </g>
   </g>
   <g id="legend_1">
    <g id="patch_3">
     <path d="M 643.87323 156.227187 
L 773.731668 156.227187 
Q 775.931668 156.227187 775.931668 154.027187 
L 775.931668 45.537812 
Q 775.931668 43.337812 773.731668 43.337812 
L 643.87323 43.337812 
Q 641.67323 43.337812 641.67323 45.537812 
L 641.67323 154.027187 
Q 641.67323 156.227187 643.87323 156.227187 
z
" style="fill: #ffffff; opacity: 0.9; stroke: #e8e5e1; stroke-linejoin: miter"/>
    </g>
    <g id="text_22">
     <!-- Method -->
     <g style="fill: #4a4a5a" transform="translate(686.298699 57.955937) scale(0.12 -0.12)">
      <use xlink:href="#DejaVuSans-4d"/>
      <use xlink:href="#DejaVuSans-65" transform="translate(86.279297 0)"/>
      <use xlink:href="#DejaVuSans-74" transform="translate(147.802734 0)"/>
      <use xlink:href="#DejaVuSans-68" transform="translate(187.011719 0)"/>
      <use xlink:href="#DejaVuSans-6f" transform="translate(250.390625 0)"/>
      <use xlink:href="#DejaVuSans-64" transform="translate(311.572266 0)"/>
     </g>
    </g>
    <g id="line2d_11">
     <path d="M 647.17323 69.359844 
L 658.17323 69.359844 
L 669.17323 69.359844 
" style="fill: none; stroke: #d4a84b; stroke-width: 2.5; stroke-linecap: round"/>
     <g>
      <use xlink:href="#m4f9311ad74" x="658.17323" y="69.359844" style="fill: #d4a84b; stroke: #ffffff; stroke-width: 1.5"/>
     </g>
    </g>
    <g id="text_23">
     <!-- fUS -->
     <g style="fill: #4a4a5a" transform="translate(677.97323 73.209844) scale(0.11 -0.11)">
      <defs>
       <path id="DejaVuSans-55" d="M 556 4666 
L 1191 4666 
L 1191 1831 
Q 1191 1081 1462 751 
Q 1734 422 2344 422 
Q 2950 422 3222 751 
Q 3494 1081 3494 1831 
L 3494 4666 
L 4128 4666 
L 4128 1753 
Q 4128 841 3676 375 
Q 3225 -91 2344 -91 
Q 1459 -91 1007 375 
Q 556 841 556 1753 
L 556 4666 
z
" transform="scale(0.015625)"/>
      </defs>
      <use xlink:href="#DejaVuSans-66"/>
      <use xlink:href="#DejaVuSans-55" transform="translate(35.205078 0)"/>
      <use xlink:href="#DejaVuSans-53" transform="translate(108.398438 0)"/>
     </g>
    </g>
    <g id="line2d_12">
     <path d="M 647.17323 84.405781 
L 658.17323 84.405781 
L 669.17323 84.405781 
" style="fill: none; stroke: #4a90a4; stroke-width: 2.5; stroke-linecap: round"/>
     <g>
      <use xlink:href="#m2b73fa8eb2" x="658.17323" y="84.405781" style="fill: #4a90a4; stroke: #ffffff; stroke-width: 1.5"/>
     </g>
    </g>
    <g id="text_24">
     <!-- Calcium Imaging -->
     <g style="fill: #4a4a5a" transform="translate(677.97323 88.255781) scale(0.11 -0.11)">
      <defs>
       <path id="DejaVuSans-43" d="M 4122 4306 
L 4122 3641 
Q 3803 3938 3442 4084 
Q 3081 4231 2675 4231 
Q 1875 4231 1450 3742 
Q 1025 3253 1025 2328 
Q 1025 1406 1450 917 
Q 1875 428 2675 428 
Q 3081 428 3442 575 
Q 3803 722 4122 1019 
L 4122 359 
Q 3791 134 3420 21 
Q 3050 -91 2638 -91 
Q 1578 -91 968 557 
Q 359 1206 359 2328 
Q 359 3453 968 4101 
Q 1578 4750 2638 4750 
Q 3056 4750 3426 4639 
Q 3797 4528 4122 4306 
z
" transform="scale(0.015625)"/>
       <path id="DejaVuSans-49" d="M 628 4666 
L 1259 4666 
L 1259 0 
L 628 0 
L 628 4666 
z
" transform="scale(0.015625)"/>
      </defs>
      <use xlink:href="#DejaVuSans-43"/>
      <use xlink:href="#DejaVuSans-61" transform="translate(69.824219 0)"/>
      <use xlink:href="#DejaVuSans-6c" transform="translate(131.103516 0)"/>
      <use xlink:href="#DejaVuSans-63" transform="translate(158.886719 0)"/>
      <use xlink:href="#DejaVuSans-69" transform="translate(213.867188 0)"/>
      <use xlink:href="#DejaVuSans-75" transform="translate(241.650391 0)"/>
      <use xlink:href="#DejaVuSans-6d" transform="translate(305.029297 0)"/>
      <use xlink:href="#DejaVuSans-20" transform="translate(402.441406 0)"/>
      <use xlink:href="#DejaVuSans-49" transform="translate(434.228516 0)"/>
      <use xlink:href="#DejaVuSans-6d" transform="translate(463.720703 0)"/>
      <use xlink:href="#DejaVuSans-61" transform="translate(561.132812 0)"/>
      <use xlink:href="#DejaVuSans-67" transform="translate(622.412109 0)"/>
      <use xlink:href="#DejaVuSans-69" transform="translate(685.888672 0)"/>
      <use xlink:href="#DejaVuSans-6e" transform="translate(713.671875 0)"/>
      <use xlink:href="#DejaVuSans-67" transform="translate(777.050781 0)"/>
     </g>
    </g>
    <g id="line2d_13">
     <path d="M 647.17323 99.451719 
L 658.17323 99.451719 
L 669.17323 99.451719 
" style="fill: none; stroke: #6b6080; stroke-width: 2.5; stroke-linecap: round"/>
     <g>
      <use xlink:href="#m42f219c881" x="658.17323" y="99.451719" style="fill: #6b6080; stroke: #ffffff; stroke-width: 1.5"/>
     </g>
    </g>
    <g id="text_25">
     <!-- Voltage Imaging -->
     <g style="fill: #4a4a5a" transform="translate(677.97323 103.301719) scale(0.11 -0.11)">
      <use xlink:href="#DejaVuSans-56"/>
      <use xlink:href="#DejaVuSans-6f" transform="translate(60.658203 0)"/>
      <use xlink:href="#DejaVuSans-6c" transform="translate(121.839844 0)"/>
      <use xlink:href="#DejaVuSans-74" transform="translate(149.623047 0)"/>
      <use xlink:href="#DejaVuSans-61" transform="translate(188.832031 0)"/>
      <use xlink:href="#DejaVuSans-67" transform="translate(250.111328 0)"/>
      <use xlink:href="#DejaVuSans-65" transform="translate(313.587891 0)"/>
      <use xlink:href="#DejaVuSans-20" transform="translate(375.111328 0)"/>
      <use xlink:href="#DejaVuSans-49" transform="translate(406.898438 0)"/>
      <use xlink:href="#DejaVuSans-6d" transform="translate(436.390625 0)"/>
      <use xlink:href="#DejaVuSans-61" transform="translate(533.802734 0)"/>
      <use xlink:href="#DejaVuSans-67" transform="translate(595.082031 0)"/>
      <use xlink:href="#DejaVuSans-69" transform="translate(658.558594 0)"/>
      <use xlink:href="#DejaVuSans-6e" transform="translate(686.341797 0)"/>
      <use xlink:href="#DejaVuSans-67" transform="translate(749.720703 0)"/>
     </g>
    </g>
    <g id="line2d_14">
     <path d="M 647.17323 114.497656 
L 658.17323 114.497656 
L 669.17323 114.497656 
" style="fill: none; stroke: #8b7355; stroke-width: 2.5; stroke-linecap: round"/>
     <g>
      <use xlink:href="#m3827f5ad01" x="658.17323" y="114.497656" style="fill: #8b7355; stroke: #ffffff; stroke-width: 1.5"/>
     </g>
    </g>
    <g id="text_26">
     <!-- MEA -->
     <g style="fill: #4a4a5a" transform="translate(677.97323 118.347656) scale(0.11 -0.11)">
      <defs>
       <path id="DejaVuSans-45" d="M 628 4666 
L 3578 4666 
L 3578 4134 
L 1259 4134 
L 1259 2753 
L 3481 2753 
L 3481 2222 
L 1259 2222 
L 1259 531 
L 3634 531 
L 3634 0 
L 628 0 
L 628 4666 
z
" transform="scale(0.015625)"/>
       <path id="DejaVuSans-41" d="M 2188 4044 
L 1331 1722 
L 3047 1722 
L 2188 4044 
z
M 1831 4666 
L 2547 4666 
L 4325 0 
L 3669 0 
L 3244 1197 
L 1141 1197 
L 716 0 
L 50 0 
L 1831 4666 
z
" transform="scale(0.015625)"/>
      </defs>
      <use xlink:href="#DejaVuSans-4d"/>
      <use xlink:href="#DejaVuSans-45" transform="translate(86.279297 0)"/>
      <use xlink:href="#DejaVuSans-41" transform="translate(149.462891 0)"/>
     </g>
    </g>
    <g id="line2d_15">
     <path d="M 647.17323 129.543594 
L 658.17323 129.543594 
L 669.17323 129.543594 
" style="fill: none; stroke-dasharray: 9.25,4; stroke-dashoffset: 0; stroke: #5c8b6b; stroke-width: 2.5"/>
     <g>
      <use xlink:href="#m49b115752e" x="658.17323" y="129.543594" style="fill: #5c8b6b; stroke: #ffffff; stroke-width: 1.5"/>
     </g>
    </g>
    <g id="text_27">
     <!-- EEG -->
     <g style="fill: #4a4a5a" transform="translate(677.97323 133.393594) scale(0.11 -0.11)">
      <defs>
       <path id="DejaVuSans-47" d="M 3809 666 
L 3809 1919 
L 2778 1919 
L 2778 2438 
L 4434 2438 
L 4434 434 
Q 4069 175 3628 42 
Q 3188 -91 2688 -91 
Q 1594 -91 976 548 
Q 359 1188 359 2328 
Q 359 3472 976 4111 
Q 1594 4750 2688 4750 
Q 3144 4750 3555 4637 
Q 3966 4525 4313 4306 
L 4313 3634 
Q 3963 3931 3569 4081 
Q 3175 4231 2741 4231 
Q 1884 4231 1454 3753 
Q 1025 3275 1025 2328 
Q 1025 1384 1454 906 
Q 1884 428 2741 428 
Q 3075 428 3337 486 
Q 3600 544 3809 666 
z
" transform="scale(0.015625)"/>
      </defs>
      <use xlink:href="#DejaVuSans-45"/>
      <use xlink:href="#DejaVuSans-45" transform="translate(63.183594 0)"/>
      <use xlink:href="#DejaVuSans-47" transform="translate(126.367188 0)"/>
     </g>
    </g>
    <g id="line2d_16">
     <path d="M 647.17323 144.589531 
L 658.17323 144.589531 
L 669.17323 144.589531 
" style="fill: none; stroke-dasharray: 9.25,4; stroke-dashoffset: 0; stroke: #6b6080; stroke-width: 2.5"/>
     <g>
      <use xlink:href="#m7f3b963029" x="658.17323" y="144.589531" style="fill: #6b6080; stroke: #ffffff; stroke-width: 1.5; stroke-linejoin: miter"/>
     </g>
    </g>
    <g id="text_28">
     <!-- fMRI -->
     <g style="fill: #4a4a5a" transform="translate(677.97323 148.439531) scale(0.11 -0.11)">
      <use xlink:href="#DejaVuSans-66"/>
      <use xlink:href="#DejaVuSans-4d" transform="translate(35.205078 0)"/>
      <use xlink:href="#DejaVuSans-52" transform="translate(121.484375 0)"/>
      <use xlink:href="#DejaVuSans-49" transform="translate(190.966797 0)"/>
     </g>
    </g>
   </g>
  </g>
  <g id="text_29">
   <!-- Zanichelli &amp; Schons et al., State of Brain Emulation Report 2025 -->
   <g style="fill: #787470" transform="translate(557.833613 440.276719) scale(0.07 -0.07)">
    <defs>
     <path id="DejaVuSans-Oblique-5a" d="M 838 4666 
L 4500 4666 
L 4409 4184 
L 794 531 
L 3769 531 
L 3669 0 
L -141 0 
L -50 481 
L 3566 4134 
L 738 4134 
L 838 4666 
z
" transform="scale(0.015625)"/>
     <path id="DejaVuSans-Oblique-61" d="M 3438 1997 
L 3047 0 
L 2472 0 
L 2578 531 
Q 2325 219 2001 64 
Q 1678 -91 1281 -91 
Q 834 -91 548 182 
Q 263 456 263 884 
Q 263 1497 752 1853 
Q 1241 2209 2100 2209 
L 2900 2209 
L 2931 2363 
Q 2938 2388 2941 2417 
Q 2944 2447 2944 2509 
Q 2944 2788 2717 2942 
Q 2491 3097 2081 3097 
Q 1800 3097 1504 3025 
Q 1209 2953 897 2809 
L 997 3341 
Q 1322 3463 1633 3523 
Q 1944 3584 2234 3584 
Q 2853 3584 3176 3315 
Q 3500 3047 3500 2534 
Q 3500 2431 3484 2292 
Q 3469 2153 3438 1997 
z
M 2816 1759 
L 2241 1759 
Q 1534 1759 1195 1570 
Q 856 1381 856 984 
Q 856 709 1029 553 
Q 1203 397 1509 397 
Q 1978 397 2328 733 
Q 2678 1069 2791 1631 
L 2816 1759 
z
" transform="scale(0.015625)"/>
     <path id="DejaVuSans-Oblique-6e" d="M 3566 2113 
L 3156 0 
L 2578 0 
L 2988 2091 
Q 3016 2238 3031 2350 
Q 3047 2463 3047 2528 
Q 3047 2791 2881 2937 
Q 2716 3084 2419 3084 
Q 1956 3084 1622 2776 
Q 1288 2469 1184 1941 
L 800 0 
L 225 0 
L 903 3500 
L 1478 3500 
L 1363 2950 
Q 1603 3253 1940 3418 
Q 2278 3584 2650 3584 
Q 3113 3584 3367 3334 
Q 3622 3084 3622 2631 
Q 3622 2519 3608 2391 
Q 3594 2263 3566 2113 
z
" transform="scale(0.015625)"/>
     <path id="DejaVuSans-Oblique-69" d="M 1172 4863 
L 1747 4863 
L 1606 4134 
L 1031 4134 
L 1172 4863 
z
M 909 3500 
L 1484 3500 
L 800 0 
L 225 0 
L 909 3500 
z
" transform="scale(0.015625)"/>
     <path id="DejaVuSans-Oblique-63" d="M 3431 3366 
L 3316 2797 
Q 3109 2947 2876 3022 
Q 2644 3097 2394 3097 
Q 2119 3097 1870 3000 
Q 1622 2903 1453 2725 
Q 1184 2453 1037 2087 
Q 891 1722 891 1331 
Q 891 859 1127 628 
Q 1363 397 1844 397 
Q 2081 397 2348 469 
Q 2616 541 2906 684 
L 2797 116 
Q 2547 13 2283 -39 
Q 2019 -91 1741 -91 
Q 1044 -91 669 257 
Q 294 606 294 1253 
Q 294 1797 489 2255 
Q 684 2713 1069 3078 
Q 1331 3328 1684 3456 
Q 2038 3584 2456 3584 
Q 2700 3584 2940 3529 
Q 3181 3475 3431 3366 
z
" transform="scale(0.015625)"/>
     <path id="DejaVuSans-Oblique-68" d="M 3566 2113 
L 3156 0 
L 2578 0 
L 2988 2091 
Q 3016 2238 3031 2350 
Q 3047 2463 3047 2528 
Q 3047 2791 2881 2937 
Q 2716 3084 2419 3084 
Q 1956 3084 1617 2771 
Q 1278 2459 1178 1941 
L 800 0 
L 225 0 
L 1172 4863 
L 1747 4863 
L 1375 2950 
Q 1594 3244 1934 3414 
Q 2275 3584 2650 3584 
Q 3113 3584 3367 3334 
Q 3622 3084 3622 2631 
Q 3622 2519 3608 2391 
Q 3594 2263 3566 2113 
z
" transform="scale(0.015625)"/>
     <path id="DejaVuSans-Oblique-65" d="M 3078 2063 
Q 3088 2113 3092 2166 
Q 3097 2219 3097 2272 
Q 3097 2653 2873 2875 
Q 2650 3097 2266 3097 
Q 1838 3097 1509 2826 
Q 1181 2556 1013 2059 
L 3078 2063 
z
M 3578 1613 
L 903 1613 
Q 884 1494 878 1425 
Q 872 1356 872 1306 
Q 872 872 1139 634 
Q 1406 397 1894 397 
Q 2269 397 2603 481 
Q 2938 566 3225 728 
L 3116 159 
Q 2806 34 2476 -28 
Q 2147 -91 1806 -91 
Q 1078 -91 686 257 
Q 294 606 294 1247 
Q 294 1794 489 2264 
Q 684 2734 1063 3103 
Q 1306 3334 1642 3459 
Q 1978 3584 2356 3584 
Q 2950 3584 3301 3228 
Q 3653 2872 3653 2272 
Q 3653 2128 3634 1964 
Q 3616 1800 3578 1613 
z
" transform="scale(0.015625)"/>
     <path id="DejaVuSans-Oblique-6c" d="M 1172 4863 
L 1747 4863 
L 800 0 
L 225 0 
L 1172 4863 
z
" transform="scale(0.015625)"/>
     <path id="DejaVuSans-Oblique-20" transform="scale(0.015625)"/>
     <path id="DejaVuSans-Oblique-26" d="M 3022 813 
L 1691 2509 
Q 1313 2234 1117 1925 
Q 922 1616 922 1294 
Q 922 897 1189 656 
Q 1456 416 1900 416 
Q 2194 416 2480 517 
Q 2766 619 3022 813 
z
M 4709 2503 
Q 4569 2006 4339 1593 
Q 4109 1181 3788 844 
L 4441 0 
L 3653 0 
L 3322 434 
Q 2991 175 2609 42 
Q 2228 -91 1813 -91 
Q 1122 -91 711 250 
Q 300 591 300 1153 
Q 300 1634 589 2062 
Q 878 2491 1447 2853 
Q 1350 2997 1304 3145 
Q 1259 3294 1259 3463 
Q 1259 3675 1331 3865 
Q 1403 4056 1538 4213 
Q 1753 4469 2078 4609 
Q 2403 4750 2778 4750 
Q 3022 4750 3269 4694 
Q 3516 4638 3769 4525 
L 3659 3956 
Q 3425 4103 3192 4179 
Q 2959 4256 2741 4256 
Q 2353 4256 2111 4054 
Q 1869 3853 1869 3541 
Q 1869 3403 1928 3268 
Q 1988 3134 2203 2859 
L 3475 1234 
Q 3709 1481 3875 1801 
Q 4041 2122 4128 2503 
L 4709 2503 
z
" transform="scale(0.015625)"/>
     <path id="DejaVuSans-Oblique-53" d="M 3859 4513 
L 3738 3897 
Q 3422 4066 3111 4152 
Q 2800 4238 2509 4238 
Q 1944 4238 1609 3991 
Q 1275 3744 1275 3334 
Q 1275 3109 1398 2989 
Q 1522 2869 2034 2731 
L 2413 2638 
Q 3053 2472 3303 2217 
Q 3553 1963 3553 1503 
Q 3553 797 2998 353 
Q 2444 -91 1538 -91 
Q 1166 -91 791 -17 
Q 416 56 38 206 
L 166 856 
Q 513 641 861 531 
Q 1209 422 1556 422 
Q 2147 422 2503 684 
Q 2859 947 2859 1369 
Q 2859 1650 2717 1795 
Q 2575 1941 2106 2059 
L 1728 2156 
Q 1081 2325 845 2545 
Q 609 2766 609 3163 
Q 609 3859 1145 4304 
Q 1681 4750 2541 4750 
Q 2875 4750 3203 4690 
Q 3531 4631 3859 4513 
z
" transform="scale(0.015625)"/>
     <path id="DejaVuSans-Oblique-6f" d="M 1625 -91 
Q 1009 -91 651 289 
Q 294 669 294 1325 
Q 294 1706 417 2101 
Q 541 2497 738 2766 
Q 1047 3184 1428 3384 
Q 1809 3584 2291 3584 
Q 2888 3584 3255 3212 
Q 3622 2841 3622 2241 
Q 3622 1825 3500 1412 
Q 3378 1000 3181 728 
Q 2875 309 2494 109 
Q 2113 -91 1625 -91 
z
M 891 1344 
Q 891 869 1089 633 
Q 1288 397 1691 397 
Q 2269 397 2648 901 
Q 3028 1406 3028 2181 
Q 3028 2634 2825 2865 
Q 2622 3097 2228 3097 
Q 1903 3097 1650 2945 
Q 1397 2794 1197 2484 
Q 1050 2253 970 1956 
Q 891 1659 891 1344 
z
" transform="scale(0.015625)"/>
     <path id="DejaVuSans-Oblique-73" d="M 3200 3397 
L 3091 2853 
Q 2863 2978 2609 3040 
Q 2356 3103 2088 3103 
Q 1634 3103 1373 2948 
Q 1113 2794 1113 2528 
Q 1113 2219 1719 2053 
Q 1766 2041 1788 2034 
L 1972 1978 
Q 2547 1819 2739 1644 
Q 2931 1469 2931 1166 
Q 2931 609 2489 259 
Q 2047 -91 1331 -91 
Q 1053 -91 747 -37 
Q 441 16 72 128 
L 184 722 
Q 500 559 806 475 
Q 1113 391 1394 391 
Q 1816 391 2080 572 
Q 2344 753 2344 1031 
Q 2344 1331 1650 1516 
L 1591 1531 
L 1394 1581 
Q 956 1697 753 1886 
Q 550 2075 550 2369 
Q 550 2928 970 3256 
Q 1391 3584 2113 3584 
Q 2397 3584 2667 3537 
Q 2938 3491 3200 3397 
z
" transform="scale(0.015625)"/>
     <path id="DejaVuSans-Oblique-74" d="M 2706 3500 
L 2619 3053 
L 1472 3053 
L 1100 1153 
Q 1081 1047 1072 975 
Q 1063 903 1063 863 
Q 1063 663 1183 572 
Q 1303 481 1569 481 
L 2150 481 
L 2053 0 
L 1503 0 
Q 991 0 739 200 
Q 488 400 488 806 
Q 488 878 497 964 
Q 506 1050 525 1153 
L 897 3053 
L 409 3053 
L 500 3500 
L 978 3500 
L 1172 4494 
L 1747 4494 
L 1556 3500 
L 2706 3500 
z
" transform="scale(0.015625)"/>
     <path id="DejaVuSans-Oblique-2e" d="M 525 794 
L 1184 794 
L 1031 0 
L 372 0 
L 525 794 
z
" transform="scale(0.015625)"/>
     <path id="DejaVuSans-Oblique-2c" d="M 575 794 
L 1234 794 
L 1131 256 
L 422 -744 
L 19 -744 
L 469 256 
L 575 794 
z
" transform="scale(0.015625)"/>
     <path id="DejaVuSans-Oblique-66" d="M 3059 4863 
L 2969 4384 
L 2419 4384 
Q 2106 4384 1964 4261 
Q 1822 4138 1753 3809 
L 1691 3500 
L 2638 3500 
L 2553 3053 
L 1606 3053 
L 1013 0 
L 434 0 
L 1031 3053 
L 481 3053 
L 563 3500 
L 1113 3500 
L 1159 3744 
Q 1278 4363 1576 4613 
Q 1875 4863 2516 4863 
L 3059 4863 
z
" transform="scale(0.015625)"/>
     <path id="DejaVuSans-Oblique-42" d="M 1081 4666 
L 2694 4666 
Q 3350 4666 3675 4422 
Q 4000 4178 4000 3688 
Q 4000 3238 3720 2911 
Q 3441 2584 2988 2516 
Q 3375 2428 3569 2181 
Q 3763 1934 3763 1522 
Q 3763 819 3242 409 
Q 2722 0 1819 0 
L 172 0 
L 1081 4666 
z
M 1234 2228 
L 903 519 
L 1919 519 
Q 2491 519 2800 781 
Q 3109 1044 3109 1522 
Q 3109 1891 2904 2059 
Q 2700 2228 2247 2228 
L 1234 2228 
z
M 1606 4147 
L 1331 2741 
L 2272 2741 
Q 2775 2741 3058 2959 
Q 3341 3178 3341 3566 
Q 3341 3869 3150 4008 
Q 2959 4147 2541 4147 
L 1606 4147 
z
" transform="scale(0.015625)"/>
     <path id="DejaVuSans-Oblique-72" d="M 2853 2969 
Q 2766 3016 2653 3041 
Q 2541 3066 2413 3066 
Q 1953 3066 1609 2717 
Q 1266 2369 1153 1784 
L 800 0 
L 225 0 
L 909 3500 
L 1484 3500 
L 1375 2956 
Q 1603 3259 1920 3421 
Q 2238 3584 2597 3584 
Q 2691 3584 2781 3573 
Q 2872 3563 2963 3538 
L 2853 2969 
z
" transform="scale(0.015625)"/>
     <path id="DejaVuSans-Oblique-45" d="M 1081 4666 
L 4031 4666 
L 3928 4134 
L 1606 4134 
L 1338 2753 
L 3566 2753 
L 3463 2222 
L 1234 2222 
L 909 531 
L 3284 531 
L 3181 0 
L 172 0 
L 1081 4666 
z
" transform="scale(0.015625)"/>
     <path id="DejaVuSans-Oblique-6d" d="M 5747 2113 
L 5338 0 
L 4763 0 
L 5166 2094 
Q 5191 2228 5203 2325 
Q 5216 2422 5216 2491 
Q 5216 2772 5059 2928 
Q 4903 3084 4622 3084 
Q 4203 3084 3875 2770 
Q 3547 2456 3450 1953 
L 3066 0 
L 2491 0 
L 2900 2094 
Q 2925 2209 2937 2307 
Q 2950 2406 2950 2484 
Q 2950 2769 2794 2926 
Q 2638 3084 2363 3084 
Q 1938 3084 1609 2770 
Q 1281 2456 1184 1953 
L 800 0 
L 225 0 
L 909 3500 
L 1484 3500 
L 1375 2956 
Q 1609 3263 1923 3423 
Q 2238 3584 2597 3584 
Q 2978 3584 3223 3384 
Q 3469 3184 3519 2828 
Q 3781 3197 4126 3390 
Q 4472 3584 4856 3584 
Q 5306 3584 5551 3325 
Q 5797 3066 5797 2591 
Q 5797 2488 5784 2364 
Q 5772 2241 5747 2113 
z
" transform="scale(0.015625)"/>
     <path id="DejaVuSans-Oblique-75" d="M 428 1388 
L 838 3500 
L 1416 3500 
L 1006 1409 
Q 975 1256 961 1147 
Q 947 1038 947 966 
Q 947 700 1109 554 
Q 1272 409 1569 409 
Q 2031 409 2368 721 
Q 2706 1034 2809 1563 
L 3194 3500 
L 3769 3500 
L 3091 0 
L 2516 0 
L 2631 550 
Q 2388 244 2052 76 
Q 1716 -91 1338 -91 
Q 878 -91 622 161 
Q 366 413 366 863 
Q 366 956 381 1097 
Q 397 1238 428 1388 
z
" transform="scale(0.015625)"/>
     <path id="DejaVuSans-Oblique-52" d="M 1613 4147 
L 1294 2491 
L 2106 2491 
Q 2584 2491 2879 2755 
Q 3175 3019 3175 3444 
Q 3175 3784 2976 3965 
Q 2778 4147 2406 4147 
L 1613 4147 
z
M 2772 2241 
Q 2972 2194 3105 2009 
Q 3238 1825 3413 1275 
L 3809 0 
L 3144 0 
L 2778 1197 
Q 2638 1659 2453 1815 
Q 2269 1972 1888 1972 
L 1191 1972 
L 806 0 
L 172 0 
L 1081 4666 
L 2503 4666 
Q 3150 4666 3495 4373 
Q 3841 4081 3841 3531 
Q 3841 3044 3547 2687 
Q 3253 2331 2772 2241 
z
" transform="scale(0.015625)"/>
     <path id="DejaVuSans-Oblique-70" d="M 3175 2156 
Q 3175 2616 2975 2859 
Q 2775 3103 2400 3103 
Q 2144 3103 1911 2972 
Q 1678 2841 1497 2591 
Q 1319 2344 1212 1994 
Q 1106 1644 1106 1300 
Q 1106 863 1306 627 
Q 1506 391 1875 391 
Q 2147 391 2380 519 
Q 2613 647 2778 891 
Q 2956 1147 3065 1494 
Q 3175 1841 3175 2156 
z
M 1394 2969 
Q 1625 3272 1939 3428 
Q 2253 3584 2638 3584 
Q 3175 3584 3472 3232 
Q 3769 2881 3769 2247 
Q 3769 1728 3584 1258 
Q 3400 788 3053 416 
Q 2822 169 2531 39 
Q 2241 -91 1919 -91 
Q 1547 -91 1294 64 
Q 1041 219 916 525 
L 556 -1331 
L -19 -1331 
L 922 3500 
L 1497 3500 
L 1394 2969 
z
" transform="scale(0.015625)"/>
     <path id="DejaVuSans-Oblique-32" d="M 2950 2253 
L 934 525 
L 3163 525 
L 3053 0 
L 25 0 
L 128 531 
L 2234 2338 
Q 2656 2703 2832 2979 
Q 3009 3256 3009 3547 
Q 3009 3850 2796 4040 
Q 2584 4231 2241 4231 
Q 1944 4231 1581 4125 
Q 1219 4019 806 3816 
L 922 4441 
Q 1309 4594 1662 4672 
Q 2016 4750 2316 4750 
Q 2928 4750 3301 4425 
Q 3675 4100 3675 3572 
Q 3675 3216 3497 2892 
Q 3319 2569 2950 2253 
z
" transform="scale(0.015625)"/>
     <path id="DejaVuSans-Oblique-30" d="M 2444 4750 
Q 3078 4750 3414 4328 
Q 3750 3906 3750 3116 
Q 3750 2516 3592 1923 
Q 3434 1331 3150 863 
Q 2859 394 2467 151 
Q 2075 -91 1600 -91 
Q 988 -91 653 334 
Q 319 759 319 1544 
Q 319 2138 480 2733 
Q 641 3328 928 3794 
Q 1216 4263 1602 4506 
Q 1988 4750 2444 4750 
z
M 2406 4250 
Q 2169 4250 1955 4123 
Q 1741 3997 1569 3750 
Q 1281 3338 1111 2720 
Q 941 2103 941 1453 
Q 941 938 1123 673 
Q 1306 409 1663 409 
Q 1913 409 2125 536 
Q 2338 663 2509 909 
Q 2794 1319 2961 1936 
Q 3128 2553 3128 3206 
Q 3128 3722 2945 3986 
Q 2763 4250 2406 4250 
z
" transform="scale(0.015625)"/>
     <path id="DejaVuSans-Oblique-35" d="M 3719 4666 
L 3622 4141 
L 1691 4141 
L 1466 2988 
Q 1609 3034 1757 3056 
Q 1906 3078 2059 3078 
Q 2706 3078 3081 2731 
Q 3456 2384 3456 1791 
Q 3456 1375 3264 994 
Q 3072 613 2719 325 
Q 2469 125 2108 17 
Q 1747 -91 1319 -91 
Q 1038 -91 744 -41 
Q 450 9 128 109 
L 244 697 
Q 531 556 820 486 
Q 1109 416 1403 416 
Q 2013 416 2411 781 
Q 2809 1147 2809 1697 
Q 2809 2103 2548 2328 
Q 2288 2553 1819 2553 
Q 1572 2553 1305 2495 
Q 1038 2438 756 2322 
L 1209 4666 
L 3719 4666 
z
" transform="scale(0.015625)"/>
    </defs>
    <use xlink:href="#DejaVuSans-Oblique-5a"/>
    <use xlink:href="#DejaVuSans-Oblique-61" transform="translate(68.505859 0)"/>
    <use xlink:href="#DejaVuSans-Oblique-6e" transform="translate(129.785156 0)"/>
    <use xlink:href="#DejaVuSans-Oblique-69" transform="translate(193.164062 0)"/>
    <use xlink:href="#DejaVuSans-Oblique-63" transform="translate(220.947266 0)"/>
    <use xlink:href="#DejaVuSans-Oblique-68" transform="translate(275.927734 0)"/>
    <use xlink:href="#DejaVuSans-Oblique-65" transform="translate(339.306641 0)"/>
    <use xlink:href="#DejaVuSans-Oblique-6c" transform="translate(400.830078 0)"/>
    <use xlink:href="#DejaVuSans-Oblique-6c" transform="translate(428.613281 0)"/>
    <use xlink:href="#DejaVuSans-Oblique-69" transform="translate(456.396484 0)"/>
    <use xlink:href="#DejaVuSans-Oblique-20" transform="translate(484.179688 0)"/>
    <use xlink:href="#DejaVuSans-Oblique-26" transform="translate(515.966797 0)"/>
    <use xlink:href="#DejaVuSans-Oblique-20" transform="translate(593.945312 0)"/>
    <use xlink:href="#DejaVuSans-Oblique-53" transform="translate(625.732422 0)"/>
    <use xlink:href="#DejaVuSans-Oblique-63" transform="translate(689.208984 0)"/>
    <use xlink:href="#DejaVuSans-Oblique-68" transform="translate(744.189453 0)"/>
    <use xlink:href="#DejaVuSans-Oblique-6f" transform="translate(807.568359 0)"/>
    <use xlink:href="#DejaVuSans-Oblique-6e" transform="translate(868.75 0)"/>
    <use xlink:href="#DejaVuSans-Oblique-73" transform="translate(932.128906 0)"/>
    <use xlink:href="#DejaVuSans-Oblique-20" transform="translate(984.228516 0)"/>
    <use xlink:href="#DejaVuSans-Oblique-65" transform="translate(1016.015625 0)"/>
    <use xlink:href="#DejaVuSans-Oblique-74" transform="translate(1077.539062 0)"/>
    <use xlink:href="#DejaVuSans-Oblique-20" transform="translate(1116.748047 0)"/>
    <use xlink:href="#DejaVuSans-Oblique-61" transform="translate(1148.535156 0)"/>
    <use xlink:href="#DejaVuSans-Oblique-6c" transform="translate(1209.814453 0)"/>
    <use xlink:href="#DejaVuSans-Oblique-2e" transform="translate(1237.597656 0)"/>
    <use xlink:href="#DejaVuSans-Oblique-2c" transform="translate(1269.384766 0)"/>
    <use xlink:href="#DejaVuSans-Oblique-20" transform="translate(1301.171875 0)"/>
    <use xlink:href="#DejaVuSans-Oblique-53" transform="translate(1332.958984 0)"/>
    <use xlink:href="#DejaVuSans-Oblique-74" transform="translate(1396.435547 0)"/>
    <use xlink:href="#DejaVuSans-Oblique-61" transform="translate(1435.644531 0)"/>
    <use xlink:href="#DejaVuSans-Oblique-74" transform="translate(1496.923828 0)"/>
    <use xlink:href="#DejaVuSans-Oblique-65" transform="translate(1536.132812 0)"/>
    <use xlink:href="#DejaVuSans-Oblique-20" transform="translate(1597.65625 0)"/>
    <use xlink:href="#DejaVuSans-Oblique-6f" transform="translate(1629.443359 0)"/>
    <use xlink:href="#DejaVuSans-Oblique-66" transform="translate(1690.625 0)"/>
    <use xlink:href="#DejaVuSans-Oblique-20" transform="translate(1725.830078 0)"/>
    <use xlink:href="#DejaVuSans-Oblique-42" transform="translate(1757.617188 0)"/>
    <use xlink:href="#DejaVuSans-Oblique-72" transform="translate(1826.220703 0)"/>
    <use xlink:href="#DejaVuSans-Oblique-61" transform="translate(1867.333984 0)"/>
    <use xlink:href="#DejaVuSans-Oblique-69" transform="translate(1928.613281 0)"/>
    <use xlink:href="#DejaVuSans-Oblique-6e" transform="translate(1956.396484 0)"/>
    <use xlink:href="#DejaVuSans-Oblique-20" transform="translate(2019.775391 0)"/>
    <use xlink:href="#DejaVuSans-Oblique-45" transform="translate(2051.5625 0)"/>
    <use xlink:href="#DejaVuSans-Oblique-6d" transform="translate(2114.746094 0)"/>
    <use xlink:href="#DejaVuSans-Oblique-75" transform="translate(2212.158203 0)"/>
    <use xlink:href="#DejaVuSans-Oblique-6c" transform="translate(2275.537109 0)"/>
    <use xlink:href="#DejaVuSans-Oblique-61" transform="translate(2303.320312 0)"/>
    <use xlink:href="#DejaVuSans-Oblique-74" transform="translate(2364.599609 0)"/>
    <use xlink:href="#DejaVuSans-Oblique-69" transform="translate(2403.808594 0)"/>
    <use xlink:href="#DejaVuSans-Oblique-6f" transform="translate(2431.591797 0)"/>
    <use xlink:href="#DejaVuSans-Oblique-6e" transform="translate(2492.773438 0)"/>
    <use xlink:href="#DejaVuSans-Oblique-20" transform="translate(2556.152344 0)"/>
    <use xlink:href="#DejaVuSans-Oblique-52" transform="translate(2587.939453 0)"/>
    <use xlink:href="#DejaVuSans-Oblique-65" transform="translate(2657.421875 0)"/>
    <use xlink:href="#DejaVuSans-Oblique-70" transform="translate(2718.945312 0)"/>
    <use xlink:href="#DejaVuSans-Oblique-6f" transform="translate(2782.421875 0)"/>
    <use xlink:href="#DejaVuSans-Oblique-72" transform="translate(2843.603516 0)"/>
    <use xlink:href="#DejaVuSans-Oblique-74" transform="translate(2884.716797 0)"/>
    <use xlink:href="#DejaVuSans-Oblique-20" transform="translate(2923.925781 0)"/>
    <use xlink:href="#DejaVuSans-Oblique-32" transform="translate(2955.712891 0)"/>
    <use xlink:href="#DejaVuSans-Oblique-30" transform="translate(3019.335938 0)"/>
    <use xlink:href="#DejaVuSans-Oblique-32" transform="translate(3082.958984 0)"/>
    <use xlink:href="#DejaVuSans-Oblique-35" transform="translate(3146.582031 0)"/>
   </g>
  </g>
 </g>
 <defs>
  <clipPath id="pee61bff35c">
   <rect x="96.35455" y="37.837812" width="529.234" height="354.5"/>
  </clipPath>
 </defs>
</svg>
