<?xml version="1.0" encoding="utf-8" standalone="no"?>
<!DOCTYPE svg PUBLIC "-//W3C//DTD SVG 1.1//EN"
  "http://www.w3.org/Graphics/SVG/1.1/DTD/svg11.dtd">
<svg xmlns:xlink="http://www.w3.org/1999/xlink" width="460.8pt" height="345.6pt" viewBox="0 0 460.8 345.6" xmlns="http://www.w3.org/2000/svg" version="1.1">
 <metadata>
  <rdf:RDF xmlns:dc="http://purl.org/dc/elements/1.1/" xmlns:cc="http://creativecommons.org/ns#" xmlns:rdf="http://www.w3.org/1999/02/22-rdf-syntax-ns#">
   <cc:Work>
    <dc:type rdf:resource="http://purl.org/dc/dcmitype/StillImage"/>
    <dc:date>2025-01-24T07:00:10.789607</dc:date>
    <dc:format>image/svg+xml</dc:format>
    <dc:creator>
     <cc:Agent>
      <dc:title>Matplotlib v3.9.2, https://matplotlib.org/</dc:title>
     </cc:Agent>
    </dc:creator>
   </cc:Work>
  </rdf:RDF>
 </metadata>
 <defs>
  <style type="text/css">*{stroke-linejoin: round; stroke-linecap: butt}</style>
 </defs>
 <g id="figure_1">
  <g id="patch_1">
   <path d="M 0 345.6 
L 460.8 345.6 
L 460.8 0 
L 0 0 
z
" style="fill: #ffffff"/>
  </g>
  <g id="axes_1">
   <g id="patch_2">
    <path d="M 51.32 301.768 
L 450 301.768 
L 450 25.44 
L 51.32 25.44 
z
" style="fill: #ffffff"/>
   </g>
   <g id="PolyCollection_1">
    <defs>
     <path id="maad5cc0a8d" d="M 69.441818 -43.85425 
L 69.441818 -43.832 
L 71.157647 -43.832 
L 72.873475 -43.832 
L 74.589304 -43.832 
L 76.305133 -43.832 
L 78.020961 -43.832 
L 79.73679 -43.832 
L 81.452618 -43.832 
L 83.168447 -43.832 
L 84.884276 -43.832 
L 86.600104 -43.832 
L 88.315933 -43.832 
L 90.031762 -43.832 
L 91.74759 -43.832 
L 93.463419 -43.832 
L 95.179247 -43.832 
L 96.895076 -43.832 
L 98.610905 -43.832 
L 100.326733 -43.832 
L 102.042562 -43.832 
L 103.75839 -43.832 
L 105.474219 -43.832 
L 107.190048 -43.832 
L 108.905876 -43.832 
L 110.621705 -43.832 
L 112.337533 -43.832 
L 114.053362 -43.832 
L 115.769191 -43.832 
L 117.485019 -43.832 
L 119.200848 -43.832 
L 120.916677 -43.832 
L 122.632505 -43.832 
L 124.348334 -43.832 
L 126.064162 -43.832 
L 127.779991 -43.832 
L 129.49582 -43.832 
L 131.211648 -43.832 
L 132.927477 -43.832 
L 134.643305 -43.832 
L 136.359134 -43.832 
L 138.074963 -43.832 
L 139.790791 -43.832 
L 141.50662 -43.832 
L 143.222448 -43.832 
L 144.938277 -43.832 
L 146.654106 -43.832 
L 148.369934 -43.832 
L 150.085763 -43.832 
L 151.801592 -43.832 
L 153.51742 -43.832 
L 155.233249 -43.832 
L 156.949077 -43.832 
L 158.664906 -43.832 
L 160.380735 -43.832 
L 162.096563 -43.832 
L 163.812392 -43.832 
L 165.52822 -43.832 
L 167.244049 -43.832 
L 168.959878 -43.832 
L 170.675706 -43.832 
L 172.391535 -43.832 
L 174.107363 -43.832 
L 175.823192 -43.832 
L 177.539021 -43.832 
L 179.254849 -43.832 
L 180.970678 -43.832 
L 182.686507 -43.832 
L 184.402335 -43.832 
L 186.118164 -43.832 
L 187.833992 -43.832 
L 189.549821 -43.832 
L 191.26565 -43.832 
L 192.981478 -43.832 
L 194.697307 -43.832 
L 196.413135 -43.832 
L 198.128964 -43.832 
L 199.844793 -43.832 
L 201.560621 -43.832 
L 203.27645 -43.832 
L 204.992278 -43.832 
L 206.708107 -43.832 
L 208.423936 -43.832 
L 210.139764 -43.832 
L 211.855593 -43.832 
L 213.571422 -43.832 
L 215.28725 -43.832 
L 217.003079 -43.832 
L 218.718907 -43.832 
L 220.434736 -43.832 
L 222.150565 -43.832 
L 223.866393 -43.832 
L 225.582222 -43.832 
L 227.29805 -43.832 
L 229.013879 -43.832 
L 230.729708 -43.832 
L 232.445536 -43.832 
L 234.161365 -43.832 
L 235.877193 -43.832 
L 237.593022 -43.832 
L 239.308851 -43.832 
L 241.024679 -43.832 
L 242.740508 -43.832 
L 244.456337 -43.832 
L 246.172165 -43.832 
L 247.887994 -43.832 
L 249.603822 -43.832 
L 251.319651 -43.832 
L 253.03548 -43.832 
L 254.751308 -43.832 
L 256.467137 -43.832 
L 258.182965 -43.832 
L 259.898794 -43.832 
L 261.614623 -43.832 
L 263.330451 -43.832 
L 265.04628 -43.832 
L 266.762108 -43.832 
L 268.477937 -43.832 
L 270.193766 -43.832 
L 271.909594 -43.832 
L 273.625423 -43.832 
L 275.341252 -43.832 
L 277.05708 -43.832 
L 278.772909 -43.832 
L 280.488737 -43.832 
L 282.204566 -43.832 
L 283.920395 -43.832 
L 285.636223 -43.832 
L 287.352052 -43.832 
L 289.06788 -43.832 
L 290.783709 -43.832 
L 292.499538 -43.832 
L 294.215366 -43.832 
L 295.931195 -43.832 
L 297.647023 -43.832 
L 299.362852 -43.832 
L 301.078681 -43.832 
L 302.794509 -43.832 
L 304.510338 -43.832 
L 306.226166 -43.832 
L 307.941995 -43.832 
L 309.657824 -43.832 
L 311.373652 -43.832 
L 313.089481 -43.832 
L 314.80531 -43.832 
L 316.521138 -43.832 
L 318.236967 -43.832 
L 319.952795 -43.832 
L 321.668624 -43.832 
L 323.384453 -43.832 
L 325.100281 -43.832 
L 326.81611 -43.832 
L 328.531938 -43.832 
L 330.247767 -43.832 
L 331.963596 -43.832 
L 333.679424 -43.832 
L 335.395253 -43.832 
L 337.111081 -43.832 
L 338.82691 -43.832 
L 340.542739 -43.832 
L 342.258567 -43.832 
L 343.974396 -43.832 
L 345.690225 -43.832 
L 347.406053 -43.832 
L 349.121882 -43.832 
L 350.83771 -43.832 
L 352.553539 -43.832 
L 354.269368 -43.832 
L 355.985196 -43.832 
L 357.701025 -43.832 
L 359.416853 -43.832 
L 361.132682 -43.832 
L 362.848511 -43.832 
L 364.564339 -43.832 
L 366.280168 -43.832 
L 367.995996 -43.832 
L 369.711825 -43.832 
L 371.427654 -43.832 
L 373.143482 -43.832 
L 374.859311 -43.832 
L 376.57514 -43.832 
L 378.290968 -43.832 
L 380.006797 -43.832 
L 381.722625 -43.832 
L 383.438454 -43.832 
L 385.154283 -43.832 
L 386.870111 -43.832 
L 388.58594 -43.832 
L 390.301768 -43.832 
L 392.017597 -43.832 
L 393.733426 -43.832 
L 395.449254 -43.832 
L 397.165083 -43.832 
L 398.880911 -43.832 
L 400.59674 -43.832 
L 402.312569 -43.832 
L 404.028397 -43.832 
L 405.744226 -43.832 
L 407.460055 -43.832 
L 409.175883 -43.832 
L 410.891712 -43.832 
L 410.891712 -43.861083 
L 410.891712 -43.861083 
L 409.175883 -43.868534 
L 407.460055 -43.877683 
L 405.744226 -43.88886 
L 404.028397 -43.902449 
L 402.312569 -43.918889 
L 400.59674 -43.938682 
L 398.880911 -43.962395 
L 397.165083 -43.990667 
L 395.449254 -44.024213 
L 393.733426 -44.063825 
L 392.017597 -44.110378 
L 390.301768 -44.164827 
L 388.58594 -44.228212 
L 386.870111 -44.301654 
L 385.154283 -44.386351 
L 383.438454 -44.483579 
L 381.722625 -44.594678 
L 380.006797 -44.721051 
L 378.290968 -44.86415 
L 376.57514 -45.025467 
L 374.859311 -45.206516 
L 373.143482 -45.408825 
L 371.427654 -45.633914 
L 369.711825 -45.88328 
L 367.995996 -46.158378 
L 366.280168 -46.460602 
L 364.564339 -46.791267 
L 362.848511 -47.151587 
L 361.132682 -47.542659 
L 359.416853 -47.965443 
L 357.701025 -48.420745 
L 355.985196 -48.909198 
L 354.269368 -49.43125 
L 352.553539 -49.987145 
L 350.83771 -50.576912 
L 349.121882 -51.200351 
L 347.406053 -51.85702 
L 345.690225 -52.546226 
L 343.974396 -53.267015 
L 342.258567 -54.018158 
L 340.542739 -54.798146 
L 338.82691 -55.605178 
L 337.111081 -56.437155 
L 335.395253 -57.291673 
L 333.679424 -58.166016 
L 331.963596 -59.057153 
L 330.247767 -59.961737 
L 328.531938 -60.876108 
L 326.81611 -61.796294 
L 325.100281 -62.718029 
L 323.384453 -63.636765 
L 321.668624 -64.547698 
L 319.952795 -65.445798 
L 318.236967 -66.325849 
L 316.521138 -67.182497 
L 314.80531 -68.010306 
L 313.089481 -68.803824 
L 311.373652 -69.557657 
L 309.657824 -70.266548 
L 307.941995 -70.925467 
L 306.226166 -71.529701 
L 304.510338 -72.074944 
L 302.794509 -72.557398 
L 301.078681 -72.973857 
L 299.362852 -73.321797 
L 297.647023 -73.599455 
L 295.931195 -73.805892 
L 294.215366 -73.94105 
L 292.499538 -74.005789 
L 290.783709 -74.001906 
L 289.06788 -73.932135 
L 287.352052 -73.800129 
L 285.636223 -73.610415 
L 283.920395 -73.368334 
L 282.204566 -73.079957 
L 280.488737 -72.751988 
L 278.772909 -72.391643 
L 277.05708 -72.006519 
L 275.341252 -71.604459 
L 273.625423 -71.193397 
L 271.909594 -70.781214 
L 270.193766 -70.375583 
L 268.477937 -69.983828 
L 266.762108 -69.612788 
L 265.04628 -69.268688 
L 263.330451 -68.957036 
L 261.614623 -68.682526 
L 259.898794 -68.44897 
L 258.182965 -68.25924 
L 256.467137 -68.115247 
L 254.751308 -68.017922 
L 253.03548 -67.967236 
L 251.319651 -67.962228 
L 249.603822 -68.001054 
L 247.887994 -68.081059 
L 246.172165 -68.19885 
L 244.456337 -68.350394 
L 242.740508 -68.531114 
L 241.024679 -68.735998 
L 239.308851 -68.959706 
L 237.593022 -69.196682 
L 235.877193 -69.441259 
L 234.161365 -69.687768 
L 232.445536 -69.93063 
L 230.729708 -70.164449 
L 229.013879 -70.384092 
L 227.29805 -70.584759 
L 225.582222 -70.762042 
L 223.866393 -70.911973 
L 222.150565 -71.031059 
L 220.434736 -71.116311 
L 218.718907 -71.16525 
L 217.003079 -71.175918 
L 215.28725 -71.146868 
L 213.571422 -71.077152 
L 211.855593 -70.966295 
L 210.139764 -70.814272 
L 208.423936 -70.621476 
L 206.708107 -70.388678 
L 204.992278 -70.116993 
L 203.27645 -69.807835 
L 201.560621 -69.462886 
L 199.844793 -69.084048 
L 198.128964 -68.673408 
L 196.413135 -68.233203 
L 194.697307 -67.765782 
L 192.981478 -67.273575 
L 191.26565 -66.759061 
L 189.549821 -66.224743 
L 187.833992 -65.673115 
L 186.118164 -65.106644 
L 184.402335 -64.527746 
L 182.686507 -63.938762 
L 180.970678 -63.341944 
L 179.254849 -62.739436 
L 177.539021 -62.133261 
L 175.823192 -61.525308 
L 174.107363 -60.917321 
L 172.391535 -60.310897 
L 170.675706 -59.707477 
L 168.959878 -59.108348 
L 167.244049 -58.514645 
L 165.52822 -57.927354 
L 163.812392 -57.347325 
L 162.096563 -56.775278 
L 160.380735 -56.211822 
L 158.664906 -55.657466 
L 156.949077 -55.112636 
L 155.233249 -54.577697 
L 153.51742 -54.052967 
L 151.801592 -53.538732 
L 150.085763 -53.035269 
L 148.369934 -52.542851 
L 146.654106 -52.061766 
L 144.938277 -51.59232 
L 143.222448 -51.134847 
L 141.50662 -50.689707 
L 139.790791 -50.257291 
L 138.074963 -49.838009 
L 136.359134 -49.432293 
L 134.643305 -49.040579 
L 132.927477 -48.663305 
L 131.211648 -48.30089 
L 129.49582 -47.953729 
L 127.779991 -47.622176 
L 126.064162 -47.306534 
L 124.348334 -47.007042 
L 122.632505 -46.723866 
L 120.916677 -46.45709 
L 119.200848 -46.206712 
L 117.485019 -45.97264 
L 115.769191 -45.754687 
L 114.053362 -45.552577 
L 112.337533 -45.365947 
L 110.621705 -45.194351 
L 108.905876 -45.037265 
L 107.190048 -44.8941 
L 105.474219 -44.76421 
L 103.75839 -44.646901 
L 102.042562 -44.541441 
L 100.326733 -44.447075 
L 98.610905 -44.363032 
L 96.895076 -44.288537 
L 95.179247 -44.222819 
L 93.463419 -44.165122 
L 91.74759 -44.114712 
L 90.031762 -44.070882 
L 88.315933 -44.032958 
L 86.600104 -44.000305 
L 84.884276 -43.972329 
L 83.168447 -43.948478 
L 81.452618 -43.928243 
L 79.73679 -43.911163 
L 78.020961 -43.896816 
L 76.305133 -43.884826 
L 74.589304 -43.874855 
L 72.873475 -43.866605 
L 71.157647 -43.859813 
L 69.441818 -43.85425 
z
" style="stroke: #1f77b4"/>
    </defs>
    <g clip-path="url(#p5e836c3121)">
     <use xlink:href="#maad5cc0a8d" x="0" y="345.6" style="fill: #1f77b4; fill-opacity: 0.25; stroke: #1f77b4"/>
    </g>
   </g>
   <g id="matplotlib.axis_1">
    <g id="xtick_1">
     <g id="line2d_1">
      <defs>
       <path id="m558f1418e2" d="M 0 0 
L 0 3.5 
" style="stroke: #262626; stroke-width: 0.8"/>
      </defs>
      <g>
       <use xlink:href="#m558f1418e2" x="85.17782" y="301.768" style="fill: #262626; stroke: #262626; stroke-width: 0.8"/>
      </g>
     </g>
     <g id="text_1">
      <!-- $\mathdefault{10^{-2}}$ -->
      <g style="fill: #262626" transform="translate(75.42782 316.014875) scale(0.1 -0.1)">
       <defs>
        <path id="LiberationSans-31" d="M 488 0 
L 488 478 
L 1609 478 
L 1609 3866 
L 616 3156 
L 616 3688 
L 1656 4403 
L 2175 4403 
L 2175 478 
L 3247 478 
L 3247 0 
L 488 0 
z
" transform="scale(0.015625)"/>
        <path id="LiberationSans-30" d="M 3309 2203 
Q 3309 1100 2920 518 
Q 2531 -63 1772 -63 
Q 1013 -63 631 515 
Q 250 1094 250 2203 
Q 250 3338 620 3903 
Q 991 4469 1791 4469 
Q 2569 4469 2939 3897 
Q 3309 3325 3309 2203 
z
M 2738 2203 
Q 2738 3156 2517 3584 
Q 2297 4013 1791 4013 
Q 1272 4013 1045 3591 
Q 819 3169 819 2203 
Q 819 1266 1048 831 
Q 1278 397 1778 397 
Q 2275 397 2506 840 
Q 2738 1284 2738 2203 
z
" transform="scale(0.015625)"/>
        <path id="LiberationSans-2212" d="M 316 1900 
L 316 2356 
L 3425 2356 
L 3425 1900 
L 316 1900 
z
" transform="scale(0.015625)"/>
        <path id="LiberationSans-32" d="M 322 0 
L 322 397 
Q 481 763 711 1042 
Q 941 1322 1194 1548 
Q 1447 1775 1695 1969 
Q 1944 2163 2144 2356 
Q 2344 2550 2467 2762 
Q 2591 2975 2591 3244 
Q 2591 3606 2378 3806 
Q 2166 4006 1788 4006 
Q 1428 4006 1195 3811 
Q 963 3616 922 3263 
L 347 3316 
Q 409 3844 795 4156 
Q 1181 4469 1788 4469 
Q 2453 4469 2811 4155 
Q 3169 3841 3169 3263 
Q 3169 3006 3051 2753 
Q 2934 2500 2703 2247 
Q 2472 1994 1819 1463 
Q 1459 1169 1246 933 
Q 1034 697 941 478 
L 3238 478 
L 3238 0 
L 322 0 
z
" transform="scale(0.015625)"/>
       </defs>
       <use xlink:href="#LiberationSans-31" transform="translate(0 0.140625)"/>
       <use xlink:href="#LiberationSans-30" transform="translate(55.615234 0.140625)"/>
       <use xlink:href="#LiberationSans-2212" transform="translate(112.154961 37.120312) scale(0.7)"/>
       <use xlink:href="#LiberationSans-32" transform="translate(153.033867 37.120312) scale(0.7)"/>
      </g>
     </g>
    </g>
    <g id="xtick_2">
     <g id="line2d_2">
      <g>
       <use xlink:href="#m558f1418e2" x="151.145019" y="301.768" style="fill: #262626; stroke: #262626; stroke-width: 0.8"/>
      </g>
     </g>
     <g id="text_2">
      <!-- $\mathdefault{10^{0}}$ -->
      <g style="fill: #262626" transform="translate(143.445019 316.014875) scale(0.1 -0.1)">
       <use xlink:href="#LiberationSans-31" transform="translate(0 0.140625)"/>
       <use xlink:href="#LiberationSans-30" transform="translate(55.615234 0.140625)"/>
       <use xlink:href="#LiberationSans-30" transform="translate(112.154961 37.120312) scale(0.7)"/>
      </g>
     </g>
    </g>
    <g id="xtick_3">
     <g id="line2d_3">
      <g>
       <use xlink:href="#m558f1418e2" x="217.112218" y="301.768" style="fill: #262626; stroke: #262626; stroke-width: 0.8"/>
      </g>
     </g>
     <g id="text_3">
      <!-- $\mathdefault{10^{2}}$ -->
      <g style="fill: #262626" transform="translate(209.412218 316.014875) scale(0.1 -0.1)">
       <use xlink:href="#LiberationSans-31" transform="translate(0 0.140625)"/>
       <use xlink:href="#LiberationSans-30" transform="translate(55.615234 0.140625)"/>
       <use xlink:href="#LiberationSans-32" transform="translate(112.154961 37.120312) scale(0.7)"/>
      </g>
     </g>
    </g>
    <g id="xtick_4">
     <g id="line2d_4">
      <g>
       <use xlink:href="#m558f1418e2" x="283.079417" y="301.768" style="fill: #262626; stroke: #262626; stroke-width: 0.8"/>
      </g>
     </g>
     <g id="text_4">
      <!-- $\mathdefault{10^{4}}$ -->
      <g style="fill: #262626" transform="translate(275.379417 316.014875) scale(0.1 -0.1)">
       <defs>
        <path id="LiberationSans-34" d="M 2753 997 
L 2753 0 
L 2222 0 
L 2222 997 
L 147 997 
L 147 1434 
L 2163 4403 
L 2753 4403 
L 2753 1441 
L 3372 1441 
L 3372 997 
L 2753 997 
z
M 2222 3769 
Q 2216 3750 2134 3603 
Q 2053 3456 2013 3397 
L 884 1734 
L 716 1503 
L 666 1441 
L 2222 1441 
L 2222 3769 
z
" transform="scale(0.015625)"/>
       </defs>
       <use xlink:href="#LiberationSans-31" transform="translate(0 0.8625)"/>
       <use xlink:href="#LiberationSans-30" transform="translate(55.615234 0.8625)"/>
       <use xlink:href="#LiberationSans-34" transform="translate(112.154961 37.842188) scale(0.7)"/>
      </g>
     </g>
    </g>
    <g id="xtick_5">
     <g id="line2d_5">
      <g>
       <use xlink:href="#m558f1418e2" x="349.046617" y="301.768" style="fill: #262626; stroke: #262626; stroke-width: 0.8"/>
      </g>
     </g>
     <g id="text_5">
      <!-- $\mathdefault{10^{6}}$ -->
      <g style="fill: #262626" transform="translate(341.346617 316.014875) scale(0.1 -0.1)">
       <defs>
        <path id="LiberationSans-36" d="M 3278 1441 
Q 3278 744 2900 340 
Q 2522 -63 1856 -63 
Q 1113 -63 719 490 
Q 325 1044 325 2100 
Q 325 3244 734 3856 
Q 1144 4469 1900 4469 
Q 2897 4469 3156 3572 
L 2619 3475 
Q 2453 4013 1894 4013 
Q 1413 4013 1148 3564 
Q 884 3116 884 2266 
Q 1038 2550 1316 2698 
Q 1594 2847 1953 2847 
Q 2563 2847 2920 2465 
Q 3278 2084 3278 1441 
z
M 2706 1416 
Q 2706 1894 2472 2153 
Q 2238 2413 1819 2413 
Q 1425 2413 1183 2183 
Q 941 1953 941 1550 
Q 941 1041 1192 716 
Q 1444 391 1838 391 
Q 2244 391 2475 664 
Q 2706 938 2706 1416 
z
" transform="scale(0.015625)"/>
       </defs>
       <use xlink:href="#LiberationSans-31" transform="translate(0 0.140625)"/>
       <use xlink:href="#LiberationSans-30" transform="translate(55.615234 0.140625)"/>
       <use xlink:href="#LiberationSans-36" transform="translate(112.154961 37.120312) scale(0.7)"/>
      </g>
     </g>
    </g>
    <g id="xtick_6">
     <g id="line2d_6">
      <g>
       <use xlink:href="#m558f1418e2" x="415.013816" y="301.768" style="fill: #262626; stroke: #262626; stroke-width: 0.8"/>
      </g>
     </g>
     <g id="text_6">
      <!-- $\mathdefault{10^{8}}$ -->
      <g style="fill: #262626" transform="translate(407.313816 316.014875) scale(0.1 -0.1)">
       <defs>
        <path id="LiberationSans-38" d="M 3281 1228 
Q 3281 619 2893 278 
Q 2506 -63 1781 -63 
Q 1075 -63 676 271 
Q 278 606 278 1222 
Q 278 1653 525 1947 
Q 772 2241 1156 2303 
L 1156 2316 
Q 797 2400 589 2681 
Q 381 2963 381 3341 
Q 381 3844 757 4156 
Q 1134 4469 1769 4469 
Q 2419 4469 2795 4162 
Q 3172 3856 3172 3334 
Q 3172 2956 2962 2675 
Q 2753 2394 2391 2322 
L 2391 2309 
Q 2813 2241 3047 1952 
Q 3281 1663 3281 1228 
z
M 2588 3303 
Q 2588 4050 1769 4050 
Q 1372 4050 1164 3862 
Q 956 3675 956 3303 
Q 956 2925 1170 2726 
Q 1384 2528 1775 2528 
Q 2172 2528 2380 2711 
Q 2588 2894 2588 3303 
z
M 2697 1281 
Q 2697 1691 2453 1898 
Q 2209 2106 1769 2106 
Q 1341 2106 1100 1882 
Q 859 1659 859 1269 
Q 859 359 1788 359 
Q 2247 359 2472 579 
Q 2697 800 2697 1281 
z
" transform="scale(0.015625)"/>
       </defs>
       <use xlink:href="#LiberationSans-31" transform="translate(0 0.140625)"/>
       <use xlink:href="#LiberationSans-30" transform="translate(55.615234 0.140625)"/>
       <use xlink:href="#LiberationSans-38" transform="translate(112.154961 37.120312) scale(0.7)"/>
      </g>
     </g>
    </g>
    <g id="text_7">
     <!-- Budget_M -->
     <g style="fill: #262626" transform="translate(227.868594 329.33675) scale(0.1 -0.1)">
      <defs>
       <path id="LiberationSans-42" d="M 3931 1241 
Q 3931 653 3503 326 
Q 3075 0 2313 0 
L 525 0 
L 525 4403 
L 2125 4403 
Q 3675 4403 3675 3334 
Q 3675 2944 3456 2678 
Q 3238 2413 2838 2322 
Q 3363 2259 3647 1970 
Q 3931 1681 3931 1241 
z
M 3075 3263 
Q 3075 3619 2831 3772 
Q 2588 3925 2125 3925 
L 1122 3925 
L 1122 2531 
L 2125 2531 
Q 2603 2531 2839 2711 
Q 3075 2891 3075 3263 
z
M 3328 1288 
Q 3328 2066 2234 2066 
L 1122 2066 
L 1122 478 
L 2281 478 
Q 2828 478 3078 681 
Q 3328 884 3328 1288 
z
" transform="scale(0.015625)"/>
       <path id="LiberationSans-75" d="M 981 3381 
L 981 1238 
Q 981 903 1047 718 
Q 1113 534 1256 453 
Q 1400 372 1678 372 
Q 2084 372 2318 650 
Q 2553 928 2553 1422 
L 2553 3381 
L 3116 3381 
L 3116 722 
Q 3116 131 3134 0 
L 2603 0 
Q 2600 16 2597 84 
Q 2594 153 2589 242 
Q 2584 331 2578 578 
L 2569 578 
Q 2375 228 2120 82 
Q 1866 -63 1488 -63 
Q 931 -63 673 214 
Q 416 491 416 1128 
L 416 3381 
L 981 3381 
z
" transform="scale(0.015625)"/>
       <path id="LiberationSans-64" d="M 2566 544 
Q 2409 219 2151 78 
Q 1894 -63 1513 -63 
Q 872 -63 570 368 
Q 269 800 269 1675 
Q 269 3444 1513 3444 
Q 1897 3444 2153 3303 
Q 2409 3163 2566 2856 
L 2572 2856 
L 2566 3234 
L 2566 4638 
L 3128 4638 
L 3128 697 
Q 3128 169 3147 0 
L 2609 0 
Q 2600 50 2589 231 
Q 2578 413 2578 544 
L 2566 544 
z
M 859 1694 
Q 859 984 1046 678 
Q 1234 372 1656 372 
Q 2134 372 2350 703 
Q 2566 1034 2566 1731 
Q 2566 2403 2350 2715 
Q 2134 3028 1663 3028 
Q 1238 3028 1048 2714 
Q 859 2400 859 1694 
z
" transform="scale(0.015625)"/>
       <path id="LiberationSans-67" d="M 1713 -1328 
Q 1159 -1328 831 -1111 
Q 503 -894 409 -494 
L 975 -413 
Q 1031 -647 1223 -773 
Q 1416 -900 1728 -900 
Q 2569 -900 2569 84 
L 2569 628 
L 2563 628 
Q 2403 303 2125 139 
Q 1847 -25 1475 -25 
Q 853 -25 561 387 
Q 269 800 269 1684 
Q 269 2581 583 3007 
Q 897 3434 1538 3434 
Q 1897 3434 2161 3270 
Q 2425 3106 2569 2803 
L 2575 2803 
Q 2575 2897 2587 3128 
Q 2600 3359 2613 3381 
L 3147 3381 
Q 3128 3213 3128 2681 
L 3128 97 
Q 3128 -1328 1713 -1328 
z
M 2569 1691 
Q 2569 2103 2456 2401 
Q 2344 2700 2139 2858 
Q 1934 3016 1675 3016 
Q 1244 3016 1047 2703 
Q 850 2391 850 1691 
Q 850 997 1034 694 
Q 1219 391 1666 391 
Q 1931 391 2137 547 
Q 2344 703 2456 995 
Q 2569 1288 2569 1691 
z
" transform="scale(0.015625)"/>
       <path id="LiberationSans-65" d="M 863 1572 
Q 863 991 1103 675 
Q 1344 359 1806 359 
Q 2172 359 2392 506 
Q 2613 653 2691 878 
L 3184 738 
Q 2881 -63 1806 -63 
Q 1056 -63 664 384 
Q 272 831 272 1713 
Q 272 2550 664 2997 
Q 1056 3444 1784 3444 
Q 3275 3444 3275 1647 
L 3275 1572 
L 863 1572 
z
M 2694 2003 
Q 2647 2538 2422 2783 
Q 2197 3028 1775 3028 
Q 1366 3028 1127 2754 
Q 888 2481 869 2003 
L 2694 2003 
z
" transform="scale(0.015625)"/>
       <path id="LiberationSans-74" d="M 1731 25 
Q 1453 -50 1163 -50 
Q 488 -50 488 716 
L 488 2972 
L 97 2972 
L 97 3381 
L 509 3381 
L 675 4138 
L 1050 4138 
L 1050 3381 
L 1675 3381 
L 1675 2972 
L 1050 2972 
L 1050 838 
Q 1050 594 1129 495 
Q 1209 397 1406 397 
Q 1519 397 1731 441 
L 1731 25 
z
" transform="scale(0.015625)"/>
       <path id="LiberationSans-5f" d="M -97 -1272 
L -97 -866 
L 3631 -866 
L 3631 -1272 
L -97 -1272 
z
" transform="scale(0.015625)"/>
       <path id="LiberationSans-4d" d="M 4269 0 
L 4269 2938 
Q 4269 3425 4297 3875 
Q 4144 3316 4022 3000 
L 2884 0 
L 2466 0 
L 1313 3000 
L 1138 3531 
L 1034 3875 
L 1044 3528 
L 1056 2938 
L 1056 0 
L 525 0 
L 525 4403 
L 1309 4403 
L 2481 1350 
Q 2544 1166 2601 955 
Q 2659 744 2678 650 
Q 2703 775 2783 1029 
Q 2863 1284 2891 1350 
L 4041 4403 
L 4806 4403 
L 4806 0 
L 4269 0 
z
" transform="scale(0.015625)"/>
      </defs>
      <use xlink:href="#LiberationSans-42"/>
      <use xlink:href="#LiberationSans-75" x="66.699219"/>
      <use xlink:href="#LiberationSans-64" x="122.314453"/>
      <use xlink:href="#LiberationSans-67" x="177.929688"/>
      <use xlink:href="#LiberationSans-65" x="233.544922"/>
      <use xlink:href="#LiberationSans-74" x="289.160156"/>
      <use xlink:href="#LiberationSans-5f" x="316.943359"/>
      <use xlink:href="#LiberationSans-4d" x="372.558594"/>
     </g>
    </g>
   </g>
   <g id="matplotlib.axis_2">
    <g id="ytick_1">
     <g id="line2d_7">
      <defs>
       <path id="m56e506d108" d="M 0 0 
L -3.5 0 
" style="stroke: #262626; stroke-width: 0.8"/>
      </defs>
      <g>
       <use xlink:href="#m56e506d108" x="51.32" y="301.768" style="fill: #262626; stroke: #262626; stroke-width: 0.8"/>
      </g>
     </g>
     <g id="text_8">
      <!-- 0.00 -->
      <g style="fill: #262626" transform="translate(24.859063 305.391437) scale(0.1 -0.1)">
       <defs>
        <path id="LiberationSans-2e" d="M 584 0 
L 584 684 
L 1194 684 
L 1194 0 
L 584 0 
z
" transform="scale(0.015625)"/>
       </defs>
       <use xlink:href="#LiberationSans-30"/>
       <use xlink:href="#LiberationSans-2e" x="55.615234"/>
       <use xlink:href="#LiberationSans-30" x="83.398438"/>
       <use xlink:href="#LiberationSans-30" x="139.013672"/>
      </g>
     </g>
    </g>
    <g id="ytick_2">
     <g id="line2d_8">
      <g>
       <use xlink:href="#m56e506d108" x="51.32" y="265.48831" style="fill: #262626; stroke: #262626; stroke-width: 0.8"/>
      </g>
     </g>
     <g id="text_9">
      <!-- 0.25 -->
      <g style="fill: #262626" transform="translate(24.859063 269.111747) scale(0.1 -0.1)">
       <defs>
        <path id="LiberationSans-35" d="M 3291 1434 
Q 3291 738 2877 337 
Q 2463 -63 1728 -63 
Q 1113 -63 734 206 
Q 356 475 256 984 
L 825 1050 
Q 1003 397 1741 397 
Q 2194 397 2450 670 
Q 2706 944 2706 1422 
Q 2706 1838 2448 2094 
Q 2191 2350 1753 2350 
Q 1525 2350 1328 2278 
Q 1131 2206 934 2034 
L 384 2034 
L 531 4403 
L 3034 4403 
L 3034 3925 
L 1044 3925 
L 959 2528 
Q 1325 2809 1869 2809 
Q 2519 2809 2905 2428 
Q 3291 2047 3291 1434 
z
" transform="scale(0.015625)"/>
       </defs>
       <use xlink:href="#LiberationSans-30"/>
       <use xlink:href="#LiberationSans-2e" x="55.615234"/>
       <use xlink:href="#LiberationSans-32" x="83.398438"/>
       <use xlink:href="#LiberationSans-35" x="139.013672"/>
      </g>
     </g>
    </g>
    <g id="ytick_3">
     <g id="line2d_9">
      <g>
       <use xlink:href="#m56e506d108" x="51.32" y="229.20862" style="fill: #262626; stroke: #262626; stroke-width: 0.8"/>
      </g>
     </g>
     <g id="text_10">
      <!-- 0.50 -->
      <g style="fill: #262626" transform="translate(24.859063 232.832057) scale(0.1 -0.1)">
       <use xlink:href="#LiberationSans-30"/>
       <use xlink:href="#LiberationSans-2e" x="55.615234"/>
       <use xlink:href="#LiberationSans-35" x="83.398438"/>
       <use xlink:href="#LiberationSans-30" x="139.013672"/>
      </g>
     </g>
    </g>
    <g id="ytick_4">
     <g id="line2d_10">
      <g>
       <use xlink:href="#m56e506d108" x="51.32" y="192.92893" style="fill: #262626; stroke: #262626; stroke-width: 0.8"/>
      </g>
     </g>
     <g id="text_11">
      <!-- 0.75 -->
      <g style="fill: #262626" transform="translate(24.859063 196.552367) scale(0.1 -0.1)">
       <defs>
        <path id="LiberationSans-37" d="M 3238 3947 
Q 2563 2916 2284 2331 
Q 2006 1747 1867 1178 
Q 1728 609 1728 0 
L 1141 0 
Q 1141 844 1498 1776 
Q 1856 2709 2694 3925 
L 328 3925 
L 328 4403 
L 3238 4403 
L 3238 3947 
z
" transform="scale(0.015625)"/>
       </defs>
       <use xlink:href="#LiberationSans-30"/>
       <use xlink:href="#LiberationSans-2e" x="55.615234"/>
       <use xlink:href="#LiberationSans-37" x="83.398438"/>
       <use xlink:href="#LiberationSans-35" x="139.013672"/>
      </g>
     </g>
    </g>
    <g id="ytick_5">
     <g id="line2d_11">
      <g>
       <use xlink:href="#m56e506d108" x="51.32" y="156.64924" style="fill: #262626; stroke: #262626; stroke-width: 0.8"/>
      </g>
     </g>
     <g id="text_12">
      <!-- 1.00 -->
      <g style="fill: #262626" transform="translate(24.859063 160.272677) scale(0.1 -0.1)">
       <use xlink:href="#LiberationSans-31"/>
       <use xlink:href="#LiberationSans-2e" x="55.615234"/>
       <use xlink:href="#LiberationSans-30" x="83.398438"/>
       <use xlink:href="#LiberationSans-30" x="139.013672"/>
      </g>
     </g>
    </g>
    <g id="ytick_6">
     <g id="line2d_12">
      <g>
       <use xlink:href="#m56e506d108" x="51.32" y="120.369549" style="fill: #262626; stroke: #262626; stroke-width: 0.8"/>
      </g>
     </g>
     <g id="text_13">
      <!-- 1.25 -->
      <g style="fill: #262626" transform="translate(24.859063 123.992987) scale(0.1 -0.1)">
       <use xlink:href="#LiberationSans-31"/>
       <use xlink:href="#LiberationSans-2e" x="55.615234"/>
       <use xlink:href="#LiberationSans-32" x="83.398438"/>
       <use xlink:href="#LiberationSans-35" x="139.013672"/>
      </g>
     </g>
    </g>
    <g id="ytick_7">
     <g id="line2d_13">
      <g>
       <use xlink:href="#m56e506d108" x="51.32" y="84.089859" style="fill: #262626; stroke: #262626; stroke-width: 0.8"/>
      </g>
     </g>
     <g id="text_14">
      <!-- 1.50 -->
      <g style="fill: #262626" transform="translate(24.859063 87.713297) scale(0.1 -0.1)">
       <use xlink:href="#LiberationSans-31"/>
       <use xlink:href="#LiberationSans-2e" x="55.615234"/>
       <use xlink:href="#LiberationSans-35" x="83.398438"/>
       <use xlink:href="#LiberationSans-30" x="139.013672"/>
      </g>
     </g>
    </g>
    <g id="ytick_8">
     <g id="line2d_14">
      <g>
       <use xlink:href="#m56e506d108" x="51.32" y="47.810169" style="fill: #262626; stroke: #262626; stroke-width: 0.8"/>
      </g>
     </g>
     <g id="text_15">
      <!-- 1.75 -->
      <g style="fill: #262626" transform="translate(24.859063 51.433607) scale(0.1 -0.1)">
       <use xlink:href="#LiberationSans-31"/>
       <use xlink:href="#LiberationSans-2e" x="55.615234"/>
       <use xlink:href="#LiberationSans-37" x="83.398438"/>
       <use xlink:href="#LiberationSans-35" x="139.013672"/>
      </g>
     </g>
    </g>
    <g id="text_16">
     <!-- Density -->
     <g style="fill: #262626" transform="translate(18.784063 180.275875) rotate(-90) scale(0.1 -0.1)">
      <defs>
       <path id="LiberationSans-44" d="M 4316 2247 
Q 4316 1566 4050 1055 
Q 3784 544 3296 272 
Q 2809 0 2172 0 
L 525 0 
L 525 4403 
L 1981 4403 
Q 3100 4403 3708 3842 
Q 4316 3281 4316 2247 
z
M 3716 2247 
Q 3716 3066 3267 3495 
Q 2819 3925 1969 3925 
L 1122 3925 
L 1122 478 
L 2103 478 
Q 2588 478 2955 690 
Q 3322 903 3519 1303 
Q 3716 1703 3716 2247 
z
" transform="scale(0.015625)"/>
       <path id="LiberationSans-6e" d="M 2578 0 
L 2578 2144 
Q 2578 2478 2512 2662 
Q 2447 2847 2303 2928 
Q 2159 3009 1881 3009 
Q 1475 3009 1240 2731 
Q 1006 2453 1006 1959 
L 1006 0 
L 444 0 
L 444 2659 
Q 444 3250 425 3381 
L 956 3381 
Q 959 3366 962 3297 
Q 966 3228 970 3139 
Q 975 3050 981 2803 
L 991 2803 
Q 1184 3153 1439 3298 
Q 1694 3444 2072 3444 
Q 2628 3444 2886 3167 
Q 3144 2891 3144 2253 
L 3144 0 
L 2578 0 
z
" transform="scale(0.015625)"/>
       <path id="LiberationSans-73" d="M 2969 934 
Q 2969 456 2608 196 
Q 2247 -63 1597 -63 
Q 966 -63 623 145 
Q 281 353 178 794 
L 675 891 
Q 747 619 972 492 
Q 1197 366 1597 366 
Q 2025 366 2223 497 
Q 2422 628 2422 891 
Q 2422 1091 2284 1216 
Q 2147 1341 1841 1422 
L 1438 1528 
Q 953 1653 748 1773 
Q 544 1894 428 2066 
Q 313 2238 313 2488 
Q 313 2950 642 3192 
Q 972 3434 1603 3434 
Q 2163 3434 2492 3237 
Q 2822 3041 2909 2606 
L 2403 2544 
Q 2356 2769 2151 2889 
Q 1947 3009 1603 3009 
Q 1222 3009 1040 2893 
Q 859 2778 859 2544 
Q 859 2400 934 2306 
Q 1009 2213 1156 2147 
Q 1303 2081 1775 1966 
Q 2222 1853 2419 1758 
Q 2616 1663 2730 1547 
Q 2844 1431 2906 1279 
Q 2969 1128 2969 934 
z
" transform="scale(0.015625)"/>
       <path id="LiberationSans-69" d="M 428 4100 
L 428 4638 
L 991 4638 
L 991 4100 
L 428 4100 
z
M 428 0 
L 428 3381 
L 991 3381 
L 991 0 
L 428 0 
z
" transform="scale(0.015625)"/>
       <path id="LiberationSans-79" d="M 597 -1328 
Q 366 -1328 209 -1294 
L 209 -872 
Q 328 -891 472 -891 
Q 997 -891 1303 -119 
L 1356 16 
L 16 3381 
L 616 3381 
L 1328 1513 
Q 1344 1469 1366 1408 
Q 1388 1347 1506 1000 
Q 1625 653 1634 613 
L 1853 1228 
L 2594 3381 
L 3188 3381 
L 1888 0 
Q 1678 -541 1497 -805 
Q 1316 -1069 1095 -1198 
Q 875 -1328 597 -1328 
z
" transform="scale(0.015625)"/>
      </defs>
      <use xlink:href="#LiberationSans-44"/>
      <use xlink:href="#LiberationSans-65" x="72.216797"/>
      <use xlink:href="#LiberationSans-6e" x="127.832031"/>
      <use xlink:href="#LiberationSans-73" x="183.447266"/>
      <use xlink:href="#LiberationSans-69" x="233.447266"/>
      <use xlink:href="#LiberationSans-74" x="255.664062"/>
      <use xlink:href="#LiberationSans-79" x="283.447266"/>
     </g>
    </g>
   </g>
   <g id="line2d_15">
    <path d="M 196.126923 301.424267 
L 204.419681 301.025808 
L 210.343079 300.536806 
L 215.081798 299.969846 
L 219.820517 299.201893 
L 224.559236 298.189413 
L 229.297954 296.890587 
L 232.851994 295.70689 
L 236.406033 294.331223 
L 239.960072 292.757921 
L 243.514111 290.987655 
L 248.25283 288.335864 
L 252.991548 285.390037 
L 258.914947 281.39706 
L 275.500462 269.932759 
L 280.239181 267.035499 
L 283.79322 265.075784 
L 287.347259 263.325697 
L 290.901298 261.800261 
L 294.455338 260.506466 
L 298.009377 259.444481 
L 301.563416 258.609462 
L 305.117455 257.993735 
L 308.671494 257.589048 
L 312.225533 257.388609 
L 315.779572 257.388609 
L 319.333611 257.589048 
L 322.88765 257.993735 
L 326.441689 258.609462 
L 329.995728 259.444481 
L 333.549767 260.506466 
L 337.103806 261.800261 
L 340.657846 263.325697 
L 344.211885 265.075784 
L 347.765924 267.035499 
L 352.504642 269.932759 
L 358.428041 273.898279 
L 376.198236 286.150858 
L 380.936955 289.028417 
L 385.675674 291.599295 
L 389.229713 293.304416 
L 392.783752 294.811578 
L 396.337791 296.122347 
L 399.89183 297.244233 
L 404.630549 298.467815 
L 409.369268 299.415101 
L 414.107986 300.128748 
L 420.031385 300.758058 
L 425.954783 301.167976 
L 431.878182 301.424267 
L 431.878182 301.424267 
" clip-path="url(#p5e836c3121)" style="fill: none; stroke: #1f77b4; stroke-width: 1.5; stroke-linecap: square"/>
   </g>
   <g id="line2d_16">
    <path d="M 222.561247 301.425084 
L 227.695521 301.066334 
L 231.974083 300.552511 
L 235.396933 299.93885 
L 238.819782 299.08969 
L 241.386919 298.266244 
L 243.954056 297.259233 
L 246.521194 296.050605 
L 249.088331 294.627384 
L 251.655468 292.983706 
L 254.222605 291.122662 
L 257.645455 288.328027 
L 261.068304 285.234766 
L 266.202578 280.251089 
L 273.048277 273.620796 
L 276.471127 270.584108 
L 279.893976 267.841199 
L 283.316826 265.408727 
L 286.739675 263.241988 
L 298.719649 256.02714 
L 302.142498 253.527146 
L 305.565348 250.713998 
L 309.84391 246.87426 
L 314.978184 242.285243 
L 317.545321 240.270324 
L 319.256746 239.121404 
L 320.96817 238.174217 
L 322.679595 237.465843 
L 324.39102 237.029468 
L 326.102445 236.89307 
L 327.813869 237.07829 
L 329.525294 237.599562 
L 331.236719 238.463528 
L 332.948144 239.66876 
L 334.659568 241.205799 
L 336.370993 243.057502 
L 338.082418 245.199671 
L 340.649555 248.889662 
L 343.216692 253.040855 
L 346.639542 259.051556 
L 355.196666 274.382712 
L 358.619515 279.892064 
L 361.186652 283.607624 
L 363.753789 286.919508 
L 366.320926 289.810885 
L 368.888064 292.284971 
L 371.455201 294.361097 
L 374.022338 296.070436 
L 376.589475 297.451815 
L 379.156612 298.54793 
L 381.723749 299.402177 
L 384.290886 300.056218 
L 387.713736 300.682272 
L 391.992298 301.176541 
L 392.84801 301.24687 
L 392.84801 301.24687 
" clip-path="url(#p5e836c3121)" style="fill: none; stroke: #ff7f0e; stroke-width: 1.5; stroke-linecap: square"/>
   </g>
   <g id="line2d_17">
    <path d="M 287.668785 300.288188 
L 288.769501 299.450436 
L 289.595038 298.572772 
L 290.420575 297.420076 
L 291.246112 295.92842 
L 292.071649 294.026724 
L 292.897186 291.638481 
L 293.722723 288.6844 
L 294.823439 283.730464 
L 295.924155 277.462763 
L 297.024872 269.751755 
L 298.125588 260.531292 
L 299.501483 246.922518 
L 301.152557 227.921595 
L 303.629168 196.107789 
L 306.380958 161.478451 
L 307.756853 146.519709 
L 309.132748 133.970444 
L 310.233464 125.877261 
L 311.33418 119.560012 
L 312.159717 115.965153 
L 312.985254 113.31437 
L 313.535612 112.053954 
L 314.08597 111.187927 
L 314.636328 110.709228 
L 315.186686 110.613701 
L 315.737044 110.900496 
L 316.287402 111.572145 
L 316.83776 112.634325 
L 317.388118 114.095312 
L 318.213655 117.056768 
L 319.039192 120.974061 
L 319.864729 125.877261 
L 320.965445 133.970444 
L 322.066161 143.803468 
L 323.442057 158.317739 
L 325.093131 178.27332 
L 330.321532 243.940992 
L 331.697427 257.990466 
L 333.073322 269.751755 
L 334.174038 277.462763 
L 335.274754 283.730464 
L 336.37547 288.6844 
L 337.476186 292.493495 
L 338.576902 295.343769 
L 339.402439 296.963895 
L 340.227976 298.222096 
L 341.328692 299.450436 
L 342.429408 300.288188 
L 342.429408 300.288188 
" clip-path="url(#p5e836c3121)" style="fill: none; stroke: #2ca02c; stroke-width: 1.5; stroke-linecap: square"/>
   </g>
   <g id="line2d_18">
    <path d="M 279.397355 300.452568 
L 280.635619 299.707874 
L 281.564317 298.927702 
L 282.493015 297.903049 
L 283.421712 296.577088 
L 284.35041 294.886634 
L 285.279108 292.76368 
L 286.207806 290.137743 
L 287.136504 286.939062 
L 288.065202 283.102603 
L 289.303466 276.901006 
L 290.54173 269.378665 
L 291.779994 260.512641 
L 293.327824 247.643348 
L 295.18522 230.046299 
L 301.376539 168.850005 
L 302.924369 156.792072 
L 304.162633 148.815245 
L 305.400897 142.411338 
L 306.329595 138.639521 
L 307.258293 135.727266 
L 308.186991 133.643525 
L 308.806123 132.699333 
L 309.425255 132.102291 
L 310.044386 131.847354 
L 310.663518 131.93227 
L 311.28265 132.357795 
L 311.901782 133.127622 
L 312.520914 134.24803 
L 313.140046 135.727266 
L 314.068744 138.639521 
L 314.997442 142.411338 
L 315.92614 147.065828 
L 317.164404 154.652947 
L 318.402668 163.764879 
L 319.950498 177.061985 
L 321.807894 195.113216 
L 327.070515 247.643348 
L 328.618345 260.512641 
L 330.166175 271.38565 
L 331.404439 278.572707 
L 332.642703 284.45597 
L 333.880967 289.138505 
L 335.119231 292.76368 
L 336.047929 294.886634 
L 336.976627 296.577088 
L 337.905324 297.903049 
L 338.834022 298.927702 
L 340.072286 299.922399 
L 341.000984 300.452568 
L 341.000984 300.452568 
" clip-path="url(#p5e836c3121)" style="fill: none; stroke: #d62728; stroke-width: 1.5; stroke-linecap: square"/>
   </g>
   <g id="line2d_19">
    <path d="M 265.365429 300.844625 
L 266.690334 300.200092 
L 267.684013 299.481628 
L 268.677692 298.490185 
L 269.671371 297.148004 
L 270.66505 295.36582 
L 271.658729 293.045241 
L 272.652408 290.082911 
L 273.646087 286.376643 
L 274.639766 281.833479 
L 275.633445 276.379352 
L 276.95835 267.618716 
L 278.283255 257.173806 
L 279.939387 242.030398 
L 282.589197 214.918619 
L 284.907781 191.775369 
L 286.232686 180.349652 
L 287.557592 170.982433 
L 288.55127 165.53223 
L 289.544949 161.495918 
L 290.207402 159.573485 
L 290.869855 158.228347 
L 291.532307 157.410829 
L 292.19476 157.058336 
L 292.857212 157.098498 
L 293.519665 157.452764 
L 294.513344 158.396603 
L 298.48806 162.866304 
L 299.812965 163.726901 
L 302.131549 165.006158 
L 303.125228 165.940031 
L 303.78768 166.852019 
L 304.450133 168.068826 
L 305.112586 169.646552 
L 306.106265 172.789942 
L 307.099943 176.958999 
L 308.093622 182.196863 
L 309.418528 190.785067 
L 310.743433 200.965426 
L 312.730791 218.266198 
L 316.705506 253.47446 
L 318.361638 265.954256 
L 319.686543 274.432132 
L 321.011448 281.477819 
L 322.336353 287.127181 
L 323.330032 290.518247 
L 324.323711 293.262588 
L 325.31739 295.441303 
L 326.311069 297.138378 
L 327.304748 298.435564 
L 328.298427 299.408668 
L 329.292106 300.125168 
L 330.617011 300.780109 
L 331.279464 301.010454 
L 331.279464 301.010454 
" clip-path="url(#p5e836c3121)" style="fill: none; stroke: #9467bd; stroke-width: 1.5; stroke-linecap: square"/>
   </g>
   <g id="line2d_20">
    <path d="M 254.955617 300.965767 
L 256.469091 300.446731 
L 257.982566 299.653362 
L 259.117672 298.81487 
L 260.252778 297.709338 
L 261.387884 296.278055 
L 262.52299 294.458714 
L 263.658095 292.188402 
L 264.793201 289.407478 
L 265.928307 286.064201 
L 267.063413 282.119776 
L 268.576888 275.892603 
L 270.090362 268.576549 
L 271.982206 258.056302 
L 274.252417 243.932736 
L 279.927947 207.744464 
L 281.81979 197.323625 
L 283.333265 189.978578 
L 284.846739 183.562939 
L 286.360214 178.059948 
L 287.873689 173.42629 
L 289.387163 169.624469 
L 290.522269 167.314718 
L 291.657375 165.486062 
L 292.792481 164.172544 
L 293.549218 163.607263 
L 294.305956 163.311117 
L 295.062693 163.304031 
L 295.81943 163.606854 
L 296.576167 164.240417 
L 297.332905 165.224524 
L 298.089642 166.576927 
L 298.846379 168.312327 
L 299.981485 171.655673 
L 301.116591 175.89875 
L 302.251697 181.02725 
L 303.765172 189.157109 
L 305.278646 198.572823 
L 307.548858 214.439491 
L 313.224388 255.253406 
L 315.116231 266.749556 
L 316.629705 274.64334 
L 318.14318 281.293229 
L 319.278286 285.470643 
L 320.413392 288.98888 
L 321.548498 291.898446 
L 322.683604 294.261415 
L 323.81871 296.14616 
L 324.953816 297.622707 
L 326.088921 298.758956 
L 327.224027 299.617898 
L 328.737502 300.42792 
L 330.250977 300.956091 
L 330.250977 300.956091 
" clip-path="url(#p5e836c3121)" style="fill: none; stroke: #8c564b; stroke-width: 1.5; stroke-linecap: square"/>
   </g>
   <g id="line2d_21">
    <path d="M 264.644668 300.629621 
L 265.341358 300.047737 
L 266.038049 299.213609 
L 266.734739 298.040463 
L 267.431429 296.421612 
L 268.12812 294.22978 
L 268.82481 291.317998 
L 269.5215 287.522558 
L 270.218191 282.668457 
L 271.147111 274.242611 
L 272.076032 263.225007 
L 273.004952 249.306129 
L 273.933873 232.328406 
L 275.095023 206.926223 
L 276.488404 171.394804 
L 279.971856 79.423454 
L 280.900776 60.879455 
L 281.597467 50.266212 
L 282.294157 42.933515 
L 282.758617 39.99751 
L 283.223077 38.664443 
L 283.455307 38.598476 
L 283.687538 38.927878 
L 283.919768 39.645946 
L 284.384228 42.20973 
L 284.848688 46.191078 
L 285.545379 54.524993 
L 286.474299 69.145363 
L 288.09991 99.868639 
L 289.957751 133.832794 
L 291.118901 150.882351 
L 292.047822 161.721395 
L 292.976742 170.439456 
L 294.370123 181.118961 
L 296.227964 195.173459 
L 297.389114 205.756921 
L 298.782495 220.750116 
L 303.194867 270.6447 
L 304.356018 280.263499 
L 305.284938 286.348011 
L 306.213859 291.06985 
L 307.142779 294.587764 
L 308.0717 297.106445 
L 309.00062 298.840774 
L 309.929541 299.990147 
L 310.858461 300.723673 
L 310.858461 300.723673 
" clip-path="url(#p5e836c3121)" style="fill: none; stroke: #7f7f7f; stroke-width: 1.5; stroke-linecap: square"/>
   </g>
   <g id="line2d_22">
    <path d="M 89.907044 301.722188 
L 99.441273 301.546803 
L 105.400165 301.254769 
L 110.167279 300.835287 
L 114.934393 300.17975 
L 118.509729 299.495884 
L 122.085064 298.625848 
L 125.6604 297.561634 
L 129.235735 296.30878 
L 134.002849 294.381324 
L 139.961742 291.676975 
L 153.071306 285.349454 
L 160.221977 281.755381 
L 164.989091 279.131728 
L 169.756205 276.220955 
L 174.523319 273.015044 
L 182.865769 267.012092 
L 188.824661 262.827795 
L 193.591775 259.740223 
L 198.358889 256.955216 
L 201.934225 255.098285 
L 205.50956 253.485804 
L 209.084896 252.185192 
L 211.468453 251.53363 
L 213.85201 251.085912 
L 216.235567 250.866651 
L 218.619124 250.895283 
L 221.002681 251.183824 
L 223.386238 251.735523 
L 225.769795 252.544594 
L 228.153352 253.596949 
L 230.536909 254.87173 
L 232.920466 256.343254 
L 236.495802 258.856794 
L 240.071137 261.64948 
L 246.03003 266.666373 
L 255.564258 274.78498 
L 260.331372 278.557505 
L 265.098486 282.021636 
L 269.8656 285.169197 
L 274.632714 288.03801 
L 279.399828 290.673087 
L 284.166942 293.089787 
L 288.934056 295.260504 
L 292.509392 296.694269 
L 296.084727 297.935856 
L 299.660063 298.971337 
L 303.235398 299.800003 
L 306.810734 300.434824 
L 311.577848 301.021996 
L 316.344962 301.379584 
L 322.303855 301.613128 
L 327.070969 301.699775 
L 327.070969 301.699775 
" clip-path="url(#p5e836c3121)" style="fill: none; stroke: #bcbd22; stroke-width: 1.5; stroke-linecap: square"/>
   </g>
   <g id="patch_3">
    <path d="M 51.32 301.768 
L 51.32 25.44 
" style="fill: none; stroke: #262626; stroke-width: 0.8; stroke-linejoin: miter; stroke-linecap: square"/>
   </g>
   <g id="patch_4">
    <path d="M 450 301.768 
L 450 25.44 
" style="fill: none; stroke: #262626; stroke-width: 0.8; stroke-linejoin: miter; stroke-linecap: square"/>
   </g>
   <g id="patch_5">
    <path d="M 51.32 301.768 
L 450 301.768 
" style="fill: none; stroke: #262626; stroke-width: 0.8; stroke-linejoin: miter; stroke-linecap: square"/>
   </g>
   <g id="patch_6">
    <path d="M 51.32 25.44 
L 450 25.44 
" style="fill: none; stroke: #262626; stroke-width: 0.8; stroke-linejoin: miter; stroke-linecap: square"/>
   </g>
   <g id="text_17">
    <!-- Brain project budgets vs. all megaprojects -->
    <g style="fill: #262626" transform="translate(139.2775 19.44) scale(0.12 -0.12)">
     <defs>
      <path id="LiberationSans-72" d="M 444 0 
L 444 2594 
Q 444 2950 425 3381 
L 956 3381 
Q 981 2806 981 2691 
L 994 2691 
Q 1128 3125 1303 3284 
Q 1478 3444 1797 3444 
Q 1909 3444 2025 3413 
L 2025 2897 
Q 1913 2928 1725 2928 
Q 1375 2928 1190 2626 
Q 1006 2325 1006 1763 
L 1006 0 
L 444 0 
z
" transform="scale(0.015625)"/>
      <path id="LiberationSans-61" d="M 1294 -63 
Q 784 -63 528 206 
Q 272 475 272 944 
Q 272 1469 617 1750 
Q 963 2031 1731 2050 
L 2491 2063 
L 2491 2247 
Q 2491 2659 2316 2837 
Q 2141 3016 1766 3016 
Q 1388 3016 1216 2887 
Q 1044 2759 1009 2478 
L 422 2531 
Q 566 3444 1778 3444 
Q 2416 3444 2737 3151 
Q 3059 2859 3059 2306 
L 3059 850 
Q 3059 600 3125 473 
Q 3191 347 3375 347 
Q 3456 347 3559 369 
L 3559 19 
Q 3347 -31 3125 -31 
Q 2813 -31 2670 133 
Q 2528 297 2509 647 
L 2491 647 
Q 2275 259 1989 98 
Q 1703 -63 1294 -63 
z
M 1422 359 
Q 1731 359 1972 500 
Q 2213 641 2352 886 
Q 2491 1131 2491 1391 
L 2491 1669 
L 1875 1656 
Q 1478 1650 1273 1575 
Q 1069 1500 959 1344 
Q 850 1188 850 934 
Q 850 659 998 509 
Q 1147 359 1422 359 
z
" transform="scale(0.015625)"/>
      <path id="LiberationSans-20" transform="scale(0.015625)"/>
      <path id="LiberationSans-70" d="M 3291 1706 
Q 3291 -63 2047 -63 
Q 1266 -63 997 525 
L 981 525 
Q 994 500 994 -6 
L 994 -1328 
L 431 -1328 
L 431 2691 
Q 431 3213 413 3381 
L 956 3381 
Q 959 3369 965 3292 
Q 972 3216 980 3056 
Q 988 2897 988 2838 
L 1000 2838 
Q 1150 3150 1397 3295 
Q 1644 3441 2047 3441 
Q 2672 3441 2981 3022 
Q 3291 2603 3291 1706 
z
M 2700 1694 
Q 2700 2400 2509 2703 
Q 2319 3006 1903 3006 
Q 1569 3006 1380 2865 
Q 1191 2725 1092 2426 
Q 994 2128 994 1650 
Q 994 984 1206 668 
Q 1419 353 1897 353 
Q 2316 353 2508 661 
Q 2700 969 2700 1694 
z
" transform="scale(0.015625)"/>
      <path id="LiberationSans-6f" d="M 3291 1694 
Q 3291 806 2900 371 
Q 2509 -63 1766 -63 
Q 1025 -63 647 389 
Q 269 841 269 1694 
Q 269 3444 1784 3444 
Q 2559 3444 2925 3017 
Q 3291 2591 3291 1694 
z
M 2700 1694 
Q 2700 2394 2492 2711 
Q 2284 3028 1794 3028 
Q 1300 3028 1079 2704 
Q 859 2381 859 1694 
Q 859 1025 1076 689 
Q 1294 353 1759 353 
Q 2266 353 2483 678 
Q 2700 1003 2700 1694 
z
" transform="scale(0.015625)"/>
      <path id="LiberationSans-6a" d="M 428 4100 
L 428 4638 
L 991 4638 
L 991 4100 
L 428 4100 
z
M 991 -419 
Q 991 -897 803 -1112 
Q 616 -1328 241 -1328 
Q 0 -1328 -156 -1300 
L -156 -866 
L 38 -884 
Q 253 -884 340 -771 
Q 428 -659 428 -334 
L 428 3381 
L 991 3381 
L 991 -419 
z
" transform="scale(0.015625)"/>
      <path id="LiberationSans-63" d="M 859 1706 
Q 859 1031 1071 706 
Q 1284 381 1713 381 
Q 2013 381 2214 543 
Q 2416 706 2463 1044 
L 3031 1006 
Q 2966 519 2616 228 
Q 2266 -63 1728 -63 
Q 1019 -63 645 385 
Q 272 834 272 1694 
Q 272 2547 647 2995 
Q 1022 3444 1722 3444 
Q 2241 3444 2583 3175 
Q 2925 2906 3013 2434 
L 2434 2391 
Q 2391 2672 2212 2837 
Q 2034 3003 1706 3003 
Q 1259 3003 1059 2706 
Q 859 2409 859 1706 
z
" transform="scale(0.015625)"/>
      <path id="LiberationSans-62" d="M 3291 1706 
Q 3291 -63 2047 -63 
Q 1663 -63 1408 76 
Q 1153 216 994 525 
L 988 525 
Q 988 428 975 229 
Q 963 31 956 0 
L 413 0 
Q 431 169 431 697 
L 431 4638 
L 994 4638 
L 994 3316 
Q 994 3113 981 2838 
L 994 2838 
Q 1150 3163 1408 3303 
Q 1666 3444 2047 3444 
Q 2688 3444 2989 3012 
Q 3291 2581 3291 1706 
z
M 2700 1688 
Q 2700 2397 2512 2703 
Q 2325 3009 1903 3009 
Q 1428 3009 1211 2684 
Q 994 2359 994 1653 
Q 994 988 1206 670 
Q 1419 353 1897 353 
Q 2322 353 2511 667 
Q 2700 981 2700 1688 
z
" transform="scale(0.015625)"/>
      <path id="LiberationSans-76" d="M 1916 0 
L 1250 0 
L 22 3381 
L 622 3381 
L 1366 1181 
Q 1406 1056 1581 441 
L 1691 806 
L 1813 1175 
L 2581 3381 
L 3178 3381 
L 1916 0 
z
" transform="scale(0.015625)"/>
      <path id="LiberationSans-6c" d="M 431 0 
L 431 4638 
L 994 4638 
L 994 0 
L 431 0 
z
" transform="scale(0.015625)"/>
      <path id="LiberationSans-6d" d="M 2400 0 
L 2400 2144 
Q 2400 2634 2265 2821 
Q 2131 3009 1781 3009 
Q 1422 3009 1212 2734 
Q 1003 2459 1003 1959 
L 1003 0 
L 444 0 
L 444 2659 
Q 444 3250 425 3381 
L 956 3381 
Q 959 3366 962 3297 
Q 966 3228 970 3139 
Q 975 3050 981 2803 
L 991 2803 
Q 1172 3163 1406 3303 
Q 1641 3444 1978 3444 
Q 2363 3444 2586 3291 
Q 2809 3138 2897 2803 
L 2906 2803 
Q 3081 3144 3329 3294 
Q 3578 3444 3931 3444 
Q 4444 3444 4676 3166 
Q 4909 2888 4909 2253 
L 4909 0 
L 4353 0 
L 4353 2144 
Q 4353 2634 4218 2821 
Q 4084 3009 3734 3009 
Q 3366 3009 3161 2736 
Q 2956 2463 2956 1959 
L 2956 0 
L 2400 0 
z
" transform="scale(0.015625)"/>
     </defs>
     <use xlink:href="#LiberationSans-42"/>
     <use xlink:href="#LiberationSans-72" x="66.699219"/>
     <use xlink:href="#LiberationSans-61" x="100"/>
     <use xlink:href="#LiberationSans-69" x="155.615234"/>
     <use xlink:href="#LiberationSans-6e" x="177.832031"/>
     <use xlink:href="#LiberationSans-20" x="233.447266"/>
     <use xlink:href="#LiberationSans-70" x="261.230469"/>
     <use xlink:href="#LiberationSans-72" x="316.845703"/>
     <use xlink:href="#LiberationSans-6f" x="350.146484"/>
     <use xlink:href="#LiberationSans-6a" x="405.761719"/>
     <use xlink:href="#LiberationSans-65" x="427.978516"/>
     <use xlink:href="#LiberationSans-63" x="483.59375"/>
     <use xlink:href="#LiberationSans-74" x="533.59375"/>
     <use xlink:href="#LiberationSans-20" x="561.376953"/>
     <use xlink:href="#LiberationSans-62" x="589.160156"/>
     <use xlink:href="#LiberationSans-75" x="644.775391"/>
     <use xlink:href="#LiberationSans-64" x="700.390625"/>
     <use xlink:href="#LiberationSans-67" x="756.005859"/>
     <use xlink:href="#LiberationSans-65" x="811.621094"/>
     <use xlink:href="#LiberationSans-74" x="867.236328"/>
     <use xlink:href="#LiberationSans-73" x="895.019531"/>
     <use xlink:href="#LiberationSans-20" x="945.019531"/>
     <use xlink:href="#LiberationSans-76" x="972.802734"/>
     <use xlink:href="#LiberationSans-73" x="1022.802734"/>
     <use xlink:href="#LiberationSans-2e" x="1072.802734"/>
     <use xlink:href="#LiberationSans-20" x="1100.585938"/>
     <use xlink:href="#LiberationSans-61" x="1128.369141"/>
     <use xlink:href="#LiberationSans-6c" x="1183.984375"/>
     <use xlink:href="#LiberationSans-6c" x="1206.201172"/>
     <use xlink:href="#LiberationSans-20" x="1228.417969"/>
     <use xlink:href="#LiberationSans-6d" x="1256.201172"/>
     <use xlink:href="#LiberationSans-65" x="1339.501953"/>
     <use xlink:href="#LiberationSans-67" x="1395.117188"/>
     <use xlink:href="#LiberationSans-61" x="1450.732422"/>
     <use xlink:href="#LiberationSans-70" x="1506.347656"/>
     <use xlink:href="#LiberationSans-72" x="1561.962891"/>
     <use xlink:href="#LiberationSans-6f" x="1595.263672"/>
     <use xlink:href="#LiberationSans-6a" x="1650.878906"/>
     <use xlink:href="#LiberationSans-65" x="1673.095703"/>
     <use xlink:href="#LiberationSans-63" x="1728.710938"/>
     <use xlink:href="#LiberationSans-74" x="1778.710938"/>
     <use xlink:href="#LiberationSans-73" x="1806.494141"/>
    </g>
   </g>
   <g id="legend_1">
    <g id="patch_7">
     <path d="M 352.09375 162.336875 
L 443 162.336875 
Q 445 162.336875 445 160.336875 
L 445 32.44 
Q 445 30.44 443 30.44 
L 352.09375 30.44 
Q 350.09375 30.44 350.09375 32.44 
L 350.09375 160.336875 
Q 350.09375 162.336875 352.09375 162.336875 
z
" style="fill: #ffffff; opacity: 0.8; stroke: #cccccc; stroke-linejoin: miter"/>
    </g>
    <g id="patch_8">
     <path d="M 354.09375 41.686875 
L 374.09375 41.686875 
L 374.09375 34.686875 
L 354.09375 34.686875 
z
" style="fill: #1f77b4; fill-opacity: 0.25; stroke: #1f77b4; stroke-linejoin: miter"/>
    </g>
    <g id="text_18">
     <!-- All projects -->
     <g style="fill: #262626" transform="translate(382.09375 41.686875) scale(0.1 -0.1)">
      <defs>
       <path id="LiberationSans-41" d="M 3647 0 
L 3144 1288 
L 1138 1288 
L 631 0 
L 13 0 
L 1809 4403 
L 2488 4403 
L 4256 0 
L 3647 0 
z
M 2141 3953 
L 2113 3866 
Q 2034 3606 1881 3200 
L 1319 1753 
L 2966 1753 
L 2400 3206 
Q 2313 3422 2225 3694 
L 2141 3953 
z
" transform="scale(0.015625)"/>
      </defs>
      <use xlink:href="#LiberationSans-41"/>
      <use xlink:href="#LiberationSans-6c" x="66.699219"/>
      <use xlink:href="#LiberationSans-6c" x="88.916016"/>
      <use xlink:href="#LiberationSans-20" x="111.132812"/>
      <use xlink:href="#LiberationSans-70" x="138.916016"/>
      <use xlink:href="#LiberationSans-72" x="194.53125"/>
      <use xlink:href="#LiberationSans-6f" x="227.832031"/>
      <use xlink:href="#LiberationSans-6a" x="283.447266"/>
      <use xlink:href="#LiberationSans-65" x="305.664062"/>
      <use xlink:href="#LiberationSans-63" x="361.279297"/>
      <use xlink:href="#LiberationSans-74" x="411.279297"/>
      <use xlink:href="#LiberationSans-73" x="439.0625"/>
     </g>
    </g>
    <g id="line2d_23">
     <path d="M 354.09375 52.50875 
L 364.09375 52.50875 
L 374.09375 52.50875 
" style="fill: none; stroke: #1f77b4; stroke-width: 1.5; stroke-linecap: square"/>
    </g>
    <g id="text_19">
     <!-- Defense -->
     <g style="fill: #262626" transform="translate(382.09375 56.00875) scale(0.1 -0.1)">
      <defs>
       <path id="LiberationSans-66" d="M 1128 2972 
L 1128 0 
L 566 0 
L 566 2972 
L 91 2972 
L 91 3381 
L 566 3381 
L 566 3763 
Q 566 4225 769 4428 
Q 972 4631 1391 4631 
Q 1625 4631 1788 4594 
L 1788 4166 
Q 1647 4191 1538 4191 
Q 1322 4191 1225 4081 
Q 1128 3972 1128 3684 
L 1128 3381 
L 1788 3381 
L 1788 2972 
L 1128 2972 
z
" transform="scale(0.015625)"/>
      </defs>
      <use xlink:href="#LiberationSans-44"/>
      <use xlink:href="#LiberationSans-65" x="72.216797"/>
      <use xlink:href="#LiberationSans-66" x="127.832031"/>
      <use xlink:href="#LiberationSans-65" x="155.615234"/>
      <use xlink:href="#LiberationSans-6e" x="211.230469"/>
      <use xlink:href="#LiberationSans-73" x="266.845703"/>
      <use xlink:href="#LiberationSans-65" x="316.845703"/>
     </g>
    </g>
    <g id="line2d_24">
     <path d="M 354.09375 66.830625 
L 364.09375 66.830625 
L 374.09375 66.830625 
" style="fill: none; stroke: #ff7f0e; stroke-width: 1.5; stroke-linecap: square"/>
    </g>
    <g id="text_20">
     <!-- Space -->
     <g style="fill: #262626" transform="translate(382.09375 70.330625) scale(0.1 -0.1)">
      <defs>
       <path id="LiberationSans-53" d="M 3975 1216 
Q 3975 606 3498 271 
Q 3022 -63 2156 -63 
Q 547 -63 291 1056 
L 869 1172 
Q 969 775 1294 589 
Q 1619 403 2178 403 
Q 2756 403 3070 601 
Q 3384 800 3384 1184 
Q 3384 1400 3286 1534 
Q 3188 1669 3009 1756 
Q 2831 1844 2584 1903 
Q 2338 1963 2038 2031 
Q 1516 2147 1245 2262 
Q 975 2378 819 2520 
Q 663 2663 580 2853 
Q 497 3044 497 3291 
Q 497 3856 930 4162 
Q 1363 4469 2169 4469 
Q 2919 4469 3316 4239 
Q 3713 4009 3872 3456 
L 3284 3353 
Q 3188 3703 2916 3861 
Q 2644 4019 2163 4019 
Q 1634 4019 1356 3844 
Q 1078 3669 1078 3322 
Q 1078 3119 1186 2986 
Q 1294 2853 1497 2761 
Q 1700 2669 2306 2534 
Q 2509 2488 2711 2439 
Q 2913 2391 3097 2323 
Q 3281 2256 3442 2165 
Q 3603 2075 3722 1944 
Q 3841 1813 3908 1634 
Q 3975 1456 3975 1216 
z
" transform="scale(0.015625)"/>
      </defs>
      <use xlink:href="#LiberationSans-53"/>
      <use xlink:href="#LiberationSans-70" x="66.699219"/>
      <use xlink:href="#LiberationSans-61" x="122.314453"/>
      <use xlink:href="#LiberationSans-63" x="177.929688"/>
      <use xlink:href="#LiberationSans-65" x="227.929688"/>
     </g>
    </g>
    <g id="line2d_25">
     <path d="M 354.09375 81.1525 
L 364.09375 81.1525 
L 374.09375 81.1525 
" style="fill: none; stroke: #2ca02c; stroke-width: 1.5; stroke-linecap: square"/>
    </g>
    <g id="text_21">
     <!-- Energy -->
     <g style="fill: #262626" transform="translate(382.09375 84.6525) scale(0.1 -0.1)">
      <defs>
       <path id="LiberationSans-45" d="M 525 0 
L 525 4403 
L 3866 4403 
L 3866 3916 
L 1122 3916 
L 1122 2503 
L 3678 2503 
L 3678 2022 
L 1122 2022 
L 1122 488 
L 3994 488 
L 3994 0 
L 525 0 
z
" transform="scale(0.015625)"/>
      </defs>
      <use xlink:href="#LiberationSans-45"/>
      <use xlink:href="#LiberationSans-6e" x="66.699219"/>
      <use xlink:href="#LiberationSans-65" x="122.314453"/>
      <use xlink:href="#LiberationSans-72" x="177.929688"/>
      <use xlink:href="#LiberationSans-67" x="211.230469"/>
      <use xlink:href="#LiberationSans-79" x="266.845703"/>
     </g>
    </g>
    <g id="line2d_26">
     <path d="M 354.09375 95.474375 
L 364.09375 95.474375 
L 374.09375 95.474375 
" style="fill: none; stroke: #d62728; stroke-width: 1.5; stroke-linecap: square"/>
    </g>
    <g id="text_22">
     <!-- Transport -->
     <g style="fill: #262626" transform="translate(382.09375 98.974375) scale(0.1 -0.1)">
      <defs>
       <path id="LiberationSans-54" d="M 2250 3916 
L 2250 0 
L 1656 0 
L 1656 3916 
L 144 3916 
L 144 4403 
L 3763 4403 
L 3763 3916 
L 2250 3916 
z
" transform="scale(0.015625)"/>
      </defs>
      <use xlink:href="#LiberationSans-54"/>
      <use xlink:href="#LiberationSans-72" x="57.333984"/>
      <use xlink:href="#LiberationSans-61" x="90.634766"/>
      <use xlink:href="#LiberationSans-6e" x="146.25"/>
      <use xlink:href="#LiberationSans-73" x="201.865234"/>
      <use xlink:href="#LiberationSans-70" x="251.865234"/>
      <use xlink:href="#LiberationSans-6f" x="307.480469"/>
      <use xlink:href="#LiberationSans-72" x="363.095703"/>
      <use xlink:href="#LiberationSans-74" x="396.396484"/>
     </g>
    </g>
    <g id="line2d_27">
     <path d="M 354.09375 109.79625 
L 364.09375 109.79625 
L 374.09375 109.79625 
" style="fill: none; stroke: #9467bd; stroke-width: 1.5; stroke-linecap: square"/>
    </g>
    <g id="text_23">
     <!-- Tech -->
     <g style="fill: #262626" transform="translate(382.09375 113.29625) scale(0.1 -0.1)">
      <defs>
       <path id="LiberationSans-68" d="M 991 2803 
Q 1172 3134 1426 3289 
Q 1681 3444 2072 3444 
Q 2622 3444 2883 3170 
Q 3144 2897 3144 2253 
L 3144 0 
L 2578 0 
L 2578 2144 
Q 2578 2500 2512 2673 
Q 2447 2847 2297 2928 
Q 2147 3009 1881 3009 
Q 1484 3009 1245 2734 
Q 1006 2459 1006 1994 
L 1006 0 
L 444 0 
L 444 4638 
L 1006 4638 
L 1006 3431 
Q 1006 3241 995 3037 
Q 984 2834 981 2803 
L 991 2803 
z
" transform="scale(0.015625)"/>
      </defs>
      <use xlink:href="#LiberationSans-54"/>
      <use xlink:href="#LiberationSans-65" x="49.958984"/>
      <use xlink:href="#LiberationSans-63" x="105.574219"/>
      <use xlink:href="#LiberationSans-68" x="155.574219"/>
     </g>
    </g>
    <g id="line2d_28">
     <path d="M 354.09375 124.118125 
L 364.09375 124.118125 
L 374.09375 124.118125 
" style="fill: none; stroke: #8c564b; stroke-width: 1.5; stroke-linecap: square"/>
    </g>
    <g id="text_24">
     <!-- Infrastructure -->
     <g style="fill: #262626" transform="translate(382.09375 127.618125) scale(0.1 -0.1)">
      <defs>
       <path id="LiberationSans-49" d="M 591 0 
L 591 4403 
L 1188 4403 
L 1188 0 
L 591 0 
z
" transform="scale(0.015625)"/>
      </defs>
      <use xlink:href="#LiberationSans-49"/>
      <use xlink:href="#LiberationSans-6e" x="27.783203"/>
      <use xlink:href="#LiberationSans-66" x="83.398438"/>
      <use xlink:href="#LiberationSans-72" x="111.181641"/>
      <use xlink:href="#LiberationSans-61" x="144.482422"/>
      <use xlink:href="#LiberationSans-73" x="200.097656"/>
      <use xlink:href="#LiberationSans-74" x="250.097656"/>
      <use xlink:href="#LiberationSans-72" x="277.880859"/>
      <use xlink:href="#LiberationSans-75" x="311.181641"/>
      <use xlink:href="#LiberationSans-63" x="366.796875"/>
      <use xlink:href="#LiberationSans-74" x="416.796875"/>
      <use xlink:href="#LiberationSans-75" x="444.580078"/>
      <use xlink:href="#LiberationSans-72" x="500.195312"/>
      <use xlink:href="#LiberationSans-65" x="533.496094"/>
     </g>
    </g>
    <g id="line2d_29">
     <path d="M 354.09375 138.44 
L 364.09375 138.44 
L 374.09375 138.44 
" style="fill: none; stroke: #7f7f7f; stroke-width: 1.5; stroke-linecap: square"/>
    </g>
    <g id="text_25">
     <!-- Research -->
     <g style="fill: #262626" transform="translate(382.09375 141.94) scale(0.1 -0.1)">
      <defs>
       <path id="LiberationSans-52" d="M 3638 0 
L 2494 1828 
L 1122 1828 
L 1122 0 
L 525 0 
L 525 4403 
L 2597 4403 
Q 3341 4403 3745 4070 
Q 4150 3738 4150 3144 
Q 4150 2653 3864 2318 
Q 3578 1984 3075 1897 
L 4325 0 
L 3638 0 
z
M 3550 3138 
Q 3550 3522 3289 3723 
Q 3028 3925 2538 3925 
L 1122 3925 
L 1122 2300 
L 2563 2300 
Q 3034 2300 3292 2520 
Q 3550 2741 3550 3138 
z
" transform="scale(0.015625)"/>
      </defs>
      <use xlink:href="#LiberationSans-52"/>
      <use xlink:href="#LiberationSans-65" x="72.216797"/>
      <use xlink:href="#LiberationSans-73" x="127.832031"/>
      <use xlink:href="#LiberationSans-65" x="177.832031"/>
      <use xlink:href="#LiberationSans-61" x="233.447266"/>
      <use xlink:href="#LiberationSans-72" x="289.0625"/>
      <use xlink:href="#LiberationSans-63" x="322.363281"/>
      <use xlink:href="#LiberationSans-68" x="372.363281"/>
     </g>
    </g>
    <g id="line2d_30">
     <path d="M 354.09375 152.761875 
L 364.09375 152.761875 
L 374.09375 152.761875 
" style="fill: none; stroke: #bcbd22; stroke-width: 1.5; stroke-linecap: square"/>
    </g>
    <g id="text_26">
     <!-- Brain -->
     <g style="fill: #262626" transform="translate(382.09375 156.261875) scale(0.1 -0.1)">
      <use xlink:href="#LiberationSans-42"/>
      <use xlink:href="#LiberationSans-72" x="66.699219"/>
      <use xlink:href="#LiberationSans-61" x="100"/>
      <use xlink:href="#LiberationSans-69" x="155.615234"/>
      <use xlink:href="#LiberationSans-6e" x="177.832031"/>
     </g>
    </g>
   </g>
  </g>
 </g>
 <defs>
  <clipPath id="p5e836c3121">
   <rect x="51.32" y="25.44" width="398.68" height="276.328"/>
  </clipPath>
 </defs>
</svg>
