<?xml version="1.0" encoding="utf-8" standalone="no"?>
<!DOCTYPE svg PUBLIC "-//W3C//DTD SVG 1.1//EN"
  "http://www.w3.org/Graphics/SVG/1.1/DTD/svg11.dtd">
<svg xmlns:xlink="http://www.w3.org/1999/xlink" width="460.8pt" height="345.6pt" viewBox="0 0 460.8 345.6" xmlns="http://www.w3.org/2000/svg" version="1.1">
 <metadata>
  <rdf:RDF xmlns:dc="http://purl.org/dc/elements/1.1/" xmlns:cc="http://creativecommons.org/ns#" xmlns:rdf="http://www.w3.org/1999/02/22-rdf-syntax-ns#">
   <cc:Work>
    <dc:type rdf:resource="http://purl.org/dc/dcmitype/StillImage"/>
    <dc:date>2025-01-24T07:00:08.131031</dc:date>
    <dc:format>image/svg+xml</dc:format>
    <dc:creator>
     <cc:Agent>
      <dc:title>Matplotlib v3.9.2, https://matplotlib.org/</dc:title>
     </cc:Agent>
    </dc:creator>
   </cc:Work>
  </rdf:RDF>
 </metadata>
 <defs>
  <style type="text/css">*{stroke-linejoin: round; stroke-linecap: butt}</style>
 </defs>
 <g id="figure_1">
  <g id="patch_1">
   <path d="M 0 345.6 
L 460.8 345.6 
L 460.8 0 
L 0 0 
z
" style="fill: #ffffff"/>
  </g>
  <g id="axes_1">
   <g id="patch_2">
    <path d="M 51.32 301.768 
L 450 301.768 
L 450 25.44 
L 51.32 25.44 
z
" style="fill: #ffffff"/>
   </g>
   <g id="PolyCollection_1">
    <defs>
     <path id="m18723b652f" d="M 69.441818 -43.946996 
L 69.441818 -43.832 
L 71.263106 -43.832 
L 73.084395 -43.832 
L 74.905683 -43.832 
L 76.726971 -43.832 
L 78.548259 -43.832 
L 80.369548 -43.832 
L 82.190836 -43.832 
L 84.012124 -43.832 
L 85.833413 -43.832 
L 87.654701 -43.832 
L 89.475989 -43.832 
L 91.297277 -43.832 
L 93.118566 -43.832 
L 94.939854 -43.832 
L 96.761142 -43.832 
L 98.58243 -43.832 
L 100.403719 -43.832 
L 102.225007 -43.832 
L 104.046295 -43.832 
L 105.867583 -43.832 
L 107.688872 -43.832 
L 109.51016 -43.832 
L 111.331448 -43.832 
L 113.152736 -43.832 
L 114.974025 -43.832 
L 116.795313 -43.832 
L 118.616601 -43.832 
L 120.437889 -43.832 
L 122.259178 -43.832 
L 124.080466 -43.832 
L 125.901754 -43.832 
L 127.723042 -43.832 
L 129.544331 -43.832 
L 131.365619 -43.832 
L 133.186907 -43.832 
L 135.008196 -43.832 
L 136.829484 -43.832 
L 138.650772 -43.832 
L 140.47206 -43.832 
L 142.293349 -43.832 
L 144.114637 -43.832 
L 145.935925 -43.832 
L 147.757213 -43.832 
L 149.578502 -43.832 
L 151.39979 -43.832 
L 153.221078 -43.832 
L 155.042366 -43.832 
L 156.863655 -43.832 
L 158.684943 -43.832 
L 160.506231 -43.832 
L 162.327519 -43.832 
L 164.148808 -43.832 
L 165.970096 -43.832 
L 167.791384 -43.832 
L 169.612672 -43.832 
L 171.433961 -43.832 
L 173.255249 -43.832 
L 175.076537 -43.832 
L 176.897825 -43.832 
L 178.719114 -43.832 
L 180.540402 -43.832 
L 182.36169 -43.832 
L 184.182979 -43.832 
L 186.004267 -43.832 
L 187.825555 -43.832 
L 189.646843 -43.832 
L 191.468132 -43.832 
L 193.28942 -43.832 
L 195.110708 -43.832 
L 196.931996 -43.832 
L 198.753285 -43.832 
L 200.574573 -43.832 
L 202.395861 -43.832 
L 204.217149 -43.832 
L 206.038438 -43.832 
L 207.859726 -43.832 
L 209.681014 -43.832 
L 211.502302 -43.832 
L 213.323591 -43.832 
L 215.144879 -43.832 
L 216.966167 -43.832 
L 218.787455 -43.832 
L 220.608744 -43.832 
L 222.430032 -43.832 
L 224.25132 -43.832 
L 226.072608 -43.832 
L 227.893897 -43.832 
L 229.715185 -43.832 
L 231.536473 -43.832 
L 233.357762 -43.832 
L 235.17905 -43.832 
L 237.000338 -43.832 
L 238.821626 -43.832 
L 240.642915 -43.832 
L 242.464203 -43.832 
L 244.285491 -43.832 
L 246.106779 -43.832 
L 247.928068 -43.832 
L 249.749356 -43.832 
L 251.570644 -43.832 
L 253.391932 -43.832 
L 255.213221 -43.832 
L 257.034509 -43.832 
L 258.855797 -43.832 
L 260.677085 -43.832 
L 262.498374 -43.832 
L 264.319662 -43.832 
L 266.14095 -43.832 
L 267.962238 -43.832 
L 269.783527 -43.832 
L 271.604815 -43.832 
L 273.426103 -43.832 
L 275.247392 -43.832 
L 277.06868 -43.832 
L 278.889968 -43.832 
L 280.711256 -43.832 
L 282.532545 -43.832 
L 284.353833 -43.832 
L 286.175121 -43.832 
L 287.996409 -43.832 
L 289.817698 -43.832 
L 291.638986 -43.832 
L 293.460274 -43.832 
L 295.281562 -43.832 
L 297.102851 -43.832 
L 298.924139 -43.832 
L 300.745427 -43.832 
L 302.566715 -43.832 
L 304.388004 -43.832 
L 306.209292 -43.832 
L 308.03058 -43.832 
L 309.851868 -43.832 
L 311.673157 -43.832 
L 313.494445 -43.832 
L 315.315733 -43.832 
L 317.137021 -43.832 
L 318.95831 -43.832 
L 320.779598 -43.832 
L 322.600886 -43.832 
L 324.422175 -43.832 
L 326.243463 -43.832 
L 328.064751 -43.832 
L 329.886039 -43.832 
L 331.707328 -43.832 
L 333.528616 -43.832 
L 335.349904 -43.832 
L 337.171192 -43.832 
L 338.992481 -43.832 
L 340.813769 -43.832 
L 342.635057 -43.832 
L 344.456345 -43.832 
L 346.277634 -43.832 
L 348.098922 -43.832 
L 349.92021 -43.832 
L 351.741498 -43.832 
L 353.562787 -43.832 
L 355.384075 -43.832 
L 357.205363 -43.832 
L 359.026651 -43.832 
L 360.84794 -43.832 
L 362.669228 -43.832 
L 364.490516 -43.832 
L 366.311804 -43.832 
L 368.133093 -43.832 
L 369.954381 -43.832 
L 371.775669 -43.832 
L 373.596958 -43.832 
L 375.418246 -43.832 
L 377.239534 -43.832 
L 379.060822 -43.832 
L 380.882111 -43.832 
L 382.703399 -43.832 
L 384.524687 -43.832 
L 386.345975 -43.832 
L 388.167264 -43.832 
L 389.988552 -43.832 
L 391.80984 -43.832 
L 393.631128 -43.832 
L 395.452417 -43.832 
L 397.273705 -43.832 
L 399.094993 -43.832 
L 400.916281 -43.832 
L 402.73757 -43.832 
L 404.558858 -43.832 
L 406.380146 -43.832 
L 408.201434 -43.832 
L 410.022723 -43.832 
L 411.844011 -43.832 
L 413.665299 -43.832 
L 415.486587 -43.832 
L 417.307876 -43.832 
L 419.129164 -43.832 
L 420.950452 -43.832 
L 422.771741 -43.832 
L 424.593029 -43.832 
L 426.414317 -43.832 
L 428.235605 -43.832 
L 430.056894 -43.832 
L 431.878182 -43.832 
L 431.878182 -43.982313 
L 431.878182 -43.982313 
L 430.056894 -44.020823 
L 428.235605 -44.068107 
L 426.414317 -44.125875 
L 424.593029 -44.196109 
L 422.771741 -44.281078 
L 420.950452 -44.383375 
L 419.129164 -44.505933 
L 417.307876 -44.652056 
L 415.486587 -44.825434 
L 413.665299 -45.030166 
L 411.844011 -45.270768 
L 410.022723 -45.552184 
L 408.201434 -45.879783 
L 406.380146 -46.259359 
L 404.558858 -46.697109 
L 402.73757 -47.199619 
L 400.916281 -47.773824 
L 399.094993 -48.42697 
L 397.273705 -49.166564 
L 395.452417 -50.000311 
L 393.631128 -50.936048 
L 391.80984 -51.981662 
L 389.988552 -53.145012 
L 388.167264 -54.433835 
L 386.345975 -55.85565 
L 384.524687 -57.417665 
L 382.703399 -59.12667 
L 380.882111 -60.988947 
L 379.060822 -63.010164 
L 377.239534 -65.195281 
L 375.418246 -67.548463 
L 373.596958 -70.072985 
L 371.775669 -72.771158 
L 369.954381 -75.644246 
L 368.133093 -78.692396 
L 366.311804 -81.914575 
L 364.490516 -85.308502 
L 362.669228 -88.870598 
L 360.84794 -92.595922 
L 359.026651 -96.478129 
L 357.205363 -100.509416 
L 355.384075 -104.680479 
L 353.562787 -108.980468 
L 351.741498 -113.396957 
L 349.92021 -117.91591 
L 348.098922 -122.521663 
L 346.277634 -127.196916 
L 344.456345 -131.922746 
L 342.635057 -136.678635 
L 340.813769 -141.442528 
L 338.992481 -146.190923 
L 337.171192 -150.898989 
L 335.349904 -155.54073 
L 333.528616 -160.089186 
L 331.707328 -164.516684 
L 329.886039 -168.79513 
L 328.064751 -172.896346 
L 326.243463 -176.792454 
L 324.422175 -180.456287 
L 322.600886 -183.861846 
L 320.779598 -186.984766 
L 318.95831 -189.802801 
L 317.137021 -192.296313 
L 315.315733 -194.448738 
L 313.494445 -196.247033 
L 311.673157 -197.682079 
L 309.851868 -198.749027 
L 308.03058 -199.447579 
L 306.209292 -199.782176 
L 304.388004 -199.762106 
L 302.566715 -199.401504 
L 300.745427 -198.719244 
L 298.924139 -197.738726 
L 297.102851 -196.487553 
L 295.281562 -194.997109 
L 293.460274 -193.302035 
L 291.638986 -191.439626 
L 289.817698 -189.449154 
L 287.996409 -187.371145 
L 286.175121 -185.246614 
L 284.353833 -183.116286 
L 282.532545 -181.019823 
L 280.711256 -178.99508 
L 278.889968 -177.077395 
L 277.06868 -175.29895 
L 275.247392 -173.688207 
L 273.426103 -172.269432 
L 271.604815 -171.062318 
L 269.783527 -170.081722 
L 267.962238 -169.337507 
L 266.14095 -168.834494 
L 264.319662 -168.572529 
L 262.498374 -168.546642 
L 260.677085 -168.747312 
L 258.855797 -169.160807 
L 257.034509 -169.7696 
L 255.213221 -170.552839 
L 253.391932 -171.486874 
L 251.570644 -172.545796 
L 249.749356 -173.702008 
L 247.928068 -174.926792 
L 246.106779 -176.190866 
L 244.285491 -177.464923 
L 242.464203 -178.72013 
L 240.642915 -179.928601 
L 238.821626 -181.063804 
L 237.000338 -182.100931 
L 235.17905 -183.017199 
L 233.357762 -183.7921 
L 231.536473 -184.407587 
L 229.715185 -184.8482 
L 227.893897 -185.101137 
L 226.072608 -185.156275 
L 224.25132 -185.006135 
L 222.430032 -184.645811 
L 220.608744 -184.072857 
L 218.787455 -183.287145 
L 216.966167 -182.290699 
L 215.144879 -181.087506 
L 213.323591 -179.683326 
L 211.502302 -178.085478 
L 209.681014 -176.302643 
L 207.859726 -174.344655 
L 206.038438 -172.222305 
L 204.217149 -169.947149 
L 202.395861 -167.531331 
L 200.574573 -164.987408 
L 198.753285 -162.328197 
L 196.931996 -159.566626 
L 195.110708 -156.715593 
L 193.28942 -153.787848 
L 191.468132 -150.79587 
L 189.646843 -147.751766 
L 187.825555 -144.667173 
L 186.004267 -141.553172 
L 184.182979 -138.420218 
L 182.36169 -135.278071 
L 180.540402 -132.135753 
L 178.719114 -129.001512 
L 176.897825 -125.882798 
L 175.076537 -122.78626 
L 173.255249 -119.717764 
L 171.433961 -116.682411 
L 169.612672 -113.684588 
L 167.791384 -110.728025 
L 165.970096 -107.815859 
L 164.148808 -104.950723 
L 162.327519 -102.134827 
L 160.506231 -99.37005 
L 158.684943 -96.658032 
L 156.863655 -94.000264 
L 155.042366 -91.398163 
L 153.221078 -88.853152 
L 151.39979 -86.366711 
L 149.578502 -83.940428 
L 147.757213 -81.576024 
L 145.935925 -79.275366 
L 144.114637 -77.040464 
L 142.293349 -74.873451 
L 140.47206 -72.776547 
L 138.650772 -70.752016 
L 136.829484 -68.802109 
L 135.008196 -66.929004 
L 133.186907 -65.134737 
L 131.365619 -63.421142 
L 129.544331 -61.789779 
L 127.723042 -60.241885 
L 125.901754 -58.778317 
L 124.080466 -57.399514 
L 122.259178 -56.105461 
L 120.437889 -54.89568 
L 118.616601 -53.769211 
L 116.795313 -52.724629 
L 114.974025 -51.760052 
L 113.152736 -50.873172 
L 111.331448 -50.061289 
L 109.51016 -49.321358 
L 107.688872 -48.650036 
L 105.867583 -48.043733 
L 104.046295 -47.498675 
L 102.225007 -47.010953 
L 100.403719 -46.576585 
L 98.58243 -46.191563 
L 96.761142 -45.851907 
L 94.939854 -45.553709 
L 93.118566 -45.293169 
L 91.297277 -45.066637 
L 89.475989 -44.870632 
L 87.654701 -44.701869 
L 85.833413 -44.557277 
L 84.012124 -44.434003 
L 82.190836 -44.329424 
L 80.369548 -44.241145 
L 78.548259 -44.166995 
L 76.726971 -44.105025 
L 74.905683 -44.053492 
L 73.084395 -44.010853 
L 71.263106 -43.975749 
L 69.441818 -43.946996 
z
" style="stroke: #1f77b4"/>
    </defs>
    <g clip-path="url(#p35d9415376)">
     <use xlink:href="#m18723b652f" x="0" y="345.6" style="fill: #1f77b4; fill-opacity: 0.25; stroke: #1f77b4"/>
    </g>
   </g>
   <g id="PolyCollection_2">
    <defs>
     <path id="mddba7b924a" d="M 91.164895 -44.068776 
L 91.164895 -43.832 
L 92.429923 -43.832 
L 93.694952 -43.832 
L 94.95998 -43.832 
L 96.225009 -43.832 
L 97.490038 -43.832 
L 98.755066 -43.832 
L 100.020095 -43.832 
L 101.285123 -43.832 
L 102.550152 -43.832 
L 103.81518 -43.832 
L 105.080209 -43.832 
L 106.345238 -43.832 
L 107.610266 -43.832 
L 108.875295 -43.832 
L 110.140323 -43.832 
L 111.405352 -43.832 
L 112.67038 -43.832 
L 113.935409 -43.832 
L 115.200438 -43.832 
L 116.465466 -43.832 
L 117.730495 -43.832 
L 118.995523 -43.832 
L 120.260552 -43.832 
L 121.52558 -43.832 
L 122.790609 -43.832 
L 124.055638 -43.832 
L 125.320666 -43.832 
L 126.585695 -43.832 
L 127.850723 -43.832 
L 129.115752 -43.832 
L 130.38078 -43.832 
L 131.645809 -43.832 
L 132.910838 -43.832 
L 134.175866 -43.832 
L 135.440895 -43.832 
L 136.705923 -43.832 
L 137.970952 -43.832 
L 139.23598 -43.832 
L 140.501009 -43.832 
L 141.766038 -43.832 
L 143.031066 -43.832 
L 144.296095 -43.832 
L 145.561123 -43.832 
L 146.826152 -43.832 
L 148.09118 -43.832 
L 149.356209 -43.832 
L 150.621238 -43.832 
L 151.886266 -43.832 
L 153.151295 -43.832 
L 154.416323 -43.832 
L 155.681352 -43.832 
L 156.94638 -43.832 
L 158.211409 -43.832 
L 159.476438 -43.832 
L 160.741466 -43.832 
L 162.006495 -43.832 
L 163.271523 -43.832 
L 164.536552 -43.832 
L 165.80158 -43.832 
L 167.066609 -43.832 
L 168.331638 -43.832 
L 169.596666 -43.832 
L 170.861695 -43.832 
L 172.126723 -43.832 
L 173.391752 -43.832 
L 174.65678 -43.832 
L 175.921809 -43.832 
L 177.186838 -43.832 
L 178.451866 -43.832 
L 179.716895 -43.832 
L 180.981923 -43.832 
L 182.246952 -43.832 
L 183.51198 -43.832 
L 184.777009 -43.832 
L 186.042038 -43.832 
L 187.307066 -43.832 
L 188.572095 -43.832 
L 189.837123 -43.832 
L 191.102152 -43.832 
L 192.36718 -43.832 
L 193.632209 -43.832 
L 194.897238 -43.832 
L 196.162266 -43.832 
L 197.427295 -43.832 
L 198.692323 -43.832 
L 199.957352 -43.832 
L 201.22238 -43.832 
L 202.487409 -43.832 
L 203.752438 -43.832 
L 205.017466 -43.832 
L 206.282495 -43.832 
L 207.547523 -43.832 
L 208.812552 -43.832 
L 210.07758 -43.832 
L 211.342609 -43.832 
L 212.607638 -43.832 
L 213.872666 -43.832 
L 215.137695 -43.832 
L 216.402723 -43.832 
L 217.667752 -43.832 
L 218.93278 -43.832 
L 220.197809 -43.832 
L 221.462838 -43.832 
L 222.727866 -43.832 
L 223.992895 -43.832 
L 225.257923 -43.832 
L 226.522952 -43.832 
L 227.78798 -43.832 
L 229.053009 -43.832 
L 230.318038 -43.832 
L 231.583066 -43.832 
L 232.848095 -43.832 
L 234.113123 -43.832 
L 235.378152 -43.832 
L 236.64318 -43.832 
L 237.908209 -43.832 
L 239.173238 -43.832 
L 240.438266 -43.832 
L 241.703295 -43.832 
L 242.968323 -43.832 
L 244.233352 -43.832 
L 245.49838 -43.832 
L 246.763409 -43.832 
L 248.028438 -43.832 
L 249.293466 -43.832 
L 250.558495 -43.832 
L 251.823523 -43.832 
L 253.088552 -43.832 
L 254.35358 -43.832 
L 255.618609 -43.832 
L 256.883638 -43.832 
L 258.148666 -43.832 
L 259.413695 -43.832 
L 260.678723 -43.832 
L 261.943752 -43.832 
L 263.20878 -43.832 
L 264.473809 -43.832 
L 265.738838 -43.832 
L 267.003866 -43.832 
L 268.268895 -43.832 
L 269.533923 -43.832 
L 270.798952 -43.832 
L 272.06398 -43.832 
L 273.329009 -43.832 
L 274.594038 -43.832 
L 275.859066 -43.832 
L 277.124095 -43.832 
L 278.389123 -43.832 
L 279.654152 -43.832 
L 280.91918 -43.832 
L 282.184209 -43.832 
L 283.449238 -43.832 
L 284.714266 -43.832 
L 285.979295 -43.832 
L 287.244323 -43.832 
L 288.509352 -43.832 
L 289.77438 -43.832 
L 291.039409 -43.832 
L 292.304438 -43.832 
L 293.569466 -43.832 
L 294.834495 -43.832 
L 296.099523 -43.832 
L 297.364552 -43.832 
L 298.62958 -43.832 
L 299.894609 -43.832 
L 301.159638 -43.832 
L 302.424666 -43.832 
L 303.689695 -43.832 
L 304.954723 -43.832 
L 306.219752 -43.832 
L 307.48478 -43.832 
L 308.749809 -43.832 
L 310.014838 -43.832 
L 311.279866 -43.832 
L 312.544895 -43.832 
L 313.809923 -43.832 
L 315.074952 -43.832 
L 316.33998 -43.832 
L 317.605009 -43.832 
L 318.870038 -43.832 
L 320.135066 -43.832 
L 321.400095 -43.832 
L 322.665123 -43.832 
L 323.930152 -43.832 
L 325.19518 -43.832 
L 326.460209 -43.832 
L 327.725238 -43.832 
L 328.990266 -43.832 
L 330.255295 -43.832 
L 331.520323 -43.832 
L 332.785352 -43.832 
L 334.05038 -43.832 
L 335.315409 -43.832 
L 336.580438 -43.832 
L 337.845466 -43.832 
L 339.110495 -43.832 
L 340.375523 -43.832 
L 341.640552 -43.832 
L 342.90558 -43.832 
L 342.90558 -44.184616 
L 342.90558 -44.184616 
L 341.640552 -44.26789 
L 340.375523 -44.368294 
L 339.110495 -44.488728 
L 337.845466 -44.632438 
L 336.580438 -44.803038 
L 335.315409 -45.00451 
L 334.05038 -45.241207 
L 332.785352 -45.517845 
L 331.520323 -45.839489 
L 330.255295 -46.211519 
L 328.990266 -46.6396 
L 327.725238 -47.129622 
L 326.460209 -47.687647 
L 325.19518 -48.319826 
L 323.930152 -49.032323 
L 322.665123 -49.831213 
L 321.400095 -50.722386 
L 320.135066 -51.711434 
L 318.870038 -52.803546 
L 317.605009 -54.003395 
L 316.33998 -55.315037 
L 315.074952 -56.741814 
L 313.809923 -58.286272 
L 312.544895 -59.950098 
L 311.279866 -61.734072 
L 310.014838 -63.638051 
L 308.749809 -65.660975 
L 307.48478 -67.8009 
L 306.219752 -70.055067 
L 304.954723 -72.419994 
L 303.689695 -74.891597 
L 302.424666 -77.465337 
L 301.159638 -80.136383 
L 299.894609 -82.899789 
L 298.62958 -85.750687 
L 297.364552 -88.684467 
L 296.099523 -91.696961 
L 294.834495 -94.784605 
L 293.569466 -97.944582 
L 292.304438 -101.174934 
L 291.039409 -104.474635 
L 289.77438 -107.843632 
L 288.509352 -111.282835 
L 287.244323 -114.794064 
L 285.979295 -118.379959 
L 284.714266 -122.043844 
L 283.449238 -125.789553 
L 282.184209 -129.621236 
L 280.91918 -133.543135 
L 279.654152 -137.559357 
L 278.389123 -141.67363 
L 277.124095 -145.889085 
L 275.859066 -150.208037 
L 274.594038 -154.631799 
L 273.329009 -159.160527 
L 272.06398 -163.793095 
L 270.798952 -168.527018 
L 269.533923 -173.358406 
L 268.268895 -178.281961 
L 267.003866 -183.29101 
L 265.738838 -188.377567 
L 264.473809 -193.532416 
L 263.20878 -198.745216 
L 261.943752 -204.004608 
L 260.678723 -209.298323 
L 259.413695 -214.61329 
L 258.148666 -219.935726 
L 256.883638 -225.251207 
L 255.618609 -230.544729 
L 254.35358 -235.800744 
L 253.088552 -241.003181 
L 251.823523 -246.135465 
L 250.558495 -251.180513 
L 249.293466 -256.120755 
L 248.028438 -260.93815 
L 246.763409 -265.614227 
L 245.49838 -270.130163 
L 244.233352 -274.466882 
L 242.968323 -278.605207 
L 241.703295 -282.526047 
L 240.438266 -286.210631 
L 239.173238 -289.640778 
L 237.908209 -292.799203 
L 236.64318 -295.669845 
L 235.378152 -298.238197 
L 234.113123 -300.491649 
L 232.848095 -302.419795 
L 231.583066 -304.014715 
L 230.318038 -305.271199 
L 229.053009 -306.186915 
L 227.78798 -306.762493 
L 226.522952 -307.001524 
L 225.257923 -306.910476 
L 223.992895 -306.498515 
L 222.727866 -305.777244 
L 221.462838 -304.760361 
L 220.197809 -303.463262 
L 218.93278 -301.902583 
L 217.667752 -300.095731 
L 216.402723 -298.060394 
L 215.137695 -295.814073 
L 213.872666 -293.373645 
L 212.607638 -290.754985 
L 211.342609 -287.97266 
L 210.07758 -285.039702 
L 208.812552 -281.967482 
L 207.547523 -278.765679 
L 206.282495 -275.44234 
L 205.017466 -272.004041 
L 203.752438 -268.456112 
L 202.487409 -264.802941 
L 201.22238 -261.048317 
L 199.957352 -257.195791 
L 198.692323 -253.249056 
L 197.427295 -249.212297 
L 196.162266 -245.090511 
L 194.897238 -240.889763 
L 193.632209 -236.617383 
L 192.36718 -232.282073 
L 191.102152 -227.893932 
L 189.837123 -223.464394 
L 188.572095 -219.006075 
L 187.307066 -214.53255 
L 186.042038 -210.058063 
L 184.777009 -205.597181 
L 183.51198 -201.164422 
L 182.246952 -196.773861 
L 180.981923 -192.438745 
L 179.716895 -188.171124 
L 178.451866 -183.981527 
L 177.186838 -179.878684 
L 175.921809 -175.869318 
L 174.65678 -171.958008 
L 173.391752 -168.147125 
L 172.126723 -164.436853 
L 170.861695 -160.825281 
L 169.596666 -157.308566 
L 168.331638 -153.881157 
L 167.066609 -150.536069 
L 165.80158 -147.265198 
L 164.536552 -144.059659 
L 163.271523 -140.91013 
L 162.006495 -137.807208 
L 160.741466 -134.741738 
L 159.476438 -131.705122 
L 158.211409 -128.689596 
L 156.94638 -125.688463 
L 155.681352 -122.69628 
L 154.416323 -119.708998 
L 153.151295 -116.724047 
L 151.886266 -113.740374 
L 150.621238 -110.758435 
L 149.356209 -107.780141 
L 148.09118 -104.808761 
L 146.826152 -101.848805 
L 145.561123 -98.905864 
L 144.296095 -95.98644 
L 143.031066 -93.097758 
L 141.766038 -90.247571 
L 140.501009 -87.443961 
L 139.23598 -84.695145 
L 137.970952 -82.009285 
L 136.705923 -79.394317 
L 135.440895 -76.857786 
L 134.175866 -74.406704 
L 132.910838 -72.047428 
L 131.645809 -69.785557 
L 130.38078 -67.625851 
L 129.115752 -65.572175 
L 127.850723 -63.627459 
L 126.585695 -61.793687 
L 125.320666 -60.071896 
L 124.055638 -58.462201 
L 122.790609 -56.963836 
L 121.52558 -55.575204 
L 120.260552 -54.29394 
L 118.995523 -53.116995 
L 117.730495 -52.040707 
L 116.465466 -51.060898 
L 115.200438 -50.172957 
L 113.935409 -49.371935 
L 112.67038 -48.652635 
L 111.405352 -48.009693 
L 110.140323 -47.437663 
L 108.875295 -46.931091 
L 107.610266 -46.484584 
L 106.345238 -46.092866 
L 105.080209 -45.750834 
L 103.81518 -45.453599 
L 102.550152 -45.196521 
L 101.285123 -44.975235 
L 100.020095 -44.785669 
L 98.755066 -44.624055 
L 97.490038 -44.486934 
L 96.225009 -44.371155 
L 94.95998 -44.273871 
L 93.694952 -44.192523 
L 92.429923 -44.124831 
L 91.164895 -44.068776 
z
" style="stroke: #ff7f0e"/>
    </defs>
    <g clip-path="url(#p35d9415376)">
     <use xlink:href="#mddba7b924a" x="0" y="345.6" style="fill: #ff7f0e; fill-opacity: 0.25; stroke: #ff7f0e"/>
    </g>
   </g>
   <g id="matplotlib.axis_1">
    <g id="xtick_1">
     <g id="line2d_1">
      <defs>
       <path id="mf1c83ed3e8" d="M 0 0 
L 0 3.5 
" style="stroke: #262626; stroke-width: 0.8"/>
      </defs>
      <g>
       <use xlink:href="#mf1c83ed3e8" x="121.155863" y="301.768" style="fill: #262626; stroke: #262626; stroke-width: 0.8"/>
      </g>
     </g>
     <g id="text_1">
      <!-- $\mathdefault{10^{-1}}$ -->
      <g style="fill: #262626" transform="translate(111.405863 316.014875) scale(0.1 -0.1)">
       <defs>
        <path id="LiberationSans-31" d="M 488 0 
L 488 478 
L 1609 478 
L 1609 3866 
L 616 3156 
L 616 3688 
L 1656 4403 
L 2175 4403 
L 2175 478 
L 3247 478 
L 3247 0 
L 488 0 
z
" transform="scale(0.015625)"/>
        <path id="LiberationSans-30" d="M 3309 2203 
Q 3309 1100 2920 518 
Q 2531 -63 1772 -63 
Q 1013 -63 631 515 
Q 250 1094 250 2203 
Q 250 3338 620 3903 
Q 991 4469 1791 4469 
Q 2569 4469 2939 3897 
Q 3309 3325 3309 2203 
z
M 2738 2203 
Q 2738 3156 2517 3584 
Q 2297 4013 1791 4013 
Q 1272 4013 1045 3591 
Q 819 3169 819 2203 
Q 819 1266 1048 831 
Q 1278 397 1778 397 
Q 2275 397 2506 840 
Q 2738 1284 2738 2203 
z
" transform="scale(0.015625)"/>
        <path id="LiberationSans-2212" d="M 316 1900 
L 316 2356 
L 3425 2356 
L 3425 1900 
L 316 1900 
z
" transform="scale(0.015625)"/>
       </defs>
       <use xlink:href="#LiberationSans-31" transform="translate(0 0.8625)"/>
       <use xlink:href="#LiberationSans-30" transform="translate(55.615234 0.8625)"/>
       <use xlink:href="#LiberationSans-2212" transform="translate(112.154961 37.842188) scale(0.7)"/>
       <use xlink:href="#LiberationSans-31" transform="translate(153.033867 37.842188) scale(0.7)"/>
      </g>
     </g>
    </g>
    <g id="xtick_2">
     <g id="line2d_2">
      <g>
       <use xlink:href="#mf1c83ed3e8" x="191.177592" y="301.768" style="fill: #262626; stroke: #262626; stroke-width: 0.8"/>
      </g>
     </g>
     <g id="text_2">
      <!-- $\mathdefault{10^{1}}$ -->
      <g style="fill: #262626" transform="translate(183.477592 316.014875) scale(0.1 -0.1)">
       <use xlink:href="#LiberationSans-31" transform="translate(0 0.8625)"/>
       <use xlink:href="#LiberationSans-30" transform="translate(55.615234 0.8625)"/>
       <use xlink:href="#LiberationSans-31" transform="translate(112.154961 37.842188) scale(0.7)"/>
      </g>
     </g>
    </g>
    <g id="xtick_3">
     <g id="line2d_3">
      <g>
       <use xlink:href="#mf1c83ed3e8" x="261.19932" y="301.768" style="fill: #262626; stroke: #262626; stroke-width: 0.8"/>
      </g>
     </g>
     <g id="text_3">
      <!-- $\mathdefault{10^{3}}$ -->
      <g style="fill: #262626" transform="translate(253.49932 316.014875) scale(0.1 -0.1)">
       <defs>
        <path id="LiberationSans-33" d="M 3278 1216 
Q 3278 606 2890 271 
Q 2503 -63 1784 -63 
Q 1116 -63 717 239 
Q 319 541 244 1131 
L 825 1184 
Q 938 403 1784 403 
Q 2209 403 2451 612 
Q 2694 822 2694 1234 
Q 2694 1594 2417 1795 
Q 2141 1997 1619 1997 
L 1300 1997 
L 1300 2484 
L 1606 2484 
Q 2069 2484 2323 2686 
Q 2578 2888 2578 3244 
Q 2578 3597 2370 3801 
Q 2163 4006 1753 4006 
Q 1381 4006 1151 3815 
Q 922 3625 884 3278 
L 319 3322 
Q 381 3863 767 4166 
Q 1153 4469 1759 4469 
Q 2422 4469 2789 4161 
Q 3156 3853 3156 3303 
Q 3156 2881 2920 2617 
Q 2684 2353 2234 2259 
L 2234 2247 
Q 2728 2194 3003 1916 
Q 3278 1638 3278 1216 
z
" transform="scale(0.015625)"/>
       </defs>
       <use xlink:href="#LiberationSans-31" transform="translate(0 0.140625)"/>
       <use xlink:href="#LiberationSans-30" transform="translate(55.615234 0.140625)"/>
       <use xlink:href="#LiberationSans-33" transform="translate(112.154961 37.120312) scale(0.7)"/>
      </g>
     </g>
    </g>
    <g id="xtick_4">
     <g id="line2d_4">
      <g>
       <use xlink:href="#mf1c83ed3e8" x="331.221049" y="301.768" style="fill: #262626; stroke: #262626; stroke-width: 0.8"/>
      </g>
     </g>
     <g id="text_4">
      <!-- $\mathdefault{10^{5}}$ -->
      <g style="fill: #262626" transform="translate(323.521049 316.014875) scale(0.1 -0.1)">
       <defs>
        <path id="LiberationSans-35" d="M 3291 1434 
Q 3291 738 2877 337 
Q 2463 -63 1728 -63 
Q 1113 -63 734 206 
Q 356 475 256 984 
L 825 1050 
Q 1003 397 1741 397 
Q 2194 397 2450 670 
Q 2706 944 2706 1422 
Q 2706 1838 2448 2094 
Q 2191 2350 1753 2350 
Q 1525 2350 1328 2278 
Q 1131 2206 934 2034 
L 384 2034 
L 531 4403 
L 3034 4403 
L 3034 3925 
L 1044 3925 
L 959 2528 
Q 1325 2809 1869 2809 
Q 2519 2809 2905 2428 
Q 3291 2047 3291 1434 
z
" transform="scale(0.015625)"/>
       </defs>
       <use xlink:href="#LiberationSans-31" transform="translate(0 0.8625)"/>
       <use xlink:href="#LiberationSans-30" transform="translate(55.615234 0.8625)"/>
       <use xlink:href="#LiberationSans-35" transform="translate(112.154961 37.842188) scale(0.7)"/>
      </g>
     </g>
    </g>
    <g id="xtick_5">
     <g id="line2d_5">
      <g>
       <use xlink:href="#mf1c83ed3e8" x="401.242778" y="301.768" style="fill: #262626; stroke: #262626; stroke-width: 0.8"/>
      </g>
     </g>
     <g id="text_5">
      <!-- $\mathdefault{10^{7}}$ -->
      <g style="fill: #262626" transform="translate(393.542778 316.014875) scale(0.1 -0.1)">
       <defs>
        <path id="LiberationSans-37" d="M 3238 3947 
Q 2563 2916 2284 2331 
Q 2006 1747 1867 1178 
Q 1728 609 1728 0 
L 1141 0 
Q 1141 844 1498 1776 
Q 1856 2709 2694 3925 
L 328 3925 
L 328 4403 
L 3238 4403 
L 3238 3947 
z
" transform="scale(0.015625)"/>
       </defs>
       <use xlink:href="#LiberationSans-31" transform="translate(0 0.8625)"/>
       <use xlink:href="#LiberationSans-30" transform="translate(55.615234 0.8625)"/>
       <use xlink:href="#LiberationSans-37" transform="translate(112.154961 37.842188) scale(0.7)"/>
      </g>
     </g>
    </g>
    <g id="text_6">
     <!-- Budget_M -->
     <g style="fill: #262626" transform="translate(227.868594 329.33675) scale(0.1 -0.1)">
      <defs>
       <path id="LiberationSans-42" d="M 3931 1241 
Q 3931 653 3503 326 
Q 3075 0 2313 0 
L 525 0 
L 525 4403 
L 2125 4403 
Q 3675 4403 3675 3334 
Q 3675 2944 3456 2678 
Q 3238 2413 2838 2322 
Q 3363 2259 3647 1970 
Q 3931 1681 3931 1241 
z
M 3075 3263 
Q 3075 3619 2831 3772 
Q 2588 3925 2125 3925 
L 1122 3925 
L 1122 2531 
L 2125 2531 
Q 2603 2531 2839 2711 
Q 3075 2891 3075 3263 
z
M 3328 1288 
Q 3328 2066 2234 2066 
L 1122 2066 
L 1122 478 
L 2281 478 
Q 2828 478 3078 681 
Q 3328 884 3328 1288 
z
" transform="scale(0.015625)"/>
       <path id="LiberationSans-75" d="M 981 3381 
L 981 1238 
Q 981 903 1047 718 
Q 1113 534 1256 453 
Q 1400 372 1678 372 
Q 2084 372 2318 650 
Q 2553 928 2553 1422 
L 2553 3381 
L 3116 3381 
L 3116 722 
Q 3116 131 3134 0 
L 2603 0 
Q 2600 16 2597 84 
Q 2594 153 2589 242 
Q 2584 331 2578 578 
L 2569 578 
Q 2375 228 2120 82 
Q 1866 -63 1488 -63 
Q 931 -63 673 214 
Q 416 491 416 1128 
L 416 3381 
L 981 3381 
z
" transform="scale(0.015625)"/>
       <path id="LiberationSans-64" d="M 2566 544 
Q 2409 219 2151 78 
Q 1894 -63 1513 -63 
Q 872 -63 570 368 
Q 269 800 269 1675 
Q 269 3444 1513 3444 
Q 1897 3444 2153 3303 
Q 2409 3163 2566 2856 
L 2572 2856 
L 2566 3234 
L 2566 4638 
L 3128 4638 
L 3128 697 
Q 3128 169 3147 0 
L 2609 0 
Q 2600 50 2589 231 
Q 2578 413 2578 544 
L 2566 544 
z
M 859 1694 
Q 859 984 1046 678 
Q 1234 372 1656 372 
Q 2134 372 2350 703 
Q 2566 1034 2566 1731 
Q 2566 2403 2350 2715 
Q 2134 3028 1663 3028 
Q 1238 3028 1048 2714 
Q 859 2400 859 1694 
z
" transform="scale(0.015625)"/>
       <path id="LiberationSans-67" d="M 1713 -1328 
Q 1159 -1328 831 -1111 
Q 503 -894 409 -494 
L 975 -413 
Q 1031 -647 1223 -773 
Q 1416 -900 1728 -900 
Q 2569 -900 2569 84 
L 2569 628 
L 2563 628 
Q 2403 303 2125 139 
Q 1847 -25 1475 -25 
Q 853 -25 561 387 
Q 269 800 269 1684 
Q 269 2581 583 3007 
Q 897 3434 1538 3434 
Q 1897 3434 2161 3270 
Q 2425 3106 2569 2803 
L 2575 2803 
Q 2575 2897 2587 3128 
Q 2600 3359 2613 3381 
L 3147 3381 
Q 3128 3213 3128 2681 
L 3128 97 
Q 3128 -1328 1713 -1328 
z
M 2569 1691 
Q 2569 2103 2456 2401 
Q 2344 2700 2139 2858 
Q 1934 3016 1675 3016 
Q 1244 3016 1047 2703 
Q 850 2391 850 1691 
Q 850 997 1034 694 
Q 1219 391 1666 391 
Q 1931 391 2137 547 
Q 2344 703 2456 995 
Q 2569 1288 2569 1691 
z
" transform="scale(0.015625)"/>
       <path id="LiberationSans-65" d="M 863 1572 
Q 863 991 1103 675 
Q 1344 359 1806 359 
Q 2172 359 2392 506 
Q 2613 653 2691 878 
L 3184 738 
Q 2881 -63 1806 -63 
Q 1056 -63 664 384 
Q 272 831 272 1713 
Q 272 2550 664 2997 
Q 1056 3444 1784 3444 
Q 3275 3444 3275 1647 
L 3275 1572 
L 863 1572 
z
M 2694 2003 
Q 2647 2538 2422 2783 
Q 2197 3028 1775 3028 
Q 1366 3028 1127 2754 
Q 888 2481 869 2003 
L 2694 2003 
z
" transform="scale(0.015625)"/>
       <path id="LiberationSans-74" d="M 1731 25 
Q 1453 -50 1163 -50 
Q 488 -50 488 716 
L 488 2972 
L 97 2972 
L 97 3381 
L 509 3381 
L 675 4138 
L 1050 4138 
L 1050 3381 
L 1675 3381 
L 1675 2972 
L 1050 2972 
L 1050 838 
Q 1050 594 1129 495 
Q 1209 397 1406 397 
Q 1519 397 1731 441 
L 1731 25 
z
" transform="scale(0.015625)"/>
       <path id="LiberationSans-5f" d="M -97 -1272 
L -97 -866 
L 3631 -866 
L 3631 -1272 
L -97 -1272 
z
" transform="scale(0.015625)"/>
       <path id="LiberationSans-4d" d="M 4269 0 
L 4269 2938 
Q 4269 3425 4297 3875 
Q 4144 3316 4022 3000 
L 2884 0 
L 2466 0 
L 1313 3000 
L 1138 3531 
L 1034 3875 
L 1044 3528 
L 1056 2938 
L 1056 0 
L 525 0 
L 525 4403 
L 1309 4403 
L 2481 1350 
Q 2544 1166 2601 955 
Q 2659 744 2678 650 
Q 2703 775 2783 1029 
Q 2863 1284 2891 1350 
L 4041 4403 
L 4806 4403 
L 4806 0 
L 4269 0 
z
" transform="scale(0.015625)"/>
      </defs>
      <use xlink:href="#LiberationSans-42"/>
      <use xlink:href="#LiberationSans-75" x="66.699219"/>
      <use xlink:href="#LiberationSans-64" x="122.314453"/>
      <use xlink:href="#LiberationSans-67" x="177.929688"/>
      <use xlink:href="#LiberationSans-65" x="233.544922"/>
      <use xlink:href="#LiberationSans-74" x="289.160156"/>
      <use xlink:href="#LiberationSans-5f" x="316.943359"/>
      <use xlink:href="#LiberationSans-4d" x="372.558594"/>
     </g>
    </g>
   </g>
   <g id="matplotlib.axis_2">
    <g id="ytick_1">
     <g id="line2d_6">
      <defs>
       <path id="m3f5104ffc4" d="M 0 0 
L -3.5 0 
" style="stroke: #262626; stroke-width: 0.8"/>
      </defs>
      <g>
       <use xlink:href="#m3f5104ffc4" x="51.32" y="301.768" style="fill: #262626; stroke: #262626; stroke-width: 0.8"/>
      </g>
     </g>
     <g id="text_7">
      <!-- 0.00 -->
      <g style="fill: #262626" transform="translate(24.859063 305.391437) scale(0.1 -0.1)">
       <defs>
        <path id="LiberationSans-2e" d="M 584 0 
L 584 684 
L 1194 684 
L 1194 0 
L 584 0 
z
" transform="scale(0.015625)"/>
       </defs>
       <use xlink:href="#LiberationSans-30"/>
       <use xlink:href="#LiberationSans-2e" x="55.615234"/>
       <use xlink:href="#LiberationSans-30" x="83.398438"/>
       <use xlink:href="#LiberationSans-30" x="139.013672"/>
      </g>
     </g>
    </g>
    <g id="ytick_2">
     <g id="line2d_7">
      <g>
       <use xlink:href="#m3f5104ffc4" x="51.32" y="264.266418" style="fill: #262626; stroke: #262626; stroke-width: 0.8"/>
      </g>
     </g>
     <g id="text_8">
      <!-- 0.05 -->
      <g style="fill: #262626" transform="translate(24.859063 267.889856) scale(0.1 -0.1)">
       <use xlink:href="#LiberationSans-30"/>
       <use xlink:href="#LiberationSans-2e" x="55.615234"/>
       <use xlink:href="#LiberationSans-30" x="83.398438"/>
       <use xlink:href="#LiberationSans-35" x="139.013672"/>
      </g>
     </g>
    </g>
    <g id="ytick_3">
     <g id="line2d_8">
      <g>
       <use xlink:href="#m3f5104ffc4" x="51.32" y="226.764836" style="fill: #262626; stroke: #262626; stroke-width: 0.8"/>
      </g>
     </g>
     <g id="text_9">
      <!-- 0.10 -->
      <g style="fill: #262626" transform="translate(24.859063 230.388274) scale(0.1 -0.1)">
       <use xlink:href="#LiberationSans-30"/>
       <use xlink:href="#LiberationSans-2e" x="55.615234"/>
       <use xlink:href="#LiberationSans-31" x="83.398438"/>
       <use xlink:href="#LiberationSans-30" x="139.013672"/>
      </g>
     </g>
    </g>
    <g id="ytick_4">
     <g id="line2d_9">
      <g>
       <use xlink:href="#m3f5104ffc4" x="51.32" y="189.263255" style="fill: #262626; stroke: #262626; stroke-width: 0.8"/>
      </g>
     </g>
     <g id="text_10">
      <!-- 0.15 -->
      <g style="fill: #262626" transform="translate(24.859063 192.886692) scale(0.1 -0.1)">
       <use xlink:href="#LiberationSans-30"/>
       <use xlink:href="#LiberationSans-2e" x="55.615234"/>
       <use xlink:href="#LiberationSans-31" x="83.398438"/>
       <use xlink:href="#LiberationSans-35" x="139.013672"/>
      </g>
     </g>
    </g>
    <g id="ytick_5">
     <g id="line2d_10">
      <g>
       <use xlink:href="#m3f5104ffc4" x="51.32" y="151.761673" style="fill: #262626; stroke: #262626; stroke-width: 0.8"/>
      </g>
     </g>
     <g id="text_11">
      <!-- 0.20 -->
      <g style="fill: #262626" transform="translate(24.859063 155.38511) scale(0.1 -0.1)">
       <defs>
        <path id="LiberationSans-32" d="M 322 0 
L 322 397 
Q 481 763 711 1042 
Q 941 1322 1194 1548 
Q 1447 1775 1695 1969 
Q 1944 2163 2144 2356 
Q 2344 2550 2467 2762 
Q 2591 2975 2591 3244 
Q 2591 3606 2378 3806 
Q 2166 4006 1788 4006 
Q 1428 4006 1195 3811 
Q 963 3616 922 3263 
L 347 3316 
Q 409 3844 795 4156 
Q 1181 4469 1788 4469 
Q 2453 4469 2811 4155 
Q 3169 3841 3169 3263 
Q 3169 3006 3051 2753 
Q 2934 2500 2703 2247 
Q 2472 1994 1819 1463 
Q 1459 1169 1246 933 
Q 1034 697 941 478 
L 3238 478 
L 3238 0 
L 322 0 
z
" transform="scale(0.015625)"/>
       </defs>
       <use xlink:href="#LiberationSans-30"/>
       <use xlink:href="#LiberationSans-2e" x="55.615234"/>
       <use xlink:href="#LiberationSans-32" x="83.398438"/>
       <use xlink:href="#LiberationSans-30" x="139.013672"/>
      </g>
     </g>
    </g>
    <g id="ytick_6">
     <g id="line2d_11">
      <g>
       <use xlink:href="#m3f5104ffc4" x="51.32" y="114.260091" style="fill: #262626; stroke: #262626; stroke-width: 0.8"/>
      </g>
     </g>
     <g id="text_12">
      <!-- 0.25 -->
      <g style="fill: #262626" transform="translate(24.859063 117.883528) scale(0.1 -0.1)">
       <use xlink:href="#LiberationSans-30"/>
       <use xlink:href="#LiberationSans-2e" x="55.615234"/>
       <use xlink:href="#LiberationSans-32" x="83.398438"/>
       <use xlink:href="#LiberationSans-35" x="139.013672"/>
      </g>
     </g>
    </g>
    <g id="ytick_7">
     <g id="line2d_12">
      <g>
       <use xlink:href="#m3f5104ffc4" x="51.32" y="76.758509" style="fill: #262626; stroke: #262626; stroke-width: 0.8"/>
      </g>
     </g>
     <g id="text_13">
      <!-- 0.30 -->
      <g style="fill: #262626" transform="translate(24.859063 80.381947) scale(0.1 -0.1)">
       <use xlink:href="#LiberationSans-30"/>
       <use xlink:href="#LiberationSans-2e" x="55.615234"/>
       <use xlink:href="#LiberationSans-33" x="83.398438"/>
       <use xlink:href="#LiberationSans-30" x="139.013672"/>
      </g>
     </g>
    </g>
    <g id="ytick_8">
     <g id="line2d_13">
      <g>
       <use xlink:href="#m3f5104ffc4" x="51.32" y="39.256927" style="fill: #262626; stroke: #262626; stroke-width: 0.8"/>
      </g>
     </g>
     <g id="text_14">
      <!-- 0.35 -->
      <g style="fill: #262626" transform="translate(24.859063 42.880365) scale(0.1 -0.1)">
       <use xlink:href="#LiberationSans-30"/>
       <use xlink:href="#LiberationSans-2e" x="55.615234"/>
       <use xlink:href="#LiberationSans-33" x="83.398438"/>
       <use xlink:href="#LiberationSans-35" x="139.013672"/>
      </g>
     </g>
    </g>
    <g id="text_15">
     <!-- Density -->
     <g style="fill: #262626" transform="translate(18.784063 180.275875) rotate(-90) scale(0.1 -0.1)">
      <defs>
       <path id="LiberationSans-44" d="M 4316 2247 
Q 4316 1566 4050 1055 
Q 3784 544 3296 272 
Q 2809 0 2172 0 
L 525 0 
L 525 4403 
L 1981 4403 
Q 3100 4403 3708 3842 
Q 4316 3281 4316 2247 
z
M 3716 2247 
Q 3716 3066 3267 3495 
Q 2819 3925 1969 3925 
L 1122 3925 
L 1122 478 
L 2103 478 
Q 2588 478 2955 690 
Q 3322 903 3519 1303 
Q 3716 1703 3716 2247 
z
" transform="scale(0.015625)"/>
       <path id="LiberationSans-6e" d="M 2578 0 
L 2578 2144 
Q 2578 2478 2512 2662 
Q 2447 2847 2303 2928 
Q 2159 3009 1881 3009 
Q 1475 3009 1240 2731 
Q 1006 2453 1006 1959 
L 1006 0 
L 444 0 
L 444 2659 
Q 444 3250 425 3381 
L 956 3381 
Q 959 3366 962 3297 
Q 966 3228 970 3139 
Q 975 3050 981 2803 
L 991 2803 
Q 1184 3153 1439 3298 
Q 1694 3444 2072 3444 
Q 2628 3444 2886 3167 
Q 3144 2891 3144 2253 
L 3144 0 
L 2578 0 
z
" transform="scale(0.015625)"/>
       <path id="LiberationSans-73" d="M 2969 934 
Q 2969 456 2608 196 
Q 2247 -63 1597 -63 
Q 966 -63 623 145 
Q 281 353 178 794 
L 675 891 
Q 747 619 972 492 
Q 1197 366 1597 366 
Q 2025 366 2223 497 
Q 2422 628 2422 891 
Q 2422 1091 2284 1216 
Q 2147 1341 1841 1422 
L 1438 1528 
Q 953 1653 748 1773 
Q 544 1894 428 2066 
Q 313 2238 313 2488 
Q 313 2950 642 3192 
Q 972 3434 1603 3434 
Q 2163 3434 2492 3237 
Q 2822 3041 2909 2606 
L 2403 2544 
Q 2356 2769 2151 2889 
Q 1947 3009 1603 3009 
Q 1222 3009 1040 2893 
Q 859 2778 859 2544 
Q 859 2400 934 2306 
Q 1009 2213 1156 2147 
Q 1303 2081 1775 1966 
Q 2222 1853 2419 1758 
Q 2616 1663 2730 1547 
Q 2844 1431 2906 1279 
Q 2969 1128 2969 934 
z
" transform="scale(0.015625)"/>
       <path id="LiberationSans-69" d="M 428 4100 
L 428 4638 
L 991 4638 
L 991 4100 
L 428 4100 
z
M 428 0 
L 428 3381 
L 991 3381 
L 991 0 
L 428 0 
z
" transform="scale(0.015625)"/>
       <path id="LiberationSans-79" d="M 597 -1328 
Q 366 -1328 209 -1294 
L 209 -872 
Q 328 -891 472 -891 
Q 997 -891 1303 -119 
L 1356 16 
L 16 3381 
L 616 3381 
L 1328 1513 
Q 1344 1469 1366 1408 
Q 1388 1347 1506 1000 
Q 1625 653 1634 613 
L 1853 1228 
L 2594 3381 
L 3188 3381 
L 1888 0 
Q 1678 -541 1497 -805 
Q 1316 -1069 1095 -1198 
Q 875 -1328 597 -1328 
z
" transform="scale(0.015625)"/>
      </defs>
      <use xlink:href="#LiberationSans-44"/>
      <use xlink:href="#LiberationSans-65" x="72.216797"/>
      <use xlink:href="#LiberationSans-6e" x="127.832031"/>
      <use xlink:href="#LiberationSans-73" x="183.447266"/>
      <use xlink:href="#LiberationSans-69" x="233.447266"/>
      <use xlink:href="#LiberationSans-74" x="255.664062"/>
      <use xlink:href="#LiberationSans-79" x="283.447266"/>
     </g>
    </g>
   </g>
   <g id="patch_3">
    <path d="M 51.32 301.768 
L 51.32 25.44 
" style="fill: none; stroke: #262626; stroke-width: 0.8; stroke-linejoin: miter; stroke-linecap: square"/>
   </g>
   <g id="patch_4">
    <path d="M 450 301.768 
L 450 25.44 
" style="fill: none; stroke: #262626; stroke-width: 0.8; stroke-linejoin: miter; stroke-linecap: square"/>
   </g>
   <g id="patch_5">
    <path d="M 51.32 301.768 
L 450 301.768 
" style="fill: none; stroke: #262626; stroke-width: 0.8; stroke-linejoin: miter; stroke-linecap: square"/>
   </g>
   <g id="patch_6">
    <path d="M 51.32 25.44 
L 450 25.44 
" style="fill: none; stroke: #262626; stroke-width: 0.8; stroke-linejoin: miter; stroke-linecap: square"/>
   </g>
   <g id="text_16">
    <!-- Brain project budgets vs. all megaprojects -->
    <g style="fill: #262626" transform="translate(139.2775 19.44) scale(0.12 -0.12)">
     <defs>
      <path id="LiberationSans-72" d="M 444 0 
L 444 2594 
Q 444 2950 425 3381 
L 956 3381 
Q 981 2806 981 2691 
L 994 2691 
Q 1128 3125 1303 3284 
Q 1478 3444 1797 3444 
Q 1909 3444 2025 3413 
L 2025 2897 
Q 1913 2928 1725 2928 
Q 1375 2928 1190 2626 
Q 1006 2325 1006 1763 
L 1006 0 
L 444 0 
z
" transform="scale(0.015625)"/>
      <path id="LiberationSans-61" d="M 1294 -63 
Q 784 -63 528 206 
Q 272 475 272 944 
Q 272 1469 617 1750 
Q 963 2031 1731 2050 
L 2491 2063 
L 2491 2247 
Q 2491 2659 2316 2837 
Q 2141 3016 1766 3016 
Q 1388 3016 1216 2887 
Q 1044 2759 1009 2478 
L 422 2531 
Q 566 3444 1778 3444 
Q 2416 3444 2737 3151 
Q 3059 2859 3059 2306 
L 3059 850 
Q 3059 600 3125 473 
Q 3191 347 3375 347 
Q 3456 347 3559 369 
L 3559 19 
Q 3347 -31 3125 -31 
Q 2813 -31 2670 133 
Q 2528 297 2509 647 
L 2491 647 
Q 2275 259 1989 98 
Q 1703 -63 1294 -63 
z
M 1422 359 
Q 1731 359 1972 500 
Q 2213 641 2352 886 
Q 2491 1131 2491 1391 
L 2491 1669 
L 1875 1656 
Q 1478 1650 1273 1575 
Q 1069 1500 959 1344 
Q 850 1188 850 934 
Q 850 659 998 509 
Q 1147 359 1422 359 
z
" transform="scale(0.015625)"/>
      <path id="LiberationSans-20" transform="scale(0.015625)"/>
      <path id="LiberationSans-70" d="M 3291 1706 
Q 3291 -63 2047 -63 
Q 1266 -63 997 525 
L 981 525 
Q 994 500 994 -6 
L 994 -1328 
L 431 -1328 
L 431 2691 
Q 431 3213 413 3381 
L 956 3381 
Q 959 3369 965 3292 
Q 972 3216 980 3056 
Q 988 2897 988 2838 
L 1000 2838 
Q 1150 3150 1397 3295 
Q 1644 3441 2047 3441 
Q 2672 3441 2981 3022 
Q 3291 2603 3291 1706 
z
M 2700 1694 
Q 2700 2400 2509 2703 
Q 2319 3006 1903 3006 
Q 1569 3006 1380 2865 
Q 1191 2725 1092 2426 
Q 994 2128 994 1650 
Q 994 984 1206 668 
Q 1419 353 1897 353 
Q 2316 353 2508 661 
Q 2700 969 2700 1694 
z
" transform="scale(0.015625)"/>
      <path id="LiberationSans-6f" d="M 3291 1694 
Q 3291 806 2900 371 
Q 2509 -63 1766 -63 
Q 1025 -63 647 389 
Q 269 841 269 1694 
Q 269 3444 1784 3444 
Q 2559 3444 2925 3017 
Q 3291 2591 3291 1694 
z
M 2700 1694 
Q 2700 2394 2492 2711 
Q 2284 3028 1794 3028 
Q 1300 3028 1079 2704 
Q 859 2381 859 1694 
Q 859 1025 1076 689 
Q 1294 353 1759 353 
Q 2266 353 2483 678 
Q 2700 1003 2700 1694 
z
" transform="scale(0.015625)"/>
      <path id="LiberationSans-6a" d="M 428 4100 
L 428 4638 
L 991 4638 
L 991 4100 
L 428 4100 
z
M 991 -419 
Q 991 -897 803 -1112 
Q 616 -1328 241 -1328 
Q 0 -1328 -156 -1300 
L -156 -866 
L 38 -884 
Q 253 -884 340 -771 
Q 428 -659 428 -334 
L 428 3381 
L 991 3381 
L 991 -419 
z
" transform="scale(0.015625)"/>
      <path id="LiberationSans-63" d="M 859 1706 
Q 859 1031 1071 706 
Q 1284 381 1713 381 
Q 2013 381 2214 543 
Q 2416 706 2463 1044 
L 3031 1006 
Q 2966 519 2616 228 
Q 2266 -63 1728 -63 
Q 1019 -63 645 385 
Q 272 834 272 1694 
Q 272 2547 647 2995 
Q 1022 3444 1722 3444 
Q 2241 3444 2583 3175 
Q 2925 2906 3013 2434 
L 2434 2391 
Q 2391 2672 2212 2837 
Q 2034 3003 1706 3003 
Q 1259 3003 1059 2706 
Q 859 2409 859 1706 
z
" transform="scale(0.015625)"/>
      <path id="LiberationSans-62" d="M 3291 1706 
Q 3291 -63 2047 -63 
Q 1663 -63 1408 76 
Q 1153 216 994 525 
L 988 525 
Q 988 428 975 229 
Q 963 31 956 0 
L 413 0 
Q 431 169 431 697 
L 431 4638 
L 994 4638 
L 994 3316 
Q 994 3113 981 2838 
L 994 2838 
Q 1150 3163 1408 3303 
Q 1666 3444 2047 3444 
Q 2688 3444 2989 3012 
Q 3291 2581 3291 1706 
z
M 2700 1688 
Q 2700 2397 2512 2703 
Q 2325 3009 1903 3009 
Q 1428 3009 1211 2684 
Q 994 2359 994 1653 
Q 994 988 1206 670 
Q 1419 353 1897 353 
Q 2322 353 2511 667 
Q 2700 981 2700 1688 
z
" transform="scale(0.015625)"/>
      <path id="LiberationSans-76" d="M 1916 0 
L 1250 0 
L 22 3381 
L 622 3381 
L 1366 1181 
Q 1406 1056 1581 441 
L 1691 806 
L 1813 1175 
L 2581 3381 
L 3178 3381 
L 1916 0 
z
" transform="scale(0.015625)"/>
      <path id="LiberationSans-6c" d="M 431 0 
L 431 4638 
L 994 4638 
L 994 0 
L 431 0 
z
" transform="scale(0.015625)"/>
      <path id="LiberationSans-6d" d="M 2400 0 
L 2400 2144 
Q 2400 2634 2265 2821 
Q 2131 3009 1781 3009 
Q 1422 3009 1212 2734 
Q 1003 2459 1003 1959 
L 1003 0 
L 444 0 
L 444 2659 
Q 444 3250 425 3381 
L 956 3381 
Q 959 3366 962 3297 
Q 966 3228 970 3139 
Q 975 3050 981 2803 
L 991 2803 
Q 1172 3163 1406 3303 
Q 1641 3444 1978 3444 
Q 2363 3444 2586 3291 
Q 2809 3138 2897 2803 
L 2906 2803 
Q 3081 3144 3329 3294 
Q 3578 3444 3931 3444 
Q 4444 3444 4676 3166 
Q 4909 2888 4909 2253 
L 4909 0 
L 4353 0 
L 4353 2144 
Q 4353 2634 4218 2821 
Q 4084 3009 3734 3009 
Q 3366 3009 3161 2736 
Q 2956 2463 2956 1959 
L 2956 0 
L 2400 0 
z
" transform="scale(0.015625)"/>
     </defs>
     <use xlink:href="#LiberationSans-42"/>
     <use xlink:href="#LiberationSans-72" x="66.699219"/>
     <use xlink:href="#LiberationSans-61" x="100"/>
     <use xlink:href="#LiberationSans-69" x="155.615234"/>
     <use xlink:href="#LiberationSans-6e" x="177.832031"/>
     <use xlink:href="#LiberationSans-20" x="233.447266"/>
     <use xlink:href="#LiberationSans-70" x="261.230469"/>
     <use xlink:href="#LiberationSans-72" x="316.845703"/>
     <use xlink:href="#LiberationSans-6f" x="350.146484"/>
     <use xlink:href="#LiberationSans-6a" x="405.761719"/>
     <use xlink:href="#LiberationSans-65" x="427.978516"/>
     <use xlink:href="#LiberationSans-63" x="483.59375"/>
     <use xlink:href="#LiberationSans-74" x="533.59375"/>
     <use xlink:href="#LiberationSans-20" x="561.376953"/>
     <use xlink:href="#LiberationSans-62" x="589.160156"/>
     <use xlink:href="#LiberationSans-75" x="644.775391"/>
     <use xlink:href="#LiberationSans-64" x="700.390625"/>
     <use xlink:href="#LiberationSans-67" x="756.005859"/>
     <use xlink:href="#LiberationSans-65" x="811.621094"/>
     <use xlink:href="#LiberationSans-74" x="867.236328"/>
     <use xlink:href="#LiberationSans-73" x="895.019531"/>
     <use xlink:href="#LiberationSans-20" x="945.019531"/>
     <use xlink:href="#LiberationSans-76" x="972.802734"/>
     <use xlink:href="#LiberationSans-73" x="1022.802734"/>
     <use xlink:href="#LiberationSans-2e" x="1072.802734"/>
     <use xlink:href="#LiberationSans-20" x="1100.585938"/>
     <use xlink:href="#LiberationSans-61" x="1128.369141"/>
     <use xlink:href="#LiberationSans-6c" x="1183.984375"/>
     <use xlink:href="#LiberationSans-6c" x="1206.201172"/>
     <use xlink:href="#LiberationSans-20" x="1228.417969"/>
     <use xlink:href="#LiberationSans-6d" x="1256.201172"/>
     <use xlink:href="#LiberationSans-65" x="1339.501953"/>
     <use xlink:href="#LiberationSans-67" x="1395.117188"/>
     <use xlink:href="#LiberationSans-61" x="1450.732422"/>
     <use xlink:href="#LiberationSans-70" x="1506.347656"/>
     <use xlink:href="#LiberationSans-72" x="1561.962891"/>
     <use xlink:href="#LiberationSans-6f" x="1595.263672"/>
     <use xlink:href="#LiberationSans-6a" x="1650.878906"/>
     <use xlink:href="#LiberationSans-65" x="1673.095703"/>
     <use xlink:href="#LiberationSans-63" x="1728.710938"/>
     <use xlink:href="#LiberationSans-74" x="1778.710938"/>
     <use xlink:href="#LiberationSans-73" x="1806.494141"/>
    </g>
   </g>
   <g id="legend_1">
    <g id="patch_7">
     <path d="M 362.095313 62.08375 
L 443 62.08375 
Q 445 62.08375 445 60.08375 
L 445 32.44 
Q 445 30.44 443 30.44 
L 362.095313 30.44 
Q 360.095313 30.44 360.095313 32.44 
L 360.095313 60.08375 
Q 360.095313 62.08375 362.095313 62.08375 
z
" style="fill: #ffffff; opacity: 0.8; stroke: #cccccc; stroke-linejoin: miter"/>
    </g>
    <g id="patch_8">
     <path d="M 364.095313 41.686875 
L 384.095313 41.686875 
L 384.095313 34.686875 
L 364.095313 34.686875 
z
" style="fill: #1f77b4; fill-opacity: 0.25; stroke: #1f77b4; stroke-linejoin: miter"/>
    </g>
    <g id="text_17">
     <!-- All projects -->
     <g style="fill: #262626" transform="translate(392.095313 41.686875) scale(0.1 -0.1)">
      <defs>
       <path id="LiberationSans-41" d="M 3647 0 
L 3144 1288 
L 1138 1288 
L 631 0 
L 13 0 
L 1809 4403 
L 2488 4403 
L 4256 0 
L 3647 0 
z
M 2141 3953 
L 2113 3866 
Q 2034 3606 1881 3200 
L 1319 1753 
L 2966 1753 
L 2400 3206 
Q 2313 3422 2225 3694 
L 2141 3953 
z
" transform="scale(0.015625)"/>
      </defs>
      <use xlink:href="#LiberationSans-41"/>
      <use xlink:href="#LiberationSans-6c" x="66.699219"/>
      <use xlink:href="#LiberationSans-6c" x="88.916016"/>
      <use xlink:href="#LiberationSans-20" x="111.132812"/>
      <use xlink:href="#LiberationSans-70" x="138.916016"/>
      <use xlink:href="#LiberationSans-72" x="194.53125"/>
      <use xlink:href="#LiberationSans-6f" x="227.832031"/>
      <use xlink:href="#LiberationSans-6a" x="283.447266"/>
      <use xlink:href="#LiberationSans-65" x="305.664062"/>
      <use xlink:href="#LiberationSans-63" x="361.279297"/>
      <use xlink:href="#LiberationSans-74" x="411.279297"/>
      <use xlink:href="#LiberationSans-73" x="439.0625"/>
     </g>
    </g>
    <g id="patch_9">
     <path d="M 364.095313 56.00875 
L 384.095313 56.00875 
L 384.095313 49.00875 
L 364.095313 49.00875 
z
" style="fill: #ff7f0e; fill-opacity: 0.25; stroke: #ff7f0e; stroke-linejoin: miter"/>
    </g>
    <g id="text_18">
     <!-- Brain -->
     <g style="fill: #262626" transform="translate(392.095313 56.00875) scale(0.1 -0.1)">
      <use xlink:href="#LiberationSans-42"/>
      <use xlink:href="#LiberationSans-72" x="66.699219"/>
      <use xlink:href="#LiberationSans-61" x="100"/>
      <use xlink:href="#LiberationSans-69" x="155.615234"/>
      <use xlink:href="#LiberationSans-6e" x="177.832031"/>
     </g>
    </g>
   </g>
  </g>
 </g>
 <defs>
  <clipPath id="p35d9415376">
   <rect x="51.32" y="25.44" width="398.68" height="276.328"/>
  </clipPath>
 </defs>
</svg>
