<?xml version="1.0" encoding="utf-8" standalone="no"?>
<!DOCTYPE svg PUBLIC "-//W3C//DTD SVG 1.1//EN"
  "http://www.w3.org/Graphics/SVG/1.1/DTD/svg11.dtd">
<svg xmlns:xlink="http://www.w3.org/1999/xlink" width="576pt" height="288pt" viewBox="0 0 576 288" xmlns="http://www.w3.org/2000/svg" version="1.1">
 <metadata>
  <rdf:RDF xmlns:dc="http://purl.org/dc/elements/1.1/" xmlns:cc="http://creativecommons.org/ns#" xmlns:rdf="http://www.w3.org/1999/02/22-rdf-syntax-ns#">
   <cc:Work>
    <dc:type rdf:resource="http://purl.org/dc/dcmitype/StillImage"/>
    <dc:date>2025-01-24T07:02:32.891110</dc:date>
    <dc:format>image/svg+xml</dc:format>
    <dc:creator>
     <cc:Agent>
      <dc:title>Matplotlib v3.9.2, https://matplotlib.org/</dc:title>
     </cc:Agent>
    </dc:creator>
   </cc:Work>
  </rdf:RDF>
 </metadata>
 <defs>
  <style type="text/css">*{stroke-linejoin: round; stroke-linecap: butt}</style>
 </defs>
 <g id="figure_1">
  <g id="patch_1">
   <path d="M 0 288 
L 576 288 
L 576 0 
L 0 0 
z
" style="fill: #ffffff"/>
  </g>
  <g id="axes_1">
   <g id="patch_2">
    <path d="M 52.059169 241.2528 
L 402.448 241.2528 
L 402.448 12.4528 
L 52.059169 12.4528 
z
" style="fill: #ffffff"/>
   </g>
   <g id="PathCollection_1">
    <path d="M 377.072719 149.408037 
L 378.572719 147.908037 
L 380.072719 149.408037 
L 381.572719 147.908037 
L 380.072719 146.408037 
L 381.572719 144.908037 
L 380.072719 143.408037 
L 378.572719 144.908037 
L 377.072719 143.408037 
L 375.572719 144.908037 
L 377.072719 146.408037 
L 375.572719 147.908037 
z
" clip-path="url(#p3e1eb164d0)" style="fill: #ff7f0e; stroke: #ffffff; stroke-width: 0.48"/>
    <path d="M 392.989573 137.474865 
L 394.489573 135.974865 
L 395.989573 137.474865 
L 397.489573 135.974865 
L 395.989573 134.474865 
L 397.489573 132.974865 
L 395.989573 131.474865 
L 394.489573 132.974865 
L 392.989573 131.474865 
L 391.489573 132.974865 
L 392.989573 134.474865 
L 391.489573 135.974865 
z
" clip-path="url(#p3e1eb164d0)" style="fill: #1f77b4; stroke: #ffffff; stroke-width: 0.48"/>
    <path d="M 392.368253 181.891369 
L 392.368253 186.134009 
L 396.610893 186.134009 
L 396.610893 181.891369 
z
" clip-path="url(#p3e1eb164d0)" style="fill: #2ca02c; stroke: #ffffff; stroke-width: 0.48"/>
    <path d="M 393.489573 126.840079 
L 395.489573 126.840079 
L 395.489573 124.840079 
L 397.489573 124.840079 
L 397.489573 122.840079 
L 395.489573 122.840079 
L 395.489573 120.840079 
L 393.489573 120.840079 
L 393.489573 122.840079 
L 391.489573 122.840079 
L 391.489573 124.840079 
L 393.489573 124.840079 
z
" clip-path="url(#p3e1eb164d0)" style="fill: #d62728; stroke: #ffffff; stroke-width: 0.48"/>
    <path d="M 353.175634 141.453703 
L 354.675634 139.953703 
L 356.175634 141.453703 
L 357.675634 139.953703 
L 356.175634 138.453703 
L 357.675634 136.953703 
L 356.175634 135.453703 
L 354.675634 136.953703 
L 353.175634 135.453703 
L 351.675634 136.953703 
L 353.175634 138.453703 
L 351.675634 139.953703 
z
" clip-path="url(#p3e1eb164d0)" style="fill: #d62728; stroke: #ffffff; stroke-width: 0.48"/>
    <path d="M 312.740374 115.276934 
L 312.740374 119.519575 
L 316.983015 119.519575 
L 316.983015 115.276934 
z
" clip-path="url(#p3e1eb164d0)" style="fill: #9467bd; stroke: #ffffff; stroke-width: 0.48"/>
    <path d="M 313.361694 144.999549 
L 314.861694 143.499549 
L 316.361694 144.999549 
L 317.861694 143.499549 
L 316.361694 141.999549 
L 317.861694 140.499549 
L 316.361694 138.999549 
L 314.861694 140.499549 
L 313.361694 138.999549 
L 311.861694 140.499549 
L 313.361694 141.999549 
L 311.861694 143.499549 
z
" clip-path="url(#p3e1eb164d0)" style="fill: #9467bd; stroke: #ffffff; stroke-width: 0.48"/>
    <path d="M 267.067524 114.398255 
L 266.006864 116.337594 
L 264.067524 117.398255 
L 266.006864 118.458915 
L 267.067524 120.398255 
L 268.128184 118.458915 
L 270.067524 117.398255 
L 268.128184 116.337594 
z
" clip-path="url(#p3e1eb164d0)" style="fill: #8c564b; stroke: #ffffff; stroke-width: 0.48"/>
    <path d="M 266.067524 95.014262 
L 268.067524 95.014262 
L 268.067524 93.014262 
L 270.067524 93.014262 
L 270.067524 91.014262 
L 268.067524 91.014262 
L 268.067524 89.014262 
L 266.067524 89.014262 
L 266.067524 91.014262 
L 264.067524 91.014262 
L 264.067524 93.014262 
L 266.067524 93.014262 
z
" clip-path="url(#p3e1eb164d0)" style="fill: #e377c2; stroke: #ffffff; stroke-width: 0.48"/>
    <path d="M 282.006182 222.468393 
L 284.006182 222.468393 
L 284.006182 220.468393 
L 286.006182 220.468393 
L 286.006182 218.468393 
L 284.006182 218.468393 
L 284.006182 216.468393 
L 282.006182 216.468393 
L 282.006182 218.468393 
L 280.006182 218.468393 
L 280.006182 220.468393 
L 282.006182 220.468393 
z
" clip-path="url(#p3e1eb164d0)" style="fill: #ff7f0e; stroke: #ffffff; stroke-width: 0.48"/>
    <path d="M 257.609097 131.397648 
L 259.109097 129.897648 
L 260.609097 131.397648 
L 262.109097 129.897648 
L 260.609097 128.397648 
L 262.109097 126.897648 
L 260.609097 125.397648 
L 259.109097 126.897648 
L 257.609097 125.397648 
L 256.109097 126.897648 
L 257.609097 128.397648 
L 256.109097 129.897648 
z
" clip-path="url(#p3e1eb164d0)" style="fill: #9467bd; stroke: #ffffff; stroke-width: 0.48"/>
    <path d="M 281.506182 134.480374 
L 283.006182 132.980374 
L 284.506182 134.480374 
L 286.006182 132.980374 
L 284.506182 131.480374 
L 286.006182 129.980374 
L 284.506182 128.480374 
L 283.006182 129.980374 
L 281.506182 128.480374 
L 280.006182 129.980374 
L 281.506182 131.480374 
L 280.006182 132.980374 
z
" clip-path="url(#p3e1eb164d0)" style="fill: #7f7f7f; stroke: #ffffff; stroke-width: 0.48"/>
    <path d="M 289.464609 188.315172 
L 290.964609 186.815172 
L 292.464609 188.315172 
L 293.964609 186.815172 
L 292.464609 185.315172 
L 293.964609 183.815172 
L 292.464609 182.315172 
L 290.964609 183.815172 
L 289.464609 182.315172 
L 287.964609 183.815172 
L 289.464609 185.315172 
L 287.964609 186.815172 
z
" clip-path="url(#p3e1eb164d0)" style="fill: #e377c2; stroke: #ffffff; stroke-width: 0.48"/>
    <path d="M 313.361694 141.139826 
L 314.861694 139.639826 
L 316.361694 141.139826 
L 317.861694 139.639826 
L 316.361694 138.139826 
L 317.861694 136.639826 
L 316.361694 135.139826 
L 314.861694 136.639826 
L 313.361694 135.139826 
L 311.861694 136.639826 
L 313.361694 138.139826 
L 311.861694 139.639826 
z
" clip-path="url(#p3e1eb164d0)" style="fill: #ff7f0e; stroke: #ffffff; stroke-width: 0.48"/>
    <path d="M 257.609097 156.383956 
L 259.109097 154.883956 
L 260.609097 156.383956 
L 262.109097 154.883956 
L 260.609097 153.383956 
L 262.109097 151.883956 
L 260.609097 150.383956 
L 259.109097 151.883956 
L 257.609097 150.383956 
L 256.109097 151.883956 
L 257.609097 153.383956 
L 256.109097 154.883956 
z
" clip-path="url(#p3e1eb164d0)" style="fill: #bcbd22; stroke: #ffffff; stroke-width: 0.48"/>
    <path d="M 250.15067 95.014262 
L 252.15067 95.014262 
L 252.15067 93.014262 
L 254.15067 93.014262 
L 254.15067 91.014262 
L 252.15067 91.014262 
L 252.15067 89.014262 
L 250.15067 89.014262 
L 250.15067 91.014262 
L 248.15067 91.014262 
L 248.15067 93.014262 
L 250.15067 93.014262 
z
" clip-path="url(#p3e1eb164d0)" style="fill: #1f77b4; stroke: #ffffff; stroke-width: 0.48"/>
    <path d="M 243.192243 19.8528 
L 242.131583 21.79214 
L 240.192243 22.8528 
L 242.131583 23.91346 
L 243.192243 25.8528 
L 244.252903 23.91346 
L 246.192243 22.8528 
L 244.252903 21.79214 
z
" clip-path="url(#p3e1eb164d0)" style="fill: #e377c2; stroke: #ffffff; stroke-width: 0.48"/>
    <path d="M 202.3565 131.982156 
L 204.3565 131.982156 
L 204.3565 129.982156 
L 206.3565 129.982156 
L 206.3565 127.982156 
L 204.3565 127.982156 
L 204.3565 125.982156 
L 202.3565 125.982156 
L 202.3565 127.982156 
L 200.3565 127.982156 
L 200.3565 129.982156 
L 202.3565 129.982156 
z
" clip-path="url(#p3e1eb164d0)" style="fill: #e377c2; stroke: #ffffff; stroke-width: 0.48"/>
    <path d="M 203.3565 137.502304 
L 200.3565 140.502304 
L 203.3565 143.502304 
L 206.3565 140.502304 
z
" clip-path="url(#p3e1eb164d0)" style="fill: #1f77b4; stroke: #ffffff; stroke-width: 0.48"/>
    <path d="M 258.109097 177.99076 
L 260.109097 177.99076 
L 260.109097 175.99076 
L 262.109097 175.99076 
L 262.109097 173.99076 
L 260.109097 173.99076 
L 260.109097 171.99076 
L 258.109097 171.99076 
L 258.109097 173.99076 
L 256.109097 173.99076 
L 256.109097 175.99076 
L 258.109097 175.99076 
z
" clip-path="url(#p3e1eb164d0)" style="fill: #2ca02c; stroke: #ffffff; stroke-width: 0.48"/>
    <path d="M 259.109097 97.321644 
L 258.048437 99.260984 
L 256.109097 100.321644 
L 258.048437 101.382304 
L 259.109097 103.321644 
L 260.169757 101.382304 
L 262.109097 100.321644 
L 260.169757 99.260984 
z
" clip-path="url(#p3e1eb164d0)" style="fill: #2ca02c; stroke: #ffffff; stroke-width: 0.48"/>
    <path d="M 258.109097 166.698109 
L 260.109097 166.698109 
L 260.109097 164.698109 
L 262.109097 164.698109 
L 262.109097 162.698109 
L 260.109097 162.698109 
L 260.109097 160.698109 
L 258.109097 160.698109 
L 258.109097 162.698109 
L 256.109097 162.698109 
L 256.109097 164.698109 
L 258.109097 164.698109 
z
" clip-path="url(#p3e1eb164d0)" style="fill: #8c564b; stroke: #ffffff; stroke-width: 0.48"/>
    <path d="M 242.192243 166.698109 
L 244.192243 166.698109 
L 244.192243 164.698109 
L 246.192243 164.698109 
L 246.192243 162.698109 
L 244.192243 162.698109 
L 244.192243 160.698109 
L 242.192243 160.698109 
L 242.192243 162.698109 
L 240.192243 162.698109 
L 240.192243 164.698109 
L 242.192243 164.698109 
z
" clip-path="url(#p3e1eb164d0)" style="fill: #1f77b4; stroke: #ffffff; stroke-width: 0.48"/>
    <path d="M 210.336731 139.064605 
L 212.336731 139.064605 
L 212.336731 137.064605 
L 214.336731 137.064605 
L 214.336731 135.064605 
L 212.336731 135.064605 
L 212.336731 133.064605 
L 210.336731 133.064605 
L 210.336731 135.064605 
L 208.336731 135.064605 
L 208.336731 137.064605 
L 210.336731 137.064605 
z
" clip-path="url(#p3e1eb164d0)" style="fill: #9467bd; stroke: #ffffff; stroke-width: 0.48"/>
    <path d="M 234.212012 112.873571 
L 236.212012 112.873571 
L 236.212012 110.873571 
L 238.212012 110.873571 
L 238.212012 108.873571 
L 236.212012 108.873571 
L 236.212012 106.873571 
L 234.212012 106.873571 
L 234.212012 108.873571 
L 232.212012 108.873571 
L 232.212012 110.873571 
L 234.212012 110.873571 
z
" clip-path="url(#p3e1eb164d0)" style="fill: #1f77b4; stroke: #ffffff; stroke-width: 0.48"/>
    <path d="M 201.235179 160.451142 
L 201.235179 164.693783 
L 205.47782 164.693783 
L 205.47782 160.451142 
z
" clip-path="url(#p3e1eb164d0)" style="fill: #8c564b; stroke: #ffffff; stroke-width: 0.48"/>
    <path d="M 169.379667 168.479718 
L 169.379667 172.722359 
L 173.622308 172.722359 
L 173.622308 168.479718 
z
" clip-path="url(#p3e1eb164d0)" style="fill: #bcbd22; stroke: #ffffff; stroke-width: 0.48"/>
    <path d="M 225.132264 33.948367 
L 225.132264 38.191008 
L 229.374905 38.191008 
L 229.374905 33.948367 
z
" clip-path="url(#p3e1eb164d0)" style="fill: #ff7f0e; stroke: #ffffff; stroke-width: 0.48"/>
    <path d="M 219.295158 141.928604 
L 218.234497 143.867944 
L 216.295158 144.928604 
L 218.234497 145.989264 
L 219.295158 147.928604 
L 220.355818 145.989264 
L 222.295158 144.928604 
L 220.355818 143.867944 
z
" clip-path="url(#p3e1eb164d0)" style="fill: #e377c2; stroke: #ffffff; stroke-width: 0.48"/>
    <path d="M 225.753585 131.587899 
L 227.253585 130.087899 
L 228.753585 131.587899 
L 230.253585 130.087899 
L 228.753585 128.587899 
L 230.253585 127.087899 
L 228.753585 125.587899 
L 227.253585 127.087899 
L 225.753585 125.587899 
L 224.253585 127.087899 
L 225.753585 128.587899 
L 224.253585 130.087899 
z
" clip-path="url(#p3e1eb164d0)" style="fill: #e377c2; stroke: #ffffff; stroke-width: 0.48"/>
    <path d="M 217.173837 126.466578 
L 217.173837 130.709219 
L 221.416478 130.709219 
L 221.416478 126.466578 
z
" clip-path="url(#p3e1eb164d0)" style="fill: #bcbd22; stroke: #ffffff; stroke-width: 0.48"/>
    <path d="M 256.987777 111.417211 
L 256.987777 115.659852 
L 261.230417 115.659852 
L 261.230417 111.417211 
z
" clip-path="url(#p3e1eb164d0)" style="fill: #ff7f0e; stroke: #ffffff; stroke-width: 0.48"/>
    <path d="M 250.15067 158.216436 
L 252.15067 158.216436 
L 252.15067 156.216436 
L 254.15067 156.216436 
L 254.15067 154.216436 
L 252.15067 154.216436 
L 252.15067 152.216436 
L 250.15067 152.216436 
L 250.15067 154.216436 
L 248.15067 154.216436 
L 248.15067 156.216436 
L 250.15067 156.216436 
z
" clip-path="url(#p3e1eb164d0)" style="fill: #7f7f7f; stroke: #ffffff; stroke-width: 0.48"/>
    <path d="M 60.017596 190.034618 
L 57.017596 193.034618 
L 60.017596 196.034618 
L 63.017596 193.034618 
z
" clip-path="url(#p3e1eb164d0)" style="fill: #7f7f7f; stroke: #ffffff; stroke-width: 0.48"/>
    <path d="M 138.645475 175.628282 
L 140.645475 175.628282 
L 140.645475 173.628282 
L 142.645475 173.628282 
L 142.645475 171.628282 
L 140.645475 171.628282 
L 140.645475 169.628282 
L 138.645475 169.628282 
L 138.645475 171.628282 
L 136.645475 171.628282 
L 136.645475 173.628282 
L 138.645475 173.628282 
z
" clip-path="url(#p3e1eb164d0)" style="fill: #bcbd22; stroke: #ffffff; stroke-width: 0.48"/>
    <path d="M 177.359898 136.069992 
L 177.359898 140.312633 
L 181.602539 140.312633 
L 181.602539 136.069992 
z
" clip-path="url(#p3e1eb164d0)" style="fill: #1f77b4; stroke: #ffffff; stroke-width: 0.48"/>
    <path d="M 60.017596 190.034618 
L 57.017596 193.034618 
L 60.017596 196.034618 
L 63.017596 193.034618 
z
" clip-path="url(#p3e1eb164d0)" style="fill: #8c564b; stroke: #ffffff; stroke-width: 0.48"/>
    <path d="M 138.645475 175.628282 
L 140.645475 175.628282 
L 140.645475 173.628282 
L 142.645475 173.628282 
L 142.645475 171.628282 
L 140.645475 171.628282 
L 140.645475 169.628282 
L 138.645475 169.628282 
L 138.645475 171.628282 
L 136.645475 171.628282 
L 136.645475 173.628282 
L 138.645475 173.628282 
z
" clip-path="url(#p3e1eb164d0)" style="fill: #d62728; stroke: #ffffff; stroke-width: 0.48"/>
    <path d="M 169.379667 168.479718 
L 169.379667 172.722359 
L 173.622308 172.722359 
L 173.622308 168.479718 
z
" clip-path="url(#p3e1eb164d0)" style="fill: #bcbd22; stroke: #ffffff; stroke-width: 0.48"/>
    <path d="M 177.359898 136.069992 
L 177.359898 140.312633 
L 181.602539 140.312633 
L 181.602539 136.069992 
z
" clip-path="url(#p3e1eb164d0)" style="fill: #1f77b4; stroke: #ffffff; stroke-width: 0.48"/>
    <path d="M 202.3565 131.982156 
L 204.3565 131.982156 
L 204.3565 129.982156 
L 206.3565 129.982156 
L 206.3565 127.982156 
L 204.3565 127.982156 
L 204.3565 125.982156 
L 202.3565 125.982156 
L 202.3565 127.982156 
L 200.3565 127.982156 
L 200.3565 129.982156 
L 202.3565 129.982156 
z
" clip-path="url(#p3e1eb164d0)" style="fill: #d62728; stroke: #ffffff; stroke-width: 0.48"/>
    <path d="M 203.3565 137.502304 
L 200.3565 140.502304 
L 203.3565 143.502304 
L 206.3565 140.502304 
z
" clip-path="url(#p3e1eb164d0)" style="fill: #1f77b4; stroke: #ffffff; stroke-width: 0.48"/>
    <path d="M 201.235179 160.451142 
L 201.235179 164.693783 
L 205.47782 164.693783 
L 205.47782 160.451142 
z
" clip-path="url(#p3e1eb164d0)" style="fill: #ff7f0e; stroke: #ffffff; stroke-width: 0.48"/>
    <path d="M 210.336731 139.064605 
L 212.336731 139.064605 
L 212.336731 137.064605 
L 214.336731 137.064605 
L 214.336731 135.064605 
L 212.336731 135.064605 
L 212.336731 133.064605 
L 210.336731 133.064605 
L 210.336731 135.064605 
L 208.336731 135.064605 
L 208.336731 137.064605 
L 210.336731 137.064605 
z
" clip-path="url(#p3e1eb164d0)" style="fill: #ff7f0e; stroke: #ffffff; stroke-width: 0.48"/>
    <path d="M 219.295158 141.928604 
L 218.234497 143.867944 
L 216.295158 144.928604 
L 218.234497 145.989264 
L 219.295158 147.928604 
L 220.355818 145.989264 
L 222.295158 144.928604 
L 220.355818 143.867944 
z
" clip-path="url(#p3e1eb164d0)" style="fill: #e377c2; stroke: #ffffff; stroke-width: 0.48"/>
    <path d="M 218.295158 209.251506 
L 220.295158 209.251506 
L 220.295158 207.251506 
L 222.295158 207.251506 
L 222.295158 205.251506 
L 220.295158 205.251506 
L 220.295158 203.251506 
L 218.295158 203.251506 
L 218.295158 205.251506 
L 216.295158 205.251506 
L 216.295158 207.251506 
L 218.295158 207.251506 
z
" clip-path="url(#p3e1eb164d0)" style="fill: #8c564b; stroke: #ffffff; stroke-width: 0.48"/>
    <path d="M 217.173837 126.466578 
L 217.173837 130.709219 
L 221.416478 130.709219 
L 221.416478 126.466578 
z
" clip-path="url(#p3e1eb164d0)" style="fill: #e377c2; stroke: #ffffff; stroke-width: 0.48"/>
    <path d="M 225.753585 131.587899 
L 227.253585 130.087899 
L 228.753585 131.587899 
L 230.253585 130.087899 
L 228.753585 128.587899 
L 230.253585 127.087899 
L 228.753585 125.587899 
L 227.253585 127.087899 
L 225.753585 125.587899 
L 224.253585 127.087899 
L 225.753585 128.587899 
L 224.253585 130.087899 
z
" clip-path="url(#p3e1eb164d0)" style="fill: #d62728; stroke: #ffffff; stroke-width: 0.48"/>
    <path d="M 225.132264 166.23029 
L 225.132264 170.472931 
L 229.374905 170.472931 
L 229.374905 166.23029 
z
" clip-path="url(#p3e1eb164d0)" style="fill: #ff7f0e; stroke: #ffffff; stroke-width: 0.48"/>
    <path d="M 226.253585 116.040675 
L 228.253585 116.040675 
L 228.253585 114.040675 
L 230.253585 114.040675 
L 230.253585 112.040675 
L 228.253585 112.040675 
L 228.253585 110.040675 
L 226.253585 110.040675 
L 226.253585 112.040675 
L 224.253585 112.040675 
L 224.253585 114.040675 
L 226.253585 114.040675 
z
" clip-path="url(#p3e1eb164d0)" style="fill: #e377c2; stroke: #ffffff; stroke-width: 0.48"/>
    <path d="M 226.253585 196.034618 
L 228.253585 196.034618 
L 228.253585 194.034618 
L 230.253585 194.034618 
L 230.253585 192.034618 
L 228.253585 192.034618 
L 228.253585 190.034618 
L 226.253585 190.034618 
L 226.253585 192.034618 
L 224.253585 192.034618 
L 224.253585 194.034618 
L 226.253585 194.034618 
z
" clip-path="url(#p3e1eb164d0)" style="fill: #8c564b; stroke: #ffffff; stroke-width: 0.48"/>
    <path d="M 234.212012 188.031423 
L 236.212012 188.031423 
L 236.212012 186.031423 
L 238.212012 186.031423 
L 238.212012 184.031423 
L 236.212012 184.031423 
L 236.212012 182.031423 
L 234.212012 182.031423 
L 234.212012 184.031423 
L 232.212012 184.031423 
L 232.212012 186.031423 
L 234.212012 186.031423 
z
" clip-path="url(#p3e1eb164d0)" style="fill: #e377c2; stroke: #ffffff; stroke-width: 0.48"/>
    <path d="M 242.192243 166.698109 
L 244.192243 166.698109 
L 244.192243 164.698109 
L 246.192243 164.698109 
L 246.192243 162.698109 
L 244.192243 162.698109 
L 244.192243 160.698109 
L 242.192243 160.698109 
L 242.192243 162.698109 
L 240.192243 162.698109 
L 240.192243 164.698109 
L 242.192243 164.698109 
z
" clip-path="url(#p3e1eb164d0)" style="fill: #e377c2; stroke: #ffffff; stroke-width: 0.48"/>
    <path d="M 258.109097 166.698109 
L 260.109097 166.698109 
L 260.109097 164.698109 
L 262.109097 164.698109 
L 262.109097 162.698109 
L 260.109097 162.698109 
L 260.109097 160.698109 
L 258.109097 160.698109 
L 258.109097 162.698109 
L 256.109097 162.698109 
L 256.109097 164.698109 
L 258.109097 164.698109 
z
" clip-path="url(#p3e1eb164d0)" style="fill: #ff7f0e; stroke: #ffffff; stroke-width: 0.48"/>
    <path d="M 243.192243 171.035687 
L 242.131583 172.975027 
L 240.192243 174.035687 
L 242.131583 175.096347 
L 243.192243 177.035687 
L 244.252903 175.096347 
L 246.192243 174.035687 
L 244.252903 172.975027 
z
" clip-path="url(#p3e1eb164d0)" style="fill: #1f77b4; stroke: #ffffff; stroke-width: 0.48"/>
    <path d="M 250.15067 195.712533 
L 252.15067 195.712533 
L 252.15067 193.712533 
L 254.15067 193.712533 
L 254.15067 191.712533 
L 252.15067 191.712533 
L 252.15067 189.712533 
L 250.15067 189.712533 
L 250.15067 191.712533 
L 248.15067 191.712533 
L 248.15067 193.712533 
L 250.15067 193.712533 
z
" clip-path="url(#p3e1eb164d0)" style="fill: #2ca02c; stroke: #ffffff; stroke-width: 0.48"/>
    <path d="M 250.15067 189.018062 
L 252.15067 189.018062 
L 252.15067 187.018062 
L 254.15067 187.018062 
L 254.15067 185.018062 
L 252.15067 185.018062 
L 252.15067 183.018062 
L 250.15067 183.018062 
L 250.15067 185.018062 
L 248.15067 185.018062 
L 248.15067 187.018062 
L 250.15067 187.018062 
z
" clip-path="url(#p3e1eb164d0)" style="fill: #d62728; stroke: #ffffff; stroke-width: 0.48"/>
    <path d="M 257.609097 156.383956 
L 259.109097 154.883956 
L 260.609097 156.383956 
L 262.109097 154.883956 
L 260.609097 153.383956 
L 262.109097 151.883956 
L 260.609097 150.383956 
L 259.109097 151.883956 
L 257.609097 150.383956 
L 256.109097 151.883956 
L 257.609097 153.383956 
L 256.109097 154.883956 
z
" clip-path="url(#p3e1eb164d0)" style="fill: #9467bd; stroke: #ffffff; stroke-width: 0.48"/>
    <path d="M 258.109097 177.99076 
L 260.109097 177.99076 
L 260.109097 175.99076 
L 262.109097 175.99076 
L 262.109097 173.99076 
L 260.109097 173.99076 
L 260.109097 171.99076 
L 258.109097 171.99076 
L 258.109097 173.99076 
L 256.109097 173.99076 
L 256.109097 175.99076 
L 258.109097 175.99076 
z
" clip-path="url(#p3e1eb164d0)" style="fill: #1f77b4; stroke: #ffffff; stroke-width: 0.48"/>
    <path d="M 259.109097 172.479497 
L 258.048437 174.418836 
L 256.109097 175.479497 
L 258.048437 176.540157 
L 259.109097 178.479497 
L 260.169757 176.540157 
L 262.109097 175.479497 
L 260.169757 174.418836 
z
" clip-path="url(#p3e1eb164d0)" style="fill: #bcbd22; stroke: #ffffff; stroke-width: 0.48"/>
    <path d="M 259.109097 196.034618 
C 259.904706 196.034618 260.667837 195.718519 261.230417 195.155939 
C 261.792998 194.593358 262.109097 193.830227 262.109097 193.034618 
C 262.109097 192.239009 261.792998 191.475879 261.230417 190.913298 
C 260.667837 190.350717 259.904706 190.034618 259.109097 190.034618 
C 258.313488 190.034618 257.550357 190.350717 256.987777 190.913298 
C 256.425196 191.475879 256.109097 192.239009 256.109097 193.034618 
C 256.109097 193.830227 256.425196 194.593358 256.987777 195.155939 
C 257.550357 195.718519 258.313488 196.034618 259.109097 196.034618 
z
" clip-path="url(#p3e1eb164d0)" style="fill: #bcbd22; stroke: #ffffff; stroke-width: 0.48"/>
    <path d="M 256.987777 186.555718 
L 256.987777 190.798359 
L 261.230417 190.798359 
L 261.230417 186.555718 
z
" clip-path="url(#p3e1eb164d0)" style="fill: #9467bd; stroke: #ffffff; stroke-width: 0.48"/>
    <path d="M 264.946204 134.186025 
L 264.946204 138.428666 
L 269.188844 138.428666 
L 269.188844 134.186025 
z
" clip-path="url(#p3e1eb164d0)" style="fill: #9467bd; stroke: #ffffff; stroke-width: 0.48"/>
    <path d="M 266.067524 177.125527 
L 268.067524 177.125527 
L 268.067524 175.125527 
L 270.067524 175.125527 
L 270.067524 173.125527 
L 268.067524 173.125527 
L 268.067524 171.125527 
L 266.067524 171.125527 
L 266.067524 173.125527 
L 264.067524 173.125527 
L 264.067524 175.125527 
L 266.067524 175.125527 
z
" clip-path="url(#p3e1eb164d0)" style="fill: #e377c2; stroke: #ffffff; stroke-width: 0.48"/>
    <path d="M 266.067524 233.8528 
L 268.067524 233.8528 
L 268.067524 231.8528 
L 270.067524 231.8528 
L 270.067524 229.8528 
L 268.067524 229.8528 
L 268.067524 227.8528 
L 266.067524 227.8528 
L 266.067524 229.8528 
L 264.067524 229.8528 
L 264.067524 231.8528 
L 266.067524 231.8528 
z
" clip-path="url(#p3e1eb164d0)" style="fill: #8c564b; stroke: #ffffff; stroke-width: 0.48"/>
    <path d="M 267.067524 120.398255 
C 267.863133 120.398255 268.626264 120.082156 269.188844 119.519575 
C 269.751425 118.956994 270.067524 118.193864 270.067524 117.398255 
C 270.067524 116.602645 269.751425 115.839515 269.188844 115.276934 
C 268.626264 114.714353 267.863133 114.398255 267.067524 114.398255 
C 266.271915 114.398255 265.508784 114.714353 264.946204 115.276934 
C 264.383623 115.839515 264.067524 116.602645 264.067524 117.398255 
C 264.067524 118.193864 264.383623 118.956994 264.946204 119.519575 
C 265.508784 120.082156 266.271915 120.398255 267.067524 120.398255 
z
" clip-path="url(#p3e1eb164d0)" style="fill: #8c564b; stroke: #ffffff; stroke-width: 0.48"/>
    <path d="M 265.567524 175.227612 
L 267.067524 173.727612 
L 268.567524 175.227612 
L 270.067524 173.727612 
L 268.567524 172.227612 
L 270.067524 170.727612 
L 268.567524 169.227612 
L 267.067524 170.727612 
L 265.567524 169.227612 
L 264.067524 170.727612 
L 265.567524 172.227612 
L 264.067524 173.727612 
z
" clip-path="url(#p3e1eb164d0)" style="fill: #1f77b4; stroke: #ffffff; stroke-width: 0.48"/>
    <path d="M 272.926435 199.078211 
L 272.926435 203.320851 
L 277.169075 203.320851 
L 277.169075 199.078211 
z
" clip-path="url(#p3e1eb164d0)" style="fill: #2ca02c; stroke: #ffffff; stroke-width: 0.48"/>
    <path d="M 274.047755 124.593213 
L 276.047755 124.593213 
L 276.047755 122.593213 
L 278.047755 122.593213 
L 278.047755 120.593213 
L 276.047755 120.593213 
L 276.047755 118.593213 
L 274.047755 118.593213 
L 274.047755 120.593213 
L 272.047755 120.593213 
L 272.047755 122.593213 
L 274.047755 122.593213 
z
" clip-path="url(#p3e1eb164d0)" style="fill: #e377c2; stroke: #ffffff; stroke-width: 0.48"/>
    <path d="M 272.926435 149.04063 
L 272.926435 153.283271 
L 277.169075 153.283271 
L 277.169075 149.04063 
z
" clip-path="url(#p3e1eb164d0)" style="fill: #bcbd22; stroke: #ffffff; stroke-width: 0.48"/>
    <path d="M 283.006182 170.930764 
L 281.945522 172.870104 
L 280.006182 173.930764 
L 281.945522 174.991425 
L 283.006182 176.930764 
L 284.066842 174.991425 
L 286.006182 173.930764 
L 284.066842 172.870104 
z
" clip-path="url(#p3e1eb164d0)" style="fill: #7f7f7f; stroke: #ffffff; stroke-width: 0.48"/>
    <path d="M 282.006182 214.943709 
L 284.006182 214.943709 
L 284.006182 212.943709 
L 286.006182 212.943709 
L 286.006182 210.943709 
L 284.006182 210.943709 
L 284.006182 208.943709 
L 282.006182 208.943709 
L 282.006182 210.943709 
L 280.006182 210.943709 
L 280.006182 212.943709 
L 282.006182 212.943709 
z
" clip-path="url(#p3e1eb164d0)" style="fill: #9467bd; stroke: #ffffff; stroke-width: 0.48"/>
    <path d="M 283.006182 171.032653 
C 283.801791 171.032653 284.564922 170.716554 285.127502 170.153974 
C 285.690083 169.591393 286.006182 168.828263 286.006182 168.032653 
C 286.006182 167.237044 285.690083 166.473914 285.127502 165.911333 
C 284.564922 165.348752 283.801791 165.032653 283.006182 165.032653 
C 282.210573 165.032653 281.447442 165.348752 280.884862 165.911333 
C 280.322281 166.473914 280.006182 167.237044 280.006182 168.032653 
C 280.006182 168.828263 280.322281 169.591393 280.884862 170.153974 
C 281.447442 170.716554 282.210573 171.032653 283.006182 171.032653 
z
" clip-path="url(#p3e1eb164d0)" style="fill: #2ca02c; stroke: #ffffff; stroke-width: 0.48"/>
    <path d="M 289.964609 95.79696 
L 291.964609 95.79696 
L 291.964609 93.79696 
L 293.964609 93.79696 
L 293.964609 91.79696 
L 291.964609 91.79696 
L 291.964609 89.79696 
L 289.964609 89.79696 
L 289.964609 91.79696 
L 287.964609 91.79696 
L 287.964609 93.79696 
L 289.964609 93.79696 
z
" clip-path="url(#p3e1eb164d0)" style="fill: #e377c2; stroke: #ffffff; stroke-width: 0.48"/>
    <path d="M 313.361694 112.873571 
L 314.861694 111.373571 
L 316.361694 112.873571 
L 317.861694 111.373571 
L 316.361694 109.873571 
L 317.861694 108.373571 
L 316.361694 106.873571 
L 314.861694 108.373571 
L 313.361694 106.873571 
L 311.861694 108.373571 
L 313.361694 109.873571 
L 311.861694 111.373571 
z
" clip-path="url(#p3e1eb164d0)" style="fill: #7f7f7f; stroke: #ffffff; stroke-width: 0.48"/>
    <path d="M 313.361694 113.208806 
L 314.861694 111.708806 
L 316.361694 113.208806 
L 317.861694 111.708806 
L 316.361694 110.208806 
L 317.861694 108.708806 
L 316.361694 107.208806 
L 314.861694 108.708806 
L 313.361694 107.208806 
L 311.861694 108.708806 
L 313.361694 110.208806 
L 311.861694 111.708806 
z
" clip-path="url(#p3e1eb164d0)" style="fill: #2ca02c; stroke: #ffffff; stroke-width: 0.48"/>
    <path d="M 314.861694 120.398255 
C 315.657304 120.398255 316.420434 120.082156 316.983015 119.519575 
C 317.545595 118.956994 317.861694 118.193864 317.861694 117.398255 
C 317.861694 116.602645 317.545595 115.839515 316.983015 115.276934 
C 316.420434 114.714353 315.657304 114.398255 314.861694 114.398255 
C 314.066085 114.398255 313.302955 114.714353 312.740374 115.276934 
C 312.177793 115.839515 311.861694 116.602645 311.861694 117.398255 
C 311.861694 118.193864 312.177793 118.956994 312.740374 119.519575 
C 313.302955 120.082156 314.066085 120.398255 314.861694 120.398255 
z
" clip-path="url(#p3e1eb164d0)" style="fill: #bcbd22; stroke: #ffffff; stroke-width: 0.48"/>
    <path d="M 321.820121 190.342415 
L 323.820121 190.342415 
L 323.820121 188.342415 
L 325.820121 188.342415 
L 325.820121 186.342415 
L 323.820121 186.342415 
L 323.820121 184.342415 
L 321.820121 184.342415 
L 321.820121 186.342415 
L 319.820121 186.342415 
L 319.820121 188.342415 
L 321.820121 188.342415 
z
" clip-path="url(#p3e1eb164d0)" style="fill: #9467bd; stroke: #ffffff; stroke-width: 0.48"/>
    <path d="M 321.820121 148.925233 
L 323.820121 148.925233 
L 323.820121 146.925233 
L 325.820121 146.925233 
L 325.820121 144.925233 
L 323.820121 144.925233 
L 323.820121 142.925233 
L 321.820121 142.925233 
L 321.820121 144.925233 
L 319.820121 144.925233 
L 319.820121 146.925233 
L 321.820121 146.925233 
z
" clip-path="url(#p3e1eb164d0)" style="fill: #7f7f7f; stroke: #ffffff; stroke-width: 0.48"/>
    <path d="M 329.778548 120.398255 
L 331.778548 120.398255 
L 331.778548 118.398255 
L 333.778548 118.398255 
L 333.778548 116.398255 
L 331.778548 116.398255 
L 331.778548 114.398255 
L 329.778548 114.398255 
L 329.778548 116.398255 
L 327.778548 116.398255 
L 327.778548 118.398255 
L 329.778548 118.398255 
z
" clip-path="url(#p3e1eb164d0)" style="fill: #ff7f0e; stroke: #ffffff; stroke-width: 0.48"/>
    <path d="M 330.778548 233.8528 
C 331.574158 233.8528 332.337288 233.536701 332.899869 232.97412 
C 333.46245 232.41154 333.778548 231.648409 333.778548 230.8528 
C 333.778548 230.057191 333.46245 229.29406 332.899869 228.73148 
C 332.337288 228.168899 331.574158 227.8528 330.778548 227.8528 
C 329.982939 227.8528 329.219809 228.168899 328.657228 228.73148 
C 328.094647 229.29406 327.778548 230.057191 327.778548 230.8528 
C 327.778548 231.648409 328.094647 232.41154 328.657228 232.97412 
C 329.219809 233.536701 329.982939 233.8528 330.778548 233.8528 
z
" clip-path="url(#p3e1eb164d0)" style="fill: #e377c2; stroke: #ffffff; stroke-width: 0.48"/>
    <path d="M 337.258779 171.433324 
L 338.758779 169.933324 
L 340.258779 171.433324 
L 341.758779 169.933324 
L 340.258779 168.433324 
L 341.758779 166.933324 
L 340.258779 165.433324 
L 338.758779 166.933324 
L 337.258779 165.433324 
L 335.758779 166.933324 
L 337.258779 168.433324 
L 335.758779 169.933324 
z
" clip-path="url(#p3e1eb164d0)" style="fill: #7f7f7f; stroke: #ffffff; stroke-width: 0.48"/>
    <path d="M 345.217207 109.013847 
L 346.717207 107.513847 
L 348.217207 109.013847 
L 349.717207 107.513847 
L 348.217207 106.013847 
L 349.717207 104.513847 
L 348.217207 103.013847 
L 346.717207 104.513847 
L 345.217207 103.013847 
L 343.717207 104.513847 
L 345.217207 106.013847 
L 343.717207 107.513847 
z
" clip-path="url(#p3e1eb164d0)" style="fill: #7f7f7f; stroke: #ffffff; stroke-width: 0.48"/>
    <path d="M 345.217207 137.280102 
L 346.717207 135.780102 
L 348.217207 137.280102 
L 349.717207 135.780102 
L 348.217207 134.280102 
L 349.717207 132.780102 
L 348.217207 131.280102 
L 346.717207 132.780102 
L 345.217207 131.280102 
L 343.717207 132.780102 
L 345.217207 134.280102 
L 343.717207 135.780102 
z
" clip-path="url(#p3e1eb164d0)" style="fill: #bcbd22; stroke: #ffffff; stroke-width: 0.48"/>
    <path d="M 345.217207 158.216436 
L 346.717207 156.716436 
L 348.217207 158.216436 
L 349.717207 156.716436 
L 348.217207 155.216436 
L 349.717207 153.716436 
L 348.217207 152.216436 
L 346.717207 153.716436 
L 345.217207 152.216436 
L 343.717207 153.716436 
L 345.217207 155.216436 
L 343.717207 156.716436 
z
" clip-path="url(#p3e1eb164d0)" style="fill: #2ca02c; stroke: #ffffff; stroke-width: 0.48"/>
    <path d="M 354.675634 146.832029 
C 355.471243 146.832029 356.234373 146.51593 356.796954 145.95335 
C 357.359535 145.390769 357.675634 144.627639 357.675634 143.832029 
C 357.675634 143.03642 357.359535 142.27329 356.796954 141.710709 
C 356.234373 141.148128 355.471243 140.832029 354.675634 140.832029 
C 353.880024 140.832029 353.116894 141.148128 352.554313 141.710709 
C 351.991733 142.27329 351.675634 143.03642 351.675634 143.832029 
C 351.675634 144.627639 351.991733 145.390769 352.554313 145.95335 
C 353.116894 146.51593 353.880024 146.832029 354.675634 146.832029 
z
" clip-path="url(#p3e1eb164d0)" style="fill: #8c564b; stroke: #ffffff; stroke-width: 0.48"/>
    <path d="M 352.554313 181.836803 
L 352.554313 186.079444 
L 356.796954 186.079444 
L 356.796954 181.836803 
z
" clip-path="url(#p3e1eb164d0)" style="fill: #bcbd22; stroke: #ffffff; stroke-width: 0.48"/>
    <path d="M 362.634061 132.467401 
C 363.42967 132.467401 364.1928 132.151302 364.755381 131.588721 
C 365.317962 131.026141 365.634061 130.26301 365.634061 129.467401 
C 365.634061 128.671792 365.317962 127.908661 364.755381 127.346081 
C 364.1928 126.7835 363.42967 126.467401 362.634061 126.467401 
C 361.838451 126.467401 361.075321 126.7835 360.51274 127.346081 
C 359.95016 127.908661 359.634061 128.671792 359.634061 129.467401 
C 359.634061 130.26301 359.95016 131.026141 360.51274 131.588721 
C 361.075321 132.151302 361.838451 132.467401 362.634061 132.467401 
z
" clip-path="url(#p3e1eb164d0)" style="fill: #d62728; stroke: #ffffff; stroke-width: 0.48"/>
    <path d="M 369.114292 29.019904 
L 370.614292 27.519904 
L 372.114292 29.019904 
L 373.614292 27.519904 
L 372.114292 26.019904 
L 373.614292 24.519904 
L 372.114292 23.019904 
L 370.614292 24.519904 
L 369.114292 23.019904 
L 367.614292 24.519904 
L 369.114292 26.019904 
L 367.614292 27.519904 
z
" clip-path="url(#p3e1eb164d0)" style="fill: #9467bd; stroke: #ffffff; stroke-width: 0.48"/>
    <path d="M 370.614292 156.087994 
L 369.553632 158.027333 
L 367.614292 159.087994 
L 369.553632 160.148654 
L 370.614292 162.087994 
L 371.674952 160.148654 
L 373.614292 159.087994 
L 371.674952 158.027333 
z
" clip-path="url(#p3e1eb164d0)" style="fill: #d62728; stroke: #ffffff; stroke-width: 0.48"/>
    <path d="M 368.492971 219.70955 
L 368.492971 223.952191 
L 372.735612 223.952191 
L 372.735612 219.70955 
z
" clip-path="url(#p3e1eb164d0)" style="fill: #bcbd22; stroke: #ffffff; stroke-width: 0.48"/>
    <path d="M 378.572719 90.104757 
C 379.368328 90.104757 380.131458 89.788658 380.694039 89.226077 
C 381.25662 88.663496 381.572719 87.900366 381.572719 87.104757 
C 381.572719 86.309147 381.25662 85.546017 380.694039 84.983436 
C 380.131458 84.420855 379.368328 84.104757 378.572719 84.104757 
C 377.777109 84.104757 377.013979 84.420855 376.451398 84.983436 
C 375.888818 85.546017 375.572719 86.309147 375.572719 87.104757 
C 375.572719 87.900366 375.888818 88.663496 376.451398 89.226077 
C 377.013979 89.788658 377.777109 90.104757 378.572719 90.104757 
z
" clip-path="url(#p3e1eb164d0)" style="fill: #2ca02c; stroke: #ffffff; stroke-width: 0.48"/>
    <path d="M 385.031146 137.474865 
L 386.531146 135.974865 
L 388.031146 137.474865 
L 389.531146 135.974865 
L 388.031146 134.474865 
L 389.531146 132.974865 
L 388.031146 131.474865 
L 386.531146 132.974865 
L 385.031146 131.474865 
L 383.531146 132.974865 
L 385.031146 134.474865 
L 383.531146 135.974865 
z
" clip-path="url(#p3e1eb164d0)" style="fill: #9467bd; stroke: #ffffff; stroke-width: 0.48"/>
    <path d="M 384.409825 85.848669 
L 384.409825 90.091309 
L 388.652466 90.091309 
L 388.652466 85.848669 
z
" clip-path="url(#p3e1eb164d0)" style="fill: #d62728; stroke: #ffffff; stroke-width: 0.48"/>
    <path d="M 392.368253 140.622273 
L 392.368253 144.864914 
L 396.610893 144.864914 
L 396.610893 140.622273 
z
" clip-path="url(#p3e1eb164d0)" style="fill: #2ca02c; stroke: #ffffff; stroke-width: 0.48"/>
    <path d="M 392.368253 181.836803 
L 392.368253 186.079444 
L 396.610893 186.079444 
L 396.610893 181.836803 
z
" clip-path="url(#p3e1eb164d0)" style="fill: #d62728; stroke: #ffffff; stroke-width: 0.48"/>
    <path d="M 394.489573 139.57723 
C 395.285182 139.57723 396.048313 139.261131 396.610893 138.69855 
C 397.173474 138.135969 397.489573 137.372839 397.489573 136.57723 
C 397.489573 135.78162 397.173474 135.01849 396.610893 134.455909 
C 396.048313 133.893329 395.285182 133.57723 394.489573 133.57723 
C 393.693964 133.57723 392.930833 133.893329 392.368253 134.455909 
C 391.805672 135.01849 391.489573 135.78162 391.489573 136.57723 
C 391.489573 137.372839 391.805672 138.135969 392.368253 138.69855 
C 392.930833 139.261131 393.693964 139.57723 394.489573 139.57723 
z
" clip-path="url(#p3e1eb164d0)" style="fill: #9467bd; stroke: #ffffff; stroke-width: 0.48"/>
   </g>
   <g id="matplotlib.axis_1">
    <g id="xtick_1">
     <g id="line2d_1">
      <defs>
       <path id="m4e1568863c" d="M 0 0 
L 0 3.5 
" style="stroke: #262626; stroke-width: 0.8"/>
      </defs>
      <g>
       <use xlink:href="#m4e1568863c" x="83.914682" y="241.2528" style="fill: #262626; stroke: #262626; stroke-width: 0.8"/>
      </g>
     </g>
     <g id="text_1">
      <!-- 1985 -->
      <g style="fill: #262626" transform="translate(72.792807 255.499675) scale(0.1 -0.1)">
       <defs>
        <path id="LiberationSans-31" d="M 488 0 
L 488 478 
L 1609 478 
L 1609 3866 
L 616 3156 
L 616 3688 
L 1656 4403 
L 2175 4403 
L 2175 478 
L 3247 478 
L 3247 0 
L 488 0 
z
" transform="scale(0.015625)"/>
        <path id="LiberationSans-39" d="M 3256 2291 
Q 3256 1156 2842 546 
Q 2428 -63 1663 -63 
Q 1147 -63 836 154 
Q 525 372 391 856 
L 928 941 
Q 1097 391 1672 391 
Q 2156 391 2422 841 
Q 2688 1291 2700 2125 
Q 2575 1844 2272 1673 
Q 1969 1503 1606 1503 
Q 1013 1503 656 1909 
Q 300 2316 300 2988 
Q 300 3678 687 4073 
Q 1075 4469 1766 4469 
Q 2500 4469 2878 3925 
Q 3256 3381 3256 2291 
z
M 2644 2834 
Q 2644 3366 2400 3689 
Q 2156 4013 1747 4013 
Q 1341 4013 1106 3736 
Q 872 3459 872 2988 
Q 872 2506 1106 2226 
Q 1341 1947 1741 1947 
Q 1984 1947 2193 2058 
Q 2403 2169 2523 2372 
Q 2644 2575 2644 2834 
z
" transform="scale(0.015625)"/>
        <path id="LiberationSans-38" d="M 3281 1228 
Q 3281 619 2893 278 
Q 2506 -63 1781 -63 
Q 1075 -63 676 271 
Q 278 606 278 1222 
Q 278 1653 525 1947 
Q 772 2241 1156 2303 
L 1156 2316 
Q 797 2400 589 2681 
Q 381 2963 381 3341 
Q 381 3844 757 4156 
Q 1134 4469 1769 4469 
Q 2419 4469 2795 4162 
Q 3172 3856 3172 3334 
Q 3172 2956 2962 2675 
Q 2753 2394 2391 2322 
L 2391 2309 
Q 2813 2241 3047 1952 
Q 3281 1663 3281 1228 
z
M 2588 3303 
Q 2588 4050 1769 4050 
Q 1372 4050 1164 3862 
Q 956 3675 956 3303 
Q 956 2925 1170 2726 
Q 1384 2528 1775 2528 
Q 2172 2528 2380 2711 
Q 2588 2894 2588 3303 
z
M 2697 1281 
Q 2697 1691 2453 1898 
Q 2209 2106 1769 2106 
Q 1341 2106 1100 1882 
Q 859 1659 859 1269 
Q 859 359 1788 359 
Q 2247 359 2472 579 
Q 2697 800 2697 1281 
z
" transform="scale(0.015625)"/>
        <path id="LiberationSans-35" d="M 3291 1434 
Q 3291 738 2877 337 
Q 2463 -63 1728 -63 
Q 1113 -63 734 206 
Q 356 475 256 984 
L 825 1050 
Q 1003 397 1741 397 
Q 2194 397 2450 670 
Q 2706 944 2706 1422 
Q 2706 1838 2448 2094 
Q 2191 2350 1753 2350 
Q 1525 2350 1328 2278 
Q 1131 2206 934 2034 
L 384 2034 
L 531 4403 
L 3034 4403 
L 3034 3925 
L 1044 3925 
L 959 2528 
Q 1325 2809 1869 2809 
Q 2519 2809 2905 2428 
Q 3291 2047 3291 1434 
z
" transform="scale(0.015625)"/>
       </defs>
       <use xlink:href="#LiberationSans-31"/>
       <use xlink:href="#LiberationSans-39" x="55.615234"/>
       <use xlink:href="#LiberationSans-38" x="111.230469"/>
       <use xlink:href="#LiberationSans-35" x="166.845703"/>
      </g>
     </g>
    </g>
    <g id="xtick_2">
     <g id="line2d_2">
      <g>
       <use xlink:href="#m4e1568863c" x="123.728621" y="241.2528" style="fill: #262626; stroke: #262626; stroke-width: 0.8"/>
      </g>
     </g>
     <g id="text_2">
      <!-- 1990 -->
      <g style="fill: #262626" transform="translate(112.606746 255.499675) scale(0.1 -0.1)">
       <defs>
        <path id="LiberationSans-30" d="M 3309 2203 
Q 3309 1100 2920 518 
Q 2531 -63 1772 -63 
Q 1013 -63 631 515 
Q 250 1094 250 2203 
Q 250 3338 620 3903 
Q 991 4469 1791 4469 
Q 2569 4469 2939 3897 
Q 3309 3325 3309 2203 
z
M 2738 2203 
Q 2738 3156 2517 3584 
Q 2297 4013 1791 4013 
Q 1272 4013 1045 3591 
Q 819 3169 819 2203 
Q 819 1266 1048 831 
Q 1278 397 1778 397 
Q 2275 397 2506 840 
Q 2738 1284 2738 2203 
z
" transform="scale(0.015625)"/>
       </defs>
       <use xlink:href="#LiberationSans-31"/>
       <use xlink:href="#LiberationSans-39" x="55.615234"/>
       <use xlink:href="#LiberationSans-39" x="111.230469"/>
       <use xlink:href="#LiberationSans-30" x="166.845703"/>
      </g>
     </g>
    </g>
    <g id="xtick_3">
     <g id="line2d_3">
      <g>
       <use xlink:href="#m4e1568863c" x="163.54256" y="241.2528" style="fill: #262626; stroke: #262626; stroke-width: 0.8"/>
      </g>
     </g>
     <g id="text_3">
      <!-- 1995 -->
      <g style="fill: #262626" transform="translate(152.420685 255.499675) scale(0.1 -0.1)">
       <use xlink:href="#LiberationSans-31"/>
       <use xlink:href="#LiberationSans-39" x="55.615234"/>
       <use xlink:href="#LiberationSans-39" x="111.230469"/>
       <use xlink:href="#LiberationSans-35" x="166.845703"/>
      </g>
     </g>
    </g>
    <g id="xtick_4">
     <g id="line2d_4">
      <g>
       <use xlink:href="#m4e1568863c" x="203.3565" y="241.2528" style="fill: #262626; stroke: #262626; stroke-width: 0.8"/>
      </g>
     </g>
     <g id="text_4">
      <!-- 2000 -->
      <g style="fill: #262626" transform="translate(192.234625 255.499675) scale(0.1 -0.1)">
       <defs>
        <path id="LiberationSans-32" d="M 322 0 
L 322 397 
Q 481 763 711 1042 
Q 941 1322 1194 1548 
Q 1447 1775 1695 1969 
Q 1944 2163 2144 2356 
Q 2344 2550 2467 2762 
Q 2591 2975 2591 3244 
Q 2591 3606 2378 3806 
Q 2166 4006 1788 4006 
Q 1428 4006 1195 3811 
Q 963 3616 922 3263 
L 347 3316 
Q 409 3844 795 4156 
Q 1181 4469 1788 4469 
Q 2453 4469 2811 4155 
Q 3169 3841 3169 3263 
Q 3169 3006 3051 2753 
Q 2934 2500 2703 2247 
Q 2472 1994 1819 1463 
Q 1459 1169 1246 933 
Q 1034 697 941 478 
L 3238 478 
L 3238 0 
L 322 0 
z
" transform="scale(0.015625)"/>
       </defs>
       <use xlink:href="#LiberationSans-32"/>
       <use xlink:href="#LiberationSans-30" x="55.615234"/>
       <use xlink:href="#LiberationSans-30" x="111.230469"/>
       <use xlink:href="#LiberationSans-30" x="166.845703"/>
      </g>
     </g>
    </g>
    <g id="xtick_5">
     <g id="line2d_5">
      <g>
       <use xlink:href="#m4e1568863c" x="243.192243" y="241.2528" style="fill: #262626; stroke: #262626; stroke-width: 0.8"/>
      </g>
     </g>
     <g id="text_5">
      <!-- 2005 -->
      <g style="fill: #262626" transform="translate(232.070368 255.499675) scale(0.1 -0.1)">
       <use xlink:href="#LiberationSans-32"/>
       <use xlink:href="#LiberationSans-30" x="55.615234"/>
       <use xlink:href="#LiberationSans-30" x="111.230469"/>
       <use xlink:href="#LiberationSans-35" x="166.845703"/>
      </g>
     </g>
    </g>
    <g id="xtick_6">
     <g id="line2d_6">
      <g>
       <use xlink:href="#m4e1568863c" x="283.006182" y="241.2528" style="fill: #262626; stroke: #262626; stroke-width: 0.8"/>
      </g>
     </g>
     <g id="text_6">
      <!-- 2010 -->
      <g style="fill: #262626" transform="translate(271.884307 255.499675) scale(0.1 -0.1)">
       <use xlink:href="#LiberationSans-32"/>
       <use xlink:href="#LiberationSans-30" x="55.615234"/>
       <use xlink:href="#LiberationSans-31" x="111.230469"/>
       <use xlink:href="#LiberationSans-30" x="166.845703"/>
      </g>
     </g>
    </g>
    <g id="xtick_7">
     <g id="line2d_7">
      <g>
       <use xlink:href="#m4e1568863c" x="322.820121" y="241.2528" style="fill: #262626; stroke: #262626; stroke-width: 0.8"/>
      </g>
     </g>
     <g id="text_7">
      <!-- 2015 -->
      <g style="fill: #262626" transform="translate(311.698246 255.499675) scale(0.1 -0.1)">
       <use xlink:href="#LiberationSans-32"/>
       <use xlink:href="#LiberationSans-30" x="55.615234"/>
       <use xlink:href="#LiberationSans-31" x="111.230469"/>
       <use xlink:href="#LiberationSans-35" x="166.845703"/>
      </g>
     </g>
    </g>
    <g id="xtick_8">
     <g id="line2d_8">
      <g>
       <use xlink:href="#m4e1568863c" x="362.634061" y="241.2528" style="fill: #262626; stroke: #262626; stroke-width: 0.8"/>
      </g>
     </g>
     <g id="text_8">
      <!-- 2020 -->
      <g style="fill: #262626" transform="translate(351.512186 255.499675) scale(0.1 -0.1)">
       <use xlink:href="#LiberationSans-32"/>
       <use xlink:href="#LiberationSans-30" x="55.615234"/>
       <use xlink:href="#LiberationSans-32" x="111.230469"/>
       <use xlink:href="#LiberationSans-30" x="166.845703"/>
      </g>
     </g>
    </g>
    <g id="text_9">
     <!-- Year -->
     <g style="fill: #262626" transform="translate(217.148897 268.82155) scale(0.1 -0.1)">
      <defs>
       <path id="LiberationSans-59" d="M 2428 1825 
L 2428 0 
L 1834 0 
L 1834 1825 
L 141 4403 
L 797 4403 
L 2138 2306 
L 3472 4403 
L 4128 4403 
L 2428 1825 
z
" transform="scale(0.015625)"/>
       <path id="LiberationSans-65" d="M 863 1572 
Q 863 991 1103 675 
Q 1344 359 1806 359 
Q 2172 359 2392 506 
Q 2613 653 2691 878 
L 3184 738 
Q 2881 -63 1806 -63 
Q 1056 -63 664 384 
Q 272 831 272 1713 
Q 272 2550 664 2997 
Q 1056 3444 1784 3444 
Q 3275 3444 3275 1647 
L 3275 1572 
L 863 1572 
z
M 2694 2003 
Q 2647 2538 2422 2783 
Q 2197 3028 1775 3028 
Q 1366 3028 1127 2754 
Q 888 2481 869 2003 
L 2694 2003 
z
" transform="scale(0.015625)"/>
       <path id="LiberationSans-61" d="M 1294 -63 
Q 784 -63 528 206 
Q 272 475 272 944 
Q 272 1469 617 1750 
Q 963 2031 1731 2050 
L 2491 2063 
L 2491 2247 
Q 2491 2659 2316 2837 
Q 2141 3016 1766 3016 
Q 1388 3016 1216 2887 
Q 1044 2759 1009 2478 
L 422 2531 
Q 566 3444 1778 3444 
Q 2416 3444 2737 3151 
Q 3059 2859 3059 2306 
L 3059 850 
Q 3059 600 3125 473 
Q 3191 347 3375 347 
Q 3456 347 3559 369 
L 3559 19 
Q 3347 -31 3125 -31 
Q 2813 -31 2670 133 
Q 2528 297 2509 647 
L 2491 647 
Q 2275 259 1989 98 
Q 1703 -63 1294 -63 
z
M 1422 359 
Q 1731 359 1972 500 
Q 2213 641 2352 886 
Q 2491 1131 2491 1391 
L 2491 1669 
L 1875 1656 
Q 1478 1650 1273 1575 
Q 1069 1500 959 1344 
Q 850 1188 850 934 
Q 850 659 998 509 
Q 1147 359 1422 359 
z
" transform="scale(0.015625)"/>
       <path id="LiberationSans-72" d="M 444 0 
L 444 2594 
Q 444 2950 425 3381 
L 956 3381 
Q 981 2806 981 2691 
L 994 2691 
Q 1128 3125 1303 3284 
Q 1478 3444 1797 3444 
Q 1909 3444 2025 3413 
L 2025 2897 
Q 1913 2928 1725 2928 
Q 1375 2928 1190 2626 
Q 1006 2325 1006 1763 
L 1006 0 
L 444 0 
z
" transform="scale(0.015625)"/>
      </defs>
      <use xlink:href="#LiberationSans-59"/>
      <use xlink:href="#LiberationSans-65" x="57.574219"/>
      <use xlink:href="#LiberationSans-61" x="113.189453"/>
      <use xlink:href="#LiberationSans-72" x="168.804688"/>
     </g>
    </g>
   </g>
   <g id="matplotlib.axis_2">
    <g id="ytick_1">
     <g id="line2d_9">
      <defs>
       <path id="m26c3ab7626" d="M 0 0 
L -3.5 0 
" style="stroke: #262626; stroke-width: 0.8"/>
      </defs>
      <g>
       <use xlink:href="#m26c3ab7626" x="52.059169" y="211.943709" style="fill: #262626; stroke: #262626; stroke-width: 0.8"/>
      </g>
     </g>
     <g id="text_10">
      <!-- $\mathdefault{10^{1}}$ -->
      <g style="fill: #262626" transform="translate(29.659169 215.567147) scale(0.1 -0.1)">
       <use xlink:href="#LiberationSans-31" transform="translate(0 0.8625)"/>
       <use xlink:href="#LiberationSans-30" transform="translate(55.615234 0.8625)"/>
       <use xlink:href="#LiberationSans-31" transform="translate(112.154961 37.842188) scale(0.7)"/>
      </g>
     </g>
    </g>
    <g id="ytick_2">
     <g id="line2d_10">
      <g>
       <use xlink:href="#m26c3ab7626" x="52.059169" y="174.125527" style="fill: #262626; stroke: #262626; stroke-width: 0.8"/>
      </g>
     </g>
     <g id="text_11">
      <!-- $\mathdefault{10^{3}}$ -->
      <g style="fill: #262626" transform="translate(29.659169 177.748965) scale(0.1 -0.1)">
       <defs>
        <path id="LiberationSans-33" d="M 3278 1216 
Q 3278 606 2890 271 
Q 2503 -63 1784 -63 
Q 1116 -63 717 239 
Q 319 541 244 1131 
L 825 1184 
Q 938 403 1784 403 
Q 2209 403 2451 612 
Q 2694 822 2694 1234 
Q 2694 1594 2417 1795 
Q 2141 1997 1619 1997 
L 1300 1997 
L 1300 2484 
L 1606 2484 
Q 2069 2484 2323 2686 
Q 2578 2888 2578 3244 
Q 2578 3597 2370 3801 
Q 2163 4006 1753 4006 
Q 1381 4006 1151 3815 
Q 922 3625 884 3278 
L 319 3322 
Q 381 3863 767 4166 
Q 1153 4469 1759 4469 
Q 2422 4469 2789 4161 
Q 3156 3853 3156 3303 
Q 3156 2881 2920 2617 
Q 2684 2353 2234 2259 
L 2234 2247 
Q 2728 2194 3003 1916 
Q 3278 1638 3278 1216 
z
" transform="scale(0.015625)"/>
       </defs>
       <use xlink:href="#LiberationSans-31" transform="translate(0 0.140625)"/>
       <use xlink:href="#LiberationSans-30" transform="translate(55.615234 0.140625)"/>
       <use xlink:href="#LiberationSans-33" transform="translate(112.154961 37.120312) scale(0.7)"/>
      </g>
     </g>
    </g>
    <g id="ytick_3">
     <g id="line2d_11">
      <g>
       <use xlink:href="#m26c3ab7626" x="52.059169" y="136.307345" style="fill: #262626; stroke: #262626; stroke-width: 0.8"/>
      </g>
     </g>
     <g id="text_12">
      <!-- $\mathdefault{10^{5}}$ -->
      <g style="fill: #262626" transform="translate(29.659169 139.930783) scale(0.1 -0.1)">
       <use xlink:href="#LiberationSans-31" transform="translate(0 0.8625)"/>
       <use xlink:href="#LiberationSans-30" transform="translate(55.615234 0.8625)"/>
       <use xlink:href="#LiberationSans-35" transform="translate(112.154961 37.842188) scale(0.7)"/>
      </g>
     </g>
    </g>
    <g id="ytick_4">
     <g id="line2d_12">
      <g>
       <use xlink:href="#m26c3ab7626" x="52.059169" y="98.489164" style="fill: #262626; stroke: #262626; stroke-width: 0.8"/>
      </g>
     </g>
     <g id="text_13">
      <!-- $\mathdefault{10^{7}}$ -->
      <g style="fill: #262626" transform="translate(29.659169 102.112601) scale(0.1 -0.1)">
       <defs>
        <path id="LiberationSans-37" d="M 3238 3947 
Q 2563 2916 2284 2331 
Q 2006 1747 1867 1178 
Q 1728 609 1728 0 
L 1141 0 
Q 1141 844 1498 1776 
Q 1856 2709 2694 3925 
L 328 3925 
L 328 4403 
L 3238 4403 
L 3238 3947 
z
" transform="scale(0.015625)"/>
       </defs>
       <use xlink:href="#LiberationSans-31" transform="translate(0 0.8625)"/>
       <use xlink:href="#LiberationSans-30" transform="translate(55.615234 0.8625)"/>
       <use xlink:href="#LiberationSans-37" transform="translate(112.154961 37.842188) scale(0.7)"/>
      </g>
     </g>
    </g>
    <g id="ytick_5">
     <g id="line2d_13">
      <g>
       <use xlink:href="#m26c3ab7626" x="52.059169" y="60.670982" style="fill: #262626; stroke: #262626; stroke-width: 0.8"/>
      </g>
     </g>
     <g id="text_14">
      <!-- $\mathdefault{10^{9}}$ -->
      <g style="fill: #262626" transform="translate(29.659169 64.294419) scale(0.1 -0.1)">
       <use xlink:href="#LiberationSans-31" transform="translate(0 0.140625)"/>
       <use xlink:href="#LiberationSans-30" transform="translate(55.615234 0.140625)"/>
       <use xlink:href="#LiberationSans-39" transform="translate(112.154961 37.120312) scale(0.7)"/>
      </g>
     </g>
    </g>
    <g id="ytick_6">
     <g id="line2d_14">
      <g>
       <use xlink:href="#m26c3ab7626" x="52.059169" y="22.8528" style="fill: #262626; stroke: #262626; stroke-width: 0.8"/>
      </g>
     </g>
     <g id="text_15">
      <!-- $\mathdefault{10^{11}}$ -->
      <g style="fill: #262626" transform="translate(25.759169 26.476238) scale(0.1 -0.1)">
       <use xlink:href="#LiberationSans-31" transform="translate(0 0.8625)"/>
       <use xlink:href="#LiberationSans-30" transform="translate(55.615234 0.8625)"/>
       <use xlink:href="#LiberationSans-31" transform="translate(112.154961 37.842188) scale(0.7)"/>
       <use xlink:href="#LiberationSans-31" transform="translate(151.085625 37.842188) scale(0.7)"/>
      </g>
     </g>
    </g>
    <g id="text_16">
     <!-- # of Neurons -->
     <g style="fill: #262626" transform="translate(19.684169 155.478581) rotate(-90) scale(0.1 -0.1)">
      <defs>
       <path id="LiberationSans-23" d="M 2800 2766 
L 2556 1613 
L 3369 1613 
L 3369 1275 
L 2484 1275 
L 2209 0 
L 1866 0 
L 2134 1275 
L 1000 1275 
L 738 0 
L 394 0 
L 656 1275 
L 28 1275 
L 28 1613 
L 731 1613 
L 975 2766 
L 188 2766 
L 188 3103 
L 1044 3103 
L 1322 4378 
L 1666 4378 
L 1391 3103 
L 2525 3103 
L 2800 4378 
L 3144 4378 
L 2869 3103 
L 3528 3103 
L 3528 2766 
L 2800 2766 
z
M 1328 2766 
L 1078 1613 
L 2209 1613 
L 2453 2766 
L 1328 2766 
z
" transform="scale(0.015625)"/>
       <path id="LiberationSans-20" transform="scale(0.015625)"/>
       <path id="LiberationSans-6f" d="M 3291 1694 
Q 3291 806 2900 371 
Q 2509 -63 1766 -63 
Q 1025 -63 647 389 
Q 269 841 269 1694 
Q 269 3444 1784 3444 
Q 2559 3444 2925 3017 
Q 3291 2591 3291 1694 
z
M 2700 1694 
Q 2700 2394 2492 2711 
Q 2284 3028 1794 3028 
Q 1300 3028 1079 2704 
Q 859 2381 859 1694 
Q 859 1025 1076 689 
Q 1294 353 1759 353 
Q 2266 353 2483 678 
Q 2700 1003 2700 1694 
z
" transform="scale(0.015625)"/>
       <path id="LiberationSans-66" d="M 1128 2972 
L 1128 0 
L 566 0 
L 566 2972 
L 91 2972 
L 91 3381 
L 566 3381 
L 566 3763 
Q 566 4225 769 4428 
Q 972 4631 1391 4631 
Q 1625 4631 1788 4594 
L 1788 4166 
Q 1647 4191 1538 4191 
Q 1322 4191 1225 4081 
Q 1128 3972 1128 3684 
L 1128 3381 
L 1788 3381 
L 1788 2972 
L 1128 2972 
z
" transform="scale(0.015625)"/>
       <path id="LiberationSans-4e" d="M 3381 0 
L 1025 3750 
L 1041 3447 
L 1056 2925 
L 1056 0 
L 525 0 
L 525 4403 
L 1219 4403 
L 3600 628 
Q 3563 1241 3563 1516 
L 3563 4403 
L 4100 4403 
L 4100 0 
L 3381 0 
z
" transform="scale(0.015625)"/>
       <path id="LiberationSans-75" d="M 981 3381 
L 981 1238 
Q 981 903 1047 718 
Q 1113 534 1256 453 
Q 1400 372 1678 372 
Q 2084 372 2318 650 
Q 2553 928 2553 1422 
L 2553 3381 
L 3116 3381 
L 3116 722 
Q 3116 131 3134 0 
L 2603 0 
Q 2600 16 2597 84 
Q 2594 153 2589 242 
Q 2584 331 2578 578 
L 2569 578 
Q 2375 228 2120 82 
Q 1866 -63 1488 -63 
Q 931 -63 673 214 
Q 416 491 416 1128 
L 416 3381 
L 981 3381 
z
" transform="scale(0.015625)"/>
       <path id="LiberationSans-6e" d="M 2578 0 
L 2578 2144 
Q 2578 2478 2512 2662 
Q 2447 2847 2303 2928 
Q 2159 3009 1881 3009 
Q 1475 3009 1240 2731 
Q 1006 2453 1006 1959 
L 1006 0 
L 444 0 
L 444 2659 
Q 444 3250 425 3381 
L 956 3381 
Q 959 3366 962 3297 
Q 966 3228 970 3139 
Q 975 3050 981 2803 
L 991 2803 
Q 1184 3153 1439 3298 
Q 1694 3444 2072 3444 
Q 2628 3444 2886 3167 
Q 3144 2891 3144 2253 
L 3144 0 
L 2578 0 
z
" transform="scale(0.015625)"/>
       <path id="LiberationSans-73" d="M 2969 934 
Q 2969 456 2608 196 
Q 2247 -63 1597 -63 
Q 966 -63 623 145 
Q 281 353 178 794 
L 675 891 
Q 747 619 972 492 
Q 1197 366 1597 366 
Q 2025 366 2223 497 
Q 2422 628 2422 891 
Q 2422 1091 2284 1216 
Q 2147 1341 1841 1422 
L 1438 1528 
Q 953 1653 748 1773 
Q 544 1894 428 2066 
Q 313 2238 313 2488 
Q 313 2950 642 3192 
Q 972 3434 1603 3434 
Q 2163 3434 2492 3237 
Q 2822 3041 2909 2606 
L 2403 2544 
Q 2356 2769 2151 2889 
Q 1947 3009 1603 3009 
Q 1222 3009 1040 2893 
Q 859 2778 859 2544 
Q 859 2400 934 2306 
Q 1009 2213 1156 2147 
Q 1303 2081 1775 1966 
Q 2222 1853 2419 1758 
Q 2616 1663 2730 1547 
Q 2844 1431 2906 1279 
Q 2969 1128 2969 934 
z
" transform="scale(0.015625)"/>
      </defs>
      <use xlink:href="#LiberationSans-23"/>
      <use xlink:href="#LiberationSans-20" x="55.615234"/>
      <use xlink:href="#LiberationSans-6f" x="83.398438"/>
      <use xlink:href="#LiberationSans-66" x="139.013672"/>
      <use xlink:href="#LiberationSans-20" x="166.796875"/>
      <use xlink:href="#LiberationSans-4e" x="194.580078"/>
      <use xlink:href="#LiberationSans-65" x="266.796875"/>
      <use xlink:href="#LiberationSans-75" x="322.412109"/>
      <use xlink:href="#LiberationSans-72" x="378.027344"/>
      <use xlink:href="#LiberationSans-6f" x="411.328125"/>
      <use xlink:href="#LiberationSans-6e" x="466.943359"/>
      <use xlink:href="#LiberationSans-73" x="522.558594"/>
     </g>
    </g>
   </g>
   <g id="line2d_15"/>
   <g id="line2d_16"/>
   <g id="line2d_17"/>
   <g id="line2d_18"/>
   <g id="line2d_19"/>
   <g id="line2d_20"/>
   <g id="line2d_21"/>
   <g id="line2d_22"/>
   <g id="line2d_23"/>
   <g id="line2d_24"/>
   <g id="line2d_25"/>
   <g id="line2d_26"/>
   <g id="line2d_27"/>
   <g id="line2d_28"/>
   <g id="line2d_29"/>
   <g id="line2d_30"/>
   <g id="line2d_31"/>
   <g id="LineCollection_1">
    <path d="M 52.059169 183.958123 
L 402.448 183.958123 
" clip-path="url(#p3e1eb164d0)" style="fill: none; stroke-dasharray: 1.5,2.475; stroke-dashoffset: 0; stroke: #808080; stroke-width: 1.5"/>
   </g>
   <g id="LineCollection_2">
    <path d="M 52.059169 136.307345 
L 402.448 136.307345 
" clip-path="url(#p3e1eb164d0)" style="fill: none; stroke-dasharray: 1.5,2.475; stroke-dashoffset: 0; stroke: #808080; stroke-width: 1.5"/>
   </g>
   <g id="LineCollection_3">
    <path d="M 52.059169 82.762439 
L 402.448 82.762439 
" clip-path="url(#p3e1eb164d0)" style="fill: none; stroke-dasharray: 1.5,2.475; stroke-dashoffset: 0; stroke: #808080; stroke-width: 1.5"/>
   </g>
   <g id="LineCollection_4">
    <path d="M 52.059169 45.457499 
L 402.448 45.457499 
" clip-path="url(#p3e1eb164d0)" style="fill: none; stroke-dasharray: 1.5,2.475; stroke-dashoffset: 0; stroke: #808080; stroke-width: 1.5"/>
   </g>
   <g id="LineCollection_5">
    <path d="M 52.059169 24.085647 
L 402.448 24.085647 
" clip-path="url(#p3e1eb164d0)" style="fill: none; stroke-dasharray: 1.5,2.475; stroke-dashoffset: 0; stroke: #808080; stroke-width: 1.5"/>
   </g>
   <g id="patch_3">
    <path d="M 52.059169 241.2528 
L 52.059169 12.4528 
" style="fill: none; stroke: #262626; stroke-width: 0.8; stroke-linejoin: miter; stroke-linecap: square"/>
   </g>
   <g id="patch_4">
    <path d="M 402.448 241.2528 
L 402.448 12.4528 
" style="fill: none; stroke: #262626; stroke-width: 0.8; stroke-linejoin: miter; stroke-linecap: square"/>
   </g>
   <g id="patch_5">
    <path d="M 52.059169 241.2528 
L 402.448 241.2528 
" style="fill: none; stroke: #262626; stroke-width: 0.8; stroke-linejoin: miter; stroke-linecap: square"/>
   </g>
   <g id="patch_6">
    <path d="M 52.059169 12.4528 
L 402.448 12.4528 
" style="fill: none; stroke: #262626; stroke-width: 0.8; stroke-linejoin: miter; stroke-linecap: square"/>
   </g>
   <g id="text_17">
    <!-- C. elegans -->
    <g style="fill: #808080" transform="translate(83.914682 181.883123) scale(0.1 -0.1)">
     <defs>
      <path id="LiberationSans-43" d="M 2475 3981 
Q 1744 3981 1337 3511 
Q 931 3041 931 2222 
Q 931 1413 1354 920 
Q 1778 428 2500 428 
Q 3425 428 3891 1344 
L 4378 1100 
Q 4106 531 3614 234 
Q 3122 -63 2472 -63 
Q 1806 -63 1320 214 
Q 834 491 579 1005 
Q 325 1519 325 2222 
Q 325 3275 894 3872 
Q 1463 4469 2469 4469 
Q 3172 4469 3644 4194 
Q 4116 3919 4338 3378 
L 3772 3191 
Q 3619 3575 3280 3778 
Q 2941 3981 2475 3981 
z
" transform="scale(0.015625)"/>
      <path id="LiberationSans-2e" d="M 584 0 
L 584 684 
L 1194 684 
L 1194 0 
L 584 0 
z
" transform="scale(0.015625)"/>
      <path id="LiberationSans-6c" d="M 431 0 
L 431 4638 
L 994 4638 
L 994 0 
L 431 0 
z
" transform="scale(0.015625)"/>
      <path id="LiberationSans-67" d="M 1713 -1328 
Q 1159 -1328 831 -1111 
Q 503 -894 409 -494 
L 975 -413 
Q 1031 -647 1223 -773 
Q 1416 -900 1728 -900 
Q 2569 -900 2569 84 
L 2569 628 
L 2563 628 
Q 2403 303 2125 139 
Q 1847 -25 1475 -25 
Q 853 -25 561 387 
Q 269 800 269 1684 
Q 269 2581 583 3007 
Q 897 3434 1538 3434 
Q 1897 3434 2161 3270 
Q 2425 3106 2569 2803 
L 2575 2803 
Q 2575 2897 2587 3128 
Q 2600 3359 2613 3381 
L 3147 3381 
Q 3128 3213 3128 2681 
L 3128 97 
Q 3128 -1328 1713 -1328 
z
M 2569 1691 
Q 2569 2103 2456 2401 
Q 2344 2700 2139 2858 
Q 1934 3016 1675 3016 
Q 1244 3016 1047 2703 
Q 850 2391 850 1691 
Q 850 997 1034 694 
Q 1219 391 1666 391 
Q 1931 391 2137 547 
Q 2344 703 2456 995 
Q 2569 1288 2569 1691 
z
" transform="scale(0.015625)"/>
     </defs>
     <use xlink:href="#LiberationSans-43"/>
     <use xlink:href="#LiberationSans-2e" x="72.216797"/>
     <use xlink:href="#LiberationSans-20" x="100"/>
     <use xlink:href="#LiberationSans-65" x="127.783203"/>
     <use xlink:href="#LiberationSans-6c" x="183.398438"/>
     <use xlink:href="#LiberationSans-65" x="205.615234"/>
     <use xlink:href="#LiberationSans-67" x="261.230469"/>
     <use xlink:href="#LiberationSans-61" x="316.845703"/>
     <use xlink:href="#LiberationSans-6e" x="372.460938"/>
     <use xlink:href="#LiberationSans-73" x="428.076172"/>
    </g>
   </g>
   <g id="text_18">
    <!-- Zebrafish (larva) -->
    <g style="fill: #808080" transform="translate(83.914682 134.232345) scale(0.1 -0.1)">
     <defs>
      <path id="LiberationSans-5a" d="M 3709 0 
L 203 0 
L 203 447 
L 2884 3916 
L 431 3916 
L 431 4403 
L 3563 4403 
L 3563 3969 
L 881 488 
L 3709 488 
L 3709 0 
z
" transform="scale(0.015625)"/>
      <path id="LiberationSans-62" d="M 3291 1706 
Q 3291 -63 2047 -63 
Q 1663 -63 1408 76 
Q 1153 216 994 525 
L 988 525 
Q 988 428 975 229 
Q 963 31 956 0 
L 413 0 
Q 431 169 431 697 
L 431 4638 
L 994 4638 
L 994 3316 
Q 994 3113 981 2838 
L 994 2838 
Q 1150 3163 1408 3303 
Q 1666 3444 2047 3444 
Q 2688 3444 2989 3012 
Q 3291 2581 3291 1706 
z
M 2700 1688 
Q 2700 2397 2512 2703 
Q 2325 3009 1903 3009 
Q 1428 3009 1211 2684 
Q 994 2359 994 1653 
Q 994 988 1206 670 
Q 1419 353 1897 353 
Q 2322 353 2511 667 
Q 2700 981 2700 1688 
z
" transform="scale(0.015625)"/>
      <path id="LiberationSans-69" d="M 428 4100 
L 428 4638 
L 991 4638 
L 991 4100 
L 428 4100 
z
M 428 0 
L 428 3381 
L 991 3381 
L 991 0 
L 428 0 
z
" transform="scale(0.015625)"/>
      <path id="LiberationSans-68" d="M 991 2803 
Q 1172 3134 1426 3289 
Q 1681 3444 2072 3444 
Q 2622 3444 2883 3170 
Q 3144 2897 3144 2253 
L 3144 0 
L 2578 0 
L 2578 2144 
Q 2578 2500 2512 2673 
Q 2447 2847 2297 2928 
Q 2147 3009 1881 3009 
Q 1484 3009 1245 2734 
Q 1006 2459 1006 1994 
L 1006 0 
L 444 0 
L 444 4638 
L 1006 4638 
L 1006 3431 
Q 1006 3241 995 3037 
Q 984 2834 981 2803 
L 991 2803 
z
" transform="scale(0.015625)"/>
      <path id="LiberationSans-28" d="M 397 1663 
Q 397 2566 680 3284 
Q 963 4003 1550 4638 
L 2094 4638 
Q 1509 3988 1236 3256 
Q 963 2525 963 1656 
Q 963 791 1233 62 
Q 1503 -666 2094 -1325 
L 1550 -1325 
Q 959 -688 678 32 
Q 397 753 397 1650 
L 397 1663 
z
" transform="scale(0.015625)"/>
      <path id="LiberationSans-76" d="M 1916 0 
L 1250 0 
L 22 3381 
L 622 3381 
L 1366 1181 
Q 1406 1056 1581 441 
L 1691 806 
L 1813 1175 
L 2581 3381 
L 3178 3381 
L 1916 0 
z
" transform="scale(0.015625)"/>
      <path id="LiberationSans-29" d="M 1734 1650 
Q 1734 747 1451 28 
Q 1169 -691 581 -1325 
L 38 -1325 
Q 625 -669 897 57 
Q 1169 784 1169 1656 
Q 1169 2528 895 3256 
Q 622 3984 38 4638 
L 581 4638 
Q 1172 4000 1453 3279 
Q 1734 2559 1734 1663 
L 1734 1650 
z
" transform="scale(0.015625)"/>
     </defs>
     <use xlink:href="#LiberationSans-5a"/>
     <use xlink:href="#LiberationSans-65" x="61.083984"/>
     <use xlink:href="#LiberationSans-62" x="116.699219"/>
     <use xlink:href="#LiberationSans-72" x="172.314453"/>
     <use xlink:href="#LiberationSans-61" x="205.615234"/>
     <use xlink:href="#LiberationSans-66" x="261.230469"/>
     <use xlink:href="#LiberationSans-69" x="289.013672"/>
     <use xlink:href="#LiberationSans-73" x="311.230469"/>
     <use xlink:href="#LiberationSans-68" x="361.230469"/>
     <use xlink:href="#LiberationSans-20" x="416.845703"/>
     <use xlink:href="#LiberationSans-28" x="444.628906"/>
     <use xlink:href="#LiberationSans-6c" x="477.929688"/>
     <use xlink:href="#LiberationSans-61" x="500.146484"/>
     <use xlink:href="#LiberationSans-72" x="555.761719"/>
     <use xlink:href="#LiberationSans-76" x="589.0625"/>
     <use xlink:href="#LiberationSans-61" x="639.0625"/>
     <use xlink:href="#LiberationSans-29" x="694.677734"/>
    </g>
   </g>
   <g id="text_19">
    <!-- Mouse -->
    <g style="fill: #808080" transform="translate(83.914682 80.687439) scale(0.1 -0.1)">
     <defs>
      <path id="LiberationSans-4d" d="M 4269 0 
L 4269 2938 
Q 4269 3425 4297 3875 
Q 4144 3316 4022 3000 
L 2884 0 
L 2466 0 
L 1313 3000 
L 1138 3531 
L 1034 3875 
L 1044 3528 
L 1056 2938 
L 1056 0 
L 525 0 
L 525 4403 
L 1309 4403 
L 2481 1350 
Q 2544 1166 2601 955 
Q 2659 744 2678 650 
Q 2703 775 2783 1029 
Q 2863 1284 2891 1350 
L 4041 4403 
L 4806 4403 
L 4806 0 
L 4269 0 
z
" transform="scale(0.015625)"/>
     </defs>
     <use xlink:href="#LiberationSans-4d"/>
     <use xlink:href="#LiberationSans-6f" x="83.300781"/>
     <use xlink:href="#LiberationSans-75" x="138.916016"/>
     <use xlink:href="#LiberationSans-73" x="194.53125"/>
     <use xlink:href="#LiberationSans-65" x="244.53125"/>
    </g>
   </g>
   <g id="text_20">
    <!-- Macaque -->
    <g style="fill: #808080" transform="translate(83.914682 43.382499) scale(0.1 -0.1)">
     <defs>
      <path id="LiberationSans-63" d="M 859 1706 
Q 859 1031 1071 706 
Q 1284 381 1713 381 
Q 2013 381 2214 543 
Q 2416 706 2463 1044 
L 3031 1006 
Q 2966 519 2616 228 
Q 2266 -63 1728 -63 
Q 1019 -63 645 385 
Q 272 834 272 1694 
Q 272 2547 647 2995 
Q 1022 3444 1722 3444 
Q 2241 3444 2583 3175 
Q 2925 2906 3013 2434 
L 2434 2391 
Q 2391 2672 2212 2837 
Q 2034 3003 1706 3003 
Q 1259 3003 1059 2706 
Q 859 2409 859 1706 
z
" transform="scale(0.015625)"/>
      <path id="LiberationSans-71" d="M 1513 -63 
Q 869 -63 569 371 
Q 269 806 269 1675 
Q 269 3444 1513 3444 
Q 1897 3444 2147 3308 
Q 2397 3172 2566 2856 
L 2572 2856 
Q 2572 2950 2584 3179 
Q 2597 3409 2609 3425 
L 3150 3425 
Q 3128 3241 3128 2503 
L 3128 -1328 
L 2566 -1328 
L 2566 44 
L 2578 556 
L 2572 556 
Q 2403 222 2156 79 
Q 1909 -63 1513 -63 
z
M 2566 1731 
Q 2566 2391 2350 2709 
Q 2134 3028 1663 3028 
Q 1234 3028 1046 2709 
Q 859 2391 859 1694 
Q 859 984 1048 678 
Q 1238 372 1656 372 
Q 2134 372 2350 712 
Q 2566 1053 2566 1731 
z
" transform="scale(0.015625)"/>
     </defs>
     <use xlink:href="#LiberationSans-4d"/>
     <use xlink:href="#LiberationSans-61" x="83.300781"/>
     <use xlink:href="#LiberationSans-63" x="138.916016"/>
     <use xlink:href="#LiberationSans-61" x="188.916016"/>
     <use xlink:href="#LiberationSans-71" x="244.53125"/>
     <use xlink:href="#LiberationSans-75" x="300.146484"/>
     <use xlink:href="#LiberationSans-65" x="355.761719"/>
    </g>
   </g>
   <g id="text_21">
    <!-- Human -->
    <g style="fill: #808080" transform="translate(83.914682 22.010647) scale(0.1 -0.1)">
     <defs>
      <path id="LiberationSans-48" d="M 3503 0 
L 3503 2041 
L 1122 2041 
L 1122 0 
L 525 0 
L 525 4403 
L 1122 4403 
L 1122 2541 
L 3503 2541 
L 3503 4403 
L 4100 4403 
L 4100 0 
L 3503 0 
z
" transform="scale(0.015625)"/>
      <path id="LiberationSans-6d" d="M 2400 0 
L 2400 2144 
Q 2400 2634 2265 2821 
Q 2131 3009 1781 3009 
Q 1422 3009 1212 2734 
Q 1003 2459 1003 1959 
L 1003 0 
L 444 0 
L 444 2659 
Q 444 3250 425 3381 
L 956 3381 
Q 959 3366 962 3297 
Q 966 3228 970 3139 
Q 975 3050 981 2803 
L 991 2803 
Q 1172 3163 1406 3303 
Q 1641 3444 1978 3444 
Q 2363 3444 2586 3291 
Q 2809 3138 2897 2803 
L 2906 2803 
Q 3081 3144 3329 3294 
Q 3578 3444 3931 3444 
Q 4444 3444 4676 3166 
Q 4909 2888 4909 2253 
L 4909 0 
L 4353 0 
L 4353 2144 
Q 4353 2634 4218 2821 
Q 4084 3009 3734 3009 
Q 3366 3009 3161 2736 
Q 2956 2463 2956 1959 
L 2956 0 
L 2400 0 
z
" transform="scale(0.015625)"/>
     </defs>
     <use xlink:href="#LiberationSans-48"/>
     <use xlink:href="#LiberationSans-75" x="72.216797"/>
     <use xlink:href="#LiberationSans-6d" x="127.832031"/>
     <use xlink:href="#LiberationSans-61" x="211.132812"/>
     <use xlink:href="#LiberationSans-6e" x="266.748047"/>
    </g>
   </g>
   <g id="legend_1">
    <g id="patch_7">
     <path d="M 419.959665 257.060675 
L 559.77529 257.060675 
Q 561.77529 257.060675 561.77529 255.060675 
L 561.77529 12.5888 
Q 561.77529 10.5888 559.77529 10.5888 
L 419.959665 10.5888 
Q 417.959665 10.5888 417.959665 12.5888 
L 417.959665 255.060675 
Q 417.959665 257.060675 419.959665 257.060675 
z
" style="fill: #ffffff; opacity: 0.8; stroke: #cccccc; stroke-linejoin: miter"/>
    </g>
    <g id="line2d_32"/>
    <g id="text_22">
     <!-- Organism (random) -->
     <g style="fill: #262626" transform="translate(449.959665 21.835675) scale(0.1 -0.1)">
      <defs>
       <path id="LiberationSans-4f" d="M 4672 2222 
Q 4672 1531 4408 1012 
Q 4144 494 3650 215 
Q 3156 -63 2484 -63 
Q 1806 -63 1314 212 
Q 822 488 562 1008 
Q 303 1528 303 2222 
Q 303 3278 881 3873 
Q 1459 4469 2491 4469 
Q 3163 4469 3656 4201 
Q 4150 3934 4411 3425 
Q 4672 2916 4672 2222 
z
M 4063 2222 
Q 4063 3044 3652 3512 
Q 3241 3981 2491 3981 
Q 1734 3981 1321 3518 
Q 909 3056 909 2222 
Q 909 1394 1326 908 
Q 1744 422 2484 422 
Q 3247 422 3655 892 
Q 4063 1363 4063 2222 
z
" transform="scale(0.015625)"/>
       <path id="LiberationSans-64" d="M 2566 544 
Q 2409 219 2151 78 
Q 1894 -63 1513 -63 
Q 872 -63 570 368 
Q 269 800 269 1675 
Q 269 3444 1513 3444 
Q 1897 3444 2153 3303 
Q 2409 3163 2566 2856 
L 2572 2856 
L 2566 3234 
L 2566 4638 
L 3128 4638 
L 3128 697 
Q 3128 169 3147 0 
L 2609 0 
Q 2600 50 2589 231 
Q 2578 413 2578 544 
L 2566 544 
z
M 859 1694 
Q 859 984 1046 678 
Q 1234 372 1656 372 
Q 2134 372 2350 703 
Q 2566 1034 2566 1731 
Q 2566 2403 2350 2715 
Q 2134 3028 1663 3028 
Q 1238 3028 1048 2714 
Q 859 2400 859 1694 
z
" transform="scale(0.015625)"/>
      </defs>
      <use xlink:href="#LiberationSans-4f"/>
      <use xlink:href="#LiberationSans-72" x="77.783203"/>
      <use xlink:href="#LiberationSans-67" x="111.083984"/>
      <use xlink:href="#LiberationSans-61" x="166.699219"/>
      <use xlink:href="#LiberationSans-6e" x="222.314453"/>
      <use xlink:href="#LiberationSans-69" x="277.929688"/>
      <use xlink:href="#LiberationSans-73" x="300.146484"/>
      <use xlink:href="#LiberationSans-6d" x="350.146484"/>
      <use xlink:href="#LiberationSans-20" x="433.447266"/>
      <use xlink:href="#LiberationSans-28" x="461.230469"/>
      <use xlink:href="#LiberationSans-72" x="494.53125"/>
      <use xlink:href="#LiberationSans-61" x="527.832031"/>
      <use xlink:href="#LiberationSans-6e" x="583.447266"/>
      <use xlink:href="#LiberationSans-64" x="639.0625"/>
      <use xlink:href="#LiberationSans-6f" x="694.677734"/>
      <use xlink:href="#LiberationSans-6d" x="750.292969"/>
      <use xlink:href="#LiberationSans-29" x="833.59375"/>
     </g>
    </g>
    <g id="line2d_33">
     <defs>
      <path id="m9966fc1458" d="M 0 3 
C 0.795609 3 1.55874 2.683901 2.12132 2.12132 
C 2.683901 1.55874 3 0.795609 3 0 
C 3 -0.795609 2.683901 -1.55874 2.12132 -2.12132 
C 1.55874 -2.683901 0.795609 -3 0 -3 
C -0.795609 -3 -1.55874 -2.683901 -2.12132 -2.12132 
C -2.683901 -1.55874 -3 -0.795609 -3 0 
C -3 0.795609 -2.683901 1.55874 -2.12132 2.12132 
C -1.55874 2.683901 -0.795609 3 0 3 
z
" style="stroke: #ffffff; stroke-width: 0.48"/>
     </defs>
     <g>
      <use xlink:href="#m9966fc1458" x="431.959665" y="32.65755" style="fill: #1f77b4; stroke: #ffffff; stroke-width: 0.48"/>
     </g>
    </g>
    <g id="text_23">
     <!-- Human -->
     <g style="fill: #262626" transform="translate(449.959665 36.15755) scale(0.1 -0.1)">
      <use xlink:href="#LiberationSans-48"/>
      <use xlink:href="#LiberationSans-75" x="72.216797"/>
      <use xlink:href="#LiberationSans-6d" x="127.832031"/>
      <use xlink:href="#LiberationSans-61" x="211.132812"/>
      <use xlink:href="#LiberationSans-6e" x="266.748047"/>
     </g>
    </g>
    <g id="line2d_34">
     <defs>
      <path id="mee58eea512" d="M 0 3 
C 0.795609 3 1.55874 2.683901 2.12132 2.12132 
C 2.683901 1.55874 3 0.795609 3 0 
C 3 -0.795609 2.683901 -1.55874 2.12132 -2.12132 
C 1.55874 -2.683901 0.795609 -3 0 -3 
C -0.795609 -3 -1.55874 -2.683901 -2.12132 -2.12132 
C -2.683901 -1.55874 -3 -0.795609 -3 0 
C -3 0.795609 -2.683901 1.55874 -2.12132 2.12132 
C -1.55874 2.683901 -0.795609 3 0 3 
z
" style="stroke: #ffffff; stroke-width: 0.48"/>
     </defs>
     <g>
      <use xlink:href="#mee58eea512" x="431.959665" y="46.979425" style="fill: #ff7f0e; stroke: #ffffff; stroke-width: 0.48"/>
     </g>
    </g>
    <g id="text_24">
     <!-- Other -->
     <g style="fill: #262626" transform="translate(449.959665 50.479425) scale(0.1 -0.1)">
      <defs>
       <path id="LiberationSans-74" d="M 1731 25 
Q 1453 -50 1163 -50 
Q 488 -50 488 716 
L 488 2972 
L 97 2972 
L 97 3381 
L 509 3381 
L 675 4138 
L 1050 4138 
L 1050 3381 
L 1675 3381 
L 1675 2972 
L 1050 2972 
L 1050 838 
Q 1050 594 1129 495 
Q 1209 397 1406 397 
Q 1519 397 1731 441 
L 1731 25 
z
" transform="scale(0.015625)"/>
      </defs>
      <use xlink:href="#LiberationSans-4f"/>
      <use xlink:href="#LiberationSans-74" x="77.783203"/>
      <use xlink:href="#LiberationSans-68" x="105.566406"/>
      <use xlink:href="#LiberationSans-65" x="161.181641"/>
      <use xlink:href="#LiberationSans-72" x="216.796875"/>
     </g>
    </g>
    <g id="line2d_35">
     <defs>
      <path id="me50c2f8fed" d="M 0 3 
C 0.795609 3 1.55874 2.683901 2.12132 2.12132 
C 2.683901 1.55874 3 0.795609 3 0 
C 3 -0.795609 2.683901 -1.55874 2.12132 -2.12132 
C 1.55874 -2.683901 0.795609 -3 0 -3 
C -0.795609 -3 -1.55874 -2.683901 -2.12132 -2.12132 
C -2.683901 -1.55874 -3 -0.795609 -3 0 
C -3 0.795609 -2.683901 1.55874 -2.12132 2.12132 
C -1.55874 2.683901 -0.795609 3 0 3 
z
" style="stroke: #ffffff; stroke-width: 0.48"/>
     </defs>
     <g>
      <use xlink:href="#me50c2f8fed" x="431.959665" y="61.3013" style="fill: #2ca02c; stroke: #ffffff; stroke-width: 0.48"/>
     </g>
    </g>
    <g id="text_25">
     <!-- C. elegans -->
     <g style="fill: #262626" transform="translate(449.959665 64.8013) scale(0.1 -0.1)">
      <use xlink:href="#LiberationSans-43"/>
      <use xlink:href="#LiberationSans-2e" x="72.216797"/>
      <use xlink:href="#LiberationSans-20" x="100"/>
      <use xlink:href="#LiberationSans-65" x="127.783203"/>
      <use xlink:href="#LiberationSans-6c" x="183.398438"/>
      <use xlink:href="#LiberationSans-65" x="205.615234"/>
      <use xlink:href="#LiberationSans-67" x="261.230469"/>
      <use xlink:href="#LiberationSans-61" x="316.845703"/>
      <use xlink:href="#LiberationSans-6e" x="372.460938"/>
      <use xlink:href="#LiberationSans-73" x="428.076172"/>
     </g>
    </g>
    <g id="line2d_36">
     <defs>
      <path id="m42ba9be558" d="M 0 3 
C 0.795609 3 1.55874 2.683901 2.12132 2.12132 
C 2.683901 1.55874 3 0.795609 3 0 
C 3 -0.795609 2.683901 -1.55874 2.12132 -2.12132 
C 1.55874 -2.683901 0.795609 -3 0 -3 
C -0.795609 -3 -1.55874 -2.683901 -2.12132 -2.12132 
C -2.683901 -1.55874 -3 -0.795609 -3 0 
C -3 0.795609 -2.683901 1.55874 -2.12132 2.12132 
C -1.55874 2.683901 -0.795609 3 0 3 
z
" style="stroke: #ffffff; stroke-width: 0.48"/>
     </defs>
     <g>
      <use xlink:href="#m42ba9be558" x="431.959665" y="75.623175" style="fill: #d62728; stroke: #ffffff; stroke-width: 0.48"/>
     </g>
    </g>
    <g id="text_26">
     <!-- Mouse -->
     <g style="fill: #262626" transform="translate(449.959665 79.123175) scale(0.1 -0.1)">
      <use xlink:href="#LiberationSans-4d"/>
      <use xlink:href="#LiberationSans-6f" x="83.300781"/>
      <use xlink:href="#LiberationSans-75" x="138.916016"/>
      <use xlink:href="#LiberationSans-73" x="194.53125"/>
      <use xlink:href="#LiberationSans-65" x="244.53125"/>
     </g>
    </g>
    <g id="line2d_37">
     <defs>
      <path id="m5a43efd6d9" d="M 0 3 
C 0.795609 3 1.55874 2.683901 2.12132 2.12132 
C 2.683901 1.55874 3 0.795609 3 0 
C 3 -0.795609 2.683901 -1.55874 2.12132 -2.12132 
C 1.55874 -2.683901 0.795609 -3 0 -3 
C -0.795609 -3 -1.55874 -2.683901 -2.12132 -2.12132 
C -2.683901 -1.55874 -3 -0.795609 -3 0 
C -3 0.795609 -2.683901 1.55874 -2.12132 2.12132 
C -1.55874 2.683901 -0.795609 3 0 3 
z
" style="stroke: #ffffff; stroke-width: 0.48"/>
     </defs>
     <g>
      <use xlink:href="#m5a43efd6d9" x="431.959665" y="89.94505" style="fill: #9467bd; stroke: #ffffff; stroke-width: 0.48"/>
     </g>
    </g>
    <g id="text_27">
     <!-- Rhesus Monkey -->
     <g style="fill: #262626" transform="translate(449.959665 93.44505) scale(0.1 -0.1)">
      <defs>
       <path id="LiberationSans-52" d="M 3638 0 
L 2494 1828 
L 1122 1828 
L 1122 0 
L 525 0 
L 525 4403 
L 2597 4403 
Q 3341 4403 3745 4070 
Q 4150 3738 4150 3144 
Q 4150 2653 3864 2318 
Q 3578 1984 3075 1897 
L 4325 0 
L 3638 0 
z
M 3550 3138 
Q 3550 3522 3289 3723 
Q 3028 3925 2538 3925 
L 1122 3925 
L 1122 2300 
L 2563 2300 
Q 3034 2300 3292 2520 
Q 3550 2741 3550 3138 
z
" transform="scale(0.015625)"/>
       <path id="LiberationSans-6b" d="M 2550 0 
L 1406 1544 
L 994 1203 
L 994 0 
L 431 0 
L 431 4638 
L 994 4638 
L 994 1741 
L 2478 3381 
L 3138 3381 
L 1766 1928 
L 3209 0 
L 2550 0 
z
" transform="scale(0.015625)"/>
       <path id="LiberationSans-79" d="M 597 -1328 
Q 366 -1328 209 -1294 
L 209 -872 
Q 328 -891 472 -891 
Q 997 -891 1303 -119 
L 1356 16 
L 16 3381 
L 616 3381 
L 1328 1513 
Q 1344 1469 1366 1408 
Q 1388 1347 1506 1000 
Q 1625 653 1634 613 
L 1853 1228 
L 2594 3381 
L 3188 3381 
L 1888 0 
Q 1678 -541 1497 -805 
Q 1316 -1069 1095 -1198 
Q 875 -1328 597 -1328 
z
" transform="scale(0.015625)"/>
      </defs>
      <use xlink:href="#LiberationSans-52"/>
      <use xlink:href="#LiberationSans-68" x="72.216797"/>
      <use xlink:href="#LiberationSans-65" x="127.832031"/>
      <use xlink:href="#LiberationSans-73" x="183.447266"/>
      <use xlink:href="#LiberationSans-75" x="233.447266"/>
      <use xlink:href="#LiberationSans-73" x="289.0625"/>
      <use xlink:href="#LiberationSans-20" x="339.0625"/>
      <use xlink:href="#LiberationSans-4d" x="366.845703"/>
      <use xlink:href="#LiberationSans-6f" x="450.146484"/>
      <use xlink:href="#LiberationSans-6e" x="505.761719"/>
      <use xlink:href="#LiberationSans-6b" x="561.376953"/>
      <use xlink:href="#LiberationSans-65" x="611.376953"/>
      <use xlink:href="#LiberationSans-79" x="666.992188"/>
     </g>
    </g>
    <g id="line2d_38">
     <defs>
      <path id="m1f22952fc5" d="M 0 3 
C 0.795609 3 1.55874 2.683901 2.12132 2.12132 
C 2.683901 1.55874 3 0.795609 3 0 
C 3 -0.795609 2.683901 -1.55874 2.12132 -2.12132 
C 1.55874 -2.683901 0.795609 -3 0 -3 
C -0.795609 -3 -1.55874 -2.683901 -2.12132 -2.12132 
C -2.683901 -1.55874 -3 -0.795609 -3 0 
C -3 0.795609 -2.683901 1.55874 -2.12132 2.12132 
C -1.55874 2.683901 -0.795609 3 0 3 
z
" style="stroke: #ffffff; stroke-width: 0.48"/>
     </defs>
     <g>
      <use xlink:href="#m1f22952fc5" x="431.959665" y="104.266925" style="fill: #8c564b; stroke: #ffffff; stroke-width: 0.48"/>
     </g>
    </g>
    <g id="text_28">
     <!-- Zebrafish -->
     <g style="fill: #262626" transform="translate(449.959665 107.766925) scale(0.1 -0.1)">
      <use xlink:href="#LiberationSans-5a"/>
      <use xlink:href="#LiberationSans-65" x="61.083984"/>
      <use xlink:href="#LiberationSans-62" x="116.699219"/>
      <use xlink:href="#LiberationSans-72" x="172.314453"/>
      <use xlink:href="#LiberationSans-61" x="205.615234"/>
      <use xlink:href="#LiberationSans-66" x="261.230469"/>
      <use xlink:href="#LiberationSans-69" x="289.013672"/>
      <use xlink:href="#LiberationSans-73" x="311.230469"/>
      <use xlink:href="#LiberationSans-68" x="361.230469"/>
     </g>
    </g>
    <g id="line2d_39">
     <defs>
      <path id="m51b5601c89" d="M 0 3 
C 0.795609 3 1.55874 2.683901 2.12132 2.12132 
C 2.683901 1.55874 3 0.795609 3 0 
C 3 -0.795609 2.683901 -1.55874 2.12132 -2.12132 
C 1.55874 -2.683901 0.795609 -3 0 -3 
C -0.795609 -3 -1.55874 -2.683901 -2.12132 -2.12132 
C -2.683901 -1.55874 -3 -0.795609 -3 0 
C -3 0.795609 -2.683901 1.55874 -2.12132 2.12132 
C -1.55874 2.683901 -0.795609 3 0 3 
z
" style="stroke: #ffffff; stroke-width: 0.48"/>
     </defs>
     <g>
      <use xlink:href="#m51b5601c89" x="431.959665" y="118.5888" style="fill: #e377c2; stroke: #ffffff; stroke-width: 0.48"/>
     </g>
    </g>
    <g id="text_29">
     <!-- Drosophila -->
     <g style="fill: #262626" transform="translate(449.959665 122.0888) scale(0.1 -0.1)">
      <defs>
       <path id="LiberationSans-44" d="M 4316 2247 
Q 4316 1566 4050 1055 
Q 3784 544 3296 272 
Q 2809 0 2172 0 
L 525 0 
L 525 4403 
L 1981 4403 
Q 3100 4403 3708 3842 
Q 4316 3281 4316 2247 
z
M 3716 2247 
Q 3716 3066 3267 3495 
Q 2819 3925 1969 3925 
L 1122 3925 
L 1122 478 
L 2103 478 
Q 2588 478 2955 690 
Q 3322 903 3519 1303 
Q 3716 1703 3716 2247 
z
" transform="scale(0.015625)"/>
       <path id="LiberationSans-70" d="M 3291 1706 
Q 3291 -63 2047 -63 
Q 1266 -63 997 525 
L 981 525 
Q 994 500 994 -6 
L 994 -1328 
L 431 -1328 
L 431 2691 
Q 431 3213 413 3381 
L 956 3381 
Q 959 3369 965 3292 
Q 972 3216 980 3056 
Q 988 2897 988 2838 
L 1000 2838 
Q 1150 3150 1397 3295 
Q 1644 3441 2047 3441 
Q 2672 3441 2981 3022 
Q 3291 2603 3291 1706 
z
M 2700 1694 
Q 2700 2400 2509 2703 
Q 2319 3006 1903 3006 
Q 1569 3006 1380 2865 
Q 1191 2725 1092 2426 
Q 994 2128 994 1650 
Q 994 984 1206 668 
Q 1419 353 1897 353 
Q 2316 353 2508 661 
Q 2700 969 2700 1694 
z
" transform="scale(0.015625)"/>
      </defs>
      <use xlink:href="#LiberationSans-44"/>
      <use xlink:href="#LiberationSans-72" x="72.216797"/>
      <use xlink:href="#LiberationSans-6f" x="105.517578"/>
      <use xlink:href="#LiberationSans-73" x="161.132812"/>
      <use xlink:href="#LiberationSans-6f" x="211.132812"/>
      <use xlink:href="#LiberationSans-70" x="266.748047"/>
      <use xlink:href="#LiberationSans-68" x="322.363281"/>
      <use xlink:href="#LiberationSans-69" x="377.978516"/>
      <use xlink:href="#LiberationSans-6c" x="400.195312"/>
      <use xlink:href="#LiberationSans-61" x="422.412109"/>
     </g>
    </g>
    <g id="line2d_40">
     <defs>
      <path id="m91e2c17db1" d="M 0 3 
C 0.795609 3 1.55874 2.683901 2.12132 2.12132 
C 2.683901 1.55874 3 0.795609 3 0 
C 3 -0.795609 2.683901 -1.55874 2.12132 -2.12132 
C 1.55874 -2.683901 0.795609 -3 0 -3 
C -0.795609 -3 -1.55874 -2.683901 -2.12132 -2.12132 
C -2.683901 -1.55874 -3 -0.795609 -3 0 
C -3 0.795609 -2.683901 1.55874 -2.12132 2.12132 
C -1.55874 2.683901 -0.795609 3 0 3 
z
" style="stroke: #ffffff; stroke-width: 0.48"/>
     </defs>
     <g>
      <use xlink:href="#m91e2c17db1" x="431.959665" y="132.910675" style="fill: #7f7f7f; stroke: #ffffff; stroke-width: 0.48"/>
     </g>
    </g>
    <g id="text_30">
     <!-- Common Marmoset -->
     <g style="fill: #262626" transform="translate(449.959665 136.410675) scale(0.1 -0.1)">
      <use xlink:href="#LiberationSans-43"/>
      <use xlink:href="#LiberationSans-6f" x="72.216797"/>
      <use xlink:href="#LiberationSans-6d" x="127.832031"/>
      <use xlink:href="#LiberationSans-6d" x="211.132812"/>
      <use xlink:href="#LiberationSans-6f" x="294.433594"/>
      <use xlink:href="#LiberationSans-6e" x="350.048828"/>
      <use xlink:href="#LiberationSans-20" x="405.664062"/>
      <use xlink:href="#LiberationSans-4d" x="433.447266"/>
      <use xlink:href="#LiberationSans-61" x="516.748047"/>
      <use xlink:href="#LiberationSans-72" x="572.363281"/>
      <use xlink:href="#LiberationSans-6d" x="605.664062"/>
      <use xlink:href="#LiberationSans-6f" x="688.964844"/>
      <use xlink:href="#LiberationSans-73" x="744.580078"/>
      <use xlink:href="#LiberationSans-65" x="794.580078"/>
      <use xlink:href="#LiberationSans-74" x="850.195312"/>
     </g>
    </g>
    <g id="line2d_41">
     <defs>
      <path id="m11384871a8" d="M 0 3 
C 0.795609 3 1.55874 2.683901 2.12132 2.12132 
C 2.683901 1.55874 3 0.795609 3 0 
C 3 -0.795609 2.683901 -1.55874 2.12132 -2.12132 
C 1.55874 -2.683901 0.795609 -3 0 -3 
C -0.795609 -3 -1.55874 -2.683901 -2.12132 -2.12132 
C -2.683901 -1.55874 -3 -0.795609 -3 0 
C -3 0.795609 -2.683901 1.55874 -2.12132 2.12132 
C -1.55874 2.683901 -0.795609 3 0 3 
z
" style="stroke: #ffffff; stroke-width: 0.48"/>
     </defs>
     <g>
      <use xlink:href="#m11384871a8" x="431.959665" y="147.23255" style="fill: #bcbd22; stroke: #ffffff; stroke-width: 0.48"/>
     </g>
    </g>
    <g id="text_31">
     <!-- Rat -->
     <g style="fill: #262626" transform="translate(449.959665 150.73255) scale(0.1 -0.1)">
      <use xlink:href="#LiberationSans-52"/>
      <use xlink:href="#LiberationSans-61" x="72.216797"/>
      <use xlink:href="#LiberationSans-74" x="127.832031"/>
     </g>
    </g>
    <g id="line2d_42"/>
    <g id="text_32">
     <!-- Category -->
     <g style="fill: #262626" transform="translate(449.959665 165.054425) scale(0.1 -0.1)">
      <use xlink:href="#LiberationSans-43"/>
      <use xlink:href="#LiberationSans-61" x="72.216797"/>
      <use xlink:href="#LiberationSans-74" x="127.832031"/>
      <use xlink:href="#LiberationSans-65" x="155.615234"/>
      <use xlink:href="#LiberationSans-67" x="211.230469"/>
      <use xlink:href="#LiberationSans-6f" x="266.845703"/>
      <use xlink:href="#LiberationSans-72" x="322.460938"/>
      <use xlink:href="#LiberationSans-79" x="355.761719"/>
     </g>
    </g>
    <g id="line2d_43">
     <defs>
      <path id="m5593f45442" d="M 0 3 
C 0.795609 3 1.55874 2.683901 2.12132 2.12132 
C 2.683901 1.55874 3 0.795609 3 0 
C 3 -0.795609 2.683901 -1.55874 2.12132 -2.12132 
C 1.55874 -2.683901 0.795609 -3 0 -3 
C -0.795609 -3 -1.55874 -2.683901 -2.12132 -2.12132 
C -2.683901 -1.55874 -3 -0.795609 -3 0 
C -3 0.795609 -2.683901 1.55874 -2.12132 2.12132 
C -1.55874 2.683901 -0.795609 3 0 3 
z
" style="stroke: #ffffff; stroke-width: 0.48"/>
     </defs>
     <g>
      <use xlink:href="#m5593f45442" x="431.959665" y="175.8763" style="fill: #333333; stroke: #ffffff; stroke-width: 0.48"/>
     </g>
    </g>
    <g id="text_33">
     <!-- Specialized/Hybrid -->
     <g style="fill: #262626" transform="translate(449.959665 179.3763) scale(0.1 -0.1)">
      <defs>
       <path id="LiberationSans-53" d="M 3975 1216 
Q 3975 606 3498 271 
Q 3022 -63 2156 -63 
Q 547 -63 291 1056 
L 869 1172 
Q 969 775 1294 589 
Q 1619 403 2178 403 
Q 2756 403 3070 601 
Q 3384 800 3384 1184 
Q 3384 1400 3286 1534 
Q 3188 1669 3009 1756 
Q 2831 1844 2584 1903 
Q 2338 1963 2038 2031 
Q 1516 2147 1245 2262 
Q 975 2378 819 2520 
Q 663 2663 580 2853 
Q 497 3044 497 3291 
Q 497 3856 930 4162 
Q 1363 4469 2169 4469 
Q 2919 4469 3316 4239 
Q 3713 4009 3872 3456 
L 3284 3353 
Q 3188 3703 2916 3861 
Q 2644 4019 2163 4019 
Q 1634 4019 1356 3844 
Q 1078 3669 1078 3322 
Q 1078 3119 1186 2986 
Q 1294 2853 1497 2761 
Q 1700 2669 2306 2534 
Q 2509 2488 2711 2439 
Q 2913 2391 3097 2323 
Q 3281 2256 3442 2165 
Q 3603 2075 3722 1944 
Q 3841 1813 3908 1634 
Q 3975 1456 3975 1216 
z
" transform="scale(0.015625)"/>
       <path id="LiberationSans-7a" d="M 259 0 
L 259 428 
L 2150 2947 
L 366 2947 
L 366 3381 
L 2816 3381 
L 2816 2953 
L 922 434 
L 2881 434 
L 2881 0 
L 259 0 
z
" transform="scale(0.015625)"/>
       <path id="LiberationSans-2f" d="M 0 -63 
L 1284 4638 
L 1778 4638 
L 506 -63 
L 0 -63 
z
" transform="scale(0.015625)"/>
      </defs>
      <use xlink:href="#LiberationSans-53"/>
      <use xlink:href="#LiberationSans-70" x="66.699219"/>
      <use xlink:href="#LiberationSans-65" x="122.314453"/>
      <use xlink:href="#LiberationSans-63" x="177.929688"/>
      <use xlink:href="#LiberationSans-69" x="227.929688"/>
      <use xlink:href="#LiberationSans-61" x="250.146484"/>
      <use xlink:href="#LiberationSans-6c" x="305.761719"/>
      <use xlink:href="#LiberationSans-69" x="327.978516"/>
      <use xlink:href="#LiberationSans-7a" x="350.195312"/>
      <use xlink:href="#LiberationSans-65" x="400.195312"/>
      <use xlink:href="#LiberationSans-64" x="455.810547"/>
      <use xlink:href="#LiberationSans-2f" x="511.425781"/>
      <use xlink:href="#LiberationSans-48" x="539.208984"/>
      <use xlink:href="#LiberationSans-79" x="611.425781"/>
      <use xlink:href="#LiberationSans-62" x="661.425781"/>
      <use xlink:href="#LiberationSans-72" x="717.041016"/>
      <use xlink:href="#LiberationSans-69" x="750.341797"/>
      <use xlink:href="#LiberationSans-64" x="772.558594"/>
     </g>
    </g>
    <g id="line2d_44">
     <defs>
      <path id="m6a354f2384" d="M -1.5 3 
L 0 1.5 
L 1.5 3 
L 3 1.5 
L 1.5 0 
L 3 -1.5 
L 1.5 -3 
L 0 -1.5 
L -1.5 -3 
L -3 -1.5 
L -1.5 0 
L -3 1.5 
z
" style="stroke: #ffffff; stroke-width: 0.48; stroke-linejoin: miter"/>
     </defs>
     <g>
      <use xlink:href="#m6a354f2384" x="431.959665" y="190.198175" style="fill: #333333; stroke: #ffffff; stroke-width: 0.48; stroke-linejoin: miter"/>
     </g>
    </g>
    <g id="text_34">
     <!-- Integrate-and-Fire -->
     <g style="fill: #262626" transform="translate(449.959665 193.698175) scale(0.1 -0.1)">
      <defs>
       <path id="LiberationSans-49" d="M 591 0 
L 591 4403 
L 1188 4403 
L 1188 0 
L 591 0 
z
" transform="scale(0.015625)"/>
       <path id="LiberationSans-2d" d="M 284 1450 
L 284 1950 
L 1847 1950 
L 1847 1450 
L 284 1450 
z
" transform="scale(0.015625)"/>
       <path id="LiberationSans-46" d="M 1122 3916 
L 1122 2278 
L 3578 2278 
L 3578 1784 
L 1122 1784 
L 1122 0 
L 525 0 
L 525 4403 
L 3653 4403 
L 3653 3916 
L 1122 3916 
z
" transform="scale(0.015625)"/>
      </defs>
      <use xlink:href="#LiberationSans-49"/>
      <use xlink:href="#LiberationSans-6e" x="27.783203"/>
      <use xlink:href="#LiberationSans-74" x="83.398438"/>
      <use xlink:href="#LiberationSans-65" x="111.181641"/>
      <use xlink:href="#LiberationSans-67" x="166.796875"/>
      <use xlink:href="#LiberationSans-72" x="222.412109"/>
      <use xlink:href="#LiberationSans-61" x="255.712891"/>
      <use xlink:href="#LiberationSans-74" x="311.328125"/>
      <use xlink:href="#LiberationSans-65" x="339.111328"/>
      <use xlink:href="#LiberationSans-2d" x="394.726562"/>
      <use xlink:href="#LiberationSans-61" x="428.027344"/>
      <use xlink:href="#LiberationSans-6e" x="483.642578"/>
      <use xlink:href="#LiberationSans-64" x="539.257812"/>
      <use xlink:href="#LiberationSans-2d" x="594.873047"/>
      <use xlink:href="#LiberationSans-46" x="628.173828"/>
      <use xlink:href="#LiberationSans-69" x="689.257812"/>
      <use xlink:href="#LiberationSans-72" x="711.474609"/>
      <use xlink:href="#LiberationSans-65" x="744.775391"/>
     </g>
    </g>
    <g id="line2d_45">
     <defs>
      <path id="m4d5be7560e" d="M -2.12132 -2.12132 
L -2.12132 2.12132 
L 2.12132 2.12132 
L 2.12132 -2.12132 
z
" style="stroke: #ffffff; stroke-width: 0.48; stroke-linejoin: miter"/>
     </defs>
     <g>
      <use xlink:href="#m4d5be7560e" x="431.959665" y="204.52005" style="fill: #333333; stroke: #ffffff; stroke-width: 0.48; stroke-linejoin: miter"/>
     </g>
    </g>
    <g id="text_35">
     <!-- Simple Abstract -->
     <g style="fill: #262626" transform="translate(449.959665 208.02005) scale(0.1 -0.1)">
      <defs>
       <path id="LiberationSans-41" d="M 3647 0 
L 3144 1288 
L 1138 1288 
L 631 0 
L 13 0 
L 1809 4403 
L 2488 4403 
L 4256 0 
L 3647 0 
z
M 2141 3953 
L 2113 3866 
Q 2034 3606 1881 3200 
L 1319 1753 
L 2966 1753 
L 2400 3206 
Q 2313 3422 2225 3694 
L 2141 3953 
z
" transform="scale(0.015625)"/>
      </defs>
      <use xlink:href="#LiberationSans-53"/>
      <use xlink:href="#LiberationSans-69" x="66.699219"/>
      <use xlink:href="#LiberationSans-6d" x="88.916016"/>
      <use xlink:href="#LiberationSans-70" x="172.216797"/>
      <use xlink:href="#LiberationSans-6c" x="227.832031"/>
      <use xlink:href="#LiberationSans-65" x="250.048828"/>
      <use xlink:href="#LiberationSans-20" x="305.664062"/>
      <use xlink:href="#LiberationSans-41" x="327.947266"/>
      <use xlink:href="#LiberationSans-62" x="394.646484"/>
      <use xlink:href="#LiberationSans-73" x="450.261719"/>
      <use xlink:href="#LiberationSans-74" x="500.261719"/>
      <use xlink:href="#LiberationSans-72" x="528.044922"/>
      <use xlink:href="#LiberationSans-61" x="561.345703"/>
      <use xlink:href="#LiberationSans-63" x="616.960938"/>
      <use xlink:href="#LiberationSans-74" x="666.960938"/>
     </g>
    </g>
    <g id="line2d_46">
     <defs>
      <path id="ma6d728362b" d="M -1 3 
L 1 3 
L 1 1 
L 3 1 
L 3 -1 
L 1 -1 
L 1 -3 
L -1 -3 
L -1 -1 
L -3 -1 
L -3 1 
L -1 1 
z
" style="stroke: #ffffff; stroke-width: 0.48; stroke-linejoin: miter"/>
     </defs>
     <g>
      <use xlink:href="#ma6d728362b" x="431.959665" y="218.841925" style="fill: #333333; stroke: #ffffff; stroke-width: 0.48; stroke-linejoin: miter"/>
     </g>
    </g>
    <g id="text_36">
     <!-- Detailed Biophysical -->
     <g style="fill: #262626" transform="translate(449.959665 222.341925) scale(0.1 -0.1)">
      <defs>
       <path id="LiberationSans-42" d="M 3931 1241 
Q 3931 653 3503 326 
Q 3075 0 2313 0 
L 525 0 
L 525 4403 
L 2125 4403 
Q 3675 4403 3675 3334 
Q 3675 2944 3456 2678 
Q 3238 2413 2838 2322 
Q 3363 2259 3647 1970 
Q 3931 1681 3931 1241 
z
M 3075 3263 
Q 3075 3619 2831 3772 
Q 2588 3925 2125 3925 
L 1122 3925 
L 1122 2531 
L 2125 2531 
Q 2603 2531 2839 2711 
Q 3075 2891 3075 3263 
z
M 3328 1288 
Q 3328 2066 2234 2066 
L 1122 2066 
L 1122 478 
L 2281 478 
Q 2828 478 3078 681 
Q 3328 884 3328 1288 
z
" transform="scale(0.015625)"/>
      </defs>
      <use xlink:href="#LiberationSans-44"/>
      <use xlink:href="#LiberationSans-65" x="72.216797"/>
      <use xlink:href="#LiberationSans-74" x="127.832031"/>
      <use xlink:href="#LiberationSans-61" x="155.615234"/>
      <use xlink:href="#LiberationSans-69" x="211.230469"/>
      <use xlink:href="#LiberationSans-6c" x="233.447266"/>
      <use xlink:href="#LiberationSans-65" x="255.664062"/>
      <use xlink:href="#LiberationSans-64" x="311.279297"/>
      <use xlink:href="#LiberationSans-20" x="366.894531"/>
      <use xlink:href="#LiberationSans-42" x="394.677734"/>
      <use xlink:href="#LiberationSans-69" x="461.376953"/>
      <use xlink:href="#LiberationSans-6f" x="483.59375"/>
      <use xlink:href="#LiberationSans-70" x="539.208984"/>
      <use xlink:href="#LiberationSans-68" x="594.824219"/>
      <use xlink:href="#LiberationSans-79" x="650.439453"/>
      <use xlink:href="#LiberationSans-73" x="700.439453"/>
      <use xlink:href="#LiberationSans-69" x="750.439453"/>
      <use xlink:href="#LiberationSans-63" x="772.65625"/>
      <use xlink:href="#LiberationSans-61" x="822.65625"/>
      <use xlink:href="#LiberationSans-6c" x="878.271484"/>
     </g>
    </g>
    <g id="line2d_47">
     <defs>
      <path id="m1b67c6a94f" d="M 0 -3 
L -3 -0 
L -0 3 
L 3 0 
z
" style="stroke: #ffffff; stroke-width: 0.48; stroke-linejoin: miter"/>
     </defs>
     <g>
      <use xlink:href="#m1b67c6a94f" x="431.959665" y="233.1638" style="fill: #333333; stroke: #ffffff; stroke-width: 0.48; stroke-linejoin: miter"/>
     </g>
    </g>
    <g id="text_37">
     <!-- Unknown -->
     <g style="fill: #262626" transform="translate(449.959665 236.6638) scale(0.1 -0.1)">
      <defs>
       <path id="LiberationSans-55" d="M 2284 -63 
Q 1744 -63 1341 134 
Q 938 331 716 706 
Q 494 1081 494 1600 
L 494 4403 
L 1091 4403 
L 1091 1650 
Q 1091 1047 1397 734 
Q 1703 422 2281 422 
Q 2875 422 3204 745 
Q 3534 1069 3534 1691 
L 3534 4403 
L 4128 4403 
L 4128 1656 
Q 4128 1122 3901 734 
Q 3675 347 3261 142 
Q 2847 -63 2284 -63 
z
" transform="scale(0.015625)"/>
       <path id="LiberationSans-77" d="M 3669 0 
L 3016 0 
L 2425 2391 
L 2313 2919 
Q 2284 2778 2225 2514 
Q 2166 2250 1588 0 
L 938 0 
L -9 3381 
L 547 3381 
L 1119 1084 
Q 1141 1009 1253 466 
L 1306 697 
L 2013 3381 
L 2616 3381 
L 3206 1059 
L 3350 466 
L 3447 900 
L 4088 3381 
L 4638 3381 
L 3669 0 
z
" transform="scale(0.015625)"/>
      </defs>
      <use xlink:href="#LiberationSans-55"/>
      <use xlink:href="#LiberationSans-6e" x="72.216797"/>
      <use xlink:href="#LiberationSans-6b" x="127.832031"/>
      <use xlink:href="#LiberationSans-6e" x="177.832031"/>
      <use xlink:href="#LiberationSans-6f" x="233.447266"/>
      <use xlink:href="#LiberationSans-77" x="289.0625"/>
      <use xlink:href="#LiberationSans-6e" x="361.279297"/>
     </g>
    </g>
    <g id="line2d_48">
     <defs>
      <path id="m299aa3ac71" d="M 0 -3 
L -1.06066 -1.06066 
L -3 -0 
L -1.06066 1.06066 
L -0 3 
L 1.06066 1.06066 
L 3 0 
L 1.06066 -1.06066 
z
" style="stroke: #ffffff; stroke-width: 0.48; stroke-linejoin: bevel"/>
     </defs>
     <g>
      <use xlink:href="#m299aa3ac71" x="431.959665" y="247.485675" style="fill: #333333; stroke: #ffffff; stroke-width: 0.48; stroke-linejoin: bevel"/>
     </g>
    </g>
    <g id="text_38">
     <!-- Intermediate Complexity -->
     <g style="fill: #262626" transform="translate(449.959665 250.985675) scale(0.1 -0.1)">
      <defs>
       <path id="LiberationSans-78" d="M 2503 0 
L 1594 1388 
L 678 0 
L 72 0 
L 1275 1738 
L 128 3381 
L 750 3381 
L 1594 2066 
L 2431 3381 
L 3059 3381 
L 1913 1744 
L 3131 0 
L 2503 0 
z
" transform="scale(0.015625)"/>
      </defs>
      <use xlink:href="#LiberationSans-49"/>
      <use xlink:href="#LiberationSans-6e" x="27.783203"/>
      <use xlink:href="#LiberationSans-74" x="83.398438"/>
      <use xlink:href="#LiberationSans-65" x="111.181641"/>
      <use xlink:href="#LiberationSans-72" x="166.796875"/>
      <use xlink:href="#LiberationSans-6d" x="200.097656"/>
      <use xlink:href="#LiberationSans-65" x="283.398438"/>
      <use xlink:href="#LiberationSans-64" x="339.013672"/>
      <use xlink:href="#LiberationSans-69" x="394.628906"/>
      <use xlink:href="#LiberationSans-61" x="416.845703"/>
      <use xlink:href="#LiberationSans-74" x="472.460938"/>
      <use xlink:href="#LiberationSans-65" x="500.244141"/>
      <use xlink:href="#LiberationSans-20" x="555.859375"/>
      <use xlink:href="#LiberationSans-43" x="583.642578"/>
      <use xlink:href="#LiberationSans-6f" x="655.859375"/>
      <use xlink:href="#LiberationSans-6d" x="711.474609"/>
      <use xlink:href="#LiberationSans-70" x="794.775391"/>
      <use xlink:href="#LiberationSans-6c" x="850.390625"/>
      <use xlink:href="#LiberationSans-65" x="872.607422"/>
      <use xlink:href="#LiberationSans-78" x="928.222656"/>
      <use xlink:href="#LiberationSans-69" x="978.222656"/>
      <use xlink:href="#LiberationSans-74" x="1000.439453"/>
      <use xlink:href="#LiberationSans-79" x="1028.222656"/>
     </g>
    </g>
   </g>
  </g>
 </g>
 <defs>
  <clipPath id="p3e1eb164d0">
   <rect x="52.059169" y="12.4528" width="350.388831" height="228.8"/>
  </clipPath>
 </defs>
</svg>
